%TF.GenerationSoftware,KiCad,Pcbnew,9.0.2+dfsg-1*%
%TF.CreationDate,2026-07-31T11:14:11+02:00*%
%TF.ProjectId,AskSin-Analyzer-V3,41736b53-696e-42d4-916e-616c797a6572,rev?*%
%TF.SameCoordinates,Original*%
%TF.FileFunction,Legend,Bot*%
%TF.FilePolarity,Positive*%
%FSLAX46Y46*%
G04 Gerber Fmt 4.6, Leading zero omitted, Abs format (unit mm)*
G04 Created by KiCad (PCBNEW 9.0.2+dfsg-1) date 2026-07-31 11:14:11*
%MOMM*%
%LPD*%
G01*
G04 APERTURE LIST*
%ADD10C,0.150000*%
%ADD11C,0.120000*%
G04 APERTURE END LIST*
D10*
X159476191Y-76392914D02*
X159571430Y-76345295D01*
X159571430Y-76345295D02*
X159761906Y-76345295D01*
X159761906Y-76345295D02*
X159857144Y-76392914D01*
X159857144Y-76392914D02*
X159952382Y-76488152D01*
X159952382Y-76488152D02*
X160000001Y-76583390D01*
X160000001Y-76583390D02*
X160000001Y-76773866D01*
X160000001Y-76773866D02*
X159952382Y-76869104D01*
X159952382Y-76869104D02*
X159857144Y-76964342D01*
X159857144Y-76964342D02*
X159761906Y-77011961D01*
X159761906Y-77011961D02*
X159571430Y-77011961D01*
X159571430Y-77011961D02*
X159476191Y-76964342D01*
X159666668Y-76011961D02*
X159904763Y-76059580D01*
X159904763Y-76059580D02*
X160142858Y-76202438D01*
X160142858Y-76202438D02*
X160285715Y-76440533D01*
X160285715Y-76440533D02*
X160333334Y-76678628D01*
X160333334Y-76678628D02*
X160285715Y-76916723D01*
X160285715Y-76916723D02*
X160142858Y-77154819D01*
X160142858Y-77154819D02*
X159904763Y-77297676D01*
X159904763Y-77297676D02*
X159666668Y-77345295D01*
X159666668Y-77345295D02*
X159428572Y-77297676D01*
X159428572Y-77297676D02*
X159190477Y-77154819D01*
X159190477Y-77154819D02*
X159047620Y-76916723D01*
X159047620Y-76916723D02*
X159000001Y-76678628D01*
X159000001Y-76678628D02*
X159047620Y-76440533D01*
X159047620Y-76440533D02*
X159190477Y-76202438D01*
X159190477Y-76202438D02*
X159428572Y-76059580D01*
X159428572Y-76059580D02*
X159666668Y-76011961D01*
X157857143Y-76250057D02*
X157809524Y-76202438D01*
X157809524Y-76202438D02*
X157714286Y-76154819D01*
X157714286Y-76154819D02*
X157476191Y-76154819D01*
X157476191Y-76154819D02*
X157380953Y-76202438D01*
X157380953Y-76202438D02*
X157333334Y-76250057D01*
X157333334Y-76250057D02*
X157285715Y-76345295D01*
X157285715Y-76345295D02*
X157285715Y-76440533D01*
X157285715Y-76440533D02*
X157333334Y-76583390D01*
X157333334Y-76583390D02*
X157904762Y-77154819D01*
X157904762Y-77154819D02*
X157285715Y-77154819D01*
X156666667Y-76154819D02*
X156571429Y-76154819D01*
X156571429Y-76154819D02*
X156476191Y-76202438D01*
X156476191Y-76202438D02*
X156428572Y-76250057D01*
X156428572Y-76250057D02*
X156380953Y-76345295D01*
X156380953Y-76345295D02*
X156333334Y-76535771D01*
X156333334Y-76535771D02*
X156333334Y-76773866D01*
X156333334Y-76773866D02*
X156380953Y-76964342D01*
X156380953Y-76964342D02*
X156428572Y-77059580D01*
X156428572Y-77059580D02*
X156476191Y-77107200D01*
X156476191Y-77107200D02*
X156571429Y-77154819D01*
X156571429Y-77154819D02*
X156666667Y-77154819D01*
X156666667Y-77154819D02*
X156761905Y-77107200D01*
X156761905Y-77107200D02*
X156809524Y-77059580D01*
X156809524Y-77059580D02*
X156857143Y-76964342D01*
X156857143Y-76964342D02*
X156904762Y-76773866D01*
X156904762Y-76773866D02*
X156904762Y-76535771D01*
X156904762Y-76535771D02*
X156857143Y-76345295D01*
X156857143Y-76345295D02*
X156809524Y-76250057D01*
X156809524Y-76250057D02*
X156761905Y-76202438D01*
X156761905Y-76202438D02*
X156666667Y-76154819D01*
X155952381Y-76250057D02*
X155904762Y-76202438D01*
X155904762Y-76202438D02*
X155809524Y-76154819D01*
X155809524Y-76154819D02*
X155571429Y-76154819D01*
X155571429Y-76154819D02*
X155476191Y-76202438D01*
X155476191Y-76202438D02*
X155428572Y-76250057D01*
X155428572Y-76250057D02*
X155380953Y-76345295D01*
X155380953Y-76345295D02*
X155380953Y-76440533D01*
X155380953Y-76440533D02*
X155428572Y-76583390D01*
X155428572Y-76583390D02*
X156000000Y-77154819D01*
X156000000Y-77154819D02*
X155380953Y-77154819D01*
X154523810Y-76154819D02*
X154714286Y-76154819D01*
X154714286Y-76154819D02*
X154809524Y-76202438D01*
X154809524Y-76202438D02*
X154857143Y-76250057D01*
X154857143Y-76250057D02*
X154952381Y-76392914D01*
X154952381Y-76392914D02*
X155000000Y-76583390D01*
X155000000Y-76583390D02*
X155000000Y-76964342D01*
X155000000Y-76964342D02*
X154952381Y-77059580D01*
X154952381Y-77059580D02*
X154904762Y-77107200D01*
X154904762Y-77107200D02*
X154809524Y-77154819D01*
X154809524Y-77154819D02*
X154619048Y-77154819D01*
X154619048Y-77154819D02*
X154523810Y-77107200D01*
X154523810Y-77107200D02*
X154476191Y-77059580D01*
X154476191Y-77059580D02*
X154428572Y-76964342D01*
X154428572Y-76964342D02*
X154428572Y-76726247D01*
X154428572Y-76726247D02*
X154476191Y-76631009D01*
X154476191Y-76631009D02*
X154523810Y-76583390D01*
X154523810Y-76583390D02*
X154619048Y-76535771D01*
X154619048Y-76535771D02*
X154809524Y-76535771D01*
X154809524Y-76535771D02*
X154904762Y-76583390D01*
X154904762Y-76583390D02*
X154952381Y-76631009D01*
X154952381Y-76631009D02*
X155000000Y-76726247D01*
X153285714Y-77107200D02*
X153142857Y-77154819D01*
X153142857Y-77154819D02*
X152904762Y-77154819D01*
X152904762Y-77154819D02*
X152809524Y-77107200D01*
X152809524Y-77107200D02*
X152761905Y-77059580D01*
X152761905Y-77059580D02*
X152714286Y-76964342D01*
X152714286Y-76964342D02*
X152714286Y-76869104D01*
X152714286Y-76869104D02*
X152761905Y-76773866D01*
X152761905Y-76773866D02*
X152809524Y-76726247D01*
X152809524Y-76726247D02*
X152904762Y-76678628D01*
X152904762Y-76678628D02*
X153095238Y-76631009D01*
X153095238Y-76631009D02*
X153190476Y-76583390D01*
X153190476Y-76583390D02*
X153238095Y-76535771D01*
X153238095Y-76535771D02*
X153285714Y-76440533D01*
X153285714Y-76440533D02*
X153285714Y-76345295D01*
X153285714Y-76345295D02*
X153238095Y-76250057D01*
X153238095Y-76250057D02*
X153190476Y-76202438D01*
X153190476Y-76202438D02*
X153095238Y-76154819D01*
X153095238Y-76154819D02*
X152857143Y-76154819D01*
X152857143Y-76154819D02*
X152714286Y-76202438D01*
X152285714Y-77059580D02*
X152238095Y-77107200D01*
X152238095Y-77107200D02*
X152285714Y-77154819D01*
X152285714Y-77154819D02*
X152333333Y-77107200D01*
X152333333Y-77107200D02*
X152285714Y-77059580D01*
X152285714Y-77059580D02*
X152285714Y-77154819D01*
X151095238Y-77107200D02*
X150952381Y-77154819D01*
X150952381Y-77154819D02*
X150714286Y-77154819D01*
X150714286Y-77154819D02*
X150619048Y-77107200D01*
X150619048Y-77107200D02*
X150571429Y-77059580D01*
X150571429Y-77059580D02*
X150523810Y-76964342D01*
X150523810Y-76964342D02*
X150523810Y-76869104D01*
X150523810Y-76869104D02*
X150571429Y-76773866D01*
X150571429Y-76773866D02*
X150619048Y-76726247D01*
X150619048Y-76726247D02*
X150714286Y-76678628D01*
X150714286Y-76678628D02*
X150904762Y-76631009D01*
X150904762Y-76631009D02*
X151000000Y-76583390D01*
X151000000Y-76583390D02*
X151047619Y-76535771D01*
X151047619Y-76535771D02*
X151095238Y-76440533D01*
X151095238Y-76440533D02*
X151095238Y-76345295D01*
X151095238Y-76345295D02*
X151047619Y-76250057D01*
X151047619Y-76250057D02*
X151000000Y-76202438D01*
X151000000Y-76202438D02*
X150904762Y-76154819D01*
X150904762Y-76154819D02*
X150666667Y-76154819D01*
X150666667Y-76154819D02*
X150523810Y-76202438D01*
X150238095Y-76488152D02*
X149857143Y-76488152D01*
X150095238Y-76154819D02*
X150095238Y-77011961D01*
X150095238Y-77011961D02*
X150047619Y-77107200D01*
X150047619Y-77107200D02*
X149952381Y-77154819D01*
X149952381Y-77154819D02*
X149857143Y-77154819D01*
X149142857Y-77107200D02*
X149238095Y-77154819D01*
X149238095Y-77154819D02*
X149428571Y-77154819D01*
X149428571Y-77154819D02*
X149523809Y-77107200D01*
X149523809Y-77107200D02*
X149571428Y-77011961D01*
X149571428Y-77011961D02*
X149571428Y-76631009D01*
X149571428Y-76631009D02*
X149523809Y-76535771D01*
X149523809Y-76535771D02*
X149428571Y-76488152D01*
X149428571Y-76488152D02*
X149238095Y-76488152D01*
X149238095Y-76488152D02*
X149142857Y-76535771D01*
X149142857Y-76535771D02*
X149095238Y-76631009D01*
X149095238Y-76631009D02*
X149095238Y-76726247D01*
X149095238Y-76726247D02*
X149571428Y-76821485D01*
X148666666Y-77154819D02*
X148666666Y-76488152D01*
X148666666Y-76678628D02*
X148619047Y-76583390D01*
X148619047Y-76583390D02*
X148571428Y-76535771D01*
X148571428Y-76535771D02*
X148476190Y-76488152D01*
X148476190Y-76488152D02*
X148380952Y-76488152D01*
X148047618Y-76488152D02*
X148047618Y-77154819D01*
X148047618Y-76583390D02*
X147999999Y-76535771D01*
X147999999Y-76535771D02*
X147904761Y-76488152D01*
X147904761Y-76488152D02*
X147761904Y-76488152D01*
X147761904Y-76488152D02*
X147666666Y-76535771D01*
X147666666Y-76535771D02*
X147619047Y-76631009D01*
X147619047Y-76631009D02*
X147619047Y-77154819D01*
X147142856Y-77154819D02*
X147142856Y-76488152D01*
X147142856Y-76154819D02*
X147190475Y-76202438D01*
X147190475Y-76202438D02*
X147142856Y-76250057D01*
X147142856Y-76250057D02*
X147095237Y-76202438D01*
X147095237Y-76202438D02*
X147142856Y-76154819D01*
X147142856Y-76154819D02*
X147142856Y-76250057D01*
X146809523Y-76488152D02*
X146428571Y-76488152D01*
X146666666Y-76154819D02*
X146666666Y-77011961D01*
X146666666Y-77011961D02*
X146619047Y-77107200D01*
X146619047Y-77107200D02*
X146523809Y-77154819D01*
X146523809Y-77154819D02*
X146428571Y-77154819D01*
X146190475Y-76488152D02*
X145666666Y-76488152D01*
X145666666Y-76488152D02*
X146190475Y-77154819D01*
X146190475Y-77154819D02*
X145666666Y-77154819D01*
X145285713Y-77154819D02*
X145285713Y-76154819D01*
X145190475Y-76773866D02*
X144904761Y-77154819D01*
X144904761Y-76488152D02*
X145285713Y-76869104D01*
X144095237Y-77107200D02*
X144190475Y-77154819D01*
X144190475Y-77154819D02*
X144380951Y-77154819D01*
X144380951Y-77154819D02*
X144476189Y-77107200D01*
X144476189Y-77107200D02*
X144523808Y-77011961D01*
X144523808Y-77011961D02*
X144523808Y-76631009D01*
X144523808Y-76631009D02*
X144476189Y-76535771D01*
X144476189Y-76535771D02*
X144380951Y-76488152D01*
X144380951Y-76488152D02*
X144190475Y-76488152D01*
X144190475Y-76488152D02*
X144095237Y-76535771D01*
X144095237Y-76535771D02*
X144047618Y-76631009D01*
X144047618Y-76631009D02*
X144047618Y-76726247D01*
X144047618Y-76726247D02*
X144523808Y-76821485D01*
X142714284Y-76726247D02*
X142761903Y-76773866D01*
X142761903Y-76773866D02*
X142714284Y-76821485D01*
X142714284Y-76821485D02*
X142666665Y-76773866D01*
X142666665Y-76773866D02*
X142714284Y-76726247D01*
X142714284Y-76726247D02*
X142714284Y-76821485D01*
X140761903Y-77059580D02*
X140809522Y-77107200D01*
X140809522Y-77107200D02*
X140952379Y-77154819D01*
X140952379Y-77154819D02*
X141047617Y-77154819D01*
X141047617Y-77154819D02*
X141190474Y-77107200D01*
X141190474Y-77107200D02*
X141285712Y-77011961D01*
X141285712Y-77011961D02*
X141333331Y-76916723D01*
X141333331Y-76916723D02*
X141380950Y-76726247D01*
X141380950Y-76726247D02*
X141380950Y-76583390D01*
X141380950Y-76583390D02*
X141333331Y-76392914D01*
X141333331Y-76392914D02*
X141285712Y-76297676D01*
X141285712Y-76297676D02*
X141190474Y-76202438D01*
X141190474Y-76202438D02*
X141047617Y-76154819D01*
X141047617Y-76154819D02*
X140952379Y-76154819D01*
X140952379Y-76154819D02*
X140809522Y-76202438D01*
X140809522Y-76202438D02*
X140761903Y-76250057D01*
X139761903Y-77059580D02*
X139809522Y-77107200D01*
X139809522Y-77107200D02*
X139952379Y-77154819D01*
X139952379Y-77154819D02*
X140047617Y-77154819D01*
X140047617Y-77154819D02*
X140190474Y-77107200D01*
X140190474Y-77107200D02*
X140285712Y-77011961D01*
X140285712Y-77011961D02*
X140333331Y-76916723D01*
X140333331Y-76916723D02*
X140380950Y-76726247D01*
X140380950Y-76726247D02*
X140380950Y-76583390D01*
X140380950Y-76583390D02*
X140333331Y-76392914D01*
X140333331Y-76392914D02*
X140285712Y-76297676D01*
X140285712Y-76297676D02*
X140190474Y-76202438D01*
X140190474Y-76202438D02*
X140047617Y-76154819D01*
X140047617Y-76154819D02*
X139952379Y-76154819D01*
X139952379Y-76154819D02*
X139809522Y-76202438D01*
X139809522Y-76202438D02*
X139761903Y-76250057D01*
X138238093Y-76631009D02*
X138095236Y-76678628D01*
X138095236Y-76678628D02*
X138047617Y-76726247D01*
X138047617Y-76726247D02*
X137999998Y-76821485D01*
X137999998Y-76821485D02*
X137999998Y-76964342D01*
X137999998Y-76964342D02*
X138047617Y-77059580D01*
X138047617Y-77059580D02*
X138095236Y-77107200D01*
X138095236Y-77107200D02*
X138190474Y-77154819D01*
X138190474Y-77154819D02*
X138571426Y-77154819D01*
X138571426Y-77154819D02*
X138571426Y-76154819D01*
X138571426Y-76154819D02*
X138238093Y-76154819D01*
X138238093Y-76154819D02*
X138142855Y-76202438D01*
X138142855Y-76202438D02*
X138095236Y-76250057D01*
X138095236Y-76250057D02*
X138047617Y-76345295D01*
X138047617Y-76345295D02*
X138047617Y-76440533D01*
X138047617Y-76440533D02*
X138095236Y-76535771D01*
X138095236Y-76535771D02*
X138142855Y-76583390D01*
X138142855Y-76583390D02*
X138238093Y-76631009D01*
X138238093Y-76631009D02*
X138571426Y-76631009D01*
X137380950Y-76678628D02*
X137380950Y-77154819D01*
X137714283Y-76154819D02*
X137380950Y-76678628D01*
X137380950Y-76678628D02*
X137047617Y-76154819D01*
X136714283Y-76773866D02*
X135952379Y-76773866D01*
X135476188Y-77154819D02*
X135476188Y-76154819D01*
X135476188Y-76154819D02*
X134904760Y-77154819D01*
X134904760Y-77154819D02*
X134904760Y-76154819D01*
X133857141Y-77059580D02*
X133904760Y-77107200D01*
X133904760Y-77107200D02*
X134047617Y-77154819D01*
X134047617Y-77154819D02*
X134142855Y-77154819D01*
X134142855Y-77154819D02*
X134285712Y-77107200D01*
X134285712Y-77107200D02*
X134380950Y-77011961D01*
X134380950Y-77011961D02*
X134428569Y-76916723D01*
X134428569Y-76916723D02*
X134476188Y-76726247D01*
X134476188Y-76726247D02*
X134476188Y-76583390D01*
X134476188Y-76583390D02*
X134428569Y-76392914D01*
X134428569Y-76392914D02*
X134380950Y-76297676D01*
X134380950Y-76297676D02*
X134285712Y-76202438D01*
X134285712Y-76202438D02*
X134142855Y-76154819D01*
X134142855Y-76154819D02*
X134047617Y-76154819D01*
X134047617Y-76154819D02*
X133904760Y-76202438D01*
X133904760Y-76202438D02*
X133857141Y-76250057D01*
X133428569Y-76773866D02*
X132666665Y-76773866D01*
X132238093Y-77107200D02*
X132095236Y-77154819D01*
X132095236Y-77154819D02*
X131857141Y-77154819D01*
X131857141Y-77154819D02*
X131761903Y-77107200D01*
X131761903Y-77107200D02*
X131714284Y-77059580D01*
X131714284Y-77059580D02*
X131666665Y-76964342D01*
X131666665Y-76964342D02*
X131666665Y-76869104D01*
X131666665Y-76869104D02*
X131714284Y-76773866D01*
X131714284Y-76773866D02*
X131761903Y-76726247D01*
X131761903Y-76726247D02*
X131857141Y-76678628D01*
X131857141Y-76678628D02*
X132047617Y-76631009D01*
X132047617Y-76631009D02*
X132142855Y-76583390D01*
X132142855Y-76583390D02*
X132190474Y-76535771D01*
X132190474Y-76535771D02*
X132238093Y-76440533D01*
X132238093Y-76440533D02*
X132238093Y-76345295D01*
X132238093Y-76345295D02*
X132190474Y-76250057D01*
X132190474Y-76250057D02*
X132142855Y-76202438D01*
X132142855Y-76202438D02*
X132047617Y-76154819D01*
X132047617Y-76154819D02*
X131809522Y-76154819D01*
X131809522Y-76154819D02*
X131666665Y-76202438D01*
X131285712Y-76869104D02*
X130809522Y-76869104D01*
X131380950Y-77154819D02*
X131047617Y-76154819D01*
X131047617Y-76154819D02*
X130714284Y-77154819D01*
X129190474Y-76488152D02*
X129190474Y-77154819D01*
X129428569Y-76107200D02*
X129666664Y-76821485D01*
X129666664Y-76821485D02*
X129047617Y-76821485D01*
X128666664Y-77059580D02*
X128619045Y-77107200D01*
X128619045Y-77107200D02*
X128666664Y-77154819D01*
X128666664Y-77154819D02*
X128714283Y-77107200D01*
X128714283Y-77107200D02*
X128666664Y-77059580D01*
X128666664Y-77059580D02*
X128666664Y-77154819D01*
X127999998Y-76154819D02*
X127904760Y-76154819D01*
X127904760Y-76154819D02*
X127809522Y-76202438D01*
X127809522Y-76202438D02*
X127761903Y-76250057D01*
X127761903Y-76250057D02*
X127714284Y-76345295D01*
X127714284Y-76345295D02*
X127666665Y-76535771D01*
X127666665Y-76535771D02*
X127666665Y-76773866D01*
X127666665Y-76773866D02*
X127714284Y-76964342D01*
X127714284Y-76964342D02*
X127761903Y-77059580D01*
X127761903Y-77059580D02*
X127809522Y-77107200D01*
X127809522Y-77107200D02*
X127904760Y-77154819D01*
X127904760Y-77154819D02*
X127999998Y-77154819D01*
X127999998Y-77154819D02*
X128095236Y-77107200D01*
X128095236Y-77107200D02*
X128142855Y-77059580D01*
X128142855Y-77059580D02*
X128190474Y-76964342D01*
X128190474Y-76964342D02*
X128238093Y-76773866D01*
X128238093Y-76773866D02*
X128238093Y-76535771D01*
X128238093Y-76535771D02*
X128190474Y-76345295D01*
X128190474Y-76345295D02*
X128142855Y-76250057D01*
X128142855Y-76250057D02*
X128095236Y-76202438D01*
X128095236Y-76202438D02*
X127999998Y-76154819D01*
X159380953Y-74469104D02*
X158904763Y-74469104D01*
X159476191Y-74754819D02*
X159142858Y-73754819D01*
X159142858Y-73754819D02*
X158809525Y-74754819D01*
X158523810Y-74707200D02*
X158428572Y-74754819D01*
X158428572Y-74754819D02*
X158238096Y-74754819D01*
X158238096Y-74754819D02*
X158142858Y-74707200D01*
X158142858Y-74707200D02*
X158095239Y-74611961D01*
X158095239Y-74611961D02*
X158095239Y-74564342D01*
X158095239Y-74564342D02*
X158142858Y-74469104D01*
X158142858Y-74469104D02*
X158238096Y-74421485D01*
X158238096Y-74421485D02*
X158380953Y-74421485D01*
X158380953Y-74421485D02*
X158476191Y-74373866D01*
X158476191Y-74373866D02*
X158523810Y-74278628D01*
X158523810Y-74278628D02*
X158523810Y-74231009D01*
X158523810Y-74231009D02*
X158476191Y-74135771D01*
X158476191Y-74135771D02*
X158380953Y-74088152D01*
X158380953Y-74088152D02*
X158238096Y-74088152D01*
X158238096Y-74088152D02*
X158142858Y-74135771D01*
X157666667Y-74754819D02*
X157666667Y-73754819D01*
X157571429Y-74373866D02*
X157285715Y-74754819D01*
X157285715Y-74088152D02*
X157666667Y-74469104D01*
X156904762Y-74707200D02*
X156761905Y-74754819D01*
X156761905Y-74754819D02*
X156523810Y-74754819D01*
X156523810Y-74754819D02*
X156428572Y-74707200D01*
X156428572Y-74707200D02*
X156380953Y-74659580D01*
X156380953Y-74659580D02*
X156333334Y-74564342D01*
X156333334Y-74564342D02*
X156333334Y-74469104D01*
X156333334Y-74469104D02*
X156380953Y-74373866D01*
X156380953Y-74373866D02*
X156428572Y-74326247D01*
X156428572Y-74326247D02*
X156523810Y-74278628D01*
X156523810Y-74278628D02*
X156714286Y-74231009D01*
X156714286Y-74231009D02*
X156809524Y-74183390D01*
X156809524Y-74183390D02*
X156857143Y-74135771D01*
X156857143Y-74135771D02*
X156904762Y-74040533D01*
X156904762Y-74040533D02*
X156904762Y-73945295D01*
X156904762Y-73945295D02*
X156857143Y-73850057D01*
X156857143Y-73850057D02*
X156809524Y-73802438D01*
X156809524Y-73802438D02*
X156714286Y-73754819D01*
X156714286Y-73754819D02*
X156476191Y-73754819D01*
X156476191Y-73754819D02*
X156333334Y-73802438D01*
X155904762Y-74754819D02*
X155904762Y-74088152D01*
X155904762Y-73754819D02*
X155952381Y-73802438D01*
X155952381Y-73802438D02*
X155904762Y-73850057D01*
X155904762Y-73850057D02*
X155857143Y-73802438D01*
X155857143Y-73802438D02*
X155904762Y-73754819D01*
X155904762Y-73754819D02*
X155904762Y-73850057D01*
X155428572Y-74088152D02*
X155428572Y-74754819D01*
X155428572Y-74183390D02*
X155380953Y-74135771D01*
X155380953Y-74135771D02*
X155285715Y-74088152D01*
X155285715Y-74088152D02*
X155142858Y-74088152D01*
X155142858Y-74088152D02*
X155047620Y-74135771D01*
X155047620Y-74135771D02*
X155000001Y-74231009D01*
X155000001Y-74231009D02*
X155000001Y-74754819D01*
X154523810Y-74373866D02*
X153761906Y-74373866D01*
X153333334Y-74469104D02*
X152857144Y-74469104D01*
X153428572Y-74754819D02*
X153095239Y-73754819D01*
X153095239Y-73754819D02*
X152761906Y-74754819D01*
X152428572Y-74088152D02*
X152428572Y-74754819D01*
X152428572Y-74183390D02*
X152380953Y-74135771D01*
X152380953Y-74135771D02*
X152285715Y-74088152D01*
X152285715Y-74088152D02*
X152142858Y-74088152D01*
X152142858Y-74088152D02*
X152047620Y-74135771D01*
X152047620Y-74135771D02*
X152000001Y-74231009D01*
X152000001Y-74231009D02*
X152000001Y-74754819D01*
X151095239Y-74754819D02*
X151095239Y-74231009D01*
X151095239Y-74231009D02*
X151142858Y-74135771D01*
X151142858Y-74135771D02*
X151238096Y-74088152D01*
X151238096Y-74088152D02*
X151428572Y-74088152D01*
X151428572Y-74088152D02*
X151523810Y-74135771D01*
X151095239Y-74707200D02*
X151190477Y-74754819D01*
X151190477Y-74754819D02*
X151428572Y-74754819D01*
X151428572Y-74754819D02*
X151523810Y-74707200D01*
X151523810Y-74707200D02*
X151571429Y-74611961D01*
X151571429Y-74611961D02*
X151571429Y-74516723D01*
X151571429Y-74516723D02*
X151523810Y-74421485D01*
X151523810Y-74421485D02*
X151428572Y-74373866D01*
X151428572Y-74373866D02*
X151190477Y-74373866D01*
X151190477Y-74373866D02*
X151095239Y-74326247D01*
X150476191Y-74754819D02*
X150571429Y-74707200D01*
X150571429Y-74707200D02*
X150619048Y-74611961D01*
X150619048Y-74611961D02*
X150619048Y-73754819D01*
X150190476Y-74088152D02*
X149952381Y-74754819D01*
X149714286Y-74088152D02*
X149952381Y-74754819D01*
X149952381Y-74754819D02*
X150047619Y-74992914D01*
X150047619Y-74992914D02*
X150095238Y-75040533D01*
X150095238Y-75040533D02*
X150190476Y-75088152D01*
X149428571Y-74088152D02*
X148904762Y-74088152D01*
X148904762Y-74088152D02*
X149428571Y-74754819D01*
X149428571Y-74754819D02*
X148904762Y-74754819D01*
X148142857Y-74707200D02*
X148238095Y-74754819D01*
X148238095Y-74754819D02*
X148428571Y-74754819D01*
X148428571Y-74754819D02*
X148523809Y-74707200D01*
X148523809Y-74707200D02*
X148571428Y-74611961D01*
X148571428Y-74611961D02*
X148571428Y-74231009D01*
X148571428Y-74231009D02*
X148523809Y-74135771D01*
X148523809Y-74135771D02*
X148428571Y-74088152D01*
X148428571Y-74088152D02*
X148238095Y-74088152D01*
X148238095Y-74088152D02*
X148142857Y-74135771D01*
X148142857Y-74135771D02*
X148095238Y-74231009D01*
X148095238Y-74231009D02*
X148095238Y-74326247D01*
X148095238Y-74326247D02*
X148571428Y-74421485D01*
X147666666Y-74754819D02*
X147666666Y-74088152D01*
X147666666Y-74278628D02*
X147619047Y-74183390D01*
X147619047Y-74183390D02*
X147571428Y-74135771D01*
X147571428Y-74135771D02*
X147476190Y-74088152D01*
X147476190Y-74088152D02*
X147380952Y-74088152D01*
X146142856Y-74326247D02*
X146190475Y-74373866D01*
X146190475Y-74373866D02*
X146142856Y-74421485D01*
X146142856Y-74421485D02*
X146095237Y-74373866D01*
X146095237Y-74373866D02*
X146142856Y-74326247D01*
X146142856Y-74326247D02*
X146142856Y-74421485D01*
X144761903Y-74754819D02*
X144761903Y-73754819D01*
X144761903Y-74231009D02*
X144190475Y-74231009D01*
X144190475Y-74754819D02*
X144190475Y-73754819D01*
X143809522Y-73754819D02*
X143571427Y-74754819D01*
X143571427Y-74754819D02*
X143380951Y-74040533D01*
X143380951Y-74040533D02*
X143190475Y-74754819D01*
X143190475Y-74754819D02*
X142952380Y-73754819D01*
X141904760Y-74088152D02*
X141666665Y-74754819D01*
X141666665Y-74754819D02*
X141428570Y-74088152D01*
X140857141Y-73754819D02*
X140761903Y-73754819D01*
X140761903Y-73754819D02*
X140666665Y-73802438D01*
X140666665Y-73802438D02*
X140619046Y-73850057D01*
X140619046Y-73850057D02*
X140571427Y-73945295D01*
X140571427Y-73945295D02*
X140523808Y-74135771D01*
X140523808Y-74135771D02*
X140523808Y-74373866D01*
X140523808Y-74373866D02*
X140571427Y-74564342D01*
X140571427Y-74564342D02*
X140619046Y-74659580D01*
X140619046Y-74659580D02*
X140666665Y-74707200D01*
X140666665Y-74707200D02*
X140761903Y-74754819D01*
X140761903Y-74754819D02*
X140857141Y-74754819D01*
X140857141Y-74754819D02*
X140952379Y-74707200D01*
X140952379Y-74707200D02*
X140999998Y-74659580D01*
X140999998Y-74659580D02*
X141047617Y-74564342D01*
X141047617Y-74564342D02*
X141095236Y-74373866D01*
X141095236Y-74373866D02*
X141095236Y-74135771D01*
X141095236Y-74135771D02*
X141047617Y-73945295D01*
X141047617Y-73945295D02*
X140999998Y-73850057D01*
X140999998Y-73850057D02*
X140952379Y-73802438D01*
X140952379Y-73802438D02*
X140857141Y-73754819D01*
X140095236Y-74659580D02*
X140047617Y-74707200D01*
X140047617Y-74707200D02*
X140095236Y-74754819D01*
X140095236Y-74754819D02*
X140142855Y-74707200D01*
X140142855Y-74707200D02*
X140095236Y-74659580D01*
X140095236Y-74659580D02*
X140095236Y-74754819D01*
X139666665Y-73850057D02*
X139619046Y-73802438D01*
X139619046Y-73802438D02*
X139523808Y-73754819D01*
X139523808Y-73754819D02*
X139285713Y-73754819D01*
X139285713Y-73754819D02*
X139190475Y-73802438D01*
X139190475Y-73802438D02*
X139142856Y-73850057D01*
X139142856Y-73850057D02*
X139095237Y-73945295D01*
X139095237Y-73945295D02*
X139095237Y-74040533D01*
X139095237Y-74040533D02*
X139142856Y-74183390D01*
X139142856Y-74183390D02*
X139714284Y-74754819D01*
X139714284Y-74754819D02*
X139095237Y-74754819D01*
X138666665Y-74659580D02*
X138619046Y-74707200D01*
X138619046Y-74707200D02*
X138666665Y-74754819D01*
X138666665Y-74754819D02*
X138714284Y-74707200D01*
X138714284Y-74707200D02*
X138666665Y-74659580D01*
X138666665Y-74659580D02*
X138666665Y-74754819D01*
X137999999Y-73754819D02*
X137904761Y-73754819D01*
X137904761Y-73754819D02*
X137809523Y-73802438D01*
X137809523Y-73802438D02*
X137761904Y-73850057D01*
X137761904Y-73850057D02*
X137714285Y-73945295D01*
X137714285Y-73945295D02*
X137666666Y-74135771D01*
X137666666Y-74135771D02*
X137666666Y-74373866D01*
X137666666Y-74373866D02*
X137714285Y-74564342D01*
X137714285Y-74564342D02*
X137761904Y-74659580D01*
X137761904Y-74659580D02*
X137809523Y-74707200D01*
X137809523Y-74707200D02*
X137904761Y-74754819D01*
X137904761Y-74754819D02*
X137999999Y-74754819D01*
X137999999Y-74754819D02*
X138095237Y-74707200D01*
X138095237Y-74707200D02*
X138142856Y-74659580D01*
X138142856Y-74659580D02*
X138190475Y-74564342D01*
X138190475Y-74564342D02*
X138238094Y-74373866D01*
X138238094Y-74373866D02*
X138238094Y-74135771D01*
X138238094Y-74135771D02*
X138190475Y-73945295D01*
X138190475Y-73945295D02*
X138142856Y-73850057D01*
X138142856Y-73850057D02*
X138095237Y-73802438D01*
X138095237Y-73802438D02*
X137999999Y-73754819D01*
X136333332Y-74326247D02*
X136380951Y-74373866D01*
X136380951Y-74373866D02*
X136333332Y-74421485D01*
X136333332Y-74421485D02*
X136285713Y-74373866D01*
X136285713Y-74373866D02*
X136333332Y-74326247D01*
X136333332Y-74326247D02*
X136333332Y-74421485D01*
X134761903Y-73754819D02*
X134666665Y-73754819D01*
X134666665Y-73754819D02*
X134571427Y-73802438D01*
X134571427Y-73802438D02*
X134523808Y-73850057D01*
X134523808Y-73850057D02*
X134476189Y-73945295D01*
X134476189Y-73945295D02*
X134428570Y-74135771D01*
X134428570Y-74135771D02*
X134428570Y-74373866D01*
X134428570Y-74373866D02*
X134476189Y-74564342D01*
X134476189Y-74564342D02*
X134523808Y-74659580D01*
X134523808Y-74659580D02*
X134571427Y-74707200D01*
X134571427Y-74707200D02*
X134666665Y-74754819D01*
X134666665Y-74754819D02*
X134761903Y-74754819D01*
X134761903Y-74754819D02*
X134857141Y-74707200D01*
X134857141Y-74707200D02*
X134904760Y-74659580D01*
X134904760Y-74659580D02*
X134952379Y-74564342D01*
X134952379Y-74564342D02*
X134999998Y-74373866D01*
X134999998Y-74373866D02*
X134999998Y-74135771D01*
X134999998Y-74135771D02*
X134952379Y-73945295D01*
X134952379Y-73945295D02*
X134904760Y-73850057D01*
X134904760Y-73850057D02*
X134857141Y-73802438D01*
X134857141Y-73802438D02*
X134761903Y-73754819D01*
X134095236Y-73754819D02*
X133428570Y-73754819D01*
X133428570Y-73754819D02*
X133857141Y-74754819D01*
X132333332Y-73707200D02*
X133190474Y-74992914D01*
X132047617Y-73850057D02*
X131999998Y-73802438D01*
X131999998Y-73802438D02*
X131904760Y-73754819D01*
X131904760Y-73754819D02*
X131666665Y-73754819D01*
X131666665Y-73754819D02*
X131571427Y-73802438D01*
X131571427Y-73802438D02*
X131523808Y-73850057D01*
X131523808Y-73850057D02*
X131476189Y-73945295D01*
X131476189Y-73945295D02*
X131476189Y-74040533D01*
X131476189Y-74040533D02*
X131523808Y-74183390D01*
X131523808Y-74183390D02*
X132095236Y-74754819D01*
X132095236Y-74754819D02*
X131476189Y-74754819D01*
X130857141Y-73754819D02*
X130761903Y-73754819D01*
X130761903Y-73754819D02*
X130666665Y-73802438D01*
X130666665Y-73802438D02*
X130619046Y-73850057D01*
X130619046Y-73850057D02*
X130571427Y-73945295D01*
X130571427Y-73945295D02*
X130523808Y-74135771D01*
X130523808Y-74135771D02*
X130523808Y-74373866D01*
X130523808Y-74373866D02*
X130571427Y-74564342D01*
X130571427Y-74564342D02*
X130619046Y-74659580D01*
X130619046Y-74659580D02*
X130666665Y-74707200D01*
X130666665Y-74707200D02*
X130761903Y-74754819D01*
X130761903Y-74754819D02*
X130857141Y-74754819D01*
X130857141Y-74754819D02*
X130952379Y-74707200D01*
X130952379Y-74707200D02*
X130999998Y-74659580D01*
X130999998Y-74659580D02*
X131047617Y-74564342D01*
X131047617Y-74564342D02*
X131095236Y-74373866D01*
X131095236Y-74373866D02*
X131095236Y-74135771D01*
X131095236Y-74135771D02*
X131047617Y-73945295D01*
X131047617Y-73945295D02*
X130999998Y-73850057D01*
X130999998Y-73850057D02*
X130952379Y-73802438D01*
X130952379Y-73802438D02*
X130857141Y-73754819D01*
X130142855Y-73850057D02*
X130095236Y-73802438D01*
X130095236Y-73802438D02*
X129999998Y-73754819D01*
X129999998Y-73754819D02*
X129761903Y-73754819D01*
X129761903Y-73754819D02*
X129666665Y-73802438D01*
X129666665Y-73802438D02*
X129619046Y-73850057D01*
X129619046Y-73850057D02*
X129571427Y-73945295D01*
X129571427Y-73945295D02*
X129571427Y-74040533D01*
X129571427Y-74040533D02*
X129619046Y-74183390D01*
X129619046Y-74183390D02*
X130190474Y-74754819D01*
X130190474Y-74754819D02*
X129571427Y-74754819D01*
X128714284Y-73754819D02*
X128904760Y-73754819D01*
X128904760Y-73754819D02*
X128999998Y-73802438D01*
X128999998Y-73802438D02*
X129047617Y-73850057D01*
X129047617Y-73850057D02*
X129142855Y-73992914D01*
X129142855Y-73992914D02*
X129190474Y-74183390D01*
X129190474Y-74183390D02*
X129190474Y-74564342D01*
X129190474Y-74564342D02*
X129142855Y-74659580D01*
X129142855Y-74659580D02*
X129095236Y-74707200D01*
X129095236Y-74707200D02*
X128999998Y-74754819D01*
X128999998Y-74754819D02*
X128809522Y-74754819D01*
X128809522Y-74754819D02*
X128714284Y-74707200D01*
X128714284Y-74707200D02*
X128666665Y-74659580D01*
X128666665Y-74659580D02*
X128619046Y-74564342D01*
X128619046Y-74564342D02*
X128619046Y-74326247D01*
X128619046Y-74326247D02*
X128666665Y-74231009D01*
X128666665Y-74231009D02*
X128714284Y-74183390D01*
X128714284Y-74183390D02*
X128809522Y-74135771D01*
X128809522Y-74135771D02*
X128999998Y-74135771D01*
X128999998Y-74135771D02*
X129095236Y-74183390D01*
X129095236Y-74183390D02*
X129142855Y-74231009D01*
X129142855Y-74231009D02*
X129190474Y-74326247D01*
D11*
X164736666Y-78228855D02*
X164736666Y-78800283D01*
X164736666Y-78800283D02*
X164774761Y-78914569D01*
X164774761Y-78914569D02*
X164850952Y-78990760D01*
X164850952Y-78990760D02*
X164965237Y-79028855D01*
X164965237Y-79028855D02*
X165041428Y-79028855D01*
X163936666Y-79028855D02*
X164393809Y-79028855D01*
X164165237Y-79028855D02*
X164165237Y-78228855D01*
X164165237Y-78228855D02*
X164241428Y-78343140D01*
X164241428Y-78343140D02*
X164317618Y-78419331D01*
X164317618Y-78419331D02*
X164393809Y-78457426D01*
%TO.C,J1*%
X139040000Y-80900000D02*
X139040000Y-83500000D01*
X139040000Y-80900000D02*
X189960000Y-80900000D01*
X139040000Y-83500000D02*
X141640000Y-83500000D01*
X139040000Y-84770000D02*
X139040000Y-86100000D01*
X139040000Y-86100000D02*
X140370000Y-86100000D01*
X141640000Y-83500000D02*
X141640000Y-86100000D01*
X141640000Y-86100000D02*
X189960000Y-86100000D01*
X189960000Y-80900000D02*
X189960000Y-86100000D01*
%TD*%
M02*
