%TF.GenerationSoftware,KiCad,Pcbnew,9.0.2+dfsg-1*%
%TF.CreationDate,2026-07-30T19:27:06+02:00*%
%TF.ProjectId,AskSin-Analyzer-V3,41736b53-696e-42d4-916e-616c797a6572,rev?*%
%TF.SameCoordinates,Original*%
%TF.FileFunction,Copper,L4,Bot*%
%TF.FilePolarity,Positive*%
%FSLAX46Y46*%
G04 Gerber Fmt 4.6, Leading zero omitted, Abs format (unit mm)*
G04 Created by KiCad (PCBNEW 9.0.2+dfsg-1) date 2026-07-30 19:27:06*
%MOMM*%
%LPD*%
G01*
G04 APERTURE LIST*
G04 Aperture macros list*
%AMRoundRect*
0 Rectangle with rounded corners*
0 $1 Rounding radius*
0 $2 $3 $4 $5 $6 $7 $8 $9 X,Y pos of 4 corners*
0 Add a 4 corners polygon primitive as box body*
4,1,4,$2,$3,$4,$5,$6,$7,$8,$9,$2,$3,0*
0 Add four circle primitives for the rounded corners*
1,1,$1+$1,$2,$3*
1,1,$1+$1,$4,$5*
1,1,$1+$1,$6,$7*
1,1,$1+$1,$8,$9*
0 Add four rect primitives between the rounded corners*
20,1,$1+$1,$2,$3,$4,$5,0*
20,1,$1+$1,$4,$5,$6,$7,0*
20,1,$1+$1,$6,$7,$8,$9,0*
20,1,$1+$1,$8,$9,$2,$3,0*%
G04 Aperture macros list end*
%TA.AperFunction,ComponentPad*%
%ADD10RoundRect,0.250000X0.625000X-0.350000X0.625000X0.350000X-0.625000X0.350000X-0.625000X-0.350000X0*%
%TD*%
%TA.AperFunction,ComponentPad*%
%ADD11O,1.750000X1.200000*%
%TD*%
%TA.AperFunction,ComponentPad*%
%ADD12C,1.700000*%
%TD*%
%TA.AperFunction,ComponentPad*%
%ADD13R,1.700000X1.700000*%
%TD*%
%TA.AperFunction,ViaPad*%
%ADD14C,0.600000*%
%TD*%
%TA.AperFunction,Conductor*%
%ADD15C,0.200000*%
%TD*%
G04 APERTURE END LIST*
D10*
%TO.P,J6,1*%
%TO.N,BTN*%
X177500000Y-79000000D03*
D11*
%TO.P,J6,2*%
%TO.N,GND*%
X177500000Y-77000000D03*
%TD*%
D12*
%TO.P,Y1,1*%
%TO.N,XTAL1*%
X127000000Y-75000000D03*
%TO.P,Y1,2*%
%TO.N,GND*%
X127000000Y-72500000D03*
%TO.P,Y1,3*%
%TO.N,XTAL2*%
X127000000Y-70000000D03*
%TD*%
D10*
%TO.P,J7,1*%
%TO.N,PI_3V3*%
X177500000Y-88500000D03*
D11*
%TO.P,J7,2*%
%TO.N,WS_DATA*%
X177500000Y-86500000D03*
%TO.P,J7,3*%
%TO.N,GND*%
X177500000Y-84500000D03*
%TD*%
D10*
%TO.P,J5,1*%
%TO.N,GND*%
X177500000Y-69500000D03*
D11*
%TO.P,J5,2*%
%TO.N,PI_3V3*%
X177500000Y-67500000D03*
%TO.P,J5,3*%
%TO.N,I2C_SCL*%
X177500000Y-65500000D03*
%TO.P,J5,4*%
%TO.N,I2C_SDA*%
X177500000Y-63500000D03*
%TD*%
D13*
%TO.P,J2,1*%
%TO.N,MISO*%
X150000000Y-78000000D03*
D12*
%TO.P,J2,2*%
%TO.N,+3V3*%
X152540000Y-78000000D03*
%TO.P,J2,3*%
%TO.N,SCK*%
X150000000Y-80540000D03*
%TO.P,J2,4*%
%TO.N,MOSI*%
X152540000Y-80540000D03*
%TO.P,J2,5*%
%TO.N,RESET*%
X150000000Y-83080000D03*
%TO.P,J2,6*%
%TO.N,GND*%
X152540000Y-83080000D03*
%TD*%
D13*
%TO.P,J1,1*%
%TO.N,PI_3V3*%
X128370000Y-98770000D03*
D12*
%TO.P,J1,2*%
%TO.N,+5V*%
X128370000Y-96230000D03*
%TO.P,J1,3*%
%TO.N,I2C_SDA*%
X130910000Y-98770000D03*
%TO.P,J1,4*%
%TO.N,+5V*%
X130910000Y-96230000D03*
%TO.P,J1,5*%
%TO.N,I2C_SCL*%
X133450000Y-98770000D03*
%TO.P,J1,6*%
%TO.N,GND*%
X133450000Y-96230000D03*
%TO.P,J1,7*%
%TO.N,PI_RESET_DRV*%
X135990000Y-98770000D03*
%TO.P,J1,8*%
%TO.N,UART_PI_TX*%
X135990000Y-96230000D03*
%TO.P,J1,9*%
%TO.N,GND*%
X138530000Y-98770000D03*
%TO.P,J1,10*%
%TO.N,UART_328_TX*%
X138530000Y-96230000D03*
%TO.P,J1,11*%
%TO.N,BTN*%
X141070000Y-98770000D03*
%TO.P,J1,12*%
%TO.N,LED_PWM*%
X141070000Y-96230000D03*
%TO.P,J1,13*%
%TO.N,N/C*%
X143610000Y-98770000D03*
%TO.P,J1,14*%
%TO.N,GND*%
X143610000Y-96230000D03*
%TO.P,J1,15*%
%TO.N,N/C*%
X146150000Y-98770000D03*
%TO.P,J1,16*%
X146150000Y-96230000D03*
%TO.P,J1,17*%
X148690000Y-98770000D03*
%TO.P,J1,18*%
X148690000Y-96230000D03*
%TO.P,J1,19*%
%TO.N,LED_SPI*%
X151230000Y-98770000D03*
%TO.P,J1,20*%
%TO.N,GND*%
X151230000Y-96230000D03*
%TO.P,J1,21*%
%TO.N,N/C*%
X153770000Y-98770000D03*
%TO.P,J1,22*%
X153770000Y-96230000D03*
%TO.P,J1,23*%
X156310000Y-98770000D03*
%TO.P,J1,24*%
X156310000Y-96230000D03*
%TO.P,J1,25*%
%TO.N,GND*%
X158850000Y-98770000D03*
%TO.P,J1,26*%
%TO.N,N/C*%
X158850000Y-96230000D03*
%TO.P,J1,27*%
X161390000Y-98770000D03*
%TO.P,J1,28*%
X161390000Y-96230000D03*
%TO.P,J1,29*%
X163930000Y-98770000D03*
%TO.P,J1,30*%
%TO.N,GND*%
X163930000Y-96230000D03*
%TO.P,J1,31*%
%TO.N,N/C*%
X166470000Y-98770000D03*
%TO.P,J1,32*%
X166470000Y-96230000D03*
%TO.P,J1,33*%
X169010000Y-98770000D03*
%TO.P,J1,34*%
%TO.N,GND*%
X169010000Y-96230000D03*
%TO.P,J1,35*%
%TO.N,N/C*%
X171550000Y-98770000D03*
%TO.P,J1,36*%
X171550000Y-96230000D03*
%TO.P,J1,37*%
X174090000Y-98770000D03*
%TO.P,J1,38*%
X174090000Y-96230000D03*
%TO.P,J1,39*%
%TO.N,GND*%
X176630000Y-98770000D03*
%TO.P,J1,40*%
%TO.N,N/C*%
X176630000Y-96230000D03*
%TD*%
D14*
%TO.N,+5V*%
X138383800Y-69071500D03*
%TO.N,LED_SPI*%
X157066300Y-88338900D03*
%TO.N,+3V3*%
X127855900Y-91098300D03*
X127677300Y-83023300D03*
%TO.N,GND*%
X103000000Y-87000000D03*
X124000000Y-93000000D03*
X139000000Y-66000000D03*
X106000000Y-63000000D03*
X142000000Y-66000000D03*
X178000000Y-99000000D03*
X102661000Y-84781500D03*
X106000000Y-81000000D03*
X112000000Y-78000000D03*
X103000000Y-63000000D03*
X175000000Y-63000000D03*
X119433000Y-83429600D03*
X121000000Y-87000000D03*
X127000000Y-63000000D03*
X109000000Y-84000000D03*
X184000000Y-75000000D03*
X115000000Y-63000000D03*
X184000000Y-78000000D03*
X136000000Y-66000000D03*
X184000000Y-69000000D03*
X109000000Y-78000000D03*
X143000000Y-71987500D03*
X112000000Y-93000000D03*
X121000000Y-96000000D03*
X133000000Y-66000000D03*
X130000000Y-72000000D03*
X148000000Y-63000000D03*
X106000000Y-84000000D03*
X181000000Y-93000000D03*
X109000000Y-87000000D03*
X178000000Y-75000000D03*
X184000000Y-72000000D03*
X112000000Y-84000000D03*
X109000000Y-81000000D03*
X184000000Y-99000000D03*
X121000000Y-63000000D03*
X103000000Y-84000000D03*
X181000000Y-63000000D03*
X103000000Y-66000000D03*
X175000000Y-72000000D03*
X145000000Y-63000000D03*
X138900000Y-78500000D03*
X166000000Y-63000000D03*
X130600000Y-77700000D03*
X109000000Y-69000000D03*
X119536000Y-82053500D03*
X109000000Y-93000000D03*
X106000000Y-87000000D03*
X181000000Y-84000000D03*
X127000000Y-93000000D03*
X160300000Y-84000000D03*
X103700000Y-81000000D03*
X184000000Y-84000000D03*
X157800000Y-92100000D03*
X118000000Y-63000000D03*
X151000000Y-69000000D03*
X130000000Y-66000000D03*
X184000000Y-96000000D03*
X154018000Y-62991200D03*
X155100000Y-64000000D03*
X133000000Y-87000000D03*
X161500000Y-62987500D03*
X181000000Y-66000000D03*
X121000000Y-99000000D03*
X163000000Y-96000000D03*
X181000000Y-72000000D03*
X121800000Y-66487500D03*
X112000000Y-63000000D03*
X181000000Y-69000000D03*
X119412000Y-65281200D03*
X129500000Y-80987500D03*
X133000000Y-63000000D03*
X184000000Y-81000000D03*
X139000000Y-63000000D03*
X143000000Y-80987500D03*
X119938000Y-75589700D03*
X184000000Y-93000000D03*
X118000000Y-90000000D03*
X109000000Y-63000000D03*
X142000000Y-63000000D03*
X130000000Y-75000000D03*
X175000000Y-69000000D03*
X151000000Y-66000000D03*
X106000000Y-93000000D03*
X106000000Y-90000000D03*
X184000000Y-66000000D03*
X130000000Y-63000000D03*
X163000000Y-93000000D03*
X118000000Y-93000000D03*
X118000000Y-87000000D03*
X121000000Y-90000000D03*
X155525000Y-71000000D03*
X112000000Y-87000000D03*
X103000000Y-78000000D03*
X172500000Y-62987500D03*
X103000000Y-93000000D03*
X136000000Y-63000000D03*
X184000000Y-87000000D03*
X181000000Y-87000000D03*
X157000000Y-63000000D03*
X158000000Y-91500000D03*
X109000000Y-66000000D03*
X184000000Y-63000000D03*
X160000000Y-63000000D03*
X109000000Y-90000000D03*
X112000000Y-81000000D03*
X119948000Y-74034200D03*
X133000000Y-90000000D03*
X178000000Y-72000000D03*
X106000000Y-78000000D03*
X106000000Y-69000000D03*
X115000000Y-87000000D03*
X119339000Y-84781500D03*
X175000000Y-75000000D03*
X121000000Y-93000000D03*
X181000000Y-78000000D03*
X181000000Y-90000000D03*
X115000000Y-93000000D03*
X130357000Y-79542300D03*
X181000000Y-75000000D03*
X175000000Y-78000000D03*
X151000000Y-63000000D03*
X181000000Y-81000000D03*
X124000000Y-63000000D03*
X141643000Y-78457700D03*
X169000000Y-63000000D03*
X103000000Y-81000000D03*
X102588000Y-65281200D03*
X115000000Y-84000000D03*
X163000000Y-63000000D03*
X106000000Y-66000000D03*
%TO.N,UART_PI_TX*%
X134749300Y-76077400D03*
X136192100Y-90496500D03*
%TO.N,UART_328_TX*%
X135590400Y-92301700D03*
X133905400Y-76078400D03*
%TO.N,PI_RESET_DRV*%
X133839100Y-69067800D03*
%TO.N,RESET*%
X143622200Y-71363200D03*
%TO.N,MOSI*%
X113515300Y-72875900D03*
X130729900Y-82688200D03*
X138053300Y-81915300D03*
%TO.N,MISO*%
X116891600Y-71580000D03*
%TO.N,SCK*%
X116751500Y-73659900D03*
%TO.N,GDO0*%
X134712200Y-73596300D03*
X143409100Y-89351500D03*
%TO.N,XTAL1*%
X127711400Y-80227200D03*
%TO.N,XTAL2*%
X130589400Y-81195200D03*
%TO.N,AREF*%
X138901800Y-79400000D03*
X140992100Y-83626200D03*
%TD*%
D15*
%TO.N,+5V*%
X132216400Y-94923600D02*
X132216400Y-75238900D01*
X130910000Y-96230000D02*
X132216400Y-94923600D01*
X132216400Y-75238900D02*
X138383800Y-69071500D01*
%TO.N,PI_3V3*%
X177500000Y-67500000D02*
X177500000Y-68401700D01*
X178176300Y-68401700D02*
X178679300Y-68904700D01*
X178679300Y-87320700D02*
X177500000Y-88500000D01*
X177500000Y-68401700D02*
X178176300Y-68401700D01*
X178679300Y-68904700D02*
X178679300Y-87320700D01*
%TO.N,I2C_SDA*%
X172186900Y-66501500D02*
X178078400Y-66501500D01*
X138633300Y-100376500D02*
X139800000Y-99209800D01*
X177500000Y-63500000D02*
X177500000Y-64401700D01*
X149295500Y-86355400D02*
X152333000Y-86355400D01*
X139800000Y-99209800D02*
X139800000Y-95850900D01*
X139800000Y-95850900D02*
X149295500Y-86355400D01*
X152333000Y-86355400D02*
X172186900Y-66501500D01*
X177986500Y-64401700D02*
X177500000Y-64401700D01*
X178078400Y-66501500D02*
X178743100Y-65836800D01*
X178743100Y-65836800D02*
X178743100Y-65158300D01*
X178743100Y-65158300D02*
X177986500Y-64401700D01*
X130910000Y-98770000D02*
X132516500Y-100376500D01*
X132516500Y-100376500D02*
X138633300Y-100376500D01*
%TO.N,I2C_SCL*%
X133450000Y-98770000D02*
X134627500Y-99947500D01*
X143130900Y-89953200D02*
X143658300Y-89953200D01*
X171748800Y-65500000D02*
X177500000Y-65500000D01*
X137260000Y-95824100D02*
X143130900Y-89953200D01*
X134627500Y-99947500D02*
X136462500Y-99947500D01*
X143658300Y-89953200D02*
X148978100Y-84633400D01*
X152615400Y-84633400D02*
X171748800Y-65500000D01*
X136462500Y-99947500D02*
X137260000Y-99150000D01*
X148978100Y-84633400D02*
X152615400Y-84633400D01*
X137260000Y-99150000D02*
X137260000Y-95824100D01*
%TO.N,BTN*%
X142340000Y-97500000D02*
X144028400Y-97500000D01*
X144028400Y-97500000D02*
X144880000Y-96648400D01*
X144880000Y-95864100D02*
X153988500Y-86755600D01*
X141070000Y-98770000D02*
X142340000Y-97500000D01*
X153988500Y-86755600D02*
X169744400Y-86755600D01*
X169744400Y-86755600D02*
X177500000Y-79000000D01*
X144880000Y-96648400D02*
X144880000Y-95864100D01*
%TO.N,LED_SPI*%
X152500000Y-97500000D02*
X151230000Y-98770000D01*
X152500000Y-92905200D02*
X152500000Y-97500000D01*
X157066300Y-88338900D02*
X152500000Y-92905200D01*
%TO.N,+3V3*%
X127677300Y-83023300D02*
X127677300Y-90919700D01*
X127677300Y-90919700D02*
X127855900Y-91098300D01*
%TO.N,UART_PI_TX*%
X136192100Y-96027900D02*
X136192100Y-90496500D01*
X136192100Y-77520200D02*
X136192100Y-90496500D01*
X135990000Y-96230000D02*
X136192100Y-96027900D01*
X134749300Y-76077400D02*
X136192100Y-77520200D01*
%TO.N,UART_328_TX*%
X133905400Y-90616700D02*
X135590400Y-92301700D01*
X133905400Y-76078400D02*
X133905400Y-90616700D01*
%TO.N,PI_RESET_DRV*%
X134720000Y-97500000D02*
X130491600Y-97500000D01*
X131331600Y-89067100D02*
X131331600Y-71575300D01*
X131331600Y-71575300D02*
X133839100Y-69067800D01*
X130491600Y-97500000D02*
X129746400Y-96754800D01*
X129746400Y-96754800D02*
X129746400Y-90652300D01*
X135990000Y-98770000D02*
X134720000Y-97500000D01*
X129746400Y-90652300D02*
X131331600Y-89067100D01*
%TO.N,RESET*%
X150000000Y-83080000D02*
X143622200Y-76702200D01*
X143622200Y-76702200D02*
X143622200Y-71363200D01*
%TO.N,MOSI*%
X140369700Y-84231700D02*
X138053300Y-81915300D01*
X150491200Y-84231700D02*
X140369700Y-84231700D01*
X123061000Y-82421600D02*
X113515300Y-72875900D01*
X130729900Y-82688200D02*
X130463300Y-82421600D01*
X151270100Y-81809900D02*
X151270100Y-83452800D01*
X151270100Y-83452800D02*
X150491200Y-84231700D01*
X130463300Y-82421600D02*
X123061000Y-82421600D01*
X152540000Y-80540000D02*
X151270100Y-81809900D01*
%TO.N,MISO*%
X120407200Y-68064400D02*
X116891600Y-71580000D01*
X150000000Y-76147100D02*
X141917300Y-68064400D01*
X141917300Y-68064400D02*
X120407200Y-68064400D01*
X150000000Y-78000000D02*
X150000000Y-76147100D01*
%TO.N,SCK*%
X147114300Y-77654300D02*
X147114200Y-77654300D01*
X147114200Y-73933700D02*
X141646600Y-68466100D01*
X141646600Y-68466100D02*
X121945300Y-68466100D01*
X121945300Y-68466100D02*
X116751500Y-73659900D01*
X147114200Y-77654300D02*
X147114200Y-73933700D01*
X150000000Y-80540000D02*
X147114300Y-77654300D01*
%TO.N,GDO0*%
X136792300Y-75676400D02*
X134712200Y-73596300D01*
X143409100Y-89351500D02*
X136792300Y-82734700D01*
X136792300Y-82734700D02*
X136792300Y-75676400D01*
%TO.N,XTAL1*%
X127711400Y-75711400D02*
X127711400Y-80227200D01*
X127000000Y-75000000D02*
X127711400Y-75711400D01*
%TO.N,XTAL2*%
X127000000Y-70000000D02*
X128318800Y-71318800D01*
X128318800Y-71318800D02*
X128318800Y-78924600D01*
X128318800Y-78924600D02*
X130589400Y-81195200D01*
%TO.N,AREF*%
X140992100Y-83626200D02*
X138901800Y-81535900D01*
X138901800Y-81535900D02*
X138901800Y-79400000D01*
%TD*%
M02*
