%TF.GenerationSoftware,KiCad,Pcbnew,9.0.2+dfsg-1*%
%TF.CreationDate,2026-07-28T14:15:07+02:00*%
%TF.ProjectId,AskSin-Analyzer-V3,41736b53-696e-42d4-916e-616c797a6572,rev?*%
%TF.SameCoordinates,Original*%
%TF.FileFunction,Legend,Bot*%
%TF.FilePolarity,Positive*%
%FSLAX46Y46*%
G04 Gerber Fmt 4.6, Leading zero omitted, Abs format (unit mm)*
G04 Created by KiCad (PCBNEW 9.0.2+dfsg-1) date 2026-07-28 14:15:07*
%MOMM*%
%LPD*%
G01*
G04 APERTURE LIST*
%ADD10C,0.150000*%
G04 APERTURE END LIST*
D10*
X206476191Y-104592914D02*
X206571430Y-104545295D01*
X206571430Y-104545295D02*
X206761906Y-104545295D01*
X206761906Y-104545295D02*
X206857144Y-104592914D01*
X206857144Y-104592914D02*
X206952382Y-104688152D01*
X206952382Y-104688152D02*
X207000001Y-104783390D01*
X207000001Y-104783390D02*
X207000001Y-104973866D01*
X207000001Y-104973866D02*
X206952382Y-105069104D01*
X206952382Y-105069104D02*
X206857144Y-105164342D01*
X206857144Y-105164342D02*
X206761906Y-105211961D01*
X206761906Y-105211961D02*
X206571430Y-105211961D01*
X206571430Y-105211961D02*
X206476191Y-105164342D01*
X206666668Y-104211961D02*
X206904763Y-104259580D01*
X206904763Y-104259580D02*
X207142858Y-104402438D01*
X207142858Y-104402438D02*
X207285715Y-104640533D01*
X207285715Y-104640533D02*
X207333334Y-104878628D01*
X207333334Y-104878628D02*
X207285715Y-105116723D01*
X207285715Y-105116723D02*
X207142858Y-105354819D01*
X207142858Y-105354819D02*
X206904763Y-105497676D01*
X206904763Y-105497676D02*
X206666668Y-105545295D01*
X206666668Y-105545295D02*
X206428572Y-105497676D01*
X206428572Y-105497676D02*
X206190477Y-105354819D01*
X206190477Y-105354819D02*
X206047620Y-105116723D01*
X206047620Y-105116723D02*
X206000001Y-104878628D01*
X206000001Y-104878628D02*
X206047620Y-104640533D01*
X206047620Y-104640533D02*
X206190477Y-104402438D01*
X206190477Y-104402438D02*
X206428572Y-104259580D01*
X206428572Y-104259580D02*
X206666668Y-104211961D01*
X204857143Y-104450057D02*
X204809524Y-104402438D01*
X204809524Y-104402438D02*
X204714286Y-104354819D01*
X204714286Y-104354819D02*
X204476191Y-104354819D01*
X204476191Y-104354819D02*
X204380953Y-104402438D01*
X204380953Y-104402438D02*
X204333334Y-104450057D01*
X204333334Y-104450057D02*
X204285715Y-104545295D01*
X204285715Y-104545295D02*
X204285715Y-104640533D01*
X204285715Y-104640533D02*
X204333334Y-104783390D01*
X204333334Y-104783390D02*
X204904762Y-105354819D01*
X204904762Y-105354819D02*
X204285715Y-105354819D01*
X203666667Y-104354819D02*
X203571429Y-104354819D01*
X203571429Y-104354819D02*
X203476191Y-104402438D01*
X203476191Y-104402438D02*
X203428572Y-104450057D01*
X203428572Y-104450057D02*
X203380953Y-104545295D01*
X203380953Y-104545295D02*
X203333334Y-104735771D01*
X203333334Y-104735771D02*
X203333334Y-104973866D01*
X203333334Y-104973866D02*
X203380953Y-105164342D01*
X203380953Y-105164342D02*
X203428572Y-105259580D01*
X203428572Y-105259580D02*
X203476191Y-105307200D01*
X203476191Y-105307200D02*
X203571429Y-105354819D01*
X203571429Y-105354819D02*
X203666667Y-105354819D01*
X203666667Y-105354819D02*
X203761905Y-105307200D01*
X203761905Y-105307200D02*
X203809524Y-105259580D01*
X203809524Y-105259580D02*
X203857143Y-105164342D01*
X203857143Y-105164342D02*
X203904762Y-104973866D01*
X203904762Y-104973866D02*
X203904762Y-104735771D01*
X203904762Y-104735771D02*
X203857143Y-104545295D01*
X203857143Y-104545295D02*
X203809524Y-104450057D01*
X203809524Y-104450057D02*
X203761905Y-104402438D01*
X203761905Y-104402438D02*
X203666667Y-104354819D01*
X202952381Y-104450057D02*
X202904762Y-104402438D01*
X202904762Y-104402438D02*
X202809524Y-104354819D01*
X202809524Y-104354819D02*
X202571429Y-104354819D01*
X202571429Y-104354819D02*
X202476191Y-104402438D01*
X202476191Y-104402438D02*
X202428572Y-104450057D01*
X202428572Y-104450057D02*
X202380953Y-104545295D01*
X202380953Y-104545295D02*
X202380953Y-104640533D01*
X202380953Y-104640533D02*
X202428572Y-104783390D01*
X202428572Y-104783390D02*
X203000000Y-105354819D01*
X203000000Y-105354819D02*
X202380953Y-105354819D01*
X201523810Y-104354819D02*
X201714286Y-104354819D01*
X201714286Y-104354819D02*
X201809524Y-104402438D01*
X201809524Y-104402438D02*
X201857143Y-104450057D01*
X201857143Y-104450057D02*
X201952381Y-104592914D01*
X201952381Y-104592914D02*
X202000000Y-104783390D01*
X202000000Y-104783390D02*
X202000000Y-105164342D01*
X202000000Y-105164342D02*
X201952381Y-105259580D01*
X201952381Y-105259580D02*
X201904762Y-105307200D01*
X201904762Y-105307200D02*
X201809524Y-105354819D01*
X201809524Y-105354819D02*
X201619048Y-105354819D01*
X201619048Y-105354819D02*
X201523810Y-105307200D01*
X201523810Y-105307200D02*
X201476191Y-105259580D01*
X201476191Y-105259580D02*
X201428572Y-105164342D01*
X201428572Y-105164342D02*
X201428572Y-104926247D01*
X201428572Y-104926247D02*
X201476191Y-104831009D01*
X201476191Y-104831009D02*
X201523810Y-104783390D01*
X201523810Y-104783390D02*
X201619048Y-104735771D01*
X201619048Y-104735771D02*
X201809524Y-104735771D01*
X201809524Y-104735771D02*
X201904762Y-104783390D01*
X201904762Y-104783390D02*
X201952381Y-104831009D01*
X201952381Y-104831009D02*
X202000000Y-104926247D01*
X200285714Y-105307200D02*
X200142857Y-105354819D01*
X200142857Y-105354819D02*
X199904762Y-105354819D01*
X199904762Y-105354819D02*
X199809524Y-105307200D01*
X199809524Y-105307200D02*
X199761905Y-105259580D01*
X199761905Y-105259580D02*
X199714286Y-105164342D01*
X199714286Y-105164342D02*
X199714286Y-105069104D01*
X199714286Y-105069104D02*
X199761905Y-104973866D01*
X199761905Y-104973866D02*
X199809524Y-104926247D01*
X199809524Y-104926247D02*
X199904762Y-104878628D01*
X199904762Y-104878628D02*
X200095238Y-104831009D01*
X200095238Y-104831009D02*
X200190476Y-104783390D01*
X200190476Y-104783390D02*
X200238095Y-104735771D01*
X200238095Y-104735771D02*
X200285714Y-104640533D01*
X200285714Y-104640533D02*
X200285714Y-104545295D01*
X200285714Y-104545295D02*
X200238095Y-104450057D01*
X200238095Y-104450057D02*
X200190476Y-104402438D01*
X200190476Y-104402438D02*
X200095238Y-104354819D01*
X200095238Y-104354819D02*
X199857143Y-104354819D01*
X199857143Y-104354819D02*
X199714286Y-104402438D01*
X199285714Y-105259580D02*
X199238095Y-105307200D01*
X199238095Y-105307200D02*
X199285714Y-105354819D01*
X199285714Y-105354819D02*
X199333333Y-105307200D01*
X199333333Y-105307200D02*
X199285714Y-105259580D01*
X199285714Y-105259580D02*
X199285714Y-105354819D01*
X198095238Y-105307200D02*
X197952381Y-105354819D01*
X197952381Y-105354819D02*
X197714286Y-105354819D01*
X197714286Y-105354819D02*
X197619048Y-105307200D01*
X197619048Y-105307200D02*
X197571429Y-105259580D01*
X197571429Y-105259580D02*
X197523810Y-105164342D01*
X197523810Y-105164342D02*
X197523810Y-105069104D01*
X197523810Y-105069104D02*
X197571429Y-104973866D01*
X197571429Y-104973866D02*
X197619048Y-104926247D01*
X197619048Y-104926247D02*
X197714286Y-104878628D01*
X197714286Y-104878628D02*
X197904762Y-104831009D01*
X197904762Y-104831009D02*
X198000000Y-104783390D01*
X198000000Y-104783390D02*
X198047619Y-104735771D01*
X198047619Y-104735771D02*
X198095238Y-104640533D01*
X198095238Y-104640533D02*
X198095238Y-104545295D01*
X198095238Y-104545295D02*
X198047619Y-104450057D01*
X198047619Y-104450057D02*
X198000000Y-104402438D01*
X198000000Y-104402438D02*
X197904762Y-104354819D01*
X197904762Y-104354819D02*
X197666667Y-104354819D01*
X197666667Y-104354819D02*
X197523810Y-104402438D01*
X197238095Y-104688152D02*
X196857143Y-104688152D01*
X197095238Y-104354819D02*
X197095238Y-105211961D01*
X197095238Y-105211961D02*
X197047619Y-105307200D01*
X197047619Y-105307200D02*
X196952381Y-105354819D01*
X196952381Y-105354819D02*
X196857143Y-105354819D01*
X196142857Y-105307200D02*
X196238095Y-105354819D01*
X196238095Y-105354819D02*
X196428571Y-105354819D01*
X196428571Y-105354819D02*
X196523809Y-105307200D01*
X196523809Y-105307200D02*
X196571428Y-105211961D01*
X196571428Y-105211961D02*
X196571428Y-104831009D01*
X196571428Y-104831009D02*
X196523809Y-104735771D01*
X196523809Y-104735771D02*
X196428571Y-104688152D01*
X196428571Y-104688152D02*
X196238095Y-104688152D01*
X196238095Y-104688152D02*
X196142857Y-104735771D01*
X196142857Y-104735771D02*
X196095238Y-104831009D01*
X196095238Y-104831009D02*
X196095238Y-104926247D01*
X196095238Y-104926247D02*
X196571428Y-105021485D01*
X195666666Y-105354819D02*
X195666666Y-104688152D01*
X195666666Y-104878628D02*
X195619047Y-104783390D01*
X195619047Y-104783390D02*
X195571428Y-104735771D01*
X195571428Y-104735771D02*
X195476190Y-104688152D01*
X195476190Y-104688152D02*
X195380952Y-104688152D01*
X195047618Y-104688152D02*
X195047618Y-105354819D01*
X195047618Y-104783390D02*
X194999999Y-104735771D01*
X194999999Y-104735771D02*
X194904761Y-104688152D01*
X194904761Y-104688152D02*
X194761904Y-104688152D01*
X194761904Y-104688152D02*
X194666666Y-104735771D01*
X194666666Y-104735771D02*
X194619047Y-104831009D01*
X194619047Y-104831009D02*
X194619047Y-105354819D01*
X194142856Y-105354819D02*
X194142856Y-104688152D01*
X194142856Y-104354819D02*
X194190475Y-104402438D01*
X194190475Y-104402438D02*
X194142856Y-104450057D01*
X194142856Y-104450057D02*
X194095237Y-104402438D01*
X194095237Y-104402438D02*
X194142856Y-104354819D01*
X194142856Y-104354819D02*
X194142856Y-104450057D01*
X193809523Y-104688152D02*
X193428571Y-104688152D01*
X193666666Y-104354819D02*
X193666666Y-105211961D01*
X193666666Y-105211961D02*
X193619047Y-105307200D01*
X193619047Y-105307200D02*
X193523809Y-105354819D01*
X193523809Y-105354819D02*
X193428571Y-105354819D01*
X193190475Y-104688152D02*
X192666666Y-104688152D01*
X192666666Y-104688152D02*
X193190475Y-105354819D01*
X193190475Y-105354819D02*
X192666666Y-105354819D01*
X192285713Y-105354819D02*
X192285713Y-104354819D01*
X192190475Y-104973866D02*
X191904761Y-105354819D01*
X191904761Y-104688152D02*
X192285713Y-105069104D01*
X191095237Y-105307200D02*
X191190475Y-105354819D01*
X191190475Y-105354819D02*
X191380951Y-105354819D01*
X191380951Y-105354819D02*
X191476189Y-105307200D01*
X191476189Y-105307200D02*
X191523808Y-105211961D01*
X191523808Y-105211961D02*
X191523808Y-104831009D01*
X191523808Y-104831009D02*
X191476189Y-104735771D01*
X191476189Y-104735771D02*
X191380951Y-104688152D01*
X191380951Y-104688152D02*
X191190475Y-104688152D01*
X191190475Y-104688152D02*
X191095237Y-104735771D01*
X191095237Y-104735771D02*
X191047618Y-104831009D01*
X191047618Y-104831009D02*
X191047618Y-104926247D01*
X191047618Y-104926247D02*
X191523808Y-105021485D01*
X189714284Y-104926247D02*
X189761903Y-104973866D01*
X189761903Y-104973866D02*
X189714284Y-105021485D01*
X189714284Y-105021485D02*
X189666665Y-104973866D01*
X189666665Y-104973866D02*
X189714284Y-104926247D01*
X189714284Y-104926247D02*
X189714284Y-105021485D01*
X187761903Y-105259580D02*
X187809522Y-105307200D01*
X187809522Y-105307200D02*
X187952379Y-105354819D01*
X187952379Y-105354819D02*
X188047617Y-105354819D01*
X188047617Y-105354819D02*
X188190474Y-105307200D01*
X188190474Y-105307200D02*
X188285712Y-105211961D01*
X188285712Y-105211961D02*
X188333331Y-105116723D01*
X188333331Y-105116723D02*
X188380950Y-104926247D01*
X188380950Y-104926247D02*
X188380950Y-104783390D01*
X188380950Y-104783390D02*
X188333331Y-104592914D01*
X188333331Y-104592914D02*
X188285712Y-104497676D01*
X188285712Y-104497676D02*
X188190474Y-104402438D01*
X188190474Y-104402438D02*
X188047617Y-104354819D01*
X188047617Y-104354819D02*
X187952379Y-104354819D01*
X187952379Y-104354819D02*
X187809522Y-104402438D01*
X187809522Y-104402438D02*
X187761903Y-104450057D01*
X186761903Y-105259580D02*
X186809522Y-105307200D01*
X186809522Y-105307200D02*
X186952379Y-105354819D01*
X186952379Y-105354819D02*
X187047617Y-105354819D01*
X187047617Y-105354819D02*
X187190474Y-105307200D01*
X187190474Y-105307200D02*
X187285712Y-105211961D01*
X187285712Y-105211961D02*
X187333331Y-105116723D01*
X187333331Y-105116723D02*
X187380950Y-104926247D01*
X187380950Y-104926247D02*
X187380950Y-104783390D01*
X187380950Y-104783390D02*
X187333331Y-104592914D01*
X187333331Y-104592914D02*
X187285712Y-104497676D01*
X187285712Y-104497676D02*
X187190474Y-104402438D01*
X187190474Y-104402438D02*
X187047617Y-104354819D01*
X187047617Y-104354819D02*
X186952379Y-104354819D01*
X186952379Y-104354819D02*
X186809522Y-104402438D01*
X186809522Y-104402438D02*
X186761903Y-104450057D01*
X185238093Y-104831009D02*
X185095236Y-104878628D01*
X185095236Y-104878628D02*
X185047617Y-104926247D01*
X185047617Y-104926247D02*
X184999998Y-105021485D01*
X184999998Y-105021485D02*
X184999998Y-105164342D01*
X184999998Y-105164342D02*
X185047617Y-105259580D01*
X185047617Y-105259580D02*
X185095236Y-105307200D01*
X185095236Y-105307200D02*
X185190474Y-105354819D01*
X185190474Y-105354819D02*
X185571426Y-105354819D01*
X185571426Y-105354819D02*
X185571426Y-104354819D01*
X185571426Y-104354819D02*
X185238093Y-104354819D01*
X185238093Y-104354819D02*
X185142855Y-104402438D01*
X185142855Y-104402438D02*
X185095236Y-104450057D01*
X185095236Y-104450057D02*
X185047617Y-104545295D01*
X185047617Y-104545295D02*
X185047617Y-104640533D01*
X185047617Y-104640533D02*
X185095236Y-104735771D01*
X185095236Y-104735771D02*
X185142855Y-104783390D01*
X185142855Y-104783390D02*
X185238093Y-104831009D01*
X185238093Y-104831009D02*
X185571426Y-104831009D01*
X184380950Y-104878628D02*
X184380950Y-105354819D01*
X184714283Y-104354819D02*
X184380950Y-104878628D01*
X184380950Y-104878628D02*
X184047617Y-104354819D01*
X183714283Y-104973866D02*
X182952379Y-104973866D01*
X182476188Y-105354819D02*
X182476188Y-104354819D01*
X182476188Y-104354819D02*
X181904760Y-105354819D01*
X181904760Y-105354819D02*
X181904760Y-104354819D01*
X180857141Y-105259580D02*
X180904760Y-105307200D01*
X180904760Y-105307200D02*
X181047617Y-105354819D01*
X181047617Y-105354819D02*
X181142855Y-105354819D01*
X181142855Y-105354819D02*
X181285712Y-105307200D01*
X181285712Y-105307200D02*
X181380950Y-105211961D01*
X181380950Y-105211961D02*
X181428569Y-105116723D01*
X181428569Y-105116723D02*
X181476188Y-104926247D01*
X181476188Y-104926247D02*
X181476188Y-104783390D01*
X181476188Y-104783390D02*
X181428569Y-104592914D01*
X181428569Y-104592914D02*
X181380950Y-104497676D01*
X181380950Y-104497676D02*
X181285712Y-104402438D01*
X181285712Y-104402438D02*
X181142855Y-104354819D01*
X181142855Y-104354819D02*
X181047617Y-104354819D01*
X181047617Y-104354819D02*
X180904760Y-104402438D01*
X180904760Y-104402438D02*
X180857141Y-104450057D01*
X180428569Y-104973866D02*
X179666665Y-104973866D01*
X179238093Y-105307200D02*
X179095236Y-105354819D01*
X179095236Y-105354819D02*
X178857141Y-105354819D01*
X178857141Y-105354819D02*
X178761903Y-105307200D01*
X178761903Y-105307200D02*
X178714284Y-105259580D01*
X178714284Y-105259580D02*
X178666665Y-105164342D01*
X178666665Y-105164342D02*
X178666665Y-105069104D01*
X178666665Y-105069104D02*
X178714284Y-104973866D01*
X178714284Y-104973866D02*
X178761903Y-104926247D01*
X178761903Y-104926247D02*
X178857141Y-104878628D01*
X178857141Y-104878628D02*
X179047617Y-104831009D01*
X179047617Y-104831009D02*
X179142855Y-104783390D01*
X179142855Y-104783390D02*
X179190474Y-104735771D01*
X179190474Y-104735771D02*
X179238093Y-104640533D01*
X179238093Y-104640533D02*
X179238093Y-104545295D01*
X179238093Y-104545295D02*
X179190474Y-104450057D01*
X179190474Y-104450057D02*
X179142855Y-104402438D01*
X179142855Y-104402438D02*
X179047617Y-104354819D01*
X179047617Y-104354819D02*
X178809522Y-104354819D01*
X178809522Y-104354819D02*
X178666665Y-104402438D01*
X178285712Y-105069104D02*
X177809522Y-105069104D01*
X178380950Y-105354819D02*
X178047617Y-104354819D01*
X178047617Y-104354819D02*
X177714284Y-105354819D01*
X176190474Y-104688152D02*
X176190474Y-105354819D01*
X176428569Y-104307200D02*
X176666664Y-105021485D01*
X176666664Y-105021485D02*
X176047617Y-105021485D01*
X175666664Y-105259580D02*
X175619045Y-105307200D01*
X175619045Y-105307200D02*
X175666664Y-105354819D01*
X175666664Y-105354819D02*
X175714283Y-105307200D01*
X175714283Y-105307200D02*
X175666664Y-105259580D01*
X175666664Y-105259580D02*
X175666664Y-105354819D01*
X174999998Y-104354819D02*
X174904760Y-104354819D01*
X174904760Y-104354819D02*
X174809522Y-104402438D01*
X174809522Y-104402438D02*
X174761903Y-104450057D01*
X174761903Y-104450057D02*
X174714284Y-104545295D01*
X174714284Y-104545295D02*
X174666665Y-104735771D01*
X174666665Y-104735771D02*
X174666665Y-104973866D01*
X174666665Y-104973866D02*
X174714284Y-105164342D01*
X174714284Y-105164342D02*
X174761903Y-105259580D01*
X174761903Y-105259580D02*
X174809522Y-105307200D01*
X174809522Y-105307200D02*
X174904760Y-105354819D01*
X174904760Y-105354819D02*
X174999998Y-105354819D01*
X174999998Y-105354819D02*
X175095236Y-105307200D01*
X175095236Y-105307200D02*
X175142855Y-105259580D01*
X175142855Y-105259580D02*
X175190474Y-105164342D01*
X175190474Y-105164342D02*
X175238093Y-104973866D01*
X175238093Y-104973866D02*
X175238093Y-104735771D01*
X175238093Y-104735771D02*
X175190474Y-104545295D01*
X175190474Y-104545295D02*
X175142855Y-104450057D01*
X175142855Y-104450057D02*
X175095236Y-104402438D01*
X175095236Y-104402438D02*
X174999998Y-104354819D01*
X206380953Y-102769104D02*
X205904763Y-102769104D01*
X206476191Y-103054819D02*
X206142858Y-102054819D01*
X206142858Y-102054819D02*
X205809525Y-103054819D01*
X205523810Y-103007200D02*
X205428572Y-103054819D01*
X205428572Y-103054819D02*
X205238096Y-103054819D01*
X205238096Y-103054819D02*
X205142858Y-103007200D01*
X205142858Y-103007200D02*
X205095239Y-102911961D01*
X205095239Y-102911961D02*
X205095239Y-102864342D01*
X205095239Y-102864342D02*
X205142858Y-102769104D01*
X205142858Y-102769104D02*
X205238096Y-102721485D01*
X205238096Y-102721485D02*
X205380953Y-102721485D01*
X205380953Y-102721485D02*
X205476191Y-102673866D01*
X205476191Y-102673866D02*
X205523810Y-102578628D01*
X205523810Y-102578628D02*
X205523810Y-102531009D01*
X205523810Y-102531009D02*
X205476191Y-102435771D01*
X205476191Y-102435771D02*
X205380953Y-102388152D01*
X205380953Y-102388152D02*
X205238096Y-102388152D01*
X205238096Y-102388152D02*
X205142858Y-102435771D01*
X204666667Y-103054819D02*
X204666667Y-102054819D01*
X204571429Y-102673866D02*
X204285715Y-103054819D01*
X204285715Y-102388152D02*
X204666667Y-102769104D01*
X203904762Y-103007200D02*
X203761905Y-103054819D01*
X203761905Y-103054819D02*
X203523810Y-103054819D01*
X203523810Y-103054819D02*
X203428572Y-103007200D01*
X203428572Y-103007200D02*
X203380953Y-102959580D01*
X203380953Y-102959580D02*
X203333334Y-102864342D01*
X203333334Y-102864342D02*
X203333334Y-102769104D01*
X203333334Y-102769104D02*
X203380953Y-102673866D01*
X203380953Y-102673866D02*
X203428572Y-102626247D01*
X203428572Y-102626247D02*
X203523810Y-102578628D01*
X203523810Y-102578628D02*
X203714286Y-102531009D01*
X203714286Y-102531009D02*
X203809524Y-102483390D01*
X203809524Y-102483390D02*
X203857143Y-102435771D01*
X203857143Y-102435771D02*
X203904762Y-102340533D01*
X203904762Y-102340533D02*
X203904762Y-102245295D01*
X203904762Y-102245295D02*
X203857143Y-102150057D01*
X203857143Y-102150057D02*
X203809524Y-102102438D01*
X203809524Y-102102438D02*
X203714286Y-102054819D01*
X203714286Y-102054819D02*
X203476191Y-102054819D01*
X203476191Y-102054819D02*
X203333334Y-102102438D01*
X202904762Y-103054819D02*
X202904762Y-102388152D01*
X202904762Y-102054819D02*
X202952381Y-102102438D01*
X202952381Y-102102438D02*
X202904762Y-102150057D01*
X202904762Y-102150057D02*
X202857143Y-102102438D01*
X202857143Y-102102438D02*
X202904762Y-102054819D01*
X202904762Y-102054819D02*
X202904762Y-102150057D01*
X202428572Y-102388152D02*
X202428572Y-103054819D01*
X202428572Y-102483390D02*
X202380953Y-102435771D01*
X202380953Y-102435771D02*
X202285715Y-102388152D01*
X202285715Y-102388152D02*
X202142858Y-102388152D01*
X202142858Y-102388152D02*
X202047620Y-102435771D01*
X202047620Y-102435771D02*
X202000001Y-102531009D01*
X202000001Y-102531009D02*
X202000001Y-103054819D01*
X201523810Y-102673866D02*
X200761906Y-102673866D01*
X200333334Y-102769104D02*
X199857144Y-102769104D01*
X200428572Y-103054819D02*
X200095239Y-102054819D01*
X200095239Y-102054819D02*
X199761906Y-103054819D01*
X199428572Y-102388152D02*
X199428572Y-103054819D01*
X199428572Y-102483390D02*
X199380953Y-102435771D01*
X199380953Y-102435771D02*
X199285715Y-102388152D01*
X199285715Y-102388152D02*
X199142858Y-102388152D01*
X199142858Y-102388152D02*
X199047620Y-102435771D01*
X199047620Y-102435771D02*
X199000001Y-102531009D01*
X199000001Y-102531009D02*
X199000001Y-103054819D01*
X198095239Y-103054819D02*
X198095239Y-102531009D01*
X198095239Y-102531009D02*
X198142858Y-102435771D01*
X198142858Y-102435771D02*
X198238096Y-102388152D01*
X198238096Y-102388152D02*
X198428572Y-102388152D01*
X198428572Y-102388152D02*
X198523810Y-102435771D01*
X198095239Y-103007200D02*
X198190477Y-103054819D01*
X198190477Y-103054819D02*
X198428572Y-103054819D01*
X198428572Y-103054819D02*
X198523810Y-103007200D01*
X198523810Y-103007200D02*
X198571429Y-102911961D01*
X198571429Y-102911961D02*
X198571429Y-102816723D01*
X198571429Y-102816723D02*
X198523810Y-102721485D01*
X198523810Y-102721485D02*
X198428572Y-102673866D01*
X198428572Y-102673866D02*
X198190477Y-102673866D01*
X198190477Y-102673866D02*
X198095239Y-102626247D01*
X197476191Y-103054819D02*
X197571429Y-103007200D01*
X197571429Y-103007200D02*
X197619048Y-102911961D01*
X197619048Y-102911961D02*
X197619048Y-102054819D01*
X197190476Y-102388152D02*
X196952381Y-103054819D01*
X196714286Y-102388152D02*
X196952381Y-103054819D01*
X196952381Y-103054819D02*
X197047619Y-103292914D01*
X197047619Y-103292914D02*
X197095238Y-103340533D01*
X197095238Y-103340533D02*
X197190476Y-103388152D01*
X196428571Y-102388152D02*
X195904762Y-102388152D01*
X195904762Y-102388152D02*
X196428571Y-103054819D01*
X196428571Y-103054819D02*
X195904762Y-103054819D01*
X195142857Y-103007200D02*
X195238095Y-103054819D01*
X195238095Y-103054819D02*
X195428571Y-103054819D01*
X195428571Y-103054819D02*
X195523809Y-103007200D01*
X195523809Y-103007200D02*
X195571428Y-102911961D01*
X195571428Y-102911961D02*
X195571428Y-102531009D01*
X195571428Y-102531009D02*
X195523809Y-102435771D01*
X195523809Y-102435771D02*
X195428571Y-102388152D01*
X195428571Y-102388152D02*
X195238095Y-102388152D01*
X195238095Y-102388152D02*
X195142857Y-102435771D01*
X195142857Y-102435771D02*
X195095238Y-102531009D01*
X195095238Y-102531009D02*
X195095238Y-102626247D01*
X195095238Y-102626247D02*
X195571428Y-102721485D01*
X194666666Y-103054819D02*
X194666666Y-102388152D01*
X194666666Y-102578628D02*
X194619047Y-102483390D01*
X194619047Y-102483390D02*
X194571428Y-102435771D01*
X194571428Y-102435771D02*
X194476190Y-102388152D01*
X194476190Y-102388152D02*
X194380952Y-102388152D01*
X193142856Y-102626247D02*
X193190475Y-102673866D01*
X193190475Y-102673866D02*
X193142856Y-102721485D01*
X193142856Y-102721485D02*
X193095237Y-102673866D01*
X193095237Y-102673866D02*
X193142856Y-102626247D01*
X193142856Y-102626247D02*
X193142856Y-102721485D01*
X191761903Y-103054819D02*
X191761903Y-102054819D01*
X191761903Y-102531009D02*
X191190475Y-102531009D01*
X191190475Y-103054819D02*
X191190475Y-102054819D01*
X190809522Y-102054819D02*
X190571427Y-103054819D01*
X190571427Y-103054819D02*
X190380951Y-102340533D01*
X190380951Y-102340533D02*
X190190475Y-103054819D01*
X190190475Y-103054819D02*
X189952380Y-102054819D01*
X188904760Y-102388152D02*
X188666665Y-103054819D01*
X188666665Y-103054819D02*
X188428570Y-102388152D01*
X187857141Y-102054819D02*
X187761903Y-102054819D01*
X187761903Y-102054819D02*
X187666665Y-102102438D01*
X187666665Y-102102438D02*
X187619046Y-102150057D01*
X187619046Y-102150057D02*
X187571427Y-102245295D01*
X187571427Y-102245295D02*
X187523808Y-102435771D01*
X187523808Y-102435771D02*
X187523808Y-102673866D01*
X187523808Y-102673866D02*
X187571427Y-102864342D01*
X187571427Y-102864342D02*
X187619046Y-102959580D01*
X187619046Y-102959580D02*
X187666665Y-103007200D01*
X187666665Y-103007200D02*
X187761903Y-103054819D01*
X187761903Y-103054819D02*
X187857141Y-103054819D01*
X187857141Y-103054819D02*
X187952379Y-103007200D01*
X187952379Y-103007200D02*
X187999998Y-102959580D01*
X187999998Y-102959580D02*
X188047617Y-102864342D01*
X188047617Y-102864342D02*
X188095236Y-102673866D01*
X188095236Y-102673866D02*
X188095236Y-102435771D01*
X188095236Y-102435771D02*
X188047617Y-102245295D01*
X188047617Y-102245295D02*
X187999998Y-102150057D01*
X187999998Y-102150057D02*
X187952379Y-102102438D01*
X187952379Y-102102438D02*
X187857141Y-102054819D01*
X187095236Y-102959580D02*
X187047617Y-103007200D01*
X187047617Y-103007200D02*
X187095236Y-103054819D01*
X187095236Y-103054819D02*
X187142855Y-103007200D01*
X187142855Y-103007200D02*
X187095236Y-102959580D01*
X187095236Y-102959580D02*
X187095236Y-103054819D01*
X186428570Y-102054819D02*
X186333332Y-102054819D01*
X186333332Y-102054819D02*
X186238094Y-102102438D01*
X186238094Y-102102438D02*
X186190475Y-102150057D01*
X186190475Y-102150057D02*
X186142856Y-102245295D01*
X186142856Y-102245295D02*
X186095237Y-102435771D01*
X186095237Y-102435771D02*
X186095237Y-102673866D01*
X186095237Y-102673866D02*
X186142856Y-102864342D01*
X186142856Y-102864342D02*
X186190475Y-102959580D01*
X186190475Y-102959580D02*
X186238094Y-103007200D01*
X186238094Y-103007200D02*
X186333332Y-103054819D01*
X186333332Y-103054819D02*
X186428570Y-103054819D01*
X186428570Y-103054819D02*
X186523808Y-103007200D01*
X186523808Y-103007200D02*
X186571427Y-102959580D01*
X186571427Y-102959580D02*
X186619046Y-102864342D01*
X186619046Y-102864342D02*
X186666665Y-102673866D01*
X186666665Y-102673866D02*
X186666665Y-102435771D01*
X186666665Y-102435771D02*
X186619046Y-102245295D01*
X186619046Y-102245295D02*
X186571427Y-102150057D01*
X186571427Y-102150057D02*
X186523808Y-102102438D01*
X186523808Y-102102438D02*
X186428570Y-102054819D01*
X185666665Y-102959580D02*
X185619046Y-103007200D01*
X185619046Y-103007200D02*
X185666665Y-103054819D01*
X185666665Y-103054819D02*
X185714284Y-103007200D01*
X185714284Y-103007200D02*
X185666665Y-102959580D01*
X185666665Y-102959580D02*
X185666665Y-103054819D01*
X184666666Y-103054819D02*
X185238094Y-103054819D01*
X184952380Y-103054819D02*
X184952380Y-102054819D01*
X184952380Y-102054819D02*
X185047618Y-102197676D01*
X185047618Y-102197676D02*
X185142856Y-102292914D01*
X185142856Y-102292914D02*
X185238094Y-102340533D01*
X183333332Y-102626247D02*
X183380951Y-102673866D01*
X183380951Y-102673866D02*
X183333332Y-102721485D01*
X183333332Y-102721485D02*
X183285713Y-102673866D01*
X183285713Y-102673866D02*
X183333332Y-102626247D01*
X183333332Y-102626247D02*
X183333332Y-102721485D01*
X181761903Y-102054819D02*
X181666665Y-102054819D01*
X181666665Y-102054819D02*
X181571427Y-102102438D01*
X181571427Y-102102438D02*
X181523808Y-102150057D01*
X181523808Y-102150057D02*
X181476189Y-102245295D01*
X181476189Y-102245295D02*
X181428570Y-102435771D01*
X181428570Y-102435771D02*
X181428570Y-102673866D01*
X181428570Y-102673866D02*
X181476189Y-102864342D01*
X181476189Y-102864342D02*
X181523808Y-102959580D01*
X181523808Y-102959580D02*
X181571427Y-103007200D01*
X181571427Y-103007200D02*
X181666665Y-103054819D01*
X181666665Y-103054819D02*
X181761903Y-103054819D01*
X181761903Y-103054819D02*
X181857141Y-103007200D01*
X181857141Y-103007200D02*
X181904760Y-102959580D01*
X181904760Y-102959580D02*
X181952379Y-102864342D01*
X181952379Y-102864342D02*
X181999998Y-102673866D01*
X181999998Y-102673866D02*
X181999998Y-102435771D01*
X181999998Y-102435771D02*
X181952379Y-102245295D01*
X181952379Y-102245295D02*
X181904760Y-102150057D01*
X181904760Y-102150057D02*
X181857141Y-102102438D01*
X181857141Y-102102438D02*
X181761903Y-102054819D01*
X181095236Y-102054819D02*
X180428570Y-102054819D01*
X180428570Y-102054819D02*
X180857141Y-103054819D01*
X179333332Y-102007200D02*
X180190474Y-103292914D01*
X179047617Y-102150057D02*
X178999998Y-102102438D01*
X178999998Y-102102438D02*
X178904760Y-102054819D01*
X178904760Y-102054819D02*
X178666665Y-102054819D01*
X178666665Y-102054819D02*
X178571427Y-102102438D01*
X178571427Y-102102438D02*
X178523808Y-102150057D01*
X178523808Y-102150057D02*
X178476189Y-102245295D01*
X178476189Y-102245295D02*
X178476189Y-102340533D01*
X178476189Y-102340533D02*
X178523808Y-102483390D01*
X178523808Y-102483390D02*
X179095236Y-103054819D01*
X179095236Y-103054819D02*
X178476189Y-103054819D01*
X177857141Y-102054819D02*
X177761903Y-102054819D01*
X177761903Y-102054819D02*
X177666665Y-102102438D01*
X177666665Y-102102438D02*
X177619046Y-102150057D01*
X177619046Y-102150057D02*
X177571427Y-102245295D01*
X177571427Y-102245295D02*
X177523808Y-102435771D01*
X177523808Y-102435771D02*
X177523808Y-102673866D01*
X177523808Y-102673866D02*
X177571427Y-102864342D01*
X177571427Y-102864342D02*
X177619046Y-102959580D01*
X177619046Y-102959580D02*
X177666665Y-103007200D01*
X177666665Y-103007200D02*
X177761903Y-103054819D01*
X177761903Y-103054819D02*
X177857141Y-103054819D01*
X177857141Y-103054819D02*
X177952379Y-103007200D01*
X177952379Y-103007200D02*
X177999998Y-102959580D01*
X177999998Y-102959580D02*
X178047617Y-102864342D01*
X178047617Y-102864342D02*
X178095236Y-102673866D01*
X178095236Y-102673866D02*
X178095236Y-102435771D01*
X178095236Y-102435771D02*
X178047617Y-102245295D01*
X178047617Y-102245295D02*
X177999998Y-102150057D01*
X177999998Y-102150057D02*
X177952379Y-102102438D01*
X177952379Y-102102438D02*
X177857141Y-102054819D01*
X177142855Y-102150057D02*
X177095236Y-102102438D01*
X177095236Y-102102438D02*
X176999998Y-102054819D01*
X176999998Y-102054819D02*
X176761903Y-102054819D01*
X176761903Y-102054819D02*
X176666665Y-102102438D01*
X176666665Y-102102438D02*
X176619046Y-102150057D01*
X176619046Y-102150057D02*
X176571427Y-102245295D01*
X176571427Y-102245295D02*
X176571427Y-102340533D01*
X176571427Y-102340533D02*
X176619046Y-102483390D01*
X176619046Y-102483390D02*
X177190474Y-103054819D01*
X177190474Y-103054819D02*
X176571427Y-103054819D01*
X175714284Y-102054819D02*
X175904760Y-102054819D01*
X175904760Y-102054819D02*
X175999998Y-102102438D01*
X175999998Y-102102438D02*
X176047617Y-102150057D01*
X176047617Y-102150057D02*
X176142855Y-102292914D01*
X176142855Y-102292914D02*
X176190474Y-102483390D01*
X176190474Y-102483390D02*
X176190474Y-102864342D01*
X176190474Y-102864342D02*
X176142855Y-102959580D01*
X176142855Y-102959580D02*
X176095236Y-103007200D01*
X176095236Y-103007200D02*
X175999998Y-103054819D01*
X175999998Y-103054819D02*
X175809522Y-103054819D01*
X175809522Y-103054819D02*
X175714284Y-103007200D01*
X175714284Y-103007200D02*
X175666665Y-102959580D01*
X175666665Y-102959580D02*
X175619046Y-102864342D01*
X175619046Y-102864342D02*
X175619046Y-102626247D01*
X175619046Y-102626247D02*
X175666665Y-102531009D01*
X175666665Y-102531009D02*
X175714284Y-102483390D01*
X175714284Y-102483390D02*
X175809522Y-102435771D01*
X175809522Y-102435771D02*
X175999998Y-102435771D01*
X175999998Y-102435771D02*
X176095236Y-102483390D01*
X176095236Y-102483390D02*
X176142855Y-102531009D01*
X176142855Y-102531009D02*
X176190474Y-102626247D01*
M02*
