M48
; DRILL file {KiCad 9.0.2+dfsg-1} date 2026-07-31T11:14:11+0200
; FORMAT={-:-/ absolute / metric / decimal}
; #@! TF.CreationDate,2026-07-31T11:14:11+02:00
; #@! TF.GenerationSoftware,Kicad,Pcbnew,9.0.2+dfsg-1
; #@! TF.FileFunction,Plated,1,4,PTH
FMAT,2
METRIC
; #@! TA.AperFunction,Plated,PTH,ViaDrill
T1C0.300
; #@! TA.AperFunction,Plated,PTH,ComponentDrill
T2C0.750
; #@! TA.AperFunction,Plated,PTH,ComponentDrill
T3C1.000
%
G90
G05
T1
X103.0Y-63.0
X103.0Y-75.0
X103.0Y-78.0
X103.0Y-81.0
X103.0Y-84.0
X103.0Y-87.0
X103.0Y-90.0
X103.0Y-93.0
X103.0Y-96.0
X103.0Y-99.0
X103.0Y-102.0
X103.0Y-105.0
X103.0Y-108.0
X103.0Y-111.0
X103.0Y-114.0
X103.0Y-117.0
X103.0Y-120.0
X103.0Y-123.0
X103.0Y-126.0
X103.0Y-129.0
X103.0Y-132.0
X103.932Y-64.586
X103.932Y-122.5
X104.7Y-118.4
X105.0Y-119.0
X105.7Y-68.3
X105.9Y-72.7
X105.9Y-73.4
X105.909Y-92.913
X105.909Y-128.536
X106.0Y-63.0
X106.0Y-66.0
X106.0Y-132.0
X106.357Y-70.542
X106.5Y-67.5
X106.614Y-124.983
X107.267Y-128.631
X107.3Y-74.1
X107.588Y-83.781
X107.661Y-103.281
X107.9Y-74.0
X108.382Y-65.455
X108.4Y-83.7
X108.6Y-99.6
X109.0Y-84.0
X109.0Y-96.0
X109.0Y-99.0
X109.0Y-102.0
X109.0Y-105.0
X109.0Y-111.0
X109.0Y-114.0
X109.0Y-120.0
X109.0Y-123.0
X109.0Y-126.0
X109.0Y-129.0
X109.0Y-132.0
X109.335Y-67.239
X109.4Y-84.5
X110.114Y-88.81
X110.8Y-70.6
X110.8Y-71.3
X110.8Y-83.7
X110.8Y-84.4
X111.6Y-67.102
X112.0Y-84.0
X112.0Y-87.0
X112.0Y-96.0
X112.0Y-99.0
X112.0Y-102.0
X112.0Y-105.0
X112.0Y-108.0
X112.0Y-111.0
X112.0Y-114.0
X112.0Y-120.0
X112.0Y-123.0
X112.0Y-126.0
X112.0Y-129.0
X112.0Y-132.0
X114.898Y-72.762
X115.0Y-69.6
X115.0Y-96.0
X115.0Y-99.0
X115.0Y-102.0
X115.0Y-105.0
X115.0Y-111.0
X115.0Y-114.0
X115.0Y-120.0
X115.0Y-123.0
X115.0Y-126.0
X115.0Y-129.0
X115.0Y-132.0
X116.274Y-92.62
X117.607Y-90.08
X117.643Y-69.458
X118.0Y-78.0
X118.0Y-81.0
X118.0Y-84.0
X118.0Y-87.0
X118.0Y-120.0
X118.0Y-123.0
X118.0Y-126.0
X118.0Y-129.0
X118.0Y-132.0
X118.29Y-91.35
X121.0Y-87.0
X121.0Y-90.0
X121.0Y-120.0
X121.0Y-123.0
X121.0Y-126.0
X121.0Y-129.0
X121.0Y-132.0
X121.7Y-74.4
X124.0Y-75.0
X124.0Y-123.0
X124.0Y-126.0
X124.0Y-129.0
X124.0Y-132.0
X124.339Y-103.281
X124.412Y-83.781
X124.433Y-101.93
X124.512Y-69.0
X124.512Y-73.0
X124.536Y-100.553
X124.938Y-94.09
X124.948Y-92.534
X125.643Y-66.36
X125.7Y-71.8
X126.833Y-65.192
X127.0Y-93.0
X127.0Y-96.0
X127.0Y-99.0
X127.0Y-102.0
X127.0Y-105.0
X127.0Y-123.0
X127.0Y-126.0
X127.0Y-129.0
X128.0Y-81.487
X128.6Y-62.1
X129.037Y-70.651
X129.207Y-113.886
X130.0Y-84.0
X130.0Y-90.0
X130.0Y-93.0
X130.0Y-96.0
X130.0Y-99.0
X130.0Y-102.0
X130.0Y-105.0
X130.0Y-108.0
X130.0Y-111.0
X130.0Y-117.0
X130.0Y-120.0
X130.0Y-123.0
X130.0Y-126.0
X130.0Y-129.0
X130.0Y-132.0
X130.314Y-71.031
X133.0Y-129.0
X133.0Y-132.0
X136.0Y-87.0
X136.0Y-129.0
X138.018Y-61.991
X139.0Y-87.0
X140.0Y-62.1
X142.525Y-71.0
X144.1Y-62.1
X147.512Y-64.0
X148.7Y-65.3
X154.0Y-66.0
X154.0Y-69.0
X154.0Y-72.0
X155.3Y-71.0
X156.0Y-64.0
X157.0Y-63.0
X157.0Y-66.0
X157.0Y-69.0
X157.512Y-64.0
X160.0Y-63.0
X160.0Y-66.0
X160.0Y-69.0
X162.025Y-69.519
X163.0Y-63.0
X163.0Y-66.0
X163.0Y-87.0
X166.0Y-63.0
X166.0Y-87.0
X169.0Y-63.0
X169.0Y-66.0
X169.0Y-87.0
X172.0Y-63.0
X172.0Y-66.0
X172.0Y-72.0
X172.0Y-75.0
X172.0Y-78.0
X172.0Y-87.0
X175.0Y-63.0
X175.0Y-66.0
X175.0Y-72.0
X175.0Y-75.0
X175.0Y-78.0
X175.0Y-87.0
X178.0Y-63.0
X178.0Y-66.0
X178.0Y-72.0
X178.0Y-75.0
X178.0Y-78.0
X178.0Y-87.0
X181.0Y-63.0
X181.0Y-66.0
X181.0Y-87.0
X183.522Y-69.507
X184.0Y-63.0
X184.0Y-66.0
X184.0Y-87.0
X187.0Y-66.0
X187.0Y-87.0
X190.0Y-66.0
X190.0Y-84.0
X190.0Y-87.0
X193.0Y-75.0
X193.0Y-78.0
X193.0Y-81.0
X193.0Y-87.0
X196.0Y-63.0
X196.0Y-66.0
X196.0Y-69.0
X196.0Y-72.0
X196.0Y-81.0
X196.0Y-84.0
X196.0Y-87.0
T2
X186.5Y-63.5
X187.0Y-76.0
X188.0Y-70.0
X188.5Y-63.5
X189.0Y-76.0
X190.0Y-70.0
X190.5Y-63.5
X191.0Y-76.0
X192.5Y-63.5
T3
X120.0Y-64.0
X122.5Y-64.0
X125.0Y-64.0
X125.0Y-116.0
X125.0Y-118.54
X125.0Y-121.08
X127.54Y-116.0
X127.54Y-118.54
X127.54Y-121.08
X140.37Y-82.23
X140.37Y-84.77
X142.91Y-82.23
X142.91Y-84.77
X145.45Y-82.23
X145.45Y-84.77
X147.99Y-82.23
X147.99Y-84.77
X150.53Y-82.23
X150.53Y-84.77
X153.07Y-82.23
X153.07Y-84.77
X155.61Y-82.23
X155.61Y-84.77
X158.15Y-82.23
X158.15Y-84.77
X160.69Y-82.23
X160.69Y-84.77
X163.23Y-82.23
X163.23Y-84.77
X165.77Y-82.23
X165.77Y-84.77
X168.31Y-82.23
X168.31Y-84.77
X170.85Y-82.23
X170.85Y-84.77
X173.39Y-82.23
X173.39Y-84.77
X175.93Y-82.23
X175.93Y-84.77
X178.47Y-82.23
X178.47Y-84.77
X181.01Y-82.23
X181.01Y-84.77
X183.55Y-82.23
X183.55Y-84.77
X186.09Y-82.23
X186.09Y-84.77
X188.63Y-82.23
X188.63Y-84.77
M30
