%TF.GenerationSoftware,KiCad,Pcbnew,9.0.2+dfsg-1*%
%TF.CreationDate,2026-07-31T08:04:42+02:00*%
%TF.ProjectId,AskSin-Analyzer-V3,41736b53-696e-42d4-916e-616c797a6572,rev?*%
%TF.SameCoordinates,Original*%
%TF.FileFunction,Copper,L1,Top*%
%TF.FilePolarity,Positive*%
%FSLAX46Y46*%
G04 Gerber Fmt 4.6, Leading zero omitted, Abs format (unit mm)*
G04 Created by KiCad (PCBNEW 9.0.2+dfsg-1) date 2026-07-31 08:04:42*
%MOMM*%
%LPD*%
G01*
G04 APERTURE LIST*
G04 Aperture macros list*
%AMRoundRect*
0 Rectangle with rounded corners*
0 $1 Rounding radius*
0 $2 $3 $4 $5 $6 $7 $8 $9 X,Y pos of 4 corners*
0 Add a 4 corners polygon primitive as box body*
4,1,4,$2,$3,$4,$5,$6,$7,$8,$9,$2,$3,0*
0 Add four circle primitives for the rounded corners*
1,1,$1+$1,$2,$3*
1,1,$1+$1,$4,$5*
1,1,$1+$1,$6,$7*
1,1,$1+$1,$8,$9*
0 Add four rect primitives between the rounded corners*
20,1,$1+$1,$2,$3,$4,$5,0*
20,1,$1+$1,$4,$5,$6,$7,0*
20,1,$1+$1,$6,$7,$8,$9,0*
20,1,$1+$1,$8,$9,$2,$3,0*%
G04 Aperture macros list end*
%TA.AperFunction,SMDPad,CuDef*%
%ADD10RoundRect,0.250000X-0.337500X-0.475000X0.337500X-0.475000X0.337500X0.475000X-0.337500X0.475000X0*%
%TD*%
%TA.AperFunction,ComponentPad*%
%ADD11C,1.700000*%
%TD*%
%TA.AperFunction,ComponentPad*%
%ADD12RoundRect,0.250000X-0.350000X-0.625000X0.350000X-0.625000X0.350000X0.625000X-0.350000X0.625000X0*%
%TD*%
%TA.AperFunction,ComponentPad*%
%ADD13O,1.200000X1.750000*%
%TD*%
%TA.AperFunction,SMDPad,CuDef*%
%ADD14R,1.000000X1.000000*%
%TD*%
%TA.AperFunction,SMDPad,CuDef*%
%ADD15RoundRect,0.250000X0.375000X1.000000X-0.375000X1.000000X-0.375000X-1.000000X0.375000X-1.000000X0*%
%TD*%
%TA.AperFunction,SMDPad,CuDef*%
%ADD16R,0.800000X1.800000*%
%TD*%
%TA.AperFunction,SMDPad,CuDef*%
%ADD17RoundRect,0.137500X-0.600000X-0.137500X0.600000X-0.137500X0.600000X0.137500X-0.600000X0.137500X0*%
%TD*%
%TA.AperFunction,SMDPad,CuDef*%
%ADD18RoundRect,0.137500X-0.137500X-0.600000X0.137500X-0.600000X0.137500X0.600000X-0.137500X0.600000X0*%
%TD*%
%TA.AperFunction,SMDPad,CuDef*%
%ADD19R,0.900000X1.700000*%
%TD*%
%TA.AperFunction,SMDPad,CuDef*%
%ADD20RoundRect,0.250000X-0.350000X-0.450000X0.350000X-0.450000X0.350000X0.450000X-0.350000X0.450000X0*%
%TD*%
%TA.AperFunction,ComponentPad*%
%ADD21R,1.700000X1.700000*%
%TD*%
%TA.AperFunction,SMDPad,CuDef*%
%ADD22RoundRect,0.250000X-0.325000X-0.450000X0.325000X-0.450000X0.325000X0.450000X-0.325000X0.450000X0*%
%TD*%
%TA.AperFunction,SMDPad,CuDef*%
%ADD23RoundRect,0.150000X-0.587500X-0.150000X0.587500X-0.150000X0.587500X0.150000X-0.587500X0.150000X0*%
%TD*%
%TA.AperFunction,ViaPad*%
%ADD24C,0.600000*%
%TD*%
%TA.AperFunction,Conductor*%
%ADD25C,0.200000*%
%TD*%
%TA.AperFunction,Conductor*%
%ADD26C,0.250000*%
%TD*%
%TA.AperFunction,Conductor*%
%ADD27C,0.300000*%
%TD*%
G04 APERTURE END LIST*
D10*
%TO.P,C9,1*%
%TO.N,AREF*%
X142962500Y-67000000D03*
%TO.P,C9,2*%
%TO.N,GND*%
X145037500Y-67000000D03*
%TD*%
%TO.P,C8,1*%
%TO.N,PI_RESET_DRV*%
X124462500Y-70000000D03*
%TO.P,C8,2*%
%TO.N,RESET*%
X126537500Y-70000000D03*
%TD*%
D11*
%TO.P,Y1,1*%
%TO.N,XTAL1*%
X127000000Y-76000000D03*
%TO.P,Y1,2*%
%TO.N,GND*%
X129500000Y-76000000D03*
%TO.P,Y1,3*%
%TO.N,XTAL2*%
X132000000Y-76000000D03*
%TD*%
D12*
%TO.P,J7,1*%
%TO.N,PI_3V3*%
X187000000Y-76000000D03*
D13*
%TO.P,J7,2*%
%TO.N,WS_DATA*%
X189000000Y-76000000D03*
%TO.P,J7,3*%
%TO.N,GND*%
X191000000Y-76000000D03*
%TD*%
D14*
%TO.P,TP7,1*%
%TO.N,GDO0*%
X106000000Y-121500000D03*
%TD*%
D15*
%TO.P,SW1,1*%
%TO.N,LED_PWM*%
X164500000Y-67750000D03*
%TO.P,SW1,2*%
%TO.N,WS_WAHL*%
X162000000Y-67750000D03*
%TO.P,SW1,3*%
%TO.N,LED_SPI*%
X159500000Y-67750000D03*
%TD*%
D14*
%TO.P,TP8,1*%
%TO.N,CS*%
X106000000Y-125000000D03*
%TD*%
D16*
%TO.P,U3,1*%
%TO.N,GND*%
X121500000Y-62700000D03*
%TO.P,U3,2*%
X120230000Y-62700000D03*
%TO.P,U3,3*%
X118960000Y-62700000D03*
%TO.P,U3,4*%
X113390000Y-62700000D03*
%TO.P,U3,5*%
X112120000Y-62700000D03*
%TO.P,U3,6*%
%TO.N,N/C*%
X110850000Y-62700000D03*
%TO.P,U3,7*%
X109580000Y-62700000D03*
%TO.P,U3,8*%
X108310000Y-62700000D03*
%TO.P,U3,9*%
%TO.N,+3V3*%
X107040000Y-62700000D03*
%TO.P,U3,10*%
%TO.N,N/C*%
X105770000Y-62700000D03*
%TO.P,U3,11*%
%TO.N,GND*%
X104500000Y-62700000D03*
%TO.P,U3,12*%
X104500000Y-77300000D03*
%TO.P,U3,13*%
%TO.N,N/C*%
X105770000Y-77300000D03*
%TO.P,U3,14*%
X107040000Y-77300000D03*
%TO.P,U3,15*%
%TO.N,GDO0*%
X108310000Y-77300000D03*
%TO.P,U3,16*%
%TO.N,MISO*%
X109580000Y-77300000D03*
%TO.P,U3,17*%
%TO.N,MOSI*%
X110850000Y-77300000D03*
%TO.P,U3,18*%
%TO.N,SCK*%
X112120000Y-77300000D03*
%TO.P,U3,19*%
%TO.N,CS*%
X113390000Y-77300000D03*
%TO.P,U3,20*%
%TO.N,GND*%
X118960000Y-77300000D03*
%TO.P,U3,21*%
%TO.N,N/C*%
X120230000Y-77300000D03*
%TO.P,U3,22*%
%TO.N,GND*%
X121500000Y-77300000D03*
%TD*%
D14*
%TO.P,TP1,1*%
%TO.N,RESET*%
X144000000Y-75000000D03*
%TD*%
%TO.P,TP2,1*%
%TO.N,+3V3*%
X106000000Y-104000000D03*
%TD*%
D17*
%TO.P,U2,1*%
%TO.N,N/C*%
X131837500Y-64200000D03*
%TO.P,U2,2*%
%TO.N,LED_TREIBER*%
X131837500Y-65000000D03*
%TO.P,U2,3*%
%TO.N,GND*%
X131837500Y-65800000D03*
%TO.P,U2,4*%
%TO.N,+3V3*%
X131837500Y-66600000D03*
%TO.P,U2,5*%
%TO.N,GND*%
X131837500Y-67400000D03*
%TO.P,U2,6*%
%TO.N,+3V3*%
X131837500Y-68200000D03*
%TO.P,U2,7*%
%TO.N,XTAL1*%
X131837500Y-69000000D03*
%TO.P,U2,8*%
%TO.N,XTAL2*%
X131837500Y-69800000D03*
D18*
%TO.P,U2,9*%
%TO.N,N/C*%
X133200000Y-71162500D03*
%TO.P,U2,10*%
X134000000Y-71162500D03*
%TO.P,U2,11*%
X134800000Y-71162500D03*
%TO.P,U2,12*%
X135600000Y-71162500D03*
%TO.P,U2,13*%
X136400000Y-71162500D03*
%TO.P,U2,14*%
%TO.N,CS*%
X137200000Y-71162500D03*
%TO.P,U2,15*%
%TO.N,MOSI*%
X138000000Y-71162500D03*
%TO.P,U2,16*%
%TO.N,MISO*%
X138800000Y-71162500D03*
D17*
%TO.P,U2,17*%
%TO.N,SCK*%
X140162500Y-69800000D03*
%TO.P,U2,18*%
%TO.N,+3V3*%
X140162500Y-69000000D03*
%TO.P,U2,19*%
%TO.N,N/C*%
X140162500Y-68200000D03*
%TO.P,U2,20*%
%TO.N,AREF*%
X140162500Y-67400000D03*
%TO.P,U2,21*%
%TO.N,GND*%
X140162500Y-66600000D03*
%TO.P,U2,22*%
%TO.N,N/C*%
X140162500Y-65800000D03*
%TO.P,U2,23*%
X140162500Y-65000000D03*
%TO.P,U2,24*%
X140162500Y-64200000D03*
D18*
%TO.P,U2,25*%
X138800000Y-62837500D03*
%TO.P,U2,26*%
X138000000Y-62837500D03*
%TO.P,U2,27*%
X137200000Y-62837500D03*
%TO.P,U2,28*%
X136400000Y-62837500D03*
%TO.P,U2,29*%
%TO.N,RESET*%
X135600000Y-62837500D03*
%TO.P,U2,30*%
%TO.N,UART_PI_TX*%
X134800000Y-62837500D03*
%TO.P,U2,31*%
%TO.N,UART_328_TX*%
X134000000Y-62837500D03*
%TO.P,U2,32*%
%TO.N,GDO0*%
X133200000Y-62837500D03*
%TD*%
D12*
%TO.P,J5,1*%
%TO.N,GND*%
X186500000Y-63500000D03*
D13*
%TO.P,J5,2*%
%TO.N,PI_3V3*%
X188500000Y-63500000D03*
%TO.P,J5,3*%
%TO.N,I2C_SCL*%
X190500000Y-63500000D03*
%TO.P,J5,4*%
%TO.N,I2C_SDA*%
X192500000Y-63500000D03*
%TD*%
D19*
%TO.P,S1,1*%
%TO.N,RESET*%
X148300000Y-76000000D03*
%TO.P,S1,2*%
%TO.N,GND*%
X151700000Y-76000000D03*
%TD*%
D20*
%TO.P,R2,1*%
%TO.N,+3V3*%
X143000000Y-71000000D03*
%TO.P,R2,2*%
%TO.N,RESET*%
X145000000Y-71000000D03*
%TD*%
D12*
%TO.P,J6,1*%
%TO.N,BTN*%
X188000000Y-70000000D03*
D13*
%TO.P,J6,2*%
%TO.N,GND*%
X190000000Y-70000000D03*
%TD*%
D21*
%TO.P,J2,1*%
%TO.N,MISO*%
X106000000Y-88000000D03*
D11*
%TO.P,J2,2*%
%TO.N,+3V3*%
X108540000Y-88000000D03*
%TO.P,J2,3*%
%TO.N,SCK*%
X106000000Y-90540000D03*
%TO.P,J2,4*%
%TO.N,MOSI*%
X108540000Y-90540000D03*
%TO.P,J2,5*%
%TO.N,RESET*%
X106000000Y-93080000D03*
%TO.P,J2,6*%
%TO.N,GND*%
X108540000Y-93080000D03*
%TD*%
D10*
%TO.P,C2,1*%
%TO.N,+3V3*%
X153462500Y-67000000D03*
%TO.P,C2,2*%
%TO.N,GND*%
X155537500Y-67000000D03*
%TD*%
%TO.P,C5,1*%
%TO.N,+3V3*%
X124462500Y-63000000D03*
%TO.P,C5,2*%
%TO.N,GND*%
X126537500Y-63000000D03*
%TD*%
D20*
%TO.P,R4,1*%
%TO.N,WS_WAHL*%
X161000000Y-72000000D03*
%TO.P,R4,2*%
%TO.N,WS_DATA*%
X163000000Y-72000000D03*
%TD*%
D10*
%TO.P,C1,1*%
%TO.N,VREG_OUT*%
X148962500Y-67000000D03*
%TO.P,C1,2*%
%TO.N,GND*%
X151037500Y-67000000D03*
%TD*%
D14*
%TO.P,TP6,1*%
%TO.N,UART_PI_TX*%
X106000000Y-118000000D03*
%TD*%
D10*
%TO.P,C3,1*%
%TO.N,+3V3*%
X134962500Y-75000000D03*
%TO.P,C3,2*%
%TO.N,GND*%
X137037500Y-75000000D03*
%TD*%
D14*
%TO.P,TP4,1*%
%TO.N,GND*%
X106000000Y-111000000D03*
%TD*%
D10*
%TO.P,C4,1*%
%TO.N,+3V3*%
X142962500Y-63000000D03*
%TO.P,C4,2*%
%TO.N,GND*%
X145037500Y-63000000D03*
%TD*%
D20*
%TO.P,R3,1*%
%TO.N,+3V3*%
X124500000Y-66500000D03*
%TO.P,R3,2*%
%TO.N,CS*%
X126500000Y-66500000D03*
%TD*%
D22*
%TO.P,L1,1*%
%TO.N,VREG_OUT*%
X153475000Y-63000000D03*
%TO.P,L1,2*%
%TO.N,+3V3*%
X155525000Y-63000000D03*
%TD*%
D14*
%TO.P,TP5,1*%
%TO.N,UART_328_TX*%
X106000000Y-114500000D03*
%TD*%
D22*
%TO.P,D1,1*%
%TO.N,GND*%
X154975000Y-71000000D03*
%TO.P,D1,2*%
%TO.N,LED_ANODE*%
X157025000Y-71000000D03*
%TD*%
D23*
%TO.P,U1,1*%
%TO.N,GND*%
X149062500Y-62050000D03*
%TO.P,U1,2*%
%TO.N,VREG_OUT*%
X149062500Y-63950000D03*
%TO.P,U1,3*%
%TO.N,+5V*%
X150937500Y-63000000D03*
%TD*%
D20*
%TO.P,R1,1*%
%TO.N,LED_TREIBER*%
X149000000Y-71000000D03*
%TO.P,R1,2*%
%TO.N,LED_ANODE*%
X151000000Y-71000000D03*
%TD*%
D14*
%TO.P,TP3,1*%
%TO.N,+5V*%
X106000000Y-107500000D03*
%TD*%
D21*
%TO.P,J1,1*%
%TO.N,PI_3V3*%
X120370000Y-84770000D03*
D11*
%TO.P,J1,2*%
%TO.N,+5V*%
X120370000Y-82230000D03*
%TO.P,J1,3*%
%TO.N,I2C_SDA*%
X122910000Y-84770000D03*
%TO.P,J1,4*%
%TO.N,+5V*%
X122910000Y-82230000D03*
%TO.P,J1,5*%
%TO.N,I2C_SCL*%
X125450000Y-84770000D03*
%TO.P,J1,6*%
%TO.N,GND*%
X125450000Y-82230000D03*
%TO.P,J1,7*%
%TO.N,PI_RESET_DRV*%
X127990000Y-84770000D03*
%TO.P,J1,8*%
%TO.N,UART_PI_TX*%
X127990000Y-82230000D03*
%TO.P,J1,9*%
%TO.N,GND*%
X130530000Y-84770000D03*
%TO.P,J1,10*%
%TO.N,UART_328_TX*%
X130530000Y-82230000D03*
%TO.P,J1,11*%
%TO.N,BTN*%
X133070000Y-84770000D03*
%TO.P,J1,12*%
%TO.N,LED_PWM*%
X133070000Y-82230000D03*
%TO.P,J1,13*%
%TO.N,N/C*%
X135610000Y-84770000D03*
%TO.P,J1,14*%
%TO.N,GND*%
X135610000Y-82230000D03*
%TO.P,J1,15*%
%TO.N,N/C*%
X138150000Y-84770000D03*
%TO.P,J1,16*%
X138150000Y-82230000D03*
%TO.P,J1,17*%
X140690000Y-84770000D03*
%TO.P,J1,18*%
X140690000Y-82230000D03*
%TO.P,J1,19*%
%TO.N,LED_SPI*%
X143230000Y-84770000D03*
%TO.P,J1,20*%
%TO.N,GND*%
X143230000Y-82230000D03*
%TO.P,J1,21*%
%TO.N,N/C*%
X145770000Y-84770000D03*
%TO.P,J1,22*%
X145770000Y-82230000D03*
%TO.P,J1,23*%
X148310000Y-84770000D03*
%TO.P,J1,24*%
X148310000Y-82230000D03*
%TO.P,J1,25*%
%TO.N,GND*%
X150850000Y-84770000D03*
%TO.P,J1,26*%
%TO.N,N/C*%
X150850000Y-82230000D03*
%TO.P,J1,27*%
X153390000Y-84770000D03*
%TO.P,J1,28*%
X153390000Y-82230000D03*
%TO.P,J1,29*%
X155930000Y-84770000D03*
%TO.P,J1,30*%
%TO.N,GND*%
X155930000Y-82230000D03*
%TO.P,J1,31*%
%TO.N,N/C*%
X158470000Y-84770000D03*
%TO.P,J1,32*%
X158470000Y-82230000D03*
%TO.P,J1,33*%
X161010000Y-84770000D03*
%TO.P,J1,34*%
%TO.N,GND*%
X161010000Y-82230000D03*
%TO.P,J1,35*%
%TO.N,N/C*%
X163550000Y-84770000D03*
%TO.P,J1,36*%
X163550000Y-82230000D03*
%TO.P,J1,37*%
X166090000Y-84770000D03*
%TO.P,J1,38*%
X166090000Y-82230000D03*
%TO.P,J1,39*%
%TO.N,GND*%
X168630000Y-84770000D03*
%TO.P,J1,40*%
%TO.N,N/C*%
X168630000Y-82230000D03*
%TD*%
D24*
%TO.N,+5V*%
X128702300Y-80556200D03*
X140508300Y-61934400D03*
%TO.N,I2C_SDA*%
X153932700Y-61429500D03*
%TO.N,LED_SPI*%
X158981700Y-69528000D03*
%TO.N,GND*%
X112000000Y-132000000D03*
X169000000Y-87000000D03*
X135000000Y-65900000D03*
X122781000Y-61660600D03*
X112000000Y-63000000D03*
X136000000Y-87000000D03*
X109000000Y-129000000D03*
X181000000Y-75000000D03*
X163000000Y-75000000D03*
X106000000Y-129000000D03*
X175000000Y-63000000D03*
X122781000Y-78339400D03*
X146512000Y-67000000D03*
X184000000Y-69000000D03*
X138512000Y-75000000D03*
X103000000Y-63000000D03*
X103000000Y-66000000D03*
X184000000Y-75000000D03*
X131837500Y-67400000D03*
X125800000Y-63700000D03*
X103281000Y-78412200D03*
X103000000Y-129000000D03*
X175000000Y-66000000D03*
X109000000Y-132000000D03*
X163000000Y-78000000D03*
X184000000Y-63000000D03*
X109000000Y-126000000D03*
X169000000Y-69000000D03*
X130000000Y-75000000D03*
X196000000Y-63000000D03*
X178000000Y-63000000D03*
X142000000Y-78000000D03*
X106000000Y-132000000D03*
X172000000Y-75000000D03*
X166000000Y-66000000D03*
X118000000Y-132000000D03*
X169000000Y-75000000D03*
X175000000Y-87000000D03*
X181000000Y-78000000D03*
X169000000Y-78000000D03*
X190000000Y-69000000D03*
X181000000Y-69000000D03*
X175000000Y-69000000D03*
X169000000Y-63000000D03*
X130357000Y-67542300D03*
X193000000Y-78000000D03*
X163000000Y-87000000D03*
X148000000Y-87000000D03*
X157012000Y-67000000D03*
X154000000Y-87000000D03*
X139000000Y-87000000D03*
X106000000Y-96000000D03*
X112034000Y-61052200D03*
X151000000Y-87000000D03*
X157000000Y-87000000D03*
X112000000Y-129000000D03*
X172000000Y-69000000D03*
X109000000Y-123000000D03*
X166000000Y-87000000D03*
X118000000Y-81000000D03*
X175000000Y-75000000D03*
X113590000Y-61062100D03*
X193000000Y-66000000D03*
X142000000Y-87000000D03*
X137300000Y-74700000D03*
X160000000Y-87000000D03*
X103000000Y-132000000D03*
X121600000Y-74700000D03*
X190000000Y-66000000D03*
X178000000Y-69000000D03*
X124000000Y-75000000D03*
X196000000Y-66000000D03*
X124000000Y-78000000D03*
X145000000Y-87000000D03*
X193000000Y-69000000D03*
X166000000Y-69000000D03*
X103000000Y-69000000D03*
X166000000Y-63000000D03*
X106000000Y-75000000D03*
X157000000Y-66000000D03*
X105500000Y-110500000D03*
X133000000Y-87000000D03*
X196000000Y-72000000D03*
X103000000Y-126000000D03*
X109000000Y-96000000D03*
X181000000Y-66000000D03*
X166000000Y-78000000D03*
X106000000Y-111000000D03*
X193000000Y-72000000D03*
X121000000Y-63000000D03*
X196000000Y-69000000D03*
X106000000Y-66000000D03*
X115000000Y-129000000D03*
X190000000Y-78000000D03*
X103281000Y-61587800D03*
X109000000Y-120000000D03*
X184000000Y-78000000D03*
X184000000Y-66000000D03*
X120053000Y-61464300D03*
X118000000Y-63000000D03*
X106000000Y-69000000D03*
X121430000Y-61567100D03*
X142000000Y-81000000D03*
X124000000Y-72000000D03*
X187000000Y-78000000D03*
X169000000Y-66000000D03*
X115000000Y-63000000D03*
X128012000Y-63000000D03*
X153300000Y-76000000D03*
X172000000Y-87000000D03*
X178000000Y-75000000D03*
X109000000Y-111000000D03*
X109000000Y-108000000D03*
X139000000Y-78000000D03*
X146512000Y-63000000D03*
X118000000Y-129000000D03*
X157000000Y-63000000D03*
X156000000Y-67600000D03*
X178000000Y-66000000D03*
X172000000Y-63000000D03*
X148018000Y-60991200D03*
X193000000Y-75000000D03*
X172000000Y-66000000D03*
X181000000Y-63000000D03*
X141643000Y-66457700D03*
X190000000Y-72000000D03*
X166000000Y-75000000D03*
X153525000Y-71000000D03*
%TO.N,UART_PI_TX*%
X133553900Y-61597400D03*
%TO.N,UART_328_TX*%
X131756700Y-83552100D03*
X134310500Y-64096600D03*
X109727100Y-112974700D03*
%TO.N,PI_RESET_DRV*%
X124799700Y-71245200D03*
%TO.N,RESET*%
X135727200Y-64093200D03*
X127648300Y-69806900D03*
X140057600Y-73794200D03*
%TO.N,MOSI*%
X111035300Y-75891300D03*
%TO.N,SCK*%
X132259900Y-70599300D03*
X112720600Y-78711900D03*
%TO.N,CS*%
X102487500Y-72180400D03*
X107021800Y-125220100D03*
%TO.N,GDO0*%
X107546900Y-78712600D03*
X124182300Y-64754700D03*
X104194800Y-120497900D03*
%TO.N,LED_TREIBER*%
X143636000Y-69706700D03*
X136329000Y-65167100D03*
%TD*%
D25*
%TO.N,+5V*%
X122910000Y-82230000D02*
X124583800Y-80556200D01*
X110270300Y-87568600D02*
X110270300Y-102428000D01*
X147378400Y-61934400D02*
X140508300Y-61934400D01*
X150937500Y-63000000D02*
X148444000Y-63000000D01*
X120370000Y-82230000D02*
X119901600Y-82230000D01*
X124583800Y-80556200D02*
X128702300Y-80556200D01*
X148444000Y-63000000D02*
X147378400Y-61934400D01*
X122910000Y-82230000D02*
X120370000Y-82230000D01*
X106000000Y-107500000D02*
X106000000Y-106698300D01*
X110270300Y-102428000D02*
X106000000Y-106698300D01*
X119901600Y-82230000D02*
X116772500Y-85359100D01*
X116772500Y-85359100D02*
X112479800Y-85359100D01*
X112479800Y-85359100D02*
X110270300Y-87568600D01*
%TO.N,PI_3V3*%
X169089100Y-85950800D02*
X122414600Y-85950800D01*
X170952700Y-84087200D02*
X169089100Y-85950800D01*
X122414600Y-85950800D02*
X121521700Y-85057900D01*
X187000000Y-76000000D02*
X178428900Y-76000000D01*
X120370000Y-84770000D02*
X121521700Y-84770000D01*
X121521700Y-85057900D02*
X121521700Y-84770000D01*
X178428900Y-76000000D02*
X170952700Y-83476200D01*
X170952700Y-83476200D02*
X170952700Y-84087200D01*
%TO.N,I2C_SDA*%
X192500000Y-63500000D02*
X191598300Y-63500000D01*
X153932700Y-61429500D02*
X190014300Y-61429500D01*
X190014300Y-61429500D02*
X191598300Y-63013500D01*
X191598300Y-63013500D02*
X191598300Y-63500000D01*
%TO.N,I2C_SCL*%
X162754000Y-62278700D02*
X158370500Y-66662200D01*
X146141700Y-79889700D02*
X131176100Y-79889700D01*
X129378300Y-81687500D02*
X129378300Y-82530100D01*
X190500000Y-63500000D02*
X189598300Y-63500000D01*
X157108800Y-72473700D02*
X152281300Y-72473700D01*
X158370500Y-66662200D02*
X158370500Y-71212000D01*
X131176100Y-79889700D02*
X129378300Y-81687500D01*
X188863500Y-62278700D02*
X162754000Y-62278700D01*
X189598300Y-63013500D02*
X188863500Y-62278700D01*
X127357800Y-83500000D02*
X126087800Y-84770000D01*
X126087800Y-84770000D02*
X125450000Y-84770000D01*
X152281300Y-72473700D02*
X149100000Y-75655000D01*
X149100000Y-76931400D02*
X146141700Y-79889700D01*
X129378300Y-82530100D02*
X128408400Y-83500000D01*
X128408400Y-83500000D02*
X127357800Y-83500000D01*
X189598300Y-63500000D02*
X189598300Y-63013500D01*
X158370500Y-71212000D02*
X157108800Y-72473700D01*
X149100000Y-75655000D02*
X149100000Y-76931400D01*
%TO.N,BTN*%
X144500000Y-82659600D02*
X144500000Y-81838200D01*
X143659600Y-83500000D02*
X144500000Y-82659600D01*
X133070000Y-84770000D02*
X134340000Y-83500000D01*
X134340000Y-83500000D02*
X143659600Y-83500000D01*
X144500000Y-81838200D02*
X145468500Y-80869700D01*
X153730700Y-80869700D02*
X162000000Y-72600400D01*
X145468500Y-80869700D02*
X153730700Y-80869700D01*
X163397900Y-70000000D02*
X188000000Y-70000000D01*
X162000000Y-72600400D02*
X162000000Y-71397900D01*
X162000000Y-71397900D02*
X163397900Y-70000000D01*
%TO.N,LED_PWM*%
X161360900Y-66180200D02*
X160599800Y-66941300D01*
X149889200Y-80301500D02*
X134998500Y-80301500D01*
X164500000Y-67750000D02*
X162930200Y-66180200D01*
X160599800Y-69590900D02*
X149889200Y-80301500D01*
X134998500Y-80301500D02*
X133070000Y-82230000D01*
X162930200Y-66180200D02*
X161360900Y-66180200D01*
X160599800Y-66941300D02*
X160599800Y-69590900D01*
%TO.N,LED_SPI*%
X159500000Y-67750000D02*
X159500000Y-69009700D01*
X159500000Y-69009700D02*
X158981700Y-69528000D01*
%TO.N,WS_WAHL*%
X161000000Y-72000000D02*
X161001500Y-71998500D01*
X161001500Y-71998500D02*
X161001500Y-68748500D01*
X161001500Y-68748500D02*
X162000000Y-67750000D01*
%TO.N,WS_DATA*%
X184776600Y-72000000D02*
X188098300Y-75321700D01*
X189000000Y-76000000D02*
X188098300Y-76000000D01*
X163000000Y-72000000D02*
X184776600Y-72000000D01*
X188098300Y-75321700D02*
X188098300Y-76000000D01*
%TO.N,VREG_OUT*%
X152525000Y-63950000D02*
X153475000Y-63000000D01*
X148962500Y-64050000D02*
X148962500Y-67000000D01*
X149062500Y-63950000D02*
X148962500Y-64050000D01*
X149062500Y-63950000D02*
X152525000Y-63950000D01*
%TO.N,+3V3*%
X132425800Y-79488000D02*
X130731100Y-79488000D01*
X123560800Y-63901700D02*
X124462500Y-63000000D01*
X140000000Y-63000000D02*
X140000000Y-62625100D01*
X109714200Y-89174200D02*
X109714200Y-99484100D01*
X132409500Y-68200000D02*
X132920200Y-67689300D01*
X140000000Y-63000000D02*
X142962500Y-63000000D01*
X134962500Y-76951300D02*
X132425800Y-79488000D01*
X127189500Y-79858500D02*
X126896100Y-80151900D01*
X134230900Y-69000000D02*
X140162500Y-69000000D01*
X136400000Y-66600000D02*
X132920200Y-66600000D01*
X137753500Y-73190100D02*
X140809900Y-73190100D01*
X132920200Y-67689300D02*
X134230900Y-69000000D01*
X126896100Y-80151900D02*
X116270700Y-80151900D01*
X107040000Y-63901700D02*
X123560800Y-63901700D01*
X131837500Y-68200000D02*
X132409500Y-68200000D01*
X140809900Y-73190100D02*
X143000000Y-71000000D01*
X134962500Y-75000000D02*
X134962500Y-76951300D01*
X140000000Y-63000000D02*
X136400000Y-66600000D01*
X143000000Y-69000000D02*
X151462500Y-69000000D01*
X140162500Y-69000000D02*
X143000000Y-69000000D01*
X126494800Y-60967700D02*
X124462500Y-63000000D01*
X155525000Y-64937500D02*
X153462500Y-67000000D01*
X123560800Y-65560800D02*
X124500000Y-66500000D01*
X155525000Y-63000000D02*
X155525000Y-64937500D01*
X136555200Y-73407300D02*
X137536300Y-73407300D01*
X132920200Y-67689300D02*
X132920200Y-66600000D01*
X123560800Y-63901700D02*
X123560800Y-65560800D01*
X143000000Y-69000000D02*
X143000000Y-71000000D01*
X140000000Y-62625100D02*
X138342600Y-60967700D01*
X108540000Y-88000000D02*
X109714200Y-89174200D01*
X107040000Y-62700000D02*
X107040000Y-63901700D01*
X109714200Y-99484100D02*
X106000000Y-103198300D01*
X134962500Y-75000000D02*
X136555200Y-73407300D01*
X130360600Y-79858500D02*
X127189500Y-79858500D01*
X130731100Y-79488000D02*
X130360600Y-79858500D01*
X138342600Y-60967700D02*
X126494800Y-60967700D01*
X132920200Y-66600000D02*
X131837500Y-66600000D01*
X137536300Y-73407300D02*
X137753500Y-73190100D01*
X106000000Y-104000000D02*
X106000000Y-103198300D01*
X151462500Y-69000000D02*
X153462500Y-67000000D01*
X108540000Y-87882600D02*
X108540000Y-88000000D01*
X116270700Y-80151900D02*
X108540000Y-87882600D01*
D26*
%TO.N,GND*%
X150500000Y-67600000D02*
X150300000Y-67600000D01*
X119500000Y-76000000D02*
X119600000Y-75900000D01*
D27*
X131838000Y-67400000D02*
X130357000Y-67542300D01*
D26*
X145500000Y-63000000D02*
X146500000Y-63000000D01*
D27*
X104500000Y-62700000D02*
X103281000Y-61587800D01*
X126538000Y-63000000D02*
X128012000Y-63000000D01*
D26*
X132500000Y-65900000D02*
X135000000Y-65900000D01*
X148600000Y-61200000D02*
X148200000Y-61200000D01*
X149700000Y-68100000D02*
X147600000Y-68100000D01*
X148100000Y-61100000D02*
X148000000Y-61000000D01*
D27*
X137038000Y-75000000D02*
X138512000Y-75000000D01*
X112120000Y-62700000D02*
X112034000Y-61052200D01*
D26*
X119400000Y-76300000D02*
X119400000Y-76100000D01*
X105600000Y-110600000D02*
X105500000Y-110500000D01*
X126000000Y-63600000D02*
X125900000Y-63600000D01*
X119300000Y-76500000D02*
X119400000Y-76400000D01*
X149000000Y-61800000D02*
X149000000Y-61500000D01*
X140800000Y-66500000D02*
X141600000Y-66500000D01*
X145500000Y-67000000D02*
X146500000Y-67000000D01*
X120500000Y-75800000D02*
X121600000Y-74700000D01*
D27*
X154975000Y-71000000D02*
X153525000Y-71000000D01*
X118960000Y-62700000D02*
X120053000Y-61464300D01*
X145038000Y-67000000D02*
X146512000Y-67000000D01*
X145038000Y-63000000D02*
X146512000Y-63000000D01*
X120230000Y-62700000D02*
X121430000Y-61567100D01*
D26*
X119700000Y-75900000D02*
X120400000Y-75900000D01*
D27*
X155538000Y-67000000D02*
X157012000Y-67000000D01*
X121500000Y-77300000D02*
X122781000Y-78339400D01*
X104500000Y-77300000D02*
X103281000Y-78412200D01*
X151700000Y-76000000D02*
X153300000Y-76000000D01*
X113390000Y-62700000D02*
X113590000Y-61062100D01*
X121500000Y-62700000D02*
X122781000Y-61660600D01*
X140162000Y-66600000D02*
X141643000Y-66457700D01*
X149062000Y-62050000D02*
X148018000Y-60991200D01*
D26*
X148900000Y-61400000D02*
X148700000Y-61200000D01*
X150200000Y-67700000D02*
X149800000Y-68100000D01*
X147500000Y-68000000D02*
X146500000Y-67000000D01*
D25*
%TO.N,UART_PI_TX*%
X112067800Y-86361500D02*
X116521300Y-86361500D01*
X134800000Y-62837500D02*
X134800000Y-62257600D01*
X106000000Y-117198300D02*
X106354400Y-117198300D01*
X111072200Y-87357100D02*
X112067800Y-86361500D01*
X116521300Y-86361500D02*
X119400800Y-83482000D01*
X106000000Y-118000000D02*
X106000000Y-117198300D01*
X119400800Y-83482000D02*
X126738000Y-83482000D01*
X134800000Y-62257600D02*
X134139800Y-61597400D01*
X134139800Y-61597400D02*
X133553900Y-61597400D01*
X111072200Y-112480500D02*
X111072200Y-87357100D01*
X106354400Y-117198300D02*
X111072200Y-112480500D01*
X126738000Y-83482000D02*
X127990000Y-82230000D01*
%TO.N,UART_328_TX*%
X134000000Y-63786100D02*
X134310500Y-64096600D01*
X130530000Y-82230000D02*
X131756700Y-83456700D01*
X131756700Y-83456700D02*
X131756700Y-83552100D01*
X106000000Y-114500000D02*
X106801700Y-114500000D01*
X134000000Y-62837500D02*
X134000000Y-63786100D01*
X108327000Y-112974700D02*
X106801700Y-114500000D01*
X109727100Y-112974700D02*
X108327000Y-112974700D01*
%TO.N,PI_RESET_DRV*%
X124462500Y-70908000D02*
X124462500Y-70000000D01*
X124799700Y-71245200D02*
X124462500Y-70908000D01*
%TO.N,RESET*%
X148300000Y-76000000D02*
X145801700Y-76000000D01*
X145000000Y-72794200D02*
X144000000Y-73794200D01*
X135600000Y-63699600D02*
X135466800Y-63832800D01*
X135600000Y-62837500D02*
X135600000Y-63699600D01*
X145801700Y-76000000D02*
X144801700Y-75000000D01*
X126537500Y-68130000D02*
X126537500Y-70000000D01*
X144000000Y-75000000D02*
X144801700Y-75000000D01*
X135466800Y-63832800D02*
X134557400Y-64742200D01*
X127648300Y-69806900D02*
X126730600Y-69806900D01*
X134557400Y-64742200D02*
X133742200Y-64742200D01*
X132592400Y-63592400D02*
X131075100Y-63592400D01*
X144000000Y-73794200D02*
X140057600Y-73794200D01*
X131075100Y-63592400D02*
X126537500Y-68130000D01*
X135466800Y-63832800D02*
X135727200Y-64093200D01*
X126730600Y-69806900D02*
X126537500Y-70000000D01*
X145000000Y-71000000D02*
X145000000Y-72794200D01*
X144000000Y-73794200D02*
X144000000Y-74198300D01*
X133742200Y-64742200D02*
X132592400Y-63592400D01*
X144000000Y-75000000D02*
X144000000Y-74198300D01*
%TO.N,MOSI*%
X133564500Y-74752200D02*
X133564500Y-76645300D01*
X110850000Y-76076600D02*
X111035300Y-75891300D01*
X128515400Y-78422500D02*
X127882800Y-79055100D01*
X133202100Y-77090300D02*
X133278500Y-77166700D01*
X137118000Y-72603900D02*
X135146900Y-72603900D01*
X110850000Y-77300000D02*
X110850000Y-76076600D01*
X133423100Y-74327700D02*
X133423100Y-74610800D01*
X126856900Y-79055100D02*
X126563500Y-79348500D01*
X138000000Y-71721900D02*
X137118000Y-72603900D01*
X111696800Y-79348500D02*
X110850000Y-78501700D01*
X133202100Y-77007700D02*
X133202100Y-77090300D01*
X132355300Y-78422500D02*
X128515400Y-78422500D01*
X135146900Y-72603900D02*
X133423100Y-74327700D01*
X133423100Y-74610800D02*
X133564500Y-74752200D01*
X110850000Y-77300000D02*
X110850000Y-78501700D01*
X126563500Y-79348500D02*
X111696800Y-79348500D01*
X133564500Y-76645300D02*
X133202100Y-77007700D01*
X138000000Y-71162500D02*
X138000000Y-71721900D01*
X127882800Y-79055100D02*
X126856900Y-79055100D01*
X133278500Y-77499300D02*
X132355300Y-78422500D01*
X133278500Y-77166700D02*
X133278500Y-77499300D01*
%TO.N,MISO*%
X128250600Y-79456800D02*
X127023200Y-79456800D01*
X134394800Y-73926100D02*
X134392700Y-73926100D01*
X133966200Y-76811600D02*
X133680200Y-77097600D01*
X127023200Y-79456800D02*
X126729800Y-79750200D01*
X133966200Y-74585900D02*
X133966200Y-76811600D01*
X109981700Y-79348500D02*
X109730700Y-79097400D01*
X111051800Y-79348500D02*
X109981700Y-79348500D01*
X135449700Y-73437100D02*
X134883800Y-73437100D01*
X133849600Y-74469300D02*
X133966200Y-74585900D01*
X137774900Y-72600700D02*
X137370000Y-73005600D01*
X134392700Y-73926100D02*
X133849600Y-74469200D01*
X137370000Y-73005600D02*
X135881200Y-73005600D01*
X130293300Y-79348500D02*
X128358900Y-79348500D01*
X111453500Y-79750200D02*
X111051800Y-79348500D01*
X109580000Y-77300000D02*
X109580000Y-78946800D01*
X137994700Y-72600700D02*
X137774900Y-72600700D01*
X126729800Y-79750200D02*
X111453500Y-79750200D01*
X109580000Y-78946800D02*
X109730700Y-79097400D01*
X106000000Y-82828100D02*
X109730700Y-79097400D01*
X128358900Y-79348500D02*
X128250600Y-79456800D01*
X131123500Y-79086300D02*
X130555500Y-79086300D01*
X133680200Y-77665600D02*
X132521600Y-78824200D01*
X131385600Y-78824200D02*
X131123500Y-79086300D01*
X106000000Y-88000000D02*
X106000000Y-82828100D01*
X138800000Y-71162500D02*
X138800000Y-71795400D01*
X135881200Y-73005600D02*
X135449700Y-73437100D01*
X132521600Y-78824200D02*
X131385600Y-78824200D01*
X133849600Y-74469200D02*
X133849600Y-74469300D01*
X130555500Y-79086300D02*
X130293300Y-79348500D01*
X134883800Y-73437100D02*
X134394800Y-73926100D01*
X133680200Y-77097600D02*
X133680200Y-77665600D01*
X138800000Y-71795400D02*
X137994700Y-72600700D01*
%TO.N,SCK*%
X112120000Y-77300000D02*
X112120000Y-78501700D01*
X112510400Y-78501700D02*
X112720600Y-78711900D01*
X133200000Y-69800000D02*
X132400700Y-70599300D01*
X132400700Y-70599300D02*
X132259900Y-70599300D01*
X112120000Y-78501700D02*
X112510400Y-78501700D01*
X140162500Y-69800000D02*
X133200000Y-69800000D01*
%TO.N,CS*%
X132835500Y-77291700D02*
X132835500Y-77374300D01*
X113390000Y-76199100D02*
X113390000Y-76099800D01*
X106000000Y-125000000D02*
X106801700Y-125000000D01*
X133010900Y-74134100D02*
X133010900Y-75002000D01*
X117307900Y-68262500D02*
X113390000Y-72180400D01*
X127767100Y-77576900D02*
X126397200Y-78946800D01*
X132835500Y-77374300D02*
X132632900Y-77576900D01*
X132632900Y-77576900D02*
X127767100Y-77576900D01*
X133010900Y-75002000D02*
X133162800Y-75153900D01*
X113390000Y-77300000D02*
X113390000Y-78501700D01*
X113390000Y-76098300D02*
X113390000Y-72180400D01*
X134942800Y-72202200D02*
X133010900Y-74134100D01*
X124737500Y-68262500D02*
X117307900Y-68262500D01*
X133162800Y-75153900D02*
X133162800Y-76479000D01*
X132784800Y-77241000D02*
X132835500Y-77291700D01*
X137200000Y-71162500D02*
X137200000Y-71738100D01*
X132784800Y-76857000D02*
X132784800Y-77241000D01*
X136735900Y-72202200D02*
X134942800Y-72202200D01*
X113835100Y-78946800D02*
X113390000Y-78501700D01*
X133162800Y-76479000D02*
X132784800Y-76857000D01*
X126397200Y-78946800D02*
X113835100Y-78946800D01*
X107021800Y-125220100D02*
X106801700Y-125000000D01*
X126500000Y-66500000D02*
X124737500Y-68262500D01*
X113390000Y-76099800D02*
X113390000Y-76098300D01*
X113390000Y-72180400D02*
X102487500Y-72180400D01*
X137200000Y-71738100D02*
X136735900Y-72202200D01*
X113390000Y-77300000D02*
X113390000Y-76199100D01*
%TO.N,GDO0*%
X106000000Y-120698300D02*
X105799600Y-120497900D01*
X133200000Y-62837500D02*
X130674100Y-62837500D01*
X108310000Y-77300000D02*
X108310000Y-78501700D01*
X130674100Y-62837500D02*
X128756900Y-64754700D01*
X106000000Y-121500000D02*
X106000000Y-120698300D01*
X108310000Y-78501700D02*
X107757800Y-78501700D01*
X107757800Y-78501700D02*
X107546900Y-78712600D01*
X128756900Y-64754700D02*
X124182300Y-64754700D01*
X105799600Y-120497900D02*
X104194800Y-120497900D01*
%TO.N,XTAL1*%
X131837500Y-69000000D02*
X131271300Y-69000000D01*
X127000000Y-73271300D02*
X127000000Y-76000000D01*
X131271300Y-69000000D02*
X127000000Y-73271300D01*
%TO.N,XTAL2*%
X131837500Y-69800000D02*
X131623500Y-70014000D01*
X131623500Y-75623500D02*
X132000000Y-76000000D01*
X131623500Y-70014000D02*
X131623500Y-75623500D01*
%TO.N,AREF*%
X140162500Y-67400000D02*
X142562500Y-67400000D01*
X142562500Y-67400000D02*
X142962500Y-67000000D01*
%TO.N,LED_TREIBER*%
X132004600Y-65167100D02*
X136329000Y-65167100D01*
X147706700Y-69706700D02*
X143636000Y-69706700D01*
X149000000Y-71000000D02*
X147706700Y-69706700D01*
X131837500Y-65000000D02*
X132004600Y-65167100D01*
%TO.N,LED_ANODE*%
X155982000Y-72043000D02*
X152043000Y-72043000D01*
X152043000Y-72043000D02*
X151000000Y-71000000D01*
X157025000Y-71000000D02*
X155982000Y-72043000D01*
%TD*%
M02*
