%TF.GenerationSoftware,KiCad,Pcbnew,9.0.2+dfsg-1*%
%TF.CreationDate,2026-07-28T14:15:07+02:00*%
%TF.ProjectId,AskSin-Analyzer-V3,41736b53-696e-42d4-916e-616c797a6572,rev?*%
%TF.SameCoordinates,Original*%
%TF.FileFunction,Copper,L3,Inr*%
%TF.FilePolarity,Positive*%
%FSLAX46Y46*%
G04 Gerber Fmt 4.6, Leading zero omitted, Abs format (unit mm)*
G04 Created by KiCad (PCBNEW 9.0.2+dfsg-1) date 2026-07-28 14:15:07*
%MOMM*%
%LPD*%
G01*
G04 APERTURE LIST*
G04 Aperture macros list*
%AMRoundRect*
0 Rectangle with rounded corners*
0 $1 Rounding radius*
0 $2 $3 $4 $5 $6 $7 $8 $9 X,Y pos of 4 corners*
0 Add a 4 corners polygon primitive as box body*
4,1,4,$2,$3,$4,$5,$6,$7,$8,$9,$2,$3,0*
0 Add four circle primitives for the rounded corners*
1,1,$1+$1,$2,$3*
1,1,$1+$1,$4,$5*
1,1,$1+$1,$6,$7*
1,1,$1+$1,$8,$9*
0 Add four rect primitives between the rounded corners*
20,1,$1+$1,$2,$3,$4,$5,0*
20,1,$1+$1,$4,$5,$6,$7,0*
20,1,$1+$1,$6,$7,$8,$9,0*
20,1,$1+$1,$8,$9,$2,$3,0*%
G04 Aperture macros list end*
%TA.AperFunction,ComponentPad*%
%ADD10RoundRect,0.250000X0.625000X-0.350000X0.625000X0.350000X-0.625000X0.350000X-0.625000X-0.350000X0*%
%TD*%
%TA.AperFunction,ComponentPad*%
%ADD11O,1.750000X1.200000*%
%TD*%
%TA.AperFunction,ComponentPad*%
%ADD12C,1.700000*%
%TD*%
%TA.AperFunction,ComponentPad*%
%ADD13R,1.700000X1.700000*%
%TD*%
%TA.AperFunction,ViaPad*%
%ADD14C,0.600000*%
%TD*%
G04 APERTURE END LIST*
D10*
%TO.N,BTN*%
%TO.C,J6*%
X169000000Y-90000000D03*
D11*
%TO.N,GND*%
X169000000Y-88000000D03*
%TD*%
D12*
%TO.N,XTAL1*%
%TO.C,Y1*%
X178000000Y-82000000D03*
%TO.N,GND*%
X178000000Y-79500000D03*
%TO.N,XTAL2*%
X178000000Y-77000000D03*
%TD*%
D10*
%TO.N,PI_3V3*%
%TO.C,J7*%
X169000000Y-99500000D03*
D11*
%TO.N,WS_DATA*%
X169000000Y-97500000D03*
%TO.N,GND*%
X169000000Y-95500000D03*
%TD*%
D10*
%TO.N,GND*%
%TO.C,J5*%
X169000000Y-80500000D03*
D11*
%TO.N,PI_3V3*%
X169000000Y-78500000D03*
%TO.N,I2C_SCL*%
X169000000Y-76500000D03*
%TO.N,I2C_SDA*%
X169000000Y-74500000D03*
%TD*%
D13*
%TO.N,MISO*%
%TO.C,J2*%
X198000000Y-66000000D03*
D12*
%TO.N,+3V3*%
X200540000Y-66000000D03*
%TO.N,SCK*%
X198000000Y-68540000D03*
%TO.N,MOSI*%
X200540000Y-68540000D03*
%TO.N,RESET*%
X198000000Y-71080000D03*
%TO.N,GND*%
X200540000Y-71080000D03*
%TD*%
D13*
%TO.N,PI_3V3*%
%TO.C,J1*%
X108370000Y-64770000D03*
D12*
%TO.N,+5V*%
X108370000Y-67310000D03*
%TO.N,I2C_SDA*%
X110910000Y-64770000D03*
%TO.N,+5V*%
X110910000Y-67310000D03*
%TO.N,I2C_SCL*%
X113450000Y-64770000D03*
%TO.N,GND*%
X113450000Y-67310000D03*
%TO.N,PI_RESET_DRV*%
X115990000Y-64770000D03*
%TO.N,UART_PI_TX*%
X115990000Y-67310000D03*
%TO.N,GND*%
X118530000Y-64770000D03*
%TO.N,UART_328_TX*%
X118530000Y-67310000D03*
%TO.N,BTN*%
X121070000Y-64770000D03*
%TO.N,LED_PWM*%
X121070000Y-67310000D03*
%TO.N,N/C*%
X123610000Y-64770000D03*
%TO.N,GND*%
X123610000Y-67310000D03*
%TO.N,N/C*%
X126150000Y-64770000D03*
X126150000Y-67310000D03*
X128690000Y-64770000D03*
X128690000Y-67310000D03*
%TO.N,LED_SPI*%
X131230000Y-64770000D03*
%TO.N,GND*%
X131230000Y-67310000D03*
%TO.N,N/C*%
X133770000Y-64770000D03*
X133770000Y-67310000D03*
X136310000Y-64770000D03*
X136310000Y-67310000D03*
%TO.N,GND*%
X138850000Y-64770000D03*
%TO.N,N/C*%
X138850000Y-67310000D03*
X141390000Y-64770000D03*
X141390000Y-67310000D03*
X143930000Y-64770000D03*
%TO.N,GND*%
X143930000Y-67310000D03*
%TO.N,N/C*%
X146470000Y-64770000D03*
X146470000Y-67310000D03*
X149010000Y-64770000D03*
%TO.N,GND*%
X149010000Y-67310000D03*
%TO.N,N/C*%
X151550000Y-64770000D03*
X151550000Y-67310000D03*
X154090000Y-64770000D03*
X154090000Y-67310000D03*
%TO.N,GND*%
X156630000Y-64770000D03*
%TO.N,N/C*%
X156630000Y-67310000D03*
%TD*%
D14*
%TO.N,+5V*%
X192070700Y-103365600D03*
X174243700Y-65496500D03*
%TO.N,LED_PWM*%
X172173800Y-101321800D03*
X166575400Y-69389400D03*
%TO.N,LED_SPI*%
X178607000Y-101116600D03*
%TO.N,+3V3*%
X193781600Y-85277400D03*
%TO.N,GND*%
X202000000Y-90000000D03*
X211000000Y-99000000D03*
X214000000Y-69000000D03*
X208000000Y-90000000D03*
X215800000Y-80000000D03*
X186000000Y-83600000D03*
X211000000Y-87000000D03*
X195600000Y-87900000D03*
X194700000Y-83700000D03*
X184700000Y-87400000D03*
X208000000Y-66000000D03*
X115000000Y-69000000D03*
X214000000Y-90000000D03*
X211000000Y-66000000D03*
X205000000Y-96000000D03*
X208000000Y-63000000D03*
X175000000Y-81000000D03*
X214000000Y-87000000D03*
X212300000Y-93000000D03*
X195600000Y-87900000D03*
X181000000Y-99000000D03*
X175000000Y-78000000D03*
X214000000Y-84000000D03*
X184000000Y-69000000D03*
X166000000Y-99000000D03*
X103000000Y-66000000D03*
X211000000Y-63000000D03*
X103000000Y-69000000D03*
X214000000Y-75000000D03*
X202000000Y-96000000D03*
X175000000Y-63000000D03*
X166000000Y-102000000D03*
X187000000Y-63000000D03*
X208000000Y-72000000D03*
X109000000Y-63000000D03*
X205000000Y-87000000D03*
X214000000Y-93000000D03*
X195600000Y-91900000D03*
X212300000Y-94200000D03*
X181000000Y-63000000D03*
X212300000Y-95500000D03*
X187000000Y-69000000D03*
X169000000Y-102000000D03*
X106000000Y-69000000D03*
X205000000Y-63000000D03*
X193000000Y-63000000D03*
X194000000Y-80500000D03*
X191900000Y-91900000D03*
X198600000Y-78800000D03*
X169700000Y-63400000D03*
X205000000Y-81000000D03*
X205000000Y-75000000D03*
X175000000Y-87000000D03*
X208000000Y-75000000D03*
X196000000Y-93000000D03*
X211000000Y-75000000D03*
X188300000Y-91900000D03*
X178000000Y-63000000D03*
X166000000Y-87000000D03*
X208000000Y-69000000D03*
X212300000Y-78500000D03*
X214000000Y-99000000D03*
X211000000Y-90000000D03*
X197700000Y-93000000D03*
X184000000Y-84800000D03*
X199000000Y-90000000D03*
X197900000Y-98800000D03*
X169000000Y-81000000D03*
X191900000Y-90500000D03*
X212300000Y-86100000D03*
X177300000Y-86300000D03*
X190000000Y-93000000D03*
X169000000Y-84000000D03*
X202900000Y-78500000D03*
X190000000Y-66000000D03*
X214000000Y-96000000D03*
X190000000Y-63000000D03*
X211000000Y-69000000D03*
X199000000Y-93000000D03*
X196000000Y-63000000D03*
X172000000Y-63000000D03*
X199000000Y-63000000D03*
X184000000Y-63000000D03*
X205000000Y-84000000D03*
X166000000Y-90000000D03*
X103000000Y-72000000D03*
X205000000Y-69000000D03*
X197900000Y-104800000D03*
X205000000Y-90000000D03*
X212300000Y-87400000D03*
X184000000Y-72000000D03*
X175000000Y-84000000D03*
X175500000Y-64500000D03*
X211000000Y-72000000D03*
X208000000Y-84000000D03*
X186500000Y-64500000D03*
X106000000Y-66000000D03*
X205000000Y-72000000D03*
X202000000Y-93000000D03*
X197700000Y-95500000D03*
X196000000Y-84000000D03*
X197700000Y-78500000D03*
X202000000Y-99000000D03*
X211000000Y-93000000D03*
X214000000Y-78000000D03*
X169000000Y-87000000D03*
X211000000Y-96000000D03*
X208000000Y-96000000D03*
X208000000Y-99000000D03*
X169000000Y-93000000D03*
X194700000Y-83700000D03*
X128400000Y-70800000D03*
X166000000Y-84000000D03*
X205000000Y-66000000D03*
X106000000Y-63000000D03*
X214000000Y-63000000D03*
X202000000Y-87000000D03*
X214000000Y-72000000D03*
X166000000Y-81000000D03*
X199000000Y-96000000D03*
X166000000Y-96000000D03*
X106000000Y-72000000D03*
X208000000Y-93000000D03*
X166000000Y-93000000D03*
X208000000Y-87000000D03*
X205000000Y-93000000D03*
X115000000Y-72000000D03*
X196000000Y-66000000D03*
X211000000Y-102000000D03*
X202000000Y-63000000D03*
X193000000Y-66000000D03*
X211000000Y-78000000D03*
X169000000Y-96000000D03*
%TO.N,UART_PI_TX*%
X202206300Y-104085600D03*
X122409300Y-69925200D03*
X187489300Y-79422200D03*
%TO.N,UART_328_TX*%
X186719300Y-78679400D03*
X196278800Y-104619100D03*
%TO.N,RESET*%
X192666300Y-98503000D03*
%TO.N,MOSI*%
X199292500Y-85085000D03*
X189454100Y-88767000D03*
%TO.N,MISO*%
X190639000Y-90092300D03*
X199688800Y-83874800D03*
%TO.N,SCK*%
X189349800Y-87256300D03*
%TO.N,GDO0*%
X207303800Y-81590200D03*
X206643500Y-103392100D03*
%TO.N,XTAL2*%
X178761300Y-88154600D03*
%TO.N,AREF*%
X195567100Y-90959700D03*
X193333200Y-84436400D03*
%TO.N,LED_A*%
X175018300Y-94785300D03*
X180837500Y-84160900D03*
%TD*%
%TA.AperFunction,Conductor*%
%TO.N,GND*%
G36*
X217458691Y-60519407D02*
G01*
X217494655Y-60568907D01*
X217499500Y-60599500D01*
X217499500Y-105400500D01*
X217480593Y-105458691D01*
X217431093Y-105494655D01*
X217400500Y-105499500D01*
X164599500Y-105499500D01*
X164541309Y-105480593D01*
X164505345Y-105431093D01*
X164500500Y-105400500D01*
X164500500Y-104540043D01*
X195678300Y-104540043D01*
X195678300Y-104698157D01*
X195719223Y-104850884D01*
X195798280Y-104987816D01*
X195910084Y-105099620D01*
X196047016Y-105178677D01*
X196199743Y-105219600D01*
X196199745Y-105219600D01*
X196357855Y-105219600D01*
X196357857Y-105219600D01*
X196510584Y-105178677D01*
X196647516Y-105099620D01*
X196759320Y-104987816D01*
X196838377Y-104850884D01*
X196879300Y-104698157D01*
X196879300Y-104540043D01*
X196838377Y-104387316D01*
X196759320Y-104250384D01*
X196647516Y-104138580D01*
X196556079Y-104085789D01*
X196510585Y-104059523D01*
X196447628Y-104042654D01*
X196357857Y-104018600D01*
X196199743Y-104018600D01*
X196047016Y-104059523D01*
X195910084Y-104138580D01*
X195798280Y-104250384D01*
X195719223Y-104387316D01*
X195678300Y-104540043D01*
X164500500Y-104540043D01*
X164500500Y-104006543D01*
X201605800Y-104006543D01*
X201605800Y-104164657D01*
X201646723Y-104317384D01*
X201725780Y-104454316D01*
X201837584Y-104566120D01*
X201974516Y-104645177D01*
X202127243Y-104686100D01*
X202127245Y-104686100D01*
X202285355Y-104686100D01*
X202285357Y-104686100D01*
X202438084Y-104645177D01*
X202575016Y-104566120D01*
X202686820Y-104454316D01*
X202765877Y-104317384D01*
X202806800Y-104164657D01*
X202806800Y-104006543D01*
X202765877Y-103853816D01*
X202686820Y-103716884D01*
X202575016Y-103605080D01*
X202438084Y-103526023D01*
X202285357Y-103485100D01*
X202127243Y-103485100D01*
X201974516Y-103526023D01*
X201837584Y-103605080D01*
X201725780Y-103716884D01*
X201646723Y-103853816D01*
X201605800Y-104006543D01*
X164500500Y-104006543D01*
X164500500Y-103286543D01*
X191470200Y-103286543D01*
X191470200Y-103444657D01*
X191511123Y-103597384D01*
X191590180Y-103734316D01*
X191701984Y-103846120D01*
X191838916Y-103925177D01*
X191991643Y-103966100D01*
X191991645Y-103966100D01*
X192149755Y-103966100D01*
X192149757Y-103966100D01*
X192302484Y-103925177D01*
X192439416Y-103846120D01*
X192551220Y-103734316D01*
X192630277Y-103597384D01*
X192671200Y-103444657D01*
X192671200Y-103313043D01*
X206043000Y-103313043D01*
X206043000Y-103471157D01*
X206083923Y-103623884D01*
X206162980Y-103760816D01*
X206274784Y-103872620D01*
X206411716Y-103951677D01*
X206564443Y-103992600D01*
X206564445Y-103992600D01*
X206722555Y-103992600D01*
X206722557Y-103992600D01*
X206875284Y-103951677D01*
X207012216Y-103872620D01*
X207124020Y-103760816D01*
X207203077Y-103623884D01*
X207244000Y-103471157D01*
X207244000Y-103313043D01*
X207203077Y-103160316D01*
X207124020Y-103023384D01*
X207012216Y-102911580D01*
X206947184Y-102874034D01*
X212899500Y-102874034D01*
X212899500Y-103125965D01*
X212938908Y-103374780D01*
X213016759Y-103614379D01*
X213091371Y-103760815D01*
X213131130Y-103838845D01*
X213279207Y-104042656D01*
X213457344Y-104220793D01*
X213661155Y-104368870D01*
X213885621Y-104483241D01*
X214125215Y-104561090D01*
X214125216Y-104561090D01*
X214125219Y-104561091D01*
X214374035Y-104600500D01*
X214374038Y-104600500D01*
X214625965Y-104600500D01*
X214874780Y-104561091D01*
X214874781Y-104561090D01*
X214874785Y-104561090D01*
X215114379Y-104483241D01*
X215338845Y-104368870D01*
X215542656Y-104220793D01*
X215720793Y-104042656D01*
X215868870Y-103838845D01*
X215983241Y-103614379D01*
X216061090Y-103374785D01*
X216075066Y-103286544D01*
X216100500Y-103125965D01*
X216100500Y-102874034D01*
X216061091Y-102625219D01*
X216061090Y-102625215D01*
X215983241Y-102385621D01*
X215868870Y-102161155D01*
X215720793Y-101957344D01*
X215542656Y-101779207D01*
X215338845Y-101631130D01*
X215338844Y-101631129D01*
X215338842Y-101631128D01*
X215114379Y-101516759D01*
X214874780Y-101438908D01*
X214625965Y-101399500D01*
X214625962Y-101399500D01*
X214374038Y-101399500D01*
X214374035Y-101399500D01*
X214125219Y-101438908D01*
X213885620Y-101516759D01*
X213661157Y-101631128D01*
X213457345Y-101779206D01*
X213279206Y-101957345D01*
X213131128Y-102161157D01*
X213016759Y-102385620D01*
X212938908Y-102625219D01*
X212899500Y-102874034D01*
X206947184Y-102874034D01*
X206875284Y-102832523D01*
X206722557Y-102791600D01*
X206564443Y-102791600D01*
X206411716Y-102832523D01*
X206274784Y-102911580D01*
X206162980Y-103023384D01*
X206083923Y-103160316D01*
X206043000Y-103313043D01*
X192671200Y-103313043D01*
X192671200Y-103286543D01*
X192630277Y-103133816D01*
X192551220Y-102996884D01*
X192439416Y-102885080D01*
X192302484Y-102806023D01*
X192149757Y-102765100D01*
X191991643Y-102765100D01*
X191838916Y-102806023D01*
X191701984Y-102885080D01*
X191590180Y-102996884D01*
X191511123Y-103133816D01*
X191470200Y-103286543D01*
X164500500Y-103286543D01*
X164500500Y-101242743D01*
X171573300Y-101242743D01*
X171573300Y-101400857D01*
X171614223Y-101553584D01*
X171693280Y-101690516D01*
X171805084Y-101802320D01*
X171942016Y-101881377D01*
X172094743Y-101922300D01*
X172094745Y-101922300D01*
X172252855Y-101922300D01*
X172252857Y-101922300D01*
X172405584Y-101881377D01*
X172542516Y-101802320D01*
X172654320Y-101690516D01*
X172733377Y-101553584D01*
X172774300Y-101400857D01*
X172774300Y-101242743D01*
X172733377Y-101090016D01*
X172703082Y-101037543D01*
X178006500Y-101037543D01*
X178006500Y-101195657D01*
X178047423Y-101348384D01*
X178126480Y-101485316D01*
X178238284Y-101597120D01*
X178375216Y-101676177D01*
X178527943Y-101717100D01*
X178527945Y-101717100D01*
X178686055Y-101717100D01*
X178686057Y-101717100D01*
X178838784Y-101676177D01*
X178975716Y-101597120D01*
X179087520Y-101485316D01*
X179166577Y-101348384D01*
X179207500Y-101195657D01*
X179207500Y-101037543D01*
X179180273Y-100935930D01*
X193349500Y-100935930D01*
X193349500Y-101064069D01*
X193374499Y-101189742D01*
X193374500Y-101189747D01*
X193423534Y-101308125D01*
X193423538Y-101308133D01*
X193466365Y-101372226D01*
X193494724Y-101414669D01*
X193585331Y-101505276D01*
X193648848Y-101547717D01*
X193691866Y-101576461D01*
X193691870Y-101576463D01*
X193691873Y-101576465D01*
X193810256Y-101625501D01*
X193935931Y-101650500D01*
X193935932Y-101650500D01*
X194064068Y-101650500D01*
X194064069Y-101650500D01*
X194189744Y-101625501D01*
X194308127Y-101576465D01*
X194414669Y-101505276D01*
X194505276Y-101414669D01*
X194576465Y-101308127D01*
X194625501Y-101189744D01*
X194650500Y-101064069D01*
X194650500Y-100935931D01*
X194625501Y-100810256D01*
X194576465Y-100691873D01*
X194576463Y-100691870D01*
X194576461Y-100691866D01*
X194523287Y-100612287D01*
X194505276Y-100585331D01*
X194414669Y-100494724D01*
X194372226Y-100466365D01*
X194308133Y-100423538D01*
X194308125Y-100423534D01*
X194189747Y-100374500D01*
X194189745Y-100374499D01*
X194189744Y-100374499D01*
X194064069Y-100349500D01*
X193935931Y-100349500D01*
X193935930Y-100349500D01*
X193873093Y-100361999D01*
X193810256Y-100374499D01*
X193810255Y-100374499D01*
X193810252Y-100374500D01*
X193691874Y-100423534D01*
X193691866Y-100423538D01*
X193585331Y-100494724D01*
X193585327Y-100494727D01*
X193494727Y-100585327D01*
X193494724Y-100585331D01*
X193423538Y-100691866D01*
X193423534Y-100691874D01*
X193374500Y-100810252D01*
X193374499Y-100810257D01*
X193349500Y-100935930D01*
X179180273Y-100935930D01*
X179166577Y-100884816D01*
X179087520Y-100747884D01*
X178975716Y-100636080D01*
X178838784Y-100557023D01*
X178686057Y-100516100D01*
X178527943Y-100516100D01*
X178375216Y-100557023D01*
X178238284Y-100636080D01*
X178126480Y-100747884D01*
X178047423Y-100884816D01*
X178006500Y-101037543D01*
X172703082Y-101037543D01*
X172654320Y-100953084D01*
X172542516Y-100841280D01*
X172405584Y-100762223D01*
X172252857Y-100721300D01*
X172094743Y-100721300D01*
X171942016Y-100762223D01*
X171805084Y-100841280D01*
X171693280Y-100953084D01*
X171614223Y-101090016D01*
X171573300Y-101242743D01*
X164500500Y-101242743D01*
X164500500Y-99106893D01*
X167824500Y-99106893D01*
X167824500Y-99893106D01*
X167835123Y-99981565D01*
X167890637Y-100122339D01*
X167890638Y-100122341D01*
X167890639Y-100122342D01*
X167982078Y-100242922D01*
X168102658Y-100334361D01*
X168102659Y-100334361D01*
X168102660Y-100334362D01*
X168173047Y-100362119D01*
X168243436Y-100389877D01*
X168331898Y-100400500D01*
X168331900Y-100400500D01*
X169668100Y-100400500D01*
X169668102Y-100400500D01*
X169756564Y-100389877D01*
X169897342Y-100334361D01*
X170017922Y-100242922D01*
X170109361Y-100122342D01*
X170164877Y-99981564D01*
X170175500Y-99893102D01*
X170175500Y-99397644D01*
X198199500Y-99397644D01*
X198199500Y-99602355D01*
X198231521Y-99804529D01*
X198294780Y-99999219D01*
X198387712Y-100181609D01*
X198387714Y-100181613D01*
X198508029Y-100347213D01*
X198508031Y-100347215D01*
X198508034Y-100347219D01*
X198652781Y-100491966D01*
X198652784Y-100491968D01*
X198652786Y-100491970D01*
X198818386Y-100612285D01*
X198818390Y-100612287D01*
X199000781Y-100705220D01*
X199195466Y-100768477D01*
X199195467Y-100768477D01*
X199195470Y-100768478D01*
X199397645Y-100800500D01*
X199397648Y-100800500D01*
X199602355Y-100800500D01*
X199804529Y-100768478D01*
X199804530Y-100768477D01*
X199804534Y-100768477D01*
X199999219Y-100705220D01*
X200181610Y-100612287D01*
X200347219Y-100491966D01*
X200491966Y-100347219D01*
X200612287Y-100181610D01*
X200705220Y-99999219D01*
X200768477Y-99804534D01*
X200800500Y-99602352D01*
X200800500Y-99397648D01*
X200800500Y-99397644D01*
X203699500Y-99397644D01*
X203699500Y-99602355D01*
X203731521Y-99804529D01*
X203794780Y-99999219D01*
X203887712Y-100181609D01*
X203887714Y-100181613D01*
X204008029Y-100347213D01*
X204008031Y-100347215D01*
X204008034Y-100347219D01*
X204152781Y-100491966D01*
X204152784Y-100491968D01*
X204152786Y-100491970D01*
X204318386Y-100612285D01*
X204318390Y-100612287D01*
X204500781Y-100705220D01*
X204695466Y-100768477D01*
X204695467Y-100768477D01*
X204695470Y-100768478D01*
X204897645Y-100800500D01*
X204897648Y-100800500D01*
X205102355Y-100800500D01*
X205304529Y-100768478D01*
X205304530Y-100768477D01*
X205304534Y-100768477D01*
X205499219Y-100705220D01*
X205681610Y-100612287D01*
X205847219Y-100491966D01*
X205991966Y-100347219D01*
X206112287Y-100181610D01*
X206205220Y-99999219D01*
X206268477Y-99804534D01*
X206300500Y-99602352D01*
X206300500Y-99397648D01*
X206300500Y-99397644D01*
X206268478Y-99195470D01*
X206268477Y-99195466D01*
X206205220Y-99000781D01*
X206112287Y-98818390D01*
X206112285Y-98818386D01*
X205991970Y-98652786D01*
X205991968Y-98652784D01*
X205991966Y-98652781D01*
X205847219Y-98508034D01*
X205847215Y-98508031D01*
X205847213Y-98508029D01*
X205681613Y-98387714D01*
X205681609Y-98387712D01*
X205499219Y-98294780D01*
X205304529Y-98231521D01*
X205102355Y-98199500D01*
X205102352Y-98199500D01*
X204897648Y-98199500D01*
X204897645Y-98199500D01*
X204695470Y-98231521D01*
X204500780Y-98294780D01*
X204318390Y-98387712D01*
X204318386Y-98387714D01*
X204152786Y-98508029D01*
X204008029Y-98652786D01*
X203887714Y-98818386D01*
X203887712Y-98818390D01*
X203794780Y-99000780D01*
X203731521Y-99195470D01*
X203699500Y-99397644D01*
X200800500Y-99397644D01*
X200768478Y-99195470D01*
X200768477Y-99195466D01*
X200705220Y-99000781D01*
X200612287Y-98818390D01*
X200612285Y-98818386D01*
X200491970Y-98652786D01*
X200491968Y-98652784D01*
X200491966Y-98652781D01*
X200347219Y-98508034D01*
X200347215Y-98508031D01*
X200347213Y-98508029D01*
X200181613Y-98387714D01*
X200181609Y-98387712D01*
X199999219Y-98294780D01*
X199804529Y-98231521D01*
X199602355Y-98199500D01*
X199602352Y-98199500D01*
X199397648Y-98199500D01*
X199397645Y-98199500D01*
X199195470Y-98231521D01*
X199000780Y-98294780D01*
X198818390Y-98387712D01*
X198818386Y-98387714D01*
X198652786Y-98508029D01*
X198508029Y-98652786D01*
X198387714Y-98818386D01*
X198387712Y-98818390D01*
X198294780Y-99000780D01*
X198231521Y-99195470D01*
X198199500Y-99397644D01*
X170175500Y-99397644D01*
X170175500Y-99106898D01*
X170164877Y-99018436D01*
X170109361Y-98877658D01*
X170017922Y-98757078D01*
X169897342Y-98665639D01*
X169897341Y-98665638D01*
X169897339Y-98665637D01*
X169756565Y-98610123D01*
X169668106Y-98599500D01*
X169668102Y-98599500D01*
X168331898Y-98599500D01*
X168331893Y-98599500D01*
X168243434Y-98610123D01*
X168102660Y-98665637D01*
X168102656Y-98665640D01*
X167982081Y-98757075D01*
X167982075Y-98757081D01*
X167890640Y-98877656D01*
X167890637Y-98877660D01*
X167835123Y-99018434D01*
X167824500Y-99106893D01*
X164500500Y-99106893D01*
X164500500Y-98423943D01*
X192065800Y-98423943D01*
X192065800Y-98582057D01*
X192106723Y-98734784D01*
X192185780Y-98871716D01*
X192297584Y-98983520D01*
X192434516Y-99062577D01*
X192587243Y-99103500D01*
X192587245Y-99103500D01*
X192745355Y-99103500D01*
X192745357Y-99103500D01*
X192898084Y-99062577D01*
X193035016Y-98983520D01*
X193146820Y-98871716D01*
X193225877Y-98734784D01*
X193266800Y-98582057D01*
X193266800Y-98423943D01*
X193225877Y-98271216D01*
X193146820Y-98134284D01*
X193035016Y-98022480D01*
X192898084Y-97943423D01*
X192745357Y-97902500D01*
X192587243Y-97902500D01*
X192434516Y-97943423D01*
X192297584Y-98022480D01*
X192185780Y-98134284D01*
X192106723Y-98271216D01*
X192065800Y-98423943D01*
X164500500Y-98423943D01*
X164500500Y-97411306D01*
X167824500Y-97411306D01*
X167824500Y-97588693D01*
X167859106Y-97762665D01*
X167859106Y-97762667D01*
X167926985Y-97926544D01*
X167926985Y-97926545D01*
X168025535Y-98074034D01*
X168025536Y-98074035D01*
X168150965Y-98199464D01*
X168298453Y-98298013D01*
X168462334Y-98365894D01*
X168636309Y-98400500D01*
X168636310Y-98400500D01*
X169363690Y-98400500D01*
X169363691Y-98400500D01*
X169537666Y-98365894D01*
X169701547Y-98298013D01*
X169849035Y-98199464D01*
X169974464Y-98074035D01*
X170073013Y-97926547D01*
X170140894Y-97762666D01*
X170175500Y-97588691D01*
X170175500Y-97411309D01*
X170140894Y-97237334D01*
X170073014Y-97073455D01*
X170073014Y-97073454D01*
X169974464Y-96925965D01*
X169849034Y-96800535D01*
X169701544Y-96701985D01*
X169537666Y-96634106D01*
X169363693Y-96599500D01*
X169363691Y-96599500D01*
X168636309Y-96599500D01*
X168636306Y-96599500D01*
X168462334Y-96634106D01*
X168462332Y-96634106D01*
X168298455Y-96701985D01*
X168298454Y-96701985D01*
X168150965Y-96800535D01*
X168025535Y-96925965D01*
X167926985Y-97073454D01*
X167926985Y-97073455D01*
X167859106Y-97237332D01*
X167859106Y-97237334D01*
X167824500Y-97411306D01*
X164500500Y-97411306D01*
X164500500Y-95250000D01*
X167857095Y-95250000D01*
X168719670Y-95250000D01*
X168699925Y-95269745D01*
X168650556Y-95355255D01*
X168625000Y-95450630D01*
X168625000Y-95549370D01*
X168650556Y-95644745D01*
X168699925Y-95730255D01*
X168719670Y-95750000D01*
X167857096Y-95750000D01*
X167859586Y-95762523D01*
X167927430Y-95926310D01*
X168025923Y-96073715D01*
X168151284Y-96199076D01*
X168298691Y-96297570D01*
X168462479Y-96365413D01*
X168636355Y-96399999D01*
X168636359Y-96400000D01*
X168749999Y-96400000D01*
X168750000Y-96399999D01*
X168750000Y-95780330D01*
X168769745Y-95800075D01*
X168855255Y-95849444D01*
X168950630Y-95875000D01*
X169049370Y-95875000D01*
X169144745Y-95849444D01*
X169230255Y-95800075D01*
X169250000Y-95780330D01*
X169250000Y-96399999D01*
X169250001Y-96400000D01*
X169363641Y-96400000D01*
X169363644Y-96399999D01*
X169537519Y-96365413D01*
X169537521Y-96365413D01*
X169701308Y-96297570D01*
X169848715Y-96199076D01*
X169974076Y-96073715D01*
X170072569Y-95926310D01*
X170140413Y-95762523D01*
X170142904Y-95750000D01*
X169280330Y-95750000D01*
X169300075Y-95730255D01*
X169349444Y-95644745D01*
X169375000Y-95549370D01*
X169375000Y-95450630D01*
X169349444Y-95355255D01*
X169300075Y-95269745D01*
X169280330Y-95250000D01*
X170142904Y-95250000D01*
X170140413Y-95237476D01*
X170072569Y-95073689D01*
X169974076Y-94926284D01*
X169848715Y-94800923D01*
X169820498Y-94782069D01*
X169707016Y-94706243D01*
X174417800Y-94706243D01*
X174417800Y-94864357D01*
X174458723Y-95017084D01*
X174537780Y-95154016D01*
X174649584Y-95265820D01*
X174786516Y-95344877D01*
X174939243Y-95385800D01*
X174939245Y-95385800D01*
X175097355Y-95385800D01*
X175097357Y-95385800D01*
X175250084Y-95344877D01*
X175387016Y-95265820D01*
X175498820Y-95154016D01*
X175577877Y-95017084D01*
X175618800Y-94864357D01*
X175618800Y-94706243D01*
X175577877Y-94553516D01*
X175498820Y-94416584D01*
X175387016Y-94304780D01*
X175250084Y-94225723D01*
X175097357Y-94184800D01*
X174939243Y-94184800D01*
X174786516Y-94225723D01*
X174649584Y-94304780D01*
X174537780Y-94416584D01*
X174458723Y-94553516D01*
X174417800Y-94706243D01*
X169707016Y-94706243D01*
X169701308Y-94702429D01*
X169537520Y-94634586D01*
X169363644Y-94600000D01*
X169250001Y-94600000D01*
X169250000Y-94600001D01*
X169250000Y-95219670D01*
X169230255Y-95199925D01*
X169144745Y-95150556D01*
X169049370Y-95125000D01*
X168950630Y-95125000D01*
X168855255Y-95150556D01*
X168769745Y-95199925D01*
X168750000Y-95219670D01*
X168750000Y-94600001D01*
X168749999Y-94600000D01*
X168636355Y-94600000D01*
X168462480Y-94634586D01*
X168462478Y-94634586D01*
X168298691Y-94702429D01*
X168151284Y-94800923D01*
X168025923Y-94926284D01*
X167927430Y-95073689D01*
X167859586Y-95237476D01*
X167857095Y-95250000D01*
X164500500Y-95250000D01*
X164500500Y-89606893D01*
X167824500Y-89606893D01*
X167824500Y-90393106D01*
X167835123Y-90481565D01*
X167890637Y-90622339D01*
X167890638Y-90622341D01*
X167890639Y-90622342D01*
X167982078Y-90742922D01*
X168102658Y-90834361D01*
X168102659Y-90834361D01*
X168102660Y-90834362D01*
X168173047Y-90862119D01*
X168243436Y-90889877D01*
X168331898Y-90900500D01*
X168331900Y-90900500D01*
X169668100Y-90900500D01*
X169668102Y-90900500D01*
X169756564Y-90889877D01*
X169779980Y-90880643D01*
X194966600Y-90880643D01*
X194966600Y-91038757D01*
X195007523Y-91191484D01*
X195086580Y-91328416D01*
X195198384Y-91440220D01*
X195335316Y-91519277D01*
X195488043Y-91560200D01*
X195488045Y-91560200D01*
X195646155Y-91560200D01*
X195646157Y-91560200D01*
X195798884Y-91519277D01*
X195935816Y-91440220D01*
X196047620Y-91328416D01*
X196126677Y-91191484D01*
X196167600Y-91038757D01*
X196167600Y-90880643D01*
X196126677Y-90727916D01*
X196047620Y-90590984D01*
X195935816Y-90479180D01*
X195798884Y-90400123D01*
X195646157Y-90359200D01*
X195488043Y-90359200D01*
X195335316Y-90400123D01*
X195198384Y-90479180D01*
X195086580Y-90590984D01*
X195007523Y-90727916D01*
X194966600Y-90880643D01*
X169779980Y-90880643D01*
X169897342Y-90834361D01*
X170017922Y-90742922D01*
X170109361Y-90622342D01*
X170164877Y-90481564D01*
X170175500Y-90393102D01*
X170175500Y-90013243D01*
X190038500Y-90013243D01*
X190038500Y-90171357D01*
X190079423Y-90324084D01*
X190158480Y-90461016D01*
X190270284Y-90572820D01*
X190407216Y-90651877D01*
X190559943Y-90692800D01*
X190559945Y-90692800D01*
X190718055Y-90692800D01*
X190718057Y-90692800D01*
X190870784Y-90651877D01*
X191007716Y-90572820D01*
X191119520Y-90461016D01*
X191198577Y-90324084D01*
X191239500Y-90171357D01*
X191239500Y-90013243D01*
X191198577Y-89860516D01*
X191119520Y-89723584D01*
X191007716Y-89611780D01*
X190870784Y-89532723D01*
X190718057Y-89491800D01*
X190559943Y-89491800D01*
X190407216Y-89532723D01*
X190270284Y-89611780D01*
X190158480Y-89723584D01*
X190079423Y-89860516D01*
X190038500Y-90013243D01*
X170175500Y-90013243D01*
X170175500Y-89606898D01*
X170164877Y-89518436D01*
X170109361Y-89377658D01*
X170017922Y-89257078D01*
X169897342Y-89165639D01*
X169897341Y-89165638D01*
X169897339Y-89165637D01*
X169756565Y-89110123D01*
X169668106Y-89099500D01*
X169668102Y-89099500D01*
X168331898Y-89099500D01*
X168331893Y-89099500D01*
X168243434Y-89110123D01*
X168102660Y-89165637D01*
X168102656Y-89165640D01*
X167982081Y-89257075D01*
X167982075Y-89257081D01*
X167890640Y-89377656D01*
X167890637Y-89377660D01*
X167835123Y-89518434D01*
X167824500Y-89606893D01*
X164500500Y-89606893D01*
X164500500Y-87750000D01*
X167857095Y-87750000D01*
X168719670Y-87750000D01*
X168699925Y-87769745D01*
X168650556Y-87855255D01*
X168625000Y-87950630D01*
X168625000Y-88049370D01*
X168650556Y-88144745D01*
X168699925Y-88230255D01*
X168719670Y-88250000D01*
X167857096Y-88250000D01*
X167859586Y-88262523D01*
X167927430Y-88426310D01*
X168025923Y-88573715D01*
X168151284Y-88699076D01*
X168298691Y-88797570D01*
X168462479Y-88865413D01*
X168636355Y-88899999D01*
X168636359Y-88900000D01*
X168749999Y-88900000D01*
X168750000Y-88899999D01*
X168750000Y-88280330D01*
X168769745Y-88300075D01*
X168855255Y-88349444D01*
X168950630Y-88375000D01*
X169049370Y-88375000D01*
X169144745Y-88349444D01*
X169230255Y-88300075D01*
X169250000Y-88280330D01*
X169250000Y-88899999D01*
X169250001Y-88900000D01*
X169363641Y-88900000D01*
X169363644Y-88899999D01*
X169537519Y-88865413D01*
X169537521Y-88865413D01*
X169701308Y-88797570D01*
X169848715Y-88699076D01*
X169974076Y-88573715D01*
X170072569Y-88426310D01*
X170140413Y-88262523D01*
X170142904Y-88250000D01*
X169280330Y-88250000D01*
X169300075Y-88230255D01*
X169349444Y-88144745D01*
X169367987Y-88075543D01*
X178160800Y-88075543D01*
X178160800Y-88233657D01*
X178201723Y-88386384D01*
X178280780Y-88523316D01*
X178392584Y-88635120D01*
X178529516Y-88714177D01*
X178682243Y-88755100D01*
X178682245Y-88755100D01*
X178840355Y-88755100D01*
X178840357Y-88755100D01*
X178993084Y-88714177D01*
X179038523Y-88687943D01*
X188853600Y-88687943D01*
X188853600Y-88846057D01*
X188894523Y-88998784D01*
X188973580Y-89135716D01*
X189085384Y-89247520D01*
X189222316Y-89326577D01*
X189375043Y-89367500D01*
X189375045Y-89367500D01*
X189533155Y-89367500D01*
X189533157Y-89367500D01*
X189685884Y-89326577D01*
X189822816Y-89247520D01*
X189934620Y-89135716D01*
X190013677Y-88998784D01*
X190054600Y-88846057D01*
X190054600Y-88687943D01*
X190013677Y-88535216D01*
X189934620Y-88398284D01*
X189822816Y-88286480D01*
X189685884Y-88207423D01*
X189533157Y-88166500D01*
X189375043Y-88166500D01*
X189222316Y-88207423D01*
X189085384Y-88286480D01*
X188973580Y-88398284D01*
X188894523Y-88535216D01*
X188853600Y-88687943D01*
X179038523Y-88687943D01*
X179130016Y-88635120D01*
X179241820Y-88523316D01*
X179320877Y-88386384D01*
X179361800Y-88233657D01*
X179361800Y-88075543D01*
X179320877Y-87922816D01*
X179241820Y-87785884D01*
X179130016Y-87674080D01*
X178993084Y-87595023D01*
X178840357Y-87554100D01*
X178682243Y-87554100D01*
X178529516Y-87595023D01*
X178392584Y-87674080D01*
X178280780Y-87785884D01*
X178201723Y-87922816D01*
X178160800Y-88075543D01*
X169367987Y-88075543D01*
X169375000Y-88049370D01*
X169375000Y-87950630D01*
X169349444Y-87855255D01*
X169300075Y-87769745D01*
X169280330Y-87750000D01*
X170142904Y-87750000D01*
X170140413Y-87737476D01*
X170072569Y-87573689D01*
X169974076Y-87426284D01*
X169848715Y-87300923D01*
X169777097Y-87253069D01*
X169701307Y-87202428D01*
X169640504Y-87177243D01*
X188749300Y-87177243D01*
X188749300Y-87335357D01*
X188790223Y-87488084D01*
X188869280Y-87625016D01*
X188981084Y-87736820D01*
X189118016Y-87815877D01*
X189270743Y-87856800D01*
X189270745Y-87856800D01*
X189428855Y-87856800D01*
X189428857Y-87856800D01*
X189581584Y-87815877D01*
X189718516Y-87736820D01*
X189830320Y-87625016D01*
X189909377Y-87488084D01*
X189950300Y-87335357D01*
X189950300Y-87177243D01*
X189909377Y-87024516D01*
X189830320Y-86887584D01*
X189718516Y-86775780D01*
X189581584Y-86696723D01*
X189428857Y-86655800D01*
X189270743Y-86655800D01*
X189118016Y-86696723D01*
X188981084Y-86775780D01*
X188869280Y-86887584D01*
X188790223Y-87024516D01*
X188749300Y-87177243D01*
X169640504Y-87177243D01*
X169537520Y-87134586D01*
X169363644Y-87100000D01*
X169250001Y-87100000D01*
X169250000Y-87100001D01*
X169250000Y-87719670D01*
X169230255Y-87699925D01*
X169144745Y-87650556D01*
X169049370Y-87625000D01*
X168950630Y-87625000D01*
X168855255Y-87650556D01*
X168769745Y-87699925D01*
X168750000Y-87719670D01*
X168750000Y-87100001D01*
X168749999Y-87100000D01*
X168636355Y-87100000D01*
X168462480Y-87134586D01*
X168462478Y-87134586D01*
X168298691Y-87202429D01*
X168151284Y-87300923D01*
X168025923Y-87426284D01*
X167927430Y-87573689D01*
X167859586Y-87737476D01*
X167857095Y-87750000D01*
X164500500Y-87750000D01*
X164500500Y-84081843D01*
X180237000Y-84081843D01*
X180237000Y-84239957D01*
X180277923Y-84392684D01*
X180356980Y-84529616D01*
X180468784Y-84641420D01*
X180605716Y-84720477D01*
X180758443Y-84761400D01*
X180758445Y-84761400D01*
X180916555Y-84761400D01*
X180916557Y-84761400D01*
X181069284Y-84720477D01*
X181206216Y-84641420D01*
X181318020Y-84529616D01*
X181397077Y-84392684D01*
X181406547Y-84357343D01*
X192732700Y-84357343D01*
X192732700Y-84515457D01*
X192773623Y-84668184D01*
X192852680Y-84805116D01*
X192964484Y-84916920D01*
X193101416Y-84995977D01*
X193130727Y-85003830D01*
X193182041Y-85037154D01*
X193203968Y-85094275D01*
X193200731Y-85125078D01*
X193181100Y-85198343D01*
X193181100Y-85356457D01*
X193222023Y-85509184D01*
X193301080Y-85646116D01*
X193412884Y-85757920D01*
X193549816Y-85836977D01*
X193702543Y-85877900D01*
X193702545Y-85877900D01*
X193860655Y-85877900D01*
X193860657Y-85877900D01*
X194013384Y-85836977D01*
X194150316Y-85757920D01*
X194262120Y-85646116D01*
X194341177Y-85509184D01*
X194382100Y-85356457D01*
X194382100Y-85198343D01*
X194341177Y-85045616D01*
X194318272Y-85005943D01*
X198692000Y-85005943D01*
X198692000Y-85164057D01*
X198732923Y-85316784D01*
X198811980Y-85453716D01*
X198923784Y-85565520D01*
X199060716Y-85644577D01*
X199213443Y-85685500D01*
X199213445Y-85685500D01*
X199371555Y-85685500D01*
X199371557Y-85685500D01*
X199524284Y-85644577D01*
X199661216Y-85565520D01*
X199773020Y-85453716D01*
X199852077Y-85316784D01*
X199893000Y-85164057D01*
X199893000Y-85005943D01*
X199852077Y-84853216D01*
X199773020Y-84716284D01*
X199701037Y-84644301D01*
X199673262Y-84589787D01*
X199682833Y-84529355D01*
X199726098Y-84486090D01*
X199761609Y-84477564D01*
X199761423Y-84476147D01*
X199767854Y-84475300D01*
X199767857Y-84475300D01*
X199920584Y-84434377D01*
X200057516Y-84355320D01*
X200169320Y-84243516D01*
X200248377Y-84106584D01*
X200289300Y-83953857D01*
X200289300Y-83795743D01*
X200248377Y-83643016D01*
X200169320Y-83506084D01*
X200057516Y-83394280D01*
X199920584Y-83315223D01*
X199767857Y-83274300D01*
X199609743Y-83274300D01*
X199457016Y-83315223D01*
X199320084Y-83394280D01*
X199208280Y-83506084D01*
X199129223Y-83643016D01*
X199088300Y-83795743D01*
X199088300Y-83953857D01*
X199129223Y-84106584D01*
X199208280Y-84243516D01*
X199280262Y-84315498D01*
X199308038Y-84370013D01*
X199298467Y-84430445D01*
X199255202Y-84473710D01*
X199219690Y-84482235D01*
X199219877Y-84483653D01*
X199213445Y-84484499D01*
X199060716Y-84525423D01*
X198923784Y-84604480D01*
X198811980Y-84716284D01*
X198732923Y-84853216D01*
X198692000Y-85005943D01*
X194318272Y-85005943D01*
X194262120Y-84908684D01*
X194150316Y-84796880D01*
X194013384Y-84717823D01*
X194013381Y-84717822D01*
X193984071Y-84709968D01*
X193932758Y-84676643D01*
X193910832Y-84619522D01*
X193914068Y-84588722D01*
X193933700Y-84515457D01*
X193933700Y-84357343D01*
X193892777Y-84204616D01*
X193813720Y-84067684D01*
X193701916Y-83955880D01*
X193564984Y-83876823D01*
X193412257Y-83835900D01*
X193254143Y-83835900D01*
X193101416Y-83876823D01*
X192964484Y-83955880D01*
X192852680Y-84067684D01*
X192773623Y-84204616D01*
X192732700Y-84357343D01*
X181406547Y-84357343D01*
X181438000Y-84239957D01*
X181438000Y-84081843D01*
X181397077Y-83929116D01*
X181318020Y-83792184D01*
X181206216Y-83680380D01*
X181069284Y-83601323D01*
X180916557Y-83560400D01*
X180758443Y-83560400D01*
X180605716Y-83601323D01*
X180468784Y-83680380D01*
X180356980Y-83792184D01*
X180277923Y-83929116D01*
X180237000Y-84081843D01*
X164500500Y-84081843D01*
X164500500Y-81909450D01*
X176849500Y-81909450D01*
X176849500Y-82090549D01*
X176877828Y-82269406D01*
X176877829Y-82269409D01*
X176933789Y-82441639D01*
X177016004Y-82602994D01*
X177122447Y-82749501D01*
X177250499Y-82877553D01*
X177397006Y-82983996D01*
X177558361Y-83066211D01*
X177730591Y-83122171D01*
X177802136Y-83133502D01*
X177909451Y-83150500D01*
X177909454Y-83150500D01*
X178090549Y-83150500D01*
X178179977Y-83136335D01*
X178269409Y-83122171D01*
X178441639Y-83066211D01*
X178602994Y-82983996D01*
X178749501Y-82877553D01*
X178877553Y-82749501D01*
X178983996Y-82602994D01*
X179066211Y-82441639D01*
X179122171Y-82269409D01*
X179150500Y-82090546D01*
X179150500Y-81909454D01*
X179150500Y-81909450D01*
X179122171Y-81730593D01*
X179122171Y-81730591D01*
X179066211Y-81558361D01*
X179042152Y-81511143D01*
X206703300Y-81511143D01*
X206703300Y-81669257D01*
X206744223Y-81821984D01*
X206823280Y-81958916D01*
X206935084Y-82070720D01*
X207072016Y-82149777D01*
X207224743Y-82190700D01*
X207224745Y-82190700D01*
X207382855Y-82190700D01*
X207382857Y-82190700D01*
X207535584Y-82149777D01*
X207672516Y-82070720D01*
X207784320Y-81958916D01*
X207863377Y-81821984D01*
X207904300Y-81669257D01*
X207904300Y-81511143D01*
X207863377Y-81358416D01*
X207784320Y-81221484D01*
X207672516Y-81109680D01*
X207535584Y-81030623D01*
X207382857Y-80989700D01*
X207224743Y-80989700D01*
X207072016Y-81030623D01*
X206935084Y-81109680D01*
X206823280Y-81221484D01*
X206744223Y-81358416D01*
X206703300Y-81511143D01*
X179042152Y-81511143D01*
X178983996Y-81397006D01*
X178877553Y-81250499D01*
X178749501Y-81122447D01*
X178602994Y-81016004D01*
X178602993Y-81016003D01*
X178602991Y-81016002D01*
X178441637Y-80933788D01*
X178269406Y-80877828D01*
X178090549Y-80849500D01*
X178090546Y-80849500D01*
X177909454Y-80849500D01*
X177909451Y-80849500D01*
X177730593Y-80877828D01*
X177558362Y-80933788D01*
X177397008Y-81016002D01*
X177323752Y-81069225D01*
X177250499Y-81122447D01*
X177122447Y-81250499D01*
X177069225Y-81323752D01*
X177016002Y-81397008D01*
X176933788Y-81558362D01*
X176877828Y-81730593D01*
X176849500Y-81909450D01*
X164500500Y-81909450D01*
X164500500Y-80106935D01*
X167825000Y-80106935D01*
X167825000Y-80249999D01*
X167825001Y-80250000D01*
X168719670Y-80250000D01*
X168699925Y-80269745D01*
X168650556Y-80355255D01*
X168625000Y-80450630D01*
X168625000Y-80549370D01*
X168650556Y-80644745D01*
X168699925Y-80730255D01*
X168719670Y-80750000D01*
X167825001Y-80750000D01*
X167825000Y-80750001D01*
X167825000Y-80893064D01*
X167835613Y-80981443D01*
X167891080Y-81122095D01*
X167982435Y-81242564D01*
X168102904Y-81333919D01*
X168243556Y-81389386D01*
X168331935Y-81399999D01*
X168331942Y-81400000D01*
X168749999Y-81400000D01*
X168750000Y-81399999D01*
X168750000Y-80780330D01*
X168769745Y-80800075D01*
X168855255Y-80849444D01*
X168950630Y-80875000D01*
X169049370Y-80875000D01*
X169144745Y-80849444D01*
X169230255Y-80800075D01*
X169250000Y-80780330D01*
X169250000Y-81399999D01*
X169250001Y-81400000D01*
X169668058Y-81400000D01*
X169668064Y-81399999D01*
X169756443Y-81389386D01*
X169897095Y-81333919D01*
X170017564Y-81242564D01*
X170108919Y-81122095D01*
X170164386Y-80981443D01*
X170174999Y-80893064D01*
X170175000Y-80893058D01*
X170175000Y-80750001D01*
X170174999Y-80750000D01*
X169280330Y-80750000D01*
X169300075Y-80730255D01*
X169349444Y-80644745D01*
X169375000Y-80549370D01*
X169375000Y-80450630D01*
X169349444Y-80355255D01*
X169300075Y-80269745D01*
X169280330Y-80250000D01*
X170174999Y-80250000D01*
X170175000Y-80249999D01*
X170175000Y-80106941D01*
X170174999Y-80106935D01*
X170164386Y-80018556D01*
X170108919Y-79877904D01*
X170017564Y-79757435D01*
X169897095Y-79666080D01*
X169756443Y-79610613D01*
X169668064Y-79600000D01*
X169250001Y-79600000D01*
X169250000Y-79600001D01*
X169250000Y-80219670D01*
X169230255Y-80199925D01*
X169144745Y-80150556D01*
X169049370Y-80125000D01*
X168950630Y-80125000D01*
X168855255Y-80150556D01*
X168769745Y-80199925D01*
X168750000Y-80219670D01*
X168750000Y-79600001D01*
X168749999Y-79600000D01*
X168331935Y-79600000D01*
X168243556Y-79610613D01*
X168102904Y-79666080D01*
X167982435Y-79757435D01*
X167891080Y-79877904D01*
X167835613Y-80018556D01*
X167825000Y-80106935D01*
X164500500Y-80106935D01*
X164500500Y-79409489D01*
X176850000Y-79409489D01*
X176850000Y-79590510D01*
X176878316Y-79769289D01*
X176934250Y-79941440D01*
X177016432Y-80102730D01*
X177027911Y-80118531D01*
X177517036Y-79629406D01*
X177534075Y-79692993D01*
X177599901Y-79807007D01*
X177692993Y-79900099D01*
X177807007Y-79965925D01*
X177870591Y-79982962D01*
X177381466Y-80472087D01*
X177397266Y-80483566D01*
X177558559Y-80565749D01*
X177730710Y-80621683D01*
X177909490Y-80650000D01*
X178090510Y-80650000D01*
X178269289Y-80621683D01*
X178441440Y-80565749D01*
X178602730Y-80483568D01*
X178602735Y-80483564D01*
X178618532Y-80472087D01*
X178618532Y-80472086D01*
X178129408Y-79982962D01*
X178192993Y-79965925D01*
X178307007Y-79900099D01*
X178400099Y-79807007D01*
X178465925Y-79692993D01*
X178482962Y-79629408D01*
X178972086Y-80118532D01*
X178972087Y-80118532D01*
X178983564Y-80102735D01*
X178983568Y-80102730D01*
X179065749Y-79941440D01*
X179121683Y-79769289D01*
X179150000Y-79590510D01*
X179150000Y-79409489D01*
X179121683Y-79230710D01*
X179065749Y-79058559D01*
X178983566Y-78897266D01*
X178972087Y-78881466D01*
X178482962Y-79370591D01*
X178465925Y-79307007D01*
X178400099Y-79192993D01*
X178307007Y-79099901D01*
X178192993Y-79034075D01*
X178129406Y-79017036D01*
X178546100Y-78600343D01*
X186118800Y-78600343D01*
X186118800Y-78758457D01*
X186159723Y-78911184D01*
X186238780Y-79048116D01*
X186350584Y-79159920D01*
X186487516Y-79238977D01*
X186640243Y-79279900D01*
X186640245Y-79279900D01*
X186789800Y-79279900D01*
X186847991Y-79298807D01*
X186883955Y-79348307D01*
X186888800Y-79378900D01*
X186888800Y-79501257D01*
X186929723Y-79653984D01*
X187008780Y-79790916D01*
X187120584Y-79902720D01*
X187257516Y-79981777D01*
X187410243Y-80022700D01*
X187410245Y-80022700D01*
X187568355Y-80022700D01*
X187568357Y-80022700D01*
X187721084Y-79981777D01*
X187858016Y-79902720D01*
X187969820Y-79790916D01*
X188048877Y-79653984D01*
X188089800Y-79501257D01*
X188089800Y-79343143D01*
X188048877Y-79190416D01*
X187969820Y-79053484D01*
X187858016Y-78941680D01*
X187721084Y-78862623D01*
X187568357Y-78821700D01*
X187418800Y-78821700D01*
X187360609Y-78802793D01*
X187324645Y-78753293D01*
X187319800Y-78722700D01*
X187319800Y-78600344D01*
X187316677Y-78588689D01*
X187278877Y-78447616D01*
X187199820Y-78310684D01*
X187088016Y-78198880D01*
X186951084Y-78119823D01*
X186798357Y-78078900D01*
X186640243Y-78078900D01*
X186487516Y-78119823D01*
X186350584Y-78198880D01*
X186238780Y-78310684D01*
X186159723Y-78447616D01*
X186118800Y-78600343D01*
X178546100Y-78600343D01*
X178618532Y-78527911D01*
X178602730Y-78516432D01*
X178441440Y-78434250D01*
X178269289Y-78378316D01*
X178090510Y-78350000D01*
X177909490Y-78350000D01*
X177730710Y-78378316D01*
X177558559Y-78434250D01*
X177397264Y-78516434D01*
X177381466Y-78527911D01*
X177870592Y-79017037D01*
X177807007Y-79034075D01*
X177692993Y-79099901D01*
X177599901Y-79192993D01*
X177534075Y-79307007D01*
X177517037Y-79370592D01*
X177027911Y-78881466D01*
X177016434Y-78897264D01*
X176934250Y-79058559D01*
X176878316Y-79230710D01*
X176850000Y-79409489D01*
X164500500Y-79409489D01*
X164500500Y-78411306D01*
X167824500Y-78411306D01*
X167824500Y-78588693D01*
X167826818Y-78600344D01*
X167858268Y-78758455D01*
X167859106Y-78762665D01*
X167859106Y-78762667D01*
X167926985Y-78926544D01*
X167926985Y-78926545D01*
X168008217Y-79048116D01*
X168025536Y-79074035D01*
X168150965Y-79199464D01*
X168298453Y-79298013D01*
X168298454Y-79298013D01*
X168298455Y-79298014D01*
X168335581Y-79313391D01*
X168462334Y-79365894D01*
X168636309Y-79400500D01*
X168636310Y-79400500D01*
X169363690Y-79400500D01*
X169363691Y-79400500D01*
X169537666Y-79365894D01*
X169610016Y-79335925D01*
X169662616Y-79314139D01*
X169699630Y-79298807D01*
X169701547Y-79298013D01*
X169849035Y-79199464D01*
X169974464Y-79074035D01*
X170073013Y-78926547D01*
X170140894Y-78762666D01*
X170175500Y-78588691D01*
X170175500Y-78411309D01*
X170140894Y-78237334D01*
X170104927Y-78150500D01*
X170073014Y-78073455D01*
X170073014Y-78073454D01*
X169974464Y-77925965D01*
X169849034Y-77800535D01*
X169701544Y-77701985D01*
X169537666Y-77634106D01*
X169363693Y-77599500D01*
X169363691Y-77599500D01*
X168636309Y-77599500D01*
X168636306Y-77599500D01*
X168462334Y-77634106D01*
X168462332Y-77634106D01*
X168298455Y-77701985D01*
X168298454Y-77701985D01*
X168150965Y-77800535D01*
X168025535Y-77925965D01*
X167926985Y-78073454D01*
X167926985Y-78073455D01*
X167859106Y-78237332D01*
X167859106Y-78237334D01*
X167824500Y-78411306D01*
X164500500Y-78411306D01*
X164500500Y-76411306D01*
X167824500Y-76411306D01*
X167824500Y-76588693D01*
X167859106Y-76762665D01*
X167859106Y-76762667D01*
X167926985Y-76926544D01*
X167926985Y-76926545D01*
X168025535Y-77074034D01*
X168025536Y-77074035D01*
X168150965Y-77199464D01*
X168298453Y-77298013D01*
X168462334Y-77365894D01*
X168636309Y-77400500D01*
X168636310Y-77400500D01*
X169363690Y-77400500D01*
X169363691Y-77400500D01*
X169537666Y-77365894D01*
X169701547Y-77298013D01*
X169849035Y-77199464D01*
X169974464Y-77074035D01*
X170073013Y-76926547D01*
X170080095Y-76909450D01*
X176849500Y-76909450D01*
X176849500Y-77090549D01*
X176877828Y-77269406D01*
X176933788Y-77441637D01*
X177014223Y-77599500D01*
X177016004Y-77602994D01*
X177122447Y-77749501D01*
X177250499Y-77877553D01*
X177397006Y-77983996D01*
X177558361Y-78066211D01*
X177730591Y-78122171D01*
X177802136Y-78133502D01*
X177909451Y-78150500D01*
X177909454Y-78150500D01*
X178090549Y-78150500D01*
X178179977Y-78136335D01*
X178269409Y-78122171D01*
X178441639Y-78066211D01*
X178602994Y-77983996D01*
X178749501Y-77877553D01*
X178877553Y-77749501D01*
X178983996Y-77602994D01*
X179066211Y-77441639D01*
X179122171Y-77269409D01*
X179150500Y-77090546D01*
X179150500Y-76909454D01*
X179150500Y-76909450D01*
X179122171Y-76730593D01*
X179122171Y-76730591D01*
X179066211Y-76558361D01*
X178983996Y-76397006D01*
X178877553Y-76250499D01*
X178749501Y-76122447D01*
X178602994Y-76016004D01*
X178602993Y-76016003D01*
X178602991Y-76016002D01*
X178441637Y-75933788D01*
X178269406Y-75877828D01*
X178090549Y-75849500D01*
X178090546Y-75849500D01*
X177909454Y-75849500D01*
X177909451Y-75849500D01*
X177730593Y-75877828D01*
X177558362Y-75933788D01*
X177397008Y-76016002D01*
X177323752Y-76069225D01*
X177250499Y-76122447D01*
X177122447Y-76250499D01*
X177069225Y-76323752D01*
X177016002Y-76397008D01*
X176933788Y-76558362D01*
X176877828Y-76730593D01*
X176849500Y-76909450D01*
X170080095Y-76909450D01*
X170140894Y-76762666D01*
X170175500Y-76588691D01*
X170175500Y-76411309D01*
X170140894Y-76237334D01*
X170073014Y-76073455D01*
X170073014Y-76073454D01*
X169974464Y-75925965D01*
X169849034Y-75800535D01*
X169701544Y-75701985D01*
X169537666Y-75634106D01*
X169363693Y-75599500D01*
X169363691Y-75599500D01*
X168636309Y-75599500D01*
X168636306Y-75599500D01*
X168462334Y-75634106D01*
X168462332Y-75634106D01*
X168298455Y-75701985D01*
X168298454Y-75701985D01*
X168150965Y-75800535D01*
X168025535Y-75925965D01*
X167926985Y-76073454D01*
X167926985Y-76073455D01*
X167859106Y-76237332D01*
X167859106Y-76237334D01*
X167824500Y-76411306D01*
X164500500Y-76411306D01*
X164500500Y-74411306D01*
X167824500Y-74411306D01*
X167824500Y-74588693D01*
X167859106Y-74762665D01*
X167859106Y-74762667D01*
X167926985Y-74926544D01*
X167926985Y-74926545D01*
X168025535Y-75074034D01*
X168025536Y-75074035D01*
X168150965Y-75199464D01*
X168298453Y-75298013D01*
X168462334Y-75365894D01*
X168636309Y-75400500D01*
X168636310Y-75400500D01*
X169363690Y-75400500D01*
X169363691Y-75400500D01*
X169537666Y-75365894D01*
X169701547Y-75298013D01*
X169849035Y-75199464D01*
X169974464Y-75074035D01*
X170073013Y-74926547D01*
X170140894Y-74762666D01*
X170175500Y-74588691D01*
X170175500Y-74411309D01*
X170140894Y-74237334D01*
X170073014Y-74073455D01*
X170073014Y-74073454D01*
X169974464Y-73925965D01*
X169849034Y-73800535D01*
X169701544Y-73701985D01*
X169537666Y-73634106D01*
X169363693Y-73599500D01*
X169363691Y-73599500D01*
X168636309Y-73599500D01*
X168636306Y-73599500D01*
X168462334Y-73634106D01*
X168462332Y-73634106D01*
X168298455Y-73701985D01*
X168298454Y-73701985D01*
X168150965Y-73800535D01*
X168025535Y-73925965D01*
X167926985Y-74073454D01*
X167926985Y-74073455D01*
X167859106Y-74237332D01*
X167859106Y-74237334D01*
X167824500Y-74411306D01*
X164500500Y-74411306D01*
X164500500Y-73934109D01*
X164498318Y-73925965D01*
X164466392Y-73806814D01*
X164466390Y-73806811D01*
X164466390Y-73806809D01*
X164400503Y-73692690D01*
X164400501Y-73692688D01*
X164400500Y-73692686D01*
X164307314Y-73599500D01*
X164307311Y-73599498D01*
X164307309Y-73599496D01*
X164193189Y-73533609D01*
X164193191Y-73533609D01*
X164143799Y-73520375D01*
X164065892Y-73499500D01*
X164065890Y-73499500D01*
X100599500Y-73499500D01*
X100541309Y-73480593D01*
X100505345Y-73431093D01*
X100500500Y-73400500D01*
X100500500Y-70989450D01*
X196849500Y-70989450D01*
X196849500Y-71170549D01*
X196877828Y-71349406D01*
X196933788Y-71521637D01*
X196963525Y-71580000D01*
X197016004Y-71682994D01*
X197122447Y-71829501D01*
X197250499Y-71957553D01*
X197397006Y-72063996D01*
X197558361Y-72146211D01*
X197730591Y-72202171D01*
X197802136Y-72213502D01*
X197909451Y-72230500D01*
X197909454Y-72230500D01*
X198090549Y-72230500D01*
X198179977Y-72216335D01*
X198269409Y-72202171D01*
X198441639Y-72146211D01*
X198602994Y-72063996D01*
X198749501Y-71957553D01*
X198877553Y-71829501D01*
X198983996Y-71682994D01*
X199066211Y-71521639D01*
X199122171Y-71349409D01*
X199150500Y-71170546D01*
X199150500Y-70989489D01*
X199390000Y-70989489D01*
X199390000Y-71170510D01*
X199418316Y-71349289D01*
X199474250Y-71521440D01*
X199556432Y-71682730D01*
X199567911Y-71698531D01*
X200057036Y-71209406D01*
X200074075Y-71272993D01*
X200139901Y-71387007D01*
X200232993Y-71480099D01*
X200347007Y-71545925D01*
X200410591Y-71562962D01*
X199921466Y-72052087D01*
X199937266Y-72063566D01*
X200098559Y-72145749D01*
X200270710Y-72201683D01*
X200449490Y-72230000D01*
X200630510Y-72230000D01*
X200809289Y-72201683D01*
X200981440Y-72145749D01*
X201142730Y-72063568D01*
X201142735Y-72063564D01*
X201158532Y-72052087D01*
X201158532Y-72052086D01*
X200669408Y-71562962D01*
X200732993Y-71545925D01*
X200847007Y-71480099D01*
X200940099Y-71387007D01*
X201005925Y-71272993D01*
X201022962Y-71209408D01*
X201512086Y-71698532D01*
X201512087Y-71698532D01*
X201523564Y-71682735D01*
X201523568Y-71682730D01*
X201605749Y-71521440D01*
X201661683Y-71349289D01*
X201690000Y-71170510D01*
X201690000Y-70989489D01*
X201661683Y-70810710D01*
X201605749Y-70638559D01*
X201523566Y-70477266D01*
X201512087Y-70461466D01*
X201022962Y-70950591D01*
X201005925Y-70887007D01*
X200940099Y-70772993D01*
X200847007Y-70679901D01*
X200732993Y-70614075D01*
X200669406Y-70597036D01*
X201158532Y-70107911D01*
X201142730Y-70096432D01*
X200981440Y-70014250D01*
X200809289Y-69958316D01*
X200630510Y-69930000D01*
X200449490Y-69930000D01*
X200270710Y-69958316D01*
X200098559Y-70014250D01*
X199937264Y-70096434D01*
X199921466Y-70107911D01*
X200410592Y-70597037D01*
X200347007Y-70614075D01*
X200232993Y-70679901D01*
X200139901Y-70772993D01*
X200074075Y-70887007D01*
X200057037Y-70950592D01*
X199567911Y-70461466D01*
X199556434Y-70477264D01*
X199474250Y-70638559D01*
X199418316Y-70810710D01*
X199390000Y-70989489D01*
X199150500Y-70989489D01*
X199150500Y-70989454D01*
X199150500Y-70989450D01*
X199122171Y-70810593D01*
X199122171Y-70810591D01*
X199066211Y-70638361D01*
X198983996Y-70477006D01*
X198877553Y-70330499D01*
X198749501Y-70202447D01*
X198602994Y-70096004D01*
X198602993Y-70096003D01*
X198602991Y-70096002D01*
X198441637Y-70013788D01*
X198269406Y-69957828D01*
X198090549Y-69929500D01*
X198090546Y-69929500D01*
X197909454Y-69929500D01*
X197909451Y-69929500D01*
X197730593Y-69957828D01*
X197558362Y-70013788D01*
X197397008Y-70096002D01*
X197380617Y-70107911D01*
X197250499Y-70202447D01*
X197122447Y-70330499D01*
X197069225Y-70403752D01*
X197016002Y-70477008D01*
X196933788Y-70638362D01*
X196877828Y-70810593D01*
X196849500Y-70989450D01*
X100500500Y-70989450D01*
X100500500Y-69846143D01*
X121808800Y-69846143D01*
X121808800Y-70004257D01*
X121849723Y-70156984D01*
X121928780Y-70293916D01*
X122040584Y-70405720D01*
X122177516Y-70484777D01*
X122330243Y-70525700D01*
X122330245Y-70525700D01*
X122488355Y-70525700D01*
X122488357Y-70525700D01*
X122641084Y-70484777D01*
X122778016Y-70405720D01*
X122889820Y-70293916D01*
X122968877Y-70156984D01*
X123009800Y-70004257D01*
X123009800Y-69846143D01*
X122968877Y-69693416D01*
X122889820Y-69556484D01*
X122778016Y-69444680D01*
X122641084Y-69365623D01*
X122488357Y-69324700D01*
X122330243Y-69324700D01*
X122177516Y-69365623D01*
X122040584Y-69444680D01*
X121928780Y-69556484D01*
X121849723Y-69693416D01*
X121808800Y-69846143D01*
X100500500Y-69846143D01*
X100500500Y-69310343D01*
X165974900Y-69310343D01*
X165974900Y-69468457D01*
X166015823Y-69621184D01*
X166094880Y-69758116D01*
X166206684Y-69869920D01*
X166343616Y-69948977D01*
X166496343Y-69989900D01*
X166496345Y-69989900D01*
X166654455Y-69989900D01*
X166654457Y-69989900D01*
X166807184Y-69948977D01*
X166944116Y-69869920D01*
X167055920Y-69758116D01*
X167134977Y-69621184D01*
X167175900Y-69468457D01*
X167175900Y-69310343D01*
X167134977Y-69157616D01*
X167055920Y-69020684D01*
X166944116Y-68908880D01*
X166807184Y-68829823D01*
X166654457Y-68788900D01*
X166496343Y-68788900D01*
X166343616Y-68829823D01*
X166206684Y-68908880D01*
X166094880Y-69020684D01*
X166015823Y-69157616D01*
X165974900Y-69310343D01*
X100500500Y-69310343D01*
X100500500Y-67219450D01*
X107219500Y-67219450D01*
X107219500Y-67400549D01*
X107247828Y-67579406D01*
X107303788Y-67751637D01*
X107333525Y-67810000D01*
X107386004Y-67912994D01*
X107492447Y-68059501D01*
X107620499Y-68187553D01*
X107767006Y-68293996D01*
X107928361Y-68376211D01*
X108100591Y-68432171D01*
X108172136Y-68443502D01*
X108279451Y-68460500D01*
X108279454Y-68460500D01*
X108460549Y-68460500D01*
X108549977Y-68446335D01*
X108639409Y-68432171D01*
X108811639Y-68376211D01*
X108972994Y-68293996D01*
X109119501Y-68187553D01*
X109247553Y-68059501D01*
X109353996Y-67912994D01*
X109436211Y-67751639D01*
X109492171Y-67579409D01*
X109506335Y-67489977D01*
X109520500Y-67400549D01*
X109520500Y-67219450D01*
X109759500Y-67219450D01*
X109759500Y-67400549D01*
X109787828Y-67579406D01*
X109843788Y-67751637D01*
X109873525Y-67810000D01*
X109926004Y-67912994D01*
X110032447Y-68059501D01*
X110160499Y-68187553D01*
X110307006Y-68293996D01*
X110468361Y-68376211D01*
X110640591Y-68432171D01*
X110712136Y-68443502D01*
X110819451Y-68460500D01*
X110819454Y-68460500D01*
X111000549Y-68460500D01*
X111089977Y-68446335D01*
X111179409Y-68432171D01*
X111351639Y-68376211D01*
X111512994Y-68293996D01*
X111659501Y-68187553D01*
X111787553Y-68059501D01*
X111893996Y-67912994D01*
X111976211Y-67751639D01*
X112032171Y-67579409D01*
X112046335Y-67489977D01*
X112060500Y-67400549D01*
X112060500Y-67219489D01*
X112300000Y-67219489D01*
X112300000Y-67400510D01*
X112328316Y-67579289D01*
X112384250Y-67751440D01*
X112466432Y-67912730D01*
X112477911Y-67928531D01*
X112967036Y-67439406D01*
X112984075Y-67502993D01*
X113049901Y-67617007D01*
X113142993Y-67710099D01*
X113257007Y-67775925D01*
X113320591Y-67792962D01*
X112831466Y-68282087D01*
X112847266Y-68293566D01*
X113008559Y-68375749D01*
X113180710Y-68431683D01*
X113359490Y-68460000D01*
X113540510Y-68460000D01*
X113719289Y-68431683D01*
X113891440Y-68375749D01*
X114052730Y-68293568D01*
X114052735Y-68293564D01*
X114068532Y-68282087D01*
X114068532Y-68282086D01*
X113579408Y-67792962D01*
X113642993Y-67775925D01*
X113757007Y-67710099D01*
X113850099Y-67617007D01*
X113915925Y-67502993D01*
X113932962Y-67439408D01*
X114422086Y-67928532D01*
X114422087Y-67928532D01*
X114433564Y-67912735D01*
X114433568Y-67912730D01*
X114515749Y-67751440D01*
X114571683Y-67579289D01*
X114600000Y-67400510D01*
X114600000Y-67219489D01*
X114599994Y-67219450D01*
X114839500Y-67219450D01*
X114839500Y-67400549D01*
X114867828Y-67579406D01*
X114923788Y-67751637D01*
X114953525Y-67810000D01*
X115006004Y-67912994D01*
X115112447Y-68059501D01*
X115240499Y-68187553D01*
X115387006Y-68293996D01*
X115548361Y-68376211D01*
X115720591Y-68432171D01*
X115792136Y-68443502D01*
X115899451Y-68460500D01*
X115899454Y-68460500D01*
X116080549Y-68460500D01*
X116169977Y-68446335D01*
X116259409Y-68432171D01*
X116431639Y-68376211D01*
X116592994Y-68293996D01*
X116739501Y-68187553D01*
X116867553Y-68059501D01*
X116973996Y-67912994D01*
X117056211Y-67751639D01*
X117112171Y-67579409D01*
X117126335Y-67489977D01*
X117140500Y-67400549D01*
X117140500Y-67219450D01*
X117379500Y-67219450D01*
X117379500Y-67400549D01*
X117407828Y-67579406D01*
X117463788Y-67751637D01*
X117493525Y-67810000D01*
X117546004Y-67912994D01*
X117652447Y-68059501D01*
X117780499Y-68187553D01*
X117927006Y-68293996D01*
X118088361Y-68376211D01*
X118260591Y-68432171D01*
X118332136Y-68443502D01*
X118439451Y-68460500D01*
X118439454Y-68460500D01*
X118620549Y-68460500D01*
X118709977Y-68446335D01*
X118799409Y-68432171D01*
X118971639Y-68376211D01*
X119132994Y-68293996D01*
X119279501Y-68187553D01*
X119407553Y-68059501D01*
X119513996Y-67912994D01*
X119596211Y-67751639D01*
X119652171Y-67579409D01*
X119666335Y-67489977D01*
X119680500Y-67400549D01*
X119680500Y-67219450D01*
X119919500Y-67219450D01*
X119919500Y-67400549D01*
X119947828Y-67579406D01*
X120003788Y-67751637D01*
X120033525Y-67810000D01*
X120086004Y-67912994D01*
X120192447Y-68059501D01*
X120320499Y-68187553D01*
X120467006Y-68293996D01*
X120628361Y-68376211D01*
X120800591Y-68432171D01*
X120872136Y-68443502D01*
X120979451Y-68460500D01*
X120979454Y-68460500D01*
X121160549Y-68460500D01*
X121249977Y-68446335D01*
X121339409Y-68432171D01*
X121511639Y-68376211D01*
X121672994Y-68293996D01*
X121819501Y-68187553D01*
X121947553Y-68059501D01*
X122053996Y-67912994D01*
X122136211Y-67751639D01*
X122192171Y-67579409D01*
X122206335Y-67489977D01*
X122220500Y-67400549D01*
X122220500Y-67219489D01*
X122460000Y-67219489D01*
X122460000Y-67400510D01*
X122488316Y-67579289D01*
X122544250Y-67751440D01*
X122626432Y-67912730D01*
X122637911Y-67928531D01*
X123127036Y-67439406D01*
X123144075Y-67502993D01*
X123209901Y-67617007D01*
X123302993Y-67710099D01*
X123417007Y-67775925D01*
X123480591Y-67792962D01*
X122991466Y-68282087D01*
X123007266Y-68293566D01*
X123168559Y-68375749D01*
X123340710Y-68431683D01*
X123519490Y-68460000D01*
X123700510Y-68460000D01*
X123879289Y-68431683D01*
X124051440Y-68375749D01*
X124212730Y-68293568D01*
X124212735Y-68293564D01*
X124228532Y-68282087D01*
X124228532Y-68282086D01*
X123739408Y-67792962D01*
X123802993Y-67775925D01*
X123917007Y-67710099D01*
X124010099Y-67617007D01*
X124075925Y-67502993D01*
X124092962Y-67439408D01*
X124582086Y-67928532D01*
X124582087Y-67928532D01*
X124593564Y-67912735D01*
X124593568Y-67912730D01*
X124675749Y-67751440D01*
X124731683Y-67579289D01*
X124760000Y-67400510D01*
X124760000Y-67219489D01*
X124759994Y-67219450D01*
X124999500Y-67219450D01*
X124999500Y-67400549D01*
X125027828Y-67579406D01*
X125083788Y-67751637D01*
X125113525Y-67810000D01*
X125166004Y-67912994D01*
X125272447Y-68059501D01*
X125400499Y-68187553D01*
X125547006Y-68293996D01*
X125708361Y-68376211D01*
X125880591Y-68432171D01*
X125952136Y-68443502D01*
X126059451Y-68460500D01*
X126059454Y-68460500D01*
X126240549Y-68460500D01*
X126329977Y-68446335D01*
X126419409Y-68432171D01*
X126591639Y-68376211D01*
X126752994Y-68293996D01*
X126899501Y-68187553D01*
X127027553Y-68059501D01*
X127133996Y-67912994D01*
X127216211Y-67751639D01*
X127272171Y-67579409D01*
X127286335Y-67489977D01*
X127300500Y-67400549D01*
X127300500Y-67219450D01*
X127539500Y-67219450D01*
X127539500Y-67400549D01*
X127567828Y-67579406D01*
X127623788Y-67751637D01*
X127653525Y-67810000D01*
X127706004Y-67912994D01*
X127812447Y-68059501D01*
X127940499Y-68187553D01*
X128087006Y-68293996D01*
X128248361Y-68376211D01*
X128420591Y-68432171D01*
X128492136Y-68443502D01*
X128599451Y-68460500D01*
X128599454Y-68460500D01*
X128780549Y-68460500D01*
X128869977Y-68446335D01*
X128959409Y-68432171D01*
X129131639Y-68376211D01*
X129292994Y-68293996D01*
X129439501Y-68187553D01*
X129567553Y-68059501D01*
X129673996Y-67912994D01*
X129756211Y-67751639D01*
X129812171Y-67579409D01*
X129826335Y-67489977D01*
X129840500Y-67400549D01*
X129840500Y-67219489D01*
X130080000Y-67219489D01*
X130080000Y-67400510D01*
X130108316Y-67579289D01*
X130164250Y-67751440D01*
X130246432Y-67912730D01*
X130257911Y-67928531D01*
X130747036Y-67439406D01*
X130764075Y-67502993D01*
X130829901Y-67617007D01*
X130922993Y-67710099D01*
X131037007Y-67775925D01*
X131100591Y-67792962D01*
X130611466Y-68282087D01*
X130627266Y-68293566D01*
X130788559Y-68375749D01*
X130960710Y-68431683D01*
X131139490Y-68460000D01*
X131320510Y-68460000D01*
X131499289Y-68431683D01*
X131671440Y-68375749D01*
X131832730Y-68293568D01*
X131832735Y-68293564D01*
X131848532Y-68282087D01*
X131848532Y-68282086D01*
X131359408Y-67792962D01*
X131422993Y-67775925D01*
X131537007Y-67710099D01*
X131630099Y-67617007D01*
X131695925Y-67502993D01*
X131712962Y-67439408D01*
X132202086Y-67928532D01*
X132202087Y-67928532D01*
X132213564Y-67912735D01*
X132213568Y-67912730D01*
X132295749Y-67751440D01*
X132351683Y-67579289D01*
X132380000Y-67400510D01*
X132380000Y-67219489D01*
X132379994Y-67219450D01*
X132619500Y-67219450D01*
X132619500Y-67400549D01*
X132647828Y-67579406D01*
X132703788Y-67751637D01*
X132733525Y-67810000D01*
X132786004Y-67912994D01*
X132892447Y-68059501D01*
X133020499Y-68187553D01*
X133167006Y-68293996D01*
X133328361Y-68376211D01*
X133500591Y-68432171D01*
X133572136Y-68443502D01*
X133679451Y-68460500D01*
X133679454Y-68460500D01*
X133860549Y-68460500D01*
X133949977Y-68446335D01*
X134039409Y-68432171D01*
X134211639Y-68376211D01*
X134372994Y-68293996D01*
X134519501Y-68187553D01*
X134647553Y-68059501D01*
X134753996Y-67912994D01*
X134836211Y-67751639D01*
X134892171Y-67579409D01*
X134906335Y-67489977D01*
X134920500Y-67400549D01*
X134920500Y-67219450D01*
X135159500Y-67219450D01*
X135159500Y-67400549D01*
X135187828Y-67579406D01*
X135243788Y-67751637D01*
X135273525Y-67810000D01*
X135326004Y-67912994D01*
X135432447Y-68059501D01*
X135560499Y-68187553D01*
X135707006Y-68293996D01*
X135868361Y-68376211D01*
X136040591Y-68432171D01*
X136112136Y-68443502D01*
X136219451Y-68460500D01*
X136219454Y-68460500D01*
X136400549Y-68460500D01*
X136489977Y-68446335D01*
X136579409Y-68432171D01*
X136751639Y-68376211D01*
X136912994Y-68293996D01*
X137059501Y-68187553D01*
X137187553Y-68059501D01*
X137293996Y-67912994D01*
X137376211Y-67751639D01*
X137432171Y-67579409D01*
X137446335Y-67489977D01*
X137460500Y-67400549D01*
X137460500Y-67219450D01*
X137699500Y-67219450D01*
X137699500Y-67400549D01*
X137727828Y-67579406D01*
X137783788Y-67751637D01*
X137813525Y-67810000D01*
X137866004Y-67912994D01*
X137972447Y-68059501D01*
X138100499Y-68187553D01*
X138247006Y-68293996D01*
X138408361Y-68376211D01*
X138580591Y-68432171D01*
X138652136Y-68443502D01*
X138759451Y-68460500D01*
X138759454Y-68460500D01*
X138940549Y-68460500D01*
X139029977Y-68446335D01*
X139119409Y-68432171D01*
X139291639Y-68376211D01*
X139452994Y-68293996D01*
X139599501Y-68187553D01*
X139727553Y-68059501D01*
X139833996Y-67912994D01*
X139916211Y-67751639D01*
X139972171Y-67579409D01*
X139986335Y-67489977D01*
X140000500Y-67400549D01*
X140000500Y-67219450D01*
X140239500Y-67219450D01*
X140239500Y-67400549D01*
X140267828Y-67579406D01*
X140323788Y-67751637D01*
X140353525Y-67810000D01*
X140406004Y-67912994D01*
X140512447Y-68059501D01*
X140640499Y-68187553D01*
X140787006Y-68293996D01*
X140948361Y-68376211D01*
X141120591Y-68432171D01*
X141192136Y-68443502D01*
X141299451Y-68460500D01*
X141299454Y-68460500D01*
X141480549Y-68460500D01*
X141569977Y-68446335D01*
X141659409Y-68432171D01*
X141831639Y-68376211D01*
X141992994Y-68293996D01*
X142139501Y-68187553D01*
X142267553Y-68059501D01*
X142373996Y-67912994D01*
X142456211Y-67751639D01*
X142512171Y-67579409D01*
X142526335Y-67489977D01*
X142540500Y-67400549D01*
X142540500Y-67219489D01*
X142780000Y-67219489D01*
X142780000Y-67400510D01*
X142808316Y-67579289D01*
X142864250Y-67751440D01*
X142946432Y-67912730D01*
X142957911Y-67928531D01*
X143447036Y-67439406D01*
X143464075Y-67502993D01*
X143529901Y-67617007D01*
X143622993Y-67710099D01*
X143737007Y-67775925D01*
X143800591Y-67792962D01*
X143311466Y-68282087D01*
X143327266Y-68293566D01*
X143488559Y-68375749D01*
X143660710Y-68431683D01*
X143839490Y-68460000D01*
X144020510Y-68460000D01*
X144199289Y-68431683D01*
X144371440Y-68375749D01*
X144532730Y-68293568D01*
X144532735Y-68293564D01*
X144548532Y-68282087D01*
X144548532Y-68282086D01*
X144059408Y-67792962D01*
X144122993Y-67775925D01*
X144237007Y-67710099D01*
X144330099Y-67617007D01*
X144395925Y-67502993D01*
X144412962Y-67439408D01*
X144902086Y-67928532D01*
X144902087Y-67928532D01*
X144913564Y-67912735D01*
X144913568Y-67912730D01*
X144995749Y-67751440D01*
X145051683Y-67579289D01*
X145080000Y-67400510D01*
X145080000Y-67219489D01*
X145079994Y-67219450D01*
X145319500Y-67219450D01*
X145319500Y-67400549D01*
X145347828Y-67579406D01*
X145403788Y-67751637D01*
X145433525Y-67810000D01*
X145486004Y-67912994D01*
X145592447Y-68059501D01*
X145720499Y-68187553D01*
X145867006Y-68293996D01*
X146028361Y-68376211D01*
X146200591Y-68432171D01*
X146272136Y-68443502D01*
X146379451Y-68460500D01*
X146379454Y-68460500D01*
X146560549Y-68460500D01*
X146649977Y-68446335D01*
X146739409Y-68432171D01*
X146911639Y-68376211D01*
X147072994Y-68293996D01*
X147219501Y-68187553D01*
X147347553Y-68059501D01*
X147453996Y-67912994D01*
X147536211Y-67751639D01*
X147592171Y-67579409D01*
X147606335Y-67489977D01*
X147620500Y-67400549D01*
X147620500Y-67219489D01*
X147860000Y-67219489D01*
X147860000Y-67400510D01*
X147888316Y-67579289D01*
X147944250Y-67751440D01*
X148026432Y-67912730D01*
X148037911Y-67928531D01*
X148527036Y-67439406D01*
X148544075Y-67502993D01*
X148609901Y-67617007D01*
X148702993Y-67710099D01*
X148817007Y-67775925D01*
X148880591Y-67792962D01*
X148391466Y-68282087D01*
X148407266Y-68293566D01*
X148568559Y-68375749D01*
X148740710Y-68431683D01*
X148919490Y-68460000D01*
X149100510Y-68460000D01*
X149279289Y-68431683D01*
X149451440Y-68375749D01*
X149612730Y-68293568D01*
X149612735Y-68293564D01*
X149628532Y-68282087D01*
X149628532Y-68282086D01*
X149139408Y-67792962D01*
X149202993Y-67775925D01*
X149317007Y-67710099D01*
X149410099Y-67617007D01*
X149475925Y-67502993D01*
X149492962Y-67439408D01*
X149982086Y-67928532D01*
X149982087Y-67928532D01*
X149993564Y-67912735D01*
X149993568Y-67912730D01*
X150075749Y-67751440D01*
X150131683Y-67579289D01*
X150160000Y-67400510D01*
X150160000Y-67219489D01*
X150159994Y-67219450D01*
X150399500Y-67219450D01*
X150399500Y-67400549D01*
X150427828Y-67579406D01*
X150483788Y-67751637D01*
X150513525Y-67810000D01*
X150566004Y-67912994D01*
X150672447Y-68059501D01*
X150800499Y-68187553D01*
X150947006Y-68293996D01*
X151108361Y-68376211D01*
X151280591Y-68432171D01*
X151352136Y-68443502D01*
X151459451Y-68460500D01*
X151459454Y-68460500D01*
X151640549Y-68460500D01*
X151729977Y-68446335D01*
X151819409Y-68432171D01*
X151991639Y-68376211D01*
X152152994Y-68293996D01*
X152299501Y-68187553D01*
X152427553Y-68059501D01*
X152533996Y-67912994D01*
X152616211Y-67751639D01*
X152672171Y-67579409D01*
X152686335Y-67489977D01*
X152700500Y-67400549D01*
X152700500Y-67219450D01*
X152939500Y-67219450D01*
X152939500Y-67400549D01*
X152967828Y-67579406D01*
X153023788Y-67751637D01*
X153053525Y-67810000D01*
X153106004Y-67912994D01*
X153212447Y-68059501D01*
X153340499Y-68187553D01*
X153487006Y-68293996D01*
X153648361Y-68376211D01*
X153820591Y-68432171D01*
X153892136Y-68443502D01*
X153999451Y-68460500D01*
X153999454Y-68460500D01*
X154180549Y-68460500D01*
X154269977Y-68446335D01*
X154359409Y-68432171D01*
X154531639Y-68376211D01*
X154692994Y-68293996D01*
X154839501Y-68187553D01*
X154967553Y-68059501D01*
X155073996Y-67912994D01*
X155156211Y-67751639D01*
X155212171Y-67579409D01*
X155226335Y-67489977D01*
X155240500Y-67400549D01*
X155240500Y-67219450D01*
X155479500Y-67219450D01*
X155479500Y-67400549D01*
X155507828Y-67579406D01*
X155563788Y-67751637D01*
X155593525Y-67810000D01*
X155646004Y-67912994D01*
X155752447Y-68059501D01*
X155880499Y-68187553D01*
X156027006Y-68293996D01*
X156188361Y-68376211D01*
X156360591Y-68432171D01*
X156432136Y-68443502D01*
X156539451Y-68460500D01*
X156539454Y-68460500D01*
X156720549Y-68460500D01*
X156790311Y-68449450D01*
X196849500Y-68449450D01*
X196849500Y-68630549D01*
X196877828Y-68809406D01*
X196933788Y-68981637D01*
X196953683Y-69020684D01*
X197016004Y-69142994D01*
X197122447Y-69289501D01*
X197250499Y-69417553D01*
X197397006Y-69523996D01*
X197558361Y-69606211D01*
X197730591Y-69662171D01*
X197802136Y-69673502D01*
X197909451Y-69690500D01*
X197909454Y-69690500D01*
X198090549Y-69690500D01*
X198179977Y-69676335D01*
X198269409Y-69662171D01*
X198441639Y-69606211D01*
X198602994Y-69523996D01*
X198749501Y-69417553D01*
X198877553Y-69289501D01*
X198983996Y-69142994D01*
X199066211Y-68981639D01*
X199122171Y-68809409D01*
X199150500Y-68630546D01*
X199150500Y-68449454D01*
X199150500Y-68449450D01*
X199389500Y-68449450D01*
X199389500Y-68630549D01*
X199417828Y-68809406D01*
X199473788Y-68981637D01*
X199493683Y-69020684D01*
X199556004Y-69142994D01*
X199662447Y-69289501D01*
X199790499Y-69417553D01*
X199937006Y-69523996D01*
X200098361Y-69606211D01*
X200270591Y-69662171D01*
X200342136Y-69673502D01*
X200449451Y-69690500D01*
X200449454Y-69690500D01*
X200630549Y-69690500D01*
X200719977Y-69676335D01*
X200809409Y-69662171D01*
X200981639Y-69606211D01*
X201142994Y-69523996D01*
X201289501Y-69417553D01*
X201417553Y-69289501D01*
X201523996Y-69142994D01*
X201606211Y-68981639D01*
X201662171Y-68809409D01*
X201690500Y-68630546D01*
X201690500Y-68449454D01*
X201690500Y-68449450D01*
X201665810Y-68293566D01*
X201662171Y-68270591D01*
X201606211Y-68098361D01*
X201523996Y-67937006D01*
X201417553Y-67790499D01*
X201289501Y-67662447D01*
X201142994Y-67556004D01*
X201142993Y-67556003D01*
X201142991Y-67556002D01*
X200981637Y-67473788D01*
X200809406Y-67417828D01*
X200630549Y-67389500D01*
X200630546Y-67389500D01*
X200449454Y-67389500D01*
X200449451Y-67389500D01*
X200270593Y-67417828D01*
X200098362Y-67473788D01*
X199937008Y-67556002D01*
X199863752Y-67609225D01*
X199790499Y-67662447D01*
X199662447Y-67790499D01*
X199648279Y-67810000D01*
X199556002Y-67937008D01*
X199473788Y-68098362D01*
X199417828Y-68270593D01*
X199389500Y-68449450D01*
X199150500Y-68449450D01*
X199125810Y-68293566D01*
X199122171Y-68270591D01*
X199066211Y-68098361D01*
X198983996Y-67937006D01*
X198877553Y-67790499D01*
X198749501Y-67662447D01*
X198602994Y-67556004D01*
X198602993Y-67556003D01*
X198602991Y-67556002D01*
X198441637Y-67473788D01*
X198269406Y-67417828D01*
X198090549Y-67389500D01*
X198090546Y-67389500D01*
X197909454Y-67389500D01*
X197909451Y-67389500D01*
X197730593Y-67417828D01*
X197558362Y-67473788D01*
X197397008Y-67556002D01*
X197323752Y-67609225D01*
X197250499Y-67662447D01*
X197122447Y-67790499D01*
X197108279Y-67810000D01*
X197016002Y-67937008D01*
X196933788Y-68098362D01*
X196877828Y-68270593D01*
X196849500Y-68449450D01*
X156790311Y-68449450D01*
X156809977Y-68446335D01*
X156899409Y-68432171D01*
X157071639Y-68376211D01*
X157108648Y-68357354D01*
X157108651Y-68357353D01*
X157232983Y-68294002D01*
X157232990Y-68293998D01*
X157232989Y-68293998D01*
X157232994Y-68293996D01*
X157379501Y-68187553D01*
X157507553Y-68059501D01*
X157613996Y-67912994D01*
X157696211Y-67751639D01*
X157752171Y-67579409D01*
X157766335Y-67489977D01*
X157780500Y-67400549D01*
X157780500Y-67219450D01*
X157752171Y-67040593D01*
X157752171Y-67040591D01*
X157696211Y-66868361D01*
X157613996Y-66707006D01*
X157507553Y-66560499D01*
X157379501Y-66432447D01*
X157232994Y-66326004D01*
X157232993Y-66326003D01*
X157232991Y-66326002D01*
X157071637Y-66243788D01*
X156899406Y-66187828D01*
X156720549Y-66159500D01*
X156720546Y-66159500D01*
X156539454Y-66159500D01*
X156539451Y-66159500D01*
X156360593Y-66187828D01*
X156188362Y-66243788D01*
X156027008Y-66326002D01*
X156010617Y-66337911D01*
X155880499Y-66432447D01*
X155752447Y-66560499D01*
X155752018Y-66561090D01*
X155646002Y-66707008D01*
X155563788Y-66868362D01*
X155507828Y-67040593D01*
X155479500Y-67219450D01*
X155240500Y-67219450D01*
X155212171Y-67040593D01*
X155212171Y-67040591D01*
X155156211Y-66868361D01*
X155073996Y-66707006D01*
X154967553Y-66560499D01*
X154839501Y-66432447D01*
X154692994Y-66326004D01*
X154692993Y-66326003D01*
X154692991Y-66326002D01*
X154531637Y-66243788D01*
X154359406Y-66187828D01*
X154180549Y-66159500D01*
X154180546Y-66159500D01*
X153999454Y-66159500D01*
X153999451Y-66159500D01*
X153820593Y-66187828D01*
X153648362Y-66243788D01*
X153487008Y-66326002D01*
X153470617Y-66337911D01*
X153340499Y-66432447D01*
X153212447Y-66560499D01*
X153212018Y-66561090D01*
X153106002Y-66707008D01*
X153023788Y-66868362D01*
X152967828Y-67040593D01*
X152939500Y-67219450D01*
X152700500Y-67219450D01*
X152672171Y-67040593D01*
X152672171Y-67040591D01*
X152616211Y-66868361D01*
X152533996Y-66707006D01*
X152427553Y-66560499D01*
X152299501Y-66432447D01*
X152152994Y-66326004D01*
X152152993Y-66326003D01*
X152152991Y-66326002D01*
X151991637Y-66243788D01*
X151819406Y-66187828D01*
X151640549Y-66159500D01*
X151640546Y-66159500D01*
X151459454Y-66159500D01*
X151459451Y-66159500D01*
X151280593Y-66187828D01*
X151108362Y-66243788D01*
X150947008Y-66326002D01*
X150930617Y-66337911D01*
X150800499Y-66432447D01*
X150672447Y-66560499D01*
X150672018Y-66561090D01*
X150566002Y-66707008D01*
X150483788Y-66868362D01*
X150427828Y-67040593D01*
X150399500Y-67219450D01*
X150159994Y-67219450D01*
X150131683Y-67040710D01*
X150075749Y-66868559D01*
X149993566Y-66707266D01*
X149982087Y-66691466D01*
X149492962Y-67180591D01*
X149475925Y-67117007D01*
X149410099Y-67002993D01*
X149317007Y-66909901D01*
X149202993Y-66844075D01*
X149139406Y-66827036D01*
X149628532Y-66337911D01*
X149612730Y-66326432D01*
X149451440Y-66244250D01*
X149279289Y-66188316D01*
X149100510Y-66160000D01*
X148919490Y-66160000D01*
X148740710Y-66188316D01*
X148568559Y-66244250D01*
X148407264Y-66326434D01*
X148391466Y-66337911D01*
X148880592Y-66827037D01*
X148817007Y-66844075D01*
X148702993Y-66909901D01*
X148609901Y-67002993D01*
X148544075Y-67117007D01*
X148527037Y-67180592D01*
X148037911Y-66691466D01*
X148026434Y-66707264D01*
X147944250Y-66868559D01*
X147888316Y-67040710D01*
X147860000Y-67219489D01*
X147620500Y-67219489D01*
X147620500Y-67219450D01*
X147592171Y-67040593D01*
X147592171Y-67040591D01*
X147536211Y-66868361D01*
X147453996Y-66707006D01*
X147347553Y-66560499D01*
X147219501Y-66432447D01*
X147072994Y-66326004D01*
X147072993Y-66326003D01*
X147072991Y-66326002D01*
X146911637Y-66243788D01*
X146739406Y-66187828D01*
X146560549Y-66159500D01*
X146560546Y-66159500D01*
X146379454Y-66159500D01*
X146379451Y-66159500D01*
X146200593Y-66187828D01*
X146028362Y-66243788D01*
X145867008Y-66326002D01*
X145850617Y-66337911D01*
X145720499Y-66432447D01*
X145592447Y-66560499D01*
X145592018Y-66561090D01*
X145486002Y-66707008D01*
X145403788Y-66868362D01*
X145347828Y-67040593D01*
X145319500Y-67219450D01*
X145079994Y-67219450D01*
X145051683Y-67040710D01*
X144995749Y-66868559D01*
X144913566Y-66707266D01*
X144902087Y-66691466D01*
X144412962Y-67180591D01*
X144395925Y-67117007D01*
X144330099Y-67002993D01*
X144237007Y-66909901D01*
X144122993Y-66844075D01*
X144059406Y-66827036D01*
X144548532Y-66337911D01*
X144532730Y-66326432D01*
X144371440Y-66244250D01*
X144199289Y-66188316D01*
X144020510Y-66160000D01*
X143839490Y-66160000D01*
X143660710Y-66188316D01*
X143488559Y-66244250D01*
X143327264Y-66326434D01*
X143311466Y-66337911D01*
X143800592Y-66827037D01*
X143737007Y-66844075D01*
X143622993Y-66909901D01*
X143529901Y-67002993D01*
X143464075Y-67117007D01*
X143447037Y-67180592D01*
X142957911Y-66691466D01*
X142946434Y-66707264D01*
X142864250Y-66868559D01*
X142808316Y-67040710D01*
X142780000Y-67219489D01*
X142540500Y-67219489D01*
X142540500Y-67219450D01*
X142512171Y-67040593D01*
X142512171Y-67040591D01*
X142456211Y-66868361D01*
X142373996Y-66707006D01*
X142267553Y-66560499D01*
X142139501Y-66432447D01*
X141992994Y-66326004D01*
X141992993Y-66326003D01*
X141992991Y-66326002D01*
X141831637Y-66243788D01*
X141659406Y-66187828D01*
X141480549Y-66159500D01*
X141480546Y-66159500D01*
X141299454Y-66159500D01*
X141299451Y-66159500D01*
X141120593Y-66187828D01*
X140948362Y-66243788D01*
X140787008Y-66326002D01*
X140770617Y-66337911D01*
X140640499Y-66432447D01*
X140512447Y-66560499D01*
X140512018Y-66561090D01*
X140406002Y-66707008D01*
X140323788Y-66868362D01*
X140267828Y-67040593D01*
X140239500Y-67219450D01*
X140000500Y-67219450D01*
X139972171Y-67040593D01*
X139972171Y-67040591D01*
X139916211Y-66868361D01*
X139833996Y-66707006D01*
X139727553Y-66560499D01*
X139599501Y-66432447D01*
X139452994Y-66326004D01*
X139452993Y-66326003D01*
X139452991Y-66326002D01*
X139291637Y-66243788D01*
X139119406Y-66187828D01*
X138940549Y-66159500D01*
X138940546Y-66159500D01*
X138759454Y-66159500D01*
X138759451Y-66159500D01*
X138580593Y-66187828D01*
X138408362Y-66243788D01*
X138247008Y-66326002D01*
X138230617Y-66337911D01*
X138100499Y-66432447D01*
X137972447Y-66560499D01*
X137972018Y-66561090D01*
X137866002Y-66707008D01*
X137783788Y-66868362D01*
X137727828Y-67040593D01*
X137699500Y-67219450D01*
X137460500Y-67219450D01*
X137432171Y-67040593D01*
X137432171Y-67040591D01*
X137376211Y-66868361D01*
X137293996Y-66707006D01*
X137187553Y-66560499D01*
X137059501Y-66432447D01*
X136912994Y-66326004D01*
X136912993Y-66326003D01*
X136912991Y-66326002D01*
X136751637Y-66243788D01*
X136579406Y-66187828D01*
X136400549Y-66159500D01*
X136400546Y-66159500D01*
X136219454Y-66159500D01*
X136219451Y-66159500D01*
X136040593Y-66187828D01*
X135868362Y-66243788D01*
X135707008Y-66326002D01*
X135690617Y-66337911D01*
X135560499Y-66432447D01*
X135432447Y-66560499D01*
X135432018Y-66561090D01*
X135326002Y-66707008D01*
X135243788Y-66868362D01*
X135187828Y-67040593D01*
X135159500Y-67219450D01*
X134920500Y-67219450D01*
X134892171Y-67040593D01*
X134892171Y-67040591D01*
X134836211Y-66868361D01*
X134753996Y-66707006D01*
X134647553Y-66560499D01*
X134519501Y-66432447D01*
X134372994Y-66326004D01*
X134372993Y-66326003D01*
X134372991Y-66326002D01*
X134211637Y-66243788D01*
X134039406Y-66187828D01*
X133860549Y-66159500D01*
X133860546Y-66159500D01*
X133679454Y-66159500D01*
X133679451Y-66159500D01*
X133500593Y-66187828D01*
X133328362Y-66243788D01*
X133167008Y-66326002D01*
X133150617Y-66337911D01*
X133020499Y-66432447D01*
X132892447Y-66560499D01*
X132892018Y-66561090D01*
X132786002Y-66707008D01*
X132703788Y-66868362D01*
X132647828Y-67040593D01*
X132619500Y-67219450D01*
X132379994Y-67219450D01*
X132351683Y-67040710D01*
X132295749Y-66868559D01*
X132213566Y-66707266D01*
X132202087Y-66691466D01*
X131712962Y-67180591D01*
X131695925Y-67117007D01*
X131630099Y-67002993D01*
X131537007Y-66909901D01*
X131422993Y-66844075D01*
X131359406Y-66827036D01*
X131848532Y-66337911D01*
X131832730Y-66326432D01*
X131671440Y-66244250D01*
X131499289Y-66188316D01*
X131320510Y-66160000D01*
X131139490Y-66160000D01*
X130960710Y-66188316D01*
X130788559Y-66244250D01*
X130627264Y-66326434D01*
X130611466Y-66337911D01*
X131100592Y-66827037D01*
X131037007Y-66844075D01*
X130922993Y-66909901D01*
X130829901Y-67002993D01*
X130764075Y-67117007D01*
X130747037Y-67180592D01*
X130257911Y-66691466D01*
X130246434Y-66707264D01*
X130164250Y-66868559D01*
X130108316Y-67040710D01*
X130080000Y-67219489D01*
X129840500Y-67219489D01*
X129840500Y-67219450D01*
X129812171Y-67040593D01*
X129812171Y-67040591D01*
X129756211Y-66868361D01*
X129673996Y-66707006D01*
X129567553Y-66560499D01*
X129439501Y-66432447D01*
X129292994Y-66326004D01*
X129292993Y-66326003D01*
X129292991Y-66326002D01*
X129131637Y-66243788D01*
X128959406Y-66187828D01*
X128780549Y-66159500D01*
X128780546Y-66159500D01*
X128599454Y-66159500D01*
X128599451Y-66159500D01*
X128420593Y-66187828D01*
X128248362Y-66243788D01*
X128087008Y-66326002D01*
X128070617Y-66337911D01*
X127940499Y-66432447D01*
X127812447Y-66560499D01*
X127812018Y-66561090D01*
X127706002Y-66707008D01*
X127623788Y-66868362D01*
X127567828Y-67040593D01*
X127539500Y-67219450D01*
X127300500Y-67219450D01*
X127272171Y-67040593D01*
X127272171Y-67040591D01*
X127216211Y-66868361D01*
X127133996Y-66707006D01*
X127027553Y-66560499D01*
X126899501Y-66432447D01*
X126752994Y-66326004D01*
X126752993Y-66326003D01*
X126752991Y-66326002D01*
X126591637Y-66243788D01*
X126419406Y-66187828D01*
X126240549Y-66159500D01*
X126240546Y-66159500D01*
X126059454Y-66159500D01*
X126059451Y-66159500D01*
X125880593Y-66187828D01*
X125708362Y-66243788D01*
X125547008Y-66326002D01*
X125530617Y-66337911D01*
X125400499Y-66432447D01*
X125272447Y-66560499D01*
X125272018Y-66561090D01*
X125166002Y-66707008D01*
X125083788Y-66868362D01*
X125027828Y-67040593D01*
X124999500Y-67219450D01*
X124759994Y-67219450D01*
X124731683Y-67040710D01*
X124675749Y-66868559D01*
X124593566Y-66707266D01*
X124582087Y-66691466D01*
X124092962Y-67180591D01*
X124075925Y-67117007D01*
X124010099Y-67002993D01*
X123917007Y-66909901D01*
X123802993Y-66844075D01*
X123739406Y-66827036D01*
X124228532Y-66337911D01*
X124212730Y-66326432D01*
X124051440Y-66244250D01*
X123879289Y-66188316D01*
X123700510Y-66160000D01*
X123519490Y-66160000D01*
X123340710Y-66188316D01*
X123168559Y-66244250D01*
X123007264Y-66326434D01*
X122991466Y-66337911D01*
X123480592Y-66827037D01*
X123417007Y-66844075D01*
X123302993Y-66909901D01*
X123209901Y-67002993D01*
X123144075Y-67117007D01*
X123127037Y-67180592D01*
X122637911Y-66691466D01*
X122626434Y-66707264D01*
X122544250Y-66868559D01*
X122488316Y-67040710D01*
X122460000Y-67219489D01*
X122220500Y-67219489D01*
X122220500Y-67219450D01*
X122192171Y-67040593D01*
X122192171Y-67040591D01*
X122136211Y-66868361D01*
X122053996Y-66707006D01*
X121947553Y-66560499D01*
X121819501Y-66432447D01*
X121672994Y-66326004D01*
X121672993Y-66326003D01*
X121672991Y-66326002D01*
X121511637Y-66243788D01*
X121339406Y-66187828D01*
X121160549Y-66159500D01*
X121160546Y-66159500D01*
X120979454Y-66159500D01*
X120979451Y-66159500D01*
X120800593Y-66187828D01*
X120628362Y-66243788D01*
X120467008Y-66326002D01*
X120450617Y-66337911D01*
X120320499Y-66432447D01*
X120192447Y-66560499D01*
X120192018Y-66561090D01*
X120086002Y-66707008D01*
X120003788Y-66868362D01*
X119947828Y-67040593D01*
X119919500Y-67219450D01*
X119680500Y-67219450D01*
X119652171Y-67040593D01*
X119652171Y-67040591D01*
X119596211Y-66868361D01*
X119513996Y-66707006D01*
X119407553Y-66560499D01*
X119279501Y-66432447D01*
X119132994Y-66326004D01*
X119132993Y-66326003D01*
X119132991Y-66326002D01*
X118971637Y-66243788D01*
X118799406Y-66187828D01*
X118620549Y-66159500D01*
X118620546Y-66159500D01*
X118439454Y-66159500D01*
X118439451Y-66159500D01*
X118260593Y-66187828D01*
X118088362Y-66243788D01*
X117927008Y-66326002D01*
X117910617Y-66337911D01*
X117780499Y-66432447D01*
X117652447Y-66560499D01*
X117652018Y-66561090D01*
X117546002Y-66707008D01*
X117463788Y-66868362D01*
X117407828Y-67040593D01*
X117379500Y-67219450D01*
X117140500Y-67219450D01*
X117112171Y-67040593D01*
X117112171Y-67040591D01*
X117056211Y-66868361D01*
X116973996Y-66707006D01*
X116867553Y-66560499D01*
X116739501Y-66432447D01*
X116592994Y-66326004D01*
X116592993Y-66326003D01*
X116592991Y-66326002D01*
X116431637Y-66243788D01*
X116259406Y-66187828D01*
X116080549Y-66159500D01*
X116080546Y-66159500D01*
X115899454Y-66159500D01*
X115899451Y-66159500D01*
X115720593Y-66187828D01*
X115548362Y-66243788D01*
X115387008Y-66326002D01*
X115370617Y-66337911D01*
X115240499Y-66432447D01*
X115112447Y-66560499D01*
X115112018Y-66561090D01*
X115006002Y-66707008D01*
X114923788Y-66868362D01*
X114867828Y-67040593D01*
X114839500Y-67219450D01*
X114599994Y-67219450D01*
X114571683Y-67040710D01*
X114515749Y-66868559D01*
X114433566Y-66707266D01*
X114422087Y-66691466D01*
X113932962Y-67180591D01*
X113915925Y-67117007D01*
X113850099Y-67002993D01*
X113757007Y-66909901D01*
X113642993Y-66844075D01*
X113579406Y-66827036D01*
X114068532Y-66337911D01*
X114052730Y-66326432D01*
X113891440Y-66244250D01*
X113719289Y-66188316D01*
X113540510Y-66160000D01*
X113359490Y-66160000D01*
X113180710Y-66188316D01*
X113008559Y-66244250D01*
X112847264Y-66326434D01*
X112831466Y-66337911D01*
X113320592Y-66827037D01*
X113257007Y-66844075D01*
X113142993Y-66909901D01*
X113049901Y-67002993D01*
X112984075Y-67117007D01*
X112967037Y-67180592D01*
X112477911Y-66691466D01*
X112466434Y-66707264D01*
X112384250Y-66868559D01*
X112328316Y-67040710D01*
X112300000Y-67219489D01*
X112060500Y-67219489D01*
X112060500Y-67219450D01*
X112032171Y-67040593D01*
X112032171Y-67040591D01*
X111976211Y-66868361D01*
X111893996Y-66707006D01*
X111787553Y-66560499D01*
X111659501Y-66432447D01*
X111512994Y-66326004D01*
X111512993Y-66326003D01*
X111512991Y-66326002D01*
X111351637Y-66243788D01*
X111179406Y-66187828D01*
X111000549Y-66159500D01*
X111000546Y-66159500D01*
X110819454Y-66159500D01*
X110819451Y-66159500D01*
X110640593Y-66187828D01*
X110468362Y-66243788D01*
X110307008Y-66326002D01*
X110290617Y-66337911D01*
X110160499Y-66432447D01*
X110032447Y-66560499D01*
X110032018Y-66561090D01*
X109926002Y-66707008D01*
X109843788Y-66868362D01*
X109787828Y-67040593D01*
X109759500Y-67219450D01*
X109520500Y-67219450D01*
X109492171Y-67040593D01*
X109492171Y-67040591D01*
X109436211Y-66868361D01*
X109353996Y-66707006D01*
X109247553Y-66560499D01*
X109119501Y-66432447D01*
X108972994Y-66326004D01*
X108972993Y-66326003D01*
X108972991Y-66326002D01*
X108811637Y-66243788D01*
X108639406Y-66187828D01*
X108460549Y-66159500D01*
X108460546Y-66159500D01*
X108279454Y-66159500D01*
X108279451Y-66159500D01*
X108100593Y-66187828D01*
X107928362Y-66243788D01*
X107767008Y-66326002D01*
X107750617Y-66337911D01*
X107620499Y-66432447D01*
X107492447Y-66560499D01*
X107492018Y-66561090D01*
X107386002Y-66707008D01*
X107303788Y-66868362D01*
X107247828Y-67040593D01*
X107219500Y-67219450D01*
X100500500Y-67219450D01*
X100500500Y-63374034D01*
X101899500Y-63374034D01*
X101899500Y-63625965D01*
X101938908Y-63874780D01*
X102016759Y-64114379D01*
X102125788Y-64328362D01*
X102131130Y-64338845D01*
X102279207Y-64542656D01*
X102457344Y-64720793D01*
X102661155Y-64868870D01*
X102885621Y-64983241D01*
X103125215Y-65061090D01*
X103125216Y-65061090D01*
X103125219Y-65061091D01*
X103374035Y-65100500D01*
X103374038Y-65100500D01*
X103625965Y-65100500D01*
X103874780Y-65061091D01*
X103874781Y-65061090D01*
X103874785Y-65061090D01*
X104114379Y-64983241D01*
X104338845Y-64868870D01*
X104542656Y-64720793D01*
X104720793Y-64542656D01*
X104868870Y-64338845D01*
X104983241Y-64114379D01*
X105060978Y-63875130D01*
X107219500Y-63875130D01*
X107219500Y-65664860D01*
X107219501Y-65664863D01*
X107222414Y-65689990D01*
X107240342Y-65730593D01*
X107267794Y-65792765D01*
X107347235Y-65872206D01*
X107450009Y-65917585D01*
X107475135Y-65920500D01*
X109264864Y-65920499D01*
X109289991Y-65917585D01*
X109392765Y-65872206D01*
X109472206Y-65792765D01*
X109517585Y-65689991D01*
X109520500Y-65664865D01*
X109520499Y-64679450D01*
X109759500Y-64679450D01*
X109759500Y-64860549D01*
X109787828Y-65039406D01*
X109843788Y-65211637D01*
X109922444Y-65366009D01*
X109926004Y-65372994D01*
X110032447Y-65519501D01*
X110160499Y-65647553D01*
X110307006Y-65753996D01*
X110468361Y-65836211D01*
X110640591Y-65892171D01*
X110712136Y-65903502D01*
X110819451Y-65920500D01*
X110819454Y-65920500D01*
X111000549Y-65920500D01*
X111089977Y-65906335D01*
X111179409Y-65892171D01*
X111351639Y-65836211D01*
X111512994Y-65753996D01*
X111659501Y-65647553D01*
X111787553Y-65519501D01*
X111893996Y-65372994D01*
X111976211Y-65211639D01*
X112032171Y-65039409D01*
X112048403Y-64936923D01*
X112060500Y-64860549D01*
X112060500Y-64679450D01*
X112299500Y-64679450D01*
X112299500Y-64860549D01*
X112327828Y-65039406D01*
X112383788Y-65211637D01*
X112462444Y-65366009D01*
X112466004Y-65372994D01*
X112572447Y-65519501D01*
X112700499Y-65647553D01*
X112847006Y-65753996D01*
X113008361Y-65836211D01*
X113180591Y-65892171D01*
X113252136Y-65903502D01*
X113359451Y-65920500D01*
X113359454Y-65920500D01*
X113540549Y-65920500D01*
X113629977Y-65906335D01*
X113719409Y-65892171D01*
X113891639Y-65836211D01*
X114052994Y-65753996D01*
X114199501Y-65647553D01*
X114327553Y-65519501D01*
X114433996Y-65372994D01*
X114516211Y-65211639D01*
X114572171Y-65039409D01*
X114588403Y-64936923D01*
X114600500Y-64860549D01*
X114600500Y-64679450D01*
X114839500Y-64679450D01*
X114839500Y-64860549D01*
X114867828Y-65039406D01*
X114923788Y-65211637D01*
X115002444Y-65366009D01*
X115006004Y-65372994D01*
X115112447Y-65519501D01*
X115240499Y-65647553D01*
X115387006Y-65753996D01*
X115548361Y-65836211D01*
X115720591Y-65892171D01*
X115792136Y-65903502D01*
X115899451Y-65920500D01*
X115899454Y-65920500D01*
X116080549Y-65920500D01*
X116169977Y-65906335D01*
X116259409Y-65892171D01*
X116431639Y-65836211D01*
X116592994Y-65753996D01*
X116739501Y-65647553D01*
X116867553Y-65519501D01*
X116973996Y-65372994D01*
X117056211Y-65211639D01*
X117112171Y-65039409D01*
X117128403Y-64936923D01*
X117140500Y-64860549D01*
X117140500Y-64679489D01*
X117380000Y-64679489D01*
X117380000Y-64860510D01*
X117408316Y-65039289D01*
X117464250Y-65211440D01*
X117546432Y-65372730D01*
X117557911Y-65388531D01*
X118047036Y-64899406D01*
X118064075Y-64962993D01*
X118129901Y-65077007D01*
X118222993Y-65170099D01*
X118337007Y-65235925D01*
X118400591Y-65252962D01*
X117911466Y-65742087D01*
X117927266Y-65753566D01*
X118088559Y-65835749D01*
X118260710Y-65891683D01*
X118439490Y-65920000D01*
X118620510Y-65920000D01*
X118799289Y-65891683D01*
X118971440Y-65835749D01*
X119132730Y-65753568D01*
X119132735Y-65753564D01*
X119148532Y-65742087D01*
X119148532Y-65742086D01*
X118659408Y-65252962D01*
X118722993Y-65235925D01*
X118837007Y-65170099D01*
X118930099Y-65077007D01*
X118995925Y-64962993D01*
X119012962Y-64899408D01*
X119502086Y-65388532D01*
X119502087Y-65388532D01*
X119513564Y-65372735D01*
X119513568Y-65372730D01*
X119595749Y-65211440D01*
X119651683Y-65039289D01*
X119680000Y-64860510D01*
X119680000Y-64679489D01*
X119679994Y-64679450D01*
X119919500Y-64679450D01*
X119919500Y-64860549D01*
X119947828Y-65039406D01*
X120003788Y-65211637D01*
X120082444Y-65366009D01*
X120086004Y-65372994D01*
X120192447Y-65519501D01*
X120320499Y-65647553D01*
X120467006Y-65753996D01*
X120628361Y-65836211D01*
X120800591Y-65892171D01*
X120872136Y-65903502D01*
X120979451Y-65920500D01*
X120979454Y-65920500D01*
X121160549Y-65920500D01*
X121249977Y-65906335D01*
X121339409Y-65892171D01*
X121511639Y-65836211D01*
X121672994Y-65753996D01*
X121819501Y-65647553D01*
X121947553Y-65519501D01*
X122053996Y-65372994D01*
X122136211Y-65211639D01*
X122192171Y-65039409D01*
X122208403Y-64936923D01*
X122220500Y-64860549D01*
X122220500Y-64679450D01*
X122459500Y-64679450D01*
X122459500Y-64860549D01*
X122487828Y-65039406D01*
X122543788Y-65211637D01*
X122622444Y-65366009D01*
X122626004Y-65372994D01*
X122732447Y-65519501D01*
X122860499Y-65647553D01*
X123007006Y-65753996D01*
X123168361Y-65836211D01*
X123340591Y-65892171D01*
X123412136Y-65903502D01*
X123519451Y-65920500D01*
X123519454Y-65920500D01*
X123700549Y-65920500D01*
X123789977Y-65906335D01*
X123879409Y-65892171D01*
X124051639Y-65836211D01*
X124212994Y-65753996D01*
X124359501Y-65647553D01*
X124487553Y-65519501D01*
X124593996Y-65372994D01*
X124676211Y-65211639D01*
X124732171Y-65039409D01*
X124748403Y-64936923D01*
X124760500Y-64860549D01*
X124760500Y-64679450D01*
X124999500Y-64679450D01*
X124999500Y-64860549D01*
X125027828Y-65039406D01*
X125083788Y-65211637D01*
X125162444Y-65366009D01*
X125166004Y-65372994D01*
X125272447Y-65519501D01*
X125400499Y-65647553D01*
X125547006Y-65753996D01*
X125708361Y-65836211D01*
X125880591Y-65892171D01*
X125952136Y-65903502D01*
X126059451Y-65920500D01*
X126059454Y-65920500D01*
X126240549Y-65920500D01*
X126329977Y-65906335D01*
X126419409Y-65892171D01*
X126591639Y-65836211D01*
X126752994Y-65753996D01*
X126899501Y-65647553D01*
X127027553Y-65519501D01*
X127133996Y-65372994D01*
X127216211Y-65211639D01*
X127272171Y-65039409D01*
X127288403Y-64936923D01*
X127300500Y-64860549D01*
X127300500Y-64679450D01*
X127539500Y-64679450D01*
X127539500Y-64860549D01*
X127567828Y-65039406D01*
X127623788Y-65211637D01*
X127702444Y-65366009D01*
X127706004Y-65372994D01*
X127812447Y-65519501D01*
X127940499Y-65647553D01*
X128087006Y-65753996D01*
X128248361Y-65836211D01*
X128420591Y-65892171D01*
X128492136Y-65903502D01*
X128599451Y-65920500D01*
X128599454Y-65920500D01*
X128780549Y-65920500D01*
X128869977Y-65906335D01*
X128959409Y-65892171D01*
X129131639Y-65836211D01*
X129292994Y-65753996D01*
X129439501Y-65647553D01*
X129567553Y-65519501D01*
X129673996Y-65372994D01*
X129756211Y-65211639D01*
X129812171Y-65039409D01*
X129828403Y-64936923D01*
X129840500Y-64860549D01*
X129840500Y-64679450D01*
X130079500Y-64679450D01*
X130079500Y-64860549D01*
X130107828Y-65039406D01*
X130163788Y-65211637D01*
X130242444Y-65366009D01*
X130246004Y-65372994D01*
X130352447Y-65519501D01*
X130480499Y-65647553D01*
X130627006Y-65753996D01*
X130788361Y-65836211D01*
X130960591Y-65892171D01*
X131032136Y-65903502D01*
X131139451Y-65920500D01*
X131139454Y-65920500D01*
X131320549Y-65920500D01*
X131409977Y-65906335D01*
X131499409Y-65892171D01*
X131671639Y-65836211D01*
X131832994Y-65753996D01*
X131979501Y-65647553D01*
X132107553Y-65519501D01*
X132213996Y-65372994D01*
X132296211Y-65211639D01*
X132352171Y-65039409D01*
X132368403Y-64936923D01*
X132380500Y-64860549D01*
X132380500Y-64679450D01*
X132619500Y-64679450D01*
X132619500Y-64860549D01*
X132647828Y-65039406D01*
X132703788Y-65211637D01*
X132782444Y-65366009D01*
X132786004Y-65372994D01*
X132892447Y-65519501D01*
X133020499Y-65647553D01*
X133167006Y-65753996D01*
X133328361Y-65836211D01*
X133500591Y-65892171D01*
X133572136Y-65903502D01*
X133679451Y-65920500D01*
X133679454Y-65920500D01*
X133860549Y-65920500D01*
X133949977Y-65906335D01*
X134039409Y-65892171D01*
X134211639Y-65836211D01*
X134372994Y-65753996D01*
X134519501Y-65647553D01*
X134647553Y-65519501D01*
X134753996Y-65372994D01*
X134836211Y-65211639D01*
X134892171Y-65039409D01*
X134908403Y-64936923D01*
X134920500Y-64860549D01*
X134920500Y-64679450D01*
X135159500Y-64679450D01*
X135159500Y-64860549D01*
X135187828Y-65039406D01*
X135243788Y-65211637D01*
X135322444Y-65366009D01*
X135326004Y-65372994D01*
X135432447Y-65519501D01*
X135560499Y-65647553D01*
X135707006Y-65753996D01*
X135868361Y-65836211D01*
X136040591Y-65892171D01*
X136112136Y-65903502D01*
X136219451Y-65920500D01*
X136219454Y-65920500D01*
X136400549Y-65920500D01*
X136489977Y-65906335D01*
X136579409Y-65892171D01*
X136751639Y-65836211D01*
X136912994Y-65753996D01*
X137059501Y-65647553D01*
X137187553Y-65519501D01*
X137293996Y-65372994D01*
X137376211Y-65211639D01*
X137432171Y-65039409D01*
X137448403Y-64936923D01*
X137460500Y-64860549D01*
X137460500Y-64679489D01*
X137700000Y-64679489D01*
X137700000Y-64860510D01*
X137728316Y-65039289D01*
X137784250Y-65211440D01*
X137866432Y-65372730D01*
X137877911Y-65388531D01*
X138367036Y-64899406D01*
X138384075Y-64962993D01*
X138449901Y-65077007D01*
X138542993Y-65170099D01*
X138657007Y-65235925D01*
X138720591Y-65252962D01*
X138231466Y-65742087D01*
X138247266Y-65753566D01*
X138408559Y-65835749D01*
X138580710Y-65891683D01*
X138759490Y-65920000D01*
X138940510Y-65920000D01*
X139119289Y-65891683D01*
X139291440Y-65835749D01*
X139452730Y-65753568D01*
X139452735Y-65753564D01*
X139468532Y-65742087D01*
X139468532Y-65742086D01*
X138979408Y-65252962D01*
X139042993Y-65235925D01*
X139157007Y-65170099D01*
X139250099Y-65077007D01*
X139315925Y-64962993D01*
X139332962Y-64899408D01*
X139822086Y-65388532D01*
X139822087Y-65388532D01*
X139833564Y-65372735D01*
X139833568Y-65372730D01*
X139915749Y-65211440D01*
X139971683Y-65039289D01*
X140000000Y-64860510D01*
X140000000Y-64679489D01*
X139999994Y-64679450D01*
X140239500Y-64679450D01*
X140239500Y-64860549D01*
X140267828Y-65039406D01*
X140323788Y-65211637D01*
X140402444Y-65366009D01*
X140406004Y-65372994D01*
X140512447Y-65519501D01*
X140640499Y-65647553D01*
X140787006Y-65753996D01*
X140948361Y-65836211D01*
X141120591Y-65892171D01*
X141192136Y-65903502D01*
X141299451Y-65920500D01*
X141299454Y-65920500D01*
X141480549Y-65920500D01*
X141569977Y-65906335D01*
X141659409Y-65892171D01*
X141831639Y-65836211D01*
X141992994Y-65753996D01*
X142139501Y-65647553D01*
X142267553Y-65519501D01*
X142373996Y-65372994D01*
X142456211Y-65211639D01*
X142512171Y-65039409D01*
X142528403Y-64936923D01*
X142540500Y-64860549D01*
X142540500Y-64679450D01*
X142779500Y-64679450D01*
X142779500Y-64860549D01*
X142807828Y-65039406D01*
X142863788Y-65211637D01*
X142942444Y-65366009D01*
X142946004Y-65372994D01*
X143052447Y-65519501D01*
X143180499Y-65647553D01*
X143327006Y-65753996D01*
X143488361Y-65836211D01*
X143660591Y-65892171D01*
X143732136Y-65903502D01*
X143839451Y-65920500D01*
X143839454Y-65920500D01*
X144020549Y-65920500D01*
X144109977Y-65906335D01*
X144199409Y-65892171D01*
X144371639Y-65836211D01*
X144532994Y-65753996D01*
X144679501Y-65647553D01*
X144807553Y-65519501D01*
X144913996Y-65372994D01*
X144996211Y-65211639D01*
X145052171Y-65039409D01*
X145068403Y-64936923D01*
X145080500Y-64860549D01*
X145080500Y-64679450D01*
X145319500Y-64679450D01*
X145319500Y-64860549D01*
X145347828Y-65039406D01*
X145403788Y-65211637D01*
X145482444Y-65366009D01*
X145486004Y-65372994D01*
X145592447Y-65519501D01*
X145720499Y-65647553D01*
X145867006Y-65753996D01*
X146028361Y-65836211D01*
X146200591Y-65892171D01*
X146272136Y-65903502D01*
X146379451Y-65920500D01*
X146379454Y-65920500D01*
X146560549Y-65920500D01*
X146649977Y-65906335D01*
X146739409Y-65892171D01*
X146911639Y-65836211D01*
X147072994Y-65753996D01*
X147219501Y-65647553D01*
X147347553Y-65519501D01*
X147453996Y-65372994D01*
X147536211Y-65211639D01*
X147592171Y-65039409D01*
X147608403Y-64936923D01*
X147620500Y-64860549D01*
X147620500Y-64679450D01*
X147859500Y-64679450D01*
X147859500Y-64860549D01*
X147887828Y-65039406D01*
X147943788Y-65211637D01*
X148022444Y-65366009D01*
X148026004Y-65372994D01*
X148132447Y-65519501D01*
X148260499Y-65647553D01*
X148407006Y-65753996D01*
X148568361Y-65836211D01*
X148740591Y-65892171D01*
X148812136Y-65903502D01*
X148919451Y-65920500D01*
X148919454Y-65920500D01*
X149100549Y-65920500D01*
X149189977Y-65906335D01*
X149279409Y-65892171D01*
X149451639Y-65836211D01*
X149612994Y-65753996D01*
X149759501Y-65647553D01*
X149887553Y-65519501D01*
X149993996Y-65372994D01*
X150076211Y-65211639D01*
X150132171Y-65039409D01*
X150148403Y-64936923D01*
X150160500Y-64860549D01*
X150160500Y-64679450D01*
X150399500Y-64679450D01*
X150399500Y-64860549D01*
X150427828Y-65039406D01*
X150483788Y-65211637D01*
X150562444Y-65366009D01*
X150566004Y-65372994D01*
X150672447Y-65519501D01*
X150800499Y-65647553D01*
X150947006Y-65753996D01*
X151108361Y-65836211D01*
X151280591Y-65892171D01*
X151352136Y-65903502D01*
X151459451Y-65920500D01*
X151459454Y-65920500D01*
X151640549Y-65920500D01*
X151729977Y-65906335D01*
X151819409Y-65892171D01*
X151991639Y-65836211D01*
X152152994Y-65753996D01*
X152299501Y-65647553D01*
X152427553Y-65519501D01*
X152533996Y-65372994D01*
X152616211Y-65211639D01*
X152672171Y-65039409D01*
X152688403Y-64936923D01*
X152700500Y-64860549D01*
X152700500Y-64679450D01*
X152939500Y-64679450D01*
X152939500Y-64860549D01*
X152967828Y-65039406D01*
X153023788Y-65211637D01*
X153102444Y-65366009D01*
X153106004Y-65372994D01*
X153212447Y-65519501D01*
X153340499Y-65647553D01*
X153487006Y-65753996D01*
X153648361Y-65836211D01*
X153820591Y-65892171D01*
X153892136Y-65903502D01*
X153999451Y-65920500D01*
X153999454Y-65920500D01*
X154180549Y-65920500D01*
X154269977Y-65906335D01*
X154359409Y-65892171D01*
X154531639Y-65836211D01*
X154692994Y-65753996D01*
X154839501Y-65647553D01*
X154967553Y-65519501D01*
X155073996Y-65372994D01*
X155156211Y-65211639D01*
X155212171Y-65039409D01*
X155228403Y-64936923D01*
X155240500Y-64860549D01*
X155240500Y-64679489D01*
X155480000Y-64679489D01*
X155480000Y-64860510D01*
X155508316Y-65039289D01*
X155564250Y-65211440D01*
X155646432Y-65372730D01*
X155657911Y-65388531D01*
X156147036Y-64899406D01*
X156164075Y-64962993D01*
X156229901Y-65077007D01*
X156322993Y-65170099D01*
X156437007Y-65235925D01*
X156500591Y-65252962D01*
X156011466Y-65742087D01*
X156027266Y-65753566D01*
X156188559Y-65835749D01*
X156360710Y-65891683D01*
X156539490Y-65920000D01*
X156720510Y-65920000D01*
X156899289Y-65891683D01*
X157071440Y-65835749D01*
X157232730Y-65753568D01*
X157232735Y-65753564D01*
X157248532Y-65742087D01*
X157248532Y-65742086D01*
X156923889Y-65417443D01*
X173643200Y-65417443D01*
X173643200Y-65575557D01*
X173684123Y-65728284D01*
X173763180Y-65865216D01*
X173874984Y-65977020D01*
X174011916Y-66056077D01*
X174164643Y-66097000D01*
X174164645Y-66097000D01*
X174322755Y-66097000D01*
X174322757Y-66097000D01*
X174475484Y-66056077D01*
X174612416Y-65977020D01*
X174724220Y-65865216D01*
X174803277Y-65728284D01*
X174844200Y-65575557D01*
X174844200Y-65417443D01*
X174803277Y-65264716D01*
X174724220Y-65127784D01*
X174701566Y-65105130D01*
X196849500Y-65105130D01*
X196849500Y-66894860D01*
X196849501Y-66894863D01*
X196852414Y-66919990D01*
X196877756Y-66977385D01*
X196897794Y-67022765D01*
X196977235Y-67102206D01*
X197080009Y-67147585D01*
X197105135Y-67150500D01*
X198894864Y-67150499D01*
X198919991Y-67147585D01*
X199022765Y-67102206D01*
X199102206Y-67022765D01*
X199147585Y-66919991D01*
X199150500Y-66894865D01*
X199150499Y-65909450D01*
X199389500Y-65909450D01*
X199389500Y-66090549D01*
X199417828Y-66269406D01*
X199473788Y-66441637D01*
X199534652Y-66561090D01*
X199556004Y-66602994D01*
X199662447Y-66749501D01*
X199790499Y-66877553D01*
X199937006Y-66983996D01*
X200098361Y-67066211D01*
X200270591Y-67122171D01*
X200342136Y-67133502D01*
X200449451Y-67150500D01*
X200449454Y-67150500D01*
X200630549Y-67150500D01*
X200719977Y-67136335D01*
X200809409Y-67122171D01*
X200981639Y-67066211D01*
X201142994Y-66983996D01*
X201289501Y-66877553D01*
X201417553Y-66749501D01*
X201523996Y-66602994D01*
X201606211Y-66441639D01*
X201662171Y-66269409D01*
X201690500Y-66090546D01*
X201690500Y-65909454D01*
X201690500Y-65909450D01*
X201665810Y-65753566D01*
X201662171Y-65730591D01*
X201606211Y-65558361D01*
X201523996Y-65397006D01*
X201417553Y-65250499D01*
X201289501Y-65122447D01*
X201142994Y-65016004D01*
X201142993Y-65016003D01*
X201142991Y-65016002D01*
X201029858Y-64958358D01*
X200981637Y-64933788D01*
X200809406Y-64877828D01*
X200785451Y-64874034D01*
X212899500Y-64874034D01*
X212899500Y-65125965D01*
X212938908Y-65374780D01*
X213016759Y-65614379D01*
X213129787Y-65836211D01*
X213131130Y-65838845D01*
X213279207Y-66042656D01*
X213457344Y-66220793D01*
X213661155Y-66368870D01*
X213885621Y-66483241D01*
X214125215Y-66561090D01*
X214125216Y-66561090D01*
X214125219Y-66561091D01*
X214374035Y-66600500D01*
X214374038Y-66600500D01*
X214625965Y-66600500D01*
X214874780Y-66561091D01*
X214874781Y-66561090D01*
X214874785Y-66561090D01*
X215114379Y-66483241D01*
X215338845Y-66368870D01*
X215542656Y-66220793D01*
X215720793Y-66042656D01*
X215868870Y-65838845D01*
X215983241Y-65614379D01*
X216061090Y-65374785D01*
X216061415Y-65372735D01*
X216100500Y-65125965D01*
X216100500Y-64874034D01*
X216061091Y-64625219D01*
X216045426Y-64577007D01*
X215983241Y-64385621D01*
X215868870Y-64161155D01*
X215720793Y-63957344D01*
X215542656Y-63779207D01*
X215338845Y-63631130D01*
X215338844Y-63631129D01*
X215338842Y-63631128D01*
X215114379Y-63516759D01*
X214874780Y-63438908D01*
X214625965Y-63399500D01*
X214625962Y-63399500D01*
X214374038Y-63399500D01*
X214374035Y-63399500D01*
X214125219Y-63438908D01*
X213885620Y-63516759D01*
X213661157Y-63631128D01*
X213457345Y-63779206D01*
X213279206Y-63957345D01*
X213131128Y-64161157D01*
X213016759Y-64385620D01*
X212938908Y-64625219D01*
X212899500Y-64874034D01*
X200785451Y-64874034D01*
X200630549Y-64849500D01*
X200630546Y-64849500D01*
X200449454Y-64849500D01*
X200449451Y-64849500D01*
X200270593Y-64877828D01*
X200098362Y-64933788D01*
X199937008Y-65016002D01*
X199874950Y-65061090D01*
X199790499Y-65122447D01*
X199662447Y-65250499D01*
X199652118Y-65264716D01*
X199556002Y-65397008D01*
X199473788Y-65558362D01*
X199417828Y-65730593D01*
X199389500Y-65909450D01*
X199150499Y-65909450D01*
X199150499Y-65105136D01*
X199147585Y-65080009D01*
X199102206Y-64977235D01*
X199022765Y-64897794D01*
X198919991Y-64852415D01*
X198919990Y-64852414D01*
X198919988Y-64852414D01*
X198894868Y-64849500D01*
X197105139Y-64849500D01*
X197105136Y-64849501D01*
X197080009Y-64852414D01*
X196977235Y-64897794D01*
X196897794Y-64977235D01*
X196852414Y-65080011D01*
X196849500Y-65105130D01*
X174701566Y-65105130D01*
X174612416Y-65015980D01*
X174475484Y-64936923D01*
X174322757Y-64896000D01*
X174164643Y-64896000D01*
X174011916Y-64936923D01*
X173874984Y-65015980D01*
X173763180Y-65127784D01*
X173684123Y-65264716D01*
X173643200Y-65417443D01*
X156923889Y-65417443D01*
X156759408Y-65252962D01*
X156822993Y-65235925D01*
X156937007Y-65170099D01*
X157030099Y-65077007D01*
X157095925Y-64962993D01*
X157112962Y-64899408D01*
X157602086Y-65388532D01*
X157602087Y-65388532D01*
X157613564Y-65372735D01*
X157613568Y-65372730D01*
X157616993Y-65366009D01*
X157695749Y-65211440D01*
X157751683Y-65039289D01*
X157780000Y-64860510D01*
X157780000Y-64679489D01*
X157751683Y-64500710D01*
X157695749Y-64328559D01*
X157613566Y-64167266D01*
X157602087Y-64151466D01*
X157112962Y-64640591D01*
X157095925Y-64577007D01*
X157030099Y-64462993D01*
X156937007Y-64369901D01*
X156822993Y-64304075D01*
X156759406Y-64287036D01*
X157248532Y-63797911D01*
X157232730Y-63786432D01*
X157071440Y-63704250D01*
X156899289Y-63648316D01*
X156720510Y-63620000D01*
X156539490Y-63620000D01*
X156360710Y-63648316D01*
X156188559Y-63704250D01*
X156027264Y-63786434D01*
X156011466Y-63797911D01*
X156500592Y-64287037D01*
X156437007Y-64304075D01*
X156322993Y-64369901D01*
X156229901Y-64462993D01*
X156164075Y-64577007D01*
X156147037Y-64640592D01*
X155657911Y-64151466D01*
X155646434Y-64167264D01*
X155564250Y-64328559D01*
X155508316Y-64500710D01*
X155480000Y-64679489D01*
X155240500Y-64679489D01*
X155240500Y-64679450D01*
X155212171Y-64500593D01*
X155212171Y-64500591D01*
X155156211Y-64328361D01*
X155073996Y-64167006D01*
X154967553Y-64020499D01*
X154839501Y-63892447D01*
X154692994Y-63786004D01*
X154692993Y-63786003D01*
X154692991Y-63786002D01*
X154531637Y-63703788D01*
X154359406Y-63647828D01*
X154180549Y-63619500D01*
X154180546Y-63619500D01*
X153999454Y-63619500D01*
X153999451Y-63619500D01*
X153820593Y-63647828D01*
X153648362Y-63703788D01*
X153487008Y-63786002D01*
X153470617Y-63797911D01*
X153340499Y-63892447D01*
X153212447Y-64020499D01*
X153159225Y-64093752D01*
X153106002Y-64167008D01*
X153023788Y-64328362D01*
X152967828Y-64500593D01*
X152939500Y-64679450D01*
X152700500Y-64679450D01*
X152672171Y-64500593D01*
X152672171Y-64500591D01*
X152616211Y-64328361D01*
X152533996Y-64167006D01*
X152427553Y-64020499D01*
X152299501Y-63892447D01*
X152152994Y-63786004D01*
X152152993Y-63786003D01*
X152152991Y-63786002D01*
X151991637Y-63703788D01*
X151819406Y-63647828D01*
X151640549Y-63619500D01*
X151640546Y-63619500D01*
X151459454Y-63619500D01*
X151459451Y-63619500D01*
X151280593Y-63647828D01*
X151108362Y-63703788D01*
X150947008Y-63786002D01*
X150930617Y-63797911D01*
X150800499Y-63892447D01*
X150672447Y-64020499D01*
X150619225Y-64093752D01*
X150566002Y-64167008D01*
X150483788Y-64328362D01*
X150427828Y-64500593D01*
X150399500Y-64679450D01*
X150160500Y-64679450D01*
X150132171Y-64500593D01*
X150132171Y-64500591D01*
X150076211Y-64328361D01*
X149993996Y-64167006D01*
X149887553Y-64020499D01*
X149759501Y-63892447D01*
X149612994Y-63786004D01*
X149612993Y-63786003D01*
X149612991Y-63786002D01*
X149451637Y-63703788D01*
X149279406Y-63647828D01*
X149100549Y-63619500D01*
X149100546Y-63619500D01*
X148919454Y-63619500D01*
X148919451Y-63619500D01*
X148740593Y-63647828D01*
X148568362Y-63703788D01*
X148407008Y-63786002D01*
X148390617Y-63797911D01*
X148260499Y-63892447D01*
X148132447Y-64020499D01*
X148079225Y-64093752D01*
X148026002Y-64167008D01*
X147943788Y-64328362D01*
X147887828Y-64500593D01*
X147859500Y-64679450D01*
X147620500Y-64679450D01*
X147592171Y-64500593D01*
X147592171Y-64500591D01*
X147536211Y-64328361D01*
X147453996Y-64167006D01*
X147347553Y-64020499D01*
X147219501Y-63892447D01*
X147072994Y-63786004D01*
X147072993Y-63786003D01*
X147072991Y-63786002D01*
X146911637Y-63703788D01*
X146739406Y-63647828D01*
X146560549Y-63619500D01*
X146560546Y-63619500D01*
X146379454Y-63619500D01*
X146379451Y-63619500D01*
X146200593Y-63647828D01*
X146028362Y-63703788D01*
X145867008Y-63786002D01*
X145850617Y-63797911D01*
X145720499Y-63892447D01*
X145592447Y-64020499D01*
X145539225Y-64093752D01*
X145486002Y-64167008D01*
X145403788Y-64328362D01*
X145347828Y-64500593D01*
X145319500Y-64679450D01*
X145080500Y-64679450D01*
X145052171Y-64500593D01*
X145052171Y-64500591D01*
X144996211Y-64328361D01*
X144913996Y-64167006D01*
X144807553Y-64020499D01*
X144679501Y-63892447D01*
X144532994Y-63786004D01*
X144532993Y-63786003D01*
X144532991Y-63786002D01*
X144371637Y-63703788D01*
X144199406Y-63647828D01*
X144020549Y-63619500D01*
X144020546Y-63619500D01*
X143839454Y-63619500D01*
X143839451Y-63619500D01*
X143660593Y-63647828D01*
X143488362Y-63703788D01*
X143327008Y-63786002D01*
X143310617Y-63797911D01*
X143180499Y-63892447D01*
X143052447Y-64020499D01*
X142999225Y-64093752D01*
X142946002Y-64167008D01*
X142863788Y-64328362D01*
X142807828Y-64500593D01*
X142779500Y-64679450D01*
X142540500Y-64679450D01*
X142512171Y-64500593D01*
X142512171Y-64500591D01*
X142456211Y-64328361D01*
X142373996Y-64167006D01*
X142267553Y-64020499D01*
X142139501Y-63892447D01*
X141992994Y-63786004D01*
X141992993Y-63786003D01*
X141992991Y-63786002D01*
X141831637Y-63703788D01*
X141659406Y-63647828D01*
X141480549Y-63619500D01*
X141480546Y-63619500D01*
X141299454Y-63619500D01*
X141299451Y-63619500D01*
X141120593Y-63647828D01*
X140948362Y-63703788D01*
X140787008Y-63786002D01*
X140770617Y-63797911D01*
X140640499Y-63892447D01*
X140512447Y-64020499D01*
X140459225Y-64093752D01*
X140406002Y-64167008D01*
X140323788Y-64328362D01*
X140267828Y-64500593D01*
X140239500Y-64679450D01*
X139999994Y-64679450D01*
X139971683Y-64500710D01*
X139915749Y-64328559D01*
X139833566Y-64167266D01*
X139822087Y-64151466D01*
X139332962Y-64640591D01*
X139315925Y-64577007D01*
X139250099Y-64462993D01*
X139157007Y-64369901D01*
X139042993Y-64304075D01*
X138979406Y-64287036D01*
X139468532Y-63797911D01*
X139452730Y-63786432D01*
X139291440Y-63704250D01*
X139119289Y-63648316D01*
X138940510Y-63620000D01*
X138759490Y-63620000D01*
X138580710Y-63648316D01*
X138408559Y-63704250D01*
X138247264Y-63786434D01*
X138231466Y-63797911D01*
X138720592Y-64287037D01*
X138657007Y-64304075D01*
X138542993Y-64369901D01*
X138449901Y-64462993D01*
X138384075Y-64577007D01*
X138367037Y-64640592D01*
X137877911Y-64151466D01*
X137866434Y-64167264D01*
X137784250Y-64328559D01*
X137728316Y-64500710D01*
X137700000Y-64679489D01*
X137460500Y-64679489D01*
X137460500Y-64679450D01*
X137432171Y-64500593D01*
X137432171Y-64500591D01*
X137376211Y-64328361D01*
X137293996Y-64167006D01*
X137187553Y-64020499D01*
X137059501Y-63892447D01*
X136912994Y-63786004D01*
X136912993Y-63786003D01*
X136912991Y-63786002D01*
X136751637Y-63703788D01*
X136579406Y-63647828D01*
X136400549Y-63619500D01*
X136400546Y-63619500D01*
X136219454Y-63619500D01*
X136219451Y-63619500D01*
X136040593Y-63647828D01*
X135868362Y-63703788D01*
X135707008Y-63786002D01*
X135690617Y-63797911D01*
X135560499Y-63892447D01*
X135432447Y-64020499D01*
X135379225Y-64093752D01*
X135326002Y-64167008D01*
X135243788Y-64328362D01*
X135187828Y-64500593D01*
X135159500Y-64679450D01*
X134920500Y-64679450D01*
X134892171Y-64500593D01*
X134892171Y-64500591D01*
X134836211Y-64328361D01*
X134753996Y-64167006D01*
X134647553Y-64020499D01*
X134519501Y-63892447D01*
X134372994Y-63786004D01*
X134372993Y-63786003D01*
X134372991Y-63786002D01*
X134211637Y-63703788D01*
X134039406Y-63647828D01*
X133860549Y-63619500D01*
X133860546Y-63619500D01*
X133679454Y-63619500D01*
X133679451Y-63619500D01*
X133500593Y-63647828D01*
X133328362Y-63703788D01*
X133167008Y-63786002D01*
X133150617Y-63797911D01*
X133020499Y-63892447D01*
X132892447Y-64020499D01*
X132839225Y-64093752D01*
X132786002Y-64167008D01*
X132703788Y-64328362D01*
X132647828Y-64500593D01*
X132619500Y-64679450D01*
X132380500Y-64679450D01*
X132352171Y-64500593D01*
X132352171Y-64500591D01*
X132296211Y-64328361D01*
X132213996Y-64167006D01*
X132107553Y-64020499D01*
X131979501Y-63892447D01*
X131832994Y-63786004D01*
X131832993Y-63786003D01*
X131832991Y-63786002D01*
X131671637Y-63703788D01*
X131499406Y-63647828D01*
X131320549Y-63619500D01*
X131320546Y-63619500D01*
X131139454Y-63619500D01*
X131139451Y-63619500D01*
X130960593Y-63647828D01*
X130788362Y-63703788D01*
X130627008Y-63786002D01*
X130610617Y-63797911D01*
X130480499Y-63892447D01*
X130352447Y-64020499D01*
X130299225Y-64093752D01*
X130246002Y-64167008D01*
X130163788Y-64328362D01*
X130107828Y-64500593D01*
X130079500Y-64679450D01*
X129840500Y-64679450D01*
X129812171Y-64500593D01*
X129812171Y-64500591D01*
X129756211Y-64328361D01*
X129673996Y-64167006D01*
X129567553Y-64020499D01*
X129439501Y-63892447D01*
X129292994Y-63786004D01*
X129292993Y-63786003D01*
X129292991Y-63786002D01*
X129131637Y-63703788D01*
X128959406Y-63647828D01*
X128780549Y-63619500D01*
X128780546Y-63619500D01*
X128599454Y-63619500D01*
X128599451Y-63619500D01*
X128420593Y-63647828D01*
X128248362Y-63703788D01*
X128087008Y-63786002D01*
X128070617Y-63797911D01*
X127940499Y-63892447D01*
X127812447Y-64020499D01*
X127759225Y-64093752D01*
X127706002Y-64167008D01*
X127623788Y-64328362D01*
X127567828Y-64500593D01*
X127539500Y-64679450D01*
X127300500Y-64679450D01*
X127272171Y-64500593D01*
X127272171Y-64500591D01*
X127216211Y-64328361D01*
X127133996Y-64167006D01*
X127027553Y-64020499D01*
X126899501Y-63892447D01*
X126752994Y-63786004D01*
X126752993Y-63786003D01*
X126752991Y-63786002D01*
X126591637Y-63703788D01*
X126419406Y-63647828D01*
X126240549Y-63619500D01*
X126240546Y-63619500D01*
X126059454Y-63619500D01*
X126059451Y-63619500D01*
X125880593Y-63647828D01*
X125708362Y-63703788D01*
X125547008Y-63786002D01*
X125530617Y-63797911D01*
X125400499Y-63892447D01*
X125272447Y-64020499D01*
X125219225Y-64093752D01*
X125166002Y-64167008D01*
X125083788Y-64328362D01*
X125027828Y-64500593D01*
X124999500Y-64679450D01*
X124760500Y-64679450D01*
X124732171Y-64500593D01*
X124732171Y-64500591D01*
X124676211Y-64328361D01*
X124593996Y-64167006D01*
X124487553Y-64020499D01*
X124359501Y-63892447D01*
X124212994Y-63786004D01*
X124212993Y-63786003D01*
X124212991Y-63786002D01*
X124051637Y-63703788D01*
X123879406Y-63647828D01*
X123700549Y-63619500D01*
X123700546Y-63619500D01*
X123519454Y-63619500D01*
X123519451Y-63619500D01*
X123340593Y-63647828D01*
X123168362Y-63703788D01*
X123007008Y-63786002D01*
X122990617Y-63797911D01*
X122860499Y-63892447D01*
X122732447Y-64020499D01*
X122679225Y-64093752D01*
X122626002Y-64167008D01*
X122543788Y-64328362D01*
X122487828Y-64500593D01*
X122459500Y-64679450D01*
X122220500Y-64679450D01*
X122192171Y-64500593D01*
X122192171Y-64500591D01*
X122136211Y-64328361D01*
X122053996Y-64167006D01*
X121947553Y-64020499D01*
X121819501Y-63892447D01*
X121672994Y-63786004D01*
X121672993Y-63786003D01*
X121672991Y-63786002D01*
X121511637Y-63703788D01*
X121339406Y-63647828D01*
X121160549Y-63619500D01*
X121160546Y-63619500D01*
X120979454Y-63619500D01*
X120979451Y-63619500D01*
X120800593Y-63647828D01*
X120628362Y-63703788D01*
X120467008Y-63786002D01*
X120450617Y-63797911D01*
X120320499Y-63892447D01*
X120192447Y-64020499D01*
X120139225Y-64093752D01*
X120086002Y-64167008D01*
X120003788Y-64328362D01*
X119947828Y-64500593D01*
X119919500Y-64679450D01*
X119679994Y-64679450D01*
X119651683Y-64500710D01*
X119595749Y-64328559D01*
X119513566Y-64167266D01*
X119502087Y-64151466D01*
X119012962Y-64640591D01*
X118995925Y-64577007D01*
X118930099Y-64462993D01*
X118837007Y-64369901D01*
X118722993Y-64304075D01*
X118659406Y-64287036D01*
X119148532Y-63797911D01*
X119132730Y-63786432D01*
X118971440Y-63704250D01*
X118799289Y-63648316D01*
X118620510Y-63620000D01*
X118439490Y-63620000D01*
X118260710Y-63648316D01*
X118088559Y-63704250D01*
X117927264Y-63786434D01*
X117911466Y-63797911D01*
X118400592Y-64287037D01*
X118337007Y-64304075D01*
X118222993Y-64369901D01*
X118129901Y-64462993D01*
X118064075Y-64577007D01*
X118047037Y-64640592D01*
X117557911Y-64151466D01*
X117546434Y-64167264D01*
X117464250Y-64328559D01*
X117408316Y-64500710D01*
X117380000Y-64679489D01*
X117140500Y-64679489D01*
X117140500Y-64679450D01*
X117112171Y-64500593D01*
X117112171Y-64500591D01*
X117056211Y-64328361D01*
X116973996Y-64167006D01*
X116867553Y-64020499D01*
X116739501Y-63892447D01*
X116592994Y-63786004D01*
X116592993Y-63786003D01*
X116592991Y-63786002D01*
X116431637Y-63703788D01*
X116259406Y-63647828D01*
X116080549Y-63619500D01*
X116080546Y-63619500D01*
X115899454Y-63619500D01*
X115899451Y-63619500D01*
X115720593Y-63647828D01*
X115548362Y-63703788D01*
X115387008Y-63786002D01*
X115370617Y-63797911D01*
X115240499Y-63892447D01*
X115112447Y-64020499D01*
X115059225Y-64093752D01*
X115006002Y-64167008D01*
X114923788Y-64328362D01*
X114867828Y-64500593D01*
X114839500Y-64679450D01*
X114600500Y-64679450D01*
X114572171Y-64500593D01*
X114572171Y-64500591D01*
X114516211Y-64328361D01*
X114433996Y-64167006D01*
X114327553Y-64020499D01*
X114199501Y-63892447D01*
X114052994Y-63786004D01*
X114052993Y-63786003D01*
X114052991Y-63786002D01*
X113891637Y-63703788D01*
X113719406Y-63647828D01*
X113540549Y-63619500D01*
X113540546Y-63619500D01*
X113359454Y-63619500D01*
X113359451Y-63619500D01*
X113180593Y-63647828D01*
X113008362Y-63703788D01*
X112847008Y-63786002D01*
X112830617Y-63797911D01*
X112700499Y-63892447D01*
X112572447Y-64020499D01*
X112519225Y-64093752D01*
X112466002Y-64167008D01*
X112383788Y-64328362D01*
X112327828Y-64500593D01*
X112299500Y-64679450D01*
X112060500Y-64679450D01*
X112032171Y-64500593D01*
X112032171Y-64500591D01*
X111976211Y-64328361D01*
X111893996Y-64167006D01*
X111787553Y-64020499D01*
X111659501Y-63892447D01*
X111512994Y-63786004D01*
X111512993Y-63786003D01*
X111512991Y-63786002D01*
X111351637Y-63703788D01*
X111179406Y-63647828D01*
X111000549Y-63619500D01*
X111000546Y-63619500D01*
X110819454Y-63619500D01*
X110819451Y-63619500D01*
X110640593Y-63647828D01*
X110468362Y-63703788D01*
X110307008Y-63786002D01*
X110290617Y-63797911D01*
X110160499Y-63892447D01*
X110032447Y-64020499D01*
X109979225Y-64093752D01*
X109926002Y-64167008D01*
X109843788Y-64328362D01*
X109787828Y-64500593D01*
X109759500Y-64679450D01*
X109520499Y-64679450D01*
X109520499Y-63875136D01*
X109517585Y-63850009D01*
X109472206Y-63747235D01*
X109392765Y-63667794D01*
X109289991Y-63622415D01*
X109289990Y-63622414D01*
X109289988Y-63622414D01*
X109264868Y-63619500D01*
X107475139Y-63619500D01*
X107475136Y-63619501D01*
X107450009Y-63622414D01*
X107347235Y-63667794D01*
X107267794Y-63747235D01*
X107222414Y-63850011D01*
X107219500Y-63875130D01*
X105060978Y-63875130D01*
X105061090Y-63874785D01*
X105062638Y-63865008D01*
X105063941Y-63856788D01*
X105063941Y-63856787D01*
X105100500Y-63625965D01*
X105100500Y-63374034D01*
X159899500Y-63374034D01*
X159899500Y-63625965D01*
X159938908Y-63874780D01*
X160016759Y-64114379D01*
X160125788Y-64328362D01*
X160131130Y-64338845D01*
X160279207Y-64542656D01*
X160457344Y-64720793D01*
X160661155Y-64868870D01*
X160885621Y-64983241D01*
X161125215Y-65061090D01*
X161125216Y-65061090D01*
X161125219Y-65061091D01*
X161374035Y-65100500D01*
X161374038Y-65100500D01*
X161625965Y-65100500D01*
X161874780Y-65061091D01*
X161874781Y-65061090D01*
X161874785Y-65061090D01*
X162114379Y-64983241D01*
X162338845Y-64868870D01*
X162542656Y-64720793D01*
X162720793Y-64542656D01*
X162868870Y-64338845D01*
X162983241Y-64114379D01*
X163061090Y-63874785D01*
X163061091Y-63874780D01*
X163100500Y-63625965D01*
X163100500Y-63374034D01*
X163061091Y-63125219D01*
X163061090Y-63125215D01*
X162983241Y-62885621D01*
X162868870Y-62661155D01*
X162720793Y-62457344D01*
X162542656Y-62279207D01*
X162338845Y-62131130D01*
X162338844Y-62131129D01*
X162338842Y-62131128D01*
X162114379Y-62016759D01*
X161874780Y-61938908D01*
X161625965Y-61899500D01*
X161625962Y-61899500D01*
X161374038Y-61899500D01*
X161374035Y-61899500D01*
X161125219Y-61938908D01*
X160885620Y-62016759D01*
X160661157Y-62131128D01*
X160457345Y-62279206D01*
X160279206Y-62457345D01*
X160131128Y-62661157D01*
X160016759Y-62885620D01*
X159938908Y-63125219D01*
X159899500Y-63374034D01*
X105100500Y-63374034D01*
X105061091Y-63125219D01*
X105061090Y-63125215D01*
X104983241Y-62885621D01*
X104868870Y-62661155D01*
X104720793Y-62457344D01*
X104542656Y-62279207D01*
X104338845Y-62131130D01*
X104338844Y-62131129D01*
X104338842Y-62131128D01*
X104114379Y-62016759D01*
X103874780Y-61938908D01*
X103625965Y-61899500D01*
X103625962Y-61899500D01*
X103374038Y-61899500D01*
X103374035Y-61899500D01*
X103125219Y-61938908D01*
X102885620Y-62016759D01*
X102661157Y-62131128D01*
X102457345Y-62279206D01*
X102279206Y-62457345D01*
X102131128Y-62661157D01*
X102016759Y-62885620D01*
X101938908Y-63125219D01*
X101899500Y-63374034D01*
X100500500Y-63374034D01*
X100500500Y-60599500D01*
X100519407Y-60541309D01*
X100568907Y-60505345D01*
X100599500Y-60500500D01*
X217400500Y-60500500D01*
X217458691Y-60519407D01*
G37*
%TD.AperFunction*%
%TD*%
M02*
