%TF.GenerationSoftware,KiCad,Pcbnew,9.0.2+dfsg-1*%
%TF.CreationDate,2026-07-31T08:33:59+02:00*%
%TF.ProjectId,AskSin-Analyzer-V3,41736b53-696e-42d4-916e-616c797a6572,rev?*%
%TF.SameCoordinates,Original*%
%TF.FileFunction,Paste,Top*%
%TF.FilePolarity,Positive*%
%FSLAX46Y46*%
G04 Gerber Fmt 4.6, Leading zero omitted, Abs format (unit mm)*
G04 Created by KiCad (PCBNEW 9.0.2+dfsg-1) date 2026-07-31 08:33:59*
%MOMM*%
%LPD*%
G01*
G04 APERTURE LIST*
G04 Aperture macros list*
%AMRoundRect*
0 Rectangle with rounded corners*
0 $1 Rounding radius*
0 $2 $3 $4 $5 $6 $7 $8 $9 X,Y pos of 4 corners*
0 Add a 4 corners polygon primitive as box body*
4,1,4,$2,$3,$4,$5,$6,$7,$8,$9,$2,$3,0*
0 Add four circle primitives for the rounded corners*
1,1,$1+$1,$2,$3*
1,1,$1+$1,$4,$5*
1,1,$1+$1,$6,$7*
1,1,$1+$1,$8,$9*
0 Add four rect primitives between the rounded corners*
20,1,$1+$1,$2,$3,$4,$5,0*
20,1,$1+$1,$4,$5,$6,$7,0*
20,1,$1+$1,$6,$7,$8,$9,0*
20,1,$1+$1,$8,$9,$2,$3,0*%
G04 Aperture macros list end*
%ADD10R,0.900000X1.700000*%
%ADD11RoundRect,0.250000X-0.337500X-0.475000X0.337500X-0.475000X0.337500X0.475000X-0.337500X0.475000X0*%
%ADD12RoundRect,0.250000X-0.350000X-0.450000X0.350000X-0.450000X0.350000X0.450000X-0.350000X0.450000X0*%
%ADD13R,1.800000X0.800000*%
%ADD14RoundRect,0.250000X-0.325000X-0.450000X0.325000X-0.450000X0.325000X0.450000X-0.325000X0.450000X0*%
%ADD15RoundRect,0.250000X0.475000X-0.337500X0.475000X0.337500X-0.475000X0.337500X-0.475000X-0.337500X0*%
%ADD16RoundRect,0.150000X-0.587500X-0.150000X0.587500X-0.150000X0.587500X0.150000X-0.587500X0.150000X0*%
%ADD17RoundRect,0.137500X-0.600000X-0.137500X0.600000X-0.137500X0.600000X0.137500X-0.600000X0.137500X0*%
%ADD18RoundRect,0.137500X-0.137500X-0.600000X0.137500X-0.600000X0.137500X0.600000X-0.137500X0.600000X0*%
%ADD19RoundRect,0.250000X0.375000X1.000000X-0.375000X1.000000X-0.375000X-1.000000X0.375000X-1.000000X0*%
%ADD20RoundRect,0.250000X0.450000X-0.350000X0.450000X0.350000X-0.450000X0.350000X-0.450000X-0.350000X0*%
G04 APERTURE END LIST*
D10*
%TO.C,S1*%
X150300000Y-71000000D03*
X153700000Y-71000000D03*
%TD*%
D11*
%TO.C,C8*%
X126962500Y-73000000D03*
X129037500Y-73000000D03*
%TD*%
D12*
%TO.C,R2*%
X127000000Y-69000000D03*
X129000000Y-69000000D03*
%TD*%
%TO.C,R1*%
X139000000Y-71000000D03*
X141000000Y-71000000D03*
%TD*%
D11*
%TO.C,C1*%
X143962500Y-64000000D03*
X146037500Y-64000000D03*
%TD*%
D13*
%TO.C,U3*%
X123300000Y-102000000D03*
X123300000Y-100730000D03*
X123300000Y-99460000D03*
X123300000Y-93890000D03*
X123300000Y-92620000D03*
X123300000Y-91350000D03*
X123300000Y-90080000D03*
X123300000Y-88810000D03*
X123300000Y-87540000D03*
X123300000Y-86270000D03*
X123300000Y-85000000D03*
X108700000Y-85000000D03*
X108700000Y-86270000D03*
X108700000Y-87540000D03*
X108700000Y-88810000D03*
X108700000Y-90080000D03*
X108700000Y-91350000D03*
X108700000Y-92620000D03*
X108700000Y-93890000D03*
X108700000Y-99460000D03*
X108700000Y-100730000D03*
X108700000Y-102000000D03*
%TD*%
D14*
%TO.C,D1*%
X143975000Y-71000000D03*
X146025000Y-71000000D03*
%TD*%
%TO.C,L1*%
X148975000Y-64000000D03*
X151025000Y-64000000D03*
%TD*%
D15*
%TO.C,C5*%
X128000000Y-85037500D03*
X128000000Y-82962500D03*
%TD*%
D11*
%TO.C,C4*%
X120962500Y-73000000D03*
X123037500Y-73000000D03*
%TD*%
D16*
%TO.C,U1*%
X139062500Y-63050000D03*
X139062500Y-64950000D03*
X140937500Y-64000000D03*
%TD*%
D11*
%TO.C,C9*%
X128462500Y-64000000D03*
X130537500Y-64000000D03*
%TD*%
D12*
%TO.C,R4*%
X163000000Y-72000000D03*
X165000000Y-72000000D03*
%TD*%
D11*
%TO.C,C3*%
X120962500Y-69000000D03*
X123037500Y-69000000D03*
%TD*%
D17*
%TO.C,U2*%
X107837500Y-67200000D03*
X107837500Y-68000000D03*
X107837500Y-68800000D03*
X107837500Y-69600000D03*
X107837500Y-70400000D03*
X107837500Y-71200000D03*
X107837500Y-72000000D03*
X107837500Y-72800000D03*
D18*
X109200000Y-74162500D03*
X110000000Y-74162500D03*
X110800000Y-74162500D03*
X111600000Y-74162500D03*
X112400000Y-74162500D03*
X113200000Y-74162500D03*
X114000000Y-74162500D03*
X114800000Y-74162500D03*
D17*
X116162500Y-72800000D03*
X116162500Y-72000000D03*
X116162500Y-71200000D03*
X116162500Y-70400000D03*
X116162500Y-69600000D03*
X116162500Y-68800000D03*
X116162500Y-68000000D03*
X116162500Y-67200000D03*
D18*
X114800000Y-65837500D03*
X114000000Y-65837500D03*
X113200000Y-65837500D03*
X112400000Y-65837500D03*
X111600000Y-65837500D03*
X110800000Y-65837500D03*
X110000000Y-65837500D03*
X109200000Y-65837500D03*
%TD*%
D19*
%TO.C,SW1*%
X166500000Y-67750000D03*
X164000000Y-67750000D03*
X161500000Y-67750000D03*
%TD*%
D20*
%TO.C,R3*%
X128000000Y-90000000D03*
X128000000Y-88000000D03*
%TD*%
D11*
%TO.C,C2*%
X153962500Y-64000000D03*
X156037500Y-64000000D03*
%TD*%
M02*
