%TF.GenerationSoftware,KiCad,Pcbnew,9.0.2+dfsg-1*%
%TF.CreationDate,2026-07-30T16:05:10+02:00*%
%TF.ProjectId,AskSin-Analyzer-V3,41736b53-696e-42d4-916e-616c797a6572,rev?*%
%TF.SameCoordinates,Original*%
%TF.FileFunction,Copper,L4,Bot*%
%TF.FilePolarity,Positive*%
%FSLAX46Y46*%
G04 Gerber Fmt 4.6, Leading zero omitted, Abs format (unit mm)*
G04 Created by KiCad (PCBNEW 9.0.2+dfsg-1) date 2026-07-30 16:05:10*
%MOMM*%
%LPD*%
G01*
G04 APERTURE LIST*
G04 Aperture macros list*
%AMRoundRect*
0 Rectangle with rounded corners*
0 $1 Rounding radius*
0 $2 $3 $4 $5 $6 $7 $8 $9 X,Y pos of 4 corners*
0 Add a 4 corners polygon primitive as box body*
4,1,4,$2,$3,$4,$5,$6,$7,$8,$9,$2,$3,0*
0 Add four circle primitives for the rounded corners*
1,1,$1+$1,$2,$3*
1,1,$1+$1,$4,$5*
1,1,$1+$1,$6,$7*
1,1,$1+$1,$8,$9*
0 Add four rect primitives between the rounded corners*
20,1,$1+$1,$2,$3,$4,$5,0*
20,1,$1+$1,$4,$5,$6,$7,0*
20,1,$1+$1,$6,$7,$8,$9,0*
20,1,$1+$1,$8,$9,$2,$3,0*%
G04 Aperture macros list end*
%TA.AperFunction,ComponentPad*%
%ADD10RoundRect,0.250000X0.625000X-0.350000X0.625000X0.350000X-0.625000X0.350000X-0.625000X-0.350000X0*%
%TD*%
%TA.AperFunction,ComponentPad*%
%ADD11O,1.750000X1.200000*%
%TD*%
%TA.AperFunction,ComponentPad*%
%ADD12R,1.700000X1.700000*%
%TD*%
%TA.AperFunction,ComponentPad*%
%ADD13C,1.700000*%
%TD*%
%TA.AperFunction,ViaPad*%
%ADD14C,0.600000*%
%TD*%
%TA.AperFunction,Conductor*%
%ADD15C,0.200000*%
%TD*%
%TA.AperFunction,Conductor*%
%ADD16C,0.250000*%
%TD*%
G04 APERTURE END LIST*
D10*
%TO.P,J7,1*%
%TO.N,PI_3V3*%
X177500000Y-88500000D03*
D11*
%TO.P,J7,2*%
%TO.N,WS_DATA*%
X177500000Y-86500000D03*
%TO.P,J7,3*%
%TO.N,GND*%
X177500000Y-84500000D03*
%TD*%
D10*
%TO.P,J6,1*%
%TO.N,BTN*%
X177500000Y-79000000D03*
D11*
%TO.P,J6,2*%
%TO.N,GND*%
X177500000Y-77000000D03*
%TD*%
D10*
%TO.P,J5,1*%
%TO.N,GND*%
X177500000Y-69500000D03*
D11*
%TO.P,J5,2*%
%TO.N,PI_3V3*%
X177500000Y-67500000D03*
%TO.P,J5,3*%
%TO.N,I2C_SCL*%
X177500000Y-65500000D03*
%TO.P,J5,4*%
%TO.N,I2C_SDA*%
X177500000Y-63500000D03*
%TD*%
D12*
%TO.P,J2,1*%
%TO.N,MISO*%
X150000000Y-78000000D03*
D13*
%TO.P,J2,2*%
%TO.N,+3V3*%
X152540000Y-78000000D03*
%TO.P,J2,3*%
%TO.N,SCK*%
X150000000Y-80540000D03*
%TO.P,J2,4*%
%TO.N,MOSI*%
X152540000Y-80540000D03*
%TO.P,J2,5*%
%TO.N,RESET*%
X150000000Y-83080000D03*
%TO.P,J2,6*%
%TO.N,GND*%
X152540000Y-83080000D03*
%TD*%
%TO.P,Y1,1*%
%TO.N,XTAL1*%
X127000000Y-75000000D03*
%TO.P,Y1,2*%
%TO.N,GND*%
X127000000Y-72500000D03*
%TO.P,Y1,3*%
%TO.N,XTAL2*%
X127000000Y-70000000D03*
%TD*%
D12*
%TO.P,J1,1*%
%TO.N,PI_3V3*%
X128370000Y-98770000D03*
D13*
%TO.P,J1,2*%
%TO.N,+5V*%
X128370000Y-96230000D03*
%TO.P,J1,3*%
%TO.N,I2C_SDA*%
X130910000Y-98770000D03*
%TO.P,J1,4*%
%TO.N,+5V*%
X130910000Y-96230000D03*
%TO.P,J1,5*%
%TO.N,I2C_SCL*%
X133450000Y-98770000D03*
%TO.P,J1,6*%
%TO.N,GND*%
X133450000Y-96230000D03*
%TO.P,J1,7*%
%TO.N,PI_RESET_DRV*%
X135990000Y-98770000D03*
%TO.P,J1,8*%
%TO.N,UART_PI_TX*%
X135990000Y-96230000D03*
%TO.P,J1,9*%
%TO.N,GND*%
X138530000Y-98770000D03*
%TO.P,J1,10*%
%TO.N,UART_328_TX*%
X138530000Y-96230000D03*
%TO.P,J1,11*%
%TO.N,BTN*%
X141070000Y-98770000D03*
%TO.P,J1,12*%
%TO.N,LED_PWM*%
X141070000Y-96230000D03*
%TO.P,J1,13*%
%TO.N,N/C*%
X143610000Y-98770000D03*
%TO.P,J1,14*%
%TO.N,GND*%
X143610000Y-96230000D03*
%TO.P,J1,15*%
%TO.N,N/C*%
X146150000Y-98770000D03*
%TO.P,J1,16*%
X146150000Y-96230000D03*
%TO.P,J1,17*%
X148690000Y-98770000D03*
%TO.P,J1,18*%
X148690000Y-96230000D03*
%TO.P,J1,19*%
%TO.N,LED_SPI*%
X151230000Y-98770000D03*
%TO.P,J1,20*%
%TO.N,GND*%
X151230000Y-96230000D03*
%TO.P,J1,21*%
%TO.N,N/C*%
X153770000Y-98770000D03*
%TO.P,J1,22*%
X153770000Y-96230000D03*
%TO.P,J1,23*%
X156310000Y-98770000D03*
%TO.P,J1,24*%
X156310000Y-96230000D03*
%TO.P,J1,25*%
%TO.N,GND*%
X158850000Y-98770000D03*
%TO.P,J1,26*%
%TO.N,N/C*%
X158850000Y-96230000D03*
%TO.P,J1,27*%
X161390000Y-98770000D03*
%TO.P,J1,28*%
X161390000Y-96230000D03*
%TO.P,J1,29*%
X163930000Y-98770000D03*
%TO.P,J1,30*%
%TO.N,GND*%
X163930000Y-96230000D03*
%TO.P,J1,31*%
%TO.N,N/C*%
X166470000Y-98770000D03*
%TO.P,J1,32*%
X166470000Y-96230000D03*
%TO.P,J1,33*%
X169010000Y-98770000D03*
%TO.P,J1,34*%
%TO.N,GND*%
X169010000Y-96230000D03*
%TO.P,J1,35*%
%TO.N,N/C*%
X171550000Y-98770000D03*
%TO.P,J1,36*%
X171550000Y-96230000D03*
%TO.P,J1,37*%
X174090000Y-98770000D03*
%TO.P,J1,38*%
X174090000Y-96230000D03*
%TO.P,J1,39*%
%TO.N,GND*%
X176630000Y-98770000D03*
%TO.P,J1,40*%
%TO.N,N/C*%
X176630000Y-96230000D03*
%TD*%
D14*
%TO.N,+5V*%
X156937500Y-65815500D03*
X150622100Y-87490500D03*
%TO.N,I2C_SDA*%
X138457400Y-93445800D03*
%TO.N,+3V3*%
X141405700Y-80582600D03*
X142972000Y-79227300D03*
X127833500Y-81629900D03*
X127865900Y-84662200D03*
%TO.N,GND*%
X139000000Y-63000000D03*
X112000000Y-84000000D03*
X119938000Y-75589700D03*
X106000000Y-84000000D03*
X131699999Y-82800000D03*
X102588000Y-65281200D03*
X103000000Y-81000000D03*
X184000000Y-72000000D03*
X161500000Y-62987500D03*
X130357000Y-79542300D03*
X172500000Y-62987500D03*
X154018000Y-62991200D03*
X181000000Y-78000000D03*
X103000000Y-87000000D03*
X181000000Y-63000000D03*
X184000000Y-63000000D03*
X181000000Y-69000000D03*
X178000000Y-75000000D03*
X142000000Y-63000000D03*
X181000000Y-87000000D03*
X181000000Y-93000000D03*
X112000000Y-81000000D03*
X106000000Y-81000000D03*
X121000000Y-96000000D03*
X119433000Y-83429600D03*
X184000000Y-78000000D03*
X127000000Y-93000000D03*
X106000000Y-93000000D03*
X136000000Y-63000000D03*
X121000000Y-63000000D03*
X109000000Y-90000000D03*
X160300000Y-84000000D03*
X156300000Y-62800000D03*
X103000000Y-66000000D03*
X130000000Y-66000000D03*
X181000000Y-84000000D03*
X121800000Y-66487500D03*
X148000000Y-66000000D03*
X130000000Y-93000000D03*
X106000000Y-66000000D03*
X121000000Y-90000000D03*
X163000000Y-96000000D03*
X112000000Y-78000000D03*
X166000000Y-93000000D03*
X121000000Y-99000000D03*
X127000000Y-63000000D03*
X119536000Y-82053500D03*
X121000000Y-93000000D03*
X119948000Y-74034200D03*
X109000000Y-81000000D03*
X178000000Y-99000000D03*
X112000000Y-87000000D03*
X118000000Y-93000000D03*
X109000000Y-84000000D03*
X148000000Y-69000000D03*
X184000000Y-66000000D03*
X184000000Y-99000000D03*
X184000000Y-84000000D03*
X124000000Y-93000000D03*
X115000000Y-87000000D03*
X106000000Y-69000000D03*
X130000000Y-63000000D03*
X133000000Y-66000000D03*
X136000000Y-66000000D03*
X143000000Y-71987500D03*
X106000000Y-87000000D03*
X148000000Y-63000000D03*
X163000000Y-93000000D03*
X124000000Y-63000000D03*
X103700000Y-81000000D03*
X160475000Y-71000000D03*
X109000000Y-69000000D03*
X181000000Y-72000000D03*
X109000000Y-66000000D03*
X142000000Y-66000000D03*
X112000000Y-63000000D03*
X181000000Y-90000000D03*
X112000000Y-75000000D03*
X109000000Y-63000000D03*
X184000000Y-69000000D03*
X178000000Y-72000000D03*
X184000000Y-81000000D03*
X184000000Y-75000000D03*
X141500000Y-77300000D03*
X142000000Y-72000000D03*
X181000000Y-66000000D03*
X121000000Y-72000000D03*
X118000000Y-90000000D03*
X184000000Y-96000000D03*
X181000000Y-81000000D03*
X184000000Y-93000000D03*
X139000000Y-66000000D03*
X141643000Y-78457700D03*
X103000000Y-78000000D03*
X119412000Y-65281200D03*
X106000000Y-63000000D03*
X119339000Y-84781500D03*
X118000000Y-87000000D03*
X109000000Y-87000000D03*
X115000000Y-63000000D03*
X103000000Y-63000000D03*
X106000000Y-90000000D03*
X102661000Y-84781500D03*
X141300000Y-75200000D03*
X112000000Y-93000000D03*
X143000000Y-80987500D03*
X103000000Y-84000000D03*
X118000000Y-63000000D03*
X129500000Y-80987500D03*
X133000000Y-63000000D03*
X133000000Y-79400000D03*
X145000000Y-63000000D03*
X184000000Y-87000000D03*
X181000000Y-75000000D03*
X109000000Y-93000000D03*
X103000000Y-93000000D03*
X115000000Y-93000000D03*
X118000000Y-66000000D03*
X121000000Y-87000000D03*
X158000000Y-91500000D03*
%TO.N,UART_PI_TX*%
X134941000Y-76117500D03*
%TO.N,UART_328_TX*%
X137166800Y-76638700D03*
%TO.N,PI_RESET_DRV*%
X127503500Y-68479000D03*
%TO.N,RESET*%
X145048700Y-67416700D03*
%TO.N,MOSI*%
X115031500Y-72850000D03*
X130674700Y-85866500D03*
%TO.N,MISO*%
X115419500Y-71580000D03*
X139759300Y-82608600D03*
%TO.N,SCK*%
X127534900Y-77628700D03*
X133095000Y-80274700D03*
%TO.N,CS*%
X151839700Y-89616500D03*
X158831400Y-93736900D03*
%TO.N,GDO0*%
X133760300Y-86468200D03*
X133200000Y-76100300D03*
%TO.N,XTAL1*%
X133087100Y-81093900D03*
%TO.N,XTAL2*%
X130572800Y-81125300D03*
%TD*%
D15*
%TO.N,+5V*%
X156937500Y-65815500D02*
X156937500Y-81175100D01*
X156937500Y-81175100D02*
X150622100Y-87490500D01*
%TO.N,PI_3V3*%
X177500000Y-67500000D02*
X177500000Y-68401700D01*
X177500000Y-68401700D02*
X178176300Y-68401700D01*
X178686400Y-68911800D02*
X178686400Y-87313600D01*
X178176300Y-68401700D02*
X178686400Y-68911800D01*
X178686400Y-87313600D02*
X177500000Y-88500000D01*
%TO.N,I2C_SDA*%
X175537800Y-63500000D02*
X177500000Y-63500000D01*
X143800400Y-88102800D02*
X150935000Y-88102800D01*
X150935000Y-88102800D02*
X175537800Y-63500000D01*
X138457400Y-93445800D02*
X143800400Y-88102800D01*
%TO.N,I2C_SCL*%
X136478800Y-99921800D02*
X137260000Y-99140600D01*
X147096200Y-88504500D02*
X154495500Y-88504500D01*
X138924100Y-97500000D02*
X139918300Y-96505800D01*
X139918300Y-96505800D02*
X139918300Y-95682400D01*
X137260000Y-99140600D02*
X137260000Y-98351600D01*
X177500000Y-65500000D02*
X177500000Y-66401700D01*
X139918300Y-95682400D02*
X147096200Y-88504500D01*
X176598300Y-66401700D02*
X177500000Y-66401700D01*
X154495500Y-88504500D02*
X176598300Y-66401700D01*
X133450000Y-98770000D02*
X134601800Y-99921800D01*
X137260000Y-98351600D02*
X138111600Y-97500000D01*
X134601800Y-99921800D02*
X136478800Y-99921800D01*
X138111600Y-97500000D02*
X138924100Y-97500000D01*
%TO.N,BTN*%
X177500000Y-79000000D02*
X167485200Y-89014800D01*
X167485200Y-89014800D02*
X151590600Y-89014800D01*
X142320000Y-97520000D02*
X141070000Y-98770000D01*
X144010500Y-97520000D02*
X142320000Y-97520000D01*
X144880000Y-96650500D02*
X144010500Y-97520000D01*
X151590600Y-89014800D02*
X144880000Y-95725400D01*
X144880000Y-95725400D02*
X144880000Y-96650500D01*
%TO.N,+3V3*%
X127833500Y-84629800D02*
X127833500Y-81629900D01*
X141616700Y-80582600D02*
X141405700Y-80582600D01*
X142972000Y-79227300D02*
X141616700Y-80582600D01*
X127865900Y-84662200D02*
X127833500Y-84629800D01*
D16*
%TO.N,GND*%
X114600000Y-86400000D02*
X129900000Y-86400000D01*
X141200000Y-68300000D02*
X140200000Y-67300000D01*
X114600000Y-72000000D02*
X114300000Y-72300000D01*
X114500000Y-73700000D02*
X114500000Y-86300000D01*
X141300000Y-75200000D02*
X141300000Y-68400000D01*
X114800000Y-70900000D02*
X114700000Y-71000000D01*
X114400000Y-73500000D02*
X114500000Y-73600000D01*
X140100000Y-67300000D02*
X115000000Y-67300000D01*
X114700000Y-71100000D02*
X114700000Y-71900000D01*
X114300000Y-72400000D02*
X114300000Y-73400000D01*
X130000000Y-86500000D02*
X130100000Y-86600000D01*
X130199999Y-86600000D02*
X131300000Y-86600000D01*
X114900000Y-67400000D02*
X114900000Y-70800000D01*
X131400000Y-86500000D02*
X131400000Y-83100000D01*
X131500000Y-83000000D02*
X131699999Y-82800000D01*
D15*
%TO.N,UART_PI_TX*%
X135990000Y-96230000D02*
X135990000Y-77166500D01*
X135990000Y-77166500D02*
X134941000Y-76117500D01*
%TO.N,UART_328_TX*%
X137166800Y-94866800D02*
X137166800Y-76638700D01*
X138530000Y-96230000D02*
X137166800Y-94866800D01*
%TO.N,PI_RESET_DRV*%
X134799500Y-83978800D02*
X134799500Y-97579500D01*
X134799500Y-97579500D02*
X135990000Y-98770000D01*
X134339300Y-75314800D02*
X134339300Y-83518600D01*
X127503500Y-68479000D02*
X134339300Y-75314800D01*
X134339300Y-83518600D02*
X134799500Y-83978800D01*
%TO.N,RESET*%
X150000000Y-83080000D02*
X145048700Y-78128700D01*
X145048700Y-78128700D02*
X145048700Y-67416700D01*
%TO.N,MOSI*%
X115031500Y-72850000D02*
X128048000Y-85866500D01*
X128048000Y-85866500D02*
X130674700Y-85866500D01*
%TO.N,MISO*%
X139759300Y-78380300D02*
X129244700Y-67865700D01*
X129244700Y-67865700D02*
X119133800Y-67865700D01*
X119133800Y-67865700D02*
X115419500Y-71580000D01*
X151191900Y-80055700D02*
X151191900Y-83607400D01*
X150287900Y-79151700D02*
X151191900Y-80055700D01*
X151191900Y-83607400D02*
X150550400Y-84248900D01*
X150000000Y-78000000D02*
X150000000Y-79151700D01*
X150550400Y-84248900D02*
X141399600Y-84248900D01*
X150000000Y-79151700D02*
X150287900Y-79151700D01*
X139759300Y-82608600D02*
X139759300Y-78380300D01*
X141399600Y-84248900D02*
X139759300Y-82608600D01*
%TO.N,SCK*%
X127991500Y-80360900D02*
X129357700Y-81727100D01*
X130872800Y-81727100D02*
X132325200Y-80274700D01*
X127991500Y-78085300D02*
X127991500Y-80360900D01*
X129357700Y-81727100D02*
X130872800Y-81727100D01*
X132325200Y-80274700D02*
X133095000Y-80274700D01*
X127534900Y-77628700D02*
X127991500Y-78085300D01*
%TO.N,CS*%
X155960100Y-93736900D02*
X158831400Y-93736900D01*
X151839700Y-89616500D02*
X155960100Y-93736900D01*
%TO.N,GDO0*%
X133760300Y-76660600D02*
X133760300Y-86468200D01*
X133200000Y-76100300D02*
X133760300Y-76660600D01*
%TO.N,XTAL1*%
X129191400Y-82128800D02*
X132052200Y-82128800D01*
X132052200Y-82128800D02*
X133087100Y-81093900D01*
X127000000Y-75000000D02*
X126933200Y-75066800D01*
X126933200Y-75066800D02*
X126933200Y-79870600D01*
X126933200Y-79870600D02*
X129191400Y-82128800D01*
%TO.N,XTAL2*%
X129300200Y-79852700D02*
X130572800Y-81125300D01*
X129300200Y-72300200D02*
X129300200Y-79852700D01*
X127000000Y-70000000D02*
X129300200Y-72300200D01*
%TD*%
M02*
