%TF.GenerationSoftware,KiCad,Pcbnew,9.0.2+dfsg-1*%
%TF.CreationDate,2026-07-31T11:14:11+02:00*%
%TF.ProjectId,AskSin-Analyzer-V3,41736b53-696e-42d4-916e-616c797a6572,rev?*%
%TF.SameCoordinates,Original*%
%TF.FileFunction,Legend,Top*%
%TF.FilePolarity,Positive*%
%FSLAX46Y46*%
G04 Gerber Fmt 4.6, Leading zero omitted, Abs format (unit mm)*
G04 Created by KiCad (PCBNEW 9.0.2+dfsg-1) date 2026-07-31 11:14:11*
%MOMM*%
%LPD*%
G01*
G04 APERTURE LIST*
%ADD10C,0.130000*%
%ADD11C,0.120000*%
G04 APERTURE END LIST*
D10*
X179949380Y-76113335D02*
X180139856Y-76913335D01*
X180139856Y-76913335D02*
X180292237Y-76341906D01*
X180292237Y-76341906D02*
X180444618Y-76913335D01*
X180444618Y-76913335D02*
X180635095Y-76113335D01*
X180901761Y-76875240D02*
X181016047Y-76913335D01*
X181016047Y-76913335D02*
X181206523Y-76913335D01*
X181206523Y-76913335D02*
X181282714Y-76875240D01*
X181282714Y-76875240D02*
X181320809Y-76837144D01*
X181320809Y-76837144D02*
X181358904Y-76760954D01*
X181358904Y-76760954D02*
X181358904Y-76684763D01*
X181358904Y-76684763D02*
X181320809Y-76608573D01*
X181320809Y-76608573D02*
X181282714Y-76570478D01*
X181282714Y-76570478D02*
X181206523Y-76532382D01*
X181206523Y-76532382D02*
X181054142Y-76494287D01*
X181054142Y-76494287D02*
X180977952Y-76456192D01*
X180977952Y-76456192D02*
X180939857Y-76418097D01*
X180939857Y-76418097D02*
X180901761Y-76341906D01*
X180901761Y-76341906D02*
X180901761Y-76265716D01*
X180901761Y-76265716D02*
X180939857Y-76189525D01*
X180939857Y-76189525D02*
X180977952Y-76151430D01*
X180977952Y-76151430D02*
X181054142Y-76113335D01*
X181054142Y-76113335D02*
X181244619Y-76113335D01*
X181244619Y-76113335D02*
X181358904Y-76151430D01*
X181663666Y-76189525D02*
X181701762Y-76151430D01*
X181701762Y-76151430D02*
X181777952Y-76113335D01*
X181777952Y-76113335D02*
X181968428Y-76113335D01*
X181968428Y-76113335D02*
X182044619Y-76151430D01*
X182044619Y-76151430D02*
X182082714Y-76189525D01*
X182082714Y-76189525D02*
X182120809Y-76265716D01*
X182120809Y-76265716D02*
X182120809Y-76341906D01*
X182120809Y-76341906D02*
X182082714Y-76456192D01*
X182082714Y-76456192D02*
X181625571Y-76913335D01*
X181625571Y-76913335D02*
X182120809Y-76913335D01*
X182577952Y-76456192D02*
X182501762Y-76418097D01*
X182501762Y-76418097D02*
X182463667Y-76380001D01*
X182463667Y-76380001D02*
X182425571Y-76303811D01*
X182425571Y-76303811D02*
X182425571Y-76265716D01*
X182425571Y-76265716D02*
X182463667Y-76189525D01*
X182463667Y-76189525D02*
X182501762Y-76151430D01*
X182501762Y-76151430D02*
X182577952Y-76113335D01*
X182577952Y-76113335D02*
X182730333Y-76113335D01*
X182730333Y-76113335D02*
X182806524Y-76151430D01*
X182806524Y-76151430D02*
X182844619Y-76189525D01*
X182844619Y-76189525D02*
X182882714Y-76265716D01*
X182882714Y-76265716D02*
X182882714Y-76303811D01*
X182882714Y-76303811D02*
X182844619Y-76380001D01*
X182844619Y-76380001D02*
X182806524Y-76418097D01*
X182806524Y-76418097D02*
X182730333Y-76456192D01*
X182730333Y-76456192D02*
X182577952Y-76456192D01*
X182577952Y-76456192D02*
X182501762Y-76494287D01*
X182501762Y-76494287D02*
X182463667Y-76532382D01*
X182463667Y-76532382D02*
X182425571Y-76608573D01*
X182425571Y-76608573D02*
X182425571Y-76760954D01*
X182425571Y-76760954D02*
X182463667Y-76837144D01*
X182463667Y-76837144D02*
X182501762Y-76875240D01*
X182501762Y-76875240D02*
X182577952Y-76913335D01*
X182577952Y-76913335D02*
X182730333Y-76913335D01*
X182730333Y-76913335D02*
X182806524Y-76875240D01*
X182806524Y-76875240D02*
X182844619Y-76837144D01*
X182844619Y-76837144D02*
X182882714Y-76760954D01*
X182882714Y-76760954D02*
X182882714Y-76608573D01*
X182882714Y-76608573D02*
X182844619Y-76532382D01*
X182844619Y-76532382D02*
X182806524Y-76494287D01*
X182806524Y-76494287D02*
X182730333Y-76456192D01*
X183644619Y-76913335D02*
X183187476Y-76913335D01*
X183416048Y-76913335D02*
X183416048Y-76113335D01*
X183416048Y-76113335D02*
X183339857Y-76227620D01*
X183339857Y-76227620D02*
X183263667Y-76303811D01*
X183263667Y-76303811D02*
X183187476Y-76341906D01*
X183949381Y-76189525D02*
X183987477Y-76151430D01*
X183987477Y-76151430D02*
X184063667Y-76113335D01*
X184063667Y-76113335D02*
X184254143Y-76113335D01*
X184254143Y-76113335D02*
X184330334Y-76151430D01*
X184330334Y-76151430D02*
X184368429Y-76189525D01*
X184368429Y-76189525D02*
X184406524Y-76265716D01*
X184406524Y-76265716D02*
X184406524Y-76341906D01*
X184406524Y-76341906D02*
X184368429Y-76456192D01*
X184368429Y-76456192D02*
X183911286Y-76913335D01*
X183911286Y-76913335D02*
X184406524Y-76913335D01*
X165376190Y-70513335D02*
X165376190Y-69713335D01*
X165376190Y-69713335D02*
X165680952Y-69713335D01*
X165680952Y-69713335D02*
X165757142Y-69751430D01*
X165757142Y-69751430D02*
X165795237Y-69789525D01*
X165795237Y-69789525D02*
X165833333Y-69865716D01*
X165833333Y-69865716D02*
X165833333Y-69980001D01*
X165833333Y-69980001D02*
X165795237Y-70056192D01*
X165795237Y-70056192D02*
X165757142Y-70094287D01*
X165757142Y-70094287D02*
X165680952Y-70132382D01*
X165680952Y-70132382D02*
X165376190Y-70132382D01*
X166099999Y-69713335D02*
X166290475Y-70513335D01*
X166290475Y-70513335D02*
X166442856Y-69941906D01*
X166442856Y-69941906D02*
X166595237Y-70513335D01*
X166595237Y-70513335D02*
X166785714Y-69713335D01*
X167090476Y-70513335D02*
X167090476Y-69713335D01*
X167090476Y-69713335D02*
X167357142Y-70284763D01*
X167357142Y-70284763D02*
X167623809Y-69713335D01*
X167623809Y-69713335D02*
X167623809Y-70513335D01*
X178682905Y-63613335D02*
X178835286Y-63613335D01*
X178835286Y-63613335D02*
X178911476Y-63651430D01*
X178911476Y-63651430D02*
X178987667Y-63727620D01*
X178987667Y-63727620D02*
X179025762Y-63880001D01*
X179025762Y-63880001D02*
X179025762Y-64146668D01*
X179025762Y-64146668D02*
X178987667Y-64299049D01*
X178987667Y-64299049D02*
X178911476Y-64375240D01*
X178911476Y-64375240D02*
X178835286Y-64413335D01*
X178835286Y-64413335D02*
X178682905Y-64413335D01*
X178682905Y-64413335D02*
X178606714Y-64375240D01*
X178606714Y-64375240D02*
X178530524Y-64299049D01*
X178530524Y-64299049D02*
X178492428Y-64146668D01*
X178492428Y-64146668D02*
X178492428Y-63880001D01*
X178492428Y-63880001D02*
X178530524Y-63727620D01*
X178530524Y-63727620D02*
X178606714Y-63651430D01*
X178606714Y-63651430D02*
X178682905Y-63613335D01*
X179749571Y-64413335D02*
X179368619Y-64413335D01*
X179368619Y-64413335D02*
X179368619Y-63613335D01*
X180016238Y-63994287D02*
X180282904Y-63994287D01*
X180397190Y-64413335D02*
X180016238Y-64413335D01*
X180016238Y-64413335D02*
X180016238Y-63613335D01*
X180016238Y-63613335D02*
X180397190Y-63613335D01*
X180740048Y-64413335D02*
X180740048Y-63613335D01*
X180740048Y-63613335D02*
X180930524Y-63613335D01*
X180930524Y-63613335D02*
X181044810Y-63651430D01*
X181044810Y-63651430D02*
X181121000Y-63727620D01*
X181121000Y-63727620D02*
X181159095Y-63803811D01*
X181159095Y-63803811D02*
X181197191Y-63956192D01*
X181197191Y-63956192D02*
X181197191Y-64070478D01*
X181197191Y-64070478D02*
X181159095Y-64222859D01*
X181159095Y-64222859D02*
X181121000Y-64299049D01*
X181121000Y-64299049D02*
X181044810Y-64375240D01*
X181044810Y-64375240D02*
X180930524Y-64413335D01*
X180930524Y-64413335D02*
X180740048Y-64413335D01*
X182149572Y-64413335D02*
X182149572Y-63613335D01*
X182492428Y-63689525D02*
X182530524Y-63651430D01*
X182530524Y-63651430D02*
X182606714Y-63613335D01*
X182606714Y-63613335D02*
X182797190Y-63613335D01*
X182797190Y-63613335D02*
X182873381Y-63651430D01*
X182873381Y-63651430D02*
X182911476Y-63689525D01*
X182911476Y-63689525D02*
X182949571Y-63765716D01*
X182949571Y-63765716D02*
X182949571Y-63841906D01*
X182949571Y-63841906D02*
X182911476Y-63956192D01*
X182911476Y-63956192D02*
X182454333Y-64413335D01*
X182454333Y-64413335D02*
X182949571Y-64413335D01*
X183749572Y-64337144D02*
X183711476Y-64375240D01*
X183711476Y-64375240D02*
X183597191Y-64413335D01*
X183597191Y-64413335D02*
X183521000Y-64413335D01*
X183521000Y-64413335D02*
X183406714Y-64375240D01*
X183406714Y-64375240D02*
X183330524Y-64299049D01*
X183330524Y-64299049D02*
X183292429Y-64222859D01*
X183292429Y-64222859D02*
X183254333Y-64070478D01*
X183254333Y-64070478D02*
X183254333Y-63956192D01*
X183254333Y-63956192D02*
X183292429Y-63803811D01*
X183292429Y-63803811D02*
X183330524Y-63727620D01*
X183330524Y-63727620D02*
X183406714Y-63651430D01*
X183406714Y-63651430D02*
X183521000Y-63613335D01*
X183521000Y-63613335D02*
X183597191Y-63613335D01*
X183597191Y-63613335D02*
X183711476Y-63651430D01*
X183711476Y-63651430D02*
X183749572Y-63689525D01*
X181177952Y-70113335D02*
X181635095Y-70113335D01*
X181406523Y-70913335D02*
X181406523Y-70113335D01*
X181863666Y-70684763D02*
X182244619Y-70684763D01*
X181787476Y-70913335D02*
X182054143Y-70113335D01*
X182054143Y-70113335D02*
X182320809Y-70913335D01*
X182549380Y-70875240D02*
X182663666Y-70913335D01*
X182663666Y-70913335D02*
X182854142Y-70913335D01*
X182854142Y-70913335D02*
X182930333Y-70875240D01*
X182930333Y-70875240D02*
X182968428Y-70837144D01*
X182968428Y-70837144D02*
X183006523Y-70760954D01*
X183006523Y-70760954D02*
X183006523Y-70684763D01*
X183006523Y-70684763D02*
X182968428Y-70608573D01*
X182968428Y-70608573D02*
X182930333Y-70570478D01*
X182930333Y-70570478D02*
X182854142Y-70532382D01*
X182854142Y-70532382D02*
X182701761Y-70494287D01*
X182701761Y-70494287D02*
X182625571Y-70456192D01*
X182625571Y-70456192D02*
X182587476Y-70418097D01*
X182587476Y-70418097D02*
X182549380Y-70341906D01*
X182549380Y-70341906D02*
X182549380Y-70265716D01*
X182549380Y-70265716D02*
X182587476Y-70189525D01*
X182587476Y-70189525D02*
X182625571Y-70151430D01*
X182625571Y-70151430D02*
X182701761Y-70113335D01*
X182701761Y-70113335D02*
X182892238Y-70113335D01*
X182892238Y-70113335D02*
X183006523Y-70151430D01*
X183235095Y-70113335D02*
X183692238Y-70113335D01*
X183463666Y-70913335D02*
X183463666Y-70113335D01*
X183958905Y-70494287D02*
X184225571Y-70494287D01*
X184339857Y-70913335D02*
X183958905Y-70913335D01*
X183958905Y-70913335D02*
X183958905Y-70113335D01*
X183958905Y-70113335D02*
X184339857Y-70113335D01*
X185139858Y-70913335D02*
X184873191Y-70532382D01*
X184682715Y-70913335D02*
X184682715Y-70113335D01*
X184682715Y-70113335D02*
X184987477Y-70113335D01*
X184987477Y-70113335D02*
X185063667Y-70151430D01*
X185063667Y-70151430D02*
X185101762Y-70189525D01*
X185101762Y-70189525D02*
X185139858Y-70265716D01*
X185139858Y-70265716D02*
X185139858Y-70380001D01*
X185139858Y-70380001D02*
X185101762Y-70456192D01*
X185101762Y-70456192D02*
X185063667Y-70494287D01*
X185063667Y-70494287D02*
X184987477Y-70532382D01*
X184987477Y-70532382D02*
X184682715Y-70532382D01*
X160680952Y-70475240D02*
X160795238Y-70513335D01*
X160795238Y-70513335D02*
X160985714Y-70513335D01*
X160985714Y-70513335D02*
X161061905Y-70475240D01*
X161061905Y-70475240D02*
X161100000Y-70437144D01*
X161100000Y-70437144D02*
X161138095Y-70360954D01*
X161138095Y-70360954D02*
X161138095Y-70284763D01*
X161138095Y-70284763D02*
X161100000Y-70208573D01*
X161100000Y-70208573D02*
X161061905Y-70170478D01*
X161061905Y-70170478D02*
X160985714Y-70132382D01*
X160985714Y-70132382D02*
X160833333Y-70094287D01*
X160833333Y-70094287D02*
X160757143Y-70056192D01*
X160757143Y-70056192D02*
X160719048Y-70018097D01*
X160719048Y-70018097D02*
X160680952Y-69941906D01*
X160680952Y-69941906D02*
X160680952Y-69865716D01*
X160680952Y-69865716D02*
X160719048Y-69789525D01*
X160719048Y-69789525D02*
X160757143Y-69751430D01*
X160757143Y-69751430D02*
X160833333Y-69713335D01*
X160833333Y-69713335D02*
X161023810Y-69713335D01*
X161023810Y-69713335D02*
X161138095Y-69751430D01*
X161480953Y-70513335D02*
X161480953Y-69713335D01*
X161480953Y-69713335D02*
X161785715Y-69713335D01*
X161785715Y-69713335D02*
X161861905Y-69751430D01*
X161861905Y-69751430D02*
X161900000Y-69789525D01*
X161900000Y-69789525D02*
X161938096Y-69865716D01*
X161938096Y-69865716D02*
X161938096Y-69980001D01*
X161938096Y-69980001D02*
X161900000Y-70056192D01*
X161900000Y-70056192D02*
X161861905Y-70094287D01*
X161861905Y-70094287D02*
X161785715Y-70132382D01*
X161785715Y-70132382D02*
X161480953Y-70132382D01*
X162280953Y-70513335D02*
X162280953Y-69713335D01*
D11*
X115390476Y-80278855D02*
X115390476Y-80926474D01*
X115390476Y-80926474D02*
X115428571Y-81002664D01*
X115428571Y-81002664D02*
X115466666Y-81040760D01*
X115466666Y-81040760D02*
X115542857Y-81078855D01*
X115542857Y-81078855D02*
X115695238Y-81078855D01*
X115695238Y-81078855D02*
X115771428Y-81040760D01*
X115771428Y-81040760D02*
X115809523Y-81002664D01*
X115809523Y-81002664D02*
X115847619Y-80926474D01*
X115847619Y-80926474D02*
X115847619Y-80278855D01*
X116152380Y-80278855D02*
X116647618Y-80278855D01*
X116647618Y-80278855D02*
X116380952Y-80583617D01*
X116380952Y-80583617D02*
X116495237Y-80583617D01*
X116495237Y-80583617D02*
X116571428Y-80621712D01*
X116571428Y-80621712D02*
X116609523Y-80659807D01*
X116609523Y-80659807D02*
X116647618Y-80735998D01*
X116647618Y-80735998D02*
X116647618Y-80926474D01*
X116647618Y-80926474D02*
X116609523Y-81002664D01*
X116609523Y-81002664D02*
X116571428Y-81040760D01*
X116571428Y-81040760D02*
X116495237Y-81078855D01*
X116495237Y-81078855D02*
X116266666Y-81078855D01*
X116266666Y-81078855D02*
X116190475Y-81040760D01*
X116190475Y-81040760D02*
X116152380Y-81002664D01*
X139390476Y-67048855D02*
X139390476Y-67696474D01*
X139390476Y-67696474D02*
X139428571Y-67772664D01*
X139428571Y-67772664D02*
X139466666Y-67810760D01*
X139466666Y-67810760D02*
X139542857Y-67848855D01*
X139542857Y-67848855D02*
X139695238Y-67848855D01*
X139695238Y-67848855D02*
X139771428Y-67810760D01*
X139771428Y-67810760D02*
X139809523Y-67772664D01*
X139809523Y-67772664D02*
X139847619Y-67696474D01*
X139847619Y-67696474D02*
X139847619Y-67048855D01*
X140647618Y-67848855D02*
X140190475Y-67848855D01*
X140419047Y-67848855D02*
X140419047Y-67048855D01*
X140419047Y-67048855D02*
X140342856Y-67163140D01*
X140342856Y-67163140D02*
X140266666Y-67239331D01*
X140266666Y-67239331D02*
X140190475Y-67277426D01*
X144866667Y-61522664D02*
X144828571Y-61560760D01*
X144828571Y-61560760D02*
X144714286Y-61598855D01*
X144714286Y-61598855D02*
X144638095Y-61598855D01*
X144638095Y-61598855D02*
X144523809Y-61560760D01*
X144523809Y-61560760D02*
X144447619Y-61484569D01*
X144447619Y-61484569D02*
X144409524Y-61408379D01*
X144409524Y-61408379D02*
X144371428Y-61255998D01*
X144371428Y-61255998D02*
X144371428Y-61141712D01*
X144371428Y-61141712D02*
X144409524Y-60989331D01*
X144409524Y-60989331D02*
X144447619Y-60913140D01*
X144447619Y-60913140D02*
X144523809Y-60836950D01*
X144523809Y-60836950D02*
X144638095Y-60798855D01*
X144638095Y-60798855D02*
X144714286Y-60798855D01*
X144714286Y-60798855D02*
X144828571Y-60836950D01*
X144828571Y-60836950D02*
X144866667Y-60875045D01*
X145628571Y-61598855D02*
X145171428Y-61598855D01*
X145400000Y-61598855D02*
X145400000Y-60798855D01*
X145400000Y-60798855D02*
X145323809Y-60913140D01*
X145323809Y-60913140D02*
X145247619Y-60989331D01*
X145247619Y-60989331D02*
X145171428Y-61027426D01*
X131990476Y-60778855D02*
X132447619Y-60778855D01*
X132219047Y-61578855D02*
X132219047Y-60778855D01*
X132714286Y-61578855D02*
X132714286Y-60778855D01*
X132714286Y-60778855D02*
X133019048Y-60778855D01*
X133019048Y-60778855D02*
X133095238Y-60816950D01*
X133095238Y-60816950D02*
X133133333Y-60855045D01*
X133133333Y-60855045D02*
X133171429Y-60931236D01*
X133171429Y-60931236D02*
X133171429Y-61045521D01*
X133171429Y-61045521D02*
X133133333Y-61121712D01*
X133133333Y-61121712D02*
X133095238Y-61159807D01*
X133095238Y-61159807D02*
X133019048Y-61197902D01*
X133019048Y-61197902D02*
X132714286Y-61197902D01*
X133933333Y-61578855D02*
X133476190Y-61578855D01*
X133704762Y-61578855D02*
X133704762Y-60778855D01*
X133704762Y-60778855D02*
X133628571Y-60893140D01*
X133628571Y-60893140D02*
X133552381Y-60969331D01*
X133552381Y-60969331D02*
X133476190Y-61007426D01*
X195934580Y-72126364D02*
X195934580Y-71326364D01*
X195934580Y-71326364D02*
X196201246Y-71897792D01*
X196201246Y-71897792D02*
X196467913Y-71326364D01*
X196467913Y-71326364D02*
X196467913Y-72126364D01*
X196848866Y-72126364D02*
X196848866Y-71326364D01*
X196848866Y-71707316D02*
X197306009Y-71707316D01*
X197306009Y-72126364D02*
X197306009Y-71326364D01*
X198067913Y-71326364D02*
X197686961Y-71326364D01*
X197686961Y-71326364D02*
X197648865Y-71707316D01*
X197648865Y-71707316D02*
X197686961Y-71669221D01*
X197686961Y-71669221D02*
X197763151Y-71631126D01*
X197763151Y-71631126D02*
X197953627Y-71631126D01*
X197953627Y-71631126D02*
X198029818Y-71669221D01*
X198029818Y-71669221D02*
X198067913Y-71707316D01*
X198067913Y-71707316D02*
X198106008Y-71783507D01*
X198106008Y-71783507D02*
X198106008Y-71973983D01*
X198106008Y-71973983D02*
X198067913Y-72050173D01*
X198067913Y-72050173D02*
X198029818Y-72088269D01*
X198029818Y-72088269D02*
X197953627Y-72126364D01*
X197953627Y-72126364D02*
X197763151Y-72126364D01*
X197763151Y-72126364D02*
X197686961Y-72088269D01*
X197686961Y-72088269D02*
X197648865Y-72050173D01*
X114510781Y-111496338D02*
X114510781Y-110696338D01*
X114967924Y-111496338D02*
X114625066Y-111039195D01*
X114967924Y-110696338D02*
X114510781Y-111153481D01*
X115577447Y-111077290D02*
X115691733Y-111115385D01*
X115691733Y-111115385D02*
X115729828Y-111153481D01*
X115729828Y-111153481D02*
X115767924Y-111229671D01*
X115767924Y-111229671D02*
X115767924Y-111343957D01*
X115767924Y-111343957D02*
X115729828Y-111420147D01*
X115729828Y-111420147D02*
X115691733Y-111458243D01*
X115691733Y-111458243D02*
X115615543Y-111496338D01*
X115615543Y-111496338D02*
X115310781Y-111496338D01*
X115310781Y-111496338D02*
X115310781Y-110696338D01*
X115310781Y-110696338D02*
X115577447Y-110696338D01*
X115577447Y-110696338D02*
X115653638Y-110734433D01*
X115653638Y-110734433D02*
X115691733Y-110772528D01*
X115691733Y-110772528D02*
X115729828Y-110848719D01*
X115729828Y-110848719D02*
X115729828Y-110924909D01*
X115729828Y-110924909D02*
X115691733Y-111001100D01*
X115691733Y-111001100D02*
X115653638Y-111039195D01*
X115653638Y-111039195D02*
X115577447Y-111077290D01*
X115577447Y-111077290D02*
X115310781Y-111077290D01*
X116072685Y-110772528D02*
X116110781Y-110734433D01*
X116110781Y-110734433D02*
X116186971Y-110696338D01*
X116186971Y-110696338D02*
X116377447Y-110696338D01*
X116377447Y-110696338D02*
X116453638Y-110734433D01*
X116453638Y-110734433D02*
X116491733Y-110772528D01*
X116491733Y-110772528D02*
X116529828Y-110848719D01*
X116529828Y-110848719D02*
X116529828Y-110924909D01*
X116529828Y-110924909D02*
X116491733Y-111039195D01*
X116491733Y-111039195D02*
X116034590Y-111496338D01*
X116034590Y-111496338D02*
X116529828Y-111496338D01*
X163866667Y-75098855D02*
X163600000Y-74717902D01*
X163409524Y-75098855D02*
X163409524Y-74298855D01*
X163409524Y-74298855D02*
X163714286Y-74298855D01*
X163714286Y-74298855D02*
X163790476Y-74336950D01*
X163790476Y-74336950D02*
X163828571Y-74375045D01*
X163828571Y-74375045D02*
X163866667Y-74451236D01*
X163866667Y-74451236D02*
X163866667Y-74565521D01*
X163866667Y-74565521D02*
X163828571Y-74641712D01*
X163828571Y-74641712D02*
X163790476Y-74679807D01*
X163790476Y-74679807D02*
X163714286Y-74717902D01*
X163714286Y-74717902D02*
X163409524Y-74717902D01*
X164552381Y-74565521D02*
X164552381Y-75098855D01*
X164361905Y-74260760D02*
X164171428Y-74832188D01*
X164171428Y-74832188D02*
X164666667Y-74832188D01*
X127866667Y-66628855D02*
X127600000Y-66247902D01*
X127409524Y-66628855D02*
X127409524Y-65828855D01*
X127409524Y-65828855D02*
X127714286Y-65828855D01*
X127714286Y-65828855D02*
X127790476Y-65866950D01*
X127790476Y-65866950D02*
X127828571Y-65905045D01*
X127828571Y-65905045D02*
X127866667Y-65981236D01*
X127866667Y-65981236D02*
X127866667Y-66095521D01*
X127866667Y-66095521D02*
X127828571Y-66171712D01*
X127828571Y-66171712D02*
X127790476Y-66209807D01*
X127790476Y-66209807D02*
X127714286Y-66247902D01*
X127714286Y-66247902D02*
X127409524Y-66247902D01*
X128171428Y-65905045D02*
X128209524Y-65866950D01*
X128209524Y-65866950D02*
X128285714Y-65828855D01*
X128285714Y-65828855D02*
X128476190Y-65828855D01*
X128476190Y-65828855D02*
X128552381Y-65866950D01*
X128552381Y-65866950D02*
X128590476Y-65905045D01*
X128590476Y-65905045D02*
X128628571Y-65981236D01*
X128628571Y-65981236D02*
X128628571Y-66057426D01*
X128628571Y-66057426D02*
X128590476Y-66171712D01*
X128590476Y-66171712D02*
X128133333Y-66628855D01*
X128133333Y-66628855D02*
X128628571Y-66628855D01*
X111390476Y-62628855D02*
X111390476Y-63276474D01*
X111390476Y-63276474D02*
X111428571Y-63352664D01*
X111428571Y-63352664D02*
X111466666Y-63390760D01*
X111466666Y-63390760D02*
X111542857Y-63428855D01*
X111542857Y-63428855D02*
X111695238Y-63428855D01*
X111695238Y-63428855D02*
X111771428Y-63390760D01*
X111771428Y-63390760D02*
X111809523Y-63352664D01*
X111809523Y-63352664D02*
X111847619Y-63276474D01*
X111847619Y-63276474D02*
X111847619Y-62628855D01*
X112190475Y-62705045D02*
X112228571Y-62666950D01*
X112228571Y-62666950D02*
X112304761Y-62628855D01*
X112304761Y-62628855D02*
X112495237Y-62628855D01*
X112495237Y-62628855D02*
X112571428Y-62666950D01*
X112571428Y-62666950D02*
X112609523Y-62705045D01*
X112609523Y-62705045D02*
X112647618Y-62781236D01*
X112647618Y-62781236D02*
X112647618Y-62857426D01*
X112647618Y-62857426D02*
X112609523Y-62971712D01*
X112609523Y-62971712D02*
X112152380Y-63428855D01*
X112152380Y-63428855D02*
X112647618Y-63428855D01*
X134434580Y-79126364D02*
X134434580Y-78326364D01*
X134434580Y-78326364D02*
X134701246Y-78897792D01*
X134701246Y-78897792D02*
X134967913Y-78326364D01*
X134967913Y-78326364D02*
X134967913Y-79126364D01*
X135348866Y-79126364D02*
X135348866Y-78326364D01*
X135348866Y-78707316D02*
X135806009Y-78707316D01*
X135806009Y-79126364D02*
X135806009Y-78326364D01*
X136606008Y-79126364D02*
X136148865Y-79126364D01*
X136377437Y-79126364D02*
X136377437Y-78326364D01*
X136377437Y-78326364D02*
X136301246Y-78440649D01*
X136301246Y-78440649D02*
X136225056Y-78516840D01*
X136225056Y-78516840D02*
X136148865Y-78554935D01*
X151390475Y-67890760D02*
X151504761Y-67928855D01*
X151504761Y-67928855D02*
X151695237Y-67928855D01*
X151695237Y-67928855D02*
X151771428Y-67890760D01*
X151771428Y-67890760D02*
X151809523Y-67852664D01*
X151809523Y-67852664D02*
X151847618Y-67776474D01*
X151847618Y-67776474D02*
X151847618Y-67700283D01*
X151847618Y-67700283D02*
X151809523Y-67624093D01*
X151809523Y-67624093D02*
X151771428Y-67585998D01*
X151771428Y-67585998D02*
X151695237Y-67547902D01*
X151695237Y-67547902D02*
X151542856Y-67509807D01*
X151542856Y-67509807D02*
X151466666Y-67471712D01*
X151466666Y-67471712D02*
X151428571Y-67433617D01*
X151428571Y-67433617D02*
X151390475Y-67357426D01*
X151390475Y-67357426D02*
X151390475Y-67281236D01*
X151390475Y-67281236D02*
X151428571Y-67205045D01*
X151428571Y-67205045D02*
X151466666Y-67166950D01*
X151466666Y-67166950D02*
X151542856Y-67128855D01*
X151542856Y-67128855D02*
X151733333Y-67128855D01*
X151733333Y-67128855D02*
X151847618Y-67166950D01*
X152609523Y-67928855D02*
X152152380Y-67928855D01*
X152380952Y-67928855D02*
X152380952Y-67128855D01*
X152380952Y-67128855D02*
X152304761Y-67243140D01*
X152304761Y-67243140D02*
X152228571Y-67319331D01*
X152228571Y-67319331D02*
X152152380Y-67357426D01*
X126008333Y-112008855D02*
X126008333Y-112580283D01*
X126008333Y-112580283D02*
X125970238Y-112694569D01*
X125970238Y-112694569D02*
X125894047Y-112770760D01*
X125894047Y-112770760D02*
X125779762Y-112808855D01*
X125779762Y-112808855D02*
X125703571Y-112808855D01*
X126351190Y-112085045D02*
X126389286Y-112046950D01*
X126389286Y-112046950D02*
X126465476Y-112008855D01*
X126465476Y-112008855D02*
X126655952Y-112008855D01*
X126655952Y-112008855D02*
X126732143Y-112046950D01*
X126732143Y-112046950D02*
X126770238Y-112085045D01*
X126770238Y-112085045D02*
X126808333Y-112161236D01*
X126808333Y-112161236D02*
X126808333Y-112237426D01*
X126808333Y-112237426D02*
X126770238Y-112351712D01*
X126770238Y-112351712D02*
X126313095Y-112808855D01*
X126313095Y-112808855D02*
X126808333Y-112808855D01*
X144409524Y-68628855D02*
X144409524Y-67828855D01*
X144409524Y-67828855D02*
X144600000Y-67828855D01*
X144600000Y-67828855D02*
X144714286Y-67866950D01*
X144714286Y-67866950D02*
X144790476Y-67943140D01*
X144790476Y-67943140D02*
X144828571Y-68019331D01*
X144828571Y-68019331D02*
X144866667Y-68171712D01*
X144866667Y-68171712D02*
X144866667Y-68285998D01*
X144866667Y-68285998D02*
X144828571Y-68438379D01*
X144828571Y-68438379D02*
X144790476Y-68514569D01*
X144790476Y-68514569D02*
X144714286Y-68590760D01*
X144714286Y-68590760D02*
X144600000Y-68628855D01*
X144600000Y-68628855D02*
X144409524Y-68628855D01*
X145628571Y-68628855D02*
X145171428Y-68628855D01*
X145400000Y-68628855D02*
X145400000Y-67828855D01*
X145400000Y-67828855D02*
X145323809Y-67943140D01*
X145323809Y-67943140D02*
X145247619Y-68019331D01*
X145247619Y-68019331D02*
X145171428Y-68057426D01*
X109010781Y-111496338D02*
X109010781Y-110696338D01*
X109467924Y-111496338D02*
X109125066Y-111039195D01*
X109467924Y-110696338D02*
X109010781Y-111153481D01*
X110077447Y-111077290D02*
X110191733Y-111115385D01*
X110191733Y-111115385D02*
X110229828Y-111153481D01*
X110229828Y-111153481D02*
X110267924Y-111229671D01*
X110267924Y-111229671D02*
X110267924Y-111343957D01*
X110267924Y-111343957D02*
X110229828Y-111420147D01*
X110229828Y-111420147D02*
X110191733Y-111458243D01*
X110191733Y-111458243D02*
X110115543Y-111496338D01*
X110115543Y-111496338D02*
X109810781Y-111496338D01*
X109810781Y-111496338D02*
X109810781Y-110696338D01*
X109810781Y-110696338D02*
X110077447Y-110696338D01*
X110077447Y-110696338D02*
X110153638Y-110734433D01*
X110153638Y-110734433D02*
X110191733Y-110772528D01*
X110191733Y-110772528D02*
X110229828Y-110848719D01*
X110229828Y-110848719D02*
X110229828Y-110924909D01*
X110229828Y-110924909D02*
X110191733Y-111001100D01*
X110191733Y-111001100D02*
X110153638Y-111039195D01*
X110153638Y-111039195D02*
X110077447Y-111077290D01*
X110077447Y-111077290D02*
X109810781Y-111077290D01*
X111029828Y-111496338D02*
X110572685Y-111496338D01*
X110801257Y-111496338D02*
X110801257Y-110696338D01*
X110801257Y-110696338D02*
X110725066Y-110810623D01*
X110725066Y-110810623D02*
X110648876Y-110886814D01*
X110648876Y-110886814D02*
X110572685Y-110924909D01*
X121866667Y-76052664D02*
X121828571Y-76090760D01*
X121828571Y-76090760D02*
X121714286Y-76128855D01*
X121714286Y-76128855D02*
X121638095Y-76128855D01*
X121638095Y-76128855D02*
X121523809Y-76090760D01*
X121523809Y-76090760D02*
X121447619Y-76014569D01*
X121447619Y-76014569D02*
X121409524Y-75938379D01*
X121409524Y-75938379D02*
X121371428Y-75785998D01*
X121371428Y-75785998D02*
X121371428Y-75671712D01*
X121371428Y-75671712D02*
X121409524Y-75519331D01*
X121409524Y-75519331D02*
X121447619Y-75443140D01*
X121447619Y-75443140D02*
X121523809Y-75366950D01*
X121523809Y-75366950D02*
X121638095Y-75328855D01*
X121638095Y-75328855D02*
X121714286Y-75328855D01*
X121714286Y-75328855D02*
X121828571Y-75366950D01*
X121828571Y-75366950D02*
X121866667Y-75405045D01*
X122552381Y-75595521D02*
X122552381Y-76128855D01*
X122361905Y-75290760D02*
X122171428Y-75862188D01*
X122171428Y-75862188D02*
X122666667Y-75862188D01*
X129366667Y-61522664D02*
X129328571Y-61560760D01*
X129328571Y-61560760D02*
X129214286Y-61598855D01*
X129214286Y-61598855D02*
X129138095Y-61598855D01*
X129138095Y-61598855D02*
X129023809Y-61560760D01*
X129023809Y-61560760D02*
X128947619Y-61484569D01*
X128947619Y-61484569D02*
X128909524Y-61408379D01*
X128909524Y-61408379D02*
X128871428Y-61255998D01*
X128871428Y-61255998D02*
X128871428Y-61141712D01*
X128871428Y-61141712D02*
X128909524Y-60989331D01*
X128909524Y-60989331D02*
X128947619Y-60913140D01*
X128947619Y-60913140D02*
X129023809Y-60836950D01*
X129023809Y-60836950D02*
X129138095Y-60798855D01*
X129138095Y-60798855D02*
X129214286Y-60798855D01*
X129214286Y-60798855D02*
X129328571Y-60836950D01*
X129328571Y-60836950D02*
X129366667Y-60875045D01*
X129747619Y-61598855D02*
X129900000Y-61598855D01*
X129900000Y-61598855D02*
X129976190Y-61560760D01*
X129976190Y-61560760D02*
X130014286Y-61522664D01*
X130014286Y-61522664D02*
X130090476Y-61408379D01*
X130090476Y-61408379D02*
X130128571Y-61255998D01*
X130128571Y-61255998D02*
X130128571Y-60951236D01*
X130128571Y-60951236D02*
X130090476Y-60875045D01*
X130090476Y-60875045D02*
X130052381Y-60836950D01*
X130052381Y-60836950D02*
X129976190Y-60798855D01*
X129976190Y-60798855D02*
X129823809Y-60798855D01*
X129823809Y-60798855D02*
X129747619Y-60836950D01*
X129747619Y-60836950D02*
X129709524Y-60875045D01*
X129709524Y-60875045D02*
X129671428Y-60951236D01*
X129671428Y-60951236D02*
X129671428Y-61141712D01*
X129671428Y-61141712D02*
X129709524Y-61217902D01*
X129709524Y-61217902D02*
X129747619Y-61255998D01*
X129747619Y-61255998D02*
X129823809Y-61294093D01*
X129823809Y-61294093D02*
X129976190Y-61294093D01*
X129976190Y-61294093D02*
X130052381Y-61255998D01*
X130052381Y-61255998D02*
X130090476Y-61217902D01*
X130090476Y-61217902D02*
X130128571Y-61141712D01*
X154866667Y-61522664D02*
X154828571Y-61560760D01*
X154828571Y-61560760D02*
X154714286Y-61598855D01*
X154714286Y-61598855D02*
X154638095Y-61598855D01*
X154638095Y-61598855D02*
X154523809Y-61560760D01*
X154523809Y-61560760D02*
X154447619Y-61484569D01*
X154447619Y-61484569D02*
X154409524Y-61408379D01*
X154409524Y-61408379D02*
X154371428Y-61255998D01*
X154371428Y-61255998D02*
X154371428Y-61141712D01*
X154371428Y-61141712D02*
X154409524Y-60989331D01*
X154409524Y-60989331D02*
X154447619Y-60913140D01*
X154447619Y-60913140D02*
X154523809Y-60836950D01*
X154523809Y-60836950D02*
X154638095Y-60798855D01*
X154638095Y-60798855D02*
X154714286Y-60798855D01*
X154714286Y-60798855D02*
X154828571Y-60836950D01*
X154828571Y-60836950D02*
X154866667Y-60875045D01*
X155171428Y-60875045D02*
X155209524Y-60836950D01*
X155209524Y-60836950D02*
X155285714Y-60798855D01*
X155285714Y-60798855D02*
X155476190Y-60798855D01*
X155476190Y-60798855D02*
X155552381Y-60836950D01*
X155552381Y-60836950D02*
X155590476Y-60875045D01*
X155590476Y-60875045D02*
X155628571Y-60951236D01*
X155628571Y-60951236D02*
X155628571Y-61027426D01*
X155628571Y-61027426D02*
X155590476Y-61141712D01*
X155590476Y-61141712D02*
X155133333Y-61598855D01*
X155133333Y-61598855D02*
X155628571Y-61598855D01*
X126934580Y-126626364D02*
X126934580Y-125826364D01*
X126934580Y-125826364D02*
X127201246Y-126397792D01*
X127201246Y-126397792D02*
X127467913Y-125826364D01*
X127467913Y-125826364D02*
X127467913Y-126626364D01*
X127848866Y-126626364D02*
X127848866Y-125826364D01*
X127848866Y-126207316D02*
X128306009Y-126207316D01*
X128306009Y-126626364D02*
X128306009Y-125826364D01*
X129029818Y-126093030D02*
X129029818Y-126626364D01*
X128839342Y-125788269D02*
X128648865Y-126359697D01*
X128648865Y-126359697D02*
X129144104Y-126359697D01*
X149866666Y-61628855D02*
X149485714Y-61628855D01*
X149485714Y-61628855D02*
X149485714Y-60828855D01*
X150552380Y-61628855D02*
X150095237Y-61628855D01*
X150323809Y-61628855D02*
X150323809Y-60828855D01*
X150323809Y-60828855D02*
X150247618Y-60943140D01*
X150247618Y-60943140D02*
X150171428Y-61019331D01*
X150171428Y-61019331D02*
X150095237Y-61057426D01*
X127866667Y-80622664D02*
X127828571Y-80660760D01*
X127828571Y-80660760D02*
X127714286Y-80698855D01*
X127714286Y-80698855D02*
X127638095Y-80698855D01*
X127638095Y-80698855D02*
X127523809Y-80660760D01*
X127523809Y-80660760D02*
X127447619Y-80584569D01*
X127447619Y-80584569D02*
X127409524Y-80508379D01*
X127409524Y-80508379D02*
X127371428Y-80355998D01*
X127371428Y-80355998D02*
X127371428Y-80241712D01*
X127371428Y-80241712D02*
X127409524Y-80089331D01*
X127409524Y-80089331D02*
X127447619Y-80013140D01*
X127447619Y-80013140D02*
X127523809Y-79936950D01*
X127523809Y-79936950D02*
X127638095Y-79898855D01*
X127638095Y-79898855D02*
X127714286Y-79898855D01*
X127714286Y-79898855D02*
X127828571Y-79936950D01*
X127828571Y-79936950D02*
X127866667Y-79975045D01*
X128590476Y-79898855D02*
X128209524Y-79898855D01*
X128209524Y-79898855D02*
X128171428Y-80279807D01*
X128171428Y-80279807D02*
X128209524Y-80241712D01*
X128209524Y-80241712D02*
X128285714Y-80203617D01*
X128285714Y-80203617D02*
X128476190Y-80203617D01*
X128476190Y-80203617D02*
X128552381Y-80241712D01*
X128552381Y-80241712D02*
X128590476Y-80279807D01*
X128590476Y-80279807D02*
X128628571Y-80355998D01*
X128628571Y-80355998D02*
X128628571Y-80546474D01*
X128628571Y-80546474D02*
X128590476Y-80622664D01*
X128590476Y-80622664D02*
X128552381Y-80660760D01*
X128552381Y-80660760D02*
X128476190Y-80698855D01*
X128476190Y-80698855D02*
X128285714Y-80698855D01*
X128285714Y-80698855D02*
X128209524Y-80660760D01*
X128209524Y-80660760D02*
X128171428Y-80622664D01*
X127866667Y-76052664D02*
X127828571Y-76090760D01*
X127828571Y-76090760D02*
X127714286Y-76128855D01*
X127714286Y-76128855D02*
X127638095Y-76128855D01*
X127638095Y-76128855D02*
X127523809Y-76090760D01*
X127523809Y-76090760D02*
X127447619Y-76014569D01*
X127447619Y-76014569D02*
X127409524Y-75938379D01*
X127409524Y-75938379D02*
X127371428Y-75785998D01*
X127371428Y-75785998D02*
X127371428Y-75671712D01*
X127371428Y-75671712D02*
X127409524Y-75519331D01*
X127409524Y-75519331D02*
X127447619Y-75443140D01*
X127447619Y-75443140D02*
X127523809Y-75366950D01*
X127523809Y-75366950D02*
X127638095Y-75328855D01*
X127638095Y-75328855D02*
X127714286Y-75328855D01*
X127714286Y-75328855D02*
X127828571Y-75366950D01*
X127828571Y-75366950D02*
X127866667Y-75405045D01*
X128323809Y-75671712D02*
X128247619Y-75633617D01*
X128247619Y-75633617D02*
X128209524Y-75595521D01*
X128209524Y-75595521D02*
X128171428Y-75519331D01*
X128171428Y-75519331D02*
X128171428Y-75481236D01*
X128171428Y-75481236D02*
X128209524Y-75405045D01*
X128209524Y-75405045D02*
X128247619Y-75366950D01*
X128247619Y-75366950D02*
X128323809Y-75328855D01*
X128323809Y-75328855D02*
X128476190Y-75328855D01*
X128476190Y-75328855D02*
X128552381Y-75366950D01*
X128552381Y-75366950D02*
X128590476Y-75405045D01*
X128590476Y-75405045D02*
X128628571Y-75481236D01*
X128628571Y-75481236D02*
X128628571Y-75519331D01*
X128628571Y-75519331D02*
X128590476Y-75595521D01*
X128590476Y-75595521D02*
X128552381Y-75633617D01*
X128552381Y-75633617D02*
X128476190Y-75671712D01*
X128476190Y-75671712D02*
X128323809Y-75671712D01*
X128323809Y-75671712D02*
X128247619Y-75709807D01*
X128247619Y-75709807D02*
X128209524Y-75747902D01*
X128209524Y-75747902D02*
X128171428Y-75824093D01*
X128171428Y-75824093D02*
X128171428Y-75976474D01*
X128171428Y-75976474D02*
X128209524Y-76052664D01*
X128209524Y-76052664D02*
X128247619Y-76090760D01*
X128247619Y-76090760D02*
X128323809Y-76128855D01*
X128323809Y-76128855D02*
X128476190Y-76128855D01*
X128476190Y-76128855D02*
X128552381Y-76090760D01*
X128552381Y-76090760D02*
X128590476Y-76052664D01*
X128590476Y-76052664D02*
X128628571Y-75976474D01*
X128628571Y-75976474D02*
X128628571Y-75824093D01*
X128628571Y-75824093D02*
X128590476Y-75747902D01*
X128590476Y-75747902D02*
X128552381Y-75709807D01*
X128552381Y-75709807D02*
X128476190Y-75671712D01*
X127866667Y-92998854D02*
X127600000Y-92617901D01*
X127409524Y-92998854D02*
X127409524Y-92198854D01*
X127409524Y-92198854D02*
X127714286Y-92198854D01*
X127714286Y-92198854D02*
X127790476Y-92236949D01*
X127790476Y-92236949D02*
X127828571Y-92275044D01*
X127828571Y-92275044D02*
X127866667Y-92351235D01*
X127866667Y-92351235D02*
X127866667Y-92465520D01*
X127866667Y-92465520D02*
X127828571Y-92541711D01*
X127828571Y-92541711D02*
X127790476Y-92579806D01*
X127790476Y-92579806D02*
X127714286Y-92617901D01*
X127714286Y-92617901D02*
X127409524Y-92617901D01*
X128133333Y-92198854D02*
X128628571Y-92198854D01*
X128628571Y-92198854D02*
X128361905Y-92503616D01*
X128361905Y-92503616D02*
X128476190Y-92503616D01*
X128476190Y-92503616D02*
X128552381Y-92541711D01*
X128552381Y-92541711D02*
X128590476Y-92579806D01*
X128590476Y-92579806D02*
X128628571Y-92655997D01*
X128628571Y-92655997D02*
X128628571Y-92846473D01*
X128628571Y-92846473D02*
X128590476Y-92922663D01*
X128590476Y-92922663D02*
X128552381Y-92960759D01*
X128552381Y-92960759D02*
X128476190Y-92998854D01*
X128476190Y-92998854D02*
X128247619Y-92998854D01*
X128247619Y-92998854D02*
X128171428Y-92960759D01*
X128171428Y-92960759D02*
X128133333Y-92922663D01*
X103990476Y-108778855D02*
X104447619Y-108778855D01*
X104219047Y-109578855D02*
X104219047Y-108778855D01*
X104714286Y-109578855D02*
X104714286Y-108778855D01*
X104714286Y-108778855D02*
X105019048Y-108778855D01*
X105019048Y-108778855D02*
X105095238Y-108816950D01*
X105095238Y-108816950D02*
X105133333Y-108855045D01*
X105133333Y-108855045D02*
X105171429Y-108931236D01*
X105171429Y-108931236D02*
X105171429Y-109045521D01*
X105171429Y-109045521D02*
X105133333Y-109121712D01*
X105133333Y-109121712D02*
X105095238Y-109159807D01*
X105095238Y-109159807D02*
X105019048Y-109197902D01*
X105019048Y-109197902D02*
X104714286Y-109197902D01*
X105476190Y-108855045D02*
X105514286Y-108816950D01*
X105514286Y-108816950D02*
X105590476Y-108778855D01*
X105590476Y-108778855D02*
X105780952Y-108778855D01*
X105780952Y-108778855D02*
X105857143Y-108816950D01*
X105857143Y-108816950D02*
X105895238Y-108855045D01*
X105895238Y-108855045D02*
X105933333Y-108931236D01*
X105933333Y-108931236D02*
X105933333Y-109007426D01*
X105933333Y-109007426D02*
X105895238Y-109121712D01*
X105895238Y-109121712D02*
X105438095Y-109578855D01*
X105438095Y-109578855D02*
X105933333Y-109578855D01*
%TO.C,U3*%
X109850000Y-82800000D02*
X122150000Y-82800000D01*
X109850000Y-103200000D02*
X122150000Y-103200000D01*
X122150000Y-103200000D02*
X122150000Y-104000000D01*
%TO.C,C3*%
X121738748Y-68265000D02*
X122261252Y-68265000D01*
X121738748Y-69735000D02*
X122261252Y-69735000D01*
%TO.C,U1*%
X140000000Y-62440000D02*
X139350000Y-62440000D01*
X140000000Y-62440000D02*
X140650000Y-62440000D01*
X140000000Y-65560000D02*
X139350000Y-65560000D01*
X140000000Y-65560000D02*
X140650000Y-65560000D01*
X138837500Y-62490000D02*
X138597500Y-62160000D01*
X139077500Y-62160000D01*
X138837500Y-62490000D01*
G36*
X138837500Y-62490000D02*
G01*
X138597500Y-62160000D01*
X139077500Y-62160000D01*
X138837500Y-62490000D01*
G37*
%TO.C,C1*%
X144738748Y-63265000D02*
X145261252Y-63265000D01*
X144738748Y-64735000D02*
X145261252Y-64735000D01*
%TO.C,TP1*%
X132300000Y-63300000D02*
X133700000Y-63300000D01*
X132300000Y-64700000D02*
X132300000Y-63300000D01*
X133700000Y-63300000D02*
X133700000Y-64700000D01*
X133700000Y-64700000D02*
X132300000Y-64700000D01*
%TO.C,TP8*%
X104300000Y-132300000D02*
X105700000Y-132300000D01*
X104300000Y-133700000D02*
X104300000Y-132300000D01*
X105700000Y-132300000D02*
X105700000Y-133700000D01*
X105700000Y-133700000D02*
X104300000Y-133700000D01*
%TO.C,J5*%
X184140000Y-61390000D02*
X184140000Y-62640000D01*
X184440000Y-61690000D02*
X184440000Y-66410000D01*
X184440000Y-63000000D02*
X185050000Y-63000000D01*
X184440000Y-64300000D02*
X185050000Y-64300000D01*
X184440000Y-66410000D02*
X194560000Y-66410000D01*
X185050000Y-62300000D02*
X185050000Y-65800000D01*
X185050000Y-65800000D02*
X193950000Y-65800000D01*
X185390000Y-61390000D02*
X184140000Y-61390000D01*
X185900000Y-61490000D02*
X185900000Y-61690000D01*
X186200000Y-61490000D02*
X185900000Y-61490000D01*
X186200000Y-61590000D02*
X185900000Y-61590000D01*
X186200000Y-61690000D02*
X186200000Y-61490000D01*
X187000000Y-61690000D02*
X187000000Y-62300000D01*
X187000000Y-62300000D02*
X185050000Y-62300000D01*
X187400000Y-65300000D02*
X187600000Y-65300000D01*
X187400000Y-65800000D02*
X187400000Y-65300000D01*
X187500000Y-65800000D02*
X187500000Y-65300000D01*
X187600000Y-65300000D02*
X187600000Y-65800000D01*
X189400000Y-65300000D02*
X189600000Y-65300000D01*
X189400000Y-65800000D02*
X189400000Y-65300000D01*
X189500000Y-65800000D02*
X189500000Y-65300000D01*
X189600000Y-65300000D02*
X189600000Y-65800000D01*
X191400000Y-65300000D02*
X191600000Y-65300000D01*
X191400000Y-65800000D02*
X191400000Y-65300000D01*
X191500000Y-65800000D02*
X191500000Y-65300000D01*
X191600000Y-65300000D02*
X191600000Y-65800000D01*
X192000000Y-62300000D02*
X192000000Y-61690000D01*
X193950000Y-62300000D02*
X192000000Y-62300000D01*
X193950000Y-65800000D02*
X193950000Y-62300000D01*
X194560000Y-61690000D02*
X184440000Y-61690000D01*
X194560000Y-63000000D02*
X193950000Y-63000000D01*
X194560000Y-64300000D02*
X193950000Y-64300000D01*
X194560000Y-66410000D02*
X194560000Y-61690000D01*
%TO.C,TP4*%
X104300000Y-118300000D02*
X105700000Y-118300000D01*
X104300000Y-119700000D02*
X104300000Y-118300000D01*
X105700000Y-118300000D02*
X105700000Y-119700000D01*
X105700000Y-119700000D02*
X104300000Y-119700000D01*
%TO.C,R4*%
X163772936Y-71265000D02*
X164227064Y-71265000D01*
X163772936Y-72735000D02*
X164227064Y-72735000D01*
%TO.C,J7*%
X184640000Y-73890000D02*
X184640000Y-75140000D01*
X184940000Y-74190000D02*
X184940000Y-78910000D01*
X184940000Y-75500000D02*
X185550000Y-75500000D01*
X184940000Y-76800000D02*
X185550000Y-76800000D01*
X184940000Y-78910000D02*
X193060000Y-78910000D01*
X185550000Y-74800000D02*
X185550000Y-78300000D01*
X185550000Y-78300000D02*
X192450000Y-78300000D01*
X185890000Y-73890000D02*
X184640000Y-73890000D01*
X186400000Y-73990000D02*
X186400000Y-74190000D01*
X186700000Y-73990000D02*
X186400000Y-73990000D01*
X186700000Y-74090000D02*
X186400000Y-74090000D01*
X186700000Y-74190000D02*
X186700000Y-73990000D01*
X187500000Y-74190000D02*
X187500000Y-74800000D01*
X187500000Y-74800000D02*
X185550000Y-74800000D01*
X187900000Y-77800000D02*
X188100000Y-77800000D01*
X187900000Y-78300000D02*
X187900000Y-77800000D01*
X188000000Y-78300000D02*
X188000000Y-77800000D01*
X188100000Y-77800000D02*
X188100000Y-78300000D01*
X189900000Y-77800000D02*
X190100000Y-77800000D01*
X189900000Y-78300000D02*
X189900000Y-77800000D01*
X190000000Y-78300000D02*
X190000000Y-77800000D01*
X190100000Y-77800000D02*
X190100000Y-78300000D01*
X190500000Y-74800000D02*
X190500000Y-74190000D01*
X192450000Y-74800000D02*
X190500000Y-74800000D01*
X192450000Y-78300000D02*
X192450000Y-74800000D01*
X193060000Y-74190000D02*
X184940000Y-74190000D01*
X193060000Y-75500000D02*
X192450000Y-75500000D01*
X193060000Y-76800000D02*
X192450000Y-76800000D01*
X193060000Y-78910000D02*
X193060000Y-74190000D01*
%TO.C,R2*%
X127772936Y-68265000D02*
X128227064Y-68265000D01*
X127772936Y-69735000D02*
X128227064Y-69735000D01*
%TO.C,U2*%
X108390000Y-66390000D02*
X108390000Y-66665000D01*
X108390000Y-73610000D02*
X108390000Y-73335000D01*
X108665000Y-66390000D02*
X108390000Y-66390000D01*
X108665000Y-73610000D02*
X108390000Y-73610000D01*
X115335000Y-66390000D02*
X115610000Y-66390000D01*
X115335000Y-73610000D02*
X115610000Y-73610000D01*
X115610000Y-66390000D02*
X115610000Y-66665000D01*
X115610000Y-73610000D02*
X115610000Y-73335000D01*
X107800000Y-66665000D02*
X107460000Y-66195000D01*
X108140000Y-66195000D01*
X107800000Y-66665000D01*
G36*
X107800000Y-66665000D02*
G01*
X107460000Y-66195000D01*
X108140000Y-66195000D01*
X107800000Y-66665000D01*
G37*
%TO.C,S1*%
X150350000Y-69600000D02*
X153650000Y-69600000D01*
X150350000Y-69900000D02*
X150350000Y-69600000D01*
X150350000Y-72100000D02*
X150350000Y-72400000D01*
X150350000Y-72400000D02*
X153650000Y-72400000D01*
X153650000Y-69600000D02*
X153650000Y-69900000D01*
X153650000Y-72400000D02*
X153650000Y-72100000D01*
%TO.C,J2*%
X123620000Y-114620000D02*
X125000000Y-114620000D01*
X123620000Y-116000000D02*
X123620000Y-114620000D01*
X123620000Y-117270000D02*
X123620000Y-122460000D01*
X123620000Y-117270000D02*
X126270000Y-117270000D01*
X123620000Y-122460000D02*
X128920000Y-122460000D01*
X126270000Y-114620000D02*
X128920000Y-114620000D01*
X126270000Y-117270000D02*
X126270000Y-114620000D01*
X128920000Y-114620000D02*
X128920000Y-122460000D01*
%TO.C,J6*%
X185640000Y-67890000D02*
X185640000Y-69140000D01*
X185940000Y-68190000D02*
X185940000Y-72910000D01*
X185940000Y-69500000D02*
X186550000Y-69500000D01*
X185940000Y-70800000D02*
X186550000Y-70800000D01*
X185940000Y-72910000D02*
X192060000Y-72910000D01*
X186550000Y-68800000D02*
X186550000Y-72300000D01*
X186550000Y-72300000D02*
X191450000Y-72300000D01*
X186890000Y-67890000D02*
X185640000Y-67890000D01*
X187400000Y-67990000D02*
X187400000Y-68190000D01*
X187700000Y-67990000D02*
X187400000Y-67990000D01*
X187700000Y-68090000D02*
X187400000Y-68090000D01*
X187700000Y-68190000D02*
X187700000Y-67990000D01*
X188500000Y-68190000D02*
X188500000Y-68800000D01*
X188500000Y-68800000D02*
X186550000Y-68800000D01*
X188900000Y-71800000D02*
X189100000Y-71800000D01*
X188900000Y-72300000D02*
X188900000Y-71800000D01*
X189000000Y-72300000D02*
X189000000Y-71800000D01*
X189100000Y-71800000D02*
X189100000Y-72300000D01*
X189500000Y-68800000D02*
X189500000Y-68190000D01*
X191450000Y-68800000D02*
X189500000Y-68800000D01*
X191450000Y-72300000D02*
X191450000Y-68800000D01*
X192060000Y-68190000D02*
X185940000Y-68190000D01*
X192060000Y-69500000D02*
X191450000Y-69500000D01*
X192060000Y-70800000D02*
X191450000Y-70800000D01*
X192060000Y-72910000D02*
X192060000Y-68190000D01*
%TO.C,D1*%
X143140000Y-70040000D02*
X143140000Y-71960000D01*
X143140000Y-71960000D02*
X146000000Y-71960000D01*
X146000000Y-70040000D02*
X143140000Y-70040000D01*
%TO.C,TP3*%
X104300000Y-114800000D02*
X105700000Y-114800000D01*
X104300000Y-116200000D02*
X104300000Y-114800000D01*
X105700000Y-114800000D02*
X105700000Y-116200000D01*
X105700000Y-116200000D02*
X104300000Y-116200000D01*
%TO.C,TP5*%
X104300000Y-121800000D02*
X105700000Y-121800000D01*
X104300000Y-123200000D02*
X104300000Y-121800000D01*
X105700000Y-121800000D02*
X105700000Y-123200000D01*
X105700000Y-123200000D02*
X104300000Y-123200000D01*
%TO.C,C4*%
X121738748Y-72265000D02*
X122261252Y-72265000D01*
X121738748Y-73735000D02*
X122261252Y-73735000D01*
%TO.C,C9*%
X129238748Y-63265000D02*
X129761252Y-63265000D01*
X129238748Y-64735000D02*
X129761252Y-64735000D01*
%TO.C,C2*%
X154738748Y-63265000D02*
X155261252Y-63265000D01*
X154738748Y-64735000D02*
X155261252Y-64735000D01*
%TO.C,Y1*%
X121250000Y-62390000D02*
X123750000Y-62390000D01*
X121250000Y-65610000D02*
X123750000Y-65610000D01*
X120081000Y-62893000D02*
G75*
G02*
X121250000Y-62390000I1169210J-1107400D01*
G01*
X121250000Y-65610000D02*
G75*
G02*
X120081000Y-65107000I210J1610400D01*
G01*
X123750000Y-62390000D02*
G75*
G02*
X124919006Y-62892995I-200J-1610400D01*
G01*
X124919000Y-65107000D02*
G75*
G02*
X123750000Y-65609992I-1169200J1107400D01*
G01*
%TO.C,L1*%
X149738748Y-63290000D02*
X150261252Y-63290000D01*
X149738748Y-64710000D02*
X150261252Y-64710000D01*
%TO.C,SW1*%
X159400000Y-66900000D02*
X159400000Y-64600000D01*
X160600000Y-66900000D02*
X159400000Y-66900000D01*
X162400000Y-66900000D02*
X163100000Y-66900000D01*
X164900000Y-66900000D02*
X165600000Y-66900000D01*
X168600000Y-64600000D02*
X168600000Y-66900000D01*
X168600000Y-66900000D02*
X167400000Y-66900000D01*
%TO.C,C5*%
X127265000Y-84261252D02*
X127265000Y-83738748D01*
X128735000Y-84261252D02*
X128735000Y-83738748D01*
%TO.C,C8*%
X127738748Y-72265000D02*
X128261252Y-72265000D01*
X127738748Y-73735000D02*
X128261252Y-73735000D01*
%TO.C,TP7*%
X104300000Y-128800000D02*
X105700000Y-128800000D01*
X104300000Y-130200000D02*
X104300000Y-128800000D01*
X105700000Y-128800000D02*
X105700000Y-130200000D01*
X105700000Y-130200000D02*
X104300000Y-130200000D01*
%TO.C,R3*%
X127265000Y-89227064D02*
X127265000Y-88772936D01*
X128735000Y-89227064D02*
X128735000Y-88772936D01*
%TO.C,TP6*%
X104300000Y-125300000D02*
X105700000Y-125300000D01*
X104300000Y-126700000D02*
X104300000Y-125300000D01*
X105700000Y-125300000D02*
X105700000Y-126700000D01*
X105700000Y-126700000D02*
X104300000Y-126700000D01*
%TO.C,TP2*%
X104300000Y-111300000D02*
X105700000Y-111300000D01*
X104300000Y-112700000D02*
X104300000Y-111300000D01*
X105700000Y-111300000D02*
X105700000Y-112700000D01*
X105700000Y-112700000D02*
X104300000Y-112700000D01*
%TO.C,R1*%
X139772936Y-70265000D02*
X140227064Y-70265000D01*
X139772936Y-71735000D02*
X140227064Y-71735000D01*
%TD*%
M02*
