M48
; DRILL file {KiCad 9.0.2+dfsg-1} date 2026-07-30T20:32:05+0200
; FORMAT={-:-/ absolute / metric / decimal}
; #@! TF.CreationDate,2026-07-30T20:32:05+02:00
; #@! TF.GenerationSoftware,Kicad,Pcbnew,9.0.2+dfsg-1
; #@! TF.FileFunction,Plated,1,4,PTH
FMAT,2
METRIC
; #@! TA.AperFunction,Plated,PTH,ViaDrill
T1C0.300
; #@! TA.AperFunction,Plated,PTH,ComponentDrill
T2C0.750
; #@! TA.AperFunction,Plated,PTH,ComponentDrill
T3C1.000
%
G90
G05
T1
X102.588Y-65.281
X102.661Y-84.781
X103.0Y-63.0
X103.0Y-66.0
X103.0Y-78.0
X103.0Y-81.0
X103.0Y-84.0
X103.0Y-87.0
X103.0Y-93.0
X103.7Y-81.0
X106.0Y-63.0
X106.0Y-66.0
X106.0Y-69.0
X106.0Y-78.0
X106.0Y-81.0
X106.0Y-84.0
X106.0Y-87.0
X106.0Y-90.0
X106.0Y-93.0
X109.0Y-63.0
X109.0Y-66.0
X109.0Y-69.0
X109.0Y-78.0
X109.0Y-81.0
X109.0Y-84.0
X109.0Y-87.0
X109.0Y-90.0
X109.0Y-93.0
X112.0Y-63.0
X112.0Y-66.0
X112.0Y-78.0
X112.0Y-81.0
X112.0Y-84.0
X112.0Y-87.0
X112.0Y-93.0
X112.485Y-71.771
X113.055Y-74.12
X114.141Y-73.91
X115.0Y-63.0
X115.0Y-66.0
X115.0Y-84.0
X115.0Y-87.0
X115.0Y-93.0
X118.0Y-63.0
X118.0Y-66.0
X118.0Y-84.0
X118.0Y-87.0
X118.0Y-90.0
X118.0Y-93.0
X119.339Y-84.781
X119.412Y-65.281
X119.433Y-83.43
X119.536Y-82.053
X119.938Y-75.59
X119.948Y-74.034
X120.607Y-81.166
X121.0Y-63.0
X121.0Y-66.0
X121.0Y-72.0
X121.0Y-90.0
X121.0Y-93.0
X121.0Y-96.0
X121.0Y-99.0
X121.8Y-66.487
X122.225Y-88.339
X124.0Y-63.0
X124.0Y-69.0
X124.0Y-72.0
X124.0Y-75.0
X124.0Y-81.0
X124.0Y-93.0
X126.3Y-73.6
X126.3Y-76.9
X127.0Y-63.0
X127.0Y-81.0
X127.0Y-93.0
X129.5Y-80.987
X129.542Y-79.67
X130.0Y-63.0
X130.0Y-66.0
X130.0Y-87.0
X130.0Y-90.0
X130.0Y-93.0
X130.3Y-76.3
X130.357Y-79.542
X130.58Y-81.236
X130.756Y-82.664
X131.838Y-79.4
X132.309Y-68.826
X132.407Y-74.045
X133.0Y-63.0
X133.0Y-66.0
X133.142Y-89.203
X134.428Y-71.796
X135.634Y-76.739
X135.8Y-73.5
X136.0Y-63.0
X136.0Y-66.0
X136.506Y-77.216
X137.493Y-68.902
X137.668Y-76.98
X138.726Y-94.103
X139.0Y-63.0
X139.0Y-66.0
X141.433Y-79.471
X141.643Y-78.458
X142.0Y-63.0
X142.0Y-66.0
X143.0Y-71.987
X143.0Y-80.987
X144.24Y-84.537
X145.0Y-63.0
X148.0Y-63.0
X151.0Y-63.0
X151.0Y-66.0
X151.0Y-69.0
X154.018Y-62.991
X155.1Y-64.0
X155.525Y-71.0
X157.0Y-63.0
X157.066Y-87.12
X158.0Y-91.5
X160.0Y-63.0
X160.0Y-90.0
X160.3Y-84.0
X161.5Y-62.987
X163.0Y-63.0
X163.0Y-90.0
X163.0Y-93.0
X163.0Y-96.0
X166.0Y-63.0
X166.0Y-93.0
X169.0Y-63.0
X172.5Y-62.987
X175.0Y-63.0
X175.0Y-69.0
X175.0Y-72.0
X175.0Y-75.0
X175.0Y-78.0
X178.0Y-72.0
X178.0Y-75.0
X178.0Y-90.0
X178.0Y-93.0
X178.0Y-99.0
X181.0Y-63.0
X181.0Y-66.0
X181.0Y-69.0
X181.0Y-72.0
X181.0Y-75.0
X181.0Y-78.0
X181.0Y-81.0
X181.0Y-84.0
X181.0Y-87.0
X181.0Y-90.0
X181.0Y-93.0
X184.0Y-63.0
X184.0Y-66.0
X184.0Y-69.0
X184.0Y-72.0
X184.0Y-75.0
X184.0Y-78.0
X184.0Y-81.0
X184.0Y-84.0
X184.0Y-87.0
X184.0Y-93.0
X184.0Y-96.0
X184.0Y-99.0
T2
X177.5Y-63.5
X177.5Y-65.5
X177.5Y-67.5
X177.5Y-69.5
X177.5Y-77.0
X177.5Y-79.0
X177.5Y-84.5
X177.5Y-86.5
X177.5Y-88.5
T3
X127.0Y-70.0
X127.0Y-72.5
X127.0Y-75.0
X128.37Y-96.23
X128.37Y-98.77
X130.91Y-96.23
X130.91Y-98.77
X133.45Y-96.23
X133.45Y-98.77
X135.99Y-96.23
X135.99Y-98.77
X138.53Y-96.23
X138.53Y-98.77
X141.07Y-96.23
X141.07Y-98.77
X143.61Y-96.23
X143.61Y-98.77
X146.15Y-96.23
X146.15Y-98.77
X148.69Y-96.23
X148.69Y-98.77
X150.0Y-78.0
X150.0Y-80.54
X150.0Y-83.08
X151.23Y-96.23
X151.23Y-98.77
X152.54Y-78.0
X152.54Y-80.54
X152.54Y-83.08
X153.77Y-96.23
X153.77Y-98.77
X156.31Y-96.23
X156.31Y-98.77
X158.85Y-96.23
X158.85Y-98.77
X161.39Y-96.23
X161.39Y-98.77
X163.93Y-96.23
X163.93Y-98.77
X166.47Y-96.23
X166.47Y-98.77
X169.01Y-96.23
X169.01Y-98.77
X171.55Y-96.23
X171.55Y-98.77
X174.09Y-96.23
X174.09Y-98.77
X176.63Y-96.23
X176.63Y-98.77
M30
