%TF.GenerationSoftware,KiCad,Pcbnew,9.0.2+dfsg-1*%
%TF.CreationDate,2026-07-30T20:32:04+02:00*%
%TF.ProjectId,AskSin-Analyzer-V3,41736b53-696e-42d4-916e-616c797a6572,rev?*%
%TF.SameCoordinates,Original*%
%TF.FileFunction,Copper,L3,Inr*%
%TF.FilePolarity,Positive*%
%FSLAX46Y46*%
G04 Gerber Fmt 4.6, Leading zero omitted, Abs format (unit mm)*
G04 Created by KiCad (PCBNEW 9.0.2+dfsg-1) date 2026-07-30 20:32:04*
%MOMM*%
%LPD*%
G01*
G04 APERTURE LIST*
G04 Aperture macros list*
%AMRoundRect*
0 Rectangle with rounded corners*
0 $1 Rounding radius*
0 $2 $3 $4 $5 $6 $7 $8 $9 X,Y pos of 4 corners*
0 Add a 4 corners polygon primitive as box body*
4,1,4,$2,$3,$4,$5,$6,$7,$8,$9,$2,$3,0*
0 Add four circle primitives for the rounded corners*
1,1,$1+$1,$2,$3*
1,1,$1+$1,$4,$5*
1,1,$1+$1,$6,$7*
1,1,$1+$1,$8,$9*
0 Add four rect primitives between the rounded corners*
20,1,$1+$1,$2,$3,$4,$5,0*
20,1,$1+$1,$4,$5,$6,$7,0*
20,1,$1+$1,$6,$7,$8,$9,0*
20,1,$1+$1,$8,$9,$2,$3,0*%
G04 Aperture macros list end*
%TA.AperFunction,ComponentPad*%
%ADD10RoundRect,0.250000X0.625000X-0.350000X0.625000X0.350000X-0.625000X0.350000X-0.625000X-0.350000X0*%
%TD*%
%TA.AperFunction,ComponentPad*%
%ADD11O,1.750000X1.200000*%
%TD*%
%TA.AperFunction,ComponentPad*%
%ADD12R,1.700000X1.700000*%
%TD*%
%TA.AperFunction,ComponentPad*%
%ADD13C,1.700000*%
%TD*%
%TA.AperFunction,ViaPad*%
%ADD14C,0.600000*%
%TD*%
G04 APERTURE END LIST*
D10*
%TO.N,BTN*%
%TO.C,J6*%
X177500000Y-79000000D03*
D11*
%TO.N,GND*%
X177500000Y-77000000D03*
%TD*%
D12*
%TO.N,MISO*%
%TO.C,J2*%
X150000000Y-78000000D03*
D13*
%TO.N,+3V3*%
X152540000Y-78000000D03*
%TO.N,SCK*%
X150000000Y-80540000D03*
%TO.N,MOSI*%
X152540000Y-80540000D03*
%TO.N,RESET*%
X150000000Y-83080000D03*
%TO.N,GND*%
X152540000Y-83080000D03*
%TD*%
D10*
%TO.N,PI_3V3*%
%TO.C,J7*%
X177500000Y-88500000D03*
D11*
%TO.N,WS_DATA*%
X177500000Y-86500000D03*
%TO.N,GND*%
X177500000Y-84500000D03*
%TD*%
D13*
%TO.N,XTAL1*%
%TO.C,Y1*%
X127000000Y-75000000D03*
%TO.N,GND*%
X127000000Y-72500000D03*
%TO.N,XTAL2*%
X127000000Y-70000000D03*
%TD*%
D10*
%TO.N,GND*%
%TO.C,J5*%
X177500000Y-69500000D03*
D11*
%TO.N,PI_3V3*%
X177500000Y-67500000D03*
%TO.N,I2C_SCL*%
X177500000Y-65500000D03*
%TO.N,I2C_SDA*%
X177500000Y-63500000D03*
%TD*%
D12*
%TO.N,PI_3V3*%
%TO.C,J1*%
X128370000Y-98770000D03*
D13*
%TO.N,+5V*%
X128370000Y-96230000D03*
%TO.N,I2C_SDA*%
X130910000Y-98770000D03*
%TO.N,+5V*%
X130910000Y-96230000D03*
%TO.N,I2C_SCL*%
X133450000Y-98770000D03*
%TO.N,GND*%
X133450000Y-96230000D03*
%TO.N,PI_RESET_DRV*%
X135990000Y-98770000D03*
%TO.N,UART_PI_TX*%
X135990000Y-96230000D03*
%TO.N,GND*%
X138530000Y-98770000D03*
%TO.N,UART_328_TX*%
X138530000Y-96230000D03*
%TO.N,BTN*%
X141070000Y-98770000D03*
%TO.N,LED_PWM*%
X141070000Y-96230000D03*
%TO.N,N/C*%
X143610000Y-98770000D03*
%TO.N,GND*%
X143610000Y-96230000D03*
%TO.N,N/C*%
X146150000Y-98770000D03*
X146150000Y-96230000D03*
X148690000Y-98770000D03*
X148690000Y-96230000D03*
%TO.N,LED_SPI*%
X151230000Y-98770000D03*
%TO.N,GND*%
X151230000Y-96230000D03*
%TO.N,N/C*%
X153770000Y-98770000D03*
X153770000Y-96230000D03*
X156310000Y-98770000D03*
X156310000Y-96230000D03*
%TO.N,GND*%
X158850000Y-98770000D03*
%TO.N,N/C*%
X158850000Y-96230000D03*
X161390000Y-98770000D03*
X161390000Y-96230000D03*
X163930000Y-98770000D03*
%TO.N,GND*%
X163930000Y-96230000D03*
%TO.N,N/C*%
X166470000Y-98770000D03*
X166470000Y-96230000D03*
X169010000Y-98770000D03*
%TO.N,GND*%
X169010000Y-96230000D03*
%TO.N,N/C*%
X171550000Y-98770000D03*
X171550000Y-96230000D03*
X174090000Y-98770000D03*
X174090000Y-96230000D03*
%TO.N,GND*%
X176630000Y-98770000D03*
%TO.N,N/C*%
X176630000Y-96230000D03*
%TD*%
D14*
%TO.N,+5V*%
X134428400Y-71796300D03*
%TO.N,LED_SPI*%
X157066300Y-87119900D03*
%TO.N,+3V3*%
X122225500Y-88338900D03*
X120606800Y-81166400D03*
%TO.N,GND*%
X115000000Y-87000000D03*
X181000000Y-90000000D03*
X121000000Y-93000000D03*
X142000000Y-66000000D03*
X126300000Y-76900000D03*
X181000000Y-78000000D03*
X155525000Y-71000000D03*
X121800000Y-66487500D03*
X129500000Y-80987500D03*
X142000000Y-63000000D03*
X145000000Y-63000000D03*
X151000000Y-69000000D03*
X169000000Y-63000000D03*
X181000000Y-66000000D03*
X121000000Y-99000000D03*
X115000000Y-93000000D03*
X109000000Y-69000000D03*
X184000000Y-75000000D03*
X103000000Y-63000000D03*
X184000000Y-96000000D03*
X158000000Y-91500000D03*
X115000000Y-84000000D03*
X139000000Y-66000000D03*
X135800000Y-73500000D03*
X143000000Y-80987500D03*
X181000000Y-87000000D03*
X184000000Y-78000000D03*
X127000000Y-63000000D03*
X139000000Y-63000000D03*
X181000000Y-63000000D03*
X103000000Y-84000000D03*
X103000000Y-93000000D03*
X109000000Y-93000000D03*
X119938000Y-75589700D03*
X102588000Y-65281200D03*
X148000000Y-63000000D03*
X106000000Y-93000000D03*
X181000000Y-69000000D03*
X163000000Y-90000000D03*
X103000000Y-87000000D03*
X124000000Y-63000000D03*
X184000000Y-93000000D03*
X118000000Y-87000000D03*
X131837500Y-79400000D03*
X184000000Y-84000000D03*
X119536000Y-82053500D03*
X163000000Y-96000000D03*
X178000000Y-72000000D03*
X184000000Y-72000000D03*
X181000000Y-81000000D03*
X119339000Y-84781500D03*
X143000000Y-71987500D03*
X106000000Y-78000000D03*
X109000000Y-63000000D03*
X103000000Y-78000000D03*
X175000000Y-69000000D03*
X181000000Y-75000000D03*
X124000000Y-93000000D03*
X136000000Y-63000000D03*
X109000000Y-87000000D03*
X118000000Y-63000000D03*
X112000000Y-84000000D03*
X118000000Y-93000000D03*
X118000000Y-66000000D03*
X121000000Y-63000000D03*
X181000000Y-72000000D03*
X151000000Y-63000000D03*
X124000000Y-69000000D03*
X106000000Y-66000000D03*
X160000000Y-90000000D03*
X181000000Y-93000000D03*
X184000000Y-63000000D03*
X106000000Y-84000000D03*
X109000000Y-66000000D03*
X112000000Y-87000000D03*
X121000000Y-66000000D03*
X119948000Y-74034200D03*
X109000000Y-90000000D03*
X130000000Y-63000000D03*
X118000000Y-84000000D03*
X151000000Y-66000000D03*
X130000000Y-66000000D03*
X178000000Y-90000000D03*
X109000000Y-81000000D03*
X163000000Y-93000000D03*
X181000000Y-84000000D03*
X103000000Y-66000000D03*
X106000000Y-69000000D03*
X184000000Y-66000000D03*
X166000000Y-93000000D03*
X124000000Y-81000000D03*
X106000000Y-63000000D03*
X130000000Y-90000000D03*
X130000000Y-93000000D03*
X161500000Y-62987500D03*
X175000000Y-75000000D03*
X160000000Y-63000000D03*
X155100000Y-64000000D03*
X133000000Y-66000000D03*
X109000000Y-84000000D03*
X112000000Y-66000000D03*
X103000000Y-81000000D03*
X119412000Y-65281200D03*
X119433000Y-83429600D03*
X178000000Y-99000000D03*
X175000000Y-78000000D03*
X130000000Y-87000000D03*
X130300000Y-76300000D03*
X141643000Y-78457700D03*
X184000000Y-99000000D03*
X178000000Y-93000000D03*
X127000000Y-93000000D03*
X109000000Y-78000000D03*
X106000000Y-90000000D03*
X184000000Y-87000000D03*
X106000000Y-87000000D03*
X106000000Y-81000000D03*
X172500000Y-62987500D03*
X166000000Y-63000000D03*
X115000000Y-63000000D03*
X112000000Y-63000000D03*
X112000000Y-81000000D03*
X184000000Y-69000000D03*
X133000000Y-63000000D03*
X175000000Y-72000000D03*
X103700000Y-81000000D03*
X136000000Y-66000000D03*
X157000000Y-63000000D03*
X112000000Y-78000000D03*
X163000000Y-63000000D03*
X126300000Y-73600000D03*
X121000000Y-90000000D03*
X130357000Y-79542300D03*
X121000000Y-72000000D03*
X154018000Y-62991200D03*
X124000000Y-72000000D03*
X178000000Y-75000000D03*
X175000000Y-63000000D03*
X115000000Y-66000000D03*
X112000000Y-93000000D03*
X118000000Y-90000000D03*
X184000000Y-81000000D03*
X127000000Y-81000000D03*
X124000000Y-75000000D03*
X102661000Y-84781500D03*
X160300000Y-84000000D03*
X121000000Y-96000000D03*
%TO.N,UART_PI_TX*%
X135634000Y-76738800D03*
%TO.N,UART_328_TX*%
X138726200Y-94102600D03*
X136506300Y-77216400D03*
%TO.N,PI_RESET_DRV*%
X132309300Y-68826300D03*
%TO.N,RESET*%
X137493300Y-68902400D03*
X137668100Y-76980000D03*
%TO.N,MOSI*%
X130755900Y-82664100D03*
X114141300Y-73909700D03*
%TO.N,MISO*%
X112484800Y-71770800D03*
%TO.N,SCK*%
X113055200Y-74120000D03*
%TO.N,GDO0*%
X132407200Y-74044700D03*
X133141800Y-89203400D03*
%TO.N,XTAL1*%
X129541800Y-79670000D03*
%TO.N,XTAL2*%
X130579900Y-81236000D03*
%TO.N,AREF*%
X141432500Y-79470700D03*
X144239900Y-84537500D03*
%TD*%
%TA.AperFunction,Conductor*%
%TO.N,GND*%
G36*
X187458691Y-60519407D02*
G01*
X187494655Y-60568907D01*
X187499500Y-60599500D01*
X187499500Y-93400500D01*
X187480593Y-93458691D01*
X187431093Y-93494655D01*
X187400500Y-93499500D01*
X185065892Y-93499500D01*
X184934108Y-93499500D01*
X184856200Y-93520375D01*
X184806809Y-93533609D01*
X184692690Y-93599496D01*
X184599496Y-93692690D01*
X184533609Y-93806809D01*
X184499500Y-93934109D01*
X184499500Y-101400500D01*
X184480593Y-101458691D01*
X184431093Y-101494655D01*
X184400500Y-101499500D01*
X120599500Y-101499500D01*
X120541309Y-101480593D01*
X120505345Y-101431093D01*
X120500500Y-101400500D01*
X120500500Y-97381904D01*
X121999500Y-97381904D01*
X121999500Y-97618095D01*
X122036445Y-97851363D01*
X122109432Y-98075992D01*
X122169291Y-98193473D01*
X122216657Y-98286433D01*
X122355483Y-98477510D01*
X122522490Y-98644517D01*
X122713567Y-98783343D01*
X122924008Y-98890568D01*
X123148632Y-98963553D01*
X123148633Y-98963553D01*
X123148636Y-98963554D01*
X123381905Y-99000500D01*
X123381908Y-99000500D01*
X123618095Y-99000500D01*
X123851363Y-98963554D01*
X123851364Y-98963553D01*
X123851368Y-98963553D01*
X124075992Y-98890568D01*
X124286433Y-98783343D01*
X124477510Y-98644517D01*
X124644517Y-98477510D01*
X124783343Y-98286433D01*
X124890568Y-98075992D01*
X124955832Y-97875130D01*
X127219500Y-97875130D01*
X127219500Y-99664860D01*
X127219501Y-99664863D01*
X127222414Y-99689990D01*
X127247756Y-99747385D01*
X127267794Y-99792765D01*
X127347235Y-99872206D01*
X127450009Y-99917585D01*
X127475135Y-99920500D01*
X129264864Y-99920499D01*
X129289991Y-99917585D01*
X129392765Y-99872206D01*
X129472206Y-99792765D01*
X129517585Y-99689991D01*
X129520500Y-99664865D01*
X129520499Y-98679450D01*
X129759500Y-98679450D01*
X129759500Y-98860549D01*
X129787828Y-99039406D01*
X129843788Y-99211637D01*
X129912519Y-99346530D01*
X129926004Y-99372994D01*
X130032447Y-99519501D01*
X130160499Y-99647553D01*
X130307006Y-99753996D01*
X130468361Y-99836211D01*
X130640591Y-99892171D01*
X130712136Y-99903502D01*
X130819451Y-99920500D01*
X130819454Y-99920500D01*
X131000549Y-99920500D01*
X131089977Y-99906335D01*
X131179409Y-99892171D01*
X131351639Y-99836211D01*
X131512994Y-99753996D01*
X131659501Y-99647553D01*
X131787553Y-99519501D01*
X131893996Y-99372994D01*
X131976211Y-99211639D01*
X132032171Y-99039409D01*
X132060500Y-98860546D01*
X132060500Y-98679454D01*
X132060500Y-98679450D01*
X132299500Y-98679450D01*
X132299500Y-98860549D01*
X132327828Y-99039406D01*
X132383788Y-99211637D01*
X132452519Y-99346530D01*
X132466004Y-99372994D01*
X132572447Y-99519501D01*
X132700499Y-99647553D01*
X132847006Y-99753996D01*
X133008361Y-99836211D01*
X133180591Y-99892171D01*
X133252136Y-99903502D01*
X133359451Y-99920500D01*
X133359454Y-99920500D01*
X133540549Y-99920500D01*
X133629977Y-99906335D01*
X133719409Y-99892171D01*
X133891639Y-99836211D01*
X134052994Y-99753996D01*
X134199501Y-99647553D01*
X134327553Y-99519501D01*
X134433996Y-99372994D01*
X134516211Y-99211639D01*
X134572171Y-99039409D01*
X134600500Y-98860546D01*
X134600500Y-98679454D01*
X134600500Y-98679450D01*
X134839500Y-98679450D01*
X134839500Y-98860549D01*
X134867828Y-99039406D01*
X134923788Y-99211637D01*
X134992519Y-99346530D01*
X135006004Y-99372994D01*
X135112447Y-99519501D01*
X135240499Y-99647553D01*
X135387006Y-99753996D01*
X135548361Y-99836211D01*
X135720591Y-99892171D01*
X135792136Y-99903502D01*
X135899451Y-99920500D01*
X135899454Y-99920500D01*
X136080549Y-99920500D01*
X136169977Y-99906335D01*
X136259409Y-99892171D01*
X136431639Y-99836211D01*
X136592994Y-99753996D01*
X136739501Y-99647553D01*
X136867553Y-99519501D01*
X136973996Y-99372994D01*
X137056211Y-99211639D01*
X137112171Y-99039409D01*
X137140500Y-98860546D01*
X137140500Y-98683424D01*
X137430000Y-98683424D01*
X137430000Y-98856575D01*
X137457084Y-99027579D01*
X137510588Y-99192248D01*
X137589194Y-99346522D01*
X137623463Y-99393691D01*
X138061979Y-98955174D01*
X138064075Y-98962993D01*
X138129901Y-99077007D01*
X138222993Y-99170099D01*
X138337007Y-99235925D01*
X138344822Y-99238019D01*
X137906307Y-99676535D01*
X137953476Y-99710804D01*
X138107751Y-99789411D01*
X138272420Y-99842915D01*
X138443425Y-99870000D01*
X138616575Y-99870000D01*
X138787579Y-99842915D01*
X138952248Y-99789411D01*
X139106524Y-99710804D01*
X139106530Y-99710800D01*
X139153691Y-99676535D01*
X138715175Y-99238019D01*
X138722993Y-99235925D01*
X138837007Y-99170099D01*
X138930099Y-99077007D01*
X138995925Y-98962993D01*
X138998019Y-98955175D01*
X139436535Y-99393691D01*
X139470800Y-99346530D01*
X139470804Y-99346524D01*
X139549411Y-99192248D01*
X139602915Y-99027579D01*
X139630000Y-98856575D01*
X139630000Y-98683425D01*
X139629999Y-98683424D01*
X139629370Y-98679450D01*
X139919500Y-98679450D01*
X139919500Y-98860549D01*
X139947828Y-99039406D01*
X140003788Y-99211637D01*
X140072519Y-99346530D01*
X140086004Y-99372994D01*
X140192447Y-99519501D01*
X140320499Y-99647553D01*
X140467006Y-99753996D01*
X140628361Y-99836211D01*
X140800591Y-99892171D01*
X140872136Y-99903502D01*
X140979451Y-99920500D01*
X140979454Y-99920500D01*
X141160549Y-99920500D01*
X141249977Y-99906335D01*
X141339409Y-99892171D01*
X141511639Y-99836211D01*
X141672994Y-99753996D01*
X141819501Y-99647553D01*
X141947553Y-99519501D01*
X142053996Y-99372994D01*
X142136211Y-99211639D01*
X142192171Y-99039409D01*
X142220500Y-98860546D01*
X142220500Y-98679454D01*
X142220500Y-98679450D01*
X142459500Y-98679450D01*
X142459500Y-98860549D01*
X142487828Y-99039406D01*
X142543788Y-99211637D01*
X142612519Y-99346530D01*
X142626004Y-99372994D01*
X142732447Y-99519501D01*
X142860499Y-99647553D01*
X143007006Y-99753996D01*
X143168361Y-99836211D01*
X143340591Y-99892171D01*
X143412136Y-99903502D01*
X143519451Y-99920500D01*
X143519454Y-99920500D01*
X143700549Y-99920500D01*
X143789977Y-99906335D01*
X143879409Y-99892171D01*
X144051639Y-99836211D01*
X144212994Y-99753996D01*
X144359501Y-99647553D01*
X144487553Y-99519501D01*
X144593996Y-99372994D01*
X144676211Y-99211639D01*
X144732171Y-99039409D01*
X144760500Y-98860546D01*
X144760500Y-98679454D01*
X144760500Y-98679450D01*
X144999500Y-98679450D01*
X144999500Y-98860549D01*
X145027828Y-99039406D01*
X145083788Y-99211637D01*
X145152519Y-99346530D01*
X145166004Y-99372994D01*
X145272447Y-99519501D01*
X145400499Y-99647553D01*
X145547006Y-99753996D01*
X145708361Y-99836211D01*
X145880591Y-99892171D01*
X145952136Y-99903502D01*
X146059451Y-99920500D01*
X146059454Y-99920500D01*
X146240549Y-99920500D01*
X146329977Y-99906335D01*
X146419409Y-99892171D01*
X146591639Y-99836211D01*
X146752994Y-99753996D01*
X146899501Y-99647553D01*
X147027553Y-99519501D01*
X147133996Y-99372994D01*
X147216211Y-99211639D01*
X147272171Y-99039409D01*
X147300500Y-98860546D01*
X147300500Y-98679454D01*
X147300500Y-98679450D01*
X147539500Y-98679450D01*
X147539500Y-98860549D01*
X147567828Y-99039406D01*
X147623788Y-99211637D01*
X147692519Y-99346530D01*
X147706004Y-99372994D01*
X147812447Y-99519501D01*
X147940499Y-99647553D01*
X148087006Y-99753996D01*
X148248361Y-99836211D01*
X148420591Y-99892171D01*
X148492136Y-99903502D01*
X148599451Y-99920500D01*
X148599454Y-99920500D01*
X148780549Y-99920500D01*
X148869977Y-99906335D01*
X148959409Y-99892171D01*
X149131639Y-99836211D01*
X149292994Y-99753996D01*
X149439501Y-99647553D01*
X149567553Y-99519501D01*
X149673996Y-99372994D01*
X149756211Y-99211639D01*
X149812171Y-99039409D01*
X149840500Y-98860546D01*
X149840500Y-98679454D01*
X149840500Y-98679450D01*
X150079500Y-98679450D01*
X150079500Y-98860549D01*
X150107828Y-99039406D01*
X150163788Y-99211637D01*
X150232519Y-99346530D01*
X150246004Y-99372994D01*
X150352447Y-99519501D01*
X150480499Y-99647553D01*
X150627006Y-99753996D01*
X150788361Y-99836211D01*
X150960591Y-99892171D01*
X151032136Y-99903502D01*
X151139451Y-99920500D01*
X151139454Y-99920500D01*
X151320549Y-99920500D01*
X151409977Y-99906335D01*
X151499409Y-99892171D01*
X151671639Y-99836211D01*
X151832994Y-99753996D01*
X151979501Y-99647553D01*
X152107553Y-99519501D01*
X152213996Y-99372994D01*
X152296211Y-99211639D01*
X152352171Y-99039409D01*
X152380500Y-98860546D01*
X152380500Y-98679454D01*
X152380500Y-98679450D01*
X152619500Y-98679450D01*
X152619500Y-98860549D01*
X152647828Y-99039406D01*
X152703788Y-99211637D01*
X152772519Y-99346530D01*
X152786004Y-99372994D01*
X152892447Y-99519501D01*
X153020499Y-99647553D01*
X153167006Y-99753996D01*
X153328361Y-99836211D01*
X153500591Y-99892171D01*
X153572136Y-99903502D01*
X153679451Y-99920500D01*
X153679454Y-99920500D01*
X153860549Y-99920500D01*
X153949977Y-99906335D01*
X154039409Y-99892171D01*
X154211639Y-99836211D01*
X154372994Y-99753996D01*
X154519501Y-99647553D01*
X154647553Y-99519501D01*
X154753996Y-99372994D01*
X154836211Y-99211639D01*
X154892171Y-99039409D01*
X154920500Y-98860546D01*
X154920500Y-98679454D01*
X154920500Y-98679450D01*
X155159500Y-98679450D01*
X155159500Y-98860549D01*
X155187828Y-99039406D01*
X155243788Y-99211637D01*
X155312519Y-99346530D01*
X155326004Y-99372994D01*
X155432447Y-99519501D01*
X155560499Y-99647553D01*
X155707006Y-99753996D01*
X155868361Y-99836211D01*
X156040591Y-99892171D01*
X156112136Y-99903502D01*
X156219451Y-99920500D01*
X156219454Y-99920500D01*
X156400549Y-99920500D01*
X156489977Y-99906335D01*
X156579409Y-99892171D01*
X156751639Y-99836211D01*
X156912994Y-99753996D01*
X157059501Y-99647553D01*
X157187553Y-99519501D01*
X157293996Y-99372994D01*
X157376211Y-99211639D01*
X157432171Y-99039409D01*
X157460500Y-98860546D01*
X157460500Y-98683424D01*
X157750000Y-98683424D01*
X157750000Y-98856575D01*
X157777084Y-99027579D01*
X157830588Y-99192248D01*
X157909194Y-99346522D01*
X157943463Y-99393691D01*
X158381979Y-98955174D01*
X158384075Y-98962993D01*
X158449901Y-99077007D01*
X158542993Y-99170099D01*
X158657007Y-99235925D01*
X158664822Y-99238019D01*
X158226307Y-99676535D01*
X158273476Y-99710804D01*
X158427751Y-99789411D01*
X158592420Y-99842915D01*
X158763425Y-99870000D01*
X158936575Y-99870000D01*
X159107579Y-99842915D01*
X159272248Y-99789411D01*
X159426524Y-99710804D01*
X159426530Y-99710800D01*
X159473691Y-99676535D01*
X159035175Y-99238019D01*
X159042993Y-99235925D01*
X159157007Y-99170099D01*
X159250099Y-99077007D01*
X159315925Y-98962993D01*
X159318019Y-98955175D01*
X159756535Y-99393691D01*
X159790800Y-99346530D01*
X159790804Y-99346524D01*
X159869411Y-99192248D01*
X159922915Y-99027579D01*
X159950000Y-98856575D01*
X159950000Y-98683425D01*
X159949999Y-98683424D01*
X159949370Y-98679450D01*
X160239500Y-98679450D01*
X160239500Y-98860549D01*
X160267828Y-99039406D01*
X160323788Y-99211637D01*
X160392519Y-99346530D01*
X160406004Y-99372994D01*
X160512447Y-99519501D01*
X160640499Y-99647553D01*
X160787006Y-99753996D01*
X160948361Y-99836211D01*
X161120591Y-99892171D01*
X161192136Y-99903502D01*
X161299451Y-99920500D01*
X161299454Y-99920500D01*
X161480549Y-99920500D01*
X161569977Y-99906335D01*
X161659409Y-99892171D01*
X161831639Y-99836211D01*
X161992994Y-99753996D01*
X162139501Y-99647553D01*
X162267553Y-99519501D01*
X162373996Y-99372994D01*
X162456211Y-99211639D01*
X162512171Y-99039409D01*
X162540500Y-98860546D01*
X162540500Y-98679454D01*
X162540500Y-98679450D01*
X162779500Y-98679450D01*
X162779500Y-98860549D01*
X162807828Y-99039406D01*
X162863788Y-99211637D01*
X162932519Y-99346530D01*
X162946004Y-99372994D01*
X163052447Y-99519501D01*
X163180499Y-99647553D01*
X163327006Y-99753996D01*
X163488361Y-99836211D01*
X163660591Y-99892171D01*
X163732136Y-99903502D01*
X163839451Y-99920500D01*
X163839454Y-99920500D01*
X164020549Y-99920500D01*
X164109977Y-99906335D01*
X164199409Y-99892171D01*
X164371639Y-99836211D01*
X164532994Y-99753996D01*
X164679501Y-99647553D01*
X164807553Y-99519501D01*
X164913996Y-99372994D01*
X164996211Y-99211639D01*
X165052171Y-99039409D01*
X165080500Y-98860546D01*
X165080500Y-98679454D01*
X165080500Y-98679450D01*
X165319500Y-98679450D01*
X165319500Y-98860549D01*
X165347828Y-99039406D01*
X165403788Y-99211637D01*
X165472519Y-99346530D01*
X165486004Y-99372994D01*
X165592447Y-99519501D01*
X165720499Y-99647553D01*
X165867006Y-99753996D01*
X166028361Y-99836211D01*
X166200591Y-99892171D01*
X166272136Y-99903502D01*
X166379451Y-99920500D01*
X166379454Y-99920500D01*
X166560549Y-99920500D01*
X166649977Y-99906335D01*
X166739409Y-99892171D01*
X166911639Y-99836211D01*
X167072994Y-99753996D01*
X167219501Y-99647553D01*
X167347553Y-99519501D01*
X167453996Y-99372994D01*
X167536211Y-99211639D01*
X167592171Y-99039409D01*
X167620500Y-98860546D01*
X167620500Y-98679454D01*
X167620500Y-98679450D01*
X167859500Y-98679450D01*
X167859500Y-98860549D01*
X167887828Y-99039406D01*
X167943788Y-99211637D01*
X168012519Y-99346530D01*
X168026004Y-99372994D01*
X168132447Y-99519501D01*
X168260499Y-99647553D01*
X168407006Y-99753996D01*
X168568361Y-99836211D01*
X168740591Y-99892171D01*
X168812136Y-99903502D01*
X168919451Y-99920500D01*
X168919454Y-99920500D01*
X169100549Y-99920500D01*
X169189977Y-99906335D01*
X169279409Y-99892171D01*
X169451639Y-99836211D01*
X169612994Y-99753996D01*
X169759501Y-99647553D01*
X169887553Y-99519501D01*
X169993996Y-99372994D01*
X170076211Y-99211639D01*
X170132171Y-99039409D01*
X170160500Y-98860546D01*
X170160500Y-98679454D01*
X170160500Y-98679450D01*
X170399500Y-98679450D01*
X170399500Y-98860549D01*
X170427828Y-99039406D01*
X170483788Y-99211637D01*
X170552519Y-99346530D01*
X170566004Y-99372994D01*
X170672447Y-99519501D01*
X170800499Y-99647553D01*
X170947006Y-99753996D01*
X171108361Y-99836211D01*
X171280591Y-99892171D01*
X171352136Y-99903502D01*
X171459451Y-99920500D01*
X171459454Y-99920500D01*
X171640549Y-99920500D01*
X171729977Y-99906335D01*
X171819409Y-99892171D01*
X171991639Y-99836211D01*
X172152994Y-99753996D01*
X172299501Y-99647553D01*
X172427553Y-99519501D01*
X172533996Y-99372994D01*
X172616211Y-99211639D01*
X172672171Y-99039409D01*
X172700500Y-98860546D01*
X172700500Y-98679454D01*
X172700500Y-98679450D01*
X172939500Y-98679450D01*
X172939500Y-98860549D01*
X172967828Y-99039406D01*
X173023788Y-99211637D01*
X173092519Y-99346530D01*
X173106004Y-99372994D01*
X173212447Y-99519501D01*
X173340499Y-99647553D01*
X173487006Y-99753996D01*
X173648361Y-99836211D01*
X173820591Y-99892171D01*
X173892136Y-99903502D01*
X173999451Y-99920500D01*
X173999454Y-99920500D01*
X174180549Y-99920500D01*
X174269977Y-99906335D01*
X174359409Y-99892171D01*
X174531639Y-99836211D01*
X174692994Y-99753996D01*
X174839501Y-99647553D01*
X174967553Y-99519501D01*
X175073996Y-99372994D01*
X175156211Y-99211639D01*
X175212171Y-99039409D01*
X175240500Y-98860546D01*
X175240500Y-98683424D01*
X175530000Y-98683424D01*
X175530000Y-98856575D01*
X175557084Y-99027579D01*
X175610588Y-99192248D01*
X175689194Y-99346522D01*
X175723463Y-99393691D01*
X176161979Y-98955174D01*
X176164075Y-98962993D01*
X176229901Y-99077007D01*
X176322993Y-99170099D01*
X176437007Y-99235925D01*
X176444822Y-99238019D01*
X176006307Y-99676535D01*
X176053476Y-99710804D01*
X176207751Y-99789411D01*
X176372420Y-99842915D01*
X176543425Y-99870000D01*
X176716575Y-99870000D01*
X176887579Y-99842915D01*
X177052248Y-99789411D01*
X177206524Y-99710804D01*
X177206530Y-99710800D01*
X177253691Y-99676535D01*
X176815175Y-99238019D01*
X176822993Y-99235925D01*
X176937007Y-99170099D01*
X177030099Y-99077007D01*
X177095925Y-98962993D01*
X177098019Y-98955175D01*
X177536535Y-99393691D01*
X177570800Y-99346530D01*
X177570804Y-99346524D01*
X177649411Y-99192248D01*
X177702915Y-99027579D01*
X177730000Y-98856575D01*
X177730000Y-98683424D01*
X177702915Y-98512420D01*
X177649411Y-98347751D01*
X177570804Y-98193476D01*
X177536535Y-98146307D01*
X177098019Y-98584822D01*
X177095925Y-98577007D01*
X177030099Y-98462993D01*
X176937007Y-98369901D01*
X176822993Y-98304075D01*
X176815174Y-98301979D01*
X177253691Y-97863463D01*
X177206522Y-97829194D01*
X177052248Y-97750588D01*
X176887579Y-97697084D01*
X176716575Y-97670000D01*
X176543425Y-97670000D01*
X176372420Y-97697084D01*
X176207751Y-97750588D01*
X176053473Y-97829196D01*
X176006307Y-97863463D01*
X176444824Y-98301980D01*
X176437007Y-98304075D01*
X176322993Y-98369901D01*
X176229901Y-98462993D01*
X176164075Y-98577007D01*
X176161980Y-98584824D01*
X175723463Y-98146307D01*
X175689196Y-98193473D01*
X175610588Y-98347751D01*
X175557084Y-98512420D01*
X175530000Y-98683424D01*
X175240500Y-98683424D01*
X175240500Y-98679454D01*
X175240500Y-98679450D01*
X175221614Y-98560212D01*
X175212171Y-98500591D01*
X175156211Y-98328361D01*
X175073996Y-98167006D01*
X174967553Y-98020499D01*
X174839501Y-97892447D01*
X174692994Y-97786004D01*
X174692993Y-97786003D01*
X174692991Y-97786002D01*
X174531637Y-97703788D01*
X174359406Y-97647828D01*
X174180549Y-97619500D01*
X174180546Y-97619500D01*
X173999454Y-97619500D01*
X173999451Y-97619500D01*
X173820593Y-97647828D01*
X173648362Y-97703788D01*
X173487008Y-97786002D01*
X173427560Y-97829194D01*
X173340499Y-97892447D01*
X173212447Y-98020499D01*
X173172129Y-98075992D01*
X173106002Y-98167008D01*
X173023788Y-98328362D01*
X172967828Y-98500593D01*
X172939500Y-98679450D01*
X172700500Y-98679450D01*
X172681614Y-98560212D01*
X172672171Y-98500591D01*
X172616211Y-98328361D01*
X172533996Y-98167006D01*
X172427553Y-98020499D01*
X172299501Y-97892447D01*
X172152994Y-97786004D01*
X172152993Y-97786003D01*
X172152991Y-97786002D01*
X171991637Y-97703788D01*
X171819406Y-97647828D01*
X171640549Y-97619500D01*
X171640546Y-97619500D01*
X171459454Y-97619500D01*
X171459451Y-97619500D01*
X171280593Y-97647828D01*
X171108362Y-97703788D01*
X170947008Y-97786002D01*
X170887560Y-97829194D01*
X170800499Y-97892447D01*
X170672447Y-98020499D01*
X170632129Y-98075992D01*
X170566002Y-98167008D01*
X170483788Y-98328362D01*
X170427828Y-98500593D01*
X170399500Y-98679450D01*
X170160500Y-98679450D01*
X170141614Y-98560212D01*
X170132171Y-98500591D01*
X170076211Y-98328361D01*
X169993996Y-98167006D01*
X169887553Y-98020499D01*
X169759501Y-97892447D01*
X169612994Y-97786004D01*
X169612993Y-97786003D01*
X169612991Y-97786002D01*
X169451637Y-97703788D01*
X169279406Y-97647828D01*
X169100549Y-97619500D01*
X169100546Y-97619500D01*
X168919454Y-97619500D01*
X168919451Y-97619500D01*
X168740593Y-97647828D01*
X168568362Y-97703788D01*
X168407008Y-97786002D01*
X168347560Y-97829194D01*
X168260499Y-97892447D01*
X168132447Y-98020499D01*
X168092129Y-98075992D01*
X168026002Y-98167008D01*
X167943788Y-98328362D01*
X167887828Y-98500593D01*
X167859500Y-98679450D01*
X167620500Y-98679450D01*
X167601614Y-98560212D01*
X167592171Y-98500591D01*
X167536211Y-98328361D01*
X167453996Y-98167006D01*
X167347553Y-98020499D01*
X167219501Y-97892447D01*
X167072994Y-97786004D01*
X167072993Y-97786003D01*
X167072991Y-97786002D01*
X166911637Y-97703788D01*
X166739406Y-97647828D01*
X166560549Y-97619500D01*
X166560546Y-97619500D01*
X166379454Y-97619500D01*
X166379451Y-97619500D01*
X166200593Y-97647828D01*
X166028362Y-97703788D01*
X165867008Y-97786002D01*
X165807560Y-97829194D01*
X165720499Y-97892447D01*
X165592447Y-98020499D01*
X165552129Y-98075992D01*
X165486002Y-98167008D01*
X165403788Y-98328362D01*
X165347828Y-98500593D01*
X165319500Y-98679450D01*
X165080500Y-98679450D01*
X165061614Y-98560212D01*
X165052171Y-98500591D01*
X164996211Y-98328361D01*
X164913996Y-98167006D01*
X164807553Y-98020499D01*
X164679501Y-97892447D01*
X164532994Y-97786004D01*
X164532993Y-97786003D01*
X164532991Y-97786002D01*
X164371637Y-97703788D01*
X164199406Y-97647828D01*
X164020549Y-97619500D01*
X164020546Y-97619500D01*
X163839454Y-97619500D01*
X163839451Y-97619500D01*
X163660593Y-97647828D01*
X163488362Y-97703788D01*
X163327008Y-97786002D01*
X163267560Y-97829194D01*
X163180499Y-97892447D01*
X163052447Y-98020499D01*
X163012129Y-98075992D01*
X162946002Y-98167008D01*
X162863788Y-98328362D01*
X162807828Y-98500593D01*
X162779500Y-98679450D01*
X162540500Y-98679450D01*
X162521614Y-98560212D01*
X162512171Y-98500591D01*
X162456211Y-98328361D01*
X162373996Y-98167006D01*
X162267553Y-98020499D01*
X162139501Y-97892447D01*
X161992994Y-97786004D01*
X161992993Y-97786003D01*
X161992991Y-97786002D01*
X161831637Y-97703788D01*
X161659406Y-97647828D01*
X161480549Y-97619500D01*
X161480546Y-97619500D01*
X161299454Y-97619500D01*
X161299451Y-97619500D01*
X161120593Y-97647828D01*
X160948362Y-97703788D01*
X160787008Y-97786002D01*
X160727560Y-97829194D01*
X160640499Y-97892447D01*
X160512447Y-98020499D01*
X160472129Y-98075992D01*
X160406002Y-98167008D01*
X160323788Y-98328362D01*
X160267828Y-98500593D01*
X160239500Y-98679450D01*
X159949370Y-98679450D01*
X159922915Y-98512420D01*
X159869411Y-98347751D01*
X159790804Y-98193476D01*
X159756535Y-98146307D01*
X159318019Y-98584822D01*
X159315925Y-98577007D01*
X159250099Y-98462993D01*
X159157007Y-98369901D01*
X159042993Y-98304075D01*
X159035174Y-98301979D01*
X159473691Y-97863463D01*
X159426522Y-97829194D01*
X159272248Y-97750588D01*
X159107579Y-97697084D01*
X158936575Y-97670000D01*
X158763425Y-97670000D01*
X158592420Y-97697084D01*
X158427751Y-97750588D01*
X158273473Y-97829196D01*
X158226307Y-97863463D01*
X158664824Y-98301980D01*
X158657007Y-98304075D01*
X158542993Y-98369901D01*
X158449901Y-98462993D01*
X158384075Y-98577007D01*
X158381980Y-98584824D01*
X157943463Y-98146307D01*
X157909196Y-98193473D01*
X157830588Y-98347751D01*
X157777084Y-98512420D01*
X157750000Y-98683424D01*
X157460500Y-98683424D01*
X157460500Y-98679454D01*
X157460500Y-98679450D01*
X157441614Y-98560212D01*
X157432171Y-98500591D01*
X157376211Y-98328361D01*
X157293996Y-98167006D01*
X157187553Y-98020499D01*
X157059501Y-97892447D01*
X156912994Y-97786004D01*
X156912993Y-97786003D01*
X156912991Y-97786002D01*
X156751637Y-97703788D01*
X156579406Y-97647828D01*
X156400549Y-97619500D01*
X156400546Y-97619500D01*
X156219454Y-97619500D01*
X156219451Y-97619500D01*
X156040593Y-97647828D01*
X155868362Y-97703788D01*
X155707008Y-97786002D01*
X155647560Y-97829194D01*
X155560499Y-97892447D01*
X155432447Y-98020499D01*
X155392129Y-98075992D01*
X155326002Y-98167008D01*
X155243788Y-98328362D01*
X155187828Y-98500593D01*
X155159500Y-98679450D01*
X154920500Y-98679450D01*
X154901614Y-98560212D01*
X154892171Y-98500591D01*
X154836211Y-98328361D01*
X154753996Y-98167006D01*
X154647553Y-98020499D01*
X154519501Y-97892447D01*
X154372994Y-97786004D01*
X154372993Y-97786003D01*
X154372991Y-97786002D01*
X154211637Y-97703788D01*
X154039406Y-97647828D01*
X153860549Y-97619500D01*
X153860546Y-97619500D01*
X153679454Y-97619500D01*
X153679451Y-97619500D01*
X153500593Y-97647828D01*
X153328362Y-97703788D01*
X153167008Y-97786002D01*
X153107560Y-97829194D01*
X153020499Y-97892447D01*
X152892447Y-98020499D01*
X152852129Y-98075992D01*
X152786002Y-98167008D01*
X152703788Y-98328362D01*
X152647828Y-98500593D01*
X152619500Y-98679450D01*
X152380500Y-98679450D01*
X152361614Y-98560212D01*
X152352171Y-98500591D01*
X152296211Y-98328361D01*
X152213996Y-98167006D01*
X152107553Y-98020499D01*
X151979501Y-97892447D01*
X151832994Y-97786004D01*
X151832993Y-97786003D01*
X151832991Y-97786002D01*
X151671637Y-97703788D01*
X151499406Y-97647828D01*
X151320549Y-97619500D01*
X151320546Y-97619500D01*
X151139454Y-97619500D01*
X151139451Y-97619500D01*
X150960593Y-97647828D01*
X150788362Y-97703788D01*
X150627008Y-97786002D01*
X150567560Y-97829194D01*
X150480499Y-97892447D01*
X150352447Y-98020499D01*
X150312129Y-98075992D01*
X150246002Y-98167008D01*
X150163788Y-98328362D01*
X150107828Y-98500593D01*
X150079500Y-98679450D01*
X149840500Y-98679450D01*
X149821614Y-98560212D01*
X149812171Y-98500591D01*
X149756211Y-98328361D01*
X149673996Y-98167006D01*
X149567553Y-98020499D01*
X149439501Y-97892447D01*
X149292994Y-97786004D01*
X149292993Y-97786003D01*
X149292991Y-97786002D01*
X149131637Y-97703788D01*
X148959406Y-97647828D01*
X148780549Y-97619500D01*
X148780546Y-97619500D01*
X148599454Y-97619500D01*
X148599451Y-97619500D01*
X148420593Y-97647828D01*
X148248362Y-97703788D01*
X148087008Y-97786002D01*
X148027560Y-97829194D01*
X147940499Y-97892447D01*
X147812447Y-98020499D01*
X147772129Y-98075992D01*
X147706002Y-98167008D01*
X147623788Y-98328362D01*
X147567828Y-98500593D01*
X147539500Y-98679450D01*
X147300500Y-98679450D01*
X147281614Y-98560212D01*
X147272171Y-98500591D01*
X147216211Y-98328361D01*
X147133996Y-98167006D01*
X147027553Y-98020499D01*
X146899501Y-97892447D01*
X146752994Y-97786004D01*
X146752993Y-97786003D01*
X146752991Y-97786002D01*
X146591637Y-97703788D01*
X146419406Y-97647828D01*
X146240549Y-97619500D01*
X146240546Y-97619500D01*
X146059454Y-97619500D01*
X146059451Y-97619500D01*
X145880593Y-97647828D01*
X145708362Y-97703788D01*
X145547008Y-97786002D01*
X145487560Y-97829194D01*
X145400499Y-97892447D01*
X145272447Y-98020499D01*
X145232129Y-98075992D01*
X145166002Y-98167008D01*
X145083788Y-98328362D01*
X145027828Y-98500593D01*
X144999500Y-98679450D01*
X144760500Y-98679450D01*
X144741614Y-98560212D01*
X144732171Y-98500591D01*
X144676211Y-98328361D01*
X144593996Y-98167006D01*
X144487553Y-98020499D01*
X144359501Y-97892447D01*
X144212994Y-97786004D01*
X144212993Y-97786003D01*
X144212991Y-97786002D01*
X144051637Y-97703788D01*
X143879406Y-97647828D01*
X143700549Y-97619500D01*
X143700546Y-97619500D01*
X143519454Y-97619500D01*
X143519451Y-97619500D01*
X143340593Y-97647828D01*
X143168362Y-97703788D01*
X143007008Y-97786002D01*
X142947560Y-97829194D01*
X142860499Y-97892447D01*
X142732447Y-98020499D01*
X142692129Y-98075992D01*
X142626002Y-98167008D01*
X142543788Y-98328362D01*
X142487828Y-98500593D01*
X142459500Y-98679450D01*
X142220500Y-98679450D01*
X142201614Y-98560212D01*
X142192171Y-98500591D01*
X142136211Y-98328361D01*
X142053996Y-98167006D01*
X141947553Y-98020499D01*
X141819501Y-97892447D01*
X141672994Y-97786004D01*
X141672993Y-97786003D01*
X141672991Y-97786002D01*
X141511637Y-97703788D01*
X141339406Y-97647828D01*
X141160549Y-97619500D01*
X141160546Y-97619500D01*
X140979454Y-97619500D01*
X140979451Y-97619500D01*
X140800593Y-97647828D01*
X140628362Y-97703788D01*
X140467008Y-97786002D01*
X140407560Y-97829194D01*
X140320499Y-97892447D01*
X140192447Y-98020499D01*
X140152129Y-98075992D01*
X140086002Y-98167008D01*
X140003788Y-98328362D01*
X139947828Y-98500593D01*
X139919500Y-98679450D01*
X139629370Y-98679450D01*
X139602915Y-98512420D01*
X139549411Y-98347751D01*
X139470804Y-98193476D01*
X139436535Y-98146307D01*
X138998019Y-98584822D01*
X138995925Y-98577007D01*
X138930099Y-98462993D01*
X138837007Y-98369901D01*
X138722993Y-98304075D01*
X138715174Y-98301979D01*
X139153691Y-97863463D01*
X139106522Y-97829194D01*
X138952248Y-97750588D01*
X138787579Y-97697084D01*
X138616575Y-97670000D01*
X138443425Y-97670000D01*
X138272420Y-97697084D01*
X138107751Y-97750588D01*
X137953473Y-97829196D01*
X137906307Y-97863463D01*
X138344824Y-98301980D01*
X138337007Y-98304075D01*
X138222993Y-98369901D01*
X138129901Y-98462993D01*
X138064075Y-98577007D01*
X138061980Y-98584824D01*
X137623463Y-98146307D01*
X137589196Y-98193473D01*
X137510588Y-98347751D01*
X137457084Y-98512420D01*
X137430000Y-98683424D01*
X137140500Y-98683424D01*
X137140500Y-98679454D01*
X137140500Y-98679450D01*
X137121614Y-98560212D01*
X137112171Y-98500591D01*
X137056211Y-98328361D01*
X136973996Y-98167006D01*
X136867553Y-98020499D01*
X136739501Y-97892447D01*
X136592994Y-97786004D01*
X136592993Y-97786003D01*
X136592991Y-97786002D01*
X136431637Y-97703788D01*
X136259406Y-97647828D01*
X136080549Y-97619500D01*
X136080546Y-97619500D01*
X135899454Y-97619500D01*
X135899451Y-97619500D01*
X135720593Y-97647828D01*
X135548362Y-97703788D01*
X135387008Y-97786002D01*
X135327560Y-97829194D01*
X135240499Y-97892447D01*
X135112447Y-98020499D01*
X135072129Y-98075992D01*
X135006002Y-98167008D01*
X134923788Y-98328362D01*
X134867828Y-98500593D01*
X134839500Y-98679450D01*
X134600500Y-98679450D01*
X134581614Y-98560212D01*
X134572171Y-98500591D01*
X134516211Y-98328361D01*
X134433996Y-98167006D01*
X134327553Y-98020499D01*
X134199501Y-97892447D01*
X134052994Y-97786004D01*
X134052993Y-97786003D01*
X134052991Y-97786002D01*
X133891637Y-97703788D01*
X133719406Y-97647828D01*
X133540549Y-97619500D01*
X133540546Y-97619500D01*
X133359454Y-97619500D01*
X133359451Y-97619500D01*
X133180593Y-97647828D01*
X133008362Y-97703788D01*
X132847008Y-97786002D01*
X132787560Y-97829194D01*
X132700499Y-97892447D01*
X132572447Y-98020499D01*
X132532129Y-98075992D01*
X132466002Y-98167008D01*
X132383788Y-98328362D01*
X132327828Y-98500593D01*
X132299500Y-98679450D01*
X132060500Y-98679450D01*
X132041614Y-98560212D01*
X132032171Y-98500591D01*
X131976211Y-98328361D01*
X131893996Y-98167006D01*
X131787553Y-98020499D01*
X131659501Y-97892447D01*
X131512994Y-97786004D01*
X131512993Y-97786003D01*
X131512991Y-97786002D01*
X131351637Y-97703788D01*
X131179406Y-97647828D01*
X131000549Y-97619500D01*
X131000546Y-97619500D01*
X130819454Y-97619500D01*
X130819451Y-97619500D01*
X130640593Y-97647828D01*
X130468362Y-97703788D01*
X130307008Y-97786002D01*
X130247560Y-97829194D01*
X130160499Y-97892447D01*
X130032447Y-98020499D01*
X129992129Y-98075992D01*
X129926002Y-98167008D01*
X129843788Y-98328362D01*
X129787828Y-98500593D01*
X129759500Y-98679450D01*
X129520499Y-98679450D01*
X129520499Y-97875136D01*
X129517585Y-97850009D01*
X129472206Y-97747235D01*
X129392765Y-97667794D01*
X129289991Y-97622415D01*
X129289990Y-97622414D01*
X129289988Y-97622414D01*
X129264868Y-97619500D01*
X127475139Y-97619500D01*
X127475136Y-97619501D01*
X127450009Y-97622414D01*
X127347235Y-97667794D01*
X127267794Y-97747235D01*
X127222414Y-97850011D01*
X127219500Y-97875130D01*
X124955832Y-97875130D01*
X124963553Y-97851368D01*
X124986927Y-97703789D01*
X125000500Y-97618095D01*
X125000500Y-97381904D01*
X179999500Y-97381904D01*
X179999500Y-97618095D01*
X180036445Y-97851363D01*
X180109432Y-98075992D01*
X180169291Y-98193473D01*
X180216657Y-98286433D01*
X180355483Y-98477510D01*
X180522490Y-98644517D01*
X180713567Y-98783343D01*
X180924008Y-98890568D01*
X181148632Y-98963553D01*
X181148633Y-98963553D01*
X181148636Y-98963554D01*
X181381905Y-99000500D01*
X181381908Y-99000500D01*
X181618095Y-99000500D01*
X181851363Y-98963554D01*
X181851364Y-98963553D01*
X181851368Y-98963553D01*
X182075992Y-98890568D01*
X182286433Y-98783343D01*
X182477510Y-98644517D01*
X182644517Y-98477510D01*
X182783343Y-98286433D01*
X182890568Y-98075992D01*
X182963553Y-97851368D01*
X182986927Y-97703789D01*
X183000500Y-97618095D01*
X183000500Y-97381904D01*
X182963554Y-97148636D01*
X182959622Y-97136535D01*
X182890568Y-96924008D01*
X182783343Y-96713567D01*
X182644517Y-96522490D01*
X182477510Y-96355483D01*
X182286433Y-96216657D01*
X182286432Y-96216656D01*
X182286430Y-96216655D01*
X182075992Y-96109432D01*
X181851363Y-96036445D01*
X181618095Y-95999500D01*
X181618092Y-95999500D01*
X181381908Y-95999500D01*
X181381905Y-95999500D01*
X181148636Y-96036445D01*
X180924007Y-96109432D01*
X180713569Y-96216655D01*
X180522491Y-96355482D01*
X180355482Y-96522491D01*
X180216655Y-96713569D01*
X180109432Y-96924007D01*
X180036445Y-97148636D01*
X179999500Y-97381904D01*
X125000500Y-97381904D01*
X124963554Y-97148636D01*
X124959622Y-97136535D01*
X124890568Y-96924008D01*
X124783343Y-96713567D01*
X124644517Y-96522490D01*
X124477510Y-96355483D01*
X124286433Y-96216657D01*
X124286432Y-96216656D01*
X124286430Y-96216655D01*
X124134906Y-96139450D01*
X127219500Y-96139450D01*
X127219500Y-96320549D01*
X127247828Y-96499406D01*
X127303788Y-96671637D01*
X127372519Y-96806530D01*
X127386004Y-96832994D01*
X127492447Y-96979501D01*
X127620499Y-97107553D01*
X127767006Y-97213996D01*
X127928361Y-97296211D01*
X128100591Y-97352171D01*
X128172136Y-97363502D01*
X128279451Y-97380500D01*
X128279454Y-97380500D01*
X128460549Y-97380500D01*
X128549977Y-97366335D01*
X128639409Y-97352171D01*
X128811639Y-97296211D01*
X128972994Y-97213996D01*
X129119501Y-97107553D01*
X129247553Y-96979501D01*
X129353996Y-96832994D01*
X129436211Y-96671639D01*
X129492171Y-96499409D01*
X129520500Y-96320546D01*
X129520500Y-96139454D01*
X129520500Y-96139450D01*
X129759500Y-96139450D01*
X129759500Y-96320549D01*
X129787828Y-96499406D01*
X129843788Y-96671637D01*
X129912519Y-96806530D01*
X129926004Y-96832994D01*
X130032447Y-96979501D01*
X130160499Y-97107553D01*
X130307006Y-97213996D01*
X130468361Y-97296211D01*
X130640591Y-97352171D01*
X130712136Y-97363502D01*
X130819451Y-97380500D01*
X130819454Y-97380500D01*
X131000549Y-97380500D01*
X131089977Y-97366335D01*
X131179409Y-97352171D01*
X131351639Y-97296211D01*
X131512994Y-97213996D01*
X131659501Y-97107553D01*
X131787553Y-96979501D01*
X131893996Y-96832994D01*
X131976211Y-96671639D01*
X132032171Y-96499409D01*
X132060500Y-96320546D01*
X132060500Y-96143424D01*
X132350000Y-96143424D01*
X132350000Y-96316575D01*
X132377084Y-96487579D01*
X132430588Y-96652248D01*
X132509194Y-96806522D01*
X132543463Y-96853691D01*
X132981979Y-96415174D01*
X132984075Y-96422993D01*
X133049901Y-96537007D01*
X133142993Y-96630099D01*
X133257007Y-96695925D01*
X133264822Y-96698019D01*
X132826307Y-97136535D01*
X132873476Y-97170804D01*
X133027751Y-97249411D01*
X133192420Y-97302915D01*
X133363425Y-97330000D01*
X133536575Y-97330000D01*
X133707579Y-97302915D01*
X133872248Y-97249411D01*
X134026524Y-97170804D01*
X134026530Y-97170800D01*
X134073691Y-97136535D01*
X133635175Y-96698019D01*
X133642993Y-96695925D01*
X133757007Y-96630099D01*
X133850099Y-96537007D01*
X133915925Y-96422993D01*
X133918019Y-96415175D01*
X134356535Y-96853691D01*
X134390800Y-96806530D01*
X134390804Y-96806524D01*
X134469411Y-96652248D01*
X134522915Y-96487579D01*
X134550000Y-96316575D01*
X134550000Y-96143425D01*
X134549999Y-96143424D01*
X134549370Y-96139450D01*
X134839500Y-96139450D01*
X134839500Y-96320549D01*
X134867828Y-96499406D01*
X134923788Y-96671637D01*
X134992519Y-96806530D01*
X135006004Y-96832994D01*
X135112447Y-96979501D01*
X135240499Y-97107553D01*
X135387006Y-97213996D01*
X135548361Y-97296211D01*
X135720591Y-97352171D01*
X135792136Y-97363502D01*
X135899451Y-97380500D01*
X135899454Y-97380500D01*
X136080549Y-97380500D01*
X136169977Y-97366335D01*
X136259409Y-97352171D01*
X136431639Y-97296211D01*
X136592994Y-97213996D01*
X136739501Y-97107553D01*
X136867553Y-96979501D01*
X136973996Y-96832994D01*
X137056211Y-96671639D01*
X137112171Y-96499409D01*
X137140500Y-96320546D01*
X137140500Y-96139454D01*
X137140500Y-96139450D01*
X137379500Y-96139450D01*
X137379500Y-96320549D01*
X137407828Y-96499406D01*
X137463788Y-96671637D01*
X137532519Y-96806530D01*
X137546004Y-96832994D01*
X137652447Y-96979501D01*
X137780499Y-97107553D01*
X137927006Y-97213996D01*
X138088361Y-97296211D01*
X138260591Y-97352171D01*
X138332136Y-97363502D01*
X138439451Y-97380500D01*
X138439454Y-97380500D01*
X138620549Y-97380500D01*
X138709977Y-97366335D01*
X138799409Y-97352171D01*
X138971639Y-97296211D01*
X139132994Y-97213996D01*
X139279501Y-97107553D01*
X139407553Y-96979501D01*
X139513996Y-96832994D01*
X139596211Y-96671639D01*
X139652171Y-96499409D01*
X139680500Y-96320546D01*
X139680500Y-96139454D01*
X139680500Y-96139450D01*
X139919500Y-96139450D01*
X139919500Y-96320549D01*
X139947828Y-96499406D01*
X140003788Y-96671637D01*
X140072519Y-96806530D01*
X140086004Y-96832994D01*
X140192447Y-96979501D01*
X140320499Y-97107553D01*
X140467006Y-97213996D01*
X140628361Y-97296211D01*
X140800591Y-97352171D01*
X140872136Y-97363502D01*
X140979451Y-97380500D01*
X140979454Y-97380500D01*
X141160549Y-97380500D01*
X141249977Y-97366335D01*
X141339409Y-97352171D01*
X141511639Y-97296211D01*
X141672994Y-97213996D01*
X141819501Y-97107553D01*
X141947553Y-96979501D01*
X142053996Y-96832994D01*
X142136211Y-96671639D01*
X142192171Y-96499409D01*
X142220500Y-96320546D01*
X142220500Y-96143424D01*
X142510000Y-96143424D01*
X142510000Y-96316575D01*
X142537084Y-96487579D01*
X142590588Y-96652248D01*
X142669194Y-96806522D01*
X142703463Y-96853691D01*
X143141979Y-96415174D01*
X143144075Y-96422993D01*
X143209901Y-96537007D01*
X143302993Y-96630099D01*
X143417007Y-96695925D01*
X143424822Y-96698019D01*
X142986307Y-97136535D01*
X143033476Y-97170804D01*
X143187751Y-97249411D01*
X143352420Y-97302915D01*
X143523425Y-97330000D01*
X143696575Y-97330000D01*
X143867579Y-97302915D01*
X144032248Y-97249411D01*
X144186524Y-97170804D01*
X144186530Y-97170800D01*
X144233691Y-97136535D01*
X143795175Y-96698019D01*
X143802993Y-96695925D01*
X143917007Y-96630099D01*
X144010099Y-96537007D01*
X144075925Y-96422993D01*
X144078019Y-96415175D01*
X144516535Y-96853691D01*
X144550800Y-96806530D01*
X144550804Y-96806524D01*
X144629411Y-96652248D01*
X144682915Y-96487579D01*
X144710000Y-96316575D01*
X144710000Y-96143425D01*
X144709999Y-96143424D01*
X144709370Y-96139450D01*
X144999500Y-96139450D01*
X144999500Y-96320549D01*
X145027828Y-96499406D01*
X145083788Y-96671637D01*
X145152519Y-96806530D01*
X145166004Y-96832994D01*
X145272447Y-96979501D01*
X145400499Y-97107553D01*
X145547006Y-97213996D01*
X145708361Y-97296211D01*
X145880591Y-97352171D01*
X145952136Y-97363502D01*
X146059451Y-97380500D01*
X146059454Y-97380500D01*
X146240549Y-97380500D01*
X146329977Y-97366335D01*
X146419409Y-97352171D01*
X146591639Y-97296211D01*
X146752994Y-97213996D01*
X146899501Y-97107553D01*
X147027553Y-96979501D01*
X147133996Y-96832994D01*
X147216211Y-96671639D01*
X147272171Y-96499409D01*
X147300500Y-96320546D01*
X147300500Y-96139454D01*
X147300500Y-96139450D01*
X147539500Y-96139450D01*
X147539500Y-96320549D01*
X147567828Y-96499406D01*
X147623788Y-96671637D01*
X147692519Y-96806530D01*
X147706004Y-96832994D01*
X147812447Y-96979501D01*
X147940499Y-97107553D01*
X148087006Y-97213996D01*
X148248361Y-97296211D01*
X148420591Y-97352171D01*
X148492136Y-97363502D01*
X148599451Y-97380500D01*
X148599454Y-97380500D01*
X148780549Y-97380500D01*
X148869977Y-97366335D01*
X148959409Y-97352171D01*
X149131639Y-97296211D01*
X149292994Y-97213996D01*
X149439501Y-97107553D01*
X149567553Y-96979501D01*
X149673996Y-96832994D01*
X149756211Y-96671639D01*
X149812171Y-96499409D01*
X149840500Y-96320546D01*
X149840500Y-96143424D01*
X150130000Y-96143424D01*
X150130000Y-96316575D01*
X150157084Y-96487579D01*
X150210588Y-96652248D01*
X150289194Y-96806522D01*
X150323463Y-96853691D01*
X150761979Y-96415174D01*
X150764075Y-96422993D01*
X150829901Y-96537007D01*
X150922993Y-96630099D01*
X151037007Y-96695925D01*
X151044822Y-96698019D01*
X150606307Y-97136535D01*
X150653476Y-97170804D01*
X150807751Y-97249411D01*
X150972420Y-97302915D01*
X151143425Y-97330000D01*
X151316575Y-97330000D01*
X151487579Y-97302915D01*
X151652248Y-97249411D01*
X151806524Y-97170804D01*
X151806530Y-97170800D01*
X151853691Y-97136535D01*
X151415175Y-96698019D01*
X151422993Y-96695925D01*
X151537007Y-96630099D01*
X151630099Y-96537007D01*
X151695925Y-96422993D01*
X151698019Y-96415175D01*
X152136535Y-96853691D01*
X152170800Y-96806530D01*
X152170804Y-96806524D01*
X152249411Y-96652248D01*
X152302915Y-96487579D01*
X152330000Y-96316575D01*
X152330000Y-96143425D01*
X152329999Y-96143424D01*
X152329370Y-96139450D01*
X152619500Y-96139450D01*
X152619500Y-96320549D01*
X152647828Y-96499406D01*
X152703788Y-96671637D01*
X152772519Y-96806530D01*
X152786004Y-96832994D01*
X152892447Y-96979501D01*
X153020499Y-97107553D01*
X153167006Y-97213996D01*
X153328361Y-97296211D01*
X153500591Y-97352171D01*
X153572136Y-97363502D01*
X153679451Y-97380500D01*
X153679454Y-97380500D01*
X153860549Y-97380500D01*
X153949977Y-97366335D01*
X154039409Y-97352171D01*
X154211639Y-97296211D01*
X154372994Y-97213996D01*
X154519501Y-97107553D01*
X154647553Y-96979501D01*
X154753996Y-96832994D01*
X154836211Y-96671639D01*
X154892171Y-96499409D01*
X154920500Y-96320546D01*
X154920500Y-96139454D01*
X154920500Y-96139450D01*
X155159500Y-96139450D01*
X155159500Y-96320549D01*
X155187828Y-96499406D01*
X155243788Y-96671637D01*
X155312519Y-96806530D01*
X155326004Y-96832994D01*
X155432447Y-96979501D01*
X155560499Y-97107553D01*
X155707006Y-97213996D01*
X155868361Y-97296211D01*
X156040591Y-97352171D01*
X156112136Y-97363502D01*
X156219451Y-97380500D01*
X156219454Y-97380500D01*
X156400549Y-97380500D01*
X156489977Y-97366335D01*
X156579409Y-97352171D01*
X156751639Y-97296211D01*
X156912994Y-97213996D01*
X157059501Y-97107553D01*
X157187553Y-96979501D01*
X157293996Y-96832994D01*
X157376211Y-96671639D01*
X157432171Y-96499409D01*
X157460500Y-96320546D01*
X157460500Y-96139454D01*
X157460500Y-96139450D01*
X157699500Y-96139450D01*
X157699500Y-96320549D01*
X157727828Y-96499406D01*
X157783788Y-96671637D01*
X157852519Y-96806530D01*
X157866004Y-96832994D01*
X157972447Y-96979501D01*
X158100499Y-97107553D01*
X158247006Y-97213996D01*
X158408361Y-97296211D01*
X158580591Y-97352171D01*
X158652136Y-97363502D01*
X158759451Y-97380500D01*
X158759454Y-97380500D01*
X158940549Y-97380500D01*
X159029977Y-97366335D01*
X159119409Y-97352171D01*
X159291639Y-97296211D01*
X159452994Y-97213996D01*
X159599501Y-97107553D01*
X159727553Y-96979501D01*
X159833996Y-96832994D01*
X159916211Y-96671639D01*
X159972171Y-96499409D01*
X160000500Y-96320546D01*
X160000500Y-96139454D01*
X160000500Y-96139450D01*
X160239500Y-96139450D01*
X160239500Y-96320549D01*
X160267828Y-96499406D01*
X160323788Y-96671637D01*
X160392519Y-96806530D01*
X160406004Y-96832994D01*
X160512447Y-96979501D01*
X160640499Y-97107553D01*
X160787006Y-97213996D01*
X160948361Y-97296211D01*
X161120591Y-97352171D01*
X161192136Y-97363502D01*
X161299451Y-97380500D01*
X161299454Y-97380500D01*
X161480549Y-97380500D01*
X161569977Y-97366335D01*
X161659409Y-97352171D01*
X161831639Y-97296211D01*
X161992994Y-97213996D01*
X162139501Y-97107553D01*
X162267553Y-96979501D01*
X162373996Y-96832994D01*
X162456211Y-96671639D01*
X162512171Y-96499409D01*
X162540500Y-96320546D01*
X162540500Y-96143424D01*
X162830000Y-96143424D01*
X162830000Y-96316575D01*
X162857084Y-96487579D01*
X162910588Y-96652248D01*
X162989194Y-96806522D01*
X163023463Y-96853691D01*
X163461979Y-96415174D01*
X163464075Y-96422993D01*
X163529901Y-96537007D01*
X163622993Y-96630099D01*
X163737007Y-96695925D01*
X163744822Y-96698019D01*
X163306307Y-97136535D01*
X163353476Y-97170804D01*
X163507751Y-97249411D01*
X163672420Y-97302915D01*
X163843425Y-97330000D01*
X164016575Y-97330000D01*
X164187579Y-97302915D01*
X164352248Y-97249411D01*
X164506524Y-97170804D01*
X164506530Y-97170800D01*
X164553691Y-97136535D01*
X164115175Y-96698019D01*
X164122993Y-96695925D01*
X164237007Y-96630099D01*
X164330099Y-96537007D01*
X164395925Y-96422993D01*
X164398019Y-96415175D01*
X164836535Y-96853691D01*
X164870800Y-96806530D01*
X164870804Y-96806524D01*
X164949411Y-96652248D01*
X165002915Y-96487579D01*
X165030000Y-96316575D01*
X165030000Y-96143425D01*
X165029999Y-96143424D01*
X165029370Y-96139450D01*
X165319500Y-96139450D01*
X165319500Y-96320549D01*
X165347828Y-96499406D01*
X165403788Y-96671637D01*
X165472519Y-96806530D01*
X165486004Y-96832994D01*
X165592447Y-96979501D01*
X165720499Y-97107553D01*
X165867006Y-97213996D01*
X166028361Y-97296211D01*
X166200591Y-97352171D01*
X166272136Y-97363502D01*
X166379451Y-97380500D01*
X166379454Y-97380500D01*
X166560549Y-97380500D01*
X166649977Y-97366335D01*
X166739409Y-97352171D01*
X166911639Y-97296211D01*
X167072994Y-97213996D01*
X167219501Y-97107553D01*
X167347553Y-96979501D01*
X167453996Y-96832994D01*
X167536211Y-96671639D01*
X167592171Y-96499409D01*
X167620500Y-96320546D01*
X167620500Y-96143424D01*
X167910000Y-96143424D01*
X167910000Y-96316575D01*
X167937084Y-96487579D01*
X167990588Y-96652248D01*
X168069194Y-96806522D01*
X168103463Y-96853691D01*
X168541979Y-96415174D01*
X168544075Y-96422993D01*
X168609901Y-96537007D01*
X168702993Y-96630099D01*
X168817007Y-96695925D01*
X168824822Y-96698019D01*
X168386307Y-97136535D01*
X168433476Y-97170804D01*
X168587751Y-97249411D01*
X168752420Y-97302915D01*
X168923425Y-97330000D01*
X169096575Y-97330000D01*
X169267579Y-97302915D01*
X169432248Y-97249411D01*
X169586524Y-97170804D01*
X169586530Y-97170800D01*
X169633691Y-97136535D01*
X169195175Y-96698019D01*
X169202993Y-96695925D01*
X169317007Y-96630099D01*
X169410099Y-96537007D01*
X169475925Y-96422993D01*
X169478019Y-96415175D01*
X169916535Y-96853691D01*
X169950800Y-96806530D01*
X169950804Y-96806524D01*
X170029411Y-96652248D01*
X170082915Y-96487579D01*
X170110000Y-96316575D01*
X170110000Y-96143425D01*
X170109999Y-96143424D01*
X170109370Y-96139450D01*
X170399500Y-96139450D01*
X170399500Y-96320549D01*
X170427828Y-96499406D01*
X170483788Y-96671637D01*
X170552519Y-96806530D01*
X170566004Y-96832994D01*
X170672447Y-96979501D01*
X170800499Y-97107553D01*
X170947006Y-97213996D01*
X171108361Y-97296211D01*
X171280591Y-97352171D01*
X171352136Y-97363502D01*
X171459451Y-97380500D01*
X171459454Y-97380500D01*
X171640549Y-97380500D01*
X171729977Y-97366335D01*
X171819409Y-97352171D01*
X171991639Y-97296211D01*
X172152994Y-97213996D01*
X172299501Y-97107553D01*
X172427553Y-96979501D01*
X172533996Y-96832994D01*
X172616211Y-96671639D01*
X172672171Y-96499409D01*
X172700500Y-96320546D01*
X172700500Y-96139454D01*
X172700500Y-96139450D01*
X172939500Y-96139450D01*
X172939500Y-96320549D01*
X172967828Y-96499406D01*
X173023788Y-96671637D01*
X173092519Y-96806530D01*
X173106004Y-96832994D01*
X173212447Y-96979501D01*
X173340499Y-97107553D01*
X173487006Y-97213996D01*
X173648361Y-97296211D01*
X173820591Y-97352171D01*
X173892136Y-97363502D01*
X173999451Y-97380500D01*
X173999454Y-97380500D01*
X174180549Y-97380500D01*
X174269977Y-97366335D01*
X174359409Y-97352171D01*
X174531639Y-97296211D01*
X174692994Y-97213996D01*
X174839501Y-97107553D01*
X174967553Y-96979501D01*
X175073996Y-96832994D01*
X175156211Y-96671639D01*
X175212171Y-96499409D01*
X175240500Y-96320546D01*
X175240500Y-96139454D01*
X175240500Y-96139450D01*
X175479500Y-96139450D01*
X175479500Y-96320549D01*
X175507828Y-96499406D01*
X175563788Y-96671637D01*
X175632519Y-96806530D01*
X175646004Y-96832994D01*
X175752447Y-96979501D01*
X175880499Y-97107553D01*
X176027006Y-97213996D01*
X176188361Y-97296211D01*
X176360591Y-97352171D01*
X176432136Y-97363502D01*
X176539451Y-97380500D01*
X176539454Y-97380500D01*
X176720549Y-97380500D01*
X176809977Y-97366335D01*
X176899409Y-97352171D01*
X177071639Y-97296211D01*
X177232994Y-97213996D01*
X177379501Y-97107553D01*
X177507553Y-96979501D01*
X177613996Y-96832994D01*
X177696211Y-96671639D01*
X177752171Y-96499409D01*
X177780500Y-96320546D01*
X177780500Y-96139454D01*
X177780500Y-96139450D01*
X177761614Y-96020212D01*
X177752171Y-95960591D01*
X177696211Y-95788361D01*
X177613996Y-95627006D01*
X177507553Y-95480499D01*
X177379501Y-95352447D01*
X177232994Y-95246004D01*
X177232993Y-95246003D01*
X177232991Y-95246002D01*
X177071637Y-95163788D01*
X176899406Y-95107828D01*
X176720549Y-95079500D01*
X176720546Y-95079500D01*
X176539454Y-95079500D01*
X176539451Y-95079500D01*
X176360593Y-95107828D01*
X176188362Y-95163788D01*
X176027008Y-95246002D01*
X175967560Y-95289194D01*
X175880499Y-95352447D01*
X175752447Y-95480499D01*
X175699225Y-95553752D01*
X175646002Y-95627008D01*
X175563788Y-95788362D01*
X175507828Y-95960593D01*
X175479500Y-96139450D01*
X175240500Y-96139450D01*
X175221614Y-96020212D01*
X175212171Y-95960591D01*
X175156211Y-95788361D01*
X175073996Y-95627006D01*
X174967553Y-95480499D01*
X174839501Y-95352447D01*
X174692994Y-95246004D01*
X174692993Y-95246003D01*
X174692991Y-95246002D01*
X174531637Y-95163788D01*
X174359406Y-95107828D01*
X174180549Y-95079500D01*
X174180546Y-95079500D01*
X173999454Y-95079500D01*
X173999451Y-95079500D01*
X173820593Y-95107828D01*
X173648362Y-95163788D01*
X173487008Y-95246002D01*
X173427560Y-95289194D01*
X173340499Y-95352447D01*
X173212447Y-95480499D01*
X173159225Y-95553752D01*
X173106002Y-95627008D01*
X173023788Y-95788362D01*
X172967828Y-95960593D01*
X172939500Y-96139450D01*
X172700500Y-96139450D01*
X172681614Y-96020212D01*
X172672171Y-95960591D01*
X172616211Y-95788361D01*
X172533996Y-95627006D01*
X172427553Y-95480499D01*
X172299501Y-95352447D01*
X172152994Y-95246004D01*
X172152993Y-95246003D01*
X172152991Y-95246002D01*
X171991637Y-95163788D01*
X171819406Y-95107828D01*
X171640549Y-95079500D01*
X171640546Y-95079500D01*
X171459454Y-95079500D01*
X171459451Y-95079500D01*
X171280593Y-95107828D01*
X171108362Y-95163788D01*
X170947008Y-95246002D01*
X170887560Y-95289194D01*
X170800499Y-95352447D01*
X170672447Y-95480499D01*
X170619225Y-95553752D01*
X170566002Y-95627008D01*
X170483788Y-95788362D01*
X170427828Y-95960593D01*
X170399500Y-96139450D01*
X170109370Y-96139450D01*
X170082915Y-95972420D01*
X170029411Y-95807751D01*
X169950804Y-95653476D01*
X169916535Y-95606307D01*
X169478019Y-96044822D01*
X169475925Y-96037007D01*
X169410099Y-95922993D01*
X169317007Y-95829901D01*
X169202993Y-95764075D01*
X169195174Y-95761979D01*
X169633691Y-95323463D01*
X169586522Y-95289194D01*
X169432248Y-95210588D01*
X169267579Y-95157084D01*
X169096575Y-95130000D01*
X168923425Y-95130000D01*
X168752420Y-95157084D01*
X168587751Y-95210588D01*
X168433473Y-95289196D01*
X168386307Y-95323463D01*
X168824824Y-95761980D01*
X168817007Y-95764075D01*
X168702993Y-95829901D01*
X168609901Y-95922993D01*
X168544075Y-96037007D01*
X168541980Y-96044824D01*
X168103463Y-95606307D01*
X168069196Y-95653473D01*
X167990588Y-95807751D01*
X167937084Y-95972420D01*
X167910000Y-96143424D01*
X167620500Y-96143424D01*
X167620500Y-96139454D01*
X167620500Y-96139450D01*
X167601614Y-96020212D01*
X167592171Y-95960591D01*
X167536211Y-95788361D01*
X167453996Y-95627006D01*
X167347553Y-95480499D01*
X167219501Y-95352447D01*
X167072994Y-95246004D01*
X167072993Y-95246003D01*
X167072991Y-95246002D01*
X166911637Y-95163788D01*
X166739406Y-95107828D01*
X166560549Y-95079500D01*
X166560546Y-95079500D01*
X166379454Y-95079500D01*
X166379451Y-95079500D01*
X166200593Y-95107828D01*
X166028362Y-95163788D01*
X165867008Y-95246002D01*
X165807560Y-95289194D01*
X165720499Y-95352447D01*
X165592447Y-95480499D01*
X165539225Y-95553752D01*
X165486002Y-95627008D01*
X165403788Y-95788362D01*
X165347828Y-95960593D01*
X165319500Y-96139450D01*
X165029370Y-96139450D01*
X165002915Y-95972420D01*
X164949411Y-95807751D01*
X164870804Y-95653476D01*
X164836535Y-95606307D01*
X164398019Y-96044822D01*
X164395925Y-96037007D01*
X164330099Y-95922993D01*
X164237007Y-95829901D01*
X164122993Y-95764075D01*
X164115174Y-95761979D01*
X164553691Y-95323463D01*
X164506522Y-95289194D01*
X164352248Y-95210588D01*
X164187579Y-95157084D01*
X164016575Y-95130000D01*
X163843425Y-95130000D01*
X163672420Y-95157084D01*
X163507751Y-95210588D01*
X163353473Y-95289196D01*
X163306307Y-95323463D01*
X163744824Y-95761980D01*
X163737007Y-95764075D01*
X163622993Y-95829901D01*
X163529901Y-95922993D01*
X163464075Y-96037007D01*
X163461980Y-96044824D01*
X163023463Y-95606307D01*
X162989196Y-95653473D01*
X162910588Y-95807751D01*
X162857084Y-95972420D01*
X162830000Y-96143424D01*
X162540500Y-96143424D01*
X162540500Y-96139454D01*
X162540500Y-96139450D01*
X162521614Y-96020212D01*
X162512171Y-95960591D01*
X162456211Y-95788361D01*
X162373996Y-95627006D01*
X162267553Y-95480499D01*
X162139501Y-95352447D01*
X161992994Y-95246004D01*
X161992993Y-95246003D01*
X161992991Y-95246002D01*
X161831637Y-95163788D01*
X161659406Y-95107828D01*
X161480549Y-95079500D01*
X161480546Y-95079500D01*
X161299454Y-95079500D01*
X161299451Y-95079500D01*
X161120593Y-95107828D01*
X160948362Y-95163788D01*
X160787008Y-95246002D01*
X160727560Y-95289194D01*
X160640499Y-95352447D01*
X160512447Y-95480499D01*
X160459225Y-95553752D01*
X160406002Y-95627008D01*
X160323788Y-95788362D01*
X160267828Y-95960593D01*
X160239500Y-96139450D01*
X160000500Y-96139450D01*
X159981614Y-96020212D01*
X159972171Y-95960591D01*
X159916211Y-95788361D01*
X159833996Y-95627006D01*
X159727553Y-95480499D01*
X159599501Y-95352447D01*
X159452994Y-95246004D01*
X159452993Y-95246003D01*
X159452991Y-95246002D01*
X159291637Y-95163788D01*
X159119406Y-95107828D01*
X158940549Y-95079500D01*
X158940546Y-95079500D01*
X158759454Y-95079500D01*
X158759451Y-95079500D01*
X158580593Y-95107828D01*
X158408362Y-95163788D01*
X158247008Y-95246002D01*
X158187560Y-95289194D01*
X158100499Y-95352447D01*
X157972447Y-95480499D01*
X157919225Y-95553752D01*
X157866002Y-95627008D01*
X157783788Y-95788362D01*
X157727828Y-95960593D01*
X157699500Y-96139450D01*
X157460500Y-96139450D01*
X157441614Y-96020212D01*
X157432171Y-95960591D01*
X157376211Y-95788361D01*
X157293996Y-95627006D01*
X157187553Y-95480499D01*
X157059501Y-95352447D01*
X156912994Y-95246004D01*
X156912993Y-95246003D01*
X156912991Y-95246002D01*
X156751637Y-95163788D01*
X156579406Y-95107828D01*
X156400549Y-95079500D01*
X156400546Y-95079500D01*
X156219454Y-95079500D01*
X156219451Y-95079500D01*
X156040593Y-95107828D01*
X155868362Y-95163788D01*
X155707008Y-95246002D01*
X155647560Y-95289194D01*
X155560499Y-95352447D01*
X155432447Y-95480499D01*
X155379225Y-95553752D01*
X155326002Y-95627008D01*
X155243788Y-95788362D01*
X155187828Y-95960593D01*
X155159500Y-96139450D01*
X154920500Y-96139450D01*
X154901614Y-96020212D01*
X154892171Y-95960591D01*
X154836211Y-95788361D01*
X154753996Y-95627006D01*
X154647553Y-95480499D01*
X154519501Y-95352447D01*
X154372994Y-95246004D01*
X154372993Y-95246003D01*
X154372991Y-95246002D01*
X154211637Y-95163788D01*
X154039406Y-95107828D01*
X153860549Y-95079500D01*
X153860546Y-95079500D01*
X153679454Y-95079500D01*
X153679451Y-95079500D01*
X153500593Y-95107828D01*
X153328362Y-95163788D01*
X153167008Y-95246002D01*
X153107560Y-95289194D01*
X153020499Y-95352447D01*
X152892447Y-95480499D01*
X152839225Y-95553752D01*
X152786002Y-95627008D01*
X152703788Y-95788362D01*
X152647828Y-95960593D01*
X152619500Y-96139450D01*
X152329370Y-96139450D01*
X152302915Y-95972420D01*
X152249411Y-95807751D01*
X152170804Y-95653476D01*
X152136535Y-95606307D01*
X151698019Y-96044822D01*
X151695925Y-96037007D01*
X151630099Y-95922993D01*
X151537007Y-95829901D01*
X151422993Y-95764075D01*
X151415174Y-95761979D01*
X151853691Y-95323463D01*
X151806522Y-95289194D01*
X151652248Y-95210588D01*
X151487579Y-95157084D01*
X151316575Y-95130000D01*
X151143425Y-95130000D01*
X150972420Y-95157084D01*
X150807751Y-95210588D01*
X150653473Y-95289196D01*
X150606307Y-95323463D01*
X151044824Y-95761980D01*
X151037007Y-95764075D01*
X150922993Y-95829901D01*
X150829901Y-95922993D01*
X150764075Y-96037007D01*
X150761980Y-96044824D01*
X150323463Y-95606307D01*
X150289196Y-95653473D01*
X150210588Y-95807751D01*
X150157084Y-95972420D01*
X150130000Y-96143424D01*
X149840500Y-96143424D01*
X149840500Y-96139454D01*
X149840500Y-96139450D01*
X149821614Y-96020212D01*
X149812171Y-95960591D01*
X149756211Y-95788361D01*
X149673996Y-95627006D01*
X149567553Y-95480499D01*
X149439501Y-95352447D01*
X149292994Y-95246004D01*
X149292993Y-95246003D01*
X149292991Y-95246002D01*
X149131637Y-95163788D01*
X148959406Y-95107828D01*
X148780549Y-95079500D01*
X148780546Y-95079500D01*
X148599454Y-95079500D01*
X148599451Y-95079500D01*
X148420593Y-95107828D01*
X148248362Y-95163788D01*
X148087008Y-95246002D01*
X148027560Y-95289194D01*
X147940499Y-95352447D01*
X147812447Y-95480499D01*
X147759225Y-95553752D01*
X147706002Y-95627008D01*
X147623788Y-95788362D01*
X147567828Y-95960593D01*
X147539500Y-96139450D01*
X147300500Y-96139450D01*
X147281614Y-96020212D01*
X147272171Y-95960591D01*
X147216211Y-95788361D01*
X147133996Y-95627006D01*
X147027553Y-95480499D01*
X146899501Y-95352447D01*
X146752994Y-95246004D01*
X146752993Y-95246003D01*
X146752991Y-95246002D01*
X146591637Y-95163788D01*
X146419406Y-95107828D01*
X146240549Y-95079500D01*
X146240546Y-95079500D01*
X146059454Y-95079500D01*
X146059451Y-95079500D01*
X145880593Y-95107828D01*
X145708362Y-95163788D01*
X145547008Y-95246002D01*
X145487560Y-95289194D01*
X145400499Y-95352447D01*
X145272447Y-95480499D01*
X145219225Y-95553752D01*
X145166002Y-95627008D01*
X145083788Y-95788362D01*
X145027828Y-95960593D01*
X144999500Y-96139450D01*
X144709370Y-96139450D01*
X144682915Y-95972420D01*
X144629411Y-95807751D01*
X144550804Y-95653476D01*
X144516535Y-95606307D01*
X144078019Y-96044822D01*
X144075925Y-96037007D01*
X144010099Y-95922993D01*
X143917007Y-95829901D01*
X143802993Y-95764075D01*
X143795174Y-95761979D01*
X144233691Y-95323463D01*
X144186522Y-95289194D01*
X144032248Y-95210588D01*
X143867579Y-95157084D01*
X143696575Y-95130000D01*
X143523425Y-95130000D01*
X143352420Y-95157084D01*
X143187751Y-95210588D01*
X143033473Y-95289196D01*
X142986307Y-95323463D01*
X143424824Y-95761980D01*
X143417007Y-95764075D01*
X143302993Y-95829901D01*
X143209901Y-95922993D01*
X143144075Y-96037007D01*
X143141980Y-96044824D01*
X142703463Y-95606307D01*
X142669196Y-95653473D01*
X142590588Y-95807751D01*
X142537084Y-95972420D01*
X142510000Y-96143424D01*
X142220500Y-96143424D01*
X142220500Y-96139454D01*
X142220500Y-96139450D01*
X142201614Y-96020212D01*
X142192171Y-95960591D01*
X142136211Y-95788361D01*
X142053996Y-95627006D01*
X141947553Y-95480499D01*
X141819501Y-95352447D01*
X141672994Y-95246004D01*
X141672993Y-95246003D01*
X141672991Y-95246002D01*
X141511637Y-95163788D01*
X141339406Y-95107828D01*
X141160549Y-95079500D01*
X141160546Y-95079500D01*
X140979454Y-95079500D01*
X140979451Y-95079500D01*
X140800593Y-95107828D01*
X140628362Y-95163788D01*
X140467008Y-95246002D01*
X140407560Y-95289194D01*
X140320499Y-95352447D01*
X140192447Y-95480499D01*
X140139225Y-95553752D01*
X140086002Y-95627008D01*
X140003788Y-95788362D01*
X139947828Y-95960593D01*
X139919500Y-96139450D01*
X139680500Y-96139450D01*
X139661614Y-96020212D01*
X139652171Y-95960591D01*
X139596211Y-95788361D01*
X139513996Y-95627006D01*
X139407553Y-95480499D01*
X139279501Y-95352447D01*
X139132994Y-95246004D01*
X139132993Y-95246003D01*
X139132991Y-95246002D01*
X138971637Y-95163788D01*
X138799406Y-95107828D01*
X138620549Y-95079500D01*
X138620546Y-95079500D01*
X138439454Y-95079500D01*
X138439451Y-95079500D01*
X138260593Y-95107828D01*
X138088362Y-95163788D01*
X137927008Y-95246002D01*
X137867560Y-95289194D01*
X137780499Y-95352447D01*
X137652447Y-95480499D01*
X137599225Y-95553752D01*
X137546002Y-95627008D01*
X137463788Y-95788362D01*
X137407828Y-95960593D01*
X137379500Y-96139450D01*
X137140500Y-96139450D01*
X137121614Y-96020212D01*
X137112171Y-95960591D01*
X137056211Y-95788361D01*
X136973996Y-95627006D01*
X136867553Y-95480499D01*
X136739501Y-95352447D01*
X136592994Y-95246004D01*
X136592993Y-95246003D01*
X136592991Y-95246002D01*
X136431637Y-95163788D01*
X136259406Y-95107828D01*
X136080549Y-95079500D01*
X136080546Y-95079500D01*
X135899454Y-95079500D01*
X135899451Y-95079500D01*
X135720593Y-95107828D01*
X135548362Y-95163788D01*
X135387008Y-95246002D01*
X135327560Y-95289194D01*
X135240499Y-95352447D01*
X135112447Y-95480499D01*
X135059225Y-95553752D01*
X135006002Y-95627008D01*
X134923788Y-95788362D01*
X134867828Y-95960593D01*
X134839500Y-96139450D01*
X134549370Y-96139450D01*
X134522915Y-95972420D01*
X134469411Y-95807751D01*
X134390804Y-95653476D01*
X134356535Y-95606307D01*
X133918019Y-96044822D01*
X133915925Y-96037007D01*
X133850099Y-95922993D01*
X133757007Y-95829901D01*
X133642993Y-95764075D01*
X133635174Y-95761979D01*
X134073691Y-95323463D01*
X134026522Y-95289194D01*
X133872248Y-95210588D01*
X133707579Y-95157084D01*
X133536575Y-95130000D01*
X133363425Y-95130000D01*
X133192420Y-95157084D01*
X133027751Y-95210588D01*
X132873473Y-95289196D01*
X132826307Y-95323463D01*
X133264824Y-95761980D01*
X133257007Y-95764075D01*
X133142993Y-95829901D01*
X133049901Y-95922993D01*
X132984075Y-96037007D01*
X132981980Y-96044824D01*
X132543463Y-95606307D01*
X132509196Y-95653473D01*
X132430588Y-95807751D01*
X132377084Y-95972420D01*
X132350000Y-96143424D01*
X132060500Y-96143424D01*
X132060500Y-96139454D01*
X132060500Y-96139450D01*
X132041614Y-96020212D01*
X132032171Y-95960591D01*
X131976211Y-95788361D01*
X131893996Y-95627006D01*
X131787553Y-95480499D01*
X131659501Y-95352447D01*
X131512994Y-95246004D01*
X131512993Y-95246003D01*
X131512991Y-95246002D01*
X131351637Y-95163788D01*
X131179406Y-95107828D01*
X131000549Y-95079500D01*
X131000546Y-95079500D01*
X130819454Y-95079500D01*
X130819451Y-95079500D01*
X130640593Y-95107828D01*
X130468362Y-95163788D01*
X130307008Y-95246002D01*
X130247560Y-95289194D01*
X130160499Y-95352447D01*
X130032447Y-95480499D01*
X129979225Y-95553752D01*
X129926002Y-95627008D01*
X129843788Y-95788362D01*
X129787828Y-95960593D01*
X129759500Y-96139450D01*
X129520500Y-96139450D01*
X129501614Y-96020212D01*
X129492171Y-95960591D01*
X129436211Y-95788361D01*
X129353996Y-95627006D01*
X129247553Y-95480499D01*
X129119501Y-95352447D01*
X128972994Y-95246004D01*
X128972993Y-95246003D01*
X128972991Y-95246002D01*
X128811637Y-95163788D01*
X128639406Y-95107828D01*
X128460549Y-95079500D01*
X128460546Y-95079500D01*
X128279454Y-95079500D01*
X128279451Y-95079500D01*
X128100593Y-95107828D01*
X127928362Y-95163788D01*
X127767008Y-95246002D01*
X127707560Y-95289194D01*
X127620499Y-95352447D01*
X127492447Y-95480499D01*
X127439225Y-95553752D01*
X127386002Y-95627008D01*
X127303788Y-95788362D01*
X127247828Y-95960593D01*
X127219500Y-96139450D01*
X124134906Y-96139450D01*
X124075992Y-96109432D01*
X123851363Y-96036445D01*
X123618095Y-95999500D01*
X123618092Y-95999500D01*
X123381908Y-95999500D01*
X123381905Y-95999500D01*
X123148636Y-96036445D01*
X122924007Y-96109432D01*
X122713569Y-96216655D01*
X122522491Y-96355482D01*
X122355482Y-96522491D01*
X122216655Y-96713569D01*
X122109432Y-96924007D01*
X122036445Y-97148636D01*
X121999500Y-97381904D01*
X120500500Y-97381904D01*
X120500500Y-94023543D01*
X138125700Y-94023543D01*
X138125700Y-94181657D01*
X138166623Y-94334384D01*
X138245680Y-94471316D01*
X138357484Y-94583120D01*
X138494416Y-94662177D01*
X138647143Y-94703100D01*
X138647145Y-94703100D01*
X138805255Y-94703100D01*
X138805257Y-94703100D01*
X138957984Y-94662177D01*
X139094916Y-94583120D01*
X139206720Y-94471316D01*
X139285777Y-94334384D01*
X139326700Y-94181657D01*
X139326700Y-94023543D01*
X139285777Y-93870816D01*
X139206720Y-93733884D01*
X139094916Y-93622080D01*
X138957984Y-93543023D01*
X138805257Y-93502100D01*
X138647143Y-93502100D01*
X138494416Y-93543023D01*
X138357484Y-93622080D01*
X138245680Y-93733884D01*
X138166623Y-93870816D01*
X138125700Y-94023543D01*
X120500500Y-94023543D01*
X120500500Y-93934109D01*
X120483541Y-93870816D01*
X120466392Y-93806814D01*
X120466390Y-93806811D01*
X120466390Y-93806809D01*
X120400503Y-93692690D01*
X120400501Y-93692688D01*
X120400500Y-93692686D01*
X120307314Y-93599500D01*
X120307311Y-93599498D01*
X120307309Y-93599496D01*
X120193189Y-93533609D01*
X120193191Y-93533609D01*
X120143799Y-93520375D01*
X120065892Y-93499500D01*
X120065890Y-93499500D01*
X100599500Y-93499500D01*
X100541309Y-93480593D01*
X100505345Y-93431093D01*
X100500500Y-93400500D01*
X100500500Y-90381904D01*
X101999500Y-90381904D01*
X101999500Y-90618095D01*
X102036445Y-90851363D01*
X102084903Y-91000500D01*
X102109432Y-91075992D01*
X102216657Y-91286433D01*
X102355483Y-91477510D01*
X102522490Y-91644517D01*
X102713567Y-91783343D01*
X102924008Y-91890568D01*
X103148632Y-91963553D01*
X103148633Y-91963553D01*
X103148636Y-91963554D01*
X103381905Y-92000500D01*
X103381908Y-92000500D01*
X103618095Y-92000500D01*
X103851363Y-91963554D01*
X103851364Y-91963553D01*
X103851368Y-91963553D01*
X104075992Y-91890568D01*
X104286433Y-91783343D01*
X104477510Y-91644517D01*
X104644517Y-91477510D01*
X104783343Y-91286433D01*
X104890568Y-91075992D01*
X104963553Y-90851368D01*
X105000500Y-90618092D01*
X105000500Y-90381908D01*
X105000500Y-90381904D01*
X104963554Y-90148636D01*
X104963553Y-90148632D01*
X104890568Y-89924008D01*
X104783343Y-89713567D01*
X104644517Y-89522490D01*
X104527542Y-89405515D01*
X109499500Y-89405515D01*
X109499500Y-89594484D01*
X109529058Y-89781113D01*
X109587453Y-89960832D01*
X109646129Y-90075992D01*
X109673240Y-90129199D01*
X109784310Y-90282073D01*
X109917927Y-90415690D01*
X110070801Y-90526760D01*
X110239168Y-90612547D01*
X110418882Y-90670940D01*
X110418883Y-90670940D01*
X110418886Y-90670941D01*
X110605516Y-90700500D01*
X110605519Y-90700500D01*
X110794484Y-90700500D01*
X110981113Y-90670941D01*
X110981114Y-90670940D01*
X110981118Y-90670940D01*
X111160832Y-90612547D01*
X111329199Y-90526760D01*
X111482073Y-90415690D01*
X111615690Y-90282073D01*
X111726760Y-90129199D01*
X111812547Y-89960832D01*
X111870940Y-89781118D01*
X111873813Y-89762977D01*
X111900500Y-89594484D01*
X111900500Y-89405515D01*
X114999500Y-89405515D01*
X114999500Y-89594484D01*
X115029058Y-89781113D01*
X115087453Y-89960832D01*
X115146129Y-90075992D01*
X115173240Y-90129199D01*
X115284310Y-90282073D01*
X115417927Y-90415690D01*
X115570801Y-90526760D01*
X115739168Y-90612547D01*
X115918882Y-90670940D01*
X115918883Y-90670940D01*
X115918886Y-90670941D01*
X116105516Y-90700500D01*
X116105519Y-90700500D01*
X116294484Y-90700500D01*
X116481113Y-90670941D01*
X116481114Y-90670940D01*
X116481118Y-90670940D01*
X116660832Y-90612547D01*
X116829199Y-90526760D01*
X116982073Y-90415690D01*
X117115690Y-90282073D01*
X117226760Y-90129199D01*
X117312547Y-89960832D01*
X117370940Y-89781118D01*
X117373813Y-89762977D01*
X117400500Y-89594484D01*
X117400500Y-89405515D01*
X117370941Y-89218886D01*
X117348115Y-89148636D01*
X117340222Y-89124343D01*
X132541300Y-89124343D01*
X132541300Y-89282457D01*
X132582223Y-89435184D01*
X132661280Y-89572116D01*
X132773084Y-89683920D01*
X132910016Y-89762977D01*
X133062743Y-89803900D01*
X133062745Y-89803900D01*
X133220855Y-89803900D01*
X133220857Y-89803900D01*
X133373584Y-89762977D01*
X133510516Y-89683920D01*
X133622320Y-89572116D01*
X133701377Y-89435184D01*
X133742300Y-89282457D01*
X133742300Y-89124343D01*
X133701377Y-88971616D01*
X133622320Y-88834684D01*
X133510516Y-88722880D01*
X133373584Y-88643823D01*
X133220857Y-88602900D01*
X133062743Y-88602900D01*
X132910016Y-88643823D01*
X132773084Y-88722880D01*
X132661280Y-88834684D01*
X132582223Y-88971616D01*
X132541300Y-89124343D01*
X117340222Y-89124343D01*
X117312547Y-89039168D01*
X117226760Y-88870801D01*
X117115690Y-88717927D01*
X116982073Y-88584310D01*
X116829199Y-88473240D01*
X116829198Y-88473239D01*
X116829196Y-88473238D01*
X116660832Y-88387453D01*
X116514452Y-88339891D01*
X116481113Y-88329058D01*
X116294484Y-88299500D01*
X116294481Y-88299500D01*
X116105519Y-88299500D01*
X116105516Y-88299500D01*
X115918886Y-88329058D01*
X115739167Y-88387453D01*
X115570803Y-88473238D01*
X115417928Y-88584309D01*
X115284309Y-88717928D01*
X115173238Y-88870803D01*
X115087453Y-89039167D01*
X115029058Y-89218886D01*
X114999500Y-89405515D01*
X111900500Y-89405515D01*
X111870941Y-89218886D01*
X111870216Y-89216655D01*
X111812547Y-89039168D01*
X111726760Y-88870801D01*
X111615690Y-88717927D01*
X111482073Y-88584310D01*
X111329199Y-88473240D01*
X111329198Y-88473239D01*
X111329196Y-88473238D01*
X111160832Y-88387453D01*
X110981113Y-88329058D01*
X110794484Y-88299500D01*
X110794481Y-88299500D01*
X110605519Y-88299500D01*
X110605516Y-88299500D01*
X110418886Y-88329058D01*
X110239167Y-88387453D01*
X110070803Y-88473238D01*
X109917928Y-88584309D01*
X109784309Y-88717928D01*
X109673238Y-88870803D01*
X109587453Y-89039167D01*
X109529058Y-89218886D01*
X109499500Y-89405515D01*
X104527542Y-89405515D01*
X104477510Y-89355483D01*
X104286433Y-89216657D01*
X104286432Y-89216656D01*
X104286430Y-89216655D01*
X104075992Y-89109432D01*
X103851363Y-89036445D01*
X103618095Y-88999500D01*
X103618092Y-88999500D01*
X103381908Y-88999500D01*
X103381905Y-88999500D01*
X103148636Y-89036445D01*
X102924007Y-89109432D01*
X102713569Y-89216655D01*
X102522491Y-89355482D01*
X102355482Y-89522491D01*
X102216655Y-89713569D01*
X102109432Y-89924007D01*
X102036445Y-90148636D01*
X101999500Y-90381904D01*
X100500500Y-90381904D01*
X100500500Y-88259843D01*
X121625000Y-88259843D01*
X121625000Y-88417957D01*
X121665923Y-88570684D01*
X121744980Y-88707616D01*
X121856784Y-88819420D01*
X121993716Y-88898477D01*
X122146443Y-88939400D01*
X122146445Y-88939400D01*
X122304555Y-88939400D01*
X122304557Y-88939400D01*
X122457284Y-88898477D01*
X122594216Y-88819420D01*
X122706020Y-88707616D01*
X122785077Y-88570684D01*
X122826000Y-88417957D01*
X122826000Y-88259843D01*
X122785077Y-88107116D01*
X122784948Y-88106893D01*
X176324500Y-88106893D01*
X176324500Y-88893106D01*
X176335123Y-88981565D01*
X176390637Y-89122339D01*
X176390638Y-89122341D01*
X176390639Y-89122342D01*
X176482078Y-89242922D01*
X176602658Y-89334361D01*
X176602659Y-89334361D01*
X176602660Y-89334362D01*
X176656217Y-89355482D01*
X176743436Y-89389877D01*
X176831898Y-89400500D01*
X176831900Y-89400500D01*
X178168100Y-89400500D01*
X178168102Y-89400500D01*
X178256564Y-89389877D01*
X178276782Y-89381904D01*
X182999500Y-89381904D01*
X182999500Y-89618095D01*
X183036445Y-89851363D01*
X183036447Y-89851368D01*
X183109432Y-90075992D01*
X183216657Y-90286433D01*
X183355483Y-90477510D01*
X183522490Y-90644517D01*
X183713567Y-90783343D01*
X183924008Y-90890568D01*
X184148632Y-90963553D01*
X184148633Y-90963553D01*
X184148636Y-90963554D01*
X184381905Y-91000500D01*
X184381908Y-91000500D01*
X184618095Y-91000500D01*
X184851363Y-90963554D01*
X184851364Y-90963553D01*
X184851368Y-90963553D01*
X185075992Y-90890568D01*
X185286433Y-90783343D01*
X185477510Y-90644517D01*
X185644517Y-90477510D01*
X185783343Y-90286433D01*
X185890568Y-90075992D01*
X185963553Y-89851368D01*
X185971071Y-89803900D01*
X186000500Y-89618095D01*
X186000500Y-89381904D01*
X185963554Y-89148636D01*
X185955011Y-89122343D01*
X185890568Y-88924008D01*
X185783343Y-88713567D01*
X185644517Y-88522490D01*
X185477510Y-88355483D01*
X185286433Y-88216657D01*
X185286432Y-88216656D01*
X185286430Y-88216655D01*
X185075992Y-88109432D01*
X184851363Y-88036445D01*
X184618095Y-87999500D01*
X184618092Y-87999500D01*
X184381908Y-87999500D01*
X184381905Y-87999500D01*
X184148636Y-88036445D01*
X183924007Y-88109432D01*
X183713569Y-88216655D01*
X183522491Y-88355482D01*
X183355482Y-88522491D01*
X183216655Y-88713569D01*
X183109432Y-88924007D01*
X183036445Y-89148636D01*
X182999500Y-89381904D01*
X178276782Y-89381904D01*
X178397342Y-89334361D01*
X178517922Y-89242922D01*
X178609361Y-89122342D01*
X178664877Y-88981564D01*
X178675500Y-88893102D01*
X178675500Y-88106898D01*
X178664877Y-88018436D01*
X178609361Y-87877658D01*
X178517922Y-87757078D01*
X178397342Y-87665639D01*
X178397341Y-87665638D01*
X178397339Y-87665637D01*
X178256565Y-87610123D01*
X178168106Y-87599500D01*
X178168102Y-87599500D01*
X176831898Y-87599500D01*
X176831893Y-87599500D01*
X176743434Y-87610123D01*
X176602660Y-87665637D01*
X176602656Y-87665640D01*
X176482081Y-87757075D01*
X176482075Y-87757081D01*
X176390640Y-87877656D01*
X176390637Y-87877660D01*
X176335123Y-88018434D01*
X176324500Y-88106893D01*
X122784948Y-88106893D01*
X122706020Y-87970184D01*
X122594216Y-87858380D01*
X122457284Y-87779323D01*
X122304557Y-87738400D01*
X122146443Y-87738400D01*
X121993716Y-87779323D01*
X121856784Y-87858380D01*
X121744980Y-87970184D01*
X121665923Y-88107116D01*
X121625000Y-88259843D01*
X100500500Y-88259843D01*
X100500500Y-87040843D01*
X156465800Y-87040843D01*
X156465800Y-87198957D01*
X156506723Y-87351684D01*
X156585780Y-87488616D01*
X156697584Y-87600420D01*
X156834516Y-87679477D01*
X156987243Y-87720400D01*
X156987245Y-87720400D01*
X157145355Y-87720400D01*
X157145357Y-87720400D01*
X157298084Y-87679477D01*
X157435016Y-87600420D01*
X157546820Y-87488616D01*
X157625877Y-87351684D01*
X157666800Y-87198957D01*
X157666800Y-87040843D01*
X157625877Y-86888116D01*
X157546820Y-86751184D01*
X157435016Y-86639380D01*
X157298084Y-86560323D01*
X157145357Y-86519400D01*
X156987243Y-86519400D01*
X156834516Y-86560323D01*
X156697584Y-86639380D01*
X156585780Y-86751184D01*
X156506723Y-86888116D01*
X156465800Y-87040843D01*
X100500500Y-87040843D01*
X100500500Y-86411306D01*
X176324500Y-86411306D01*
X176324500Y-86588693D01*
X176359106Y-86762665D01*
X176359106Y-86762667D01*
X176426985Y-86926544D01*
X176426985Y-86926545D01*
X176503358Y-87040844D01*
X176525536Y-87074035D01*
X176650965Y-87199464D01*
X176798453Y-87298013D01*
X176962334Y-87365894D01*
X177136309Y-87400500D01*
X177136310Y-87400500D01*
X177863690Y-87400500D01*
X177863691Y-87400500D01*
X178037666Y-87365894D01*
X178201547Y-87298013D01*
X178349035Y-87199464D01*
X178474464Y-87074035D01*
X178573013Y-86926547D01*
X178640894Y-86762666D01*
X178675500Y-86588691D01*
X178675500Y-86411309D01*
X178640894Y-86237334D01*
X178573014Y-86073455D01*
X178573014Y-86073454D01*
X178474464Y-85925965D01*
X178349034Y-85800535D01*
X178201544Y-85701985D01*
X178037666Y-85634106D01*
X177863693Y-85599500D01*
X177863691Y-85599500D01*
X177136309Y-85599500D01*
X177136306Y-85599500D01*
X176962334Y-85634106D01*
X176962332Y-85634106D01*
X176798455Y-85701985D01*
X176798454Y-85701985D01*
X176650965Y-85800535D01*
X176525535Y-85925965D01*
X176426985Y-86073454D01*
X176426985Y-86073455D01*
X176359106Y-86237332D01*
X176359106Y-86237334D01*
X176324500Y-86411306D01*
X100500500Y-86411306D01*
X100500500Y-84458443D01*
X143639400Y-84458443D01*
X143639400Y-84616557D01*
X143680323Y-84769284D01*
X143759380Y-84906216D01*
X143871184Y-85018020D01*
X144008116Y-85097077D01*
X144160843Y-85138000D01*
X144160845Y-85138000D01*
X144318955Y-85138000D01*
X144318957Y-85138000D01*
X144471684Y-85097077D01*
X144608616Y-85018020D01*
X144720420Y-84906216D01*
X144799477Y-84769284D01*
X144840400Y-84616557D01*
X144840400Y-84458443D01*
X144799477Y-84305716D01*
X144720420Y-84168784D01*
X144608616Y-84056980D01*
X144471684Y-83977923D01*
X144318957Y-83937000D01*
X144160843Y-83937000D01*
X144008116Y-83977923D01*
X143871184Y-84056980D01*
X143759380Y-84168784D01*
X143680323Y-84305716D01*
X143639400Y-84458443D01*
X100500500Y-84458443D01*
X100500500Y-82585043D01*
X130155400Y-82585043D01*
X130155400Y-82743157D01*
X130196323Y-82895884D01*
X130275380Y-83032816D01*
X130387184Y-83144620D01*
X130524116Y-83223677D01*
X130676843Y-83264600D01*
X130676845Y-83264600D01*
X130834955Y-83264600D01*
X130834957Y-83264600D01*
X130987684Y-83223677D01*
X131124616Y-83144620D01*
X131236420Y-83032816D01*
X131261456Y-82989450D01*
X148849500Y-82989450D01*
X148849500Y-83170549D01*
X148877828Y-83349406D01*
X148933788Y-83521637D01*
X149015835Y-83682664D01*
X149016004Y-83682994D01*
X149122447Y-83829501D01*
X149250499Y-83957553D01*
X149397006Y-84063996D01*
X149558361Y-84146211D01*
X149730591Y-84202171D01*
X149795711Y-84212485D01*
X149909451Y-84230500D01*
X149909454Y-84230500D01*
X150090549Y-84230500D01*
X150204263Y-84212489D01*
X150269409Y-84202171D01*
X150441639Y-84146211D01*
X150602994Y-84063996D01*
X150749501Y-83957553D01*
X150877553Y-83829501D01*
X150983996Y-83682994D01*
X151066211Y-83521639D01*
X151122171Y-83349409D01*
X151150500Y-83170546D01*
X151150500Y-82993424D01*
X151440000Y-82993424D01*
X151440000Y-83166575D01*
X151467084Y-83337579D01*
X151520588Y-83502248D01*
X151599194Y-83656522D01*
X151633463Y-83703691D01*
X152071979Y-83265174D01*
X152074075Y-83272993D01*
X152139901Y-83387007D01*
X152232993Y-83480099D01*
X152347007Y-83545925D01*
X152354822Y-83548019D01*
X151916307Y-83986535D01*
X151963476Y-84020804D01*
X152117751Y-84099411D01*
X152282420Y-84152915D01*
X152453425Y-84180000D01*
X152626575Y-84180000D01*
X152797579Y-84152915D01*
X152962248Y-84099411D01*
X153116524Y-84020804D01*
X153116530Y-84020800D01*
X153163691Y-83986535D01*
X153104681Y-83927525D01*
X156449500Y-83927525D01*
X156449500Y-84072474D01*
X156487017Y-84212489D01*
X156559487Y-84338010D01*
X156559489Y-84338012D01*
X156559491Y-84338015D01*
X156661985Y-84440509D01*
X156661987Y-84440510D01*
X156661989Y-84440512D01*
X156787511Y-84512982D01*
X156787512Y-84512982D01*
X156787515Y-84512984D01*
X156927525Y-84550500D01*
X156927526Y-84550500D01*
X157072474Y-84550500D01*
X157072475Y-84550500D01*
X157212485Y-84512984D01*
X157212487Y-84512982D01*
X157212489Y-84512982D01*
X157338010Y-84440512D01*
X157338010Y-84440511D01*
X157338015Y-84440509D01*
X157440509Y-84338015D01*
X157462457Y-84300000D01*
X176398129Y-84300000D01*
X177182457Y-84300000D01*
X177150556Y-84355255D01*
X177125000Y-84450630D01*
X177125000Y-84549370D01*
X177150556Y-84644745D01*
X177182457Y-84700000D01*
X176398130Y-84700000D01*
X176407664Y-84747934D01*
X176471739Y-84902625D01*
X176564759Y-85041840D01*
X176683159Y-85160240D01*
X176822374Y-85253260D01*
X176977065Y-85317335D01*
X177141279Y-85349999D01*
X177141283Y-85350000D01*
X177299999Y-85350000D01*
X177300000Y-85349999D01*
X177300000Y-84817542D01*
X177355255Y-84849444D01*
X177450630Y-84875000D01*
X177549370Y-84875000D01*
X177644745Y-84849444D01*
X177700000Y-84817542D01*
X177700000Y-85349999D01*
X177700001Y-85350000D01*
X177858717Y-85350000D01*
X177858720Y-85349999D01*
X178022934Y-85317335D01*
X178177625Y-85253260D01*
X178316840Y-85160240D01*
X178435240Y-85041840D01*
X178528260Y-84902625D01*
X178592335Y-84747934D01*
X178601870Y-84700000D01*
X177817543Y-84700000D01*
X177849444Y-84644745D01*
X177875000Y-84549370D01*
X177875000Y-84450630D01*
X177849444Y-84355255D01*
X177817543Y-84300000D01*
X178601870Y-84300000D01*
X178592335Y-84252065D01*
X178528260Y-84097374D01*
X178435240Y-83958159D01*
X178316840Y-83839759D01*
X178177625Y-83746739D01*
X178022934Y-83682664D01*
X177858720Y-83650000D01*
X177700001Y-83650000D01*
X177700000Y-83650001D01*
X177700000Y-84182457D01*
X177644745Y-84150556D01*
X177549370Y-84125000D01*
X177450630Y-84125000D01*
X177355255Y-84150556D01*
X177300000Y-84182457D01*
X177300000Y-83650001D01*
X177299999Y-83650000D01*
X177141279Y-83650000D01*
X176977065Y-83682664D01*
X176822374Y-83746739D01*
X176683159Y-83839759D01*
X176564759Y-83958159D01*
X176471739Y-84097374D01*
X176407664Y-84252065D01*
X176398129Y-84300000D01*
X157462457Y-84300000D01*
X157512984Y-84212485D01*
X157550500Y-84072475D01*
X157550500Y-83927525D01*
X157512984Y-83787515D01*
X157512982Y-83787512D01*
X157512982Y-83787510D01*
X157440512Y-83661989D01*
X157440510Y-83661987D01*
X157440509Y-83661985D01*
X157338015Y-83559491D01*
X157338012Y-83559489D01*
X157338010Y-83559487D01*
X157212488Y-83487017D01*
X157212489Y-83487017D01*
X157182896Y-83479087D01*
X157072475Y-83449500D01*
X156927525Y-83449500D01*
X156865790Y-83466041D01*
X156787510Y-83487017D01*
X156661989Y-83559487D01*
X156559487Y-83661989D01*
X156487017Y-83787510D01*
X156449500Y-83927525D01*
X153104681Y-83927525D01*
X152725175Y-83548019D01*
X152732993Y-83545925D01*
X152847007Y-83480099D01*
X152940099Y-83387007D01*
X153005925Y-83272993D01*
X153008019Y-83265175D01*
X153446535Y-83703691D01*
X153480800Y-83656530D01*
X153480804Y-83656524D01*
X153559411Y-83502248D01*
X153612915Y-83337579D01*
X153640000Y-83166575D01*
X153640000Y-82993424D01*
X153612915Y-82822420D01*
X153559411Y-82657751D01*
X153480804Y-82503476D01*
X153446535Y-82456307D01*
X153008019Y-82894822D01*
X153005925Y-82887007D01*
X152940099Y-82772993D01*
X152847007Y-82679901D01*
X152732993Y-82614075D01*
X152725174Y-82611979D01*
X153163691Y-82173463D01*
X153116522Y-82139194D01*
X152962248Y-82060588D01*
X152797579Y-82007084D01*
X152626575Y-81980000D01*
X152453425Y-81980000D01*
X152282420Y-82007084D01*
X152117751Y-82060588D01*
X151963473Y-82139196D01*
X151916307Y-82173463D01*
X152354824Y-82611980D01*
X152347007Y-82614075D01*
X152232993Y-82679901D01*
X152139901Y-82772993D01*
X152074075Y-82887007D01*
X152071980Y-82894824D01*
X151633463Y-82456307D01*
X151599196Y-82503473D01*
X151520588Y-82657751D01*
X151467084Y-82822420D01*
X151440000Y-82993424D01*
X151150500Y-82993424D01*
X151150500Y-82989454D01*
X151150500Y-82989450D01*
X151131614Y-82870212D01*
X151122171Y-82810591D01*
X151066211Y-82638361D01*
X150983996Y-82477006D01*
X150877553Y-82330499D01*
X150749501Y-82202447D01*
X150602994Y-82096004D01*
X150602993Y-82096003D01*
X150602991Y-82096002D01*
X150441637Y-82013788D01*
X150269406Y-81957828D01*
X150090549Y-81929500D01*
X150090546Y-81929500D01*
X149909454Y-81929500D01*
X149909451Y-81929500D01*
X149730593Y-81957828D01*
X149558362Y-82013788D01*
X149397008Y-82096002D01*
X149337560Y-82139194D01*
X149250499Y-82202447D01*
X149122447Y-82330499D01*
X149069225Y-82403752D01*
X149016002Y-82477008D01*
X148933788Y-82638362D01*
X148877828Y-82810593D01*
X148849500Y-82989450D01*
X131261456Y-82989450D01*
X131264572Y-82984053D01*
X131292280Y-82936064D01*
X131315476Y-82895885D01*
X131315477Y-82895884D01*
X131356400Y-82743157D01*
X131356400Y-82585043D01*
X131315477Y-82432316D01*
X131236420Y-82295384D01*
X131124616Y-82183580D01*
X130987684Y-82104523D01*
X130834957Y-82063600D01*
X130676843Y-82063600D01*
X130524116Y-82104523D01*
X130387184Y-82183580D01*
X130275380Y-82295384D01*
X130196323Y-82432316D01*
X130155400Y-82585043D01*
X100500500Y-82585043D01*
X100500500Y-81087343D01*
X120006300Y-81087343D01*
X120006300Y-81245457D01*
X120047223Y-81398184D01*
X120126280Y-81535116D01*
X120238084Y-81646920D01*
X120375016Y-81725977D01*
X120527743Y-81766900D01*
X120527745Y-81766900D01*
X120685855Y-81766900D01*
X120685857Y-81766900D01*
X120838584Y-81725977D01*
X120975516Y-81646920D01*
X121087320Y-81535116D01*
X121166377Y-81398184D01*
X121207300Y-81245457D01*
X121207300Y-81156943D01*
X129979400Y-81156943D01*
X129979400Y-81315057D01*
X130020323Y-81467784D01*
X130099380Y-81604716D01*
X130211184Y-81716520D01*
X130348116Y-81795577D01*
X130500843Y-81836500D01*
X130500845Y-81836500D01*
X130658955Y-81836500D01*
X130658957Y-81836500D01*
X130811684Y-81795577D01*
X130948616Y-81716520D01*
X131060420Y-81604716D01*
X131139477Y-81467784D01*
X131180400Y-81315057D01*
X131180400Y-81156943D01*
X131139477Y-81004216D01*
X131060420Y-80867284D01*
X130948616Y-80755480D01*
X130811684Y-80676423D01*
X130658957Y-80635500D01*
X130500843Y-80635500D01*
X130348116Y-80676423D01*
X130211184Y-80755480D01*
X130099380Y-80867284D01*
X130020323Y-81004216D01*
X129979400Y-81156943D01*
X121207300Y-81156943D01*
X121207300Y-81087343D01*
X121166377Y-80934616D01*
X121087320Y-80797684D01*
X120975516Y-80685880D01*
X120838584Y-80606823D01*
X120685857Y-80565900D01*
X120527743Y-80565900D01*
X120375016Y-80606823D01*
X120238084Y-80685880D01*
X120126280Y-80797684D01*
X120047223Y-80934616D01*
X120006300Y-81087343D01*
X100500500Y-81087343D01*
X100500500Y-80449450D01*
X148849500Y-80449450D01*
X148849500Y-80630549D01*
X148877828Y-80809406D01*
X148933788Y-80981637D01*
X148987648Y-81087344D01*
X149016004Y-81142994D01*
X149122447Y-81289501D01*
X149250499Y-81417553D01*
X149397006Y-81523996D01*
X149558361Y-81606211D01*
X149730591Y-81662171D01*
X149802136Y-81673502D01*
X149909451Y-81690500D01*
X149909454Y-81690500D01*
X150090549Y-81690500D01*
X150179977Y-81676335D01*
X150269409Y-81662171D01*
X150441639Y-81606211D01*
X150602994Y-81523996D01*
X150749501Y-81417553D01*
X150877553Y-81289501D01*
X150983996Y-81142994D01*
X151066211Y-80981639D01*
X151122171Y-80809409D01*
X151143234Y-80676423D01*
X151150500Y-80630549D01*
X151150500Y-80449450D01*
X151389500Y-80449450D01*
X151389500Y-80630549D01*
X151417828Y-80809406D01*
X151473788Y-80981637D01*
X151527648Y-81087344D01*
X151556004Y-81142994D01*
X151662447Y-81289501D01*
X151790499Y-81417553D01*
X151937006Y-81523996D01*
X152098361Y-81606211D01*
X152270591Y-81662171D01*
X152342136Y-81673502D01*
X152449451Y-81690500D01*
X152449454Y-81690500D01*
X152630549Y-81690500D01*
X152719977Y-81676335D01*
X152809409Y-81662171D01*
X152981639Y-81606211D01*
X153142994Y-81523996D01*
X153289501Y-81417553D01*
X153417553Y-81289501D01*
X153523996Y-81142994D01*
X153606211Y-80981639D01*
X153662171Y-80809409D01*
X153683234Y-80676423D01*
X153690500Y-80630549D01*
X153690500Y-80449450D01*
X153662171Y-80270593D01*
X153662171Y-80270591D01*
X153606211Y-80098361D01*
X153523996Y-79937006D01*
X153417553Y-79790499D01*
X153289501Y-79662447D01*
X153142994Y-79556004D01*
X153142993Y-79556003D01*
X153142991Y-79556002D01*
X152981637Y-79473788D01*
X152809406Y-79417828D01*
X152630549Y-79389500D01*
X152630546Y-79389500D01*
X152449454Y-79389500D01*
X152449451Y-79389500D01*
X152270593Y-79417828D01*
X152098362Y-79473788D01*
X151937008Y-79556002D01*
X151888916Y-79590943D01*
X151790499Y-79662447D01*
X151662447Y-79790499D01*
X151630581Y-79834359D01*
X151556002Y-79937008D01*
X151473788Y-80098362D01*
X151417828Y-80270593D01*
X151389500Y-80449450D01*
X151150500Y-80449450D01*
X151122171Y-80270593D01*
X151122171Y-80270591D01*
X151066211Y-80098361D01*
X150983996Y-79937006D01*
X150877553Y-79790499D01*
X150749501Y-79662447D01*
X150602994Y-79556004D01*
X150602993Y-79556003D01*
X150602991Y-79556002D01*
X150441637Y-79473788D01*
X150269406Y-79417828D01*
X150090549Y-79389500D01*
X150090546Y-79389500D01*
X149909454Y-79389500D01*
X149909451Y-79389500D01*
X149730593Y-79417828D01*
X149558362Y-79473788D01*
X149397008Y-79556002D01*
X149348916Y-79590943D01*
X149250499Y-79662447D01*
X149122447Y-79790499D01*
X149090581Y-79834359D01*
X149016002Y-79937008D01*
X148933788Y-80098362D01*
X148877828Y-80270593D01*
X148849500Y-80449450D01*
X100500500Y-80449450D01*
X100500500Y-79590943D01*
X128941300Y-79590943D01*
X128941300Y-79749057D01*
X128982223Y-79901784D01*
X129061280Y-80038716D01*
X129173084Y-80150520D01*
X129310016Y-80229577D01*
X129462743Y-80270500D01*
X129462745Y-80270500D01*
X129620855Y-80270500D01*
X129620857Y-80270500D01*
X129773584Y-80229577D01*
X129910516Y-80150520D01*
X130022320Y-80038716D01*
X130101377Y-79901784D01*
X130142300Y-79749057D01*
X130142300Y-79590943D01*
X130101377Y-79438216D01*
X130101111Y-79437755D01*
X130099323Y-79434657D01*
X130099320Y-79434654D01*
X130074488Y-79391643D01*
X140832000Y-79391643D01*
X140832000Y-79549757D01*
X140872923Y-79702484D01*
X140951980Y-79839416D01*
X141063784Y-79951220D01*
X141200716Y-80030277D01*
X141353443Y-80071200D01*
X141353445Y-80071200D01*
X141511555Y-80071200D01*
X141511557Y-80071200D01*
X141664284Y-80030277D01*
X141801216Y-79951220D01*
X141913020Y-79839416D01*
X141992077Y-79702484D01*
X142033000Y-79549757D01*
X142033000Y-79391643D01*
X141992077Y-79238916D01*
X141913020Y-79101984D01*
X141801216Y-78990180D01*
X141664284Y-78911123D01*
X141511557Y-78870200D01*
X141353443Y-78870200D01*
X141200716Y-78911123D01*
X141063784Y-78990180D01*
X140951980Y-79101984D01*
X140872923Y-79238916D01*
X140832000Y-79391643D01*
X130074488Y-79391643D01*
X130022320Y-79301284D01*
X129910516Y-79189480D01*
X129773584Y-79110423D01*
X129620857Y-79069500D01*
X129462743Y-79069500D01*
X129310016Y-79110423D01*
X129173084Y-79189480D01*
X129061280Y-79301284D01*
X128982223Y-79438216D01*
X128941300Y-79590943D01*
X100500500Y-79590943D01*
X100500500Y-76659743D01*
X135033500Y-76659743D01*
X135033500Y-76817857D01*
X135074423Y-76970584D01*
X135153480Y-77107516D01*
X135265284Y-77219320D01*
X135402216Y-77298377D01*
X135554943Y-77339300D01*
X135554945Y-77339300D01*
X135713056Y-77339300D01*
X135713057Y-77339300D01*
X135808223Y-77313800D01*
X135869322Y-77317001D01*
X135916873Y-77355506D01*
X135929471Y-77383802D01*
X135946721Y-77448180D01*
X135946721Y-77448181D01*
X135953845Y-77460520D01*
X136025780Y-77585116D01*
X136137584Y-77696920D01*
X136274516Y-77775977D01*
X136427243Y-77816900D01*
X136427245Y-77816900D01*
X136585355Y-77816900D01*
X136585357Y-77816900D01*
X136738084Y-77775977D01*
X136875016Y-77696920D01*
X136986820Y-77585116D01*
X137065877Y-77448184D01*
X137068235Y-77439383D01*
X137101552Y-77388071D01*
X137158672Y-77366140D01*
X137217774Y-77381971D01*
X137233859Y-77394995D01*
X137299384Y-77460520D01*
X137436316Y-77539577D01*
X137589043Y-77580500D01*
X137589045Y-77580500D01*
X137747155Y-77580500D01*
X137747157Y-77580500D01*
X137899884Y-77539577D01*
X138036816Y-77460520D01*
X138148620Y-77348716D01*
X138227677Y-77211784D01*
X138256255Y-77105130D01*
X148849500Y-77105130D01*
X148849500Y-78894860D01*
X148849501Y-78894863D01*
X148852414Y-78919990D01*
X148877756Y-78977385D01*
X148897794Y-79022765D01*
X148977235Y-79102206D01*
X149080009Y-79147585D01*
X149105135Y-79150500D01*
X150894864Y-79150499D01*
X150919991Y-79147585D01*
X151022765Y-79102206D01*
X151102206Y-79022765D01*
X151147585Y-78919991D01*
X151150500Y-78894865D01*
X151150499Y-77909450D01*
X151389500Y-77909450D01*
X151389500Y-78090549D01*
X151417828Y-78269406D01*
X151473788Y-78441637D01*
X151533584Y-78558994D01*
X151556004Y-78602994D01*
X151662447Y-78749501D01*
X151790499Y-78877553D01*
X151937006Y-78983996D01*
X152098361Y-79066211D01*
X152270591Y-79122171D01*
X152342136Y-79133502D01*
X152449451Y-79150500D01*
X152449454Y-79150500D01*
X152630549Y-79150500D01*
X152719977Y-79136335D01*
X152809409Y-79122171D01*
X152981639Y-79066211D01*
X153142994Y-78983996D01*
X153289501Y-78877553D01*
X153417553Y-78749501D01*
X153521163Y-78606893D01*
X176324500Y-78606893D01*
X176324500Y-79393106D01*
X176335123Y-79481565D01*
X176390637Y-79622339D01*
X176390638Y-79622341D01*
X176390639Y-79622342D01*
X176482078Y-79742922D01*
X176602658Y-79834361D01*
X176602659Y-79834361D01*
X176602660Y-79834362D01*
X176673047Y-79862119D01*
X176743436Y-79889877D01*
X176831898Y-79900500D01*
X176831900Y-79900500D01*
X178168100Y-79900500D01*
X178168102Y-79900500D01*
X178256564Y-79889877D01*
X178397342Y-79834361D01*
X178517922Y-79742922D01*
X178609361Y-79622342D01*
X178664877Y-79481564D01*
X178675500Y-79393102D01*
X178675500Y-78606898D01*
X178664877Y-78518436D01*
X178609361Y-78377658D01*
X178517922Y-78257078D01*
X178397342Y-78165639D01*
X178397341Y-78165638D01*
X178397339Y-78165637D01*
X178256565Y-78110123D01*
X178168106Y-78099500D01*
X178168102Y-78099500D01*
X176831898Y-78099500D01*
X176831893Y-78099500D01*
X176743434Y-78110123D01*
X176602660Y-78165637D01*
X176602656Y-78165640D01*
X176482081Y-78257075D01*
X176482075Y-78257081D01*
X176390640Y-78377656D01*
X176390637Y-78377660D01*
X176335123Y-78518434D01*
X176324500Y-78606893D01*
X153521163Y-78606893D01*
X153523996Y-78602994D01*
X153567082Y-78518434D01*
X153606208Y-78441646D01*
X153606210Y-78441640D01*
X153606211Y-78441639D01*
X153662171Y-78269409D01*
X153678606Y-78165640D01*
X153690500Y-78090549D01*
X153690500Y-77909450D01*
X153662171Y-77730593D01*
X153662171Y-77730591D01*
X153606211Y-77558361D01*
X153523996Y-77397006D01*
X153417553Y-77250499D01*
X153289501Y-77122447D01*
X153142994Y-77016004D01*
X153142993Y-77016003D01*
X153142991Y-77016002D01*
X152981637Y-76933788D01*
X152941555Y-76920765D01*
X152809406Y-76877828D01*
X152630549Y-76849500D01*
X152630546Y-76849500D01*
X152449454Y-76849500D01*
X152449451Y-76849500D01*
X152270593Y-76877828D01*
X152098362Y-76933788D01*
X151937008Y-77016002D01*
X151891081Y-77049370D01*
X151790499Y-77122447D01*
X151662447Y-77250499D01*
X151644448Y-77275273D01*
X151556002Y-77397008D01*
X151473788Y-77558362D01*
X151417828Y-77730593D01*
X151389500Y-77909450D01*
X151150499Y-77909450D01*
X151150499Y-77105136D01*
X151147585Y-77080009D01*
X151102206Y-76977235D01*
X151022765Y-76897794D01*
X150919991Y-76852415D01*
X150919990Y-76852414D01*
X150919988Y-76852414D01*
X150894868Y-76849500D01*
X149105139Y-76849500D01*
X149105136Y-76849501D01*
X149080009Y-76852414D01*
X148977235Y-76897794D01*
X148897794Y-76977235D01*
X148852414Y-77080011D01*
X148849500Y-77105130D01*
X138256255Y-77105130D01*
X138268600Y-77059057D01*
X138268600Y-76900943D01*
X138241552Y-76800000D01*
X176398129Y-76800000D01*
X177182457Y-76800000D01*
X177150556Y-76855255D01*
X177125000Y-76950630D01*
X177125000Y-77049370D01*
X177150556Y-77144745D01*
X177182457Y-77200000D01*
X176398130Y-77200000D01*
X176407664Y-77247934D01*
X176471739Y-77402625D01*
X176564759Y-77541840D01*
X176683159Y-77660240D01*
X176822374Y-77753260D01*
X176977065Y-77817335D01*
X177141279Y-77849999D01*
X177141283Y-77850000D01*
X177299999Y-77850000D01*
X177300000Y-77849999D01*
X177300000Y-77317542D01*
X177355255Y-77349444D01*
X177450630Y-77375000D01*
X177549370Y-77375000D01*
X177644745Y-77349444D01*
X177700000Y-77317542D01*
X177700000Y-77849999D01*
X177700001Y-77850000D01*
X177858717Y-77850000D01*
X177858720Y-77849999D01*
X178022934Y-77817335D01*
X178177625Y-77753260D01*
X178316840Y-77660240D01*
X178435240Y-77541840D01*
X178528260Y-77402625D01*
X178592335Y-77247934D01*
X178601870Y-77200000D01*
X177817543Y-77200000D01*
X177849444Y-77144745D01*
X177875000Y-77049370D01*
X177875000Y-76950630D01*
X177849444Y-76855255D01*
X177817543Y-76800000D01*
X178601870Y-76800000D01*
X178592335Y-76752065D01*
X178528260Y-76597374D01*
X178435240Y-76458159D01*
X178316840Y-76339759D01*
X178177625Y-76246739D01*
X178022934Y-76182664D01*
X177858720Y-76150000D01*
X177700001Y-76150000D01*
X177700000Y-76150001D01*
X177700000Y-76682457D01*
X177644745Y-76650556D01*
X177549370Y-76625000D01*
X177450630Y-76625000D01*
X177355255Y-76650556D01*
X177300000Y-76682457D01*
X177300000Y-76150001D01*
X177299999Y-76150000D01*
X177141279Y-76150000D01*
X176977065Y-76182664D01*
X176822374Y-76246739D01*
X176683159Y-76339759D01*
X176564759Y-76458159D01*
X176471739Y-76597374D01*
X176407664Y-76752065D01*
X176398129Y-76800000D01*
X138241552Y-76800000D01*
X138227677Y-76748216D01*
X138148620Y-76611284D01*
X138036816Y-76499480D01*
X137899884Y-76420423D01*
X137747157Y-76379500D01*
X137589043Y-76379500D01*
X137436316Y-76420423D01*
X137299384Y-76499480D01*
X137187580Y-76611284D01*
X137108523Y-76748216D01*
X137106165Y-76757018D01*
X137072841Y-76808332D01*
X137015719Y-76830259D01*
X136956619Y-76814423D01*
X136940539Y-76801403D01*
X136875016Y-76735880D01*
X136738084Y-76656823D01*
X136585357Y-76615900D01*
X136427243Y-76615900D01*
X136332075Y-76641399D01*
X136270975Y-76638197D01*
X136223426Y-76599692D01*
X136210828Y-76571399D01*
X136193577Y-76507016D01*
X136114520Y-76370084D01*
X136002716Y-76258280D01*
X135865784Y-76179223D01*
X135713057Y-76138300D01*
X135554943Y-76138300D01*
X135402216Y-76179223D01*
X135265284Y-76258280D01*
X135153480Y-76370084D01*
X135074423Y-76507016D01*
X135033500Y-76659743D01*
X100500500Y-76659743D01*
X100500500Y-74909450D01*
X125849500Y-74909450D01*
X125849500Y-75090549D01*
X125877828Y-75269406D01*
X125877829Y-75269409D01*
X125933789Y-75441639D01*
X126016004Y-75602994D01*
X126122447Y-75749501D01*
X126250499Y-75877553D01*
X126397006Y-75983996D01*
X126558361Y-76066211D01*
X126730591Y-76122171D01*
X126802136Y-76133502D01*
X126909451Y-76150500D01*
X126909454Y-76150500D01*
X127090549Y-76150500D01*
X127179977Y-76136335D01*
X127269409Y-76122171D01*
X127441639Y-76066211D01*
X127602994Y-75983996D01*
X127749501Y-75877553D01*
X127877553Y-75749501D01*
X127983996Y-75602994D01*
X128066211Y-75441639D01*
X128122171Y-75269409D01*
X128150500Y-75090546D01*
X128150500Y-74909454D01*
X128150500Y-74909450D01*
X128122171Y-74730593D01*
X128122171Y-74730591D01*
X128066211Y-74558361D01*
X127983996Y-74397006D01*
X127877553Y-74250499D01*
X127749501Y-74122447D01*
X127634983Y-74039245D01*
X127602997Y-74016005D01*
X127602993Y-74016003D01*
X127504156Y-73965643D01*
X131806700Y-73965643D01*
X131806700Y-74123757D01*
X131847623Y-74276484D01*
X131926680Y-74413416D01*
X132038484Y-74525220D01*
X132175416Y-74604277D01*
X132328143Y-74645200D01*
X132328145Y-74645200D01*
X132486255Y-74645200D01*
X132486257Y-74645200D01*
X132638984Y-74604277D01*
X132775916Y-74525220D01*
X132887720Y-74413416D01*
X132966777Y-74276484D01*
X133007700Y-74123757D01*
X133007700Y-73965643D01*
X132966777Y-73812916D01*
X132887720Y-73675984D01*
X132775916Y-73564180D01*
X132638984Y-73485123D01*
X132486257Y-73444200D01*
X132328143Y-73444200D01*
X132175416Y-73485123D01*
X132038484Y-73564180D01*
X131926680Y-73675984D01*
X131847623Y-73812916D01*
X131806700Y-73965643D01*
X127504156Y-73965643D01*
X127441637Y-73933788D01*
X127269406Y-73877828D01*
X127090549Y-73849500D01*
X127090546Y-73849500D01*
X126909454Y-73849500D01*
X126909451Y-73849500D01*
X126730593Y-73877828D01*
X126558362Y-73933788D01*
X126397008Y-74016002D01*
X126323752Y-74069225D01*
X126250499Y-74122447D01*
X126122447Y-74250499D01*
X126069225Y-74323752D01*
X126016002Y-74397008D01*
X125933788Y-74558362D01*
X125877828Y-74730593D01*
X125849500Y-74909450D01*
X100500500Y-74909450D01*
X100500500Y-74040943D01*
X112454700Y-74040943D01*
X112454700Y-74199057D01*
X112495623Y-74351784D01*
X112574680Y-74488716D01*
X112686484Y-74600520D01*
X112823416Y-74679577D01*
X112976143Y-74720500D01*
X112976145Y-74720500D01*
X113134255Y-74720500D01*
X113134257Y-74720500D01*
X113286984Y-74679577D01*
X113423916Y-74600520D01*
X113535720Y-74488716D01*
X113593961Y-74387837D01*
X113639428Y-74346898D01*
X113700278Y-74340502D01*
X113749697Y-74367333D01*
X113772584Y-74390220D01*
X113909516Y-74469277D01*
X114062243Y-74510200D01*
X114062245Y-74510200D01*
X114220355Y-74510200D01*
X114220357Y-74510200D01*
X114373084Y-74469277D01*
X114510016Y-74390220D01*
X114621820Y-74278416D01*
X114700877Y-74141484D01*
X114741800Y-73988757D01*
X114741800Y-73830643D01*
X114700877Y-73677916D01*
X114621820Y-73540984D01*
X114510016Y-73429180D01*
X114373084Y-73350123D01*
X114220357Y-73309200D01*
X114062243Y-73309200D01*
X113909516Y-73350123D01*
X113772584Y-73429180D01*
X113660778Y-73540986D01*
X113602539Y-73641860D01*
X113557070Y-73682801D01*
X113496220Y-73689197D01*
X113446801Y-73662365D01*
X113423916Y-73639480D01*
X113286984Y-73560423D01*
X113134257Y-73519500D01*
X112976143Y-73519500D01*
X112823416Y-73560423D01*
X112686484Y-73639480D01*
X112574680Y-73751284D01*
X112495623Y-73888216D01*
X112454700Y-74040943D01*
X100500500Y-74040943D01*
X100500500Y-72413424D01*
X125900000Y-72413424D01*
X125900000Y-72586575D01*
X125927084Y-72757579D01*
X125980588Y-72922248D01*
X126059194Y-73076522D01*
X126093463Y-73123691D01*
X126531979Y-72685174D01*
X126534075Y-72692993D01*
X126599901Y-72807007D01*
X126692993Y-72900099D01*
X126807007Y-72965925D01*
X126814822Y-72968019D01*
X126376307Y-73406535D01*
X126423476Y-73440804D01*
X126577751Y-73519411D01*
X126742420Y-73572915D01*
X126913425Y-73600000D01*
X127086575Y-73600000D01*
X127257579Y-73572915D01*
X127422248Y-73519411D01*
X127576524Y-73440804D01*
X127576530Y-73440800D01*
X127623691Y-73406535D01*
X127185175Y-72968019D01*
X127192993Y-72965925D01*
X127307007Y-72900099D01*
X127400099Y-72807007D01*
X127465925Y-72692993D01*
X127468019Y-72685175D01*
X127906535Y-73123691D01*
X127940800Y-73076530D01*
X127940804Y-73076524D01*
X128019411Y-72922248D01*
X128072915Y-72757579D01*
X128100000Y-72586575D01*
X128100000Y-72413424D01*
X128072915Y-72242420D01*
X128019411Y-72077751D01*
X127940804Y-71923476D01*
X127906535Y-71876307D01*
X127468019Y-72314822D01*
X127465925Y-72307007D01*
X127400099Y-72192993D01*
X127307007Y-72099901D01*
X127192993Y-72034075D01*
X127185174Y-72031979D01*
X127499912Y-71717243D01*
X133827900Y-71717243D01*
X133827900Y-71875357D01*
X133868823Y-72028084D01*
X133947880Y-72165016D01*
X134059684Y-72276820D01*
X134196616Y-72355877D01*
X134349343Y-72396800D01*
X134349345Y-72396800D01*
X134507455Y-72396800D01*
X134507457Y-72396800D01*
X134660184Y-72355877D01*
X134797116Y-72276820D01*
X134908920Y-72165016D01*
X134987977Y-72028084D01*
X135028900Y-71875357D01*
X135028900Y-71717243D01*
X134987977Y-71564516D01*
X134908920Y-71427584D01*
X134797116Y-71315780D01*
X134660184Y-71236723D01*
X134507457Y-71195800D01*
X134349343Y-71195800D01*
X134196616Y-71236723D01*
X134059684Y-71315780D01*
X133947880Y-71427584D01*
X133868823Y-71564516D01*
X133827900Y-71717243D01*
X127499912Y-71717243D01*
X127576405Y-71640750D01*
X127623691Y-71593463D01*
X127576522Y-71559194D01*
X127422248Y-71480588D01*
X127257579Y-71427084D01*
X127086575Y-71400000D01*
X126913425Y-71400000D01*
X126742420Y-71427084D01*
X126577751Y-71480588D01*
X126423473Y-71559196D01*
X126376307Y-71593463D01*
X126814824Y-72031980D01*
X126807007Y-72034075D01*
X126692993Y-72099901D01*
X126599901Y-72192993D01*
X126534075Y-72307007D01*
X126531980Y-72314824D01*
X126093463Y-71876307D01*
X126059196Y-71923473D01*
X125980588Y-72077751D01*
X125927084Y-72242420D01*
X125900000Y-72413424D01*
X100500500Y-72413424D01*
X100500500Y-71691743D01*
X111884300Y-71691743D01*
X111884300Y-71849857D01*
X111925223Y-72002584D01*
X112004280Y-72139516D01*
X112116084Y-72251320D01*
X112253016Y-72330377D01*
X112405743Y-72371300D01*
X112405745Y-72371300D01*
X112563855Y-72371300D01*
X112563857Y-72371300D01*
X112716584Y-72330377D01*
X112853516Y-72251320D01*
X112965320Y-72139516D01*
X113044377Y-72002584D01*
X113085300Y-71849857D01*
X113085300Y-71691743D01*
X113044377Y-71539016D01*
X112965320Y-71402084D01*
X112853516Y-71290280D01*
X112716584Y-71211223D01*
X112563857Y-71170300D01*
X112405743Y-71170300D01*
X112253016Y-71211223D01*
X112116084Y-71290280D01*
X112004280Y-71402084D01*
X111925223Y-71539016D01*
X111884300Y-71691743D01*
X100500500Y-71691743D01*
X100500500Y-69909450D01*
X125849500Y-69909450D01*
X125849500Y-70090549D01*
X125877828Y-70269406D01*
X125877829Y-70269409D01*
X125933789Y-70441639D01*
X126016004Y-70602994D01*
X126122447Y-70749501D01*
X126250499Y-70877553D01*
X126397006Y-70983996D01*
X126558361Y-71066211D01*
X126730591Y-71122171D01*
X126802136Y-71133502D01*
X126909451Y-71150500D01*
X126909454Y-71150500D01*
X127090549Y-71150500D01*
X127179977Y-71136335D01*
X127269409Y-71122171D01*
X127441639Y-71066211D01*
X127602994Y-70983996D01*
X127749501Y-70877553D01*
X127877553Y-70749501D01*
X127983996Y-70602994D01*
X128066211Y-70441639D01*
X128122171Y-70269409D01*
X128136335Y-70179977D01*
X128150500Y-70090549D01*
X128150500Y-69909450D01*
X128148659Y-69897824D01*
X176374999Y-69897824D01*
X176381401Y-69957370D01*
X176381403Y-69957381D01*
X176431646Y-70092088D01*
X176431647Y-70092090D01*
X176517807Y-70207184D01*
X176517815Y-70207192D01*
X176632909Y-70293352D01*
X176632911Y-70293353D01*
X176767618Y-70343596D01*
X176767629Y-70343598D01*
X176827176Y-70350000D01*
X177299999Y-70350000D01*
X177300000Y-70349999D01*
X177300000Y-69817542D01*
X177355255Y-69849444D01*
X177450630Y-69875000D01*
X177549370Y-69875000D01*
X177644745Y-69849444D01*
X177700000Y-69817542D01*
X177700000Y-70349999D01*
X177700001Y-70350000D01*
X178172824Y-70350000D01*
X178232370Y-70343598D01*
X178232381Y-70343596D01*
X178367088Y-70293353D01*
X178367090Y-70293352D01*
X178482184Y-70207192D01*
X178482192Y-70207184D01*
X178568352Y-70092090D01*
X178568353Y-70092088D01*
X178618596Y-69957381D01*
X178618598Y-69957370D01*
X178625000Y-69897824D01*
X178625000Y-69700001D01*
X178624999Y-69700000D01*
X177817543Y-69700000D01*
X177849444Y-69644745D01*
X177875000Y-69549370D01*
X177875000Y-69450630D01*
X177849444Y-69355255D01*
X177817543Y-69300000D01*
X178624999Y-69300000D01*
X178625000Y-69299999D01*
X178625000Y-69102175D01*
X178618598Y-69042629D01*
X178618596Y-69042618D01*
X178568353Y-68907911D01*
X178568352Y-68907909D01*
X178482192Y-68792815D01*
X178482184Y-68792807D01*
X178367090Y-68706647D01*
X178367088Y-68706646D01*
X178232381Y-68656403D01*
X178232370Y-68656401D01*
X178172824Y-68650000D01*
X177700001Y-68650000D01*
X177700000Y-68650001D01*
X177700000Y-69182457D01*
X177644745Y-69150556D01*
X177549370Y-69125000D01*
X177450630Y-69125000D01*
X177355255Y-69150556D01*
X177300000Y-69182457D01*
X177300000Y-68650001D01*
X177299999Y-68650000D01*
X176827176Y-68650000D01*
X176767629Y-68656401D01*
X176767618Y-68656403D01*
X176632911Y-68706646D01*
X176632909Y-68706647D01*
X176517815Y-68792807D01*
X176517807Y-68792815D01*
X176431647Y-68907909D01*
X176431646Y-68907911D01*
X176381403Y-69042618D01*
X176381401Y-69042629D01*
X176375000Y-69102175D01*
X176375000Y-69299999D01*
X176375001Y-69300000D01*
X177182457Y-69300000D01*
X177150556Y-69355255D01*
X177125000Y-69450630D01*
X177125000Y-69549370D01*
X177150556Y-69644745D01*
X177182457Y-69700000D01*
X176375001Y-69700000D01*
X176375000Y-69700001D01*
X176375000Y-69897824D01*
X176374999Y-69897824D01*
X128148659Y-69897824D01*
X128122171Y-69730593D01*
X128122171Y-69730591D01*
X128094278Y-69644745D01*
X128066211Y-69558362D01*
X128066211Y-69558361D01*
X127983996Y-69397006D01*
X127877553Y-69250499D01*
X127749501Y-69122447D01*
X127602994Y-69016004D01*
X127602993Y-69016003D01*
X127602991Y-69016002D01*
X127441637Y-68933788D01*
X127269406Y-68877828D01*
X127090549Y-68849500D01*
X127090546Y-68849500D01*
X126909454Y-68849500D01*
X126909451Y-68849500D01*
X126730593Y-68877828D01*
X126558362Y-68933788D01*
X126397008Y-69016002D01*
X126323752Y-69069225D01*
X126250499Y-69122447D01*
X126122447Y-69250499D01*
X126086483Y-69300000D01*
X126016002Y-69397008D01*
X125933788Y-69558362D01*
X125877828Y-69730593D01*
X125849500Y-69909450D01*
X100500500Y-69909450D01*
X100500500Y-68747243D01*
X131708800Y-68747243D01*
X131708800Y-68905357D01*
X131749723Y-69058084D01*
X131828780Y-69195016D01*
X131940584Y-69306820D01*
X132077516Y-69385877D01*
X132230243Y-69426800D01*
X132230245Y-69426800D01*
X132388355Y-69426800D01*
X132388357Y-69426800D01*
X132541084Y-69385877D01*
X132678016Y-69306820D01*
X132789820Y-69195016D01*
X132868877Y-69058084D01*
X132909800Y-68905357D01*
X132909800Y-68823343D01*
X136892800Y-68823343D01*
X136892800Y-68981457D01*
X136933723Y-69134184D01*
X137012780Y-69271116D01*
X137124584Y-69382920D01*
X137261516Y-69461977D01*
X137414243Y-69502900D01*
X137414245Y-69502900D01*
X137572355Y-69502900D01*
X137572357Y-69502900D01*
X137725084Y-69461977D01*
X137862016Y-69382920D01*
X137973820Y-69271116D01*
X138052877Y-69134184D01*
X138093800Y-68981457D01*
X138093800Y-68823343D01*
X138052877Y-68670616D01*
X137973820Y-68533684D01*
X137862016Y-68421880D01*
X137725084Y-68342823D01*
X137572357Y-68301900D01*
X137414243Y-68301900D01*
X137261516Y-68342823D01*
X137124584Y-68421880D01*
X137012780Y-68533684D01*
X136933723Y-68670616D01*
X136892800Y-68823343D01*
X132909800Y-68823343D01*
X132909800Y-68747243D01*
X132868877Y-68594516D01*
X132789820Y-68457584D01*
X132678016Y-68345780D01*
X132541084Y-68266723D01*
X132388357Y-68225800D01*
X132230243Y-68225800D01*
X132077516Y-68266723D01*
X131940584Y-68345780D01*
X131828780Y-68457584D01*
X131749723Y-68594516D01*
X131708800Y-68747243D01*
X100500500Y-68747243D01*
X100500500Y-67411306D01*
X176324500Y-67411306D01*
X176324500Y-67588693D01*
X176359106Y-67762665D01*
X176359106Y-67762667D01*
X176426985Y-67926544D01*
X176426985Y-67926545D01*
X176525535Y-68074034D01*
X176525536Y-68074035D01*
X176650965Y-68199464D01*
X176798453Y-68298013D01*
X176962334Y-68365894D01*
X177136309Y-68400500D01*
X177136310Y-68400500D01*
X177863690Y-68400500D01*
X177863691Y-68400500D01*
X178037666Y-68365894D01*
X178201547Y-68298013D01*
X178349035Y-68199464D01*
X178474464Y-68074035D01*
X178573013Y-67926547D01*
X178640894Y-67762666D01*
X178675500Y-67588691D01*
X178675500Y-67411309D01*
X178640894Y-67237334D01*
X178573014Y-67073455D01*
X178573014Y-67073454D01*
X178474464Y-66925965D01*
X178349034Y-66800535D01*
X178201544Y-66701985D01*
X178037666Y-66634106D01*
X177863693Y-66599500D01*
X177863691Y-66599500D01*
X177136309Y-66599500D01*
X177136306Y-66599500D01*
X176962334Y-66634106D01*
X176962332Y-66634106D01*
X176798455Y-66701985D01*
X176798454Y-66701985D01*
X176650965Y-66800535D01*
X176525535Y-66925965D01*
X176426985Y-67073454D01*
X176426985Y-67073455D01*
X176359106Y-67237332D01*
X176359106Y-67237334D01*
X176324500Y-67411306D01*
X100500500Y-67411306D01*
X100500500Y-65411306D01*
X176324500Y-65411306D01*
X176324500Y-65588693D01*
X176359106Y-65762665D01*
X176359106Y-65762667D01*
X176426985Y-65926544D01*
X176426985Y-65926545D01*
X176525535Y-66074034D01*
X176525536Y-66074035D01*
X176650965Y-66199464D01*
X176798453Y-66298013D01*
X176962334Y-66365894D01*
X177136309Y-66400500D01*
X177136310Y-66400500D01*
X177863690Y-66400500D01*
X177863691Y-66400500D01*
X178037666Y-66365894D01*
X178201547Y-66298013D01*
X178349035Y-66199464D01*
X178474464Y-66074035D01*
X178573013Y-65926547D01*
X178640894Y-65762666D01*
X178675500Y-65588691D01*
X178675500Y-65411309D01*
X178640894Y-65237334D01*
X178573014Y-65073455D01*
X178573014Y-65073454D01*
X178474464Y-64925965D01*
X178349034Y-64800535D01*
X178201544Y-64701985D01*
X178037666Y-64634106D01*
X177863693Y-64599500D01*
X177863691Y-64599500D01*
X177136309Y-64599500D01*
X177136306Y-64599500D01*
X176962334Y-64634106D01*
X176962332Y-64634106D01*
X176798455Y-64701985D01*
X176798454Y-64701985D01*
X176650965Y-64800535D01*
X176525535Y-64925965D01*
X176426985Y-65073454D01*
X176426985Y-65073455D01*
X176359106Y-65237332D01*
X176359106Y-65237334D01*
X176324500Y-65411306D01*
X100500500Y-65411306D01*
X100500500Y-63411306D01*
X176324500Y-63411306D01*
X176324500Y-63588693D01*
X176359106Y-63762665D01*
X176359106Y-63762667D01*
X176426985Y-63926544D01*
X176426985Y-63926545D01*
X176525535Y-64074034D01*
X176525536Y-64074035D01*
X176650965Y-64199464D01*
X176798453Y-64298013D01*
X176962334Y-64365894D01*
X177136309Y-64400500D01*
X177136310Y-64400500D01*
X177863690Y-64400500D01*
X177863691Y-64400500D01*
X178037666Y-64365894D01*
X178201547Y-64298013D01*
X178349035Y-64199464D01*
X178474464Y-64074035D01*
X178573013Y-63926547D01*
X178640894Y-63762666D01*
X178675500Y-63588691D01*
X178675500Y-63411309D01*
X178640894Y-63237334D01*
X178573014Y-63073455D01*
X178573014Y-63073454D01*
X178474464Y-62925965D01*
X178349034Y-62800535D01*
X178201544Y-62701985D01*
X178037666Y-62634106D01*
X177863693Y-62599500D01*
X177863691Y-62599500D01*
X177136309Y-62599500D01*
X177136306Y-62599500D01*
X176962334Y-62634106D01*
X176962332Y-62634106D01*
X176798455Y-62701985D01*
X176798454Y-62701985D01*
X176650965Y-62800535D01*
X176525535Y-62925965D01*
X176426985Y-63073454D01*
X176426985Y-63073455D01*
X176359106Y-63237332D01*
X176359106Y-63237334D01*
X176324500Y-63411306D01*
X100500500Y-63411306D01*
X100500500Y-60599500D01*
X100519407Y-60541309D01*
X100568907Y-60505345D01*
X100599500Y-60500500D01*
X187400500Y-60500500D01*
X187458691Y-60519407D01*
G37*
%TD.AperFunction*%
%TD*%
M02*
