%TF.GenerationSoftware,KiCad,Pcbnew,9.0.2+dfsg-1*%
%TF.CreationDate,2026-07-31T11:14:11+02:00*%
%TF.ProjectId,AskSin-Analyzer-V3,41736b53-696e-42d4-916e-616c797a6572,rev?*%
%TF.SameCoordinates,Original*%
%TF.FileFunction,Copper,L1,Top*%
%TF.FilePolarity,Positive*%
%FSLAX46Y46*%
G04 Gerber Fmt 4.6, Leading zero omitted, Abs format (unit mm)*
G04 Created by KiCad (PCBNEW 9.0.2+dfsg-1) date 2026-07-31 11:14:11*
%MOMM*%
%LPD*%
G01*
G04 APERTURE LIST*
G04 Aperture macros list*
%AMRoundRect*
0 Rectangle with rounded corners*
0 $1 Rounding radius*
0 $2 $3 $4 $5 $6 $7 $8 $9 X,Y pos of 4 corners*
0 Add a 4 corners polygon primitive as box body*
4,1,4,$2,$3,$4,$5,$6,$7,$8,$9,$2,$3,0*
0 Add four circle primitives for the rounded corners*
1,1,$1+$1,$2,$3*
1,1,$1+$1,$4,$5*
1,1,$1+$1,$6,$7*
1,1,$1+$1,$8,$9*
0 Add four rect primitives between the rounded corners*
20,1,$1+$1,$2,$3,$4,$5,0*
20,1,$1+$1,$4,$5,$6,$7,0*
20,1,$1+$1,$6,$7,$8,$9,0*
20,1,$1+$1,$8,$9,$2,$3,0*%
G04 Aperture macros list end*
%TA.AperFunction,SMDPad,CuDef*%
%ADD10R,1.800000X0.800000*%
%TD*%
%TA.AperFunction,SMDPad,CuDef*%
%ADD11RoundRect,0.250000X-0.337500X-0.475000X0.337500X-0.475000X0.337500X0.475000X-0.337500X0.475000X0*%
%TD*%
%TA.AperFunction,SMDPad,CuDef*%
%ADD12RoundRect,0.150000X-0.587500X-0.150000X0.587500X-0.150000X0.587500X0.150000X-0.587500X0.150000X0*%
%TD*%
%TA.AperFunction,SMDPad,CuDef*%
%ADD13R,1.000000X1.000000*%
%TD*%
%TA.AperFunction,ComponentPad*%
%ADD14RoundRect,0.250000X-0.350000X-0.625000X0.350000X-0.625000X0.350000X0.625000X-0.350000X0.625000X0*%
%TD*%
%TA.AperFunction,ComponentPad*%
%ADD15O,1.200000X1.750000*%
%TD*%
%TA.AperFunction,SMDPad,CuDef*%
%ADD16RoundRect,0.250000X-0.350000X-0.450000X0.350000X-0.450000X0.350000X0.450000X-0.350000X0.450000X0*%
%TD*%
%TA.AperFunction,SMDPad,CuDef*%
%ADD17RoundRect,0.137500X-0.600000X-0.137500X0.600000X-0.137500X0.600000X0.137500X-0.600000X0.137500X0*%
%TD*%
%TA.AperFunction,SMDPad,CuDef*%
%ADD18RoundRect,0.137500X-0.137500X-0.600000X0.137500X-0.600000X0.137500X0.600000X-0.137500X0.600000X0*%
%TD*%
%TA.AperFunction,SMDPad,CuDef*%
%ADD19R,0.900000X1.700000*%
%TD*%
%TA.AperFunction,ComponentPad*%
%ADD20R,1.700000X1.700000*%
%TD*%
%TA.AperFunction,ComponentPad*%
%ADD21C,1.700000*%
%TD*%
%TA.AperFunction,SMDPad,CuDef*%
%ADD22RoundRect,0.250000X-0.325000X-0.450000X0.325000X-0.450000X0.325000X0.450000X-0.325000X0.450000X0*%
%TD*%
%TA.AperFunction,SMDPad,CuDef*%
%ADD23RoundRect,0.250000X0.375000X1.000000X-0.375000X1.000000X-0.375000X-1.000000X0.375000X-1.000000X0*%
%TD*%
%TA.AperFunction,SMDPad,CuDef*%
%ADD24RoundRect,0.250000X0.475000X-0.337500X0.475000X0.337500X-0.475000X0.337500X-0.475000X-0.337500X0*%
%TD*%
%TA.AperFunction,SMDPad,CuDef*%
%ADD25RoundRect,0.250000X0.450000X-0.350000X0.450000X0.350000X-0.450000X0.350000X-0.450000X-0.350000X0*%
%TD*%
%TA.AperFunction,ViaPad*%
%ADD26C,0.600000*%
%TD*%
%TA.AperFunction,Conductor*%
%ADD27C,0.200000*%
%TD*%
%TA.AperFunction,Conductor*%
%ADD28C,0.250000*%
%TD*%
%TA.AperFunction,Conductor*%
%ADD29C,0.300000*%
%TD*%
G04 APERTURE END LIST*
D10*
%TO.P,U3,1*%
%TO.N,GND*%
X123300000Y-102000000D03*
%TO.P,U3,2*%
X123300000Y-100730000D03*
%TO.P,U3,3*%
X123300000Y-99460000D03*
%TO.P,U3,4*%
X123300000Y-93890000D03*
%TO.P,U3,5*%
X123300000Y-92620000D03*
%TO.P,U3,6*%
%TO.N,N/C*%
X123300000Y-91350000D03*
%TO.P,U3,7*%
X123300000Y-90080000D03*
%TO.P,U3,8*%
X123300000Y-88810000D03*
%TO.P,U3,9*%
%TO.N,+3V3*%
X123300000Y-87540000D03*
%TO.P,U3,10*%
%TO.N,N/C*%
X123300000Y-86270000D03*
%TO.P,U3,11*%
%TO.N,GND*%
X123300000Y-85000000D03*
%TO.P,U3,12*%
X108700000Y-85000000D03*
%TO.P,U3,13*%
%TO.N,N/C*%
X108700000Y-86270000D03*
%TO.P,U3,14*%
X108700000Y-87540000D03*
%TO.P,U3,15*%
%TO.N,GDO0*%
X108700000Y-88810000D03*
%TO.P,U3,16*%
%TO.N,MISO*%
X108700000Y-90080000D03*
%TO.P,U3,17*%
%TO.N,MOSI*%
X108700000Y-91350000D03*
%TO.P,U3,18*%
%TO.N,SCK*%
X108700000Y-92620000D03*
%TO.P,U3,19*%
%TO.N,CS*%
X108700000Y-93890000D03*
%TO.P,U3,20*%
%TO.N,GND*%
X108700000Y-99460000D03*
%TO.P,U3,21*%
%TO.N,N/C*%
X108700000Y-100730000D03*
%TO.P,U3,22*%
%TO.N,GND*%
X108700000Y-102000000D03*
%TD*%
D11*
%TO.P,C3,1*%
%TO.N,+3V3*%
X120962500Y-69000000D03*
%TO.P,C3,2*%
%TO.N,GND*%
X123037500Y-69000000D03*
%TD*%
D12*
%TO.P,U1,1*%
%TO.N,GND*%
X139062500Y-63050000D03*
%TO.P,U1,2*%
%TO.N,VREG_OUT*%
X139062500Y-64950000D03*
%TO.P,U1,3*%
%TO.N,+5V*%
X140937500Y-64000000D03*
%TD*%
D11*
%TO.P,C1,1*%
%TO.N,VREG_OUT*%
X143962500Y-64000000D03*
%TO.P,C1,2*%
%TO.N,GND*%
X146037500Y-64000000D03*
%TD*%
D13*
%TO.P,TP1,1*%
%TO.N,RESET*%
X133000000Y-64000000D03*
%TD*%
%TO.P,TP8,1*%
%TO.N,CS*%
X105000000Y-133000000D03*
%TD*%
D14*
%TO.P,J5,1*%
%TO.N,GND*%
X186500000Y-63500000D03*
D15*
%TO.P,J5,2*%
%TO.N,PI_3V3*%
X188500000Y-63500000D03*
%TO.P,J5,3*%
%TO.N,I2C_SCL*%
X190500000Y-63500000D03*
%TO.P,J5,4*%
%TO.N,I2C_SDA*%
X192500000Y-63500000D03*
%TD*%
D13*
%TO.P,TP4,1*%
%TO.N,GND*%
X105000000Y-119000000D03*
%TD*%
D16*
%TO.P,R4,1*%
%TO.N,WS_WAHL*%
X163000000Y-72000000D03*
%TO.P,R4,2*%
%TO.N,WS_DATA*%
X165000000Y-72000000D03*
%TD*%
D14*
%TO.P,J7,1*%
%TO.N,PI_3V3*%
X187000000Y-76000000D03*
D15*
%TO.P,J7,2*%
%TO.N,WS_DATA*%
X189000000Y-76000000D03*
%TO.P,J7,3*%
%TO.N,GND*%
X191000000Y-76000000D03*
%TD*%
D16*
%TO.P,R2,1*%
%TO.N,+3V3*%
X127000000Y-69000000D03*
%TO.P,R2,2*%
%TO.N,RESET*%
X129000000Y-69000000D03*
%TD*%
D17*
%TO.P,U2,1*%
%TO.N,N/C*%
X107837500Y-67200000D03*
%TO.P,U2,2*%
%TO.N,LED_TREIBER*%
X107837500Y-68000000D03*
%TO.P,U2,3*%
%TO.N,GND*%
X107837500Y-68800000D03*
%TO.P,U2,4*%
%TO.N,+3V3*%
X107837500Y-69600000D03*
%TO.P,U2,5*%
%TO.N,GND*%
X107837500Y-70400000D03*
%TO.P,U2,6*%
%TO.N,+3V3*%
X107837500Y-71200000D03*
%TO.P,U2,7*%
%TO.N,XTAL1*%
X107837500Y-72000000D03*
%TO.P,U2,8*%
%TO.N,XTAL2*%
X107837500Y-72800000D03*
D18*
%TO.P,U2,9*%
%TO.N,N/C*%
X109200000Y-74162500D03*
%TO.P,U2,10*%
X110000000Y-74162500D03*
%TO.P,U2,11*%
X110800000Y-74162500D03*
%TO.P,U2,12*%
X111600000Y-74162500D03*
%TO.P,U2,13*%
X112400000Y-74162500D03*
%TO.P,U2,14*%
%TO.N,CS*%
X113200000Y-74162500D03*
%TO.P,U2,15*%
%TO.N,MOSI*%
X114000000Y-74162500D03*
%TO.P,U2,16*%
%TO.N,MISO*%
X114800000Y-74162500D03*
D17*
%TO.P,U2,17*%
%TO.N,SCK*%
X116162500Y-72800000D03*
%TO.P,U2,18*%
%TO.N,+3V3*%
X116162500Y-72000000D03*
%TO.P,U2,19*%
%TO.N,N/C*%
X116162500Y-71200000D03*
%TO.P,U2,20*%
%TO.N,AREF*%
X116162500Y-70400000D03*
%TO.P,U2,21*%
%TO.N,GND*%
X116162500Y-69600000D03*
%TO.P,U2,22*%
%TO.N,N/C*%
X116162500Y-68800000D03*
%TO.P,U2,23*%
X116162500Y-68000000D03*
%TO.P,U2,24*%
X116162500Y-67200000D03*
D18*
%TO.P,U2,25*%
X114800000Y-65837500D03*
%TO.P,U2,26*%
X114000000Y-65837500D03*
%TO.P,U2,27*%
X113200000Y-65837500D03*
%TO.P,U2,28*%
X112400000Y-65837500D03*
%TO.P,U2,29*%
%TO.N,RESET*%
X111600000Y-65837500D03*
%TO.P,U2,30*%
%TO.N,UART_PI_TX*%
X110800000Y-65837500D03*
%TO.P,U2,31*%
%TO.N,UART_328_TX*%
X110000000Y-65837500D03*
%TO.P,U2,32*%
%TO.N,GDO0*%
X109200000Y-65837500D03*
%TD*%
D19*
%TO.P,S1,1*%
%TO.N,RESET*%
X150300000Y-71000000D03*
%TO.P,S1,2*%
%TO.N,GND*%
X153700000Y-71000000D03*
%TD*%
D20*
%TO.P,J2,1*%
%TO.N,MISO*%
X125000000Y-116000000D03*
D21*
%TO.P,J2,2*%
%TO.N,+3V3*%
X127540000Y-116000000D03*
%TO.P,J2,3*%
%TO.N,SCK*%
X125000000Y-118540000D03*
%TO.P,J2,4*%
%TO.N,MOSI*%
X127540000Y-118540000D03*
%TO.P,J2,5*%
%TO.N,RESET*%
X125000000Y-121080000D03*
%TO.P,J2,6*%
%TO.N,GND*%
X127540000Y-121080000D03*
%TD*%
D14*
%TO.P,J6,1*%
%TO.N,BTN*%
X188000000Y-70000000D03*
D15*
%TO.P,J6,2*%
%TO.N,GND*%
X190000000Y-70000000D03*
%TD*%
D22*
%TO.P,D1,1*%
%TO.N,GND*%
X143975000Y-71000000D03*
%TO.P,D1,2*%
%TO.N,LED_ANODE*%
X146025000Y-71000000D03*
%TD*%
D13*
%TO.P,TP3,1*%
%TO.N,+5V*%
X105000000Y-115500000D03*
%TD*%
%TO.P,TP5,1*%
%TO.N,UART_328_TX*%
X105000000Y-122500000D03*
%TD*%
D11*
%TO.P,C4,1*%
%TO.N,+3V3*%
X120962500Y-73000000D03*
%TO.P,C4,2*%
%TO.N,GND*%
X123037500Y-73000000D03*
%TD*%
%TO.P,C9,1*%
%TO.N,AREF*%
X128462500Y-64000000D03*
%TO.P,C9,2*%
%TO.N,GND*%
X130537500Y-64000000D03*
%TD*%
%TO.P,C2,1*%
%TO.N,+3V3*%
X153962500Y-64000000D03*
%TO.P,C2,2*%
%TO.N,GND*%
X156037500Y-64000000D03*
%TD*%
D21*
%TO.P,Y1,1*%
%TO.N,XTAL1*%
X120000000Y-64000000D03*
%TO.P,Y1,2*%
%TO.N,GND*%
X122500000Y-64000000D03*
%TO.P,Y1,3*%
%TO.N,XTAL2*%
X125000000Y-64000000D03*
%TD*%
D22*
%TO.P,L1,1*%
%TO.N,VREG_OUT*%
X148975000Y-64000000D03*
%TO.P,L1,2*%
%TO.N,+3V3*%
X151025000Y-64000000D03*
%TD*%
D23*
%TO.P,SW1,1*%
%TO.N,LED_PWM*%
X166500000Y-67750000D03*
%TO.P,SW1,2*%
%TO.N,WS_WAHL*%
X164000000Y-67750000D03*
%TO.P,SW1,3*%
%TO.N,LED_SPI*%
X161500000Y-67750000D03*
%TD*%
D24*
%TO.P,C5,1*%
%TO.N,+3V3*%
X128000000Y-85037500D03*
%TO.P,C5,2*%
%TO.N,GND*%
X128000000Y-82962500D03*
%TD*%
D11*
%TO.P,C8,1*%
%TO.N,PI_RESET_DRV*%
X126962500Y-73000000D03*
%TO.P,C8,2*%
%TO.N,RESET*%
X129037500Y-73000000D03*
%TD*%
D13*
%TO.P,TP7,1*%
%TO.N,GDO0*%
X105000000Y-129500000D03*
%TD*%
D25*
%TO.P,R3,1*%
%TO.N,+3V3*%
X128000000Y-90000000D03*
%TO.P,R3,2*%
%TO.N,CS*%
X128000000Y-88000000D03*
%TD*%
D13*
%TO.P,TP6,1*%
%TO.N,UART_PI_TX*%
X105000000Y-126000000D03*
%TD*%
%TO.P,TP2,1*%
%TO.N,+3V3*%
X105000000Y-112000000D03*
%TD*%
D16*
%TO.P,R1,1*%
%TO.N,LED_TREIBER*%
X139000000Y-71000000D03*
%TO.P,R1,2*%
%TO.N,LED_ANODE*%
X141000000Y-71000000D03*
%TD*%
D20*
%TO.P,J1,1*%
%TO.N,PI_3V3*%
X140370000Y-84770000D03*
D21*
%TO.P,J1,2*%
%TO.N,+5V*%
X140370000Y-82230000D03*
%TO.P,J1,3*%
%TO.N,I2C_SDA*%
X142910000Y-84770000D03*
%TO.P,J1,4*%
%TO.N,+5V*%
X142910000Y-82230000D03*
%TO.P,J1,5*%
%TO.N,I2C_SCL*%
X145450000Y-84770000D03*
%TO.P,J1,6*%
%TO.N,GND*%
X145450000Y-82230000D03*
%TO.P,J1,7*%
%TO.N,PI_RESET_DRV*%
X147990000Y-84770000D03*
%TO.P,J1,8*%
%TO.N,UART_PI_TX*%
X147990000Y-82230000D03*
%TO.P,J1,9*%
%TO.N,GND*%
X150530000Y-84770000D03*
%TO.P,J1,10*%
%TO.N,UART_328_TX*%
X150530000Y-82230000D03*
%TO.P,J1,11*%
%TO.N,BTN*%
X153070000Y-84770000D03*
%TO.P,J1,12*%
%TO.N,LED_PWM*%
X153070000Y-82230000D03*
%TO.P,J1,13*%
%TO.N,N/C*%
X155610000Y-84770000D03*
%TO.P,J1,14*%
%TO.N,GND*%
X155610000Y-82230000D03*
%TO.P,J1,15*%
%TO.N,N/C*%
X158150000Y-84770000D03*
%TO.P,J1,16*%
X158150000Y-82230000D03*
%TO.P,J1,17*%
X160690000Y-84770000D03*
%TO.P,J1,18*%
X160690000Y-82230000D03*
%TO.P,J1,19*%
%TO.N,LED_SPI*%
X163230000Y-84770000D03*
%TO.P,J1,20*%
%TO.N,GND*%
X163230000Y-82230000D03*
%TO.P,J1,21*%
%TO.N,N/C*%
X165770000Y-84770000D03*
%TO.P,J1,22*%
X165770000Y-82230000D03*
%TO.P,J1,23*%
X168310000Y-84770000D03*
%TO.P,J1,24*%
X168310000Y-82230000D03*
%TO.P,J1,25*%
%TO.N,GND*%
X170850000Y-84770000D03*
%TO.P,J1,26*%
%TO.N,N/C*%
X170850000Y-82230000D03*
%TO.P,J1,27*%
X173390000Y-84770000D03*
%TO.P,J1,28*%
X173390000Y-82230000D03*
%TO.P,J1,29*%
X175930000Y-84770000D03*
%TO.P,J1,30*%
%TO.N,GND*%
X175930000Y-82230000D03*
%TO.P,J1,31*%
%TO.N,N/C*%
X178470000Y-84770000D03*
%TO.P,J1,32*%
X178470000Y-82230000D03*
%TO.P,J1,33*%
X181010000Y-84770000D03*
%TO.P,J1,34*%
%TO.N,GND*%
X181010000Y-82230000D03*
%TO.P,J1,35*%
%TO.N,N/C*%
X183550000Y-84770000D03*
%TO.P,J1,36*%
X183550000Y-82230000D03*
%TO.P,J1,37*%
X186090000Y-84770000D03*
%TO.P,J1,38*%
X186090000Y-82230000D03*
%TO.P,J1,39*%
%TO.N,GND*%
X188630000Y-84770000D03*
%TO.P,J1,40*%
%TO.N,N/C*%
X188630000Y-82230000D03*
%TD*%
D26*
%TO.N,+5V*%
X129207300Y-113886200D03*
%TO.N,LED_SPI*%
X162024900Y-69519500D03*
%TO.N,WS_DATA*%
X183521800Y-69507200D03*
%TO.N,GND*%
X130000000Y-126000000D03*
X144100000Y-62100000D03*
X130000000Y-132000000D03*
X106000000Y-132000000D03*
X112000000Y-99000000D03*
X115000000Y-105000000D03*
X103000000Y-120000000D03*
X193000000Y-81000000D03*
X196000000Y-66000000D03*
X196000000Y-63000000D03*
X127000000Y-123000000D03*
X103000000Y-132000000D03*
X124000000Y-75000000D03*
X175000000Y-72000000D03*
X172000000Y-78000000D03*
X175000000Y-66000000D03*
X115000000Y-120000000D03*
X154000000Y-72000000D03*
X112000000Y-129000000D03*
X175000000Y-87000000D03*
X157000000Y-69000000D03*
X110800000Y-70600000D03*
X118000000Y-81000000D03*
X103000000Y-96000000D03*
X110800000Y-83700000D03*
X106357000Y-70542300D03*
X193000000Y-87000000D03*
X187000000Y-87000000D03*
X109000000Y-114000000D03*
X112000000Y-96000000D03*
X196000000Y-87000000D03*
X103000000Y-117000000D03*
X103000000Y-114000000D03*
X118000000Y-132000000D03*
X115000000Y-99000000D03*
X130000000Y-96000000D03*
X103000000Y-99000000D03*
X124000000Y-132000000D03*
X112000000Y-114000000D03*
X181000000Y-66000000D03*
X148700000Y-65300000D03*
X157000000Y-63000000D03*
X130000000Y-123000000D03*
X115000000Y-129000000D03*
X156000000Y-64000000D03*
X103000000Y-123000000D03*
X196000000Y-72000000D03*
X115000000Y-111000000D03*
X175000000Y-75000000D03*
X196000000Y-81000000D03*
X118000000Y-84000000D03*
X127000000Y-105000000D03*
X172000000Y-66000000D03*
X178000000Y-87000000D03*
X109400000Y-84500000D03*
X118000000Y-87000000D03*
X103000000Y-108000000D03*
X108600000Y-99600000D03*
X112000000Y-84000000D03*
X103000000Y-78000000D03*
X133000000Y-132000000D03*
X107661000Y-103281000D03*
X109000000Y-123000000D03*
X103000000Y-126000000D03*
X104700000Y-118400000D03*
X103000000Y-87000000D03*
X115000000Y-114000000D03*
X107588000Y-83781200D03*
X181000000Y-63000000D03*
X124412000Y-83781200D03*
X112000000Y-105000000D03*
X109000000Y-96000000D03*
X103000000Y-81000000D03*
X163000000Y-66000000D03*
X157000000Y-66000000D03*
X187000000Y-66000000D03*
X193000000Y-75000000D03*
X103000000Y-93000000D03*
X169000000Y-66000000D03*
X175000000Y-63000000D03*
X115000000Y-126000000D03*
X112000000Y-108000000D03*
X190000000Y-87000000D03*
X121000000Y-120000000D03*
X124938000Y-94089700D03*
X190000000Y-84000000D03*
X103000000Y-105000000D03*
X133000000Y-129000000D03*
X166000000Y-63000000D03*
X107300000Y-74100000D03*
X181000000Y-87000000D03*
X130000000Y-117000000D03*
X154000000Y-69000000D03*
X118000000Y-129000000D03*
X193000000Y-78000000D03*
X121000000Y-129000000D03*
X115000000Y-69600000D03*
X124536000Y-100553000D03*
X112000000Y-126000000D03*
X178000000Y-66000000D03*
X105700000Y-68300000D03*
X127000000Y-102000000D03*
X127000000Y-126000000D03*
X115000000Y-123000000D03*
X118000000Y-126000000D03*
X160000000Y-69000000D03*
X118000000Y-120000000D03*
X121000000Y-90000000D03*
X109000000Y-120000000D03*
X184000000Y-87000000D03*
X127000000Y-99000000D03*
X184000000Y-63000000D03*
X184000000Y-66000000D03*
X160000000Y-66000000D03*
X112000000Y-111000000D03*
X166000000Y-87000000D03*
X118000000Y-123000000D03*
X103000000Y-102000000D03*
X105900000Y-72700000D03*
X160000000Y-63000000D03*
X147512000Y-64000000D03*
X109000000Y-111000000D03*
X163000000Y-63000000D03*
X121000000Y-126000000D03*
X130000000Y-108000000D03*
X138018000Y-61991200D03*
X103000000Y-84000000D03*
X172000000Y-72000000D03*
X124948000Y-92534200D03*
X169000000Y-63000000D03*
X130000000Y-129000000D03*
X136000000Y-129000000D03*
X172000000Y-87000000D03*
X121000000Y-87000000D03*
X127000000Y-129000000D03*
X106000000Y-66000000D03*
X112000000Y-123000000D03*
X110800000Y-84400000D03*
X103000000Y-63000000D03*
X130000000Y-111000000D03*
X142525000Y-71000000D03*
X169000000Y-87000000D03*
X112000000Y-102000000D03*
X118000000Y-78000000D03*
X124339000Y-103281000D03*
X130000000Y-105000000D03*
X109000000Y-129000000D03*
X196000000Y-84000000D03*
X112000000Y-132000000D03*
X136000000Y-87000000D03*
X190000000Y-66000000D03*
X124433000Y-101930000D03*
X178000000Y-75000000D03*
X109000000Y-99000000D03*
X117643000Y-69457700D03*
X125700000Y-71800000D03*
X130000000Y-102000000D03*
X112000000Y-87000000D03*
X124512000Y-73000000D03*
X154000000Y-66000000D03*
X127000000Y-96000000D03*
X103000000Y-90000000D03*
X124000000Y-123000000D03*
X121700000Y-74400000D03*
X130000000Y-120000000D03*
X128000000Y-81487500D03*
X157512000Y-64000000D03*
X109000000Y-126000000D03*
X130000000Y-93000000D03*
X115000000Y-102000000D03*
X178000000Y-72000000D03*
X115000000Y-96000000D03*
X128600000Y-62100000D03*
X107900000Y-74000000D03*
X127000000Y-93000000D03*
X139000000Y-87000000D03*
X103000000Y-75000000D03*
X112000000Y-120000000D03*
X105000000Y-119000000D03*
X121000000Y-132000000D03*
X172000000Y-63000000D03*
X130000000Y-99000000D03*
X124512000Y-69000000D03*
X124000000Y-129000000D03*
X124000000Y-126000000D03*
X105900000Y-73400000D03*
X121000000Y-123000000D03*
X109000000Y-132000000D03*
X103000000Y-129000000D03*
X106000000Y-63000000D03*
X140000000Y-62100000D03*
X130000000Y-84000000D03*
X109000000Y-105000000D03*
X130000000Y-90000000D03*
X172000000Y-75000000D03*
X178000000Y-78000000D03*
X110800000Y-71300000D03*
X109000000Y-84000000D03*
X196000000Y-69000000D03*
X163000000Y-87000000D03*
X103000000Y-111000000D03*
X108400000Y-83700000D03*
X178000000Y-63000000D03*
X115000000Y-132000000D03*
X175000000Y-78000000D03*
X155300000Y-71000000D03*
X109000000Y-102000000D03*
X106500000Y-67500000D03*
%TO.N,UART_PI_TX*%
X106614100Y-124983000D03*
X109335000Y-67239300D03*
%TO.N,UART_328_TX*%
X103932400Y-122500000D03*
X126833000Y-65191900D03*
X103932400Y-64586400D03*
%TO.N,RESET*%
X111600000Y-67101500D03*
X129037500Y-70651500D03*
%TO.N,MOSI*%
X118289900Y-91350000D03*
%TO.N,MISO*%
X117607000Y-90080000D03*
%TO.N,SCK*%
X116274200Y-92620000D03*
%TO.N,CS*%
X105909500Y-128536300D03*
X105909500Y-92913200D03*
%TO.N,GDO0*%
X110113500Y-88810000D03*
X108381800Y-65455100D03*
X107266700Y-128631000D03*
%TO.N,XTAL2*%
X114897900Y-72762200D03*
%TO.N,LED_TREIBER*%
X125643300Y-66360300D03*
X130313900Y-71030900D03*
%TD*%
D27*
%TO.N,+5V*%
X142910000Y-82230000D02*
X151100000Y-74040000D01*
X140370000Y-82230000D02*
X142910000Y-82230000D01*
X147448000Y-66399800D02*
X143337300Y-66399800D01*
X151100000Y-74040000D02*
X151100000Y-70051800D01*
X107503400Y-117201700D02*
X127977200Y-117201700D01*
X143337300Y-66399800D02*
X140937500Y-64000000D01*
X129207300Y-115971600D02*
X129207300Y-113886200D01*
X151100000Y-70051800D02*
X147448000Y-66399800D01*
X127977200Y-117201700D02*
X129207300Y-115971600D01*
X105801700Y-115500000D02*
X107503400Y-117201700D01*
X105000000Y-115500000D02*
X105801700Y-115500000D01*
%TO.N,PI_3V3*%
X143223100Y-86759300D02*
X160390200Y-86759300D01*
X141521700Y-84770000D02*
X141521700Y-85057900D01*
X141521700Y-85057900D02*
X143223100Y-86759300D01*
X162864700Y-83500000D02*
X181428400Y-83500000D01*
X161960000Y-84404700D02*
X162864700Y-83500000D01*
X161960000Y-85189500D02*
X161960000Y-84404700D01*
X182280000Y-82648400D02*
X182280000Y-80720000D01*
X140370000Y-84770000D02*
X141521700Y-84770000D01*
X181428400Y-83500000D02*
X182280000Y-82648400D01*
X182280000Y-80720000D02*
X187000000Y-76000000D01*
X160390200Y-86759300D02*
X161960000Y-85189500D01*
%TO.N,I2C_SDA*%
X160271600Y-83500000D02*
X159420000Y-84351600D01*
X192500000Y-63500000D02*
X192500000Y-69072000D01*
X189875600Y-71696400D02*
X189500500Y-71696400D01*
X161108400Y-83500000D02*
X160271600Y-83500000D01*
X189500500Y-71696400D02*
X180118600Y-81078300D01*
X180118600Y-81078300D02*
X162745800Y-81078300D01*
X159420000Y-85189500D02*
X158252900Y-86356600D01*
X161960000Y-81864100D02*
X161960000Y-82648400D01*
X162745800Y-81078300D02*
X161960000Y-81864100D01*
X161960000Y-82648400D02*
X161108400Y-83500000D01*
X159420000Y-84351600D02*
X159420000Y-85189500D01*
X158252900Y-86356600D02*
X144496600Y-86356600D01*
X144496600Y-86356600D02*
X142910000Y-84770000D01*
X192500000Y-69072000D02*
X189875600Y-71696400D01*
%TO.N,I2C_SCL*%
X189598300Y-63500000D02*
X189598300Y-64401700D01*
X156077000Y-85939000D02*
X146619000Y-85939000D01*
X190500000Y-63500000D02*
X189598300Y-63500000D01*
X159420000Y-81864000D02*
X159420000Y-82648400D01*
X186987300Y-72799400D02*
X168484600Y-72799400D01*
X189598300Y-64401700D02*
X189000500Y-64999500D01*
X156761700Y-84526500D02*
X156761700Y-85254300D01*
X168484600Y-72799400D02*
X159420000Y-81864000D01*
X158568400Y-83500000D02*
X157788200Y-83500000D01*
X159420000Y-82648400D02*
X158568400Y-83500000D01*
X189000500Y-70786200D02*
X186987300Y-72799400D01*
X156761700Y-85254300D02*
X156077000Y-85939000D01*
X157788200Y-83500000D02*
X156761700Y-84526500D01*
X189000500Y-64999500D02*
X189000500Y-70786200D01*
X146619000Y-85939000D02*
X145450000Y-84770000D01*
%TO.N,BTN*%
X187891100Y-70108900D02*
X188000000Y-70000000D01*
X156998300Y-82530100D02*
X156998300Y-81699600D01*
X156998300Y-81699600D02*
X168589000Y-70108900D01*
X153070000Y-84770000D02*
X154340000Y-83500000D01*
X154340000Y-83500000D02*
X156028400Y-83500000D01*
X168589000Y-70108900D02*
X187891100Y-70108900D01*
X156028400Y-83500000D02*
X156998300Y-82530100D01*
%TO.N,LED_PWM*%
X153070000Y-82230000D02*
X161441900Y-73858100D01*
X164000000Y-70250000D02*
X166500000Y-67750000D01*
X162736500Y-73858100D02*
X164000000Y-72594600D01*
X164000000Y-72594600D02*
X164000000Y-70250000D01*
X161441900Y-73858100D02*
X162736500Y-73858100D01*
%TO.N,LED_SPI*%
X161500000Y-68994600D02*
X162024900Y-69519500D01*
X161500000Y-67750000D02*
X161500000Y-68994600D01*
%TO.N,WS_WAHL*%
X163000000Y-68750000D02*
X163000000Y-72000000D01*
X164000000Y-67750000D02*
X163000000Y-68750000D01*
%TO.N,WS_DATA*%
X167492800Y-69507200D02*
X165000000Y-72000000D01*
X183521800Y-69507200D02*
X167492800Y-69507200D01*
%TO.N,VREG_OUT*%
X143322400Y-63359900D02*
X143962500Y-64000000D01*
X139062500Y-64487500D02*
X140190100Y-63359900D01*
X145052900Y-62909600D02*
X147884600Y-62909600D01*
X139062500Y-64950000D02*
X139062500Y-64487500D01*
X140190100Y-63359900D02*
X143322400Y-63359900D01*
X143962500Y-64000000D02*
X145052900Y-62909600D01*
X147884600Y-62909600D02*
X148975000Y-64000000D01*
%TO.N,+3V3*%
X131813000Y-63724000D02*
X131813000Y-64350900D01*
X151025000Y-64000000D02*
X148401200Y-61376200D01*
X119962500Y-72000000D02*
X120962500Y-73000000D01*
X119962500Y-70000000D02*
X120962500Y-69000000D01*
X128000000Y-87066300D02*
X128000000Y-85037500D01*
X128000000Y-87066300D02*
X124975400Y-87066300D01*
X128000000Y-107540000D02*
X123540000Y-112000000D01*
X126091400Y-67961600D02*
X122000900Y-67961600D01*
X123300000Y-87540000D02*
X124501700Y-87540000D01*
X106097300Y-71200000D02*
X105700100Y-70802800D01*
X107837500Y-71200000D02*
X109317300Y-71200000D01*
X123540000Y-112000000D02*
X105000000Y-112000000D01*
X116162500Y-72000000D02*
X119962500Y-72000000D01*
X124975400Y-87066300D02*
X124501700Y-87540000D01*
X105700100Y-70331100D02*
X106431200Y-69600000D01*
X151025000Y-64000000D02*
X153962500Y-64000000D01*
X127293700Y-68870200D02*
X127000000Y-68870200D01*
X123540000Y-112000000D02*
X127540000Y-116000000D01*
X122000900Y-67961600D02*
X120962500Y-69000000D01*
X134160800Y-61376200D02*
X131813000Y-63724000D01*
X127000000Y-68870200D02*
X126091400Y-67961600D01*
X109317300Y-71200000D02*
X110117300Y-72000000D01*
X128662100Y-87066300D02*
X128000000Y-87066300D01*
X107837500Y-71200000D02*
X106097300Y-71200000D01*
X148401200Y-61376200D02*
X134160800Y-61376200D01*
X129059200Y-88940800D02*
X129059200Y-87463400D01*
X119962500Y-72000000D02*
X119962500Y-70000000D01*
X131813000Y-64350900D02*
X127293700Y-68870200D01*
X128000000Y-90000000D02*
X129059200Y-88940800D01*
X110117300Y-72000000D02*
X116162500Y-72000000D01*
X128000000Y-90000000D02*
X128000000Y-107540000D01*
X105700100Y-70802800D02*
X105700100Y-70331100D01*
X129059200Y-87463400D02*
X128662100Y-87066300D01*
X106431200Y-69600000D02*
X107837500Y-69600000D01*
X120962500Y-78000000D02*
X128000000Y-85037500D01*
X127000000Y-69000000D02*
X127000000Y-68870200D01*
X120962500Y-73000000D02*
X120962500Y-78000000D01*
D28*
%TO.N,GND*%
X147200000Y-64900000D02*
X147900000Y-64900000D01*
D29*
X123300000Y-100730000D02*
X124433000Y-101930000D01*
D28*
X107900000Y-74000000D02*
X107400000Y-73500000D01*
X106700000Y-73400000D02*
X105900000Y-73400000D01*
X140000000Y-62200000D02*
X140000000Y-62100000D01*
D29*
X128000000Y-82962500D02*
X128000000Y-81487500D01*
X146038000Y-64000000D02*
X147512000Y-64000000D01*
D28*
X122500000Y-73600000D02*
X121700000Y-74400000D01*
D29*
X143975000Y-71000000D02*
X142525000Y-71000000D01*
X123038000Y-73000000D02*
X124512000Y-73000000D01*
X116162000Y-69600000D02*
X117643000Y-69457700D01*
X123300000Y-102000000D02*
X124339000Y-103281000D01*
X108700000Y-85000000D02*
X107588000Y-83781200D01*
X107838000Y-70400000D02*
X106357000Y-70542300D01*
D28*
X108500000Y-68900000D02*
X108900000Y-68900000D01*
X139900000Y-62400000D02*
X139900000Y-62300000D01*
X129800000Y-63300000D02*
X128600000Y-62100000D01*
X107300000Y-74100000D02*
X105900000Y-72700000D01*
X139800000Y-62600000D02*
X139800000Y-62500000D01*
X123500000Y-69600000D02*
X125700000Y-71800000D01*
X110600000Y-70900000D02*
X110600000Y-71100000D01*
X110800000Y-83700000D02*
X108400000Y-83700000D01*
D29*
X123038000Y-69000000D02*
X124512000Y-69000000D01*
D28*
X110800000Y-84400000D02*
X109500000Y-84400000D01*
X109000000Y-69000000D02*
X109000000Y-69200000D01*
X148600000Y-65200000D02*
X148700000Y-65300000D01*
X104700000Y-118600000D02*
X104700000Y-118400000D01*
D29*
X156038000Y-64000000D02*
X157512000Y-64000000D01*
D28*
X109100000Y-69300000D02*
X110600000Y-70800000D01*
X148000000Y-65000000D02*
X148100000Y-65099999D01*
X146500000Y-64599999D02*
X146800000Y-64599999D01*
X115500000Y-69600000D02*
X115000000Y-69600000D01*
D29*
X123300000Y-85000000D02*
X124412000Y-83781200D01*
D28*
X107300000Y-73500000D02*
X106800000Y-73500000D01*
D29*
X139062000Y-63050000D02*
X138018000Y-61991200D01*
D28*
X139700000Y-62800000D02*
X139700000Y-62700000D01*
X148200000Y-65099999D02*
X148500000Y-65099999D01*
X110700000Y-71200000D02*
X110800000Y-71300000D01*
X130000000Y-63400000D02*
X129900000Y-63400000D01*
D29*
X153700000Y-71000000D02*
X155300000Y-71000000D01*
X108700000Y-102000000D02*
X107661000Y-103281000D01*
X123300000Y-92620000D02*
X124948000Y-92534200D01*
D28*
X146900000Y-64700000D02*
X147100000Y-64900000D01*
D29*
X123300000Y-93890000D02*
X124938000Y-94089700D01*
X123300000Y-99460000D02*
X124536000Y-100553000D01*
D28*
X108500000Y-70500000D02*
X110700000Y-70500000D01*
D27*
%TO.N,UART_PI_TX*%
X109993600Y-67239300D02*
X109335000Y-67239300D01*
X110800000Y-65837500D02*
X110800000Y-66432900D01*
X105000000Y-125198300D02*
X105215300Y-124983000D01*
X105215300Y-124983000D02*
X106614100Y-124983000D01*
X110800000Y-66432900D02*
X109993600Y-67239300D01*
X105000000Y-126000000D02*
X105000000Y-125198300D01*
%TO.N,UART_328_TX*%
X115513800Y-65191900D02*
X126833000Y-65191900D01*
X110000000Y-64784800D02*
X115106700Y-64784800D01*
X109801600Y-64586400D02*
X103932400Y-64586400D01*
X105000000Y-122500000D02*
X104198300Y-122500000D01*
X115106700Y-64784800D02*
X115513800Y-65191900D01*
X104198300Y-122500000D02*
X103932400Y-122500000D01*
X110000000Y-64784800D02*
X109801600Y-64586400D01*
X110000000Y-65837500D02*
X110000000Y-64784800D01*
%TO.N,PI_RESET_DRV*%
X130808300Y-74716600D02*
X139651700Y-83560000D01*
X128679100Y-74716600D02*
X130808300Y-74716600D01*
X139651700Y-83560000D02*
X146780000Y-83560000D01*
X146780000Y-83560000D02*
X147990000Y-84770000D01*
X126962500Y-73000000D02*
X128679100Y-74716600D01*
%TO.N,RESET*%
X150300000Y-71000000D02*
X149548300Y-71000000D01*
X149548300Y-71000000D02*
X148507100Y-69958800D01*
X129037500Y-70651500D02*
X129037500Y-73000000D01*
X111600000Y-67101500D02*
X111600000Y-65837500D01*
X129000000Y-68801700D02*
X133000000Y-64801700D01*
X148507100Y-69958800D02*
X129730200Y-69958800D01*
X129000000Y-69000000D02*
X129000000Y-68801700D01*
X133000000Y-64000000D02*
X133000000Y-64801700D01*
X129037500Y-69037500D02*
X129037500Y-70651500D01*
X129000000Y-69000000D02*
X129037500Y-69037500D01*
X129730200Y-69958800D02*
X129037500Y-70651500D01*
%TO.N,MOSI*%
X106973700Y-90825400D02*
X106973700Y-82930100D01*
X114000000Y-75903800D02*
X114000000Y-74162500D01*
X107498300Y-91350000D02*
X106973700Y-90825400D01*
X108700000Y-91350000D02*
X107498300Y-91350000D01*
X106973700Y-82930100D02*
X114000000Y-75903800D01*
X108700000Y-91350000D02*
X118289900Y-91350000D01*
%TO.N,MISO*%
X108700000Y-90080000D02*
X114800000Y-90080000D01*
X114800000Y-74162500D02*
X114800000Y-90080000D01*
X114800000Y-90080000D02*
X117607000Y-90080000D01*
%TO.N,SCK*%
X118928800Y-75566300D02*
X116162500Y-72800000D01*
X117875500Y-92620000D02*
X118928800Y-91566700D01*
X118928800Y-91566700D02*
X118928800Y-75566300D01*
X116274200Y-92620000D02*
X117875500Y-92620000D01*
X108700000Y-92620000D02*
X116274200Y-92620000D01*
%TO.N,CS*%
X104519100Y-128536300D02*
X105909500Y-128536300D01*
X106521500Y-81458300D02*
X106521500Y-92913200D01*
X106521500Y-92913200D02*
X107498300Y-93890000D01*
X113200000Y-74162500D02*
X113200000Y-74779800D01*
X105000000Y-133000000D02*
X105000000Y-132198300D01*
X105909500Y-92913200D02*
X106521500Y-92913200D01*
X110725800Y-94714100D02*
X109901700Y-93890000D01*
X105000000Y-132198300D02*
X104198300Y-131396600D01*
X128000000Y-88000000D02*
X125964200Y-90035800D01*
X125964200Y-90035800D02*
X125964200Y-93953800D01*
X125964200Y-93953800D02*
X125203900Y-94714100D01*
X104198300Y-131396600D02*
X104198300Y-128857100D01*
X108700000Y-93890000D02*
X109901700Y-93890000D01*
X125203900Y-94714100D02*
X110725800Y-94714100D01*
X108700000Y-93890000D02*
X107498300Y-93890000D01*
X113200000Y-74779800D02*
X106521500Y-81458300D01*
X104198300Y-128857100D02*
X104519100Y-128536300D01*
%TO.N,GDO0*%
X108700000Y-88810000D02*
X110113500Y-88810000D01*
X106670700Y-128631000D02*
X107266700Y-128631000D01*
X105801700Y-129500000D02*
X106670700Y-128631000D01*
X108817600Y-65455100D02*
X108381800Y-65455100D01*
X105000000Y-129500000D02*
X105801700Y-129500000D01*
X109200000Y-65837500D02*
X108817600Y-65455100D01*
%TO.N,XTAL1*%
X120000000Y-64000000D02*
X119962900Y-63962900D01*
X103324800Y-68995700D02*
X106329100Y-72000000D01*
X106329100Y-72000000D02*
X107837500Y-72000000D01*
X103324800Y-64319300D02*
X103324800Y-68995700D01*
X103681200Y-63962900D02*
X103324800Y-64319300D01*
X119962900Y-63962900D02*
X103681200Y-63962900D01*
%TO.N,XTAL2*%
X107837500Y-72800000D02*
X107875300Y-72762200D01*
X107875300Y-72762200D02*
X114897900Y-72762200D01*
%TO.N,AREF*%
X117909300Y-70400000D02*
X121261800Y-67047500D01*
X121261800Y-67047500D02*
X125837200Y-67047500D01*
X128462500Y-64422200D02*
X128462500Y-64000000D01*
X116162500Y-70400000D02*
X117909300Y-70400000D01*
X125837200Y-67047500D02*
X128462500Y-64422200D01*
%TO.N,LED_TREIBER*%
X115636600Y-66360300D02*
X125643300Y-66360300D01*
X113996900Y-68000000D02*
X115636600Y-66360300D01*
X138969100Y-71030900D02*
X130313900Y-71030900D01*
X139000000Y-71000000D02*
X138969100Y-71030900D01*
X107837500Y-68000000D02*
X113996900Y-68000000D01*
%TO.N,LED_ANODE*%
X146025000Y-71000000D02*
X144987000Y-72038000D01*
X142038000Y-72038000D02*
X141000000Y-71000000D01*
X144987000Y-72038000D02*
X142038000Y-72038000D01*
%TD*%
M02*
