M48
; DRILL file {KiCad 9.0.2+dfsg-1} date 2026-07-31T08:34:00+0200
; FORMAT={-:-/ absolute / metric / decimal}
; #@! TF.CreationDate,2026-07-31T08:34:00+02:00
; #@! TF.GenerationSoftware,Kicad,Pcbnew,9.0.2+dfsg-1
; #@! TF.FileFunction,Plated,1,4,PTH
FMAT,2
METRIC
; #@! TA.AperFunction,Plated,PTH,ViaDrill
T1C0.300
; #@! TA.AperFunction,Plated,PTH,ComponentDrill
T2C0.750
; #@! TA.AperFunction,Plated,PTH,ComponentDrill
T3C1.000
%
G90
G05
T1
X103.0Y-63.0
X103.0Y-66.0
X103.0Y-69.0
X103.0Y-72.0
X103.0Y-75.0
X103.0Y-78.0
X103.0Y-81.0
X103.0Y-84.0
X103.0Y-87.0
X103.0Y-90.0
X103.0Y-93.0
X103.0Y-96.0
X103.0Y-99.0
X103.0Y-102.0
X103.0Y-105.0
X103.0Y-108.0
X103.0Y-111.0
X103.0Y-114.0
X103.0Y-117.0
X103.0Y-120.0
X103.0Y-123.0
X103.0Y-126.0
X103.0Y-129.0
X103.0Y-132.0
X103.936Y-93.667
X103.936Y-131.987
X104.54Y-124.747
X105.0Y-119.0
X105.1Y-119.6
X105.802Y-121.498
X106.0Y-132.0
X106.357Y-70.542
X106.477Y-124.991
X106.5Y-69.4
X106.7Y-68.8
X107.588Y-83.781
X107.661Y-103.281
X107.961Y-76.41
X108.6Y-99.6
X109.0Y-96.0
X109.0Y-99.0
X109.0Y-102.0
X109.0Y-105.0
X109.0Y-111.0
X109.0Y-114.0
X109.0Y-117.0
X109.0Y-120.0
X109.0Y-123.0
X109.0Y-126.0
X109.0Y-129.0
X109.0Y-132.0
X109.2Y-67.097
X109.902Y-84.159
X110.522Y-67.092
X111.365Y-67.1
X112.0Y-120.0
X112.0Y-123.0
X112.0Y-126.0
X112.0Y-129.0
X112.0Y-132.0
X112.209Y-92.62
X112.829Y-87.152
X113.445Y-91.35
X114.905Y-68.0
X115.0Y-69.6
X115.0Y-120.0
X115.0Y-123.0
X115.0Y-126.0
X115.0Y-129.0
X115.0Y-132.0
X117.643Y-69.458
X118.0Y-75.0
X118.0Y-78.0
X118.0Y-81.0
X118.0Y-120.0
X118.0Y-123.0
X118.0Y-126.0
X118.0Y-129.0
X118.0Y-132.0
X121.0Y-120.0
X121.0Y-123.0
X121.0Y-126.0
X121.0Y-129.0
X121.0Y-132.0
X122.9Y-73.1
X123.0Y-69.0
X124.0Y-75.0
X124.0Y-123.0
X124.0Y-126.0
X124.0Y-129.0
X124.0Y-132.0
X124.339Y-103.281
X124.412Y-83.781
X124.433Y-101.93
X124.512Y-69.0
X124.512Y-73.0
X124.536Y-100.553
X124.938Y-94.09
X124.948Y-92.534
X127.0Y-123.0
X127.0Y-126.0
X127.0Y-129.0
X127.54Y-91.122
X128.0Y-81.487
X129.398Y-71.0
X130.0Y-78.0
X130.0Y-81.0
X130.0Y-84.0
X130.0Y-111.0
X130.0Y-114.0
X130.0Y-123.0
X130.0Y-126.0
X130.0Y-129.0
X130.0Y-132.0
X130.3Y-63.8
X131.057Y-67.083
X131.057Y-69.0
X131.069Y-73.31
X133.0Y-69.0
X133.0Y-78.0
X133.0Y-81.0
X133.0Y-84.0
X133.0Y-129.0
X133.0Y-132.0
X136.0Y-63.0
X136.0Y-87.0
X136.0Y-129.0
X138.018Y-61.991
X138.8Y-62.7
X139.0Y-87.0
X140.938Y-64.855
X142.525Y-71.0
X146.0Y-64.0
X147.512Y-64.0
X154.0Y-66.0
X154.0Y-69.0
X154.0Y-72.0
X155.3Y-71.0
X156.0Y-64.0
X157.0Y-63.0
X157.0Y-66.0
X157.0Y-69.0
X157.512Y-64.0
X160.0Y-63.0
X160.0Y-66.0
X160.0Y-69.0
X162.025Y-69.519
X163.0Y-63.0
X163.0Y-66.0
X163.0Y-87.0
X166.0Y-63.0
X166.0Y-87.0
X169.0Y-63.0
X169.0Y-66.0
X169.0Y-87.0
X172.0Y-63.0
X172.0Y-66.0
X172.0Y-72.0
X172.0Y-75.0
X172.0Y-78.0
X172.0Y-87.0
X175.0Y-63.0
X175.0Y-66.0
X175.0Y-72.0
X175.0Y-75.0
X175.0Y-78.0
X175.0Y-81.0
X175.0Y-87.0
X178.0Y-63.0
X178.0Y-66.0
X178.0Y-72.0
X178.0Y-75.0
X178.0Y-78.0
X178.0Y-87.0
X181.0Y-63.0
X181.0Y-66.0
X181.0Y-72.0
X181.0Y-75.0
X181.0Y-78.0
X181.0Y-81.0
X181.0Y-87.0
X183.522Y-69.507
X184.0Y-63.0
X184.0Y-66.0
X184.0Y-75.0
X184.0Y-78.0
X184.0Y-87.0
X187.0Y-66.0
X187.0Y-78.0
X187.0Y-87.0
X190.0Y-66.0
X190.0Y-78.0
X190.0Y-81.0
X190.0Y-84.0
X190.0Y-87.0
X193.0Y-75.0
X193.0Y-78.0
X193.0Y-81.0
X193.0Y-87.0
X196.0Y-63.0
X196.0Y-66.0
X196.0Y-69.0
X196.0Y-72.0
X196.0Y-81.0
X196.0Y-84.0
X196.0Y-87.0
T2
X186.5Y-63.5
X187.0Y-76.0
X188.0Y-70.0
X188.5Y-63.5
X189.0Y-76.0
X190.0Y-70.0
X190.5Y-63.5
X191.0Y-76.0
X192.5Y-63.5
T3
X120.0Y-64.0
X122.5Y-64.0
X125.0Y-64.0
X125.0Y-116.0
X125.0Y-118.54
X125.0Y-121.08
X127.54Y-116.0
X127.54Y-118.54
X127.54Y-121.08
X140.37Y-82.23
X140.37Y-84.77
X142.91Y-82.23
X142.91Y-84.77
X145.45Y-82.23
X145.45Y-84.77
X147.99Y-82.23
X147.99Y-84.77
X150.53Y-82.23
X150.53Y-84.77
X153.07Y-82.23
X153.07Y-84.77
X155.61Y-82.23
X155.61Y-84.77
X158.15Y-82.23
X158.15Y-84.77
X160.69Y-82.23
X160.69Y-84.77
X163.23Y-82.23
X163.23Y-84.77
X165.77Y-82.23
X165.77Y-84.77
X168.31Y-82.23
X168.31Y-84.77
X170.85Y-82.23
X170.85Y-84.77
X173.39Y-82.23
X173.39Y-84.77
X175.93Y-82.23
X175.93Y-84.77
X178.47Y-82.23
X178.47Y-84.77
X181.01Y-82.23
X181.01Y-84.77
X183.55Y-82.23
X183.55Y-84.77
X186.09Y-82.23
X186.09Y-84.77
X188.63Y-82.23
X188.63Y-84.77
M30
