%TF.GenerationSoftware,KiCad,Pcbnew,9.0.2+dfsg-1*%
%TF.CreationDate,2026-07-30T22:14:42+02:00*%
%TF.ProjectId,AskSin-Analyzer-V3,41736b53-696e-42d4-916e-616c797a6572,rev?*%
%TF.SameCoordinates,Original*%
%TF.FileFunction,Legend,Bot*%
%TF.FilePolarity,Positive*%
%FSLAX46Y46*%
G04 Gerber Fmt 4.6, Leading zero omitted, Abs format (unit mm)*
G04 Created by KiCad (PCBNEW 9.0.2+dfsg-1) date 2026-07-30 22:14:42*
%MOMM*%
%LPD*%
G01*
G04 APERTURE LIST*
%ADD10C,0.150000*%
%ADD11C,0.120000*%
G04 APERTURE END LIST*
D10*
X130976191Y-64892914D02*
X131071430Y-64845295D01*
X131071430Y-64845295D02*
X131261906Y-64845295D01*
X131261906Y-64845295D02*
X131357144Y-64892914D01*
X131357144Y-64892914D02*
X131452382Y-64988152D01*
X131452382Y-64988152D02*
X131500001Y-65083390D01*
X131500001Y-65083390D02*
X131500001Y-65273866D01*
X131500001Y-65273866D02*
X131452382Y-65369104D01*
X131452382Y-65369104D02*
X131357144Y-65464342D01*
X131357144Y-65464342D02*
X131261906Y-65511961D01*
X131261906Y-65511961D02*
X131071430Y-65511961D01*
X131071430Y-65511961D02*
X130976191Y-65464342D01*
X131166668Y-64511961D02*
X131404763Y-64559580D01*
X131404763Y-64559580D02*
X131642858Y-64702438D01*
X131642858Y-64702438D02*
X131785715Y-64940533D01*
X131785715Y-64940533D02*
X131833334Y-65178628D01*
X131833334Y-65178628D02*
X131785715Y-65416723D01*
X131785715Y-65416723D02*
X131642858Y-65654819D01*
X131642858Y-65654819D02*
X131404763Y-65797676D01*
X131404763Y-65797676D02*
X131166668Y-65845295D01*
X131166668Y-65845295D02*
X130928572Y-65797676D01*
X130928572Y-65797676D02*
X130690477Y-65654819D01*
X130690477Y-65654819D02*
X130547620Y-65416723D01*
X130547620Y-65416723D02*
X130500001Y-65178628D01*
X130500001Y-65178628D02*
X130547620Y-64940533D01*
X130547620Y-64940533D02*
X130690477Y-64702438D01*
X130690477Y-64702438D02*
X130928572Y-64559580D01*
X130928572Y-64559580D02*
X131166668Y-64511961D01*
X129357143Y-64750057D02*
X129309524Y-64702438D01*
X129309524Y-64702438D02*
X129214286Y-64654819D01*
X129214286Y-64654819D02*
X128976191Y-64654819D01*
X128976191Y-64654819D02*
X128880953Y-64702438D01*
X128880953Y-64702438D02*
X128833334Y-64750057D01*
X128833334Y-64750057D02*
X128785715Y-64845295D01*
X128785715Y-64845295D02*
X128785715Y-64940533D01*
X128785715Y-64940533D02*
X128833334Y-65083390D01*
X128833334Y-65083390D02*
X129404762Y-65654819D01*
X129404762Y-65654819D02*
X128785715Y-65654819D01*
X128166667Y-64654819D02*
X128071429Y-64654819D01*
X128071429Y-64654819D02*
X127976191Y-64702438D01*
X127976191Y-64702438D02*
X127928572Y-64750057D01*
X127928572Y-64750057D02*
X127880953Y-64845295D01*
X127880953Y-64845295D02*
X127833334Y-65035771D01*
X127833334Y-65035771D02*
X127833334Y-65273866D01*
X127833334Y-65273866D02*
X127880953Y-65464342D01*
X127880953Y-65464342D02*
X127928572Y-65559580D01*
X127928572Y-65559580D02*
X127976191Y-65607200D01*
X127976191Y-65607200D02*
X128071429Y-65654819D01*
X128071429Y-65654819D02*
X128166667Y-65654819D01*
X128166667Y-65654819D02*
X128261905Y-65607200D01*
X128261905Y-65607200D02*
X128309524Y-65559580D01*
X128309524Y-65559580D02*
X128357143Y-65464342D01*
X128357143Y-65464342D02*
X128404762Y-65273866D01*
X128404762Y-65273866D02*
X128404762Y-65035771D01*
X128404762Y-65035771D02*
X128357143Y-64845295D01*
X128357143Y-64845295D02*
X128309524Y-64750057D01*
X128309524Y-64750057D02*
X128261905Y-64702438D01*
X128261905Y-64702438D02*
X128166667Y-64654819D01*
X127452381Y-64750057D02*
X127404762Y-64702438D01*
X127404762Y-64702438D02*
X127309524Y-64654819D01*
X127309524Y-64654819D02*
X127071429Y-64654819D01*
X127071429Y-64654819D02*
X126976191Y-64702438D01*
X126976191Y-64702438D02*
X126928572Y-64750057D01*
X126928572Y-64750057D02*
X126880953Y-64845295D01*
X126880953Y-64845295D02*
X126880953Y-64940533D01*
X126880953Y-64940533D02*
X126928572Y-65083390D01*
X126928572Y-65083390D02*
X127500000Y-65654819D01*
X127500000Y-65654819D02*
X126880953Y-65654819D01*
X126023810Y-64654819D02*
X126214286Y-64654819D01*
X126214286Y-64654819D02*
X126309524Y-64702438D01*
X126309524Y-64702438D02*
X126357143Y-64750057D01*
X126357143Y-64750057D02*
X126452381Y-64892914D01*
X126452381Y-64892914D02*
X126500000Y-65083390D01*
X126500000Y-65083390D02*
X126500000Y-65464342D01*
X126500000Y-65464342D02*
X126452381Y-65559580D01*
X126452381Y-65559580D02*
X126404762Y-65607200D01*
X126404762Y-65607200D02*
X126309524Y-65654819D01*
X126309524Y-65654819D02*
X126119048Y-65654819D01*
X126119048Y-65654819D02*
X126023810Y-65607200D01*
X126023810Y-65607200D02*
X125976191Y-65559580D01*
X125976191Y-65559580D02*
X125928572Y-65464342D01*
X125928572Y-65464342D02*
X125928572Y-65226247D01*
X125928572Y-65226247D02*
X125976191Y-65131009D01*
X125976191Y-65131009D02*
X126023810Y-65083390D01*
X126023810Y-65083390D02*
X126119048Y-65035771D01*
X126119048Y-65035771D02*
X126309524Y-65035771D01*
X126309524Y-65035771D02*
X126404762Y-65083390D01*
X126404762Y-65083390D02*
X126452381Y-65131009D01*
X126452381Y-65131009D02*
X126500000Y-65226247D01*
X124785714Y-65607200D02*
X124642857Y-65654819D01*
X124642857Y-65654819D02*
X124404762Y-65654819D01*
X124404762Y-65654819D02*
X124309524Y-65607200D01*
X124309524Y-65607200D02*
X124261905Y-65559580D01*
X124261905Y-65559580D02*
X124214286Y-65464342D01*
X124214286Y-65464342D02*
X124214286Y-65369104D01*
X124214286Y-65369104D02*
X124261905Y-65273866D01*
X124261905Y-65273866D02*
X124309524Y-65226247D01*
X124309524Y-65226247D02*
X124404762Y-65178628D01*
X124404762Y-65178628D02*
X124595238Y-65131009D01*
X124595238Y-65131009D02*
X124690476Y-65083390D01*
X124690476Y-65083390D02*
X124738095Y-65035771D01*
X124738095Y-65035771D02*
X124785714Y-64940533D01*
X124785714Y-64940533D02*
X124785714Y-64845295D01*
X124785714Y-64845295D02*
X124738095Y-64750057D01*
X124738095Y-64750057D02*
X124690476Y-64702438D01*
X124690476Y-64702438D02*
X124595238Y-64654819D01*
X124595238Y-64654819D02*
X124357143Y-64654819D01*
X124357143Y-64654819D02*
X124214286Y-64702438D01*
X123785714Y-65559580D02*
X123738095Y-65607200D01*
X123738095Y-65607200D02*
X123785714Y-65654819D01*
X123785714Y-65654819D02*
X123833333Y-65607200D01*
X123833333Y-65607200D02*
X123785714Y-65559580D01*
X123785714Y-65559580D02*
X123785714Y-65654819D01*
X122595238Y-65607200D02*
X122452381Y-65654819D01*
X122452381Y-65654819D02*
X122214286Y-65654819D01*
X122214286Y-65654819D02*
X122119048Y-65607200D01*
X122119048Y-65607200D02*
X122071429Y-65559580D01*
X122071429Y-65559580D02*
X122023810Y-65464342D01*
X122023810Y-65464342D02*
X122023810Y-65369104D01*
X122023810Y-65369104D02*
X122071429Y-65273866D01*
X122071429Y-65273866D02*
X122119048Y-65226247D01*
X122119048Y-65226247D02*
X122214286Y-65178628D01*
X122214286Y-65178628D02*
X122404762Y-65131009D01*
X122404762Y-65131009D02*
X122500000Y-65083390D01*
X122500000Y-65083390D02*
X122547619Y-65035771D01*
X122547619Y-65035771D02*
X122595238Y-64940533D01*
X122595238Y-64940533D02*
X122595238Y-64845295D01*
X122595238Y-64845295D02*
X122547619Y-64750057D01*
X122547619Y-64750057D02*
X122500000Y-64702438D01*
X122500000Y-64702438D02*
X122404762Y-64654819D01*
X122404762Y-64654819D02*
X122166667Y-64654819D01*
X122166667Y-64654819D02*
X122023810Y-64702438D01*
X121738095Y-64988152D02*
X121357143Y-64988152D01*
X121595238Y-64654819D02*
X121595238Y-65511961D01*
X121595238Y-65511961D02*
X121547619Y-65607200D01*
X121547619Y-65607200D02*
X121452381Y-65654819D01*
X121452381Y-65654819D02*
X121357143Y-65654819D01*
X120642857Y-65607200D02*
X120738095Y-65654819D01*
X120738095Y-65654819D02*
X120928571Y-65654819D01*
X120928571Y-65654819D02*
X121023809Y-65607200D01*
X121023809Y-65607200D02*
X121071428Y-65511961D01*
X121071428Y-65511961D02*
X121071428Y-65131009D01*
X121071428Y-65131009D02*
X121023809Y-65035771D01*
X121023809Y-65035771D02*
X120928571Y-64988152D01*
X120928571Y-64988152D02*
X120738095Y-64988152D01*
X120738095Y-64988152D02*
X120642857Y-65035771D01*
X120642857Y-65035771D02*
X120595238Y-65131009D01*
X120595238Y-65131009D02*
X120595238Y-65226247D01*
X120595238Y-65226247D02*
X121071428Y-65321485D01*
X120166666Y-65654819D02*
X120166666Y-64988152D01*
X120166666Y-65178628D02*
X120119047Y-65083390D01*
X120119047Y-65083390D02*
X120071428Y-65035771D01*
X120071428Y-65035771D02*
X119976190Y-64988152D01*
X119976190Y-64988152D02*
X119880952Y-64988152D01*
X119547618Y-64988152D02*
X119547618Y-65654819D01*
X119547618Y-65083390D02*
X119499999Y-65035771D01*
X119499999Y-65035771D02*
X119404761Y-64988152D01*
X119404761Y-64988152D02*
X119261904Y-64988152D01*
X119261904Y-64988152D02*
X119166666Y-65035771D01*
X119166666Y-65035771D02*
X119119047Y-65131009D01*
X119119047Y-65131009D02*
X119119047Y-65654819D01*
X118642856Y-65654819D02*
X118642856Y-64988152D01*
X118642856Y-64654819D02*
X118690475Y-64702438D01*
X118690475Y-64702438D02*
X118642856Y-64750057D01*
X118642856Y-64750057D02*
X118595237Y-64702438D01*
X118595237Y-64702438D02*
X118642856Y-64654819D01*
X118642856Y-64654819D02*
X118642856Y-64750057D01*
X118309523Y-64988152D02*
X117928571Y-64988152D01*
X118166666Y-64654819D02*
X118166666Y-65511961D01*
X118166666Y-65511961D02*
X118119047Y-65607200D01*
X118119047Y-65607200D02*
X118023809Y-65654819D01*
X118023809Y-65654819D02*
X117928571Y-65654819D01*
X117690475Y-64988152D02*
X117166666Y-64988152D01*
X117166666Y-64988152D02*
X117690475Y-65654819D01*
X117690475Y-65654819D02*
X117166666Y-65654819D01*
X116785713Y-65654819D02*
X116785713Y-64654819D01*
X116690475Y-65273866D02*
X116404761Y-65654819D01*
X116404761Y-64988152D02*
X116785713Y-65369104D01*
X115595237Y-65607200D02*
X115690475Y-65654819D01*
X115690475Y-65654819D02*
X115880951Y-65654819D01*
X115880951Y-65654819D02*
X115976189Y-65607200D01*
X115976189Y-65607200D02*
X116023808Y-65511961D01*
X116023808Y-65511961D02*
X116023808Y-65131009D01*
X116023808Y-65131009D02*
X115976189Y-65035771D01*
X115976189Y-65035771D02*
X115880951Y-64988152D01*
X115880951Y-64988152D02*
X115690475Y-64988152D01*
X115690475Y-64988152D02*
X115595237Y-65035771D01*
X115595237Y-65035771D02*
X115547618Y-65131009D01*
X115547618Y-65131009D02*
X115547618Y-65226247D01*
X115547618Y-65226247D02*
X116023808Y-65321485D01*
X114214284Y-65226247D02*
X114261903Y-65273866D01*
X114261903Y-65273866D02*
X114214284Y-65321485D01*
X114214284Y-65321485D02*
X114166665Y-65273866D01*
X114166665Y-65273866D02*
X114214284Y-65226247D01*
X114214284Y-65226247D02*
X114214284Y-65321485D01*
X112261903Y-65559580D02*
X112309522Y-65607200D01*
X112309522Y-65607200D02*
X112452379Y-65654819D01*
X112452379Y-65654819D02*
X112547617Y-65654819D01*
X112547617Y-65654819D02*
X112690474Y-65607200D01*
X112690474Y-65607200D02*
X112785712Y-65511961D01*
X112785712Y-65511961D02*
X112833331Y-65416723D01*
X112833331Y-65416723D02*
X112880950Y-65226247D01*
X112880950Y-65226247D02*
X112880950Y-65083390D01*
X112880950Y-65083390D02*
X112833331Y-64892914D01*
X112833331Y-64892914D02*
X112785712Y-64797676D01*
X112785712Y-64797676D02*
X112690474Y-64702438D01*
X112690474Y-64702438D02*
X112547617Y-64654819D01*
X112547617Y-64654819D02*
X112452379Y-64654819D01*
X112452379Y-64654819D02*
X112309522Y-64702438D01*
X112309522Y-64702438D02*
X112261903Y-64750057D01*
X111261903Y-65559580D02*
X111309522Y-65607200D01*
X111309522Y-65607200D02*
X111452379Y-65654819D01*
X111452379Y-65654819D02*
X111547617Y-65654819D01*
X111547617Y-65654819D02*
X111690474Y-65607200D01*
X111690474Y-65607200D02*
X111785712Y-65511961D01*
X111785712Y-65511961D02*
X111833331Y-65416723D01*
X111833331Y-65416723D02*
X111880950Y-65226247D01*
X111880950Y-65226247D02*
X111880950Y-65083390D01*
X111880950Y-65083390D02*
X111833331Y-64892914D01*
X111833331Y-64892914D02*
X111785712Y-64797676D01*
X111785712Y-64797676D02*
X111690474Y-64702438D01*
X111690474Y-64702438D02*
X111547617Y-64654819D01*
X111547617Y-64654819D02*
X111452379Y-64654819D01*
X111452379Y-64654819D02*
X111309522Y-64702438D01*
X111309522Y-64702438D02*
X111261903Y-64750057D01*
X109738093Y-65131009D02*
X109595236Y-65178628D01*
X109595236Y-65178628D02*
X109547617Y-65226247D01*
X109547617Y-65226247D02*
X109499998Y-65321485D01*
X109499998Y-65321485D02*
X109499998Y-65464342D01*
X109499998Y-65464342D02*
X109547617Y-65559580D01*
X109547617Y-65559580D02*
X109595236Y-65607200D01*
X109595236Y-65607200D02*
X109690474Y-65654819D01*
X109690474Y-65654819D02*
X110071426Y-65654819D01*
X110071426Y-65654819D02*
X110071426Y-64654819D01*
X110071426Y-64654819D02*
X109738093Y-64654819D01*
X109738093Y-64654819D02*
X109642855Y-64702438D01*
X109642855Y-64702438D02*
X109595236Y-64750057D01*
X109595236Y-64750057D02*
X109547617Y-64845295D01*
X109547617Y-64845295D02*
X109547617Y-64940533D01*
X109547617Y-64940533D02*
X109595236Y-65035771D01*
X109595236Y-65035771D02*
X109642855Y-65083390D01*
X109642855Y-65083390D02*
X109738093Y-65131009D01*
X109738093Y-65131009D02*
X110071426Y-65131009D01*
X108880950Y-65178628D02*
X108880950Y-65654819D01*
X109214283Y-64654819D02*
X108880950Y-65178628D01*
X108880950Y-65178628D02*
X108547617Y-64654819D01*
X108214283Y-65273866D02*
X107452379Y-65273866D01*
X106976188Y-65654819D02*
X106976188Y-64654819D01*
X106976188Y-64654819D02*
X106404760Y-65654819D01*
X106404760Y-65654819D02*
X106404760Y-64654819D01*
X105357141Y-65559580D02*
X105404760Y-65607200D01*
X105404760Y-65607200D02*
X105547617Y-65654819D01*
X105547617Y-65654819D02*
X105642855Y-65654819D01*
X105642855Y-65654819D02*
X105785712Y-65607200D01*
X105785712Y-65607200D02*
X105880950Y-65511961D01*
X105880950Y-65511961D02*
X105928569Y-65416723D01*
X105928569Y-65416723D02*
X105976188Y-65226247D01*
X105976188Y-65226247D02*
X105976188Y-65083390D01*
X105976188Y-65083390D02*
X105928569Y-64892914D01*
X105928569Y-64892914D02*
X105880950Y-64797676D01*
X105880950Y-64797676D02*
X105785712Y-64702438D01*
X105785712Y-64702438D02*
X105642855Y-64654819D01*
X105642855Y-64654819D02*
X105547617Y-64654819D01*
X105547617Y-64654819D02*
X105404760Y-64702438D01*
X105404760Y-64702438D02*
X105357141Y-64750057D01*
X104928569Y-65273866D02*
X104166665Y-65273866D01*
X103738093Y-65607200D02*
X103595236Y-65654819D01*
X103595236Y-65654819D02*
X103357141Y-65654819D01*
X103357141Y-65654819D02*
X103261903Y-65607200D01*
X103261903Y-65607200D02*
X103214284Y-65559580D01*
X103214284Y-65559580D02*
X103166665Y-65464342D01*
X103166665Y-65464342D02*
X103166665Y-65369104D01*
X103166665Y-65369104D02*
X103214284Y-65273866D01*
X103214284Y-65273866D02*
X103261903Y-65226247D01*
X103261903Y-65226247D02*
X103357141Y-65178628D01*
X103357141Y-65178628D02*
X103547617Y-65131009D01*
X103547617Y-65131009D02*
X103642855Y-65083390D01*
X103642855Y-65083390D02*
X103690474Y-65035771D01*
X103690474Y-65035771D02*
X103738093Y-64940533D01*
X103738093Y-64940533D02*
X103738093Y-64845295D01*
X103738093Y-64845295D02*
X103690474Y-64750057D01*
X103690474Y-64750057D02*
X103642855Y-64702438D01*
X103642855Y-64702438D02*
X103547617Y-64654819D01*
X103547617Y-64654819D02*
X103309522Y-64654819D01*
X103309522Y-64654819D02*
X103166665Y-64702438D01*
X102785712Y-65369104D02*
X102309522Y-65369104D01*
X102880950Y-65654819D02*
X102547617Y-64654819D01*
X102547617Y-64654819D02*
X102214284Y-65654819D01*
X100690474Y-64988152D02*
X100690474Y-65654819D01*
X100928569Y-64607200D02*
X101166664Y-65321485D01*
X101166664Y-65321485D02*
X100547617Y-65321485D01*
X100166664Y-65559580D02*
X100119045Y-65607200D01*
X100119045Y-65607200D02*
X100166664Y-65654819D01*
X100166664Y-65654819D02*
X100214283Y-65607200D01*
X100214283Y-65607200D02*
X100166664Y-65559580D01*
X100166664Y-65559580D02*
X100166664Y-65654819D01*
X99499998Y-64654819D02*
X99404760Y-64654819D01*
X99404760Y-64654819D02*
X99309522Y-64702438D01*
X99309522Y-64702438D02*
X99261903Y-64750057D01*
X99261903Y-64750057D02*
X99214284Y-64845295D01*
X99214284Y-64845295D02*
X99166665Y-65035771D01*
X99166665Y-65035771D02*
X99166665Y-65273866D01*
X99166665Y-65273866D02*
X99214284Y-65464342D01*
X99214284Y-65464342D02*
X99261903Y-65559580D01*
X99261903Y-65559580D02*
X99309522Y-65607200D01*
X99309522Y-65607200D02*
X99404760Y-65654819D01*
X99404760Y-65654819D02*
X99499998Y-65654819D01*
X99499998Y-65654819D02*
X99595236Y-65607200D01*
X99595236Y-65607200D02*
X99642855Y-65559580D01*
X99642855Y-65559580D02*
X99690474Y-65464342D01*
X99690474Y-65464342D02*
X99738093Y-65273866D01*
X99738093Y-65273866D02*
X99738093Y-65035771D01*
X99738093Y-65035771D02*
X99690474Y-64845295D01*
X99690474Y-64845295D02*
X99642855Y-64750057D01*
X99642855Y-64750057D02*
X99595236Y-64702438D01*
X99595236Y-64702438D02*
X99499998Y-64654819D01*
X130880953Y-62969104D02*
X130404763Y-62969104D01*
X130976191Y-63254819D02*
X130642858Y-62254819D01*
X130642858Y-62254819D02*
X130309525Y-63254819D01*
X130023810Y-63207200D02*
X129928572Y-63254819D01*
X129928572Y-63254819D02*
X129738096Y-63254819D01*
X129738096Y-63254819D02*
X129642858Y-63207200D01*
X129642858Y-63207200D02*
X129595239Y-63111961D01*
X129595239Y-63111961D02*
X129595239Y-63064342D01*
X129595239Y-63064342D02*
X129642858Y-62969104D01*
X129642858Y-62969104D02*
X129738096Y-62921485D01*
X129738096Y-62921485D02*
X129880953Y-62921485D01*
X129880953Y-62921485D02*
X129976191Y-62873866D01*
X129976191Y-62873866D02*
X130023810Y-62778628D01*
X130023810Y-62778628D02*
X130023810Y-62731009D01*
X130023810Y-62731009D02*
X129976191Y-62635771D01*
X129976191Y-62635771D02*
X129880953Y-62588152D01*
X129880953Y-62588152D02*
X129738096Y-62588152D01*
X129738096Y-62588152D02*
X129642858Y-62635771D01*
X129166667Y-63254819D02*
X129166667Y-62254819D01*
X129071429Y-62873866D02*
X128785715Y-63254819D01*
X128785715Y-62588152D02*
X129166667Y-62969104D01*
X128404762Y-63207200D02*
X128261905Y-63254819D01*
X128261905Y-63254819D02*
X128023810Y-63254819D01*
X128023810Y-63254819D02*
X127928572Y-63207200D01*
X127928572Y-63207200D02*
X127880953Y-63159580D01*
X127880953Y-63159580D02*
X127833334Y-63064342D01*
X127833334Y-63064342D02*
X127833334Y-62969104D01*
X127833334Y-62969104D02*
X127880953Y-62873866D01*
X127880953Y-62873866D02*
X127928572Y-62826247D01*
X127928572Y-62826247D02*
X128023810Y-62778628D01*
X128023810Y-62778628D02*
X128214286Y-62731009D01*
X128214286Y-62731009D02*
X128309524Y-62683390D01*
X128309524Y-62683390D02*
X128357143Y-62635771D01*
X128357143Y-62635771D02*
X128404762Y-62540533D01*
X128404762Y-62540533D02*
X128404762Y-62445295D01*
X128404762Y-62445295D02*
X128357143Y-62350057D01*
X128357143Y-62350057D02*
X128309524Y-62302438D01*
X128309524Y-62302438D02*
X128214286Y-62254819D01*
X128214286Y-62254819D02*
X127976191Y-62254819D01*
X127976191Y-62254819D02*
X127833334Y-62302438D01*
X127404762Y-63254819D02*
X127404762Y-62588152D01*
X127404762Y-62254819D02*
X127452381Y-62302438D01*
X127452381Y-62302438D02*
X127404762Y-62350057D01*
X127404762Y-62350057D02*
X127357143Y-62302438D01*
X127357143Y-62302438D02*
X127404762Y-62254819D01*
X127404762Y-62254819D02*
X127404762Y-62350057D01*
X126928572Y-62588152D02*
X126928572Y-63254819D01*
X126928572Y-62683390D02*
X126880953Y-62635771D01*
X126880953Y-62635771D02*
X126785715Y-62588152D01*
X126785715Y-62588152D02*
X126642858Y-62588152D01*
X126642858Y-62588152D02*
X126547620Y-62635771D01*
X126547620Y-62635771D02*
X126500001Y-62731009D01*
X126500001Y-62731009D02*
X126500001Y-63254819D01*
X126023810Y-62873866D02*
X125261906Y-62873866D01*
X124833334Y-62969104D02*
X124357144Y-62969104D01*
X124928572Y-63254819D02*
X124595239Y-62254819D01*
X124595239Y-62254819D02*
X124261906Y-63254819D01*
X123928572Y-62588152D02*
X123928572Y-63254819D01*
X123928572Y-62683390D02*
X123880953Y-62635771D01*
X123880953Y-62635771D02*
X123785715Y-62588152D01*
X123785715Y-62588152D02*
X123642858Y-62588152D01*
X123642858Y-62588152D02*
X123547620Y-62635771D01*
X123547620Y-62635771D02*
X123500001Y-62731009D01*
X123500001Y-62731009D02*
X123500001Y-63254819D01*
X122595239Y-63254819D02*
X122595239Y-62731009D01*
X122595239Y-62731009D02*
X122642858Y-62635771D01*
X122642858Y-62635771D02*
X122738096Y-62588152D01*
X122738096Y-62588152D02*
X122928572Y-62588152D01*
X122928572Y-62588152D02*
X123023810Y-62635771D01*
X122595239Y-63207200D02*
X122690477Y-63254819D01*
X122690477Y-63254819D02*
X122928572Y-63254819D01*
X122928572Y-63254819D02*
X123023810Y-63207200D01*
X123023810Y-63207200D02*
X123071429Y-63111961D01*
X123071429Y-63111961D02*
X123071429Y-63016723D01*
X123071429Y-63016723D02*
X123023810Y-62921485D01*
X123023810Y-62921485D02*
X122928572Y-62873866D01*
X122928572Y-62873866D02*
X122690477Y-62873866D01*
X122690477Y-62873866D02*
X122595239Y-62826247D01*
X121976191Y-63254819D02*
X122071429Y-63207200D01*
X122071429Y-63207200D02*
X122119048Y-63111961D01*
X122119048Y-63111961D02*
X122119048Y-62254819D01*
X121690476Y-62588152D02*
X121452381Y-63254819D01*
X121214286Y-62588152D02*
X121452381Y-63254819D01*
X121452381Y-63254819D02*
X121547619Y-63492914D01*
X121547619Y-63492914D02*
X121595238Y-63540533D01*
X121595238Y-63540533D02*
X121690476Y-63588152D01*
X120928571Y-62588152D02*
X120404762Y-62588152D01*
X120404762Y-62588152D02*
X120928571Y-63254819D01*
X120928571Y-63254819D02*
X120404762Y-63254819D01*
X119642857Y-63207200D02*
X119738095Y-63254819D01*
X119738095Y-63254819D02*
X119928571Y-63254819D01*
X119928571Y-63254819D02*
X120023809Y-63207200D01*
X120023809Y-63207200D02*
X120071428Y-63111961D01*
X120071428Y-63111961D02*
X120071428Y-62731009D01*
X120071428Y-62731009D02*
X120023809Y-62635771D01*
X120023809Y-62635771D02*
X119928571Y-62588152D01*
X119928571Y-62588152D02*
X119738095Y-62588152D01*
X119738095Y-62588152D02*
X119642857Y-62635771D01*
X119642857Y-62635771D02*
X119595238Y-62731009D01*
X119595238Y-62731009D02*
X119595238Y-62826247D01*
X119595238Y-62826247D02*
X120071428Y-62921485D01*
X119166666Y-63254819D02*
X119166666Y-62588152D01*
X119166666Y-62778628D02*
X119119047Y-62683390D01*
X119119047Y-62683390D02*
X119071428Y-62635771D01*
X119071428Y-62635771D02*
X118976190Y-62588152D01*
X118976190Y-62588152D02*
X118880952Y-62588152D01*
X117642856Y-62826247D02*
X117690475Y-62873866D01*
X117690475Y-62873866D02*
X117642856Y-62921485D01*
X117642856Y-62921485D02*
X117595237Y-62873866D01*
X117595237Y-62873866D02*
X117642856Y-62826247D01*
X117642856Y-62826247D02*
X117642856Y-62921485D01*
X116261903Y-63254819D02*
X116261903Y-62254819D01*
X116261903Y-62731009D02*
X115690475Y-62731009D01*
X115690475Y-63254819D02*
X115690475Y-62254819D01*
X115309522Y-62254819D02*
X115071427Y-63254819D01*
X115071427Y-63254819D02*
X114880951Y-62540533D01*
X114880951Y-62540533D02*
X114690475Y-63254819D01*
X114690475Y-63254819D02*
X114452380Y-62254819D01*
X113404760Y-62588152D02*
X113166665Y-63254819D01*
X113166665Y-63254819D02*
X112928570Y-62588152D01*
X112357141Y-62254819D02*
X112261903Y-62254819D01*
X112261903Y-62254819D02*
X112166665Y-62302438D01*
X112166665Y-62302438D02*
X112119046Y-62350057D01*
X112119046Y-62350057D02*
X112071427Y-62445295D01*
X112071427Y-62445295D02*
X112023808Y-62635771D01*
X112023808Y-62635771D02*
X112023808Y-62873866D01*
X112023808Y-62873866D02*
X112071427Y-63064342D01*
X112071427Y-63064342D02*
X112119046Y-63159580D01*
X112119046Y-63159580D02*
X112166665Y-63207200D01*
X112166665Y-63207200D02*
X112261903Y-63254819D01*
X112261903Y-63254819D02*
X112357141Y-63254819D01*
X112357141Y-63254819D02*
X112452379Y-63207200D01*
X112452379Y-63207200D02*
X112499998Y-63159580D01*
X112499998Y-63159580D02*
X112547617Y-63064342D01*
X112547617Y-63064342D02*
X112595236Y-62873866D01*
X112595236Y-62873866D02*
X112595236Y-62635771D01*
X112595236Y-62635771D02*
X112547617Y-62445295D01*
X112547617Y-62445295D02*
X112499998Y-62350057D01*
X112499998Y-62350057D02*
X112452379Y-62302438D01*
X112452379Y-62302438D02*
X112357141Y-62254819D01*
X111595236Y-63159580D02*
X111547617Y-63207200D01*
X111547617Y-63207200D02*
X111595236Y-63254819D01*
X111595236Y-63254819D02*
X111642855Y-63207200D01*
X111642855Y-63207200D02*
X111595236Y-63159580D01*
X111595236Y-63159580D02*
X111595236Y-63254819D01*
X111166665Y-62350057D02*
X111119046Y-62302438D01*
X111119046Y-62302438D02*
X111023808Y-62254819D01*
X111023808Y-62254819D02*
X110785713Y-62254819D01*
X110785713Y-62254819D02*
X110690475Y-62302438D01*
X110690475Y-62302438D02*
X110642856Y-62350057D01*
X110642856Y-62350057D02*
X110595237Y-62445295D01*
X110595237Y-62445295D02*
X110595237Y-62540533D01*
X110595237Y-62540533D02*
X110642856Y-62683390D01*
X110642856Y-62683390D02*
X111214284Y-63254819D01*
X111214284Y-63254819D02*
X110595237Y-63254819D01*
X110166665Y-63159580D02*
X110119046Y-63207200D01*
X110119046Y-63207200D02*
X110166665Y-63254819D01*
X110166665Y-63254819D02*
X110214284Y-63207200D01*
X110214284Y-63207200D02*
X110166665Y-63159580D01*
X110166665Y-63159580D02*
X110166665Y-63254819D01*
X109499999Y-62254819D02*
X109404761Y-62254819D01*
X109404761Y-62254819D02*
X109309523Y-62302438D01*
X109309523Y-62302438D02*
X109261904Y-62350057D01*
X109261904Y-62350057D02*
X109214285Y-62445295D01*
X109214285Y-62445295D02*
X109166666Y-62635771D01*
X109166666Y-62635771D02*
X109166666Y-62873866D01*
X109166666Y-62873866D02*
X109214285Y-63064342D01*
X109214285Y-63064342D02*
X109261904Y-63159580D01*
X109261904Y-63159580D02*
X109309523Y-63207200D01*
X109309523Y-63207200D02*
X109404761Y-63254819D01*
X109404761Y-63254819D02*
X109499999Y-63254819D01*
X109499999Y-63254819D02*
X109595237Y-63207200D01*
X109595237Y-63207200D02*
X109642856Y-63159580D01*
X109642856Y-63159580D02*
X109690475Y-63064342D01*
X109690475Y-63064342D02*
X109738094Y-62873866D01*
X109738094Y-62873866D02*
X109738094Y-62635771D01*
X109738094Y-62635771D02*
X109690475Y-62445295D01*
X109690475Y-62445295D02*
X109642856Y-62350057D01*
X109642856Y-62350057D02*
X109595237Y-62302438D01*
X109595237Y-62302438D02*
X109499999Y-62254819D01*
X107833332Y-62826247D02*
X107880951Y-62873866D01*
X107880951Y-62873866D02*
X107833332Y-62921485D01*
X107833332Y-62921485D02*
X107785713Y-62873866D01*
X107785713Y-62873866D02*
X107833332Y-62826247D01*
X107833332Y-62826247D02*
X107833332Y-62921485D01*
X106261903Y-62254819D02*
X106166665Y-62254819D01*
X106166665Y-62254819D02*
X106071427Y-62302438D01*
X106071427Y-62302438D02*
X106023808Y-62350057D01*
X106023808Y-62350057D02*
X105976189Y-62445295D01*
X105976189Y-62445295D02*
X105928570Y-62635771D01*
X105928570Y-62635771D02*
X105928570Y-62873866D01*
X105928570Y-62873866D02*
X105976189Y-63064342D01*
X105976189Y-63064342D02*
X106023808Y-63159580D01*
X106023808Y-63159580D02*
X106071427Y-63207200D01*
X106071427Y-63207200D02*
X106166665Y-63254819D01*
X106166665Y-63254819D02*
X106261903Y-63254819D01*
X106261903Y-63254819D02*
X106357141Y-63207200D01*
X106357141Y-63207200D02*
X106404760Y-63159580D01*
X106404760Y-63159580D02*
X106452379Y-63064342D01*
X106452379Y-63064342D02*
X106499998Y-62873866D01*
X106499998Y-62873866D02*
X106499998Y-62635771D01*
X106499998Y-62635771D02*
X106452379Y-62445295D01*
X106452379Y-62445295D02*
X106404760Y-62350057D01*
X106404760Y-62350057D02*
X106357141Y-62302438D01*
X106357141Y-62302438D02*
X106261903Y-62254819D01*
X105595236Y-62254819D02*
X104928570Y-62254819D01*
X104928570Y-62254819D02*
X105357141Y-63254819D01*
X103833332Y-62207200D02*
X104690474Y-63492914D01*
X103547617Y-62350057D02*
X103499998Y-62302438D01*
X103499998Y-62302438D02*
X103404760Y-62254819D01*
X103404760Y-62254819D02*
X103166665Y-62254819D01*
X103166665Y-62254819D02*
X103071427Y-62302438D01*
X103071427Y-62302438D02*
X103023808Y-62350057D01*
X103023808Y-62350057D02*
X102976189Y-62445295D01*
X102976189Y-62445295D02*
X102976189Y-62540533D01*
X102976189Y-62540533D02*
X103023808Y-62683390D01*
X103023808Y-62683390D02*
X103595236Y-63254819D01*
X103595236Y-63254819D02*
X102976189Y-63254819D01*
X102357141Y-62254819D02*
X102261903Y-62254819D01*
X102261903Y-62254819D02*
X102166665Y-62302438D01*
X102166665Y-62302438D02*
X102119046Y-62350057D01*
X102119046Y-62350057D02*
X102071427Y-62445295D01*
X102071427Y-62445295D02*
X102023808Y-62635771D01*
X102023808Y-62635771D02*
X102023808Y-62873866D01*
X102023808Y-62873866D02*
X102071427Y-63064342D01*
X102071427Y-63064342D02*
X102119046Y-63159580D01*
X102119046Y-63159580D02*
X102166665Y-63207200D01*
X102166665Y-63207200D02*
X102261903Y-63254819D01*
X102261903Y-63254819D02*
X102357141Y-63254819D01*
X102357141Y-63254819D02*
X102452379Y-63207200D01*
X102452379Y-63207200D02*
X102499998Y-63159580D01*
X102499998Y-63159580D02*
X102547617Y-63064342D01*
X102547617Y-63064342D02*
X102595236Y-62873866D01*
X102595236Y-62873866D02*
X102595236Y-62635771D01*
X102595236Y-62635771D02*
X102547617Y-62445295D01*
X102547617Y-62445295D02*
X102499998Y-62350057D01*
X102499998Y-62350057D02*
X102452379Y-62302438D01*
X102452379Y-62302438D02*
X102357141Y-62254819D01*
X101642855Y-62350057D02*
X101595236Y-62302438D01*
X101595236Y-62302438D02*
X101499998Y-62254819D01*
X101499998Y-62254819D02*
X101261903Y-62254819D01*
X101261903Y-62254819D02*
X101166665Y-62302438D01*
X101166665Y-62302438D02*
X101119046Y-62350057D01*
X101119046Y-62350057D02*
X101071427Y-62445295D01*
X101071427Y-62445295D02*
X101071427Y-62540533D01*
X101071427Y-62540533D02*
X101119046Y-62683390D01*
X101119046Y-62683390D02*
X101690474Y-63254819D01*
X101690474Y-63254819D02*
X101071427Y-63254819D01*
X100214284Y-62254819D02*
X100404760Y-62254819D01*
X100404760Y-62254819D02*
X100499998Y-62302438D01*
X100499998Y-62302438D02*
X100547617Y-62350057D01*
X100547617Y-62350057D02*
X100642855Y-62492914D01*
X100642855Y-62492914D02*
X100690474Y-62683390D01*
X100690474Y-62683390D02*
X100690474Y-63064342D01*
X100690474Y-63064342D02*
X100642855Y-63159580D01*
X100642855Y-63159580D02*
X100595236Y-63207200D01*
X100595236Y-63207200D02*
X100499998Y-63254819D01*
X100499998Y-63254819D02*
X100309522Y-63254819D01*
X100309522Y-63254819D02*
X100214284Y-63207200D01*
X100214284Y-63207200D02*
X100166665Y-63159580D01*
X100166665Y-63159580D02*
X100119046Y-63064342D01*
X100119046Y-63064342D02*
X100119046Y-62826247D01*
X100119046Y-62826247D02*
X100166665Y-62731009D01*
X100166665Y-62731009D02*
X100214284Y-62683390D01*
X100214284Y-62683390D02*
X100309522Y-62635771D01*
X100309522Y-62635771D02*
X100499998Y-62635771D01*
X100499998Y-62635771D02*
X100595236Y-62683390D01*
X100595236Y-62683390D02*
X100642855Y-62731009D01*
X100642855Y-62731009D02*
X100690474Y-62826247D01*
D11*
%TO.C,J1*%
X119040000Y-80900000D02*
X119040000Y-83500000D01*
X119040000Y-80900000D02*
X169960000Y-80900000D01*
X119040000Y-83500000D02*
X121640000Y-83500000D01*
X119040000Y-84770000D02*
X119040000Y-86100000D01*
X119040000Y-86100000D02*
X120370000Y-86100000D01*
X121640000Y-83500000D02*
X121640000Y-86100000D01*
X121640000Y-86100000D02*
X169960000Y-86100000D01*
X169960000Y-80900000D02*
X169960000Y-86100000D01*
%TD*%
M02*
