%TF.GenerationSoftware,KiCad,Pcbnew,9.0.2+dfsg-1*%
%TF.CreationDate,2026-07-28T14:15:07+02:00*%
%TF.ProjectId,AskSin-Analyzer-V3,41736b53-696e-42d4-916e-616c797a6572,rev?*%
%TF.SameCoordinates,Original*%
%TF.FileFunction,Paste,Top*%
%TF.FilePolarity,Positive*%
%FSLAX46Y46*%
G04 Gerber Fmt 4.6, Leading zero omitted, Abs format (unit mm)*
G04 Created by KiCad (PCBNEW 9.0.2+dfsg-1) date 2026-07-28 14:15:07*
%MOMM*%
%LPD*%
G01*
G04 APERTURE LIST*
G04 Aperture macros list*
%AMRoundRect*
0 Rectangle with rounded corners*
0 $1 Rounding radius*
0 $2 $3 $4 $5 $6 $7 $8 $9 X,Y pos of 4 corners*
0 Add a 4 corners polygon primitive as box body*
4,1,4,$2,$3,$4,$5,$6,$7,$8,$9,$2,$3,0*
0 Add four circle primitives for the rounded corners*
1,1,$1+$1,$2,$3*
1,1,$1+$1,$4,$5*
1,1,$1+$1,$6,$7*
1,1,$1+$1,$8,$9*
0 Add four rect primitives between the rounded corners*
20,1,$1+$1,$2,$3,$4,$5,0*
20,1,$1+$1,$4,$5,$6,$7,0*
20,1,$1+$1,$6,$7,$8,$9,0*
20,1,$1+$1,$8,$9,$2,$3,0*%
G04 Aperture macros list end*
%ADD10RoundRect,0.250000X-0.325000X-0.450000X0.325000X-0.450000X0.325000X0.450000X-0.325000X0.450000X0*%
%ADD11R,1.800000X0.800000*%
%ADD12R,0.900000X1.700000*%
%ADD13RoundRect,0.250000X-0.350000X-0.450000X0.350000X-0.450000X0.350000X0.450000X-0.350000X0.450000X0*%
%ADD14RoundRect,0.250000X0.475000X-0.337500X0.475000X0.337500X-0.475000X0.337500X-0.475000X-0.337500X0*%
%ADD15RoundRect,0.150000X-0.587500X-0.150000X0.587500X-0.150000X0.587500X0.150000X-0.587500X0.150000X0*%
%ADD16RoundRect,0.137500X-0.600000X-0.137500X0.600000X-0.137500X0.600000X0.137500X-0.600000X0.137500X0*%
%ADD17RoundRect,0.137500X-0.137500X-0.600000X0.137500X-0.600000X0.137500X0.600000X-0.137500X0.600000X0*%
%ADD18RoundRect,0.250000X0.450000X-0.350000X0.450000X0.350000X-0.450000X0.350000X-0.450000X-0.350000X0*%
%ADD19RoundRect,0.250000X-0.337500X-0.475000X0.337500X-0.475000X0.337500X0.475000X-0.337500X0.475000X0*%
G04 APERTURE END LIST*
D10*
%TO.C,L1*%
X179975000Y-65000000D03*
X182025000Y-65000000D03*
%TD*%
D11*
%TO.C,U3*%
X212300000Y-95500000D03*
X212300000Y-94230000D03*
X212300000Y-92960000D03*
X212300000Y-87390000D03*
X212300000Y-86120000D03*
X212300000Y-84850000D03*
X212300000Y-83580000D03*
X212300000Y-82310000D03*
X212300000Y-81040000D03*
X212300000Y-79770000D03*
X212300000Y-78500000D03*
X197700000Y-78500000D03*
X197700000Y-79770000D03*
X197700000Y-81040000D03*
X197700000Y-82310000D03*
X197700000Y-83580000D03*
X197700000Y-84850000D03*
X197700000Y-86120000D03*
X197700000Y-87390000D03*
X197700000Y-92960000D03*
X197700000Y-94230000D03*
X197700000Y-95500000D03*
%TD*%
D12*
%TO.C,S1*%
X192300000Y-101000000D03*
X195700000Y-101000000D03*
%TD*%
D13*
%TO.C,R5*%
X181000000Y-101500000D03*
X183000000Y-101500000D03*
%TD*%
D14*
%TO.C,C9*%
X194000000Y-91537500D03*
X194000000Y-89462500D03*
%TD*%
%TO.C,C2*%
X186500000Y-66537500D03*
X186500000Y-64462500D03*
%TD*%
D15*
%TO.C,U1*%
X169062500Y-64050000D03*
X169062500Y-65950000D03*
X170937500Y-65000000D03*
%TD*%
D13*
%TO.C,R3*%
X187000000Y-101500000D03*
X189000000Y-101500000D03*
%TD*%
D10*
%TO.C,D1*%
X180975000Y-96000000D03*
X183025000Y-96000000D03*
%TD*%
D16*
%TO.C,U2*%
X182837500Y-83200000D03*
X182837500Y-84000000D03*
X182837500Y-84800000D03*
X182837500Y-85600000D03*
X182837500Y-86400000D03*
X182837500Y-87200000D03*
X182837500Y-88000000D03*
X182837500Y-88800000D03*
D17*
X184200000Y-90162500D03*
X185000000Y-90162500D03*
X185800000Y-90162500D03*
X186600000Y-90162500D03*
X187400000Y-90162500D03*
X188200000Y-90162500D03*
X189000000Y-90162500D03*
X189800000Y-90162500D03*
D16*
X191162500Y-88800000D03*
X191162500Y-88000000D03*
X191162500Y-87200000D03*
X191162500Y-86400000D03*
X191162500Y-85600000D03*
X191162500Y-84800000D03*
X191162500Y-84000000D03*
X191162500Y-83200000D03*
D17*
X189800000Y-81837500D03*
X189000000Y-81837500D03*
X188200000Y-81837500D03*
X187400000Y-81837500D03*
X186600000Y-81837500D03*
X185800000Y-81837500D03*
X185000000Y-81837500D03*
X184200000Y-81837500D03*
%TD*%
D14*
%TO.C,C5*%
X215800000Y-82037500D03*
X215800000Y-79962500D03*
%TD*%
D18*
%TO.C,R2*%
X194000000Y-77000000D03*
X194000000Y-75000000D03*
%TD*%
D14*
%TO.C,C3*%
X180500000Y-91537500D03*
X180500000Y-89462500D03*
%TD*%
D13*
%TO.C,R4*%
X175000000Y-101500000D03*
X177000000Y-101500000D03*
%TD*%
%TO.C,R1*%
X175000000Y-96000000D03*
X177000000Y-96000000D03*
%TD*%
D14*
%TO.C,C4*%
X194000000Y-82537500D03*
X194000000Y-80462500D03*
%TD*%
%TO.C,C1*%
X175500000Y-66537500D03*
X175500000Y-64462500D03*
%TD*%
D19*
%TO.C,C8*%
X175962500Y-73500000D03*
X178037500Y-73500000D03*
%TD*%
M02*
