%TF.GenerationSoftware,KiCad,Pcbnew,9.0.2+dfsg-1*%
%TF.CreationDate,2026-07-30T19:27:06+02:00*%
%TF.ProjectId,AskSin-Analyzer-V3,41736b53-696e-42d4-916e-616c797a6572,rev?*%
%TF.SameCoordinates,Original*%
%TF.FileFunction,Soldermask,Top*%
%TF.FilePolarity,Negative*%
%FSLAX46Y46*%
G04 Gerber Fmt 4.6, Leading zero omitted, Abs format (unit mm)*
G04 Created by KiCad (PCBNEW 9.0.2+dfsg-1) date 2026-07-30 19:27:06*
%MOMM*%
%LPD*%
G01*
G04 APERTURE LIST*
G04 Aperture macros list*
%AMRoundRect*
0 Rectangle with rounded corners*
0 $1 Rounding radius*
0 $2 $3 $4 $5 $6 $7 $8 $9 X,Y pos of 4 corners*
0 Add a 4 corners polygon primitive as box body*
4,1,4,$2,$3,$4,$5,$6,$7,$8,$9,$2,$3,0*
0 Add four circle primitives for the rounded corners*
1,1,$1+$1,$2,$3*
1,1,$1+$1,$4,$5*
1,1,$1+$1,$6,$7*
1,1,$1+$1,$8,$9*
0 Add four rect primitives between the rounded corners*
20,1,$1+$1,$2,$3,$4,$5,0*
20,1,$1+$1,$4,$5,$6,$7,0*
20,1,$1+$1,$6,$7,$8,$9,0*
20,1,$1+$1,$8,$9,$2,$3,0*%
G04 Aperture macros list end*
%ADD10R,1.000000X1.000000*%
%ADD11RoundRect,0.250000X0.450000X-0.350000X0.450000X0.350000X-0.450000X0.350000X-0.450000X-0.350000X0*%
%ADD12C,2.700000*%
%ADD13RoundRect,0.250000X0.475000X-0.337500X0.475000X0.337500X-0.475000X0.337500X-0.475000X-0.337500X0*%
%ADD14C,2.100000*%
%ADD15RoundRect,0.250000X-0.350000X-0.450000X0.350000X-0.450000X0.350000X0.450000X-0.350000X0.450000X0*%
%ADD16RoundRect,0.250000X0.625000X-0.350000X0.625000X0.350000X-0.625000X0.350000X-0.625000X-0.350000X0*%
%ADD17O,1.750000X1.200000*%
%ADD18RoundRect,0.137500X-0.600000X-0.137500X0.600000X-0.137500X0.600000X0.137500X-0.600000X0.137500X0*%
%ADD19RoundRect,0.137500X-0.137500X-0.600000X0.137500X-0.600000X0.137500X0.600000X-0.137500X0.600000X0*%
%ADD20C,1.700000*%
%ADD21C,0.800000*%
%ADD22R,0.900000X1.700000*%
%ADD23RoundRect,0.250000X-0.337500X-0.475000X0.337500X-0.475000X0.337500X0.475000X-0.337500X0.475000X0*%
%ADD24R,1.800000X0.800000*%
%ADD25RoundRect,0.250000X-0.325000X-0.450000X0.325000X-0.450000X0.325000X0.450000X-0.325000X0.450000X0*%
%ADD26RoundRect,0.150000X-0.587500X-0.150000X0.587500X-0.150000X0.587500X0.150000X-0.587500X0.150000X0*%
%ADD27R,1.700000X1.700000*%
G04 APERTURE END LIST*
D10*
%TO.C,TP7*%
X167000000Y-91500000D03*
%TD*%
D11*
%TO.C,R2*%
X143000000Y-70000000D03*
X143000000Y-68000000D03*
%TD*%
D12*
%TO.C,MH3*%
X103500000Y-90500000D03*
%TD*%
%TO.C,MH4*%
X184500000Y-89500000D03*
%TD*%
D13*
%TO.C,C9*%
X143000000Y-84537500D03*
X143000000Y-82462500D03*
%TD*%
D10*
%TO.C,TP1*%
X146500000Y-64500000D03*
%TD*%
D14*
%TO.C,KB2*%
X116200000Y-89500000D03*
%TD*%
D15*
%TO.C,R1*%
X151000000Y-71000000D03*
X153000000Y-71000000D03*
%TD*%
D16*
%TO.C,J6*%
X177500000Y-79000000D03*
D17*
X177500000Y-77000000D03*
%TD*%
D18*
%TO.C,U2*%
X131837500Y-76200000D03*
X131837500Y-77000000D03*
X131837500Y-77800000D03*
X131837500Y-78600000D03*
X131837500Y-79400000D03*
X131837500Y-80200000D03*
X131837500Y-81000000D03*
X131837500Y-81800000D03*
D19*
X133200000Y-83162500D03*
X134000000Y-83162500D03*
X134800000Y-83162500D03*
X135600000Y-83162500D03*
X136400000Y-83162500D03*
X137200000Y-83162500D03*
X138000000Y-83162500D03*
X138800000Y-83162500D03*
D18*
X140162500Y-81800000D03*
X140162500Y-81000000D03*
X140162500Y-80200000D03*
X140162500Y-79400000D03*
X140162500Y-78600000D03*
X140162500Y-77800000D03*
X140162500Y-77000000D03*
X140162500Y-76200000D03*
D19*
X138800000Y-74837500D03*
X138000000Y-74837500D03*
X137200000Y-74837500D03*
X136400000Y-74837500D03*
X135600000Y-74837500D03*
X134800000Y-74837500D03*
X134000000Y-74837500D03*
X133200000Y-74837500D03*
%TD*%
D13*
%TO.C,C4*%
X143000000Y-75537500D03*
X143000000Y-73462500D03*
%TD*%
%TO.C,C5*%
X121800000Y-70037500D03*
X121800000Y-67962500D03*
%TD*%
D15*
%TO.C,R4*%
X171000000Y-88500000D03*
X173000000Y-88500000D03*
%TD*%
D20*
%TO.C,Y1*%
X127000000Y-75000000D03*
X127000000Y-72500000D03*
X127000000Y-70000000D03*
%TD*%
D13*
%TO.C,C3*%
X129500000Y-84537500D03*
X129500000Y-82462500D03*
%TD*%
D21*
%TO.C,S1*%
X157000000Y-84000000D03*
D22*
X155300000Y-84000000D03*
X158700000Y-84000000D03*
%TD*%
D12*
%TO.C,MH2*%
X181500000Y-97500000D03*
%TD*%
%TO.C,MH1*%
X123500000Y-97500000D03*
%TD*%
D23*
%TO.C,C8*%
X124962500Y-67000000D03*
X127037500Y-67000000D03*
%TD*%
D24*
%TO.C,U3*%
X118300000Y-83500000D03*
X118300000Y-82230000D03*
X118300000Y-80960000D03*
X118300000Y-75390000D03*
X118300000Y-74120000D03*
X118300000Y-72850000D03*
X118300000Y-71580000D03*
X118300000Y-70310000D03*
X118300000Y-69040000D03*
X118300000Y-67770000D03*
X118300000Y-66500000D03*
X103700000Y-66500000D03*
X103700000Y-67770000D03*
X103700000Y-69040000D03*
X103700000Y-70310000D03*
X103700000Y-71580000D03*
X103700000Y-72850000D03*
X103700000Y-74120000D03*
X103700000Y-75390000D03*
X103700000Y-80960000D03*
X103700000Y-82230000D03*
X103700000Y-83500000D03*
%TD*%
D13*
%TO.C,C2*%
X172500000Y-66537500D03*
X172500000Y-64462500D03*
%TD*%
D10*
%TO.C,TP5*%
X161000000Y-91500000D03*
%TD*%
%TO.C,TP6*%
X164000000Y-91500000D03*
%TD*%
%TO.C,TP4*%
X158000000Y-91500000D03*
%TD*%
D16*
%TO.C,J7*%
X177500000Y-88500000D03*
D17*
X177500000Y-86500000D03*
X177500000Y-84500000D03*
%TD*%
D10*
%TO.C,TP8*%
X170000000Y-91500000D03*
%TD*%
D15*
%TO.C,R3*%
X124500000Y-88500000D03*
X126500000Y-88500000D03*
%TD*%
D25*
%TO.C,L1*%
X165975000Y-65000000D03*
X168025000Y-65000000D03*
%TD*%
D26*
%TO.C,U1*%
X155062500Y-64050000D03*
X155062500Y-65950000D03*
X156937500Y-65000000D03*
%TD*%
D15*
%TO.C,R5*%
X171000000Y-84500000D03*
X173000000Y-84500000D03*
%TD*%
D25*
%TO.C,D1*%
X156975000Y-71000000D03*
X159025000Y-71000000D03*
%TD*%
D16*
%TO.C,J5*%
X177500000Y-69500000D03*
D17*
X177500000Y-67500000D03*
X177500000Y-65500000D03*
X177500000Y-63500000D03*
%TD*%
D10*
%TO.C,TP2*%
X152000000Y-91500000D03*
%TD*%
D14*
%TO.C,KB1*%
X110700000Y-89500000D03*
%TD*%
D27*
%TO.C,J2*%
X150000000Y-78000000D03*
D20*
X152540000Y-78000000D03*
X150000000Y-80540000D03*
X152540000Y-80540000D03*
X150000000Y-83080000D03*
X152540000Y-83080000D03*
%TD*%
D13*
%TO.C,C1*%
X161500000Y-66537500D03*
X161500000Y-64462500D03*
%TD*%
D10*
%TO.C,TP3*%
X155000000Y-91500000D03*
%TD*%
D27*
%TO.C,J1*%
X128370000Y-98770000D03*
D20*
X128370000Y-96230000D03*
X130910000Y-98770000D03*
X130910000Y-96230000D03*
X133450000Y-98770000D03*
X133450000Y-96230000D03*
X135990000Y-98770000D03*
X135990000Y-96230000D03*
X138530000Y-98770000D03*
X138530000Y-96230000D03*
X141070000Y-98770000D03*
X141070000Y-96230000D03*
X143610000Y-98770000D03*
X143610000Y-96230000D03*
X146150000Y-98770000D03*
X146150000Y-96230000D03*
X148690000Y-98770000D03*
X148690000Y-96230000D03*
X151230000Y-98770000D03*
X151230000Y-96230000D03*
X153770000Y-98770000D03*
X153770000Y-96230000D03*
X156310000Y-98770000D03*
X156310000Y-96230000D03*
X158850000Y-98770000D03*
X158850000Y-96230000D03*
X161390000Y-98770000D03*
X161390000Y-96230000D03*
X163930000Y-98770000D03*
X163930000Y-96230000D03*
X166470000Y-98770000D03*
X166470000Y-96230000D03*
X169010000Y-98770000D03*
X169010000Y-96230000D03*
X171550000Y-98770000D03*
X171550000Y-96230000D03*
X174090000Y-98770000D03*
X174090000Y-96230000D03*
X176630000Y-98770000D03*
X176630000Y-96230000D03*
%TD*%
M02*
