%TF.GenerationSoftware,KiCad,Pcbnew,9.0.2+dfsg-1*%
%TF.CreationDate,2026-07-30T22:14:42+02:00*%
%TF.ProjectId,AskSin-Analyzer-V3,41736b53-696e-42d4-916e-616c797a6572,rev?*%
%TF.SameCoordinates,Original*%
%TF.FileFunction,Legend,Top*%
%TF.FilePolarity,Positive*%
%FSLAX46Y46*%
G04 Gerber Fmt 4.6, Leading zero omitted, Abs format (unit mm)*
G04 Created by KiCad (PCBNEW 9.0.2+dfsg-1) date 2026-07-30 22:14:42*
%MOMM*%
%LPD*%
G01*
G04 APERTURE LIST*
%ADD10C,0.120000*%
G04 APERTURE END LIST*
D10*
X135866667Y-78052664D02*
X135828571Y-78090760D01*
X135828571Y-78090760D02*
X135714286Y-78128855D01*
X135714286Y-78128855D02*
X135638095Y-78128855D01*
X135638095Y-78128855D02*
X135523809Y-78090760D01*
X135523809Y-78090760D02*
X135447619Y-78014569D01*
X135447619Y-78014569D02*
X135409524Y-77938379D01*
X135409524Y-77938379D02*
X135371428Y-77785998D01*
X135371428Y-77785998D02*
X135371428Y-77671712D01*
X135371428Y-77671712D02*
X135409524Y-77519331D01*
X135409524Y-77519331D02*
X135447619Y-77443140D01*
X135447619Y-77443140D02*
X135523809Y-77366950D01*
X135523809Y-77366950D02*
X135638095Y-77328855D01*
X135638095Y-77328855D02*
X135714286Y-77328855D01*
X135714286Y-77328855D02*
X135828571Y-77366950D01*
X135828571Y-77366950D02*
X135866667Y-77405045D01*
X136133333Y-77328855D02*
X136628571Y-77328855D01*
X136628571Y-77328855D02*
X136361905Y-77633617D01*
X136361905Y-77633617D02*
X136476190Y-77633617D01*
X136476190Y-77633617D02*
X136552381Y-77671712D01*
X136552381Y-77671712D02*
X136590476Y-77709807D01*
X136590476Y-77709807D02*
X136628571Y-77785998D01*
X136628571Y-77785998D02*
X136628571Y-77976474D01*
X136628571Y-77976474D02*
X136590476Y-78052664D01*
X136590476Y-78052664D02*
X136552381Y-78090760D01*
X136552381Y-78090760D02*
X136476190Y-78128855D01*
X136476190Y-78128855D02*
X136247619Y-78128855D01*
X136247619Y-78128855D02*
X136171428Y-78090760D01*
X136171428Y-78090760D02*
X136133333Y-78052664D01*
X155409524Y-74098855D02*
X155409524Y-73298855D01*
X155409524Y-73298855D02*
X155600000Y-73298855D01*
X155600000Y-73298855D02*
X155714286Y-73336950D01*
X155714286Y-73336950D02*
X155790476Y-73413140D01*
X155790476Y-73413140D02*
X155828571Y-73489331D01*
X155828571Y-73489331D02*
X155866667Y-73641712D01*
X155866667Y-73641712D02*
X155866667Y-73755998D01*
X155866667Y-73755998D02*
X155828571Y-73908379D01*
X155828571Y-73908379D02*
X155790476Y-73984569D01*
X155790476Y-73984569D02*
X155714286Y-74060760D01*
X155714286Y-74060760D02*
X155600000Y-74098855D01*
X155600000Y-74098855D02*
X155409524Y-74098855D01*
X156628571Y-74098855D02*
X156171428Y-74098855D01*
X156400000Y-74098855D02*
X156400000Y-73298855D01*
X156400000Y-73298855D02*
X156323809Y-73413140D01*
X156323809Y-73413140D02*
X156247619Y-73489331D01*
X156247619Y-73489331D02*
X156171428Y-73527426D01*
X142990476Y-77348855D02*
X143447619Y-77348855D01*
X143219047Y-78148855D02*
X143219047Y-77348855D01*
X143714286Y-78148855D02*
X143714286Y-77348855D01*
X143714286Y-77348855D02*
X144019048Y-77348855D01*
X144019048Y-77348855D02*
X144095238Y-77386950D01*
X144095238Y-77386950D02*
X144133333Y-77425045D01*
X144133333Y-77425045D02*
X144171429Y-77501236D01*
X144171429Y-77501236D02*
X144171429Y-77615521D01*
X144171429Y-77615521D02*
X144133333Y-77691712D01*
X144133333Y-77691712D02*
X144095238Y-77729807D01*
X144095238Y-77729807D02*
X144019048Y-77767902D01*
X144019048Y-77767902D02*
X143714286Y-77767902D01*
X144933333Y-78148855D02*
X144476190Y-78148855D01*
X144704762Y-78148855D02*
X144704762Y-77348855D01*
X144704762Y-77348855D02*
X144628571Y-77463140D01*
X144628571Y-77463140D02*
X144552381Y-77539331D01*
X144552381Y-77539331D02*
X144476190Y-77577426D01*
X104990476Y-127348855D02*
X105447619Y-127348855D01*
X105219047Y-128148855D02*
X105219047Y-127348855D01*
X105714286Y-128148855D02*
X105714286Y-127348855D01*
X105714286Y-127348855D02*
X106019048Y-127348855D01*
X106019048Y-127348855D02*
X106095238Y-127386950D01*
X106095238Y-127386950D02*
X106133333Y-127425045D01*
X106133333Y-127425045D02*
X106171429Y-127501236D01*
X106171429Y-127501236D02*
X106171429Y-127615521D01*
X106171429Y-127615521D02*
X106133333Y-127691712D01*
X106133333Y-127691712D02*
X106095238Y-127729807D01*
X106095238Y-127729807D02*
X106019048Y-127767902D01*
X106019048Y-127767902D02*
X105714286Y-127767902D01*
X106628571Y-127691712D02*
X106552381Y-127653617D01*
X106552381Y-127653617D02*
X106514286Y-127615521D01*
X106514286Y-127615521D02*
X106476190Y-127539331D01*
X106476190Y-127539331D02*
X106476190Y-127501236D01*
X106476190Y-127501236D02*
X106514286Y-127425045D01*
X106514286Y-127425045D02*
X106552381Y-127386950D01*
X106552381Y-127386950D02*
X106628571Y-127348855D01*
X106628571Y-127348855D02*
X106780952Y-127348855D01*
X106780952Y-127348855D02*
X106857143Y-127386950D01*
X106857143Y-127386950D02*
X106895238Y-127425045D01*
X106895238Y-127425045D02*
X106933333Y-127501236D01*
X106933333Y-127501236D02*
X106933333Y-127539331D01*
X106933333Y-127539331D02*
X106895238Y-127615521D01*
X106895238Y-127615521D02*
X106857143Y-127653617D01*
X106857143Y-127653617D02*
X106780952Y-127691712D01*
X106780952Y-127691712D02*
X106628571Y-127691712D01*
X106628571Y-127691712D02*
X106552381Y-127729807D01*
X106552381Y-127729807D02*
X106514286Y-127767902D01*
X106514286Y-127767902D02*
X106476190Y-127844093D01*
X106476190Y-127844093D02*
X106476190Y-127996474D01*
X106476190Y-127996474D02*
X106514286Y-128072664D01*
X106514286Y-128072664D02*
X106552381Y-128110760D01*
X106552381Y-128110760D02*
X106628571Y-128148855D01*
X106628571Y-128148855D02*
X106780952Y-128148855D01*
X106780952Y-128148855D02*
X106857143Y-128110760D01*
X106857143Y-128110760D02*
X106895238Y-128072664D01*
X106895238Y-128072664D02*
X106933333Y-127996474D01*
X106933333Y-127996474D02*
X106933333Y-127844093D01*
X106933333Y-127844093D02*
X106895238Y-127767902D01*
X106895238Y-127767902D02*
X106857143Y-127729807D01*
X106857143Y-127729807D02*
X106780952Y-127691712D01*
X129119048Y-72197902D02*
X129119048Y-72578855D01*
X128852381Y-71778855D02*
X129119048Y-72197902D01*
X129119048Y-72197902D02*
X129385714Y-71778855D01*
X130071428Y-72578855D02*
X129614285Y-72578855D01*
X129842857Y-72578855D02*
X129842857Y-71778855D01*
X129842857Y-71778855D02*
X129766666Y-71893140D01*
X129766666Y-71893140D02*
X129690476Y-71969331D01*
X129690476Y-71969331D02*
X129614285Y-72007426D01*
X161866667Y-75098855D02*
X161600000Y-74717902D01*
X161409524Y-75098855D02*
X161409524Y-74298855D01*
X161409524Y-74298855D02*
X161714286Y-74298855D01*
X161714286Y-74298855D02*
X161790476Y-74336950D01*
X161790476Y-74336950D02*
X161828571Y-74375045D01*
X161828571Y-74375045D02*
X161866667Y-74451236D01*
X161866667Y-74451236D02*
X161866667Y-74565521D01*
X161866667Y-74565521D02*
X161828571Y-74641712D01*
X161828571Y-74641712D02*
X161790476Y-74679807D01*
X161790476Y-74679807D02*
X161714286Y-74717902D01*
X161714286Y-74717902D02*
X161409524Y-74717902D01*
X162552381Y-74565521D02*
X162552381Y-75098855D01*
X162361905Y-74260760D02*
X162171428Y-74832188D01*
X162171428Y-74832188D02*
X162666667Y-74832188D01*
X149390475Y-79760759D02*
X149504761Y-79798854D01*
X149504761Y-79798854D02*
X149695237Y-79798854D01*
X149695237Y-79798854D02*
X149771428Y-79760759D01*
X149771428Y-79760759D02*
X149809523Y-79722663D01*
X149809523Y-79722663D02*
X149847618Y-79646473D01*
X149847618Y-79646473D02*
X149847618Y-79570282D01*
X149847618Y-79570282D02*
X149809523Y-79494092D01*
X149809523Y-79494092D02*
X149771428Y-79455997D01*
X149771428Y-79455997D02*
X149695237Y-79417901D01*
X149695237Y-79417901D02*
X149542856Y-79379806D01*
X149542856Y-79379806D02*
X149466666Y-79341711D01*
X149466666Y-79341711D02*
X149428571Y-79303616D01*
X149428571Y-79303616D02*
X149390475Y-79227425D01*
X149390475Y-79227425D02*
X149390475Y-79151235D01*
X149390475Y-79151235D02*
X149428571Y-79075044D01*
X149428571Y-79075044D02*
X149466666Y-79036949D01*
X149466666Y-79036949D02*
X149542856Y-78998854D01*
X149542856Y-78998854D02*
X149733333Y-78998854D01*
X149733333Y-78998854D02*
X149847618Y-79036949D01*
X150609523Y-79798854D02*
X150152380Y-79798854D01*
X150380952Y-79798854D02*
X150380952Y-78998854D01*
X150380952Y-78998854D02*
X150304761Y-79113139D01*
X150304761Y-79113139D02*
X150228571Y-79189330D01*
X150228571Y-79189330D02*
X150152380Y-79227425D01*
X125366667Y-73052664D02*
X125328571Y-73090760D01*
X125328571Y-73090760D02*
X125214286Y-73128855D01*
X125214286Y-73128855D02*
X125138095Y-73128855D01*
X125138095Y-73128855D02*
X125023809Y-73090760D01*
X125023809Y-73090760D02*
X124947619Y-73014569D01*
X124947619Y-73014569D02*
X124909524Y-72938379D01*
X124909524Y-72938379D02*
X124871428Y-72785998D01*
X124871428Y-72785998D02*
X124871428Y-72671712D01*
X124871428Y-72671712D02*
X124909524Y-72519331D01*
X124909524Y-72519331D02*
X124947619Y-72443140D01*
X124947619Y-72443140D02*
X125023809Y-72366950D01*
X125023809Y-72366950D02*
X125138095Y-72328855D01*
X125138095Y-72328855D02*
X125214286Y-72328855D01*
X125214286Y-72328855D02*
X125328571Y-72366950D01*
X125328571Y-72366950D02*
X125366667Y-72405045D01*
X125823809Y-72671712D02*
X125747619Y-72633617D01*
X125747619Y-72633617D02*
X125709524Y-72595521D01*
X125709524Y-72595521D02*
X125671428Y-72519331D01*
X125671428Y-72519331D02*
X125671428Y-72481236D01*
X125671428Y-72481236D02*
X125709524Y-72405045D01*
X125709524Y-72405045D02*
X125747619Y-72366950D01*
X125747619Y-72366950D02*
X125823809Y-72328855D01*
X125823809Y-72328855D02*
X125976190Y-72328855D01*
X125976190Y-72328855D02*
X126052381Y-72366950D01*
X126052381Y-72366950D02*
X126090476Y-72405045D01*
X126090476Y-72405045D02*
X126128571Y-72481236D01*
X126128571Y-72481236D02*
X126128571Y-72519331D01*
X126128571Y-72519331D02*
X126090476Y-72595521D01*
X126090476Y-72595521D02*
X126052381Y-72633617D01*
X126052381Y-72633617D02*
X125976190Y-72671712D01*
X125976190Y-72671712D02*
X125823809Y-72671712D01*
X125823809Y-72671712D02*
X125747619Y-72709807D01*
X125747619Y-72709807D02*
X125709524Y-72747902D01*
X125709524Y-72747902D02*
X125671428Y-72824093D01*
X125671428Y-72824093D02*
X125671428Y-72976474D01*
X125671428Y-72976474D02*
X125709524Y-73052664D01*
X125709524Y-73052664D02*
X125747619Y-73090760D01*
X125747619Y-73090760D02*
X125823809Y-73128855D01*
X125823809Y-73128855D02*
X125976190Y-73128855D01*
X125976190Y-73128855D02*
X126052381Y-73090760D01*
X126052381Y-73090760D02*
X126090476Y-73052664D01*
X126090476Y-73052664D02*
X126128571Y-72976474D01*
X126128571Y-72976474D02*
X126128571Y-72824093D01*
X126128571Y-72824093D02*
X126090476Y-72747902D01*
X126090476Y-72747902D02*
X126052381Y-72709807D01*
X126052381Y-72709807D02*
X125976190Y-72671712D01*
%TO.C,C3*%
X135738748Y-74265000D02*
X136261252Y-74265000D01*
X135738748Y-75735000D02*
X136261252Y-75735000D01*
%TO.C,D1*%
X154140000Y-70040000D02*
X154140000Y-71960000D01*
X154140000Y-71960000D02*
X157000000Y-71960000D01*
X157000000Y-70040000D02*
X154140000Y-70040000D01*
%TO.C,U1*%
X150000000Y-61440000D02*
X149350000Y-61440000D01*
X150000000Y-61440000D02*
X150650000Y-61440000D01*
X150000000Y-64560000D02*
X149350000Y-64560000D01*
X150000000Y-64560000D02*
X150650000Y-64560000D01*
X148837500Y-61490000D02*
X148597500Y-61160000D01*
X149077500Y-61160000D01*
X148837500Y-61490000D01*
G36*
X148837500Y-61490000D02*
G01*
X148597500Y-61160000D01*
X149077500Y-61160000D01*
X148837500Y-61490000D01*
G37*
%TO.C,TP7*%
X105300000Y-120800000D02*
X106700000Y-120800000D01*
X105300000Y-122200000D02*
X105300000Y-120800000D01*
X106700000Y-120800000D02*
X106700000Y-122200000D01*
X106700000Y-122200000D02*
X105300000Y-122200000D01*
%TO.C,TP1*%
X143300000Y-74300000D02*
X144700000Y-74300000D01*
X143300000Y-75700000D02*
X143300000Y-74300000D01*
X144700000Y-74300000D02*
X144700000Y-75700000D01*
X144700000Y-75700000D02*
X143300000Y-75700000D01*
%TO.C,C4*%
X143738748Y-62265000D02*
X144261252Y-62265000D01*
X143738748Y-63735000D02*
X144261252Y-63735000D01*
%TO.C,TP5*%
X105300000Y-113800000D02*
X106700000Y-113800000D01*
X105300000Y-115200000D02*
X105300000Y-113800000D01*
X106700000Y-113800000D02*
X106700000Y-115200000D01*
X106700000Y-115200000D02*
X105300000Y-115200000D01*
%TO.C,TP8*%
X105300000Y-124300000D02*
X106700000Y-124300000D01*
X105300000Y-125700000D02*
X105300000Y-124300000D01*
X106700000Y-124300000D02*
X106700000Y-125700000D01*
X106700000Y-125700000D02*
X105300000Y-125700000D01*
%TO.C,L1*%
X154238748Y-62290000D02*
X154761252Y-62290000D01*
X154238748Y-63710000D02*
X154761252Y-63710000D01*
%TO.C,U3*%
X102300000Y-76150000D02*
X102300000Y-63850000D01*
X122700000Y-63850000D02*
X123500000Y-63850000D01*
X122700000Y-76150000D02*
X122700000Y-63850000D01*
%TO.C,R1*%
X149772936Y-70265000D02*
X150227064Y-70265000D01*
X149772936Y-71735000D02*
X150227064Y-71735000D01*
%TO.C,TP2*%
X105300000Y-103300000D02*
X106700000Y-103300000D01*
X105300000Y-104700000D02*
X105300000Y-103300000D01*
X106700000Y-103300000D02*
X106700000Y-104700000D01*
X106700000Y-104700000D02*
X105300000Y-104700000D01*
%TO.C,C1*%
X149738748Y-66265000D02*
X150261252Y-66265000D01*
X149738748Y-67735000D02*
X150261252Y-67735000D01*
%TO.C,C2*%
X154238748Y-66265000D02*
X154761252Y-66265000D01*
X154238748Y-67735000D02*
X154761252Y-67735000D01*
%TO.C,U2*%
X132390000Y-63390000D02*
X132390000Y-63665000D01*
X132390000Y-70610000D02*
X132390000Y-70335000D01*
X132665000Y-63390000D02*
X132390000Y-63390000D01*
X132665000Y-70610000D02*
X132390000Y-70610000D01*
X139335000Y-63390000D02*
X139610000Y-63390000D01*
X139335000Y-70610000D02*
X139610000Y-70610000D01*
X139610000Y-63390000D02*
X139610000Y-63665000D01*
X139610000Y-70610000D02*
X139610000Y-70335000D01*
X131800000Y-63665000D02*
X131460000Y-63195000D01*
X132140000Y-63195000D01*
X131800000Y-63665000D01*
G36*
X131800000Y-63665000D02*
G01*
X131460000Y-63195000D01*
X132140000Y-63195000D01*
X131800000Y-63665000D01*
G37*
%TO.C,J6*%
X169640000Y-67890000D02*
X169640000Y-69140000D01*
X169940000Y-68190000D02*
X169940000Y-72910000D01*
X169940000Y-69500000D02*
X170550000Y-69500000D01*
X169940000Y-70800000D02*
X170550000Y-70800000D01*
X169940000Y-72910000D02*
X176060000Y-72910000D01*
X170550000Y-68800000D02*
X170550000Y-72300000D01*
X170550000Y-72300000D02*
X175450000Y-72300000D01*
X170890000Y-67890000D02*
X169640000Y-67890000D01*
X171400000Y-67990000D02*
X171400000Y-68190000D01*
X171700000Y-67990000D02*
X171400000Y-67990000D01*
X171700000Y-68090000D02*
X171400000Y-68090000D01*
X171700000Y-68190000D02*
X171700000Y-67990000D01*
X172500000Y-68190000D02*
X172500000Y-68800000D01*
X172500000Y-68800000D02*
X170550000Y-68800000D01*
X172900000Y-71800000D02*
X173100000Y-71800000D01*
X172900000Y-72300000D02*
X172900000Y-71800000D01*
X173000000Y-72300000D02*
X173000000Y-71800000D01*
X173100000Y-71800000D02*
X173100000Y-72300000D01*
X173500000Y-68800000D02*
X173500000Y-68190000D01*
X175450000Y-68800000D02*
X173500000Y-68800000D01*
X175450000Y-72300000D02*
X175450000Y-68800000D01*
X176060000Y-68190000D02*
X169940000Y-68190000D01*
X176060000Y-69500000D02*
X175450000Y-69500000D01*
X176060000Y-70800000D02*
X175450000Y-70800000D01*
X176060000Y-72910000D02*
X176060000Y-68190000D01*
%TO.C,R2*%
X143772936Y-70265000D02*
X144227064Y-70265000D01*
X143772936Y-71735000D02*
X144227064Y-71735000D01*
%TO.C,Y1*%
X128250000Y-74390000D02*
X130750000Y-74390000D01*
X128250000Y-77610000D02*
X130750000Y-77610000D01*
X127081000Y-74893000D02*
G75*
G02*
X128250000Y-74390000I1169210J-1107400D01*
G01*
X128250000Y-77610000D02*
G75*
G02*
X127081000Y-77107000I210J1610400D01*
G01*
X130750000Y-74390000D02*
G75*
G02*
X131919006Y-74892995I-200J-1610400D01*
G01*
X131919000Y-77107000D02*
G75*
G02*
X130750000Y-77609992I-1169200J1107400D01*
G01*
%TO.C,R3*%
X125272936Y-65765000D02*
X125727064Y-65765000D01*
X125272936Y-67235000D02*
X125727064Y-67235000D01*
%TO.C,TP4*%
X105300000Y-110300000D02*
X106700000Y-110300000D01*
X105300000Y-111700000D02*
X105300000Y-110300000D01*
X106700000Y-110300000D02*
X106700000Y-111700000D01*
X106700000Y-111700000D02*
X105300000Y-111700000D01*
%TO.C,R4*%
X161772936Y-71265000D02*
X162227064Y-71265000D01*
X161772936Y-72735000D02*
X162227064Y-72735000D01*
%TO.C,SW1*%
X157400000Y-66900000D02*
X157400000Y-64600000D01*
X158600000Y-66900000D02*
X157400000Y-66900000D01*
X160400000Y-66900000D02*
X161100000Y-66900000D01*
X162900000Y-66900000D02*
X163600000Y-66900000D01*
X166600000Y-64600000D02*
X166600000Y-66900000D01*
X166600000Y-66900000D02*
X165400000Y-66900000D01*
%TO.C,TP3*%
X105300000Y-106800000D02*
X106700000Y-106800000D01*
X105300000Y-108200000D02*
X105300000Y-106800000D01*
X106700000Y-106800000D02*
X106700000Y-108200000D01*
X106700000Y-108200000D02*
X105300000Y-108200000D01*
%TO.C,TP6*%
X105300000Y-117300000D02*
X106700000Y-117300000D01*
X105300000Y-118700000D02*
X105300000Y-117300000D01*
X106700000Y-117300000D02*
X106700000Y-118700000D01*
X106700000Y-118700000D02*
X105300000Y-118700000D01*
%TO.C,S1*%
X148350000Y-74600000D02*
X151650000Y-74600000D01*
X148350000Y-74900000D02*
X148350000Y-74600000D01*
X148350000Y-77100000D02*
X148350000Y-77400000D01*
X148350000Y-77400000D02*
X151650000Y-77400000D01*
X151650000Y-74600000D02*
X151650000Y-74900000D01*
X151650000Y-77400000D02*
X151650000Y-77100000D01*
%TO.C,C9*%
X143738748Y-66265000D02*
X144261252Y-66265000D01*
X143738748Y-67735000D02*
X144261252Y-67735000D01*
%TO.C,J5*%
X168140000Y-61390000D02*
X168140000Y-62640000D01*
X168440000Y-61690000D02*
X168440000Y-66410000D01*
X168440000Y-63000000D02*
X169050000Y-63000000D01*
X168440000Y-64300000D02*
X169050000Y-64300000D01*
X168440000Y-66410000D02*
X178560000Y-66410000D01*
X169050000Y-62300000D02*
X169050000Y-65800000D01*
X169050000Y-65800000D02*
X177950000Y-65800000D01*
X169390000Y-61390000D02*
X168140000Y-61390000D01*
X169900000Y-61490000D02*
X169900000Y-61690000D01*
X170200000Y-61490000D02*
X169900000Y-61490000D01*
X170200000Y-61590000D02*
X169900000Y-61590000D01*
X170200000Y-61690000D02*
X170200000Y-61490000D01*
X171000000Y-61690000D02*
X171000000Y-62300000D01*
X171000000Y-62300000D02*
X169050000Y-62300000D01*
X171400000Y-65300000D02*
X171600000Y-65300000D01*
X171400000Y-65800000D02*
X171400000Y-65300000D01*
X171500000Y-65800000D02*
X171500000Y-65300000D01*
X171600000Y-65300000D02*
X171600000Y-65800000D01*
X173400000Y-65300000D02*
X173600000Y-65300000D01*
X173400000Y-65800000D02*
X173400000Y-65300000D01*
X173500000Y-65800000D02*
X173500000Y-65300000D01*
X173600000Y-65300000D02*
X173600000Y-65800000D01*
X175400000Y-65300000D02*
X175600000Y-65300000D01*
X175400000Y-65800000D02*
X175400000Y-65300000D01*
X175500000Y-65800000D02*
X175500000Y-65300000D01*
X175600000Y-65300000D02*
X175600000Y-65800000D01*
X176000000Y-62300000D02*
X176000000Y-61690000D01*
X177950000Y-62300000D02*
X176000000Y-62300000D01*
X177950000Y-65800000D02*
X177950000Y-62300000D01*
X178560000Y-61690000D02*
X168440000Y-61690000D01*
X178560000Y-63000000D02*
X177950000Y-63000000D01*
X178560000Y-64300000D02*
X177950000Y-64300000D01*
X178560000Y-66410000D02*
X178560000Y-61690000D01*
%TO.C,C5*%
X125238748Y-62265000D02*
X125761252Y-62265000D01*
X125238748Y-63735000D02*
X125761252Y-63735000D01*
%TO.C,C8*%
X125238748Y-69265000D02*
X125761252Y-69265000D01*
X125238748Y-70735000D02*
X125761252Y-70735000D01*
%TO.C,J7*%
X170140000Y-73890000D02*
X170140000Y-75140000D01*
X170440000Y-74190000D02*
X170440000Y-78910000D01*
X170440000Y-75500000D02*
X171050000Y-75500000D01*
X170440000Y-76800000D02*
X171050000Y-76800000D01*
X170440000Y-78910000D02*
X178560000Y-78910000D01*
X171050000Y-74800000D02*
X171050000Y-78300000D01*
X171050000Y-78300000D02*
X177950000Y-78300000D01*
X171390000Y-73890000D02*
X170140000Y-73890000D01*
X171900000Y-73990000D02*
X171900000Y-74190000D01*
X172200000Y-73990000D02*
X171900000Y-73990000D01*
X172200000Y-74090000D02*
X171900000Y-74090000D01*
X172200000Y-74190000D02*
X172200000Y-73990000D01*
X173000000Y-74190000D02*
X173000000Y-74800000D01*
X173000000Y-74800000D02*
X171050000Y-74800000D01*
X173400000Y-77800000D02*
X173600000Y-77800000D01*
X173400000Y-78300000D02*
X173400000Y-77800000D01*
X173500000Y-78300000D02*
X173500000Y-77800000D01*
X173600000Y-77800000D02*
X173600000Y-78300000D01*
X175400000Y-77800000D02*
X175600000Y-77800000D01*
X175400000Y-78300000D02*
X175400000Y-77800000D01*
X175500000Y-78300000D02*
X175500000Y-77800000D01*
X175600000Y-77800000D02*
X175600000Y-78300000D01*
X176000000Y-74800000D02*
X176000000Y-74190000D01*
X177950000Y-74800000D02*
X176000000Y-74800000D01*
X177950000Y-78300000D02*
X177950000Y-74800000D01*
X178560000Y-74190000D02*
X170440000Y-74190000D01*
X178560000Y-75500000D02*
X177950000Y-75500000D01*
X178560000Y-76800000D02*
X177950000Y-76800000D01*
X178560000Y-78910000D02*
X178560000Y-74190000D01*
%TO.C,J2*%
X104620000Y-86620000D02*
X106000000Y-86620000D01*
X104620000Y-88000000D02*
X104620000Y-86620000D01*
X104620000Y-89270000D02*
X104620000Y-94460000D01*
X104620000Y-89270000D02*
X107270000Y-89270000D01*
X104620000Y-94460000D02*
X109920000Y-94460000D01*
X107270000Y-86620000D02*
X109920000Y-86620000D01*
X107270000Y-89270000D02*
X107270000Y-86620000D01*
X109920000Y-86620000D02*
X109920000Y-94460000D01*
%TD*%
M02*
