%TF.GenerationSoftware,KiCad,Pcbnew,9.0.2+dfsg-1*%
%TF.CreationDate,2026-07-31T11:14:11+02:00*%
%TF.ProjectId,AskSin-Analyzer-V3,41736b53-696e-42d4-916e-616c797a6572,rev?*%
%TF.SameCoordinates,Original*%
%TF.FileFunction,Copper,L3,Inr*%
%TF.FilePolarity,Positive*%
%FSLAX46Y46*%
G04 Gerber Fmt 4.6, Leading zero omitted, Abs format (unit mm)*
G04 Created by KiCad (PCBNEW 9.0.2+dfsg-1) date 2026-07-31 11:14:11*
%MOMM*%
%LPD*%
G01*
G04 APERTURE LIST*
G04 Aperture macros list*
%AMRoundRect*
0 Rectangle with rounded corners*
0 $1 Rounding radius*
0 $2 $3 $4 $5 $6 $7 $8 $9 X,Y pos of 4 corners*
0 Add a 4 corners polygon primitive as box body*
4,1,4,$2,$3,$4,$5,$6,$7,$8,$9,$2,$3,0*
0 Add four circle primitives for the rounded corners*
1,1,$1+$1,$2,$3*
1,1,$1+$1,$4,$5*
1,1,$1+$1,$6,$7*
1,1,$1+$1,$8,$9*
0 Add four rect primitives between the rounded corners*
20,1,$1+$1,$2,$3,$4,$5,0*
20,1,$1+$1,$4,$5,$6,$7,0*
20,1,$1+$1,$6,$7,$8,$9,0*
20,1,$1+$1,$8,$9,$2,$3,0*%
G04 Aperture macros list end*
%TA.AperFunction,ComponentPad*%
%ADD10RoundRect,0.250000X-0.350000X-0.625000X0.350000X-0.625000X0.350000X0.625000X-0.350000X0.625000X0*%
%TD*%
%TA.AperFunction,ComponentPad*%
%ADD11O,1.200000X1.750000*%
%TD*%
%TA.AperFunction,ComponentPad*%
%ADD12R,1.700000X1.700000*%
%TD*%
%TA.AperFunction,ComponentPad*%
%ADD13C,1.700000*%
%TD*%
%TA.AperFunction,ViaPad*%
%ADD14C,0.600000*%
%TD*%
G04 APERTURE END LIST*
D10*
%TO.N,GND*%
%TO.C,J5*%
X186500000Y-63500000D03*
D11*
%TO.N,PI_3V3*%
X188500000Y-63500000D03*
%TO.N,I2C_SCL*%
X190500000Y-63500000D03*
%TO.N,I2C_SDA*%
X192500000Y-63500000D03*
%TD*%
D10*
%TO.N,PI_3V3*%
%TO.C,J7*%
X187000000Y-76000000D03*
D11*
%TO.N,WS_DATA*%
X189000000Y-76000000D03*
%TO.N,GND*%
X191000000Y-76000000D03*
%TD*%
D12*
%TO.N,MISO*%
%TO.C,J2*%
X125000000Y-116000000D03*
D13*
%TO.N,+3V3*%
X127540000Y-116000000D03*
%TO.N,SCK*%
X125000000Y-118540000D03*
%TO.N,MOSI*%
X127540000Y-118540000D03*
%TO.N,RESET*%
X125000000Y-121080000D03*
%TO.N,GND*%
X127540000Y-121080000D03*
%TD*%
D10*
%TO.N,BTN*%
%TO.C,J6*%
X188000000Y-70000000D03*
D11*
%TO.N,GND*%
X190000000Y-70000000D03*
%TD*%
D13*
%TO.N,XTAL1*%
%TO.C,Y1*%
X120000000Y-64000000D03*
%TO.N,GND*%
X122500000Y-64000000D03*
%TO.N,XTAL2*%
X125000000Y-64000000D03*
%TD*%
D12*
%TO.N,PI_3V3*%
%TO.C,J1*%
X140370000Y-84770000D03*
D13*
%TO.N,+5V*%
X140370000Y-82230000D03*
%TO.N,I2C_SDA*%
X142910000Y-84770000D03*
%TO.N,+5V*%
X142910000Y-82230000D03*
%TO.N,I2C_SCL*%
X145450000Y-84770000D03*
%TO.N,GND*%
X145450000Y-82230000D03*
%TO.N,PI_RESET_DRV*%
X147990000Y-84770000D03*
%TO.N,UART_PI_TX*%
X147990000Y-82230000D03*
%TO.N,GND*%
X150530000Y-84770000D03*
%TO.N,UART_328_TX*%
X150530000Y-82230000D03*
%TO.N,BTN*%
X153070000Y-84770000D03*
%TO.N,LED_PWM*%
X153070000Y-82230000D03*
%TO.N,N/C*%
X155610000Y-84770000D03*
%TO.N,GND*%
X155610000Y-82230000D03*
%TO.N,N/C*%
X158150000Y-84770000D03*
X158150000Y-82230000D03*
X160690000Y-84770000D03*
X160690000Y-82230000D03*
%TO.N,LED_SPI*%
X163230000Y-84770000D03*
%TO.N,GND*%
X163230000Y-82230000D03*
%TO.N,N/C*%
X165770000Y-84770000D03*
X165770000Y-82230000D03*
X168310000Y-84770000D03*
X168310000Y-82230000D03*
%TO.N,GND*%
X170850000Y-84770000D03*
%TO.N,N/C*%
X170850000Y-82230000D03*
X173390000Y-84770000D03*
X173390000Y-82230000D03*
X175930000Y-84770000D03*
%TO.N,GND*%
X175930000Y-82230000D03*
%TO.N,N/C*%
X178470000Y-84770000D03*
X178470000Y-82230000D03*
X181010000Y-84770000D03*
%TO.N,GND*%
X181010000Y-82230000D03*
%TO.N,N/C*%
X183550000Y-84770000D03*
X183550000Y-82230000D03*
X186090000Y-84770000D03*
X186090000Y-82230000D03*
%TO.N,GND*%
X188630000Y-84770000D03*
%TO.N,N/C*%
X188630000Y-82230000D03*
%TD*%
D14*
%TO.N,+5V*%
X129207300Y-113886200D03*
%TO.N,LED_SPI*%
X162024900Y-69519500D03*
%TO.N,WS_DATA*%
X183521800Y-69507200D03*
%TO.N,GND*%
X130000000Y-126000000D03*
X144100000Y-62100000D03*
X130000000Y-132000000D03*
X106000000Y-132000000D03*
X112000000Y-99000000D03*
X115000000Y-105000000D03*
X103000000Y-120000000D03*
X193000000Y-81000000D03*
X196000000Y-66000000D03*
X196000000Y-63000000D03*
X127000000Y-123000000D03*
X103000000Y-132000000D03*
X124000000Y-75000000D03*
X175000000Y-72000000D03*
X172000000Y-78000000D03*
X175000000Y-66000000D03*
X115000000Y-120000000D03*
X154000000Y-72000000D03*
X112000000Y-129000000D03*
X175000000Y-87000000D03*
X157000000Y-69000000D03*
X110800000Y-70600000D03*
X118000000Y-81000000D03*
X103000000Y-96000000D03*
X110800000Y-83700000D03*
X106357000Y-70542300D03*
X193000000Y-87000000D03*
X187000000Y-87000000D03*
X109000000Y-114000000D03*
X112000000Y-96000000D03*
X196000000Y-87000000D03*
X103000000Y-117000000D03*
X103000000Y-114000000D03*
X118000000Y-132000000D03*
X115000000Y-99000000D03*
X130000000Y-96000000D03*
X103000000Y-99000000D03*
X124000000Y-132000000D03*
X112000000Y-114000000D03*
X181000000Y-66000000D03*
X148700000Y-65300000D03*
X157000000Y-63000000D03*
X130000000Y-123000000D03*
X115000000Y-129000000D03*
X156000000Y-64000000D03*
X103000000Y-123000000D03*
X196000000Y-72000000D03*
X115000000Y-111000000D03*
X175000000Y-75000000D03*
X196000000Y-81000000D03*
X118000000Y-84000000D03*
X127000000Y-105000000D03*
X172000000Y-66000000D03*
X178000000Y-87000000D03*
X109400000Y-84500000D03*
X118000000Y-87000000D03*
X103000000Y-108000000D03*
X108600000Y-99600000D03*
X112000000Y-84000000D03*
X103000000Y-78000000D03*
X133000000Y-132000000D03*
X107661000Y-103281000D03*
X109000000Y-123000000D03*
X103000000Y-126000000D03*
X104700000Y-118400000D03*
X103000000Y-87000000D03*
X115000000Y-114000000D03*
X107588000Y-83781200D03*
X181000000Y-63000000D03*
X124412000Y-83781200D03*
X112000000Y-105000000D03*
X109000000Y-96000000D03*
X103000000Y-81000000D03*
X163000000Y-66000000D03*
X157000000Y-66000000D03*
X187000000Y-66000000D03*
X193000000Y-75000000D03*
X103000000Y-93000000D03*
X169000000Y-66000000D03*
X175000000Y-63000000D03*
X115000000Y-126000000D03*
X112000000Y-108000000D03*
X190000000Y-87000000D03*
X121000000Y-120000000D03*
X124938000Y-94089700D03*
X190000000Y-84000000D03*
X103000000Y-105000000D03*
X133000000Y-129000000D03*
X166000000Y-63000000D03*
X107300000Y-74100000D03*
X181000000Y-87000000D03*
X130000000Y-117000000D03*
X154000000Y-69000000D03*
X118000000Y-129000000D03*
X193000000Y-78000000D03*
X121000000Y-129000000D03*
X115000000Y-69600000D03*
X124536000Y-100553000D03*
X112000000Y-126000000D03*
X178000000Y-66000000D03*
X105700000Y-68300000D03*
X127000000Y-102000000D03*
X127000000Y-126000000D03*
X115000000Y-123000000D03*
X118000000Y-126000000D03*
X160000000Y-69000000D03*
X118000000Y-120000000D03*
X121000000Y-90000000D03*
X109000000Y-120000000D03*
X184000000Y-87000000D03*
X127000000Y-99000000D03*
X184000000Y-63000000D03*
X184000000Y-66000000D03*
X160000000Y-66000000D03*
X112000000Y-111000000D03*
X166000000Y-87000000D03*
X118000000Y-123000000D03*
X103000000Y-102000000D03*
X105900000Y-72700000D03*
X160000000Y-63000000D03*
X147512000Y-64000000D03*
X109000000Y-111000000D03*
X163000000Y-63000000D03*
X121000000Y-126000000D03*
X130000000Y-108000000D03*
X138018000Y-61991200D03*
X103000000Y-84000000D03*
X172000000Y-72000000D03*
X124948000Y-92534200D03*
X169000000Y-63000000D03*
X130000000Y-129000000D03*
X136000000Y-129000000D03*
X172000000Y-87000000D03*
X121000000Y-87000000D03*
X127000000Y-129000000D03*
X106000000Y-66000000D03*
X112000000Y-123000000D03*
X110800000Y-84400000D03*
X103000000Y-63000000D03*
X130000000Y-111000000D03*
X142525000Y-71000000D03*
X169000000Y-87000000D03*
X112000000Y-102000000D03*
X118000000Y-78000000D03*
X124339000Y-103281000D03*
X130000000Y-105000000D03*
X109000000Y-129000000D03*
X196000000Y-84000000D03*
X112000000Y-132000000D03*
X136000000Y-87000000D03*
X190000000Y-66000000D03*
X124433000Y-101930000D03*
X178000000Y-75000000D03*
X109000000Y-99000000D03*
X117643000Y-69457700D03*
X125700000Y-71800000D03*
X130000000Y-102000000D03*
X112000000Y-87000000D03*
X124512000Y-73000000D03*
X154000000Y-66000000D03*
X127000000Y-96000000D03*
X103000000Y-90000000D03*
X124000000Y-123000000D03*
X121700000Y-74400000D03*
X130000000Y-120000000D03*
X128000000Y-81487500D03*
X157512000Y-64000000D03*
X109000000Y-126000000D03*
X130000000Y-93000000D03*
X115000000Y-102000000D03*
X178000000Y-72000000D03*
X115000000Y-96000000D03*
X128600000Y-62100000D03*
X107900000Y-74000000D03*
X127000000Y-93000000D03*
X139000000Y-87000000D03*
X103000000Y-75000000D03*
X112000000Y-120000000D03*
X105000000Y-119000000D03*
X121000000Y-132000000D03*
X172000000Y-63000000D03*
X130000000Y-99000000D03*
X124512000Y-69000000D03*
X124000000Y-129000000D03*
X124000000Y-126000000D03*
X105900000Y-73400000D03*
X121000000Y-123000000D03*
X109000000Y-132000000D03*
X103000000Y-129000000D03*
X106000000Y-63000000D03*
X140000000Y-62100000D03*
X130000000Y-84000000D03*
X109000000Y-105000000D03*
X130000000Y-90000000D03*
X172000000Y-75000000D03*
X178000000Y-78000000D03*
X110800000Y-71300000D03*
X109000000Y-84000000D03*
X196000000Y-69000000D03*
X163000000Y-87000000D03*
X103000000Y-111000000D03*
X108400000Y-83700000D03*
X178000000Y-63000000D03*
X115000000Y-132000000D03*
X175000000Y-78000000D03*
X155300000Y-71000000D03*
X109000000Y-102000000D03*
X106500000Y-67500000D03*
%TO.N,UART_PI_TX*%
X106614100Y-124983000D03*
X109335000Y-67239300D03*
%TO.N,UART_328_TX*%
X103932400Y-122500000D03*
X126833000Y-65191900D03*
X103932400Y-64586400D03*
%TO.N,RESET*%
X111600000Y-67101500D03*
X129037500Y-70651500D03*
%TO.N,MOSI*%
X118289900Y-91350000D03*
%TO.N,MISO*%
X117607000Y-90080000D03*
%TO.N,SCK*%
X116274200Y-92620000D03*
%TO.N,CS*%
X105909500Y-128536300D03*
X105909500Y-92913200D03*
%TO.N,GDO0*%
X110113500Y-88810000D03*
X108381800Y-65455100D03*
X107266700Y-128631000D03*
%TO.N,XTAL2*%
X114897900Y-72762200D03*
%TO.N,LED_TREIBER*%
X125643300Y-66360300D03*
X130313900Y-71030900D03*
%TD*%
%TA.AperFunction,Conductor*%
%TO.N,GND*%
G36*
X199458691Y-60519407D02*
G01*
X199494655Y-60568907D01*
X199499500Y-60599500D01*
X199499500Y-79400500D01*
X199480593Y-79458691D01*
X199431093Y-79494655D01*
X199400500Y-79499500D01*
X197065892Y-79499500D01*
X196934108Y-79499500D01*
X196856200Y-79520375D01*
X196806809Y-79533609D01*
X196692690Y-79599496D01*
X196599496Y-79692690D01*
X196533609Y-79806809D01*
X196499500Y-79934109D01*
X196499500Y-87400500D01*
X196480593Y-87458691D01*
X196431093Y-87494655D01*
X196400500Y-87499500D01*
X132065892Y-87499500D01*
X131934108Y-87499500D01*
X131856200Y-87520375D01*
X131806809Y-87533609D01*
X131692690Y-87599496D01*
X131599496Y-87692690D01*
X131533609Y-87806809D01*
X131533608Y-87806814D01*
X131499500Y-87934108D01*
X131499500Y-126934108D01*
X131499500Y-127065892D01*
X131529579Y-127178151D01*
X131533609Y-127193190D01*
X131599496Y-127307309D01*
X131599498Y-127307311D01*
X131599500Y-127307314D01*
X131692686Y-127400500D01*
X131692688Y-127400501D01*
X131692690Y-127400503D01*
X131806810Y-127466390D01*
X131806808Y-127466390D01*
X131806812Y-127466391D01*
X131806814Y-127466392D01*
X131934108Y-127500500D01*
X138400500Y-127500500D01*
X138458691Y-127519407D01*
X138494655Y-127568907D01*
X138499500Y-127599500D01*
X138499500Y-135400500D01*
X138480593Y-135458691D01*
X138431093Y-135494655D01*
X138400500Y-135499500D01*
X100599500Y-135499500D01*
X100541309Y-135480593D01*
X100505345Y-135431093D01*
X100500500Y-135400500D01*
X100500500Y-130881904D01*
X126499500Y-130881904D01*
X126499500Y-131118095D01*
X126536445Y-131351363D01*
X126537784Y-131355483D01*
X126609432Y-131575992D01*
X126716657Y-131786433D01*
X126855483Y-131977510D01*
X127022490Y-132144517D01*
X127213567Y-132283343D01*
X127424008Y-132390568D01*
X127648632Y-132463553D01*
X127648633Y-132463553D01*
X127648636Y-132463554D01*
X127881905Y-132500500D01*
X127881908Y-132500500D01*
X128118095Y-132500500D01*
X128351363Y-132463554D01*
X128351364Y-132463553D01*
X128351368Y-132463553D01*
X128575992Y-132390568D01*
X128592996Y-132381904D01*
X133999500Y-132381904D01*
X133999500Y-132618095D01*
X134036445Y-132851363D01*
X134036447Y-132851368D01*
X134109432Y-133075992D01*
X134216657Y-133286433D01*
X134355483Y-133477510D01*
X134522490Y-133644517D01*
X134713567Y-133783343D01*
X134924008Y-133890568D01*
X135148632Y-133963553D01*
X135148633Y-133963553D01*
X135148636Y-133963554D01*
X135381905Y-134000500D01*
X135381908Y-134000500D01*
X135618095Y-134000500D01*
X135851363Y-133963554D01*
X135851364Y-133963553D01*
X135851368Y-133963553D01*
X136075992Y-133890568D01*
X136286433Y-133783343D01*
X136477510Y-133644517D01*
X136644517Y-133477510D01*
X136783343Y-133286433D01*
X136890568Y-133075992D01*
X136963553Y-132851368D01*
X137000500Y-132618092D01*
X137000500Y-132381908D01*
X137000500Y-132381904D01*
X136963554Y-132148636D01*
X136962216Y-132144517D01*
X136890568Y-131924008D01*
X136783343Y-131713567D01*
X136644517Y-131522490D01*
X136477510Y-131355483D01*
X136286433Y-131216657D01*
X136286432Y-131216656D01*
X136286430Y-131216655D01*
X136075992Y-131109432D01*
X135851363Y-131036445D01*
X135618095Y-130999500D01*
X135618092Y-130999500D01*
X135381908Y-130999500D01*
X135381905Y-130999500D01*
X135148636Y-131036445D01*
X134924007Y-131109432D01*
X134713569Y-131216655D01*
X134522491Y-131355482D01*
X134355482Y-131522491D01*
X134216655Y-131713569D01*
X134109432Y-131924007D01*
X134036445Y-132148636D01*
X133999500Y-132381904D01*
X128592996Y-132381904D01*
X128786433Y-132283343D01*
X128977510Y-132144517D01*
X129144517Y-131977510D01*
X129283343Y-131786433D01*
X129390568Y-131575992D01*
X129463553Y-131351368D01*
X129484889Y-131216657D01*
X129500500Y-131118095D01*
X129500500Y-130881904D01*
X129463554Y-130648636D01*
X129463553Y-130648632D01*
X129390568Y-130424008D01*
X129283343Y-130213567D01*
X129144517Y-130022490D01*
X128977510Y-129855483D01*
X128786433Y-129716657D01*
X128786432Y-129716656D01*
X128786430Y-129716655D01*
X128575992Y-129609432D01*
X128351363Y-129536445D01*
X128118095Y-129499500D01*
X128118092Y-129499500D01*
X127881908Y-129499500D01*
X127881905Y-129499500D01*
X127648636Y-129536445D01*
X127424007Y-129609432D01*
X127213569Y-129716655D01*
X127022491Y-129855482D01*
X126855482Y-130022491D01*
X126716655Y-130213569D01*
X126609432Y-130424007D01*
X126536445Y-130648636D01*
X126499500Y-130881904D01*
X100500500Y-130881904D01*
X100500500Y-128457243D01*
X105309000Y-128457243D01*
X105309000Y-128615357D01*
X105349923Y-128768084D01*
X105428980Y-128905016D01*
X105540784Y-129016820D01*
X105677716Y-129095877D01*
X105830443Y-129136800D01*
X105830445Y-129136800D01*
X105988555Y-129136800D01*
X105988557Y-129136800D01*
X106141284Y-129095877D01*
X106278216Y-129016820D01*
X106390020Y-128905016D01*
X106469077Y-128768084D01*
X106479786Y-128728115D01*
X106513108Y-128676803D01*
X106570229Y-128654875D01*
X106629330Y-128670710D01*
X106667836Y-128718259D01*
X106671038Y-128728113D01*
X106707123Y-128862784D01*
X106786180Y-128999716D01*
X106897984Y-129111520D01*
X107034916Y-129190577D01*
X107187643Y-129231500D01*
X107187645Y-129231500D01*
X107345755Y-129231500D01*
X107345757Y-129231500D01*
X107498484Y-129190577D01*
X107635416Y-129111520D01*
X107747220Y-128999716D01*
X107826277Y-128862784D01*
X107867200Y-128710057D01*
X107867200Y-128551943D01*
X107826277Y-128399216D01*
X107747220Y-128262284D01*
X107635416Y-128150480D01*
X107498484Y-128071423D01*
X107345757Y-128030500D01*
X107187643Y-128030500D01*
X107093297Y-128055780D01*
X107034916Y-128071423D01*
X106897984Y-128150480D01*
X106786180Y-128262284D01*
X106707121Y-128399218D01*
X106707121Y-128399219D01*
X106696413Y-128439184D01*
X106663089Y-128490498D01*
X106605968Y-128512424D01*
X106546867Y-128496588D01*
X106508362Y-128449038D01*
X106505164Y-128439197D01*
X106469077Y-128304516D01*
X106390020Y-128167584D01*
X106278216Y-128055780D01*
X106141284Y-127976723D01*
X105988557Y-127935800D01*
X105830443Y-127935800D01*
X105677716Y-127976723D01*
X105540784Y-128055780D01*
X105428980Y-128167584D01*
X105349923Y-128304516D01*
X105309000Y-128457243D01*
X100500500Y-128457243D01*
X100500500Y-124903943D01*
X106013600Y-124903943D01*
X106013600Y-125062057D01*
X106054523Y-125214784D01*
X106133580Y-125351716D01*
X106245384Y-125463520D01*
X106382316Y-125542577D01*
X106535043Y-125583500D01*
X106535045Y-125583500D01*
X106693155Y-125583500D01*
X106693157Y-125583500D01*
X106845884Y-125542577D01*
X106982816Y-125463520D01*
X107094620Y-125351716D01*
X107173677Y-125214784D01*
X107214600Y-125062057D01*
X107214600Y-124903943D01*
X107173677Y-124751216D01*
X107094620Y-124614284D01*
X106982816Y-124502480D01*
X106845884Y-124423423D01*
X106693157Y-124382500D01*
X106535043Y-124382500D01*
X106382316Y-124423423D01*
X106245384Y-124502480D01*
X106133580Y-124614284D01*
X106054523Y-124751216D01*
X106013600Y-124903943D01*
X100500500Y-124903943D01*
X100500500Y-122420943D01*
X103331900Y-122420943D01*
X103331900Y-122579057D01*
X103372823Y-122731784D01*
X103451880Y-122868716D01*
X103563684Y-122980520D01*
X103700616Y-123059577D01*
X103853343Y-123100500D01*
X103853345Y-123100500D01*
X104011455Y-123100500D01*
X104011457Y-123100500D01*
X104164184Y-123059577D01*
X104301116Y-122980520D01*
X104412920Y-122868716D01*
X104491977Y-122731784D01*
X104532900Y-122579057D01*
X104532900Y-122420943D01*
X104491977Y-122268216D01*
X104412920Y-122131284D01*
X104301116Y-122019480D01*
X104164184Y-121940423D01*
X104011457Y-121899500D01*
X103853343Y-121899500D01*
X103700616Y-121940423D01*
X103563684Y-122019480D01*
X103451880Y-122131284D01*
X103372823Y-122268216D01*
X103331900Y-122420943D01*
X100500500Y-122420943D01*
X100500500Y-120989450D01*
X123849500Y-120989450D01*
X123849500Y-121170549D01*
X123877828Y-121349406D01*
X123933788Y-121521637D01*
X124002519Y-121656530D01*
X124016004Y-121682994D01*
X124122447Y-121829501D01*
X124250499Y-121957553D01*
X124397006Y-122063996D01*
X124558361Y-122146211D01*
X124730591Y-122202171D01*
X124802136Y-122213502D01*
X124909451Y-122230500D01*
X124909454Y-122230500D01*
X125090549Y-122230500D01*
X125179977Y-122216335D01*
X125269409Y-122202171D01*
X125441639Y-122146211D01*
X125602994Y-122063996D01*
X125749501Y-121957553D01*
X125877553Y-121829501D01*
X125983996Y-121682994D01*
X126066211Y-121521639D01*
X126122171Y-121349409D01*
X126150500Y-121170546D01*
X126150500Y-120993424D01*
X126440000Y-120993424D01*
X126440000Y-121166575D01*
X126467084Y-121337579D01*
X126520588Y-121502248D01*
X126599194Y-121656522D01*
X126633463Y-121703691D01*
X127071979Y-121265174D01*
X127074075Y-121272993D01*
X127139901Y-121387007D01*
X127232993Y-121480099D01*
X127347007Y-121545925D01*
X127354822Y-121548019D01*
X126916307Y-121986535D01*
X126963476Y-122020804D01*
X127117751Y-122099411D01*
X127282420Y-122152915D01*
X127453425Y-122180000D01*
X127626575Y-122180000D01*
X127797579Y-122152915D01*
X127962248Y-122099411D01*
X128116524Y-122020804D01*
X128116530Y-122020800D01*
X128163691Y-121986535D01*
X127725175Y-121548019D01*
X127732993Y-121545925D01*
X127847007Y-121480099D01*
X127940099Y-121387007D01*
X128005925Y-121272993D01*
X128008019Y-121265175D01*
X128446535Y-121703691D01*
X128480800Y-121656530D01*
X128480804Y-121656524D01*
X128559411Y-121502248D01*
X128612915Y-121337579D01*
X128640000Y-121166575D01*
X128640000Y-120993424D01*
X128612915Y-120822420D01*
X128559411Y-120657751D01*
X128480804Y-120503476D01*
X128446535Y-120456307D01*
X128008019Y-120894822D01*
X128005925Y-120887007D01*
X127940099Y-120772993D01*
X127847007Y-120679901D01*
X127732993Y-120614075D01*
X127725174Y-120611979D01*
X128163691Y-120173463D01*
X128116522Y-120139194D01*
X127962248Y-120060588D01*
X127797579Y-120007084D01*
X127626575Y-119980000D01*
X127453425Y-119980000D01*
X127282420Y-120007084D01*
X127117751Y-120060588D01*
X126963473Y-120139196D01*
X126916307Y-120173463D01*
X127354824Y-120611980D01*
X127347007Y-120614075D01*
X127232993Y-120679901D01*
X127139901Y-120772993D01*
X127074075Y-120887007D01*
X127071980Y-120894824D01*
X126633463Y-120456307D01*
X126599196Y-120503473D01*
X126520588Y-120657751D01*
X126467084Y-120822420D01*
X126440000Y-120993424D01*
X126150500Y-120993424D01*
X126150500Y-120989454D01*
X126150500Y-120989450D01*
X126131614Y-120870212D01*
X126122171Y-120810591D01*
X126066211Y-120638361D01*
X125983996Y-120477006D01*
X125877553Y-120330499D01*
X125749501Y-120202447D01*
X125602994Y-120096004D01*
X125602993Y-120096003D01*
X125602991Y-120096002D01*
X125441637Y-120013788D01*
X125269406Y-119957828D01*
X125090549Y-119929500D01*
X125090546Y-119929500D01*
X124909454Y-119929500D01*
X124909451Y-119929500D01*
X124730593Y-119957828D01*
X124558362Y-120013788D01*
X124397008Y-120096002D01*
X124337560Y-120139194D01*
X124250499Y-120202447D01*
X124122447Y-120330499D01*
X124069225Y-120403752D01*
X124016002Y-120477008D01*
X123933788Y-120638362D01*
X123877828Y-120810593D01*
X123849500Y-120989450D01*
X100500500Y-120989450D01*
X100500500Y-118449450D01*
X123849500Y-118449450D01*
X123849500Y-118630549D01*
X123877828Y-118809406D01*
X123877829Y-118809409D01*
X123933789Y-118981639D01*
X124016004Y-119142994D01*
X124122447Y-119289501D01*
X124250499Y-119417553D01*
X124397006Y-119523996D01*
X124558361Y-119606211D01*
X124730591Y-119662171D01*
X124802136Y-119673502D01*
X124909451Y-119690500D01*
X124909454Y-119690500D01*
X125090549Y-119690500D01*
X125179977Y-119676335D01*
X125269409Y-119662171D01*
X125441639Y-119606211D01*
X125602994Y-119523996D01*
X125749501Y-119417553D01*
X125877553Y-119289501D01*
X125983996Y-119142994D01*
X126066211Y-118981639D01*
X126122171Y-118809409D01*
X126150500Y-118630546D01*
X126150500Y-118449454D01*
X126150500Y-118449450D01*
X126389500Y-118449450D01*
X126389500Y-118630549D01*
X126417828Y-118809406D01*
X126417829Y-118809409D01*
X126473789Y-118981639D01*
X126556004Y-119142994D01*
X126662447Y-119289501D01*
X126790499Y-119417553D01*
X126937006Y-119523996D01*
X127098361Y-119606211D01*
X127270591Y-119662171D01*
X127342136Y-119673502D01*
X127449451Y-119690500D01*
X127449454Y-119690500D01*
X127630549Y-119690500D01*
X127719977Y-119676335D01*
X127809409Y-119662171D01*
X127981639Y-119606211D01*
X128142994Y-119523996D01*
X128289501Y-119417553D01*
X128417553Y-119289501D01*
X128523996Y-119142994D01*
X128606211Y-118981639D01*
X128662171Y-118809409D01*
X128690500Y-118630546D01*
X128690500Y-118449454D01*
X128690500Y-118449450D01*
X128662171Y-118270593D01*
X128662171Y-118270591D01*
X128606211Y-118098361D01*
X128523996Y-117937006D01*
X128417553Y-117790499D01*
X128289501Y-117662447D01*
X128142994Y-117556004D01*
X128142993Y-117556003D01*
X128142991Y-117556002D01*
X127981637Y-117473788D01*
X127809406Y-117417828D01*
X127630549Y-117389500D01*
X127630546Y-117389500D01*
X127449454Y-117389500D01*
X127449451Y-117389500D01*
X127270593Y-117417828D01*
X127098362Y-117473788D01*
X126937008Y-117556002D01*
X126863752Y-117609225D01*
X126790499Y-117662447D01*
X126662447Y-117790499D01*
X126609225Y-117863752D01*
X126556002Y-117937008D01*
X126473788Y-118098362D01*
X126417828Y-118270593D01*
X126389500Y-118449450D01*
X126150500Y-118449450D01*
X126122171Y-118270593D01*
X126122171Y-118270591D01*
X126066211Y-118098361D01*
X125983996Y-117937006D01*
X125877553Y-117790499D01*
X125749501Y-117662447D01*
X125602994Y-117556004D01*
X125602993Y-117556003D01*
X125602991Y-117556002D01*
X125441637Y-117473788D01*
X125269406Y-117417828D01*
X125090549Y-117389500D01*
X125090546Y-117389500D01*
X124909454Y-117389500D01*
X124909451Y-117389500D01*
X124730593Y-117417828D01*
X124558362Y-117473788D01*
X124397008Y-117556002D01*
X124323752Y-117609225D01*
X124250499Y-117662447D01*
X124122447Y-117790499D01*
X124069225Y-117863752D01*
X124016002Y-117937008D01*
X123933788Y-118098362D01*
X123877828Y-118270593D01*
X123849500Y-118449450D01*
X100500500Y-118449450D01*
X100500500Y-115105130D01*
X123849500Y-115105130D01*
X123849500Y-116894860D01*
X123849501Y-116894863D01*
X123852414Y-116919990D01*
X123877756Y-116977385D01*
X123897794Y-117022765D01*
X123977235Y-117102206D01*
X124080009Y-117147585D01*
X124105135Y-117150500D01*
X125894864Y-117150499D01*
X125919991Y-117147585D01*
X126022765Y-117102206D01*
X126102206Y-117022765D01*
X126147585Y-116919991D01*
X126150500Y-116894865D01*
X126150499Y-115909450D01*
X126389500Y-115909450D01*
X126389500Y-116090549D01*
X126417828Y-116269406D01*
X126417829Y-116269409D01*
X126473789Y-116441639D01*
X126556004Y-116602994D01*
X126662447Y-116749501D01*
X126790499Y-116877553D01*
X126937006Y-116983996D01*
X127098361Y-117066211D01*
X127270591Y-117122171D01*
X127342136Y-117133502D01*
X127449451Y-117150500D01*
X127449454Y-117150500D01*
X127630549Y-117150500D01*
X127719977Y-117136335D01*
X127809409Y-117122171D01*
X127981639Y-117066211D01*
X128142994Y-116983996D01*
X128289501Y-116877553D01*
X128417553Y-116749501D01*
X128523996Y-116602994D01*
X128606211Y-116441639D01*
X128662171Y-116269409D01*
X128690500Y-116090546D01*
X128690500Y-115909454D01*
X128690500Y-115909450D01*
X128662171Y-115730593D01*
X128662171Y-115730591D01*
X128606211Y-115558361D01*
X128523996Y-115397006D01*
X128417553Y-115250499D01*
X128289501Y-115122447D01*
X128142994Y-115016004D01*
X128142993Y-115016003D01*
X128142991Y-115016002D01*
X127981637Y-114933788D01*
X127809406Y-114877828D01*
X127630549Y-114849500D01*
X127630546Y-114849500D01*
X127449454Y-114849500D01*
X127449451Y-114849500D01*
X127270593Y-114877828D01*
X127098362Y-114933788D01*
X126937008Y-115016002D01*
X126863752Y-115069225D01*
X126790499Y-115122447D01*
X126662447Y-115250499D01*
X126609225Y-115323752D01*
X126556002Y-115397008D01*
X126473788Y-115558362D01*
X126417828Y-115730593D01*
X126389500Y-115909450D01*
X126150499Y-115909450D01*
X126150499Y-115105136D01*
X126147585Y-115080009D01*
X126102206Y-114977235D01*
X126022765Y-114897794D01*
X125919991Y-114852415D01*
X125919990Y-114852414D01*
X125919988Y-114852414D01*
X125894868Y-114849500D01*
X124105139Y-114849500D01*
X124105136Y-114849501D01*
X124080009Y-114852414D01*
X123977235Y-114897794D01*
X123897794Y-114977235D01*
X123852414Y-115080011D01*
X123849500Y-115105130D01*
X100500500Y-115105130D01*
X100500500Y-113807143D01*
X128606800Y-113807143D01*
X128606800Y-113965257D01*
X128647723Y-114117984D01*
X128726780Y-114254916D01*
X128838584Y-114366720D01*
X128975516Y-114445777D01*
X129128243Y-114486700D01*
X129128245Y-114486700D01*
X129286355Y-114486700D01*
X129286357Y-114486700D01*
X129439084Y-114445777D01*
X129576016Y-114366720D01*
X129687820Y-114254916D01*
X129766877Y-114117984D01*
X129807800Y-113965257D01*
X129807800Y-113807143D01*
X129766877Y-113654416D01*
X129687820Y-113517484D01*
X129576016Y-113405680D01*
X129439084Y-113326623D01*
X129286357Y-113285700D01*
X129128243Y-113285700D01*
X128975516Y-113326623D01*
X128838584Y-113405680D01*
X128726780Y-113517484D01*
X128647723Y-113654416D01*
X128606800Y-113807143D01*
X100500500Y-113807143D01*
X100500500Y-106905515D01*
X108799500Y-106905515D01*
X108799500Y-107094484D01*
X108829058Y-107281113D01*
X108829060Y-107281118D01*
X108887453Y-107460832D01*
X108973240Y-107629199D01*
X109084310Y-107782073D01*
X109217927Y-107915690D01*
X109370801Y-108026760D01*
X109539168Y-108112547D01*
X109718882Y-108170940D01*
X109718883Y-108170940D01*
X109718886Y-108170941D01*
X109905516Y-108200500D01*
X109905519Y-108200500D01*
X110094484Y-108200500D01*
X110281113Y-108170941D01*
X110281114Y-108170940D01*
X110281118Y-108170940D01*
X110460832Y-108112547D01*
X110629199Y-108026760D01*
X110782073Y-107915690D01*
X110915690Y-107782073D01*
X111026760Y-107629199D01*
X111112547Y-107460832D01*
X111170940Y-107281118D01*
X111200500Y-107094481D01*
X111200500Y-106905519D01*
X111200500Y-106905515D01*
X114299500Y-106905515D01*
X114299500Y-107094484D01*
X114329058Y-107281113D01*
X114329060Y-107281118D01*
X114387453Y-107460832D01*
X114473240Y-107629199D01*
X114584310Y-107782073D01*
X114717927Y-107915690D01*
X114870801Y-108026760D01*
X115039168Y-108112547D01*
X115218882Y-108170940D01*
X115218883Y-108170940D01*
X115218886Y-108170941D01*
X115405516Y-108200500D01*
X115405519Y-108200500D01*
X115594484Y-108200500D01*
X115781113Y-108170941D01*
X115781114Y-108170940D01*
X115781118Y-108170940D01*
X115960832Y-108112547D01*
X116129199Y-108026760D01*
X116282073Y-107915690D01*
X116415690Y-107782073D01*
X116526760Y-107629199D01*
X116612547Y-107460832D01*
X116670940Y-107281118D01*
X116700500Y-107094481D01*
X116700500Y-106905519D01*
X116700500Y-106905515D01*
X116670941Y-106718886D01*
X116670940Y-106718882D01*
X116612547Y-106539168D01*
X116526760Y-106370801D01*
X116415690Y-106217927D01*
X116282073Y-106084310D01*
X116129199Y-105973240D01*
X116129198Y-105973239D01*
X116129196Y-105973238D01*
X115960832Y-105887453D01*
X115781113Y-105829058D01*
X115594484Y-105799500D01*
X115594481Y-105799500D01*
X115405519Y-105799500D01*
X115405516Y-105799500D01*
X115218886Y-105829058D01*
X115039167Y-105887453D01*
X114870803Y-105973238D01*
X114717928Y-106084309D01*
X114584309Y-106217928D01*
X114473238Y-106370803D01*
X114387453Y-106539167D01*
X114329058Y-106718886D01*
X114299500Y-106905515D01*
X111200500Y-106905515D01*
X111170941Y-106718886D01*
X111170940Y-106718882D01*
X111112547Y-106539168D01*
X111026760Y-106370801D01*
X110915690Y-106217927D01*
X110782073Y-106084310D01*
X110629199Y-105973240D01*
X110629198Y-105973239D01*
X110629196Y-105973238D01*
X110460832Y-105887453D01*
X110281113Y-105829058D01*
X110094484Y-105799500D01*
X110094481Y-105799500D01*
X109905519Y-105799500D01*
X109905516Y-105799500D01*
X109718886Y-105829058D01*
X109539167Y-105887453D01*
X109370803Y-105973238D01*
X109217928Y-106084309D01*
X109084309Y-106217928D01*
X108973238Y-106370803D01*
X108887453Y-106539167D01*
X108829058Y-106718886D01*
X108799500Y-106905515D01*
X100500500Y-106905515D01*
X100500500Y-92834143D01*
X105309000Y-92834143D01*
X105309000Y-92992257D01*
X105349923Y-93144984D01*
X105428980Y-93281916D01*
X105540784Y-93393720D01*
X105677716Y-93472777D01*
X105830443Y-93513700D01*
X105830445Y-93513700D01*
X105988555Y-93513700D01*
X105988557Y-93513700D01*
X106141284Y-93472777D01*
X106278216Y-93393720D01*
X106390020Y-93281916D01*
X106469077Y-93144984D01*
X106510000Y-92992257D01*
X106510000Y-92834143D01*
X106469077Y-92681416D01*
X106390020Y-92544484D01*
X106386479Y-92540943D01*
X115673700Y-92540943D01*
X115673700Y-92699057D01*
X115714623Y-92851784D01*
X115793680Y-92988716D01*
X115905484Y-93100520D01*
X116042416Y-93179577D01*
X116195143Y-93220500D01*
X116195145Y-93220500D01*
X116353255Y-93220500D01*
X116353257Y-93220500D01*
X116505984Y-93179577D01*
X116642916Y-93100520D01*
X116754720Y-92988716D01*
X116833777Y-92851784D01*
X116874700Y-92699057D01*
X116874700Y-92540943D01*
X116833777Y-92388216D01*
X116754720Y-92251284D01*
X116642916Y-92139480D01*
X116505984Y-92060423D01*
X116353257Y-92019500D01*
X116195143Y-92019500D01*
X116042416Y-92060423D01*
X115905484Y-92139480D01*
X115793680Y-92251284D01*
X115714623Y-92388216D01*
X115673700Y-92540943D01*
X106386479Y-92540943D01*
X106278216Y-92432680D01*
X106141284Y-92353623D01*
X105988557Y-92312700D01*
X105830443Y-92312700D01*
X105677716Y-92353623D01*
X105540784Y-92432680D01*
X105428980Y-92544484D01*
X105349923Y-92681416D01*
X105309000Y-92834143D01*
X100500500Y-92834143D01*
X100500500Y-91270943D01*
X117689400Y-91270943D01*
X117689400Y-91429057D01*
X117730323Y-91581784D01*
X117809380Y-91718716D01*
X117921184Y-91830520D01*
X118058116Y-91909577D01*
X118210843Y-91950500D01*
X118210845Y-91950500D01*
X118368955Y-91950500D01*
X118368957Y-91950500D01*
X118521684Y-91909577D01*
X118658616Y-91830520D01*
X118770420Y-91718716D01*
X118849477Y-91581784D01*
X118890400Y-91429057D01*
X118890400Y-91270943D01*
X118849477Y-91118216D01*
X118770420Y-90981284D01*
X118658616Y-90869480D01*
X118521684Y-90790423D01*
X118368957Y-90749500D01*
X118210843Y-90749500D01*
X118058116Y-90790423D01*
X117921184Y-90869480D01*
X117809380Y-90981284D01*
X117730323Y-91118216D01*
X117689400Y-91270943D01*
X100500500Y-91270943D01*
X100500500Y-90000943D01*
X117006500Y-90000943D01*
X117006500Y-90159057D01*
X117047423Y-90311784D01*
X117126480Y-90448716D01*
X117238284Y-90560520D01*
X117375216Y-90639577D01*
X117527943Y-90680500D01*
X117527945Y-90680500D01*
X117686055Y-90680500D01*
X117686057Y-90680500D01*
X117838784Y-90639577D01*
X117975716Y-90560520D01*
X118087520Y-90448716D01*
X118166577Y-90311784D01*
X118207500Y-90159057D01*
X118207500Y-90000943D01*
X118166577Y-89848216D01*
X118087520Y-89711284D01*
X117975716Y-89599480D01*
X117838784Y-89520423D01*
X117686057Y-89479500D01*
X117527943Y-89479500D01*
X117375216Y-89520423D01*
X117238284Y-89599480D01*
X117126480Y-89711284D01*
X117047423Y-89848216D01*
X117006500Y-90000943D01*
X100500500Y-90000943D01*
X100500500Y-88730943D01*
X109513000Y-88730943D01*
X109513000Y-88889057D01*
X109553923Y-89041784D01*
X109632980Y-89178716D01*
X109744784Y-89290520D01*
X109881716Y-89369577D01*
X110034443Y-89410500D01*
X110034445Y-89410500D01*
X110192555Y-89410500D01*
X110192557Y-89410500D01*
X110345284Y-89369577D01*
X110482216Y-89290520D01*
X110594020Y-89178716D01*
X110673077Y-89041784D01*
X110714000Y-88889057D01*
X110714000Y-88730943D01*
X110673077Y-88578216D01*
X110594020Y-88441284D01*
X110482216Y-88329480D01*
X110345284Y-88250423D01*
X110192557Y-88209500D01*
X110034443Y-88209500D01*
X109881716Y-88250423D01*
X109744784Y-88329480D01*
X109632980Y-88441284D01*
X109553923Y-88578216D01*
X109513000Y-88730943D01*
X100500500Y-88730943D01*
X100500500Y-83381904D01*
X133999500Y-83381904D01*
X133999500Y-83618095D01*
X134036445Y-83851363D01*
X134109432Y-84075992D01*
X134169291Y-84193473D01*
X134216657Y-84286433D01*
X134355483Y-84477510D01*
X134522490Y-84644517D01*
X134713567Y-84783343D01*
X134924008Y-84890568D01*
X135148632Y-84963553D01*
X135148633Y-84963553D01*
X135148636Y-84963554D01*
X135381905Y-85000500D01*
X135381908Y-85000500D01*
X135618095Y-85000500D01*
X135851363Y-84963554D01*
X135851364Y-84963553D01*
X135851368Y-84963553D01*
X136075992Y-84890568D01*
X136286433Y-84783343D01*
X136477510Y-84644517D01*
X136644517Y-84477510D01*
X136783343Y-84286433D01*
X136890568Y-84075992D01*
X136955832Y-83875130D01*
X139219500Y-83875130D01*
X139219500Y-85664860D01*
X139219501Y-85664863D01*
X139222414Y-85689990D01*
X139247756Y-85747385D01*
X139267794Y-85792765D01*
X139347235Y-85872206D01*
X139450009Y-85917585D01*
X139475135Y-85920500D01*
X141264864Y-85920499D01*
X141289991Y-85917585D01*
X141392765Y-85872206D01*
X141472206Y-85792765D01*
X141517585Y-85689991D01*
X141520500Y-85664865D01*
X141520499Y-84679450D01*
X141759500Y-84679450D01*
X141759500Y-84860549D01*
X141787828Y-85039406D01*
X141843788Y-85211637D01*
X141912519Y-85346530D01*
X141926004Y-85372994D01*
X142032447Y-85519501D01*
X142160499Y-85647553D01*
X142307006Y-85753996D01*
X142468361Y-85836211D01*
X142640591Y-85892171D01*
X142712136Y-85903502D01*
X142819451Y-85920500D01*
X142819454Y-85920500D01*
X143000549Y-85920500D01*
X143089977Y-85906335D01*
X143179409Y-85892171D01*
X143351639Y-85836211D01*
X143512994Y-85753996D01*
X143659501Y-85647553D01*
X143787553Y-85519501D01*
X143893996Y-85372994D01*
X143976211Y-85211639D01*
X144032171Y-85039409D01*
X144060500Y-84860546D01*
X144060500Y-84679454D01*
X144060500Y-84679450D01*
X144299500Y-84679450D01*
X144299500Y-84860549D01*
X144327828Y-85039406D01*
X144383788Y-85211637D01*
X144452519Y-85346530D01*
X144466004Y-85372994D01*
X144572447Y-85519501D01*
X144700499Y-85647553D01*
X144847006Y-85753996D01*
X145008361Y-85836211D01*
X145180591Y-85892171D01*
X145252136Y-85903502D01*
X145359451Y-85920500D01*
X145359454Y-85920500D01*
X145540549Y-85920500D01*
X145629977Y-85906335D01*
X145719409Y-85892171D01*
X145891639Y-85836211D01*
X146052994Y-85753996D01*
X146199501Y-85647553D01*
X146327553Y-85519501D01*
X146433996Y-85372994D01*
X146516211Y-85211639D01*
X146572171Y-85039409D01*
X146600500Y-84860546D01*
X146600500Y-84679454D01*
X146600500Y-84679450D01*
X146839500Y-84679450D01*
X146839500Y-84860549D01*
X146867828Y-85039406D01*
X146923788Y-85211637D01*
X146992519Y-85346530D01*
X147006004Y-85372994D01*
X147112447Y-85519501D01*
X147240499Y-85647553D01*
X147387006Y-85753996D01*
X147548361Y-85836211D01*
X147720591Y-85892171D01*
X147792136Y-85903502D01*
X147899451Y-85920500D01*
X147899454Y-85920500D01*
X148080549Y-85920500D01*
X148169977Y-85906335D01*
X148259409Y-85892171D01*
X148431639Y-85836211D01*
X148592994Y-85753996D01*
X148739501Y-85647553D01*
X148867553Y-85519501D01*
X148973996Y-85372994D01*
X149056211Y-85211639D01*
X149112171Y-85039409D01*
X149140500Y-84860546D01*
X149140500Y-84683424D01*
X149430000Y-84683424D01*
X149430000Y-84856575D01*
X149457084Y-85027579D01*
X149510588Y-85192248D01*
X149589194Y-85346522D01*
X149623463Y-85393691D01*
X150061979Y-84955174D01*
X150064075Y-84962993D01*
X150129901Y-85077007D01*
X150222993Y-85170099D01*
X150337007Y-85235925D01*
X150344822Y-85238019D01*
X149906307Y-85676535D01*
X149953476Y-85710804D01*
X150107751Y-85789411D01*
X150272420Y-85842915D01*
X150443425Y-85870000D01*
X150616575Y-85870000D01*
X150787579Y-85842915D01*
X150952248Y-85789411D01*
X151106524Y-85710804D01*
X151106530Y-85710800D01*
X151153691Y-85676535D01*
X150715175Y-85238019D01*
X150722993Y-85235925D01*
X150837007Y-85170099D01*
X150930099Y-85077007D01*
X150995925Y-84962993D01*
X150998019Y-84955175D01*
X151436535Y-85393691D01*
X151470800Y-85346530D01*
X151470804Y-85346524D01*
X151549411Y-85192248D01*
X151602915Y-85027579D01*
X151630000Y-84856575D01*
X151630000Y-84683425D01*
X151629999Y-84683424D01*
X151629370Y-84679450D01*
X151919500Y-84679450D01*
X151919500Y-84860549D01*
X151947828Y-85039406D01*
X152003788Y-85211637D01*
X152072519Y-85346530D01*
X152086004Y-85372994D01*
X152192447Y-85519501D01*
X152320499Y-85647553D01*
X152467006Y-85753996D01*
X152628361Y-85836211D01*
X152800591Y-85892171D01*
X152872136Y-85903502D01*
X152979451Y-85920500D01*
X152979454Y-85920500D01*
X153160549Y-85920500D01*
X153249977Y-85906335D01*
X153339409Y-85892171D01*
X153511639Y-85836211D01*
X153672994Y-85753996D01*
X153819501Y-85647553D01*
X153947553Y-85519501D01*
X154053996Y-85372994D01*
X154136211Y-85211639D01*
X154192171Y-85039409D01*
X154220500Y-84860546D01*
X154220500Y-84679454D01*
X154220500Y-84679450D01*
X154459500Y-84679450D01*
X154459500Y-84860549D01*
X154487828Y-85039406D01*
X154543788Y-85211637D01*
X154612519Y-85346530D01*
X154626004Y-85372994D01*
X154732447Y-85519501D01*
X154860499Y-85647553D01*
X155007006Y-85753996D01*
X155168361Y-85836211D01*
X155340591Y-85892171D01*
X155412136Y-85903502D01*
X155519451Y-85920500D01*
X155519454Y-85920500D01*
X155700549Y-85920500D01*
X155789977Y-85906335D01*
X155879409Y-85892171D01*
X156051639Y-85836211D01*
X156212994Y-85753996D01*
X156359501Y-85647553D01*
X156487553Y-85519501D01*
X156593996Y-85372994D01*
X156676211Y-85211639D01*
X156732171Y-85039409D01*
X156760500Y-84860546D01*
X156760500Y-84679454D01*
X156760500Y-84679450D01*
X156999500Y-84679450D01*
X156999500Y-84860549D01*
X157027828Y-85039406D01*
X157083788Y-85211637D01*
X157152519Y-85346530D01*
X157166004Y-85372994D01*
X157272447Y-85519501D01*
X157400499Y-85647553D01*
X157547006Y-85753996D01*
X157708361Y-85836211D01*
X157880591Y-85892171D01*
X157952136Y-85903502D01*
X158059451Y-85920500D01*
X158059454Y-85920500D01*
X158240549Y-85920500D01*
X158329977Y-85906335D01*
X158419409Y-85892171D01*
X158591639Y-85836211D01*
X158752994Y-85753996D01*
X158899501Y-85647553D01*
X159027553Y-85519501D01*
X159133996Y-85372994D01*
X159216211Y-85211639D01*
X159272171Y-85039409D01*
X159300500Y-84860546D01*
X159300500Y-84679454D01*
X159300500Y-84679450D01*
X159539500Y-84679450D01*
X159539500Y-84860549D01*
X159567828Y-85039406D01*
X159623788Y-85211637D01*
X159692519Y-85346530D01*
X159706004Y-85372994D01*
X159812447Y-85519501D01*
X159940499Y-85647553D01*
X160087006Y-85753996D01*
X160248361Y-85836211D01*
X160420591Y-85892171D01*
X160492136Y-85903502D01*
X160599451Y-85920500D01*
X160599454Y-85920500D01*
X160780549Y-85920500D01*
X160869977Y-85906335D01*
X160959409Y-85892171D01*
X161131639Y-85836211D01*
X161292994Y-85753996D01*
X161439501Y-85647553D01*
X161567553Y-85519501D01*
X161673996Y-85372994D01*
X161756211Y-85211639D01*
X161812171Y-85039409D01*
X161840500Y-84860546D01*
X161840500Y-84679454D01*
X161840500Y-84679450D01*
X162079500Y-84679450D01*
X162079500Y-84860549D01*
X162107828Y-85039406D01*
X162163788Y-85211637D01*
X162232519Y-85346530D01*
X162246004Y-85372994D01*
X162352447Y-85519501D01*
X162480499Y-85647553D01*
X162627006Y-85753996D01*
X162788361Y-85836211D01*
X162960591Y-85892171D01*
X163032136Y-85903502D01*
X163139451Y-85920500D01*
X163139454Y-85920500D01*
X163320549Y-85920500D01*
X163409977Y-85906335D01*
X163499409Y-85892171D01*
X163671639Y-85836211D01*
X163832994Y-85753996D01*
X163979501Y-85647553D01*
X164107553Y-85519501D01*
X164213996Y-85372994D01*
X164296211Y-85211639D01*
X164352171Y-85039409D01*
X164380500Y-84860546D01*
X164380500Y-84679454D01*
X164380500Y-84679450D01*
X164619500Y-84679450D01*
X164619500Y-84860549D01*
X164647828Y-85039406D01*
X164703788Y-85211637D01*
X164772519Y-85346530D01*
X164786004Y-85372994D01*
X164892447Y-85519501D01*
X165020499Y-85647553D01*
X165167006Y-85753996D01*
X165328361Y-85836211D01*
X165500591Y-85892171D01*
X165572136Y-85903502D01*
X165679451Y-85920500D01*
X165679454Y-85920500D01*
X165860549Y-85920500D01*
X165949977Y-85906335D01*
X166039409Y-85892171D01*
X166211639Y-85836211D01*
X166372994Y-85753996D01*
X166519501Y-85647553D01*
X166647553Y-85519501D01*
X166753996Y-85372994D01*
X166836211Y-85211639D01*
X166892171Y-85039409D01*
X166920500Y-84860546D01*
X166920500Y-84679454D01*
X166920500Y-84679450D01*
X167159500Y-84679450D01*
X167159500Y-84860549D01*
X167187828Y-85039406D01*
X167243788Y-85211637D01*
X167312519Y-85346530D01*
X167326004Y-85372994D01*
X167432447Y-85519501D01*
X167560499Y-85647553D01*
X167707006Y-85753996D01*
X167868361Y-85836211D01*
X168040591Y-85892171D01*
X168112136Y-85903502D01*
X168219451Y-85920500D01*
X168219454Y-85920500D01*
X168400549Y-85920500D01*
X168489977Y-85906335D01*
X168579409Y-85892171D01*
X168751639Y-85836211D01*
X168912994Y-85753996D01*
X169059501Y-85647553D01*
X169187553Y-85519501D01*
X169293996Y-85372994D01*
X169376211Y-85211639D01*
X169432171Y-85039409D01*
X169460500Y-84860546D01*
X169460500Y-84683424D01*
X169750000Y-84683424D01*
X169750000Y-84856575D01*
X169777084Y-85027579D01*
X169830588Y-85192248D01*
X169909194Y-85346522D01*
X169943463Y-85393691D01*
X170381979Y-84955174D01*
X170384075Y-84962993D01*
X170449901Y-85077007D01*
X170542993Y-85170099D01*
X170657007Y-85235925D01*
X170664822Y-85238019D01*
X170226307Y-85676535D01*
X170273476Y-85710804D01*
X170427751Y-85789411D01*
X170592420Y-85842915D01*
X170763425Y-85870000D01*
X170936575Y-85870000D01*
X171107579Y-85842915D01*
X171272248Y-85789411D01*
X171426524Y-85710804D01*
X171426530Y-85710800D01*
X171473691Y-85676535D01*
X171035175Y-85238019D01*
X171042993Y-85235925D01*
X171157007Y-85170099D01*
X171250099Y-85077007D01*
X171315925Y-84962993D01*
X171318019Y-84955175D01*
X171756535Y-85393691D01*
X171790800Y-85346530D01*
X171790804Y-85346524D01*
X171869411Y-85192248D01*
X171922915Y-85027579D01*
X171950000Y-84856575D01*
X171950000Y-84683425D01*
X171949999Y-84683424D01*
X171949370Y-84679450D01*
X172239500Y-84679450D01*
X172239500Y-84860549D01*
X172267828Y-85039406D01*
X172323788Y-85211637D01*
X172392519Y-85346530D01*
X172406004Y-85372994D01*
X172512447Y-85519501D01*
X172640499Y-85647553D01*
X172787006Y-85753996D01*
X172948361Y-85836211D01*
X173120591Y-85892171D01*
X173192136Y-85903502D01*
X173299451Y-85920500D01*
X173299454Y-85920500D01*
X173480549Y-85920500D01*
X173569977Y-85906335D01*
X173659409Y-85892171D01*
X173831639Y-85836211D01*
X173992994Y-85753996D01*
X174139501Y-85647553D01*
X174267553Y-85519501D01*
X174373996Y-85372994D01*
X174456211Y-85211639D01*
X174512171Y-85039409D01*
X174540500Y-84860546D01*
X174540500Y-84679454D01*
X174540500Y-84679450D01*
X174779500Y-84679450D01*
X174779500Y-84860549D01*
X174807828Y-85039406D01*
X174863788Y-85211637D01*
X174932519Y-85346530D01*
X174946004Y-85372994D01*
X175052447Y-85519501D01*
X175180499Y-85647553D01*
X175327006Y-85753996D01*
X175488361Y-85836211D01*
X175660591Y-85892171D01*
X175732136Y-85903502D01*
X175839451Y-85920500D01*
X175839454Y-85920500D01*
X176020549Y-85920500D01*
X176109977Y-85906335D01*
X176199409Y-85892171D01*
X176371639Y-85836211D01*
X176532994Y-85753996D01*
X176679501Y-85647553D01*
X176807553Y-85519501D01*
X176913996Y-85372994D01*
X176996211Y-85211639D01*
X177052171Y-85039409D01*
X177080500Y-84860546D01*
X177080500Y-84679454D01*
X177080500Y-84679450D01*
X177319500Y-84679450D01*
X177319500Y-84860549D01*
X177347828Y-85039406D01*
X177403788Y-85211637D01*
X177472519Y-85346530D01*
X177486004Y-85372994D01*
X177592447Y-85519501D01*
X177720499Y-85647553D01*
X177867006Y-85753996D01*
X178028361Y-85836211D01*
X178200591Y-85892171D01*
X178272136Y-85903502D01*
X178379451Y-85920500D01*
X178379454Y-85920500D01*
X178560549Y-85920500D01*
X178649977Y-85906335D01*
X178739409Y-85892171D01*
X178911639Y-85836211D01*
X179072994Y-85753996D01*
X179219501Y-85647553D01*
X179347553Y-85519501D01*
X179453996Y-85372994D01*
X179536211Y-85211639D01*
X179592171Y-85039409D01*
X179620500Y-84860546D01*
X179620500Y-84679454D01*
X179620500Y-84679450D01*
X179859500Y-84679450D01*
X179859500Y-84860549D01*
X179887828Y-85039406D01*
X179943788Y-85211637D01*
X180012519Y-85346530D01*
X180026004Y-85372994D01*
X180132447Y-85519501D01*
X180260499Y-85647553D01*
X180407006Y-85753996D01*
X180568361Y-85836211D01*
X180740591Y-85892171D01*
X180812136Y-85903502D01*
X180919451Y-85920500D01*
X180919454Y-85920500D01*
X181100549Y-85920500D01*
X181189977Y-85906335D01*
X181279409Y-85892171D01*
X181451639Y-85836211D01*
X181612994Y-85753996D01*
X181759501Y-85647553D01*
X181887553Y-85519501D01*
X181993996Y-85372994D01*
X182076211Y-85211639D01*
X182132171Y-85039409D01*
X182160500Y-84860546D01*
X182160500Y-84679454D01*
X182160500Y-84679450D01*
X182399500Y-84679450D01*
X182399500Y-84860549D01*
X182427828Y-85039406D01*
X182483788Y-85211637D01*
X182552519Y-85346530D01*
X182566004Y-85372994D01*
X182672447Y-85519501D01*
X182800499Y-85647553D01*
X182947006Y-85753996D01*
X183108361Y-85836211D01*
X183280591Y-85892171D01*
X183352136Y-85903502D01*
X183459451Y-85920500D01*
X183459454Y-85920500D01*
X183640549Y-85920500D01*
X183729977Y-85906335D01*
X183819409Y-85892171D01*
X183991639Y-85836211D01*
X184152994Y-85753996D01*
X184299501Y-85647553D01*
X184427553Y-85519501D01*
X184533996Y-85372994D01*
X184616211Y-85211639D01*
X184672171Y-85039409D01*
X184700500Y-84860546D01*
X184700500Y-84679454D01*
X184700500Y-84679450D01*
X184939500Y-84679450D01*
X184939500Y-84860549D01*
X184967828Y-85039406D01*
X185023788Y-85211637D01*
X185092519Y-85346530D01*
X185106004Y-85372994D01*
X185212447Y-85519501D01*
X185340499Y-85647553D01*
X185487006Y-85753996D01*
X185648361Y-85836211D01*
X185820591Y-85892171D01*
X185892136Y-85903502D01*
X185999451Y-85920500D01*
X185999454Y-85920500D01*
X186180549Y-85920500D01*
X186269977Y-85906335D01*
X186359409Y-85892171D01*
X186531639Y-85836211D01*
X186692994Y-85753996D01*
X186839501Y-85647553D01*
X186967553Y-85519501D01*
X187073996Y-85372994D01*
X187156211Y-85211639D01*
X187212171Y-85039409D01*
X187240500Y-84860546D01*
X187240500Y-84683424D01*
X187530000Y-84683424D01*
X187530000Y-84856575D01*
X187557084Y-85027579D01*
X187610588Y-85192248D01*
X187689194Y-85346522D01*
X187723463Y-85393691D01*
X188161979Y-84955174D01*
X188164075Y-84962993D01*
X188229901Y-85077007D01*
X188322993Y-85170099D01*
X188437007Y-85235925D01*
X188444822Y-85238019D01*
X188006307Y-85676535D01*
X188053476Y-85710804D01*
X188207751Y-85789411D01*
X188372420Y-85842915D01*
X188543425Y-85870000D01*
X188716575Y-85870000D01*
X188887579Y-85842915D01*
X189052248Y-85789411D01*
X189206524Y-85710804D01*
X189206530Y-85710800D01*
X189253691Y-85676535D01*
X188815175Y-85238019D01*
X188822993Y-85235925D01*
X188937007Y-85170099D01*
X189030099Y-85077007D01*
X189095925Y-84962993D01*
X189098019Y-84955175D01*
X189536535Y-85393691D01*
X189570800Y-85346530D01*
X189570804Y-85346524D01*
X189649411Y-85192248D01*
X189702915Y-85027579D01*
X189730000Y-84856575D01*
X189730000Y-84683424D01*
X189702915Y-84512420D01*
X189649411Y-84347751D01*
X189570804Y-84193476D01*
X189536535Y-84146307D01*
X189098019Y-84584822D01*
X189095925Y-84577007D01*
X189030099Y-84462993D01*
X188937007Y-84369901D01*
X188822993Y-84304075D01*
X188815174Y-84301979D01*
X189253691Y-83863463D01*
X189206522Y-83829194D01*
X189052248Y-83750588D01*
X188887579Y-83697084D01*
X188716575Y-83670000D01*
X188543425Y-83670000D01*
X188372420Y-83697084D01*
X188207751Y-83750588D01*
X188053473Y-83829196D01*
X188006307Y-83863463D01*
X188444824Y-84301980D01*
X188437007Y-84304075D01*
X188322993Y-84369901D01*
X188229901Y-84462993D01*
X188164075Y-84577007D01*
X188161980Y-84584824D01*
X187723463Y-84146307D01*
X187689196Y-84193473D01*
X187610588Y-84347751D01*
X187557084Y-84512420D01*
X187530000Y-84683424D01*
X187240500Y-84683424D01*
X187240500Y-84679454D01*
X187240500Y-84679450D01*
X187221614Y-84560212D01*
X187212171Y-84500591D01*
X187156211Y-84328361D01*
X187073996Y-84167006D01*
X186967553Y-84020499D01*
X186839501Y-83892447D01*
X186692994Y-83786004D01*
X186692993Y-83786003D01*
X186692991Y-83786002D01*
X186531637Y-83703788D01*
X186359406Y-83647828D01*
X186180549Y-83619500D01*
X186180546Y-83619500D01*
X185999454Y-83619500D01*
X185999451Y-83619500D01*
X185820593Y-83647828D01*
X185648362Y-83703788D01*
X185487008Y-83786002D01*
X185427560Y-83829194D01*
X185340499Y-83892447D01*
X185212447Y-84020499D01*
X185172129Y-84075992D01*
X185106002Y-84167008D01*
X185023788Y-84328362D01*
X184967828Y-84500593D01*
X184939500Y-84679450D01*
X184700500Y-84679450D01*
X184681614Y-84560212D01*
X184672171Y-84500591D01*
X184616211Y-84328361D01*
X184533996Y-84167006D01*
X184427553Y-84020499D01*
X184299501Y-83892447D01*
X184152994Y-83786004D01*
X184152993Y-83786003D01*
X184152991Y-83786002D01*
X183991637Y-83703788D01*
X183819406Y-83647828D01*
X183640549Y-83619500D01*
X183640546Y-83619500D01*
X183459454Y-83619500D01*
X183459451Y-83619500D01*
X183280593Y-83647828D01*
X183108362Y-83703788D01*
X182947008Y-83786002D01*
X182887560Y-83829194D01*
X182800499Y-83892447D01*
X182672447Y-84020499D01*
X182632129Y-84075992D01*
X182566002Y-84167008D01*
X182483788Y-84328362D01*
X182427828Y-84500593D01*
X182399500Y-84679450D01*
X182160500Y-84679450D01*
X182141614Y-84560212D01*
X182132171Y-84500591D01*
X182076211Y-84328361D01*
X181993996Y-84167006D01*
X181887553Y-84020499D01*
X181759501Y-83892447D01*
X181612994Y-83786004D01*
X181612993Y-83786003D01*
X181612991Y-83786002D01*
X181451637Y-83703788D01*
X181279406Y-83647828D01*
X181100549Y-83619500D01*
X181100546Y-83619500D01*
X180919454Y-83619500D01*
X180919451Y-83619500D01*
X180740593Y-83647828D01*
X180568362Y-83703788D01*
X180407008Y-83786002D01*
X180347560Y-83829194D01*
X180260499Y-83892447D01*
X180132447Y-84020499D01*
X180092129Y-84075992D01*
X180026002Y-84167008D01*
X179943788Y-84328362D01*
X179887828Y-84500593D01*
X179859500Y-84679450D01*
X179620500Y-84679450D01*
X179601614Y-84560212D01*
X179592171Y-84500591D01*
X179536211Y-84328361D01*
X179453996Y-84167006D01*
X179347553Y-84020499D01*
X179219501Y-83892447D01*
X179072994Y-83786004D01*
X179072993Y-83786003D01*
X179072991Y-83786002D01*
X178911637Y-83703788D01*
X178739406Y-83647828D01*
X178560549Y-83619500D01*
X178560546Y-83619500D01*
X178379454Y-83619500D01*
X178379451Y-83619500D01*
X178200593Y-83647828D01*
X178028362Y-83703788D01*
X177867008Y-83786002D01*
X177807560Y-83829194D01*
X177720499Y-83892447D01*
X177592447Y-84020499D01*
X177552129Y-84075992D01*
X177486002Y-84167008D01*
X177403788Y-84328362D01*
X177347828Y-84500593D01*
X177319500Y-84679450D01*
X177080500Y-84679450D01*
X177061614Y-84560212D01*
X177052171Y-84500591D01*
X176996211Y-84328361D01*
X176913996Y-84167006D01*
X176807553Y-84020499D01*
X176679501Y-83892447D01*
X176532994Y-83786004D01*
X176532993Y-83786003D01*
X176532991Y-83786002D01*
X176371637Y-83703788D01*
X176199406Y-83647828D01*
X176020549Y-83619500D01*
X176020546Y-83619500D01*
X175839454Y-83619500D01*
X175839451Y-83619500D01*
X175660593Y-83647828D01*
X175488362Y-83703788D01*
X175327008Y-83786002D01*
X175267560Y-83829194D01*
X175180499Y-83892447D01*
X175052447Y-84020499D01*
X175012129Y-84075992D01*
X174946002Y-84167008D01*
X174863788Y-84328362D01*
X174807828Y-84500593D01*
X174779500Y-84679450D01*
X174540500Y-84679450D01*
X174521614Y-84560212D01*
X174512171Y-84500591D01*
X174456211Y-84328361D01*
X174373996Y-84167006D01*
X174267553Y-84020499D01*
X174139501Y-83892447D01*
X173992994Y-83786004D01*
X173992993Y-83786003D01*
X173992991Y-83786002D01*
X173831637Y-83703788D01*
X173659406Y-83647828D01*
X173480549Y-83619500D01*
X173480546Y-83619500D01*
X173299454Y-83619500D01*
X173299451Y-83619500D01*
X173120593Y-83647828D01*
X172948362Y-83703788D01*
X172787008Y-83786002D01*
X172727560Y-83829194D01*
X172640499Y-83892447D01*
X172512447Y-84020499D01*
X172472129Y-84075992D01*
X172406002Y-84167008D01*
X172323788Y-84328362D01*
X172267828Y-84500593D01*
X172239500Y-84679450D01*
X171949370Y-84679450D01*
X171922915Y-84512420D01*
X171869411Y-84347751D01*
X171790804Y-84193476D01*
X171756535Y-84146307D01*
X171318019Y-84584822D01*
X171315925Y-84577007D01*
X171250099Y-84462993D01*
X171157007Y-84369901D01*
X171042993Y-84304075D01*
X171035174Y-84301979D01*
X171473691Y-83863463D01*
X171426522Y-83829194D01*
X171272248Y-83750588D01*
X171107579Y-83697084D01*
X170936575Y-83670000D01*
X170763425Y-83670000D01*
X170592420Y-83697084D01*
X170427751Y-83750588D01*
X170273473Y-83829196D01*
X170226307Y-83863463D01*
X170664824Y-84301980D01*
X170657007Y-84304075D01*
X170542993Y-84369901D01*
X170449901Y-84462993D01*
X170384075Y-84577007D01*
X170381980Y-84584824D01*
X169943463Y-84146307D01*
X169909196Y-84193473D01*
X169830588Y-84347751D01*
X169777084Y-84512420D01*
X169750000Y-84683424D01*
X169460500Y-84683424D01*
X169460500Y-84679454D01*
X169460500Y-84679450D01*
X169441614Y-84560212D01*
X169432171Y-84500591D01*
X169376211Y-84328361D01*
X169293996Y-84167006D01*
X169187553Y-84020499D01*
X169059501Y-83892447D01*
X168912994Y-83786004D01*
X168912993Y-83786003D01*
X168912991Y-83786002D01*
X168751637Y-83703788D01*
X168579406Y-83647828D01*
X168400549Y-83619500D01*
X168400546Y-83619500D01*
X168219454Y-83619500D01*
X168219451Y-83619500D01*
X168040593Y-83647828D01*
X167868362Y-83703788D01*
X167707008Y-83786002D01*
X167647560Y-83829194D01*
X167560499Y-83892447D01*
X167432447Y-84020499D01*
X167392129Y-84075992D01*
X167326002Y-84167008D01*
X167243788Y-84328362D01*
X167187828Y-84500593D01*
X167159500Y-84679450D01*
X166920500Y-84679450D01*
X166901614Y-84560212D01*
X166892171Y-84500591D01*
X166836211Y-84328361D01*
X166753996Y-84167006D01*
X166647553Y-84020499D01*
X166519501Y-83892447D01*
X166372994Y-83786004D01*
X166372993Y-83786003D01*
X166372991Y-83786002D01*
X166211637Y-83703788D01*
X166039406Y-83647828D01*
X165860549Y-83619500D01*
X165860546Y-83619500D01*
X165679454Y-83619500D01*
X165679451Y-83619500D01*
X165500593Y-83647828D01*
X165328362Y-83703788D01*
X165167008Y-83786002D01*
X165107560Y-83829194D01*
X165020499Y-83892447D01*
X164892447Y-84020499D01*
X164852129Y-84075992D01*
X164786002Y-84167008D01*
X164703788Y-84328362D01*
X164647828Y-84500593D01*
X164619500Y-84679450D01*
X164380500Y-84679450D01*
X164361614Y-84560212D01*
X164352171Y-84500591D01*
X164296211Y-84328361D01*
X164213996Y-84167006D01*
X164107553Y-84020499D01*
X163979501Y-83892447D01*
X163832994Y-83786004D01*
X163832993Y-83786003D01*
X163832991Y-83786002D01*
X163671637Y-83703788D01*
X163499406Y-83647828D01*
X163320549Y-83619500D01*
X163320546Y-83619500D01*
X163139454Y-83619500D01*
X163139451Y-83619500D01*
X162960593Y-83647828D01*
X162788362Y-83703788D01*
X162627008Y-83786002D01*
X162567560Y-83829194D01*
X162480499Y-83892447D01*
X162352447Y-84020499D01*
X162312129Y-84075992D01*
X162246002Y-84167008D01*
X162163788Y-84328362D01*
X162107828Y-84500593D01*
X162079500Y-84679450D01*
X161840500Y-84679450D01*
X161821614Y-84560212D01*
X161812171Y-84500591D01*
X161756211Y-84328361D01*
X161673996Y-84167006D01*
X161567553Y-84020499D01*
X161439501Y-83892447D01*
X161292994Y-83786004D01*
X161292993Y-83786003D01*
X161292991Y-83786002D01*
X161131637Y-83703788D01*
X160959406Y-83647828D01*
X160780549Y-83619500D01*
X160780546Y-83619500D01*
X160599454Y-83619500D01*
X160599451Y-83619500D01*
X160420593Y-83647828D01*
X160248362Y-83703788D01*
X160087008Y-83786002D01*
X160027560Y-83829194D01*
X159940499Y-83892447D01*
X159812447Y-84020499D01*
X159772129Y-84075992D01*
X159706002Y-84167008D01*
X159623788Y-84328362D01*
X159567828Y-84500593D01*
X159539500Y-84679450D01*
X159300500Y-84679450D01*
X159281614Y-84560212D01*
X159272171Y-84500591D01*
X159216211Y-84328361D01*
X159133996Y-84167006D01*
X159027553Y-84020499D01*
X158899501Y-83892447D01*
X158752994Y-83786004D01*
X158752993Y-83786003D01*
X158752991Y-83786002D01*
X158591637Y-83703788D01*
X158419406Y-83647828D01*
X158240549Y-83619500D01*
X158240546Y-83619500D01*
X158059454Y-83619500D01*
X158059451Y-83619500D01*
X157880593Y-83647828D01*
X157708362Y-83703788D01*
X157547008Y-83786002D01*
X157487560Y-83829194D01*
X157400499Y-83892447D01*
X157272447Y-84020499D01*
X157232129Y-84075992D01*
X157166002Y-84167008D01*
X157083788Y-84328362D01*
X157027828Y-84500593D01*
X156999500Y-84679450D01*
X156760500Y-84679450D01*
X156741614Y-84560212D01*
X156732171Y-84500591D01*
X156676211Y-84328361D01*
X156593996Y-84167006D01*
X156487553Y-84020499D01*
X156359501Y-83892447D01*
X156212994Y-83786004D01*
X156212993Y-83786003D01*
X156212991Y-83786002D01*
X156051637Y-83703788D01*
X155879406Y-83647828D01*
X155700549Y-83619500D01*
X155700546Y-83619500D01*
X155519454Y-83619500D01*
X155519451Y-83619500D01*
X155340593Y-83647828D01*
X155168362Y-83703788D01*
X155007008Y-83786002D01*
X154947560Y-83829194D01*
X154860499Y-83892447D01*
X154732447Y-84020499D01*
X154692129Y-84075992D01*
X154626002Y-84167008D01*
X154543788Y-84328362D01*
X154487828Y-84500593D01*
X154459500Y-84679450D01*
X154220500Y-84679450D01*
X154201614Y-84560212D01*
X154192171Y-84500591D01*
X154136211Y-84328361D01*
X154053996Y-84167006D01*
X153947553Y-84020499D01*
X153819501Y-83892447D01*
X153672994Y-83786004D01*
X153672993Y-83786003D01*
X153672991Y-83786002D01*
X153511637Y-83703788D01*
X153339406Y-83647828D01*
X153160549Y-83619500D01*
X153160546Y-83619500D01*
X152979454Y-83619500D01*
X152979451Y-83619500D01*
X152800593Y-83647828D01*
X152628362Y-83703788D01*
X152467008Y-83786002D01*
X152407560Y-83829194D01*
X152320499Y-83892447D01*
X152192447Y-84020499D01*
X152152129Y-84075992D01*
X152086002Y-84167008D01*
X152003788Y-84328362D01*
X151947828Y-84500593D01*
X151919500Y-84679450D01*
X151629370Y-84679450D01*
X151602915Y-84512420D01*
X151549411Y-84347751D01*
X151470804Y-84193476D01*
X151436535Y-84146307D01*
X150998019Y-84584822D01*
X150995925Y-84577007D01*
X150930099Y-84462993D01*
X150837007Y-84369901D01*
X150722993Y-84304075D01*
X150715174Y-84301979D01*
X151153691Y-83863463D01*
X151106522Y-83829194D01*
X150952248Y-83750588D01*
X150787579Y-83697084D01*
X150616575Y-83670000D01*
X150443425Y-83670000D01*
X150272420Y-83697084D01*
X150107751Y-83750588D01*
X149953473Y-83829196D01*
X149906307Y-83863463D01*
X150344824Y-84301980D01*
X150337007Y-84304075D01*
X150222993Y-84369901D01*
X150129901Y-84462993D01*
X150064075Y-84577007D01*
X150061980Y-84584824D01*
X149623463Y-84146307D01*
X149589196Y-84193473D01*
X149510588Y-84347751D01*
X149457084Y-84512420D01*
X149430000Y-84683424D01*
X149140500Y-84683424D01*
X149140500Y-84679454D01*
X149140500Y-84679450D01*
X149121614Y-84560212D01*
X149112171Y-84500591D01*
X149056211Y-84328361D01*
X148973996Y-84167006D01*
X148867553Y-84020499D01*
X148739501Y-83892447D01*
X148592994Y-83786004D01*
X148592993Y-83786003D01*
X148592991Y-83786002D01*
X148431637Y-83703788D01*
X148259406Y-83647828D01*
X148080549Y-83619500D01*
X148080546Y-83619500D01*
X147899454Y-83619500D01*
X147899451Y-83619500D01*
X147720593Y-83647828D01*
X147548362Y-83703788D01*
X147387008Y-83786002D01*
X147327560Y-83829194D01*
X147240499Y-83892447D01*
X147112447Y-84020499D01*
X147072129Y-84075992D01*
X147006002Y-84167008D01*
X146923788Y-84328362D01*
X146867828Y-84500593D01*
X146839500Y-84679450D01*
X146600500Y-84679450D01*
X146581614Y-84560212D01*
X146572171Y-84500591D01*
X146516211Y-84328361D01*
X146433996Y-84167006D01*
X146327553Y-84020499D01*
X146199501Y-83892447D01*
X146052994Y-83786004D01*
X146052993Y-83786003D01*
X146052991Y-83786002D01*
X145891637Y-83703788D01*
X145719406Y-83647828D01*
X145540549Y-83619500D01*
X145540546Y-83619500D01*
X145359454Y-83619500D01*
X145359451Y-83619500D01*
X145180593Y-83647828D01*
X145008362Y-83703788D01*
X144847008Y-83786002D01*
X144787560Y-83829194D01*
X144700499Y-83892447D01*
X144572447Y-84020499D01*
X144532129Y-84075992D01*
X144466002Y-84167008D01*
X144383788Y-84328362D01*
X144327828Y-84500593D01*
X144299500Y-84679450D01*
X144060500Y-84679450D01*
X144041614Y-84560212D01*
X144032171Y-84500591D01*
X143976211Y-84328361D01*
X143893996Y-84167006D01*
X143787553Y-84020499D01*
X143659501Y-83892447D01*
X143512994Y-83786004D01*
X143512993Y-83786003D01*
X143512991Y-83786002D01*
X143351637Y-83703788D01*
X143179406Y-83647828D01*
X143000549Y-83619500D01*
X143000546Y-83619500D01*
X142819454Y-83619500D01*
X142819451Y-83619500D01*
X142640593Y-83647828D01*
X142468362Y-83703788D01*
X142307008Y-83786002D01*
X142247560Y-83829194D01*
X142160499Y-83892447D01*
X142032447Y-84020499D01*
X141992129Y-84075992D01*
X141926002Y-84167008D01*
X141843788Y-84328362D01*
X141787828Y-84500593D01*
X141759500Y-84679450D01*
X141520499Y-84679450D01*
X141520499Y-83875136D01*
X141517585Y-83850009D01*
X141472206Y-83747235D01*
X141392765Y-83667794D01*
X141289991Y-83622415D01*
X141289990Y-83622414D01*
X141289988Y-83622414D01*
X141264868Y-83619500D01*
X139475139Y-83619500D01*
X139475136Y-83619501D01*
X139450009Y-83622414D01*
X139347235Y-83667794D01*
X139267794Y-83747235D01*
X139222414Y-83850011D01*
X139219500Y-83875130D01*
X136955832Y-83875130D01*
X136963553Y-83851368D01*
X136986927Y-83703789D01*
X137000500Y-83618095D01*
X137000500Y-83381904D01*
X191999500Y-83381904D01*
X191999500Y-83618095D01*
X192036445Y-83851363D01*
X192109432Y-84075992D01*
X192169291Y-84193473D01*
X192216657Y-84286433D01*
X192355483Y-84477510D01*
X192522490Y-84644517D01*
X192713567Y-84783343D01*
X192924008Y-84890568D01*
X193148632Y-84963553D01*
X193148633Y-84963553D01*
X193148636Y-84963554D01*
X193381905Y-85000500D01*
X193381908Y-85000500D01*
X193618095Y-85000500D01*
X193851363Y-84963554D01*
X193851364Y-84963553D01*
X193851368Y-84963553D01*
X194075992Y-84890568D01*
X194286433Y-84783343D01*
X194477510Y-84644517D01*
X194644517Y-84477510D01*
X194783343Y-84286433D01*
X194890568Y-84075992D01*
X194963553Y-83851368D01*
X194986927Y-83703789D01*
X195000500Y-83618095D01*
X195000500Y-83381904D01*
X194963554Y-83148636D01*
X194959622Y-83136535D01*
X194890568Y-82924008D01*
X194783343Y-82713567D01*
X194644517Y-82522490D01*
X194477510Y-82355483D01*
X194286433Y-82216657D01*
X194286432Y-82216656D01*
X194286430Y-82216655D01*
X194075992Y-82109432D01*
X193851363Y-82036445D01*
X193618095Y-81999500D01*
X193618092Y-81999500D01*
X193381908Y-81999500D01*
X193381905Y-81999500D01*
X193148636Y-82036445D01*
X192924007Y-82109432D01*
X192713569Y-82216655D01*
X192522491Y-82355482D01*
X192355482Y-82522491D01*
X192216655Y-82713569D01*
X192109432Y-82924007D01*
X192036445Y-83148636D01*
X191999500Y-83381904D01*
X137000500Y-83381904D01*
X136963554Y-83148636D01*
X136959622Y-83136535D01*
X136890568Y-82924008D01*
X136783343Y-82713567D01*
X136644517Y-82522490D01*
X136477510Y-82355483D01*
X136286433Y-82216657D01*
X136286432Y-82216656D01*
X136286430Y-82216655D01*
X136134906Y-82139450D01*
X139219500Y-82139450D01*
X139219500Y-82320549D01*
X139247828Y-82499406D01*
X139303788Y-82671637D01*
X139372519Y-82806530D01*
X139386004Y-82832994D01*
X139492447Y-82979501D01*
X139620499Y-83107553D01*
X139767006Y-83213996D01*
X139928361Y-83296211D01*
X140100591Y-83352171D01*
X140172136Y-83363502D01*
X140279451Y-83380500D01*
X140279454Y-83380500D01*
X140460549Y-83380500D01*
X140549977Y-83366335D01*
X140639409Y-83352171D01*
X140811639Y-83296211D01*
X140972994Y-83213996D01*
X141119501Y-83107553D01*
X141247553Y-82979501D01*
X141353996Y-82832994D01*
X141436211Y-82671639D01*
X141492171Y-82499409D01*
X141520500Y-82320546D01*
X141520500Y-82139454D01*
X141520500Y-82139450D01*
X141759500Y-82139450D01*
X141759500Y-82320549D01*
X141787828Y-82499406D01*
X141843788Y-82671637D01*
X141912519Y-82806530D01*
X141926004Y-82832994D01*
X142032447Y-82979501D01*
X142160499Y-83107553D01*
X142307006Y-83213996D01*
X142468361Y-83296211D01*
X142640591Y-83352171D01*
X142712136Y-83363502D01*
X142819451Y-83380500D01*
X142819454Y-83380500D01*
X143000549Y-83380500D01*
X143089977Y-83366335D01*
X143179409Y-83352171D01*
X143351639Y-83296211D01*
X143512994Y-83213996D01*
X143659501Y-83107553D01*
X143787553Y-82979501D01*
X143893996Y-82832994D01*
X143976211Y-82671639D01*
X144032171Y-82499409D01*
X144060500Y-82320546D01*
X144060500Y-82143424D01*
X144350000Y-82143424D01*
X144350000Y-82316575D01*
X144377084Y-82487579D01*
X144430588Y-82652248D01*
X144509194Y-82806522D01*
X144543463Y-82853691D01*
X144981979Y-82415174D01*
X144984075Y-82422993D01*
X145049901Y-82537007D01*
X145142993Y-82630099D01*
X145257007Y-82695925D01*
X145264822Y-82698019D01*
X144826307Y-83136535D01*
X144873476Y-83170804D01*
X145027751Y-83249411D01*
X145192420Y-83302915D01*
X145363425Y-83330000D01*
X145536575Y-83330000D01*
X145707579Y-83302915D01*
X145872248Y-83249411D01*
X146026524Y-83170804D01*
X146026530Y-83170800D01*
X146073691Y-83136535D01*
X145635175Y-82698019D01*
X145642993Y-82695925D01*
X145757007Y-82630099D01*
X145850099Y-82537007D01*
X145915925Y-82422993D01*
X145918019Y-82415175D01*
X146356535Y-82853691D01*
X146390800Y-82806530D01*
X146390804Y-82806524D01*
X146469411Y-82652248D01*
X146522915Y-82487579D01*
X146550000Y-82316575D01*
X146550000Y-82143425D01*
X146549999Y-82143424D01*
X146549370Y-82139450D01*
X146839500Y-82139450D01*
X146839500Y-82320549D01*
X146867828Y-82499406D01*
X146923788Y-82671637D01*
X146992519Y-82806530D01*
X147006004Y-82832994D01*
X147112447Y-82979501D01*
X147240499Y-83107553D01*
X147387006Y-83213996D01*
X147548361Y-83296211D01*
X147720591Y-83352171D01*
X147792136Y-83363502D01*
X147899451Y-83380500D01*
X147899454Y-83380500D01*
X148080549Y-83380500D01*
X148169977Y-83366335D01*
X148259409Y-83352171D01*
X148431639Y-83296211D01*
X148592994Y-83213996D01*
X148739501Y-83107553D01*
X148867553Y-82979501D01*
X148973996Y-82832994D01*
X149056211Y-82671639D01*
X149112171Y-82499409D01*
X149140500Y-82320546D01*
X149140500Y-82139454D01*
X149140500Y-82139450D01*
X149379500Y-82139450D01*
X149379500Y-82320549D01*
X149407828Y-82499406D01*
X149463788Y-82671637D01*
X149532519Y-82806530D01*
X149546004Y-82832994D01*
X149652447Y-82979501D01*
X149780499Y-83107553D01*
X149927006Y-83213996D01*
X150088361Y-83296211D01*
X150260591Y-83352171D01*
X150332136Y-83363502D01*
X150439451Y-83380500D01*
X150439454Y-83380500D01*
X150620549Y-83380500D01*
X150709977Y-83366335D01*
X150799409Y-83352171D01*
X150971639Y-83296211D01*
X151132994Y-83213996D01*
X151279501Y-83107553D01*
X151407553Y-82979501D01*
X151513996Y-82832994D01*
X151596211Y-82671639D01*
X151652171Y-82499409D01*
X151680500Y-82320546D01*
X151680500Y-82139454D01*
X151680500Y-82139450D01*
X151919500Y-82139450D01*
X151919500Y-82320549D01*
X151947828Y-82499406D01*
X152003788Y-82671637D01*
X152072519Y-82806530D01*
X152086004Y-82832994D01*
X152192447Y-82979501D01*
X152320499Y-83107553D01*
X152467006Y-83213996D01*
X152628361Y-83296211D01*
X152800591Y-83352171D01*
X152872136Y-83363502D01*
X152979451Y-83380500D01*
X152979454Y-83380500D01*
X153160549Y-83380500D01*
X153249977Y-83366335D01*
X153339409Y-83352171D01*
X153511639Y-83296211D01*
X153672994Y-83213996D01*
X153819501Y-83107553D01*
X153947553Y-82979501D01*
X154053996Y-82832994D01*
X154136211Y-82671639D01*
X154192171Y-82499409D01*
X154220500Y-82320546D01*
X154220500Y-82143424D01*
X154510000Y-82143424D01*
X154510000Y-82316575D01*
X154537084Y-82487579D01*
X154590588Y-82652248D01*
X154669194Y-82806522D01*
X154703463Y-82853691D01*
X155141979Y-82415174D01*
X155144075Y-82422993D01*
X155209901Y-82537007D01*
X155302993Y-82630099D01*
X155417007Y-82695925D01*
X155424822Y-82698019D01*
X154986307Y-83136535D01*
X155033476Y-83170804D01*
X155187751Y-83249411D01*
X155352420Y-83302915D01*
X155523425Y-83330000D01*
X155696575Y-83330000D01*
X155867579Y-83302915D01*
X156032248Y-83249411D01*
X156186524Y-83170804D01*
X156186530Y-83170800D01*
X156233691Y-83136535D01*
X155795175Y-82698019D01*
X155802993Y-82695925D01*
X155917007Y-82630099D01*
X156010099Y-82537007D01*
X156075925Y-82422993D01*
X156078019Y-82415175D01*
X156516535Y-82853691D01*
X156550800Y-82806530D01*
X156550804Y-82806524D01*
X156629411Y-82652248D01*
X156682915Y-82487579D01*
X156710000Y-82316575D01*
X156710000Y-82143425D01*
X156709999Y-82143424D01*
X156709370Y-82139450D01*
X156999500Y-82139450D01*
X156999500Y-82320549D01*
X157027828Y-82499406D01*
X157083788Y-82671637D01*
X157152519Y-82806530D01*
X157166004Y-82832994D01*
X157272447Y-82979501D01*
X157400499Y-83107553D01*
X157547006Y-83213996D01*
X157708361Y-83296211D01*
X157880591Y-83352171D01*
X157952136Y-83363502D01*
X158059451Y-83380500D01*
X158059454Y-83380500D01*
X158240549Y-83380500D01*
X158329977Y-83366335D01*
X158419409Y-83352171D01*
X158591639Y-83296211D01*
X158752994Y-83213996D01*
X158899501Y-83107553D01*
X159027553Y-82979501D01*
X159133996Y-82832994D01*
X159216211Y-82671639D01*
X159272171Y-82499409D01*
X159300500Y-82320546D01*
X159300500Y-82139454D01*
X159300500Y-82139450D01*
X159539500Y-82139450D01*
X159539500Y-82320549D01*
X159567828Y-82499406D01*
X159623788Y-82671637D01*
X159692519Y-82806530D01*
X159706004Y-82832994D01*
X159812447Y-82979501D01*
X159940499Y-83107553D01*
X160087006Y-83213996D01*
X160248361Y-83296211D01*
X160420591Y-83352171D01*
X160492136Y-83363502D01*
X160599451Y-83380500D01*
X160599454Y-83380500D01*
X160780549Y-83380500D01*
X160869977Y-83366335D01*
X160959409Y-83352171D01*
X161131639Y-83296211D01*
X161292994Y-83213996D01*
X161439501Y-83107553D01*
X161567553Y-82979501D01*
X161673996Y-82832994D01*
X161756211Y-82671639D01*
X161812171Y-82499409D01*
X161840500Y-82320546D01*
X161840500Y-82143424D01*
X162130000Y-82143424D01*
X162130000Y-82316575D01*
X162157084Y-82487579D01*
X162210588Y-82652248D01*
X162289194Y-82806522D01*
X162323463Y-82853691D01*
X162761979Y-82415174D01*
X162764075Y-82422993D01*
X162829901Y-82537007D01*
X162922993Y-82630099D01*
X163037007Y-82695925D01*
X163044822Y-82698019D01*
X162606307Y-83136535D01*
X162653476Y-83170804D01*
X162807751Y-83249411D01*
X162972420Y-83302915D01*
X163143425Y-83330000D01*
X163316575Y-83330000D01*
X163487579Y-83302915D01*
X163652248Y-83249411D01*
X163806524Y-83170804D01*
X163806530Y-83170800D01*
X163853691Y-83136535D01*
X163415175Y-82698019D01*
X163422993Y-82695925D01*
X163537007Y-82630099D01*
X163630099Y-82537007D01*
X163695925Y-82422993D01*
X163698019Y-82415175D01*
X164136535Y-82853691D01*
X164170800Y-82806530D01*
X164170804Y-82806524D01*
X164249411Y-82652248D01*
X164302915Y-82487579D01*
X164330000Y-82316575D01*
X164330000Y-82143425D01*
X164329999Y-82143424D01*
X164329370Y-82139450D01*
X164619500Y-82139450D01*
X164619500Y-82320549D01*
X164647828Y-82499406D01*
X164703788Y-82671637D01*
X164772519Y-82806530D01*
X164786004Y-82832994D01*
X164892447Y-82979501D01*
X165020499Y-83107553D01*
X165167006Y-83213996D01*
X165328361Y-83296211D01*
X165500591Y-83352171D01*
X165572136Y-83363502D01*
X165679451Y-83380500D01*
X165679454Y-83380500D01*
X165860549Y-83380500D01*
X165949977Y-83366335D01*
X166039409Y-83352171D01*
X166211639Y-83296211D01*
X166372994Y-83213996D01*
X166519501Y-83107553D01*
X166647553Y-82979501D01*
X166753996Y-82832994D01*
X166836211Y-82671639D01*
X166892171Y-82499409D01*
X166920500Y-82320546D01*
X166920500Y-82139454D01*
X166920500Y-82139450D01*
X167159500Y-82139450D01*
X167159500Y-82320549D01*
X167187828Y-82499406D01*
X167243788Y-82671637D01*
X167312519Y-82806530D01*
X167326004Y-82832994D01*
X167432447Y-82979501D01*
X167560499Y-83107553D01*
X167707006Y-83213996D01*
X167868361Y-83296211D01*
X168040591Y-83352171D01*
X168112136Y-83363502D01*
X168219451Y-83380500D01*
X168219454Y-83380500D01*
X168400549Y-83380500D01*
X168489977Y-83366335D01*
X168579409Y-83352171D01*
X168751639Y-83296211D01*
X168912994Y-83213996D01*
X169059501Y-83107553D01*
X169187553Y-82979501D01*
X169293996Y-82832994D01*
X169376211Y-82671639D01*
X169432171Y-82499409D01*
X169460500Y-82320546D01*
X169460500Y-82139454D01*
X169460500Y-82139450D01*
X169699500Y-82139450D01*
X169699500Y-82320549D01*
X169727828Y-82499406D01*
X169783788Y-82671637D01*
X169852519Y-82806530D01*
X169866004Y-82832994D01*
X169972447Y-82979501D01*
X170100499Y-83107553D01*
X170247006Y-83213996D01*
X170408361Y-83296211D01*
X170580591Y-83352171D01*
X170652136Y-83363502D01*
X170759451Y-83380500D01*
X170759454Y-83380500D01*
X170940549Y-83380500D01*
X171029977Y-83366335D01*
X171119409Y-83352171D01*
X171291639Y-83296211D01*
X171452994Y-83213996D01*
X171599501Y-83107553D01*
X171727553Y-82979501D01*
X171833996Y-82832994D01*
X171916211Y-82671639D01*
X171972171Y-82499409D01*
X172000500Y-82320546D01*
X172000500Y-82139454D01*
X172000500Y-82139450D01*
X172239500Y-82139450D01*
X172239500Y-82320549D01*
X172267828Y-82499406D01*
X172323788Y-82671637D01*
X172392519Y-82806530D01*
X172406004Y-82832994D01*
X172512447Y-82979501D01*
X172640499Y-83107553D01*
X172787006Y-83213996D01*
X172948361Y-83296211D01*
X173120591Y-83352171D01*
X173192136Y-83363502D01*
X173299451Y-83380500D01*
X173299454Y-83380500D01*
X173480549Y-83380500D01*
X173569977Y-83366335D01*
X173659409Y-83352171D01*
X173831639Y-83296211D01*
X173992994Y-83213996D01*
X174139501Y-83107553D01*
X174267553Y-82979501D01*
X174373996Y-82832994D01*
X174456211Y-82671639D01*
X174512171Y-82499409D01*
X174540500Y-82320546D01*
X174540500Y-82143424D01*
X174830000Y-82143424D01*
X174830000Y-82316575D01*
X174857084Y-82487579D01*
X174910588Y-82652248D01*
X174989194Y-82806522D01*
X175023463Y-82853691D01*
X175461979Y-82415174D01*
X175464075Y-82422993D01*
X175529901Y-82537007D01*
X175622993Y-82630099D01*
X175737007Y-82695925D01*
X175744822Y-82698019D01*
X175306307Y-83136535D01*
X175353476Y-83170804D01*
X175507751Y-83249411D01*
X175672420Y-83302915D01*
X175843425Y-83330000D01*
X176016575Y-83330000D01*
X176187579Y-83302915D01*
X176352248Y-83249411D01*
X176506524Y-83170804D01*
X176506530Y-83170800D01*
X176553691Y-83136535D01*
X176115175Y-82698019D01*
X176122993Y-82695925D01*
X176237007Y-82630099D01*
X176330099Y-82537007D01*
X176395925Y-82422993D01*
X176398019Y-82415175D01*
X176836535Y-82853691D01*
X176870800Y-82806530D01*
X176870804Y-82806524D01*
X176949411Y-82652248D01*
X177002915Y-82487579D01*
X177030000Y-82316575D01*
X177030000Y-82143425D01*
X177029999Y-82143424D01*
X177029370Y-82139450D01*
X177319500Y-82139450D01*
X177319500Y-82320549D01*
X177347828Y-82499406D01*
X177403788Y-82671637D01*
X177472519Y-82806530D01*
X177486004Y-82832994D01*
X177592447Y-82979501D01*
X177720499Y-83107553D01*
X177867006Y-83213996D01*
X178028361Y-83296211D01*
X178200591Y-83352171D01*
X178272136Y-83363502D01*
X178379451Y-83380500D01*
X178379454Y-83380500D01*
X178560549Y-83380500D01*
X178649977Y-83366335D01*
X178739409Y-83352171D01*
X178911639Y-83296211D01*
X179072994Y-83213996D01*
X179219501Y-83107553D01*
X179347553Y-82979501D01*
X179453996Y-82832994D01*
X179536211Y-82671639D01*
X179592171Y-82499409D01*
X179620500Y-82320546D01*
X179620500Y-82143424D01*
X179910000Y-82143424D01*
X179910000Y-82316575D01*
X179937084Y-82487579D01*
X179990588Y-82652248D01*
X180069194Y-82806522D01*
X180103463Y-82853691D01*
X180541979Y-82415174D01*
X180544075Y-82422993D01*
X180609901Y-82537007D01*
X180702993Y-82630099D01*
X180817007Y-82695925D01*
X180824822Y-82698019D01*
X180386307Y-83136535D01*
X180433476Y-83170804D01*
X180587751Y-83249411D01*
X180752420Y-83302915D01*
X180923425Y-83330000D01*
X181096575Y-83330000D01*
X181267579Y-83302915D01*
X181432248Y-83249411D01*
X181586524Y-83170804D01*
X181586530Y-83170800D01*
X181633691Y-83136535D01*
X181195175Y-82698019D01*
X181202993Y-82695925D01*
X181317007Y-82630099D01*
X181410099Y-82537007D01*
X181475925Y-82422993D01*
X181478019Y-82415175D01*
X181916535Y-82853691D01*
X181950800Y-82806530D01*
X181950804Y-82806524D01*
X182029411Y-82652248D01*
X182082915Y-82487579D01*
X182110000Y-82316575D01*
X182110000Y-82143425D01*
X182109999Y-82143424D01*
X182109370Y-82139450D01*
X182399500Y-82139450D01*
X182399500Y-82320549D01*
X182427828Y-82499406D01*
X182483788Y-82671637D01*
X182552519Y-82806530D01*
X182566004Y-82832994D01*
X182672447Y-82979501D01*
X182800499Y-83107553D01*
X182947006Y-83213996D01*
X183108361Y-83296211D01*
X183280591Y-83352171D01*
X183352136Y-83363502D01*
X183459451Y-83380500D01*
X183459454Y-83380500D01*
X183640549Y-83380500D01*
X183729977Y-83366335D01*
X183819409Y-83352171D01*
X183991639Y-83296211D01*
X184152994Y-83213996D01*
X184299501Y-83107553D01*
X184427553Y-82979501D01*
X184533996Y-82832994D01*
X184616211Y-82671639D01*
X184672171Y-82499409D01*
X184700500Y-82320546D01*
X184700500Y-82139454D01*
X184700500Y-82139450D01*
X184939500Y-82139450D01*
X184939500Y-82320549D01*
X184967828Y-82499406D01*
X185023788Y-82671637D01*
X185092519Y-82806530D01*
X185106004Y-82832994D01*
X185212447Y-82979501D01*
X185340499Y-83107553D01*
X185487006Y-83213996D01*
X185648361Y-83296211D01*
X185820591Y-83352171D01*
X185892136Y-83363502D01*
X185999451Y-83380500D01*
X185999454Y-83380500D01*
X186180549Y-83380500D01*
X186269977Y-83366335D01*
X186359409Y-83352171D01*
X186531639Y-83296211D01*
X186692994Y-83213996D01*
X186839501Y-83107553D01*
X186967553Y-82979501D01*
X187073996Y-82832994D01*
X187156211Y-82671639D01*
X187212171Y-82499409D01*
X187240500Y-82320546D01*
X187240500Y-82139454D01*
X187240500Y-82139450D01*
X187479500Y-82139450D01*
X187479500Y-82320549D01*
X187507828Y-82499406D01*
X187563788Y-82671637D01*
X187632519Y-82806530D01*
X187646004Y-82832994D01*
X187752447Y-82979501D01*
X187880499Y-83107553D01*
X188027006Y-83213996D01*
X188188361Y-83296211D01*
X188360591Y-83352171D01*
X188432136Y-83363502D01*
X188539451Y-83380500D01*
X188539454Y-83380500D01*
X188720549Y-83380500D01*
X188809977Y-83366335D01*
X188899409Y-83352171D01*
X189071639Y-83296211D01*
X189232994Y-83213996D01*
X189379501Y-83107553D01*
X189507553Y-82979501D01*
X189613996Y-82832994D01*
X189696211Y-82671639D01*
X189752171Y-82499409D01*
X189780500Y-82320546D01*
X189780500Y-82139454D01*
X189780500Y-82139450D01*
X189761614Y-82020212D01*
X189752171Y-81960591D01*
X189696211Y-81788361D01*
X189613996Y-81627006D01*
X189507553Y-81480499D01*
X189379501Y-81352447D01*
X189232994Y-81246004D01*
X189232993Y-81246003D01*
X189232991Y-81246002D01*
X189071637Y-81163788D01*
X188899406Y-81107828D01*
X188720549Y-81079500D01*
X188720546Y-81079500D01*
X188539454Y-81079500D01*
X188539451Y-81079500D01*
X188360593Y-81107828D01*
X188188362Y-81163788D01*
X188027008Y-81246002D01*
X187967560Y-81289194D01*
X187880499Y-81352447D01*
X187752447Y-81480499D01*
X187699225Y-81553752D01*
X187646002Y-81627008D01*
X187563788Y-81788362D01*
X187507828Y-81960593D01*
X187479500Y-82139450D01*
X187240500Y-82139450D01*
X187221614Y-82020212D01*
X187212171Y-81960591D01*
X187156211Y-81788361D01*
X187073996Y-81627006D01*
X186967553Y-81480499D01*
X186839501Y-81352447D01*
X186692994Y-81246004D01*
X186692993Y-81246003D01*
X186692991Y-81246002D01*
X186531637Y-81163788D01*
X186359406Y-81107828D01*
X186180549Y-81079500D01*
X186180546Y-81079500D01*
X185999454Y-81079500D01*
X185999451Y-81079500D01*
X185820593Y-81107828D01*
X185648362Y-81163788D01*
X185487008Y-81246002D01*
X185427560Y-81289194D01*
X185340499Y-81352447D01*
X185212447Y-81480499D01*
X185159225Y-81553752D01*
X185106002Y-81627008D01*
X185023788Y-81788362D01*
X184967828Y-81960593D01*
X184939500Y-82139450D01*
X184700500Y-82139450D01*
X184681614Y-82020212D01*
X184672171Y-81960591D01*
X184616211Y-81788361D01*
X184533996Y-81627006D01*
X184427553Y-81480499D01*
X184299501Y-81352447D01*
X184152994Y-81246004D01*
X184152993Y-81246003D01*
X184152991Y-81246002D01*
X183991637Y-81163788D01*
X183819406Y-81107828D01*
X183640549Y-81079500D01*
X183640546Y-81079500D01*
X183459454Y-81079500D01*
X183459451Y-81079500D01*
X183280593Y-81107828D01*
X183108362Y-81163788D01*
X182947008Y-81246002D01*
X182887560Y-81289194D01*
X182800499Y-81352447D01*
X182672447Y-81480499D01*
X182619225Y-81553752D01*
X182566002Y-81627008D01*
X182483788Y-81788362D01*
X182427828Y-81960593D01*
X182399500Y-82139450D01*
X182109370Y-82139450D01*
X182082915Y-81972420D01*
X182029411Y-81807751D01*
X181950804Y-81653476D01*
X181916535Y-81606307D01*
X181478019Y-82044822D01*
X181475925Y-82037007D01*
X181410099Y-81922993D01*
X181317007Y-81829901D01*
X181202993Y-81764075D01*
X181195174Y-81761979D01*
X181633691Y-81323463D01*
X181586522Y-81289194D01*
X181432248Y-81210588D01*
X181267579Y-81157084D01*
X181096575Y-81130000D01*
X180923425Y-81130000D01*
X180752420Y-81157084D01*
X180587751Y-81210588D01*
X180433473Y-81289196D01*
X180386307Y-81323463D01*
X180824824Y-81761980D01*
X180817007Y-81764075D01*
X180702993Y-81829901D01*
X180609901Y-81922993D01*
X180544075Y-82037007D01*
X180541980Y-82044824D01*
X180103463Y-81606307D01*
X180069196Y-81653473D01*
X179990588Y-81807751D01*
X179937084Y-81972420D01*
X179910000Y-82143424D01*
X179620500Y-82143424D01*
X179620500Y-82139454D01*
X179620500Y-82139450D01*
X179601614Y-82020212D01*
X179592171Y-81960591D01*
X179536211Y-81788361D01*
X179453996Y-81627006D01*
X179347553Y-81480499D01*
X179219501Y-81352447D01*
X179072994Y-81246004D01*
X179072993Y-81246003D01*
X179072991Y-81246002D01*
X178911637Y-81163788D01*
X178739406Y-81107828D01*
X178560549Y-81079500D01*
X178560546Y-81079500D01*
X178379454Y-81079500D01*
X178379451Y-81079500D01*
X178200593Y-81107828D01*
X178028362Y-81163788D01*
X177867008Y-81246002D01*
X177807560Y-81289194D01*
X177720499Y-81352447D01*
X177592447Y-81480499D01*
X177539225Y-81553752D01*
X177486002Y-81627008D01*
X177403788Y-81788362D01*
X177347828Y-81960593D01*
X177319500Y-82139450D01*
X177029370Y-82139450D01*
X177002915Y-81972420D01*
X176949411Y-81807751D01*
X176870804Y-81653476D01*
X176836535Y-81606307D01*
X176398019Y-82044822D01*
X176395925Y-82037007D01*
X176330099Y-81922993D01*
X176237007Y-81829901D01*
X176122993Y-81764075D01*
X176115174Y-81761979D01*
X176553691Y-81323463D01*
X176506522Y-81289194D01*
X176352248Y-81210588D01*
X176187579Y-81157084D01*
X176016575Y-81130000D01*
X175843425Y-81130000D01*
X175672420Y-81157084D01*
X175507751Y-81210588D01*
X175353473Y-81289196D01*
X175306307Y-81323463D01*
X175744824Y-81761980D01*
X175737007Y-81764075D01*
X175622993Y-81829901D01*
X175529901Y-81922993D01*
X175464075Y-82037007D01*
X175461980Y-82044824D01*
X175023463Y-81606307D01*
X174989196Y-81653473D01*
X174910588Y-81807751D01*
X174857084Y-81972420D01*
X174830000Y-82143424D01*
X174540500Y-82143424D01*
X174540500Y-82139454D01*
X174540500Y-82139450D01*
X174521614Y-82020212D01*
X174512171Y-81960591D01*
X174456211Y-81788361D01*
X174373996Y-81627006D01*
X174267553Y-81480499D01*
X174139501Y-81352447D01*
X173992994Y-81246004D01*
X173992993Y-81246003D01*
X173992991Y-81246002D01*
X173831637Y-81163788D01*
X173659406Y-81107828D01*
X173480549Y-81079500D01*
X173480546Y-81079500D01*
X173299454Y-81079500D01*
X173299451Y-81079500D01*
X173120593Y-81107828D01*
X172948362Y-81163788D01*
X172787008Y-81246002D01*
X172727560Y-81289194D01*
X172640499Y-81352447D01*
X172512447Y-81480499D01*
X172459225Y-81553752D01*
X172406002Y-81627008D01*
X172323788Y-81788362D01*
X172267828Y-81960593D01*
X172239500Y-82139450D01*
X172000500Y-82139450D01*
X171981614Y-82020212D01*
X171972171Y-81960591D01*
X171916211Y-81788361D01*
X171833996Y-81627006D01*
X171727553Y-81480499D01*
X171599501Y-81352447D01*
X171452994Y-81246004D01*
X171452993Y-81246003D01*
X171452991Y-81246002D01*
X171291637Y-81163788D01*
X171119406Y-81107828D01*
X170940549Y-81079500D01*
X170940546Y-81079500D01*
X170759454Y-81079500D01*
X170759451Y-81079500D01*
X170580593Y-81107828D01*
X170408362Y-81163788D01*
X170247008Y-81246002D01*
X170187560Y-81289194D01*
X170100499Y-81352447D01*
X169972447Y-81480499D01*
X169919225Y-81553752D01*
X169866002Y-81627008D01*
X169783788Y-81788362D01*
X169727828Y-81960593D01*
X169699500Y-82139450D01*
X169460500Y-82139450D01*
X169441614Y-82020212D01*
X169432171Y-81960591D01*
X169376211Y-81788361D01*
X169293996Y-81627006D01*
X169187553Y-81480499D01*
X169059501Y-81352447D01*
X168912994Y-81246004D01*
X168912993Y-81246003D01*
X168912991Y-81246002D01*
X168751637Y-81163788D01*
X168579406Y-81107828D01*
X168400549Y-81079500D01*
X168400546Y-81079500D01*
X168219454Y-81079500D01*
X168219451Y-81079500D01*
X168040593Y-81107828D01*
X167868362Y-81163788D01*
X167707008Y-81246002D01*
X167647560Y-81289194D01*
X167560499Y-81352447D01*
X167432447Y-81480499D01*
X167379225Y-81553752D01*
X167326002Y-81627008D01*
X167243788Y-81788362D01*
X167187828Y-81960593D01*
X167159500Y-82139450D01*
X166920500Y-82139450D01*
X166901614Y-82020212D01*
X166892171Y-81960591D01*
X166836211Y-81788361D01*
X166753996Y-81627006D01*
X166647553Y-81480499D01*
X166519501Y-81352447D01*
X166372994Y-81246004D01*
X166372993Y-81246003D01*
X166372991Y-81246002D01*
X166211637Y-81163788D01*
X166039406Y-81107828D01*
X165860549Y-81079500D01*
X165860546Y-81079500D01*
X165679454Y-81079500D01*
X165679451Y-81079500D01*
X165500593Y-81107828D01*
X165328362Y-81163788D01*
X165167008Y-81246002D01*
X165107560Y-81289194D01*
X165020499Y-81352447D01*
X164892447Y-81480499D01*
X164839225Y-81553752D01*
X164786002Y-81627008D01*
X164703788Y-81788362D01*
X164647828Y-81960593D01*
X164619500Y-82139450D01*
X164329370Y-82139450D01*
X164302915Y-81972420D01*
X164249411Y-81807751D01*
X164170804Y-81653476D01*
X164136535Y-81606307D01*
X163698019Y-82044822D01*
X163695925Y-82037007D01*
X163630099Y-81922993D01*
X163537007Y-81829901D01*
X163422993Y-81764075D01*
X163415174Y-81761979D01*
X163853691Y-81323463D01*
X163806522Y-81289194D01*
X163652248Y-81210588D01*
X163487579Y-81157084D01*
X163316575Y-81130000D01*
X163143425Y-81130000D01*
X162972420Y-81157084D01*
X162807751Y-81210588D01*
X162653473Y-81289196D01*
X162606307Y-81323463D01*
X163044824Y-81761980D01*
X163037007Y-81764075D01*
X162922993Y-81829901D01*
X162829901Y-81922993D01*
X162764075Y-82037007D01*
X162761980Y-82044824D01*
X162323463Y-81606307D01*
X162289196Y-81653473D01*
X162210588Y-81807751D01*
X162157084Y-81972420D01*
X162130000Y-82143424D01*
X161840500Y-82143424D01*
X161840500Y-82139454D01*
X161840500Y-82139450D01*
X161821614Y-82020212D01*
X161812171Y-81960591D01*
X161756211Y-81788361D01*
X161673996Y-81627006D01*
X161567553Y-81480499D01*
X161439501Y-81352447D01*
X161292994Y-81246004D01*
X161292993Y-81246003D01*
X161292991Y-81246002D01*
X161131637Y-81163788D01*
X160959406Y-81107828D01*
X160780549Y-81079500D01*
X160780546Y-81079500D01*
X160599454Y-81079500D01*
X160599451Y-81079500D01*
X160420593Y-81107828D01*
X160248362Y-81163788D01*
X160087008Y-81246002D01*
X160027560Y-81289194D01*
X159940499Y-81352447D01*
X159812447Y-81480499D01*
X159759225Y-81553752D01*
X159706002Y-81627008D01*
X159623788Y-81788362D01*
X159567828Y-81960593D01*
X159539500Y-82139450D01*
X159300500Y-82139450D01*
X159281614Y-82020212D01*
X159272171Y-81960591D01*
X159216211Y-81788361D01*
X159133996Y-81627006D01*
X159027553Y-81480499D01*
X158899501Y-81352447D01*
X158752994Y-81246004D01*
X158752993Y-81246003D01*
X158752991Y-81246002D01*
X158591637Y-81163788D01*
X158419406Y-81107828D01*
X158240549Y-81079500D01*
X158240546Y-81079500D01*
X158059454Y-81079500D01*
X158059451Y-81079500D01*
X157880593Y-81107828D01*
X157708362Y-81163788D01*
X157547008Y-81246002D01*
X157487560Y-81289194D01*
X157400499Y-81352447D01*
X157272447Y-81480499D01*
X157219225Y-81553752D01*
X157166002Y-81627008D01*
X157083788Y-81788362D01*
X157027828Y-81960593D01*
X156999500Y-82139450D01*
X156709370Y-82139450D01*
X156682915Y-81972420D01*
X156629411Y-81807751D01*
X156550804Y-81653476D01*
X156516535Y-81606307D01*
X156078019Y-82044822D01*
X156075925Y-82037007D01*
X156010099Y-81922993D01*
X155917007Y-81829901D01*
X155802993Y-81764075D01*
X155795174Y-81761979D01*
X156233691Y-81323463D01*
X156186522Y-81289194D01*
X156032248Y-81210588D01*
X155867579Y-81157084D01*
X155696575Y-81130000D01*
X155523425Y-81130000D01*
X155352420Y-81157084D01*
X155187751Y-81210588D01*
X155033473Y-81289196D01*
X154986307Y-81323463D01*
X155424824Y-81761980D01*
X155417007Y-81764075D01*
X155302993Y-81829901D01*
X155209901Y-81922993D01*
X155144075Y-82037007D01*
X155141980Y-82044824D01*
X154703463Y-81606307D01*
X154669196Y-81653473D01*
X154590588Y-81807751D01*
X154537084Y-81972420D01*
X154510000Y-82143424D01*
X154220500Y-82143424D01*
X154220500Y-82139454D01*
X154220500Y-82139450D01*
X154201614Y-82020212D01*
X154192171Y-81960591D01*
X154136211Y-81788361D01*
X154053996Y-81627006D01*
X153947553Y-81480499D01*
X153819501Y-81352447D01*
X153672994Y-81246004D01*
X153672993Y-81246003D01*
X153672991Y-81246002D01*
X153511637Y-81163788D01*
X153339406Y-81107828D01*
X153160549Y-81079500D01*
X153160546Y-81079500D01*
X152979454Y-81079500D01*
X152979451Y-81079500D01*
X152800593Y-81107828D01*
X152628362Y-81163788D01*
X152467008Y-81246002D01*
X152407560Y-81289194D01*
X152320499Y-81352447D01*
X152192447Y-81480499D01*
X152139225Y-81553752D01*
X152086002Y-81627008D01*
X152003788Y-81788362D01*
X151947828Y-81960593D01*
X151919500Y-82139450D01*
X151680500Y-82139450D01*
X151661614Y-82020212D01*
X151652171Y-81960591D01*
X151596211Y-81788361D01*
X151513996Y-81627006D01*
X151407553Y-81480499D01*
X151279501Y-81352447D01*
X151132994Y-81246004D01*
X151132993Y-81246003D01*
X151132991Y-81246002D01*
X150971637Y-81163788D01*
X150799406Y-81107828D01*
X150620549Y-81079500D01*
X150620546Y-81079500D01*
X150439454Y-81079500D01*
X150439451Y-81079500D01*
X150260593Y-81107828D01*
X150088362Y-81163788D01*
X149927008Y-81246002D01*
X149867560Y-81289194D01*
X149780499Y-81352447D01*
X149652447Y-81480499D01*
X149599225Y-81553752D01*
X149546002Y-81627008D01*
X149463788Y-81788362D01*
X149407828Y-81960593D01*
X149379500Y-82139450D01*
X149140500Y-82139450D01*
X149121614Y-82020212D01*
X149112171Y-81960591D01*
X149056211Y-81788361D01*
X148973996Y-81627006D01*
X148867553Y-81480499D01*
X148739501Y-81352447D01*
X148592994Y-81246004D01*
X148592993Y-81246003D01*
X148592991Y-81246002D01*
X148431637Y-81163788D01*
X148259406Y-81107828D01*
X148080549Y-81079500D01*
X148080546Y-81079500D01*
X147899454Y-81079500D01*
X147899451Y-81079500D01*
X147720593Y-81107828D01*
X147548362Y-81163788D01*
X147387008Y-81246002D01*
X147327560Y-81289194D01*
X147240499Y-81352447D01*
X147112447Y-81480499D01*
X147059225Y-81553752D01*
X147006002Y-81627008D01*
X146923788Y-81788362D01*
X146867828Y-81960593D01*
X146839500Y-82139450D01*
X146549370Y-82139450D01*
X146522915Y-81972420D01*
X146469411Y-81807751D01*
X146390804Y-81653476D01*
X146356535Y-81606307D01*
X145918019Y-82044822D01*
X145915925Y-82037007D01*
X145850099Y-81922993D01*
X145757007Y-81829901D01*
X145642993Y-81764075D01*
X145635174Y-81761979D01*
X146073691Y-81323463D01*
X146026522Y-81289194D01*
X145872248Y-81210588D01*
X145707579Y-81157084D01*
X145536575Y-81130000D01*
X145363425Y-81130000D01*
X145192420Y-81157084D01*
X145027751Y-81210588D01*
X144873473Y-81289196D01*
X144826307Y-81323463D01*
X145264824Y-81761980D01*
X145257007Y-81764075D01*
X145142993Y-81829901D01*
X145049901Y-81922993D01*
X144984075Y-82037007D01*
X144981980Y-82044824D01*
X144543463Y-81606307D01*
X144509196Y-81653473D01*
X144430588Y-81807751D01*
X144377084Y-81972420D01*
X144350000Y-82143424D01*
X144060500Y-82143424D01*
X144060500Y-82139454D01*
X144060500Y-82139450D01*
X144041614Y-82020212D01*
X144032171Y-81960591D01*
X143976211Y-81788361D01*
X143893996Y-81627006D01*
X143787553Y-81480499D01*
X143659501Y-81352447D01*
X143512994Y-81246004D01*
X143512993Y-81246003D01*
X143512991Y-81246002D01*
X143351637Y-81163788D01*
X143179406Y-81107828D01*
X143000549Y-81079500D01*
X143000546Y-81079500D01*
X142819454Y-81079500D01*
X142819451Y-81079500D01*
X142640593Y-81107828D01*
X142468362Y-81163788D01*
X142307008Y-81246002D01*
X142247560Y-81289194D01*
X142160499Y-81352447D01*
X142032447Y-81480499D01*
X141979225Y-81553752D01*
X141926002Y-81627008D01*
X141843788Y-81788362D01*
X141787828Y-81960593D01*
X141759500Y-82139450D01*
X141520500Y-82139450D01*
X141501614Y-82020212D01*
X141492171Y-81960591D01*
X141436211Y-81788361D01*
X141353996Y-81627006D01*
X141247553Y-81480499D01*
X141119501Y-81352447D01*
X140972994Y-81246004D01*
X140972993Y-81246003D01*
X140972991Y-81246002D01*
X140811637Y-81163788D01*
X140639406Y-81107828D01*
X140460549Y-81079500D01*
X140460546Y-81079500D01*
X140279454Y-81079500D01*
X140279451Y-81079500D01*
X140100593Y-81107828D01*
X139928362Y-81163788D01*
X139767008Y-81246002D01*
X139707560Y-81289194D01*
X139620499Y-81352447D01*
X139492447Y-81480499D01*
X139439225Y-81553752D01*
X139386002Y-81627008D01*
X139303788Y-81788362D01*
X139247828Y-81960593D01*
X139219500Y-82139450D01*
X136134906Y-82139450D01*
X136075992Y-82109432D01*
X135851363Y-82036445D01*
X135618095Y-81999500D01*
X135618092Y-81999500D01*
X135381908Y-81999500D01*
X135381905Y-81999500D01*
X135148636Y-82036445D01*
X134924007Y-82109432D01*
X134713569Y-82216655D01*
X134522491Y-82355482D01*
X134355482Y-82522491D01*
X134216655Y-82713569D01*
X134109432Y-82924007D01*
X134036445Y-83148636D01*
X133999500Y-83381904D01*
X100500500Y-83381904D01*
X100500500Y-75331893D01*
X186099500Y-75331893D01*
X186099500Y-76668106D01*
X186110123Y-76756565D01*
X186165637Y-76897339D01*
X186165638Y-76897341D01*
X186165639Y-76897342D01*
X186257078Y-77017922D01*
X186377658Y-77109361D01*
X186377659Y-77109361D01*
X186377660Y-77109362D01*
X186448047Y-77137119D01*
X186518436Y-77164877D01*
X186606898Y-77175500D01*
X186606900Y-77175500D01*
X187393100Y-77175500D01*
X187393102Y-77175500D01*
X187481564Y-77164877D01*
X187622342Y-77109361D01*
X187742922Y-77017922D01*
X187834361Y-76897342D01*
X187889877Y-76756564D01*
X187900500Y-76668102D01*
X187900500Y-75636306D01*
X188099500Y-75636306D01*
X188099500Y-76363693D01*
X188134106Y-76537665D01*
X188134106Y-76537667D01*
X188201985Y-76701544D01*
X188201985Y-76701545D01*
X188300535Y-76849034D01*
X188300536Y-76849035D01*
X188425965Y-76974464D01*
X188573453Y-77073013D01*
X188737334Y-77140894D01*
X188911309Y-77175500D01*
X188911310Y-77175500D01*
X189088690Y-77175500D01*
X189088691Y-77175500D01*
X189262666Y-77140894D01*
X189426547Y-77073013D01*
X189574035Y-76974464D01*
X189699464Y-76849035D01*
X189798013Y-76701547D01*
X189865894Y-76537666D01*
X189900500Y-76363691D01*
X189900500Y-75641279D01*
X190150000Y-75641279D01*
X190150000Y-75799999D01*
X190150001Y-75800000D01*
X190682457Y-75800000D01*
X190650556Y-75855255D01*
X190625000Y-75950630D01*
X190625000Y-76049370D01*
X190650556Y-76144745D01*
X190682457Y-76200000D01*
X190150001Y-76200000D01*
X190150000Y-76200001D01*
X190150000Y-76358720D01*
X190182664Y-76522934D01*
X190246739Y-76677625D01*
X190339759Y-76816840D01*
X190458159Y-76935240D01*
X190597374Y-77028260D01*
X190752065Y-77092335D01*
X190800000Y-77101870D01*
X190800000Y-76317542D01*
X190855255Y-76349444D01*
X190950630Y-76375000D01*
X191049370Y-76375000D01*
X191144745Y-76349444D01*
X191200000Y-76317542D01*
X191200000Y-77101869D01*
X191247934Y-77092335D01*
X191402625Y-77028260D01*
X191541840Y-76935240D01*
X191660240Y-76816840D01*
X191753260Y-76677625D01*
X191817335Y-76522934D01*
X191845388Y-76381904D01*
X195499500Y-76381904D01*
X195499500Y-76618095D01*
X195536445Y-76851363D01*
X195609432Y-77075992D01*
X195654720Y-77164876D01*
X195716657Y-77286433D01*
X195855483Y-77477510D01*
X196022490Y-77644517D01*
X196213567Y-77783343D01*
X196424008Y-77890568D01*
X196648632Y-77963553D01*
X196648633Y-77963553D01*
X196648636Y-77963554D01*
X196881905Y-78000500D01*
X196881908Y-78000500D01*
X197118095Y-78000500D01*
X197351363Y-77963554D01*
X197351364Y-77963553D01*
X197351368Y-77963553D01*
X197575992Y-77890568D01*
X197786433Y-77783343D01*
X197977510Y-77644517D01*
X198144517Y-77477510D01*
X198283343Y-77286433D01*
X198390568Y-77075992D01*
X198463553Y-76851368D01*
X198469022Y-76816840D01*
X198500500Y-76618095D01*
X198500500Y-76381904D01*
X198463554Y-76148636D01*
X198462290Y-76144745D01*
X198390568Y-75924008D01*
X198283343Y-75713567D01*
X198144517Y-75522490D01*
X197977510Y-75355483D01*
X197786433Y-75216657D01*
X197786432Y-75216656D01*
X197786430Y-75216655D01*
X197575992Y-75109432D01*
X197351363Y-75036445D01*
X197118095Y-74999500D01*
X197118092Y-74999500D01*
X196881908Y-74999500D01*
X196881905Y-74999500D01*
X196648636Y-75036445D01*
X196424007Y-75109432D01*
X196213569Y-75216655D01*
X196022491Y-75355482D01*
X195855482Y-75522491D01*
X195716655Y-75713569D01*
X195609432Y-75924007D01*
X195536445Y-76148636D01*
X195499500Y-76381904D01*
X191845388Y-76381904D01*
X191849999Y-76358721D01*
X191850000Y-76358716D01*
X191850000Y-76200001D01*
X191849999Y-76200000D01*
X191317543Y-76200000D01*
X191349444Y-76144745D01*
X191375000Y-76049370D01*
X191375000Y-75950630D01*
X191349444Y-75855255D01*
X191317543Y-75800000D01*
X191849999Y-75800000D01*
X191850000Y-75799999D01*
X191850000Y-75641283D01*
X191849999Y-75641279D01*
X191817335Y-75477065D01*
X191753260Y-75322374D01*
X191660240Y-75183159D01*
X191541840Y-75064759D01*
X191402625Y-74971739D01*
X191247934Y-74907664D01*
X191247928Y-74907662D01*
X191200001Y-74898128D01*
X191200000Y-74898129D01*
X191200000Y-75682457D01*
X191144745Y-75650556D01*
X191049370Y-75625000D01*
X190950630Y-75625000D01*
X190855255Y-75650556D01*
X190800000Y-75682457D01*
X190800000Y-74898129D01*
X190799998Y-74898128D01*
X190752071Y-74907662D01*
X190752065Y-74907664D01*
X190597374Y-74971739D01*
X190458159Y-75064759D01*
X190339759Y-75183159D01*
X190246739Y-75322374D01*
X190182664Y-75477065D01*
X190150000Y-75641279D01*
X189900500Y-75641279D01*
X189900500Y-75636309D01*
X189865894Y-75462334D01*
X189798014Y-75298455D01*
X189798014Y-75298454D01*
X189699464Y-75150965D01*
X189574034Y-75025535D01*
X189426544Y-74926985D01*
X189262666Y-74859106D01*
X189088693Y-74824500D01*
X189088691Y-74824500D01*
X188911309Y-74824500D01*
X188911306Y-74824500D01*
X188737334Y-74859106D01*
X188737332Y-74859106D01*
X188573455Y-74926985D01*
X188573454Y-74926985D01*
X188425965Y-75025535D01*
X188300535Y-75150965D01*
X188201985Y-75298454D01*
X188201985Y-75298455D01*
X188134106Y-75462332D01*
X188134106Y-75462334D01*
X188099500Y-75636306D01*
X187900500Y-75636306D01*
X187900500Y-75331898D01*
X187889877Y-75243436D01*
X187853411Y-75150965D01*
X187834362Y-75102660D01*
X187834361Y-75102659D01*
X187834361Y-75102658D01*
X187742922Y-74982078D01*
X187622342Y-74890639D01*
X187622341Y-74890638D01*
X187622339Y-74890637D01*
X187481565Y-74835123D01*
X187393106Y-74824500D01*
X187393102Y-74824500D01*
X186606898Y-74824500D01*
X186606893Y-74824500D01*
X186518434Y-74835123D01*
X186377660Y-74890637D01*
X186377656Y-74890640D01*
X186257081Y-74982075D01*
X186257075Y-74982081D01*
X186165640Y-75102656D01*
X186165637Y-75102660D01*
X186110123Y-75243434D01*
X186099500Y-75331893D01*
X100500500Y-75331893D01*
X100500500Y-72683143D01*
X114297400Y-72683143D01*
X114297400Y-72841257D01*
X114338323Y-72993984D01*
X114417380Y-73130916D01*
X114529184Y-73242720D01*
X114666116Y-73321777D01*
X114818843Y-73362700D01*
X114818845Y-73362700D01*
X114976955Y-73362700D01*
X114976957Y-73362700D01*
X115129684Y-73321777D01*
X115266616Y-73242720D01*
X115378420Y-73130916D01*
X115457477Y-72993984D01*
X115498400Y-72841257D01*
X115498400Y-72683143D01*
X115457477Y-72530416D01*
X115378420Y-72393484D01*
X115266616Y-72281680D01*
X115129684Y-72202623D01*
X114976957Y-72161700D01*
X114818843Y-72161700D01*
X114666116Y-72202623D01*
X114529184Y-72281680D01*
X114417380Y-72393484D01*
X114338323Y-72530416D01*
X114297400Y-72683143D01*
X100500500Y-72683143D01*
X100500500Y-70572443D01*
X128437000Y-70572443D01*
X128437000Y-70730557D01*
X128477923Y-70883284D01*
X128556980Y-71020216D01*
X128668784Y-71132020D01*
X128805716Y-71211077D01*
X128958443Y-71252000D01*
X128958445Y-71252000D01*
X129116555Y-71252000D01*
X129116557Y-71252000D01*
X129269284Y-71211077D01*
X129406216Y-71132020D01*
X129518020Y-71020216D01*
X129528664Y-71001778D01*
X129574133Y-70960839D01*
X129634983Y-70954443D01*
X129687971Y-70985036D01*
X129712858Y-71040931D01*
X129713400Y-71051280D01*
X129713400Y-71109957D01*
X129754323Y-71262684D01*
X129833380Y-71399616D01*
X129945184Y-71511420D01*
X130082116Y-71590477D01*
X130234843Y-71631400D01*
X130234845Y-71631400D01*
X130392955Y-71631400D01*
X130392957Y-71631400D01*
X130545684Y-71590477D01*
X130682616Y-71511420D01*
X130794420Y-71399616D01*
X130873477Y-71262684D01*
X130914400Y-71109957D01*
X130914400Y-70951843D01*
X130907884Y-70927525D01*
X151449500Y-70927525D01*
X151449500Y-71072475D01*
X151465455Y-71132019D01*
X151487017Y-71212489D01*
X151559487Y-71338010D01*
X151559489Y-71338012D01*
X151559491Y-71338015D01*
X151661985Y-71440509D01*
X151661987Y-71440510D01*
X151661989Y-71440512D01*
X151787511Y-71512982D01*
X151787512Y-71512982D01*
X151787515Y-71512984D01*
X151927525Y-71550500D01*
X151927526Y-71550500D01*
X152072474Y-71550500D01*
X152072475Y-71550500D01*
X152212485Y-71512984D01*
X152212487Y-71512982D01*
X152212489Y-71512982D01*
X152338010Y-71440512D01*
X152338010Y-71440511D01*
X152338015Y-71440509D01*
X152440509Y-71338015D01*
X152512984Y-71212485D01*
X152550500Y-71072475D01*
X152550500Y-70927525D01*
X152512984Y-70787515D01*
X152512982Y-70787512D01*
X152512982Y-70787510D01*
X152440512Y-70661989D01*
X152440510Y-70661987D01*
X152440509Y-70661985D01*
X152338015Y-70559491D01*
X152338012Y-70559489D01*
X152338010Y-70559487D01*
X152212488Y-70487017D01*
X152212489Y-70487017D01*
X152182896Y-70479087D01*
X152072475Y-70449500D01*
X151927525Y-70449500D01*
X151865790Y-70466041D01*
X151787510Y-70487017D01*
X151661989Y-70559487D01*
X151559487Y-70661989D01*
X151487017Y-70787510D01*
X151487016Y-70787515D01*
X151449500Y-70927525D01*
X130907884Y-70927525D01*
X130873477Y-70799116D01*
X130794420Y-70662184D01*
X130682616Y-70550380D01*
X130545684Y-70471323D01*
X130392957Y-70430400D01*
X130234843Y-70430400D01*
X130082116Y-70471323D01*
X129945184Y-70550380D01*
X129833379Y-70662185D01*
X129822736Y-70680620D01*
X129777266Y-70721561D01*
X129716415Y-70727955D01*
X129663428Y-70697362D01*
X129638542Y-70641466D01*
X129638000Y-70631119D01*
X129638000Y-70572444D01*
X129638000Y-70572443D01*
X129597077Y-70419716D01*
X129518020Y-70282784D01*
X129406216Y-70170980D01*
X129269284Y-70091923D01*
X129116557Y-70051000D01*
X128958443Y-70051000D01*
X128805716Y-70091923D01*
X128668784Y-70170980D01*
X128556980Y-70282784D01*
X128477923Y-70419716D01*
X128437000Y-70572443D01*
X100500500Y-70572443D01*
X100500500Y-69440443D01*
X161424400Y-69440443D01*
X161424400Y-69598557D01*
X161465323Y-69751284D01*
X161544380Y-69888216D01*
X161656184Y-70000020D01*
X161793116Y-70079077D01*
X161945843Y-70120000D01*
X161945845Y-70120000D01*
X162103955Y-70120000D01*
X162103957Y-70120000D01*
X162256684Y-70079077D01*
X162393616Y-70000020D01*
X162505420Y-69888216D01*
X162584477Y-69751284D01*
X162625400Y-69598557D01*
X162625400Y-69440443D01*
X162622104Y-69428143D01*
X182921300Y-69428143D01*
X182921300Y-69586257D01*
X182962223Y-69738984D01*
X183041280Y-69875916D01*
X183153084Y-69987720D01*
X183290016Y-70066777D01*
X183442743Y-70107700D01*
X183442745Y-70107700D01*
X183600855Y-70107700D01*
X183600857Y-70107700D01*
X183753584Y-70066777D01*
X183890516Y-69987720D01*
X184002320Y-69875916D01*
X184081377Y-69738984D01*
X184122300Y-69586257D01*
X184122300Y-69428143D01*
X184096510Y-69331893D01*
X187099500Y-69331893D01*
X187099500Y-70668106D01*
X187110123Y-70756565D01*
X187165637Y-70897339D01*
X187165638Y-70897341D01*
X187165639Y-70897342D01*
X187257078Y-71017922D01*
X187377658Y-71109361D01*
X187377659Y-71109361D01*
X187377660Y-71109362D01*
X187379164Y-71109955D01*
X187518436Y-71164877D01*
X187606898Y-71175500D01*
X187606900Y-71175500D01*
X188393100Y-71175500D01*
X188393102Y-71175500D01*
X188481564Y-71164877D01*
X188622342Y-71109361D01*
X188742922Y-71017922D01*
X188834361Y-70897342D01*
X188889877Y-70756564D01*
X188900500Y-70668102D01*
X188900500Y-69641279D01*
X189150000Y-69641279D01*
X189150000Y-69799999D01*
X189150001Y-69800000D01*
X189682457Y-69800000D01*
X189650556Y-69855255D01*
X189625000Y-69950630D01*
X189625000Y-70049370D01*
X189650556Y-70144745D01*
X189682457Y-70200000D01*
X189150001Y-70200000D01*
X189150000Y-70200001D01*
X189150000Y-70358720D01*
X189182664Y-70522934D01*
X189246739Y-70677625D01*
X189339759Y-70816840D01*
X189458159Y-70935240D01*
X189597374Y-71028260D01*
X189752065Y-71092335D01*
X189800000Y-71101870D01*
X189800000Y-70317542D01*
X189855255Y-70349444D01*
X189950630Y-70375000D01*
X190049370Y-70375000D01*
X190144745Y-70349444D01*
X190200000Y-70317542D01*
X190200000Y-71101869D01*
X190247934Y-71092335D01*
X190402625Y-71028260D01*
X190541840Y-70935240D01*
X190660240Y-70816840D01*
X190753260Y-70677625D01*
X190817335Y-70522934D01*
X190849999Y-70358720D01*
X190850000Y-70358716D01*
X190850000Y-70200001D01*
X190849999Y-70200000D01*
X190317543Y-70200000D01*
X190349444Y-70144745D01*
X190375000Y-70049370D01*
X190375000Y-69950630D01*
X190349444Y-69855255D01*
X190317543Y-69800000D01*
X190849999Y-69800000D01*
X190850000Y-69799999D01*
X190850000Y-69641283D01*
X190849999Y-69641279D01*
X190817335Y-69477065D01*
X190753260Y-69322374D01*
X190660240Y-69183159D01*
X190541840Y-69064759D01*
X190402625Y-68971739D01*
X190247934Y-68907664D01*
X190247928Y-68907662D01*
X190200001Y-68898128D01*
X190200000Y-68898129D01*
X190200000Y-69682457D01*
X190144745Y-69650556D01*
X190049370Y-69625000D01*
X189950630Y-69625000D01*
X189855255Y-69650556D01*
X189800000Y-69682457D01*
X189800000Y-68898129D01*
X189799998Y-68898128D01*
X189752071Y-68907662D01*
X189752065Y-68907664D01*
X189597374Y-68971739D01*
X189458159Y-69064759D01*
X189339759Y-69183159D01*
X189246739Y-69322374D01*
X189182664Y-69477065D01*
X189150000Y-69641279D01*
X188900500Y-69641279D01*
X188900500Y-69331898D01*
X188889877Y-69243436D01*
X188834361Y-69102658D01*
X188742922Y-68982078D01*
X188622342Y-68890639D01*
X188622341Y-68890638D01*
X188622339Y-68890637D01*
X188481565Y-68835123D01*
X188393106Y-68824500D01*
X188393102Y-68824500D01*
X187606898Y-68824500D01*
X187606893Y-68824500D01*
X187518434Y-68835123D01*
X187377660Y-68890637D01*
X187377656Y-68890640D01*
X187257081Y-68982075D01*
X187257075Y-68982081D01*
X187165640Y-69102656D01*
X187165637Y-69102660D01*
X187110123Y-69243434D01*
X187099500Y-69331893D01*
X184096510Y-69331893D01*
X184081377Y-69275416D01*
X184002320Y-69138484D01*
X183890516Y-69026680D01*
X183753584Y-68947623D01*
X183600857Y-68906700D01*
X183442743Y-68906700D01*
X183290016Y-68947623D01*
X183153084Y-69026680D01*
X183041280Y-69138484D01*
X182962223Y-69275416D01*
X182921300Y-69428143D01*
X162622104Y-69428143D01*
X162584477Y-69287716D01*
X162505420Y-69150784D01*
X162393616Y-69038980D01*
X162256684Y-68959923D01*
X162103957Y-68919000D01*
X161945843Y-68919000D01*
X161793116Y-68959923D01*
X161656184Y-69038980D01*
X161544380Y-69150784D01*
X161465323Y-69287716D01*
X161424400Y-69440443D01*
X100500500Y-69440443D01*
X100500500Y-67160243D01*
X108734500Y-67160243D01*
X108734500Y-67318357D01*
X108775423Y-67471084D01*
X108854480Y-67608016D01*
X108966284Y-67719820D01*
X109103216Y-67798877D01*
X109255943Y-67839800D01*
X109255945Y-67839800D01*
X109414055Y-67839800D01*
X109414057Y-67839800D01*
X109566784Y-67798877D01*
X109703716Y-67719820D01*
X109815520Y-67608016D01*
X109894577Y-67471084D01*
X109935500Y-67318357D01*
X109935500Y-67160243D01*
X109898577Y-67022443D01*
X110999500Y-67022443D01*
X110999500Y-67180557D01*
X111040423Y-67333284D01*
X111119480Y-67470216D01*
X111231284Y-67582020D01*
X111368216Y-67661077D01*
X111520943Y-67702000D01*
X111520945Y-67702000D01*
X111679055Y-67702000D01*
X111679057Y-67702000D01*
X111831784Y-67661077D01*
X111968716Y-67582020D01*
X112080520Y-67470216D01*
X112159577Y-67333284D01*
X112200500Y-67180557D01*
X112200500Y-67022443D01*
X112159577Y-66869716D01*
X112080520Y-66732784D01*
X111968716Y-66620980D01*
X111831784Y-66541923D01*
X111679057Y-66501000D01*
X111520943Y-66501000D01*
X111368216Y-66541923D01*
X111231284Y-66620980D01*
X111119480Y-66732784D01*
X111040423Y-66869716D01*
X110999500Y-67022443D01*
X109898577Y-67022443D01*
X109894577Y-67007516D01*
X109815520Y-66870584D01*
X109703716Y-66758780D01*
X109566784Y-66679723D01*
X109414057Y-66638800D01*
X109255943Y-66638800D01*
X109103216Y-66679723D01*
X108966284Y-66758780D01*
X108854480Y-66870584D01*
X108775423Y-67007516D01*
X108734500Y-67160243D01*
X100500500Y-67160243D01*
X100500500Y-66281243D01*
X125042800Y-66281243D01*
X125042800Y-66439357D01*
X125083723Y-66592084D01*
X125162780Y-66729016D01*
X125274584Y-66840820D01*
X125411516Y-66919877D01*
X125564243Y-66960800D01*
X125564245Y-66960800D01*
X125722355Y-66960800D01*
X125722357Y-66960800D01*
X125875084Y-66919877D01*
X126012016Y-66840820D01*
X126123820Y-66729016D01*
X126202877Y-66592084D01*
X126243800Y-66439357D01*
X126243800Y-66281243D01*
X126202877Y-66128516D01*
X126123820Y-65991584D01*
X126012016Y-65879780D01*
X125875084Y-65800723D01*
X125722357Y-65759800D01*
X125564243Y-65759800D01*
X125411516Y-65800723D01*
X125274584Y-65879780D01*
X125162780Y-65991584D01*
X125083723Y-66128516D01*
X125042800Y-66281243D01*
X100500500Y-66281243D01*
X100500500Y-65376043D01*
X107781300Y-65376043D01*
X107781300Y-65534157D01*
X107822223Y-65686884D01*
X107901280Y-65823816D01*
X108013084Y-65935620D01*
X108150016Y-66014677D01*
X108302743Y-66055600D01*
X108302745Y-66055600D01*
X108460855Y-66055600D01*
X108460857Y-66055600D01*
X108613584Y-66014677D01*
X108750516Y-65935620D01*
X108862320Y-65823816D01*
X108941377Y-65686884D01*
X108982300Y-65534157D01*
X108982300Y-65376043D01*
X108941377Y-65223316D01*
X108862320Y-65086384D01*
X108750516Y-64974580D01*
X108613584Y-64895523D01*
X108460857Y-64854600D01*
X108302743Y-64854600D01*
X108150016Y-64895523D01*
X108013084Y-64974580D01*
X107901280Y-65086384D01*
X107822223Y-65223316D01*
X107781300Y-65376043D01*
X100500500Y-65376043D01*
X100500500Y-64507343D01*
X103331900Y-64507343D01*
X103331900Y-64665457D01*
X103372823Y-64818184D01*
X103451880Y-64955116D01*
X103563684Y-65066920D01*
X103700616Y-65145977D01*
X103853343Y-65186900D01*
X103853345Y-65186900D01*
X104011455Y-65186900D01*
X104011457Y-65186900D01*
X104164184Y-65145977D01*
X104301116Y-65066920D01*
X104412920Y-64955116D01*
X104491977Y-64818184D01*
X104532900Y-64665457D01*
X104532900Y-64507343D01*
X104491977Y-64354616D01*
X104412920Y-64217684D01*
X104301116Y-64105880D01*
X104164184Y-64026823D01*
X104011457Y-63985900D01*
X103853343Y-63985900D01*
X103700616Y-64026823D01*
X103563684Y-64105880D01*
X103451880Y-64217684D01*
X103372823Y-64354616D01*
X103331900Y-64507343D01*
X100500500Y-64507343D01*
X100500500Y-63909450D01*
X118849500Y-63909450D01*
X118849500Y-64090549D01*
X118877828Y-64269406D01*
X118933788Y-64441637D01*
X119010096Y-64591400D01*
X119016004Y-64602994D01*
X119122447Y-64749501D01*
X119250499Y-64877553D01*
X119397006Y-64983996D01*
X119558361Y-65066211D01*
X119730591Y-65122171D01*
X119802136Y-65133502D01*
X119909451Y-65150500D01*
X119909454Y-65150500D01*
X120090549Y-65150500D01*
X120179977Y-65136335D01*
X120269409Y-65122171D01*
X120441639Y-65066211D01*
X120602994Y-64983996D01*
X120749501Y-64877553D01*
X120877553Y-64749501D01*
X120983996Y-64602994D01*
X121066211Y-64441639D01*
X121122171Y-64269409D01*
X121136335Y-64179977D01*
X121150500Y-64090549D01*
X121150500Y-63913424D01*
X121400000Y-63913424D01*
X121400000Y-64086575D01*
X121427084Y-64257579D01*
X121480588Y-64422248D01*
X121559194Y-64576522D01*
X121593463Y-64623691D01*
X122031979Y-64185174D01*
X122034075Y-64192993D01*
X122099901Y-64307007D01*
X122192993Y-64400099D01*
X122307007Y-64465925D01*
X122314822Y-64468019D01*
X121876307Y-64906535D01*
X121923476Y-64940804D01*
X122077751Y-65019411D01*
X122242420Y-65072915D01*
X122413425Y-65100000D01*
X122586575Y-65100000D01*
X122757579Y-65072915D01*
X122922248Y-65019411D01*
X123076524Y-64940804D01*
X123076530Y-64940800D01*
X123123691Y-64906535D01*
X122685175Y-64468019D01*
X122692993Y-64465925D01*
X122807007Y-64400099D01*
X122900099Y-64307007D01*
X122965925Y-64192993D01*
X122968019Y-64185175D01*
X123406535Y-64623691D01*
X123440800Y-64576530D01*
X123440804Y-64576524D01*
X123519411Y-64422248D01*
X123572915Y-64257579D01*
X123600000Y-64086575D01*
X123600000Y-63913425D01*
X123599999Y-63913424D01*
X123599370Y-63909450D01*
X123849500Y-63909450D01*
X123849500Y-64090549D01*
X123877828Y-64269406D01*
X123933788Y-64441637D01*
X124010096Y-64591400D01*
X124016004Y-64602994D01*
X124122447Y-64749501D01*
X124250499Y-64877553D01*
X124397006Y-64983996D01*
X124558361Y-65066211D01*
X124730591Y-65122171D01*
X124802136Y-65133502D01*
X124909451Y-65150500D01*
X124909454Y-65150500D01*
X125090549Y-65150500D01*
X125179977Y-65136335D01*
X125269409Y-65122171D01*
X125298118Y-65112843D01*
X126232500Y-65112843D01*
X126232500Y-65270957D01*
X126273423Y-65423684D01*
X126352480Y-65560616D01*
X126464284Y-65672420D01*
X126601216Y-65751477D01*
X126753943Y-65792400D01*
X126753945Y-65792400D01*
X126912055Y-65792400D01*
X126912057Y-65792400D01*
X127064784Y-65751477D01*
X127201716Y-65672420D01*
X127313520Y-65560616D01*
X127392577Y-65423684D01*
X127433500Y-65270957D01*
X127433500Y-65112843D01*
X127392577Y-64960116D01*
X127369961Y-64920943D01*
X159999500Y-64920943D01*
X159999500Y-65079057D01*
X160040423Y-65231784D01*
X160119480Y-65368716D01*
X160231284Y-65480520D01*
X160368216Y-65559577D01*
X160520943Y-65600500D01*
X160520945Y-65600500D01*
X160679055Y-65600500D01*
X160679057Y-65600500D01*
X160831784Y-65559577D01*
X160968716Y-65480520D01*
X161080520Y-65368716D01*
X161159577Y-65231784D01*
X161200500Y-65079057D01*
X161200500Y-64920943D01*
X166799500Y-64920943D01*
X166799500Y-65079057D01*
X166840423Y-65231784D01*
X166919480Y-65368716D01*
X167031284Y-65480520D01*
X167168216Y-65559577D01*
X167320943Y-65600500D01*
X167320945Y-65600500D01*
X167479055Y-65600500D01*
X167479057Y-65600500D01*
X167631784Y-65559577D01*
X167768716Y-65480520D01*
X167880520Y-65368716D01*
X167959577Y-65231784D01*
X168000500Y-65079057D01*
X168000500Y-64920943D01*
X167959577Y-64768216D01*
X167880520Y-64631284D01*
X167768716Y-64519480D01*
X167631784Y-64440423D01*
X167479057Y-64399500D01*
X167320943Y-64399500D01*
X167168216Y-64440423D01*
X167031284Y-64519480D01*
X166919480Y-64631284D01*
X166840423Y-64768216D01*
X166799500Y-64920943D01*
X161200500Y-64920943D01*
X161159577Y-64768216D01*
X161080520Y-64631284D01*
X160968716Y-64519480D01*
X160831784Y-64440423D01*
X160679057Y-64399500D01*
X160520943Y-64399500D01*
X160368216Y-64440423D01*
X160231284Y-64519480D01*
X160119480Y-64631284D01*
X160040423Y-64768216D01*
X159999500Y-64920943D01*
X127369961Y-64920943D01*
X127313520Y-64823184D01*
X127201716Y-64711380D01*
X127064784Y-64632323D01*
X126912057Y-64591400D01*
X126753943Y-64591400D01*
X126601216Y-64632323D01*
X126464284Y-64711380D01*
X126352480Y-64823184D01*
X126273423Y-64960116D01*
X126232500Y-65112843D01*
X125298118Y-65112843D01*
X125441639Y-65066211D01*
X125602994Y-64983996D01*
X125749501Y-64877553D01*
X125877553Y-64749501D01*
X125983996Y-64602994D01*
X126066211Y-64441639D01*
X126122171Y-64269409D01*
X126136335Y-64179977D01*
X126137468Y-64172824D01*
X185649999Y-64172824D01*
X185656401Y-64232370D01*
X185656403Y-64232381D01*
X185706646Y-64367088D01*
X185706647Y-64367090D01*
X185792807Y-64482184D01*
X185792815Y-64482192D01*
X185907909Y-64568352D01*
X185907911Y-64568353D01*
X186042618Y-64618596D01*
X186042629Y-64618598D01*
X186102176Y-64625000D01*
X186299999Y-64625000D01*
X186300000Y-64624999D01*
X186300000Y-63817542D01*
X186355255Y-63849444D01*
X186450630Y-63875000D01*
X186549370Y-63875000D01*
X186644745Y-63849444D01*
X186700000Y-63817542D01*
X186700000Y-64624999D01*
X186700001Y-64625000D01*
X186897824Y-64625000D01*
X186957370Y-64618598D01*
X186957381Y-64618596D01*
X187092088Y-64568353D01*
X187092090Y-64568352D01*
X187207184Y-64482192D01*
X187207192Y-64482184D01*
X187293352Y-64367090D01*
X187293353Y-64367088D01*
X187343596Y-64232381D01*
X187343598Y-64232370D01*
X187350000Y-64172824D01*
X187350000Y-63700001D01*
X187349999Y-63700000D01*
X186817543Y-63700000D01*
X186849444Y-63644745D01*
X186875000Y-63549370D01*
X186875000Y-63450630D01*
X186849444Y-63355255D01*
X186817543Y-63300000D01*
X187349999Y-63300000D01*
X187350000Y-63299999D01*
X187350000Y-63136306D01*
X187599500Y-63136306D01*
X187599500Y-63863693D01*
X187634106Y-64037665D01*
X187634106Y-64037667D01*
X187701985Y-64201544D01*
X187701985Y-64201545D01*
X187800535Y-64349034D01*
X187800536Y-64349035D01*
X187925965Y-64474464D01*
X188073453Y-64573013D01*
X188073454Y-64573013D01*
X188073455Y-64573014D01*
X188081929Y-64576524D01*
X188237334Y-64640894D01*
X188411309Y-64675500D01*
X188411310Y-64675500D01*
X188588690Y-64675500D01*
X188588691Y-64675500D01*
X188762666Y-64640894D01*
X188926547Y-64573013D01*
X189074035Y-64474464D01*
X189199464Y-64349035D01*
X189298013Y-64201547D01*
X189365894Y-64037666D01*
X189400500Y-63863691D01*
X189400500Y-63136309D01*
X189400499Y-63136306D01*
X189599500Y-63136306D01*
X189599500Y-63863693D01*
X189634106Y-64037665D01*
X189634106Y-64037667D01*
X189701985Y-64201544D01*
X189701985Y-64201545D01*
X189800535Y-64349034D01*
X189800536Y-64349035D01*
X189925965Y-64474464D01*
X190073453Y-64573013D01*
X190073454Y-64573013D01*
X190073455Y-64573014D01*
X190081929Y-64576524D01*
X190237334Y-64640894D01*
X190411309Y-64675500D01*
X190411310Y-64675500D01*
X190588690Y-64675500D01*
X190588691Y-64675500D01*
X190762666Y-64640894D01*
X190926547Y-64573013D01*
X191074035Y-64474464D01*
X191199464Y-64349035D01*
X191298013Y-64201547D01*
X191365894Y-64037666D01*
X191400500Y-63863691D01*
X191400500Y-63136309D01*
X191400499Y-63136306D01*
X191599500Y-63136306D01*
X191599500Y-63863693D01*
X191634106Y-64037665D01*
X191634106Y-64037667D01*
X191701985Y-64201544D01*
X191701985Y-64201545D01*
X191800535Y-64349034D01*
X191800536Y-64349035D01*
X191925965Y-64474464D01*
X192073453Y-64573013D01*
X192073454Y-64573013D01*
X192073455Y-64573014D01*
X192081929Y-64576524D01*
X192237334Y-64640894D01*
X192411309Y-64675500D01*
X192411310Y-64675500D01*
X192588690Y-64675500D01*
X192588691Y-64675500D01*
X192762666Y-64640894D01*
X192926547Y-64573013D01*
X193074035Y-64474464D01*
X193199464Y-64349035D01*
X193298013Y-64201547D01*
X193365894Y-64037666D01*
X193400500Y-63863691D01*
X193400500Y-63136309D01*
X193365894Y-62962334D01*
X193298014Y-62798455D01*
X193298014Y-62798454D01*
X193199464Y-62650965D01*
X193074034Y-62525535D01*
X192926544Y-62426985D01*
X192762666Y-62359106D01*
X192588693Y-62324500D01*
X192588691Y-62324500D01*
X192411309Y-62324500D01*
X192411306Y-62324500D01*
X192237334Y-62359106D01*
X192237332Y-62359106D01*
X192073455Y-62426985D01*
X192073454Y-62426985D01*
X191925965Y-62525535D01*
X191800535Y-62650965D01*
X191701985Y-62798454D01*
X191701985Y-62798455D01*
X191634106Y-62962332D01*
X191634106Y-62962334D01*
X191599500Y-63136306D01*
X191400499Y-63136306D01*
X191365894Y-62962334D01*
X191298014Y-62798455D01*
X191298014Y-62798454D01*
X191199464Y-62650965D01*
X191074034Y-62525535D01*
X190926544Y-62426985D01*
X190762666Y-62359106D01*
X190588693Y-62324500D01*
X190588691Y-62324500D01*
X190411309Y-62324500D01*
X190411306Y-62324500D01*
X190237334Y-62359106D01*
X190237332Y-62359106D01*
X190073455Y-62426985D01*
X190073454Y-62426985D01*
X189925965Y-62525535D01*
X189800535Y-62650965D01*
X189701985Y-62798454D01*
X189701985Y-62798455D01*
X189634106Y-62962332D01*
X189634106Y-62962334D01*
X189599500Y-63136306D01*
X189400499Y-63136306D01*
X189365894Y-62962334D01*
X189298014Y-62798455D01*
X189298014Y-62798454D01*
X189199464Y-62650965D01*
X189074034Y-62525535D01*
X188926544Y-62426985D01*
X188762666Y-62359106D01*
X188588693Y-62324500D01*
X188588691Y-62324500D01*
X188411309Y-62324500D01*
X188411306Y-62324500D01*
X188237334Y-62359106D01*
X188237332Y-62359106D01*
X188073455Y-62426985D01*
X188073454Y-62426985D01*
X187925965Y-62525535D01*
X187800535Y-62650965D01*
X187701985Y-62798454D01*
X187701985Y-62798455D01*
X187634106Y-62962332D01*
X187634106Y-62962334D01*
X187599500Y-63136306D01*
X187350000Y-63136306D01*
X187350000Y-62827175D01*
X187343598Y-62767629D01*
X187343596Y-62767618D01*
X187293353Y-62632911D01*
X187293352Y-62632909D01*
X187207192Y-62517815D01*
X187207184Y-62517807D01*
X187092090Y-62431647D01*
X187092088Y-62431646D01*
X186957381Y-62381403D01*
X186957370Y-62381401D01*
X186897824Y-62375000D01*
X186700001Y-62375000D01*
X186700000Y-62375001D01*
X186700000Y-63182457D01*
X186644745Y-63150556D01*
X186549370Y-63125000D01*
X186450630Y-63125000D01*
X186355255Y-63150556D01*
X186300000Y-63182457D01*
X186300000Y-62375001D01*
X186299999Y-62375000D01*
X186102176Y-62375000D01*
X186042629Y-62381401D01*
X186042618Y-62381403D01*
X185907911Y-62431646D01*
X185907909Y-62431647D01*
X185792815Y-62517807D01*
X185792807Y-62517815D01*
X185706647Y-62632909D01*
X185706646Y-62632911D01*
X185656403Y-62767618D01*
X185656401Y-62767629D01*
X185650000Y-62827175D01*
X185650000Y-63299999D01*
X185650001Y-63300000D01*
X186182457Y-63300000D01*
X186150556Y-63355255D01*
X186125000Y-63450630D01*
X186125000Y-63549370D01*
X186150556Y-63644745D01*
X186182457Y-63700000D01*
X185650001Y-63700000D01*
X185650000Y-63700001D01*
X185650000Y-64172824D01*
X185649999Y-64172824D01*
X126137468Y-64172824D01*
X126150500Y-64090549D01*
X126150500Y-63909450D01*
X126131614Y-63790212D01*
X126122171Y-63730591D01*
X126094278Y-63644745D01*
X126066211Y-63558362D01*
X126066211Y-63558361D01*
X125983996Y-63397006D01*
X125877553Y-63250499D01*
X125749501Y-63122447D01*
X125602994Y-63016004D01*
X125602993Y-63016003D01*
X125602991Y-63016002D01*
X125441637Y-62933788D01*
X125395126Y-62918676D01*
X125269406Y-62877828D01*
X125090549Y-62849500D01*
X125090546Y-62849500D01*
X124909454Y-62849500D01*
X124909451Y-62849500D01*
X124730593Y-62877828D01*
X124558362Y-62933788D01*
X124397008Y-63016002D01*
X124337560Y-63059194D01*
X124250499Y-63122447D01*
X124122447Y-63250499D01*
X124086483Y-63300000D01*
X124016002Y-63397008D01*
X123933788Y-63558362D01*
X123877828Y-63730593D01*
X123849500Y-63909450D01*
X123599370Y-63909450D01*
X123572915Y-63742420D01*
X123519411Y-63577751D01*
X123440804Y-63423476D01*
X123406535Y-63376307D01*
X122968019Y-63814822D01*
X122965925Y-63807007D01*
X122900099Y-63692993D01*
X122807007Y-63599901D01*
X122692993Y-63534075D01*
X122685174Y-63531979D01*
X123123691Y-63093463D01*
X123076522Y-63059194D01*
X122922248Y-62980588D01*
X122757579Y-62927084D01*
X122586575Y-62900000D01*
X122413425Y-62900000D01*
X122242420Y-62927084D01*
X122077751Y-62980588D01*
X121923473Y-63059196D01*
X121876307Y-63093463D01*
X122314824Y-63531980D01*
X122307007Y-63534075D01*
X122192993Y-63599901D01*
X122099901Y-63692993D01*
X122034075Y-63807007D01*
X122031980Y-63814824D01*
X121593463Y-63376307D01*
X121559196Y-63423473D01*
X121480588Y-63577751D01*
X121427084Y-63742420D01*
X121400000Y-63913424D01*
X121150500Y-63913424D01*
X121150500Y-63909450D01*
X121131614Y-63790212D01*
X121122171Y-63730591D01*
X121066211Y-63558361D01*
X120983996Y-63397006D01*
X120877553Y-63250499D01*
X120749501Y-63122447D01*
X120602994Y-63016004D01*
X120602993Y-63016003D01*
X120602991Y-63016002D01*
X120441637Y-62933788D01*
X120269406Y-62877828D01*
X120090549Y-62849500D01*
X120090546Y-62849500D01*
X119909454Y-62849500D01*
X119909451Y-62849500D01*
X119730593Y-62877828D01*
X119558362Y-62933788D01*
X119397008Y-63016002D01*
X119337560Y-63059194D01*
X119250499Y-63122447D01*
X119122447Y-63250499D01*
X119086483Y-63300000D01*
X119016002Y-63397008D01*
X118933788Y-63558362D01*
X118877828Y-63730593D01*
X118849500Y-63909450D01*
X100500500Y-63909450D01*
X100500500Y-60599500D01*
X100519407Y-60541309D01*
X100568907Y-60505345D01*
X100599500Y-60500500D01*
X199400500Y-60500500D01*
X199458691Y-60519407D01*
G37*
%TD.AperFunction*%
%TD*%
M02*
