%TF.GenerationSoftware,KiCad,Pcbnew,9.0.2+dfsg-1*%
%TF.CreationDate,2026-07-28T14:15:07+02:00*%
%TF.ProjectId,AskSin-Analyzer-V3,41736b53-696e-42d4-916e-616c797a6572,rev?*%
%TF.SameCoordinates,Original*%
%TF.FileFunction,Copper,L1,Top*%
%TF.FilePolarity,Positive*%
%FSLAX46Y46*%
G04 Gerber Fmt 4.6, Leading zero omitted, Abs format (unit mm)*
G04 Created by KiCad (PCBNEW 9.0.2+dfsg-1) date 2026-07-28 14:15:07*
%MOMM*%
%LPD*%
G01*
G04 APERTURE LIST*
G04 Aperture macros list*
%AMRoundRect*
0 Rectangle with rounded corners*
0 $1 Rounding radius*
0 $2 $3 $4 $5 $6 $7 $8 $9 X,Y pos of 4 corners*
0 Add a 4 corners polygon primitive as box body*
4,1,4,$2,$3,$4,$5,$6,$7,$8,$9,$2,$3,0*
0 Add four circle primitives for the rounded corners*
1,1,$1+$1,$2,$3*
1,1,$1+$1,$4,$5*
1,1,$1+$1,$6,$7*
1,1,$1+$1,$8,$9*
0 Add four rect primitives between the rounded corners*
20,1,$1+$1,$2,$3,$4,$5,0*
20,1,$1+$1,$4,$5,$6,$7,0*
20,1,$1+$1,$6,$7,$8,$9,0*
20,1,$1+$1,$8,$9,$2,$3,0*%
G04 Aperture macros list end*
%TA.AperFunction,SMDPad,CuDef*%
%ADD10RoundRect,0.250000X-0.325000X-0.450000X0.325000X-0.450000X0.325000X0.450000X-0.325000X0.450000X0*%
%TD*%
%TA.AperFunction,ComponentPad*%
%ADD11RoundRect,0.250000X0.625000X-0.350000X0.625000X0.350000X-0.625000X0.350000X-0.625000X-0.350000X0*%
%TD*%
%TA.AperFunction,ComponentPad*%
%ADD12O,1.750000X1.200000*%
%TD*%
%TA.AperFunction,ComponentPad*%
%ADD13C,1.700000*%
%TD*%
%TA.AperFunction,SMDPad,CuDef*%
%ADD14R,1.000000X1.000000*%
%TD*%
%TA.AperFunction,SMDPad,CuDef*%
%ADD15R,1.800000X0.800000*%
%TD*%
%TA.AperFunction,SMDPad,CuDef*%
%ADD16R,0.900000X1.700000*%
%TD*%
%TA.AperFunction,SMDPad,CuDef*%
%ADD17RoundRect,0.250000X-0.350000X-0.450000X0.350000X-0.450000X0.350000X0.450000X-0.350000X0.450000X0*%
%TD*%
%TA.AperFunction,SMDPad,CuDef*%
%ADD18RoundRect,0.250000X0.475000X-0.337500X0.475000X0.337500X-0.475000X0.337500X-0.475000X-0.337500X0*%
%TD*%
%TA.AperFunction,SMDPad,CuDef*%
%ADD19RoundRect,0.150000X-0.587500X-0.150000X0.587500X-0.150000X0.587500X0.150000X-0.587500X0.150000X0*%
%TD*%
%TA.AperFunction,SMDPad,CuDef*%
%ADD20RoundRect,0.137500X-0.600000X-0.137500X0.600000X-0.137500X0.600000X0.137500X-0.600000X0.137500X0*%
%TD*%
%TA.AperFunction,SMDPad,CuDef*%
%ADD21RoundRect,0.137500X-0.137500X-0.600000X0.137500X-0.600000X0.137500X0.600000X-0.137500X0.600000X0*%
%TD*%
%TA.AperFunction,SMDPad,CuDef*%
%ADD22RoundRect,0.250000X0.450000X-0.350000X0.450000X0.350000X-0.450000X0.350000X-0.450000X-0.350000X0*%
%TD*%
%TA.AperFunction,ComponentPad*%
%ADD23R,1.700000X1.700000*%
%TD*%
%TA.AperFunction,SMDPad,CuDef*%
%ADD24RoundRect,0.250000X-0.337500X-0.475000X0.337500X-0.475000X0.337500X0.475000X-0.337500X0.475000X0*%
%TD*%
%TA.AperFunction,ViaPad*%
%ADD25C,0.600000*%
%TD*%
%TA.AperFunction,Conductor*%
%ADD26C,0.200000*%
%TD*%
%TA.AperFunction,Conductor*%
%ADD27C,0.250000*%
%TD*%
G04 APERTURE END LIST*
D10*
%TO.P,L1,1*%
%TO.N,VREG_OUT*%
X179975000Y-65000000D03*
%TO.P,L1,2*%
%TO.N,+3V3*%
X182025000Y-65000000D03*
%TD*%
D11*
%TO.P,J6,1*%
%TO.N,BTN*%
X169000000Y-90000000D03*
D12*
%TO.P,J6,2*%
%TO.N,GND*%
X169000000Y-88000000D03*
%TD*%
D13*
%TO.P,Y1,1*%
%TO.N,XTAL1*%
X178000000Y-82000000D03*
%TO.P,Y1,2*%
%TO.N,GND*%
X178000000Y-79500000D03*
%TO.P,Y1,3*%
%TO.N,XTAL2*%
X178000000Y-77000000D03*
%TD*%
D14*
%TO.P,TP5,1*%
%TO.N,UART_328_TX*%
X201000000Y-104500000D03*
%TD*%
D15*
%TO.P,U3,1*%
%TO.N,GND*%
X212300000Y-95500000D03*
%TO.P,U3,2*%
X212300000Y-94230000D03*
%TO.P,U3,3*%
X212300000Y-92960000D03*
%TO.P,U3,4*%
X212300000Y-87390000D03*
%TO.P,U3,5*%
X212300000Y-86120000D03*
%TO.P,U3,6*%
%TO.N,N/C*%
X212300000Y-84850000D03*
%TO.P,U3,7*%
X212300000Y-83580000D03*
%TO.P,U3,8*%
X212300000Y-82310000D03*
%TO.P,U3,9*%
%TO.N,+3V3*%
X212300000Y-81040000D03*
%TO.P,U3,10*%
%TO.N,N/C*%
X212300000Y-79770000D03*
%TO.P,U3,11*%
%TO.N,GND*%
X212300000Y-78500000D03*
%TO.P,U3,12*%
X197700000Y-78500000D03*
%TO.P,U3,13*%
%TO.N,N/C*%
X197700000Y-79770000D03*
%TO.P,U3,14*%
X197700000Y-81040000D03*
%TO.P,U3,15*%
%TO.N,GDO0*%
X197700000Y-82310000D03*
%TO.P,U3,16*%
%TO.N,MISO*%
X197700000Y-83580000D03*
%TO.P,U3,17*%
%TO.N,MOSI*%
X197700000Y-84850000D03*
%TO.P,U3,18*%
%TO.N,SCK*%
X197700000Y-86120000D03*
%TO.P,U3,19*%
%TO.N,CS*%
X197700000Y-87390000D03*
%TO.P,U3,20*%
%TO.N,GND*%
X197700000Y-92960000D03*
%TO.P,U3,21*%
%TO.N,N/C*%
X197700000Y-94230000D03*
%TO.P,U3,22*%
%TO.N,GND*%
X197700000Y-95500000D03*
%TD*%
D14*
%TO.P,TP6,1*%
%TO.N,UART_PI_TX*%
X204000000Y-104500000D03*
%TD*%
D11*
%TO.P,J7,1*%
%TO.N,PI_3V3*%
X169000000Y-99500000D03*
D12*
%TO.P,J7,2*%
%TO.N,WS_DATA*%
X169000000Y-97500000D03*
%TO.P,J7,3*%
%TO.N,GND*%
X169000000Y-95500000D03*
%TD*%
D14*
%TO.P,TP1,1*%
%TO.N,RESET*%
X189000000Y-72500000D03*
%TD*%
%TO.P,TP2,1*%
%TO.N,+3V3*%
X192000000Y-104500000D03*
%TD*%
D16*
%TO.P,S1,1*%
%TO.N,RESET*%
X192300000Y-101000000D03*
%TO.P,S1,2*%
%TO.N,GND*%
X195700000Y-101000000D03*
%TD*%
D17*
%TO.P,R5,1*%
%TO.N,LED_SPI*%
X181000000Y-101500000D03*
%TO.P,R5,2*%
%TO.N,WS_DATA*%
X183000000Y-101500000D03*
%TD*%
D18*
%TO.P,C9,1*%
%TO.N,AREF*%
X194000000Y-91537500D03*
%TO.P,C9,2*%
%TO.N,GND*%
X194000000Y-89462500D03*
%TD*%
%TO.P,C2,1*%
%TO.N,+3V3*%
X186500000Y-66537500D03*
%TO.P,C2,2*%
%TO.N,GND*%
X186500000Y-64462500D03*
%TD*%
D19*
%TO.P,U1,1*%
%TO.N,GND*%
X169062500Y-64050000D03*
%TO.P,U1,2*%
%TO.N,VREG_OUT*%
X169062500Y-65950000D03*
%TO.P,U1,3*%
%TO.N,+5V*%
X170937500Y-65000000D03*
%TD*%
D17*
%TO.P,R3,1*%
%TO.N,+3V3*%
X187000000Y-101500000D03*
%TO.P,R3,2*%
%TO.N,CS*%
X189000000Y-101500000D03*
%TD*%
D10*
%TO.P,D1,1*%
%TO.N,LED_K*%
X180975000Y-96000000D03*
%TO.P,D1,2*%
%TO.N,GND*%
X183025000Y-96000000D03*
%TD*%
D20*
%TO.P,U2,1*%
%TO.N,N/C*%
X182837500Y-83200000D03*
%TO.P,U2,2*%
%TO.N,LED_A*%
X182837500Y-84000000D03*
%TO.P,U2,3*%
%TO.N,GND*%
X182837500Y-84800000D03*
%TO.P,U2,4*%
%TO.N,+3V3*%
X182837500Y-85600000D03*
%TO.P,U2,5*%
%TO.N,GND*%
X182837500Y-86400000D03*
%TO.P,U2,6*%
%TO.N,+3V3*%
X182837500Y-87200000D03*
%TO.P,U2,7*%
%TO.N,XTAL1*%
X182837500Y-88000000D03*
%TO.P,U2,8*%
%TO.N,XTAL2*%
X182837500Y-88800000D03*
D21*
%TO.P,U2,9*%
%TO.N,N/C*%
X184200000Y-90162500D03*
%TO.P,U2,10*%
X185000000Y-90162500D03*
%TO.P,U2,11*%
X185800000Y-90162500D03*
%TO.P,U2,12*%
X186600000Y-90162500D03*
%TO.P,U2,13*%
X187400000Y-90162500D03*
%TO.P,U2,14*%
%TO.N,CS*%
X188200000Y-90162500D03*
%TO.P,U2,15*%
%TO.N,MOSI*%
X189000000Y-90162500D03*
%TO.P,U2,16*%
%TO.N,MISO*%
X189800000Y-90162500D03*
D20*
%TO.P,U2,17*%
%TO.N,SCK*%
X191162500Y-88800000D03*
%TO.P,U2,18*%
%TO.N,+3V3*%
X191162500Y-88000000D03*
%TO.P,U2,19*%
%TO.N,N/C*%
X191162500Y-87200000D03*
%TO.P,U2,20*%
%TO.N,AREF*%
X191162500Y-86400000D03*
%TO.P,U2,21*%
%TO.N,GND*%
X191162500Y-85600000D03*
%TO.P,U2,22*%
%TO.N,N/C*%
X191162500Y-84800000D03*
%TO.P,U2,23*%
X191162500Y-84000000D03*
%TO.P,U2,24*%
X191162500Y-83200000D03*
D21*
%TO.P,U2,25*%
X189800000Y-81837500D03*
%TO.P,U2,26*%
X189000000Y-81837500D03*
%TO.P,U2,27*%
X188200000Y-81837500D03*
%TO.P,U2,28*%
X187400000Y-81837500D03*
%TO.P,U2,29*%
%TO.N,RESET*%
X186600000Y-81837500D03*
%TO.P,U2,30*%
%TO.N,UART_PI_TX*%
X185800000Y-81837500D03*
%TO.P,U2,31*%
%TO.N,UART_328_TX*%
X185000000Y-81837500D03*
%TO.P,U2,32*%
%TO.N,GDO0*%
X184200000Y-81837500D03*
%TD*%
D14*
%TO.P,TP8,1*%
%TO.N,CS*%
X210000000Y-104500000D03*
%TD*%
D18*
%TO.P,C5,1*%
%TO.N,+3V3*%
X215800000Y-82037500D03*
%TO.P,C5,2*%
%TO.N,GND*%
X215800000Y-79962500D03*
%TD*%
D22*
%TO.P,R2,1*%
%TO.N,+3V3*%
X194000000Y-77000000D03*
%TO.P,R2,2*%
%TO.N,RESET*%
X194000000Y-75000000D03*
%TD*%
D18*
%TO.P,C3,1*%
%TO.N,+3V3*%
X180500000Y-91537500D03*
%TO.P,C3,2*%
%TO.N,GND*%
X180500000Y-89462500D03*
%TD*%
D11*
%TO.P,J5,1*%
%TO.N,GND*%
X169000000Y-80500000D03*
D12*
%TO.P,J5,2*%
%TO.N,PI_3V3*%
X169000000Y-78500000D03*
%TO.P,J5,3*%
%TO.N,I2C_SCL*%
X169000000Y-76500000D03*
%TO.P,J5,4*%
%TO.N,I2C_SDA*%
X169000000Y-74500000D03*
%TD*%
D17*
%TO.P,R4,1*%
%TO.N,LED_PWM*%
X175000000Y-101500000D03*
%TO.P,R4,2*%
%TO.N,WS_DATA*%
X177000000Y-101500000D03*
%TD*%
D14*
%TO.P,TP3,1*%
%TO.N,+5V*%
X195000000Y-104500000D03*
%TD*%
%TO.P,TP7,1*%
%TO.N,GDO0*%
X207000000Y-104500000D03*
%TD*%
D17*
%TO.P,R1,1*%
%TO.N,LED_A*%
X175000000Y-96000000D03*
%TO.P,R1,2*%
%TO.N,LED_K*%
X177000000Y-96000000D03*
%TD*%
D18*
%TO.P,C4,1*%
%TO.N,+3V3*%
X194000000Y-82537500D03*
%TO.P,C4,2*%
%TO.N,GND*%
X194000000Y-80462500D03*
%TD*%
D23*
%TO.P,J2,1*%
%TO.N,MISO*%
X198000000Y-66000000D03*
D13*
%TO.P,J2,2*%
%TO.N,+3V3*%
X200540000Y-66000000D03*
%TO.P,J2,3*%
%TO.N,SCK*%
X198000000Y-68540000D03*
%TO.P,J2,4*%
%TO.N,MOSI*%
X200540000Y-68540000D03*
%TO.P,J2,5*%
%TO.N,RESET*%
X198000000Y-71080000D03*
%TO.P,J2,6*%
%TO.N,GND*%
X200540000Y-71080000D03*
%TD*%
D18*
%TO.P,C1,1*%
%TO.N,VREG_OUT*%
X175500000Y-66537500D03*
%TO.P,C1,2*%
%TO.N,GND*%
X175500000Y-64462500D03*
%TD*%
D24*
%TO.P,C8,1*%
%TO.N,PI_RESET_DRV*%
X175962500Y-73500000D03*
%TO.P,C8,2*%
%TO.N,RESET*%
X178037500Y-73500000D03*
%TD*%
D14*
%TO.P,TP4,1*%
%TO.N,GND*%
X198000000Y-104500000D03*
%TD*%
D23*
%TO.P,J1,1*%
%TO.N,PI_3V3*%
X108370000Y-64770000D03*
D13*
%TO.P,J1,2*%
%TO.N,+5V*%
X108370000Y-67310000D03*
%TO.P,J1,3*%
%TO.N,I2C_SDA*%
X110910000Y-64770000D03*
%TO.P,J1,4*%
%TO.N,+5V*%
X110910000Y-67310000D03*
%TO.P,J1,5*%
%TO.N,I2C_SCL*%
X113450000Y-64770000D03*
%TO.P,J1,6*%
%TO.N,GND*%
X113450000Y-67310000D03*
%TO.P,J1,7*%
%TO.N,PI_RESET_DRV*%
X115990000Y-64770000D03*
%TO.P,J1,8*%
%TO.N,UART_PI_TX*%
X115990000Y-67310000D03*
%TO.P,J1,9*%
%TO.N,GND*%
X118530000Y-64770000D03*
%TO.P,J1,10*%
%TO.N,UART_328_TX*%
X118530000Y-67310000D03*
%TO.P,J1,11*%
%TO.N,BTN*%
X121070000Y-64770000D03*
%TO.P,J1,12*%
%TO.N,LED_PWM*%
X121070000Y-67310000D03*
%TO.P,J1,13*%
%TO.N,N/C*%
X123610000Y-64770000D03*
%TO.P,J1,14*%
%TO.N,GND*%
X123610000Y-67310000D03*
%TO.P,J1,15*%
%TO.N,N/C*%
X126150000Y-64770000D03*
%TO.P,J1,16*%
X126150000Y-67310000D03*
%TO.P,J1,17*%
X128690000Y-64770000D03*
%TO.P,J1,18*%
X128690000Y-67310000D03*
%TO.P,J1,19*%
%TO.N,LED_SPI*%
X131230000Y-64770000D03*
%TO.P,J1,20*%
%TO.N,GND*%
X131230000Y-67310000D03*
%TO.P,J1,21*%
%TO.N,N/C*%
X133770000Y-64770000D03*
%TO.P,J1,22*%
X133770000Y-67310000D03*
%TO.P,J1,23*%
X136310000Y-64770000D03*
%TO.P,J1,24*%
X136310000Y-67310000D03*
%TO.P,J1,25*%
%TO.N,GND*%
X138850000Y-64770000D03*
%TO.P,J1,26*%
%TO.N,N/C*%
X138850000Y-67310000D03*
%TO.P,J1,27*%
X141390000Y-64770000D03*
%TO.P,J1,28*%
X141390000Y-67310000D03*
%TO.P,J1,29*%
X143930000Y-64770000D03*
%TO.P,J1,30*%
%TO.N,GND*%
X143930000Y-67310000D03*
%TO.P,J1,31*%
%TO.N,N/C*%
X146470000Y-64770000D03*
%TO.P,J1,32*%
X146470000Y-67310000D03*
%TO.P,J1,33*%
X149010000Y-64770000D03*
%TO.P,J1,34*%
%TO.N,GND*%
X149010000Y-67310000D03*
%TO.P,J1,35*%
%TO.N,N/C*%
X151550000Y-64770000D03*
%TO.P,J1,36*%
X151550000Y-67310000D03*
%TO.P,J1,37*%
X154090000Y-64770000D03*
%TO.P,J1,38*%
X154090000Y-67310000D03*
%TO.P,J1,39*%
%TO.N,GND*%
X156630000Y-64770000D03*
%TO.P,J1,40*%
%TO.N,N/C*%
X156630000Y-67310000D03*
%TD*%
D25*
%TO.N,+5V*%
X192070700Y-103365600D03*
X174243700Y-65496500D03*
%TO.N,LED_PWM*%
X172173800Y-101321800D03*
X166575400Y-69389400D03*
%TO.N,LED_SPI*%
X178607000Y-101116600D03*
%TO.N,+3V3*%
X193781600Y-85277400D03*
%TO.N,GND*%
X202000000Y-90000000D03*
X211000000Y-99000000D03*
X214000000Y-69000000D03*
X208000000Y-90000000D03*
X215800000Y-80000000D03*
X186000000Y-83600000D03*
X211000000Y-87000000D03*
X195600000Y-87900000D03*
X194700000Y-83700000D03*
X184700000Y-87400000D03*
X208000000Y-66000000D03*
X115000000Y-69000000D03*
X214000000Y-90000000D03*
X211000000Y-66000000D03*
X205000000Y-96000000D03*
X208000000Y-63000000D03*
X175000000Y-81000000D03*
X214000000Y-87000000D03*
X212300000Y-93000000D03*
X195600000Y-87900000D03*
X181000000Y-99000000D03*
X175000000Y-78000000D03*
X214000000Y-84000000D03*
X184000000Y-69000000D03*
X166000000Y-99000000D03*
X103000000Y-66000000D03*
X211000000Y-63000000D03*
X103000000Y-69000000D03*
X214000000Y-75000000D03*
X202000000Y-96000000D03*
X175000000Y-63000000D03*
X166000000Y-102000000D03*
X187000000Y-63000000D03*
X208000000Y-72000000D03*
X109000000Y-63000000D03*
X205000000Y-87000000D03*
X214000000Y-93000000D03*
X195600000Y-91900000D03*
X212300000Y-94200000D03*
X181000000Y-63000000D03*
X212300000Y-95500000D03*
X187000000Y-69000000D03*
X169000000Y-102000000D03*
X106000000Y-69000000D03*
X205000000Y-63000000D03*
X193000000Y-63000000D03*
X194000000Y-80500000D03*
X191900000Y-91900000D03*
X198600000Y-78800000D03*
X169700000Y-63400000D03*
X205000000Y-81000000D03*
X205000000Y-75000000D03*
X175000000Y-87000000D03*
X208000000Y-75000000D03*
X196000000Y-93000000D03*
X211000000Y-75000000D03*
X188300000Y-91900000D03*
X178000000Y-63000000D03*
X166000000Y-87000000D03*
X208000000Y-69000000D03*
X212300000Y-78500000D03*
X214000000Y-99000000D03*
X211000000Y-90000000D03*
X197700000Y-93000000D03*
X184000000Y-84800000D03*
X199000000Y-90000000D03*
X197900000Y-98800000D03*
X169000000Y-81000000D03*
X191900000Y-90500000D03*
X212300000Y-86100000D03*
X177300000Y-86300000D03*
X190000000Y-93000000D03*
X169000000Y-84000000D03*
X202900000Y-78500000D03*
X190000000Y-66000000D03*
X214000000Y-96000000D03*
X190000000Y-63000000D03*
X211000000Y-69000000D03*
X199000000Y-93000000D03*
X196000000Y-63000000D03*
X172000000Y-63000000D03*
X199000000Y-63000000D03*
X184000000Y-63000000D03*
X205000000Y-84000000D03*
X166000000Y-90000000D03*
X103000000Y-72000000D03*
X205000000Y-69000000D03*
X197900000Y-104800000D03*
X205000000Y-90000000D03*
X212300000Y-87400000D03*
X184000000Y-72000000D03*
X175000000Y-84000000D03*
X175500000Y-64500000D03*
X211000000Y-72000000D03*
X208000000Y-84000000D03*
X186500000Y-64500000D03*
X106000000Y-66000000D03*
X205000000Y-72000000D03*
X202000000Y-93000000D03*
X197700000Y-95500000D03*
X196000000Y-84000000D03*
X197700000Y-78500000D03*
X202000000Y-99000000D03*
X211000000Y-93000000D03*
X214000000Y-78000000D03*
X169000000Y-87000000D03*
X211000000Y-96000000D03*
X208000000Y-96000000D03*
X208000000Y-99000000D03*
X169000000Y-93000000D03*
X194700000Y-83700000D03*
X128400000Y-70800000D03*
X166000000Y-84000000D03*
X205000000Y-66000000D03*
X106000000Y-63000000D03*
X214000000Y-63000000D03*
X202000000Y-87000000D03*
X214000000Y-72000000D03*
X166000000Y-81000000D03*
X199000000Y-96000000D03*
X166000000Y-96000000D03*
X106000000Y-72000000D03*
X208000000Y-93000000D03*
X166000000Y-93000000D03*
X208000000Y-87000000D03*
X205000000Y-93000000D03*
X115000000Y-72000000D03*
X196000000Y-66000000D03*
X211000000Y-102000000D03*
X202000000Y-63000000D03*
X193000000Y-66000000D03*
X211000000Y-78000000D03*
X169000000Y-96000000D03*
%TO.N,UART_PI_TX*%
X202206300Y-104085600D03*
X122409300Y-69925200D03*
X187489300Y-79422200D03*
%TO.N,UART_328_TX*%
X186719300Y-78679400D03*
X196278800Y-104619100D03*
%TO.N,RESET*%
X192666300Y-98503000D03*
%TO.N,MOSI*%
X199292500Y-85085000D03*
X189454100Y-88767000D03*
%TO.N,MISO*%
X190639000Y-90092300D03*
X199688800Y-83874800D03*
%TO.N,SCK*%
X189349800Y-87256300D03*
%TO.N,GDO0*%
X207303800Y-81590200D03*
X206643500Y-103392100D03*
%TO.N,XTAL2*%
X178761300Y-88154600D03*
%TO.N,AREF*%
X195567100Y-90959700D03*
X193333200Y-84436400D03*
%TO.N,LED_A*%
X175018300Y-94785300D03*
X180837500Y-84160900D03*
%TD*%
D26*
%TO.N,+5V*%
X158792100Y-65303300D02*
X157057800Y-63569000D01*
X170634200Y-65303300D02*
X158792100Y-65303300D01*
X114720000Y-64337800D02*
X114720000Y-65155400D01*
X110910000Y-67310000D02*
X108370000Y-67310000D01*
X171434000Y-65496500D02*
X170937500Y-65000000D01*
X170937500Y-65000000D02*
X170634200Y-65303300D01*
X157057800Y-63569000D02*
X115488800Y-63569000D01*
X115488800Y-63569000D02*
X114720000Y-64337800D01*
X195000000Y-104500000D02*
X194198300Y-104500000D01*
X192070700Y-103365600D02*
X192546600Y-103365600D01*
X114720000Y-65155400D02*
X113835400Y-66040000D01*
X192546600Y-103365600D02*
X193681000Y-104500000D01*
X113835400Y-66040000D02*
X112180000Y-66040000D01*
X193681000Y-104500000D02*
X194198300Y-104500000D01*
X112180000Y-66040000D02*
X110910000Y-67310000D01*
X174243700Y-65496500D02*
X171434000Y-65496500D01*
%TO.N,PI_3V3*%
X108370000Y-65921700D02*
X108082100Y-65921700D01*
X107162400Y-67787100D02*
X112136400Y-72761100D01*
X164320200Y-72761100D02*
X166547600Y-74988500D01*
X108082100Y-65921700D02*
X107162400Y-66841400D01*
X108370000Y-64770000D02*
X108370000Y-65921700D01*
X169000000Y-78500000D02*
X169000000Y-77598300D01*
X112136400Y-72761100D02*
X164320200Y-72761100D01*
X166547600Y-75632400D02*
X168513500Y-77598300D01*
X107162400Y-66841400D02*
X107162400Y-67787100D01*
X166547600Y-74988500D02*
X166547600Y-75632400D01*
X168513500Y-77598300D02*
X169000000Y-77598300D01*
%TO.N,LED_PWM*%
X123149400Y-69389400D02*
X166575400Y-69389400D01*
X172173800Y-101321800D02*
X174821800Y-101321800D01*
X174821800Y-101321800D02*
X175000000Y-101500000D01*
X121070000Y-67310000D02*
X123149400Y-69389400D01*
%TO.N,LED_SPI*%
X178607000Y-101116600D02*
X180616600Y-101116600D01*
X180616600Y-101116600D02*
X181000000Y-101500000D01*
%TO.N,WS_DATA*%
X181958800Y-102541200D02*
X183000000Y-101500000D01*
X177000000Y-101500000D02*
X173000000Y-97500000D01*
X173000000Y-97500000D02*
X169000000Y-97500000D01*
X178041200Y-102541200D02*
X181958800Y-102541200D01*
X177000000Y-101500000D02*
X178041200Y-102541200D01*
%TO.N,VREG_OUT*%
X175500000Y-66537500D02*
X178437500Y-66537500D01*
X169650000Y-66537500D02*
X175500000Y-66537500D01*
X169062500Y-65950000D02*
X169650000Y-66537500D01*
X178437500Y-66537500D02*
X179975000Y-65000000D01*
%TO.N,+3V3*%
X187000000Y-101500000D02*
X187000000Y-97075000D01*
X186500000Y-66537500D02*
X183562500Y-66537500D01*
X183562500Y-66537500D02*
X182025000Y-65000000D01*
X183880000Y-89120000D02*
X183880000Y-87200000D01*
X180500000Y-91537500D02*
X181462500Y-91537500D01*
X193634400Y-85424600D02*
X193634400Y-86153800D01*
X190032700Y-87429600D02*
X190032700Y-87042900D01*
X191788200Y-88000000D02*
X191162500Y-88000000D01*
X187140900Y-67178400D02*
X186500000Y-66537500D01*
X183880000Y-87200000D02*
X182837500Y-87200000D01*
X206644300Y-77757500D02*
X209926800Y-81040000D01*
X193634400Y-86153800D02*
X191788200Y-88000000D01*
X193781600Y-85277400D02*
X193634400Y-85424600D01*
X187000000Y-97075000D02*
X181462500Y-91537500D01*
X195639700Y-77757500D02*
X206644300Y-77757500D01*
X199155800Y-67178400D02*
X199155800Y-72115000D01*
X194576500Y-76694300D02*
X195639700Y-77757500D01*
X190000000Y-104500000D02*
X192000000Y-104500000D01*
X215800000Y-82037500D02*
X214802500Y-81040000D01*
X183880000Y-86648400D02*
X183880000Y-86072400D01*
X194000000Y-82537500D02*
X194000000Y-85059000D01*
X214802500Y-81040000D02*
X212300000Y-81040000D01*
X183407600Y-85600000D02*
X182837500Y-85600000D01*
X194000000Y-85059000D02*
X193781600Y-85277400D01*
X191162500Y-88000000D02*
X190603100Y-88000000D01*
X194270800Y-77000000D02*
X194000000Y-77000000D01*
X190032700Y-87042900D02*
X189638200Y-86648400D01*
X199155800Y-72115000D02*
X194576500Y-76694300D01*
X200540000Y-66000000D02*
X199361600Y-67178400D01*
X199155800Y-67178400D02*
X187140900Y-67178400D01*
X189638200Y-86648400D02*
X183880000Y-86648400D01*
X194576500Y-76694300D02*
X194270800Y-77000000D01*
X183880000Y-86072400D02*
X183407600Y-85600000D01*
X183880000Y-87200000D02*
X183880000Y-86648400D01*
X187000000Y-101500000D02*
X190000000Y-104500000D01*
X209926800Y-81040000D02*
X212300000Y-81040000D01*
X181462500Y-91537500D02*
X183880000Y-89120000D01*
X190603100Y-88000000D02*
X190032700Y-87429600D01*
X199361600Y-67178400D02*
X199155800Y-67178400D01*
D27*
%TO.N,GND*%
X177800000Y-88500000D02*
X177600000Y-88500000D01*
X193400000Y-89800000D02*
X192300000Y-89800000D01*
X188600000Y-84900000D02*
X187500000Y-84900000D01*
X196600000Y-99900000D02*
X196800000Y-99900000D01*
X193100000Y-92500000D02*
X195000000Y-92500000D01*
X179500000Y-88800000D02*
X178200000Y-88800000D01*
X189800000Y-85400000D02*
X189700000Y-85300000D01*
X179700000Y-88900000D02*
X179600000Y-88800000D01*
X189000000Y-85200000D02*
X188700000Y-84900000D01*
X177500000Y-88400000D02*
X177500000Y-87900000D01*
X196100000Y-100200000D02*
X196200000Y-100100000D01*
X191900000Y-91900000D02*
X192400000Y-91900000D01*
X177400000Y-87800000D02*
X177300000Y-87700000D01*
X179900000Y-89000000D02*
X179800000Y-88900000D01*
X169700000Y-63800000D02*
X169700000Y-63400000D01*
X196900000Y-99800000D02*
X197900000Y-98800000D01*
X199800000Y-78600000D02*
X199600000Y-78800000D01*
X192500000Y-92000000D02*
X193000000Y-92500000D01*
X202900000Y-78500000D02*
X199900000Y-78500000D01*
X189600000Y-85300000D02*
X189100000Y-85300000D01*
X190500000Y-85500000D02*
X189900000Y-85500000D01*
X186900000Y-84400000D02*
X186800000Y-84400000D01*
X196300000Y-100100000D02*
X196500000Y-99900000D01*
X177300000Y-87600000D02*
X177300000Y-86300000D01*
X187400000Y-84800000D02*
X187000000Y-84400000D01*
X186700000Y-84300000D02*
X186000000Y-83600000D01*
X195100000Y-92400000D02*
X195600000Y-91900000D01*
X192200000Y-89900000D02*
X192200000Y-90200000D01*
X199500000Y-78800000D02*
X198600000Y-78800000D01*
X192100000Y-90300000D02*
X191900000Y-90500000D01*
X183500000Y-84800000D02*
X184000000Y-84800000D01*
X178100000Y-88700000D02*
X177900000Y-88500000D01*
D26*
%TO.N,UART_PI_TX*%
X183489500Y-74552000D02*
X187355200Y-78417700D01*
X202783900Y-104085600D02*
X203198300Y-104500000D01*
X204000000Y-104500000D02*
X203198300Y-104500000D01*
X187355200Y-78417700D02*
X187355200Y-79422200D01*
X169043000Y-69991100D02*
X173603900Y-74552000D01*
X122475200Y-69991100D02*
X169043000Y-69991100D01*
X202206300Y-104085600D02*
X202783900Y-104085600D01*
X185800000Y-80977400D02*
X187355200Y-79422200D01*
X187355200Y-79422200D02*
X187489300Y-79422200D01*
X173603900Y-74552000D02*
X183489500Y-74552000D01*
X185800000Y-81837500D02*
X185800000Y-80977400D01*
X122409300Y-69925200D02*
X122475200Y-69991100D01*
%TO.N,UART_328_TX*%
X197199600Y-103698300D02*
X196278800Y-104619100D01*
X186719300Y-78679400D02*
X185039100Y-80359600D01*
X185039100Y-80359600D02*
X185000000Y-80359600D01*
X200198300Y-103698300D02*
X197199600Y-103698300D01*
X201000000Y-104500000D02*
X200198300Y-103698300D01*
X164653500Y-71828500D02*
X168326500Y-75501500D01*
X185000000Y-80359600D02*
X185000000Y-81837500D01*
X168326500Y-75501500D02*
X180141900Y-75501500D01*
X180141900Y-75501500D02*
X185000000Y-80359600D01*
X123048500Y-71828500D02*
X164653500Y-71828500D01*
X118530000Y-67310000D02*
X123048500Y-71828500D01*
%TO.N,PI_RESET_DRV*%
X155360100Y-67693200D02*
X155360100Y-66866500D01*
X155360100Y-66866500D02*
X154533600Y-66040000D01*
X117260000Y-66040000D02*
X115990000Y-64770000D01*
X156454600Y-68787700D02*
X155360100Y-67693200D01*
X154533600Y-66040000D02*
X117260000Y-66040000D01*
X175962500Y-73500000D02*
X171250200Y-68787700D01*
X171250200Y-68787700D02*
X156454600Y-68787700D01*
%TO.N,RESET*%
X186600000Y-81261400D02*
X192861400Y-75000000D01*
X198000000Y-71080000D02*
X196580000Y-72500000D01*
X178037500Y-73500000D02*
X187198300Y-73500000D01*
X196580000Y-72500000D02*
X194000000Y-72500000D01*
X187198300Y-73500000D02*
X188198300Y-72500000D01*
X189000000Y-72500000D02*
X188198300Y-72500000D01*
X186600000Y-81837500D02*
X186600000Y-81261400D01*
X192861400Y-75000000D02*
X194000000Y-75000000D01*
X194000000Y-75000000D02*
X194000000Y-72500000D01*
X192300000Y-101000000D02*
X192300000Y-98869300D01*
X192300000Y-98869300D02*
X192666300Y-98503000D01*
X194000000Y-72500000D02*
X189000000Y-72500000D01*
%TO.N,MOSI*%
X189000000Y-90162500D02*
X189000000Y-89221100D01*
X197700000Y-84850000D02*
X198901700Y-84850000D01*
X199136700Y-85085000D02*
X198901700Y-84850000D01*
X199292500Y-85085000D02*
X199136700Y-85085000D01*
X189000000Y-89221100D02*
X189454100Y-88767000D01*
%TO.N,MISO*%
X197700000Y-83580000D02*
X198901700Y-83580000D01*
X189870200Y-90092300D02*
X189800000Y-90162500D01*
X199688800Y-83874800D02*
X199196500Y-83874800D01*
X199196500Y-83874800D02*
X198901700Y-83580000D01*
X190639000Y-90092300D02*
X189870200Y-90092300D01*
%TO.N,SCK*%
X191790100Y-88800000D02*
X191162500Y-88800000D01*
X197700000Y-86120000D02*
X196498300Y-86120000D01*
X196203600Y-85825300D02*
X194388700Y-85825300D01*
X194036100Y-86177900D02*
X194036100Y-86554000D01*
X189349800Y-87256300D02*
X189349800Y-87578800D01*
X190571000Y-88800000D02*
X191162500Y-88800000D01*
X194388700Y-85825300D02*
X194036100Y-86177900D01*
X196498300Y-86120000D02*
X196203600Y-85825300D01*
X194036100Y-86554000D02*
X191790100Y-88800000D01*
X189349800Y-87578800D02*
X190571000Y-88800000D01*
%TO.N,CS*%
X193523900Y-90358000D02*
X194732000Y-90358000D01*
X196498300Y-88591700D02*
X196498300Y-87390000D01*
X192672700Y-91209200D02*
X193523900Y-90358000D01*
X188200000Y-90809300D02*
X188599900Y-91209200D01*
X188200000Y-90162500D02*
X188200000Y-90809300D01*
X206850000Y-102151700D02*
X189651700Y-102151700D01*
X189000000Y-101500000D02*
X189000000Y-91209200D01*
X194732000Y-90358000D02*
X196498300Y-88591700D01*
X209198300Y-104500000D02*
X206850000Y-102151700D01*
X189000000Y-91209200D02*
X192672700Y-91209200D01*
X197700000Y-87390000D02*
X196498300Y-87390000D01*
X188599900Y-91209200D02*
X189000000Y-91209200D01*
X189651700Y-102151700D02*
X189000000Y-101500000D01*
X210000000Y-104500000D02*
X209198300Y-104500000D01*
%TO.N,GDO0*%
X206584000Y-82310000D02*
X197700000Y-82310000D01*
X191369600Y-81633500D02*
X194919700Y-81633500D01*
X194919700Y-81633500D02*
X195596200Y-82310000D01*
X207000000Y-103698300D02*
X206949700Y-103698300D01*
X207000000Y-104500000D02*
X207000000Y-103698300D01*
X190111200Y-82891900D02*
X191369600Y-81633500D01*
X206949700Y-103698300D02*
X206643500Y-103392100D01*
X195596200Y-82310000D02*
X197700000Y-82310000D01*
X184200000Y-82424100D02*
X184667800Y-82891900D01*
X184200000Y-81837500D02*
X184200000Y-82424100D01*
X184667800Y-82891900D02*
X190111200Y-82891900D01*
X207303800Y-81590200D02*
X206584000Y-82310000D01*
%TO.N,XTAL1*%
X182278100Y-88000000D02*
X182837500Y-88000000D01*
X178000000Y-83721900D02*
X182278100Y-88000000D01*
X178000000Y-82000000D02*
X178000000Y-83721900D01*
%TO.N,XTAL2*%
X181105100Y-88154600D02*
X181750500Y-88800000D01*
X181750500Y-88800000D02*
X182837500Y-88800000D01*
X178761300Y-88154600D02*
X181105100Y-88154600D01*
%TO.N,AREF*%
X194577800Y-90959700D02*
X194000000Y-91537500D01*
X191162500Y-86400000D02*
X191776200Y-86400000D01*
X193333200Y-84843000D02*
X193333200Y-84436400D01*
X191776200Y-86400000D02*
X193333200Y-84843000D01*
X195567100Y-90959700D02*
X194577800Y-90959700D01*
%TO.N,LED_A*%
X180998400Y-84000000D02*
X180837500Y-84160900D01*
X175000000Y-94803600D02*
X175018300Y-94785300D01*
X175000000Y-96000000D02*
X175000000Y-94803600D01*
X182837500Y-84000000D02*
X180998400Y-84000000D01*
%TO.N,LED_K*%
X180975000Y-96000000D02*
X177000000Y-96000000D01*
%TD*%
%TA.AperFunction,Conductor*%
%TO.N,GND*%
G36*
X183570445Y-90092690D02*
G01*
X183613710Y-90135955D01*
X183624500Y-90180900D01*
X183624500Y-90815266D01*
X183627274Y-90844844D01*
X183627276Y-90844852D01*
X183670884Y-90969476D01*
X183722014Y-91038755D01*
X183749289Y-91075711D01*
X183749292Y-91075713D01*
X183749293Y-91075714D01*
X183855523Y-91154115D01*
X183855524Y-91154115D01*
X183855525Y-91154116D01*
X183980151Y-91197725D01*
X184007441Y-91200284D01*
X184009733Y-91200499D01*
X184009738Y-91200500D01*
X184009744Y-91200500D01*
X184390262Y-91200500D01*
X184390265Y-91200499D01*
X184419849Y-91197725D01*
X184544475Y-91154116D01*
X184544477Y-91154114D01*
X184551038Y-91150648D01*
X184552208Y-91152863D01*
X184599239Y-91137182D01*
X184647935Y-91152591D01*
X184648962Y-91150648D01*
X184655523Y-91154115D01*
X184655524Y-91154115D01*
X184655525Y-91154116D01*
X184780151Y-91197725D01*
X184807441Y-91200284D01*
X184809733Y-91200499D01*
X184809738Y-91200500D01*
X184809744Y-91200500D01*
X185190262Y-91200500D01*
X185190265Y-91200499D01*
X185219849Y-91197725D01*
X185344475Y-91154116D01*
X185344477Y-91154114D01*
X185351038Y-91150648D01*
X185352208Y-91152863D01*
X185399239Y-91137182D01*
X185447935Y-91152591D01*
X185448962Y-91150648D01*
X185455523Y-91154115D01*
X185455524Y-91154115D01*
X185455525Y-91154116D01*
X185580151Y-91197725D01*
X185607441Y-91200284D01*
X185609733Y-91200499D01*
X185609738Y-91200500D01*
X185609744Y-91200500D01*
X185990262Y-91200500D01*
X185990265Y-91200499D01*
X186019849Y-91197725D01*
X186144475Y-91154116D01*
X186144477Y-91154114D01*
X186151038Y-91150648D01*
X186152208Y-91152863D01*
X186199239Y-91137182D01*
X186247935Y-91152591D01*
X186248962Y-91150648D01*
X186255523Y-91154115D01*
X186255524Y-91154115D01*
X186255525Y-91154116D01*
X186380151Y-91197725D01*
X186407441Y-91200284D01*
X186409733Y-91200499D01*
X186409738Y-91200500D01*
X186409744Y-91200500D01*
X186790262Y-91200500D01*
X186790265Y-91200499D01*
X186819849Y-91197725D01*
X186944475Y-91154116D01*
X186944477Y-91154114D01*
X186951038Y-91150648D01*
X186952208Y-91152863D01*
X186999239Y-91137182D01*
X187047935Y-91152591D01*
X187048962Y-91150648D01*
X187055523Y-91154115D01*
X187055524Y-91154115D01*
X187055525Y-91154116D01*
X187180151Y-91197725D01*
X187207441Y-91200284D01*
X187209733Y-91200499D01*
X187209738Y-91200500D01*
X187209744Y-91200500D01*
X187590262Y-91200500D01*
X187590265Y-91200499D01*
X187619849Y-91197725D01*
X187744475Y-91154116D01*
X187744477Y-91154114D01*
X187751038Y-91150648D01*
X187752208Y-91152863D01*
X187799239Y-91137182D01*
X187831578Y-91142350D01*
X187846292Y-91147302D01*
X187855525Y-91154116D01*
X187980151Y-91197725D01*
X188002281Y-91199800D01*
X188013171Y-91203465D01*
X188028954Y-91215187D01*
X188047005Y-91222982D01*
X188051596Y-91227290D01*
X188353986Y-91529679D01*
X188353991Y-91529683D01*
X188445308Y-91582405D01*
X188445309Y-91582405D01*
X188445312Y-91582407D01*
X188526123Y-91604059D01*
X188577437Y-91637383D01*
X188599364Y-91694504D01*
X188599500Y-91699686D01*
X188599500Y-100412565D01*
X188580593Y-100470756D01*
X188531093Y-100506720D01*
X188524493Y-100508185D01*
X188524590Y-100508567D01*
X188518437Y-100510122D01*
X188377660Y-100565637D01*
X188377656Y-100565640D01*
X188257081Y-100657075D01*
X188257075Y-100657081D01*
X188165640Y-100777656D01*
X188165637Y-100777660D01*
X188110123Y-100918434D01*
X188099500Y-101006893D01*
X188099500Y-101794099D01*
X188092336Y-101816146D01*
X188088710Y-101839044D01*
X188083061Y-101844692D01*
X188080593Y-101852290D01*
X188061836Y-101865917D01*
X188045445Y-101882309D01*
X188037555Y-101883558D01*
X188031093Y-101888254D01*
X188007908Y-101888254D01*
X187985013Y-101891880D01*
X187977896Y-101888254D01*
X187969907Y-101888254D01*
X187930496Y-101864103D01*
X187929496Y-101863103D01*
X187901719Y-101808586D01*
X187900500Y-101793099D01*
X187900500Y-101006899D01*
X187900499Y-101006893D01*
X187895040Y-100961433D01*
X187889877Y-100918436D01*
X187859450Y-100841280D01*
X187834362Y-100777660D01*
X187834361Y-100777659D01*
X187834361Y-100777658D01*
X187742922Y-100657078D01*
X187622342Y-100565639D01*
X187622341Y-100565638D01*
X187622339Y-100565637D01*
X187481562Y-100510122D01*
X187475410Y-100508567D01*
X187476163Y-100505585D01*
X187431929Y-100484919D01*
X187402305Y-100431384D01*
X187400500Y-100412565D01*
X187400500Y-97135714D01*
X187400501Y-97135701D01*
X187400501Y-97022275D01*
X187400501Y-97022273D01*
X187373207Y-96920413D01*
X187362218Y-96901380D01*
X187362217Y-96901378D01*
X187362217Y-96901377D01*
X187320481Y-96829089D01*
X187320480Y-96829087D01*
X187245913Y-96754520D01*
X187245910Y-96754518D01*
X182098896Y-91607504D01*
X182071119Y-91552987D01*
X182080690Y-91492555D01*
X182098896Y-91467496D01*
X182826099Y-90740293D01*
X183455497Y-90110895D01*
X183510013Y-90083119D01*
X183570445Y-90092690D01*
G37*
%TD.AperFunction*%
%TA.AperFunction,Conductor*%
G36*
X196004296Y-86228268D02*
G01*
X196012186Y-86227019D01*
X196032841Y-86237543D01*
X196054890Y-86244707D01*
X196066703Y-86254796D01*
X196177820Y-86365913D01*
X196177821Y-86365915D01*
X196252387Y-86440480D01*
X196343709Y-86493205D01*
X196343707Y-86493205D01*
X196343711Y-86493206D01*
X196343713Y-86493207D01*
X196431528Y-86516737D01*
X196482840Y-86550060D01*
X196496104Y-86571561D01*
X196501716Y-86583968D01*
X196502415Y-86589991D01*
X196547794Y-86692765D01*
X196553521Y-86698492D01*
X196560626Y-86714198D01*
X196563088Y-86736359D01*
X196569387Y-86757748D01*
X196566463Y-86766744D01*
X196567382Y-86775009D01*
X196558990Y-86789744D01*
X196552102Y-86810945D01*
X196547796Y-86817231D01*
X196547794Y-86817234D01*
X196547794Y-86817235D01*
X196503313Y-86917975D01*
X196502413Y-86920014D01*
X196501429Y-86923632D01*
X196499547Y-86926504D01*
X196499408Y-86926821D01*
X196499355Y-86926797D01*
X196467906Y-86974816D01*
X196431526Y-86993263D01*
X196343713Y-87016793D01*
X196343711Y-87016794D01*
X196343709Y-87016794D01*
X196252389Y-87069518D01*
X196177818Y-87144089D01*
X196125094Y-87235409D01*
X196125094Y-87235410D01*
X196125093Y-87235412D01*
X196125093Y-87235413D01*
X196098314Y-87335357D01*
X196097800Y-87337274D01*
X196097800Y-88384799D01*
X196078893Y-88442990D01*
X196068804Y-88454803D01*
X194595103Y-89928504D01*
X194540586Y-89956281D01*
X194525099Y-89957500D01*
X193582706Y-89957500D01*
X193582690Y-89957499D01*
X193576627Y-89957499D01*
X193471173Y-89957499D01*
X193471170Y-89957499D01*
X193369313Y-89984792D01*
X193369309Y-89984794D01*
X193277987Y-90037519D01*
X193203419Y-90112086D01*
X193203420Y-90112087D01*
X192535803Y-90779704D01*
X192481286Y-90807481D01*
X192465799Y-90808700D01*
X190968632Y-90808700D01*
X190910441Y-90789793D01*
X190874477Y-90740293D01*
X190874477Y-90679107D01*
X190910441Y-90629607D01*
X190919124Y-90623967D01*
X191007716Y-90572820D01*
X191119520Y-90461016D01*
X191198577Y-90324084D01*
X191239500Y-90171357D01*
X191239500Y-90013243D01*
X191198577Y-89860516D01*
X191119520Y-89723584D01*
X191007716Y-89611780D01*
X190918437Y-89560235D01*
X190877498Y-89514767D01*
X190871102Y-89453917D01*
X190901695Y-89400929D01*
X190957591Y-89376042D01*
X190967939Y-89375500D01*
X191815262Y-89375500D01*
X191815265Y-89375499D01*
X191844849Y-89372725D01*
X191969475Y-89329116D01*
X192075711Y-89250711D01*
X192154116Y-89144475D01*
X192197725Y-89019849D01*
X192200500Y-88990256D01*
X192200500Y-88990247D01*
X192200713Y-88987976D01*
X192224970Y-88931804D01*
X192229261Y-88927229D01*
X194282010Y-86874481D01*
X194282013Y-86874480D01*
X194356580Y-86799913D01*
X194409307Y-86708587D01*
X194412486Y-86696723D01*
X194436601Y-86606727D01*
X194436601Y-86501273D01*
X194436601Y-86495211D01*
X194436600Y-86495193D01*
X194436600Y-86384800D01*
X194455507Y-86326609D01*
X194465596Y-86314796D01*
X194525596Y-86254796D01*
X194580113Y-86227019D01*
X194595600Y-86225800D01*
X195996699Y-86225800D01*
X196004296Y-86228268D01*
G37*
%TD.AperFunction*%
%TA.AperFunction,Conductor*%
G36*
X188712861Y-87067807D02*
G01*
X188748825Y-87117307D01*
X188750297Y-87173521D01*
X188749300Y-87177240D01*
X188749300Y-87177243D01*
X188749300Y-87335357D01*
X188790223Y-87488084D01*
X188869280Y-87625016D01*
X188869282Y-87625018D01*
X188965930Y-87721667D01*
X188981662Y-87742169D01*
X189029318Y-87824711D01*
X189029320Y-87824713D01*
X189251696Y-88047090D01*
X189279473Y-88101606D01*
X189269902Y-88162038D01*
X189227871Y-88204068D01*
X189227936Y-88204179D01*
X189227521Y-88204418D01*
X189226637Y-88205303D01*
X189223422Y-88206785D01*
X189222317Y-88207422D01*
X189222316Y-88207423D01*
X189085384Y-88286480D01*
X188973580Y-88398284D01*
X188894523Y-88535216D01*
X188888869Y-88556319D01*
X188853600Y-88687944D01*
X188853600Y-88760099D01*
X188834693Y-88818290D01*
X188824604Y-88830102D01*
X188679520Y-88975186D01*
X188679516Y-88975191D01*
X188626794Y-89066508D01*
X188626793Y-89066510D01*
X188621782Y-89085212D01*
X188588458Y-89136526D01*
X188531336Y-89158452D01*
X188493458Y-89153032D01*
X188419852Y-89127276D01*
X188419851Y-89127275D01*
X188419849Y-89127275D01*
X188419847Y-89127274D01*
X188419844Y-89127274D01*
X188390266Y-89124500D01*
X188390256Y-89124500D01*
X188009744Y-89124500D01*
X188009733Y-89124500D01*
X187980155Y-89127274D01*
X187980147Y-89127276D01*
X187855528Y-89170882D01*
X187848966Y-89174351D01*
X187847798Y-89172141D01*
X187800720Y-89187817D01*
X187752065Y-89172399D01*
X187751034Y-89174351D01*
X187744471Y-89170882D01*
X187619852Y-89127276D01*
X187619851Y-89127275D01*
X187619849Y-89127275D01*
X187619847Y-89127274D01*
X187619844Y-89127274D01*
X187590266Y-89124500D01*
X187590256Y-89124500D01*
X187209744Y-89124500D01*
X187209733Y-89124500D01*
X187180155Y-89127274D01*
X187180147Y-89127276D01*
X187055528Y-89170882D01*
X187048966Y-89174351D01*
X187047798Y-89172141D01*
X187000720Y-89187817D01*
X186952065Y-89172399D01*
X186951034Y-89174351D01*
X186944471Y-89170882D01*
X186819852Y-89127276D01*
X186819851Y-89127275D01*
X186819849Y-89127275D01*
X186819847Y-89127274D01*
X186819844Y-89127274D01*
X186790266Y-89124500D01*
X186790256Y-89124500D01*
X186409744Y-89124500D01*
X186409733Y-89124500D01*
X186380155Y-89127274D01*
X186380147Y-89127276D01*
X186255528Y-89170882D01*
X186248966Y-89174351D01*
X186247798Y-89172141D01*
X186200720Y-89187817D01*
X186152065Y-89172399D01*
X186151034Y-89174351D01*
X186144471Y-89170882D01*
X186019852Y-89127276D01*
X186019851Y-89127275D01*
X186019849Y-89127275D01*
X186019847Y-89127274D01*
X186019844Y-89127274D01*
X185990266Y-89124500D01*
X185990256Y-89124500D01*
X185609744Y-89124500D01*
X185609733Y-89124500D01*
X185580155Y-89127274D01*
X185580147Y-89127276D01*
X185455528Y-89170882D01*
X185448966Y-89174351D01*
X185447798Y-89172141D01*
X185400720Y-89187817D01*
X185352065Y-89172399D01*
X185351034Y-89174351D01*
X185344471Y-89170882D01*
X185219852Y-89127276D01*
X185219851Y-89127275D01*
X185219849Y-89127275D01*
X185219847Y-89127274D01*
X185219844Y-89127274D01*
X185190266Y-89124500D01*
X185190256Y-89124500D01*
X184809744Y-89124500D01*
X184809733Y-89124500D01*
X184780155Y-89127274D01*
X184780147Y-89127276D01*
X184655528Y-89170882D01*
X184648966Y-89174351D01*
X184647798Y-89172141D01*
X184600720Y-89187817D01*
X184552065Y-89172399D01*
X184551034Y-89174351D01*
X184544471Y-89170882D01*
X184419852Y-89127276D01*
X184419851Y-89127275D01*
X184419849Y-89127275D01*
X184419847Y-89127274D01*
X184419844Y-89127274D01*
X184390266Y-89124500D01*
X184390256Y-89124500D01*
X184379500Y-89124500D01*
X184321309Y-89105593D01*
X184285345Y-89056093D01*
X184280500Y-89025500D01*
X184280500Y-87147900D01*
X184299407Y-87089709D01*
X184348907Y-87053745D01*
X184379500Y-87048900D01*
X188654670Y-87048900D01*
X188712861Y-87067807D01*
G37*
%TD.AperFunction*%
%TA.AperFunction,Conductor*%
G36*
X195194504Y-82474697D02*
G01*
X195275720Y-82555913D01*
X195275719Y-82555913D01*
X195322798Y-82602991D01*
X195350287Y-82630480D01*
X195441613Y-82683207D01*
X195543473Y-82710500D01*
X196407845Y-82710500D01*
X196466036Y-82729407D01*
X196497722Y-82767991D01*
X196502130Y-82777535D01*
X196502415Y-82779991D01*
X196547794Y-82882765D01*
X196553249Y-82888220D01*
X196560302Y-82903491D01*
X196562981Y-82925998D01*
X196569387Y-82947748D01*
X196566594Y-82956341D01*
X196567536Y-82964247D01*
X196559156Y-82979234D01*
X196552102Y-83000945D01*
X196547796Y-83007231D01*
X196502414Y-83110011D01*
X196499500Y-83135130D01*
X196499500Y-84024860D01*
X196499501Y-84024863D01*
X196502414Y-84049990D01*
X196510227Y-84067684D01*
X196547794Y-84152765D01*
X196547795Y-84152766D01*
X196547796Y-84152768D01*
X196552102Y-84159055D01*
X196569387Y-84217748D01*
X196552102Y-84270945D01*
X196547796Y-84277231D01*
X196547794Y-84277234D01*
X196547794Y-84277235D01*
X196535521Y-84305030D01*
X196502414Y-84380011D01*
X196499500Y-84405130D01*
X196499500Y-85294860D01*
X196499501Y-85294863D01*
X196502414Y-85319990D01*
X196502415Y-85319993D01*
X196507618Y-85331776D01*
X196513825Y-85392646D01*
X196483069Y-85445539D01*
X196427096Y-85470252D01*
X196367553Y-85457500D01*
X196358189Y-85452093D01*
X196324234Y-85442995D01*
X196256327Y-85424800D01*
X196256325Y-85424800D01*
X194481100Y-85424800D01*
X194466188Y-85419955D01*
X194450507Y-85419955D01*
X194437821Y-85410738D01*
X194422909Y-85405893D01*
X194413692Y-85393207D01*
X194401007Y-85383991D01*
X194396161Y-85369078D01*
X194386945Y-85356393D01*
X194382100Y-85325800D01*
X194382100Y-85193427D01*
X194385474Y-85167803D01*
X194390436Y-85149285D01*
X194400500Y-85111727D01*
X194400500Y-85006273D01*
X194400500Y-83524500D01*
X194419407Y-83466309D01*
X194468907Y-83430345D01*
X194499500Y-83425500D01*
X194518100Y-83425500D01*
X194518102Y-83425500D01*
X194606564Y-83414877D01*
X194747342Y-83359361D01*
X194867922Y-83267922D01*
X194959361Y-83147342D01*
X195014877Y-83006564D01*
X195025500Y-82918102D01*
X195025500Y-82544701D01*
X195044407Y-82486510D01*
X195093907Y-82450546D01*
X195155093Y-82450546D01*
X195194504Y-82474697D01*
G37*
%TD.AperFunction*%
%TA.AperFunction,Conductor*%
G36*
X183340790Y-74971407D02*
G01*
X183352603Y-74981496D01*
X186398449Y-78027342D01*
X186426226Y-78081859D01*
X186416655Y-78142291D01*
X186377947Y-78183081D01*
X186350586Y-78198878D01*
X186238780Y-78310684D01*
X186159723Y-78447616D01*
X186118800Y-78600344D01*
X186118800Y-78672499D01*
X186099893Y-78730690D01*
X186089804Y-78742503D01*
X185089553Y-79742753D01*
X185035036Y-79770530D01*
X184974604Y-79760959D01*
X184949548Y-79742755D01*
X180387813Y-75181020D01*
X180387810Y-75181018D01*
X180387808Y-75181016D01*
X180311979Y-75137236D01*
X180271038Y-75091767D01*
X180264642Y-75030916D01*
X180295235Y-74977928D01*
X180351131Y-74953042D01*
X180361479Y-74952500D01*
X183282599Y-74952500D01*
X183340790Y-74971407D01*
G37*
%TD.AperFunction*%
%TA.AperFunction,Conductor*%
G36*
X193558691Y-72919407D02*
G01*
X193594655Y-72968907D01*
X193599500Y-72999500D01*
X193599500Y-74000705D01*
X193580593Y-74058896D01*
X193531093Y-74094860D01*
X193509804Y-74098887D01*
X193509836Y-74099147D01*
X193418434Y-74110123D01*
X193277660Y-74165637D01*
X193277656Y-74165640D01*
X193157081Y-74257075D01*
X193157075Y-74257081D01*
X193065640Y-74377656D01*
X193065637Y-74377660D01*
X193010122Y-74518437D01*
X193008567Y-74524590D01*
X193005484Y-74523810D01*
X192985311Y-74567650D01*
X192931948Y-74597584D01*
X192912566Y-74599500D01*
X192808673Y-74599500D01*
X192746329Y-74616204D01*
X192706807Y-74626794D01*
X192615491Y-74679516D01*
X192615490Y-74679517D01*
X188160499Y-79134506D01*
X188105982Y-79162283D01*
X188045550Y-79152712D01*
X188004760Y-79114003D01*
X187969820Y-79053484D01*
X187858016Y-78941680D01*
X187805199Y-78911186D01*
X187764259Y-78865716D01*
X187755700Y-78825450D01*
X187755700Y-78364974D01*
X187741153Y-78310684D01*
X187728407Y-78263113D01*
X187713522Y-78237332D01*
X187675680Y-78171787D01*
X187601113Y-78097219D01*
X187601113Y-78097220D01*
X183735413Y-74231520D01*
X183735410Y-74231518D01*
X183735409Y-74231517D01*
X183735408Y-74231516D01*
X183644091Y-74178794D01*
X183644093Y-74178794D01*
X183594999Y-74165640D01*
X183542227Y-74151500D01*
X183542225Y-74151500D01*
X179021081Y-74151500D01*
X179003225Y-74145698D01*
X178984491Y-74144490D01*
X178974830Y-74136472D01*
X178962890Y-74132593D01*
X178951853Y-74117403D01*
X178937408Y-74105414D01*
X178934819Y-74093957D01*
X178926926Y-74083093D01*
X178922286Y-74046127D01*
X178922461Y-74043402D01*
X178925500Y-74018102D01*
X178925500Y-73996304D01*
X178925705Y-73993127D01*
X178935889Y-73967523D01*
X178944407Y-73941309D01*
X178947093Y-73939357D01*
X178948320Y-73936274D01*
X178971604Y-73921548D01*
X178993907Y-73905345D01*
X178998335Y-73904643D01*
X179000032Y-73903571D01*
X179003639Y-73903803D01*
X179024500Y-73900500D01*
X187251025Y-73900500D01*
X187251027Y-73900500D01*
X187352888Y-73873207D01*
X187352890Y-73873205D01*
X187352892Y-73873205D01*
X187444208Y-73820483D01*
X187444208Y-73820482D01*
X187444213Y-73820480D01*
X188100126Y-73164564D01*
X188154643Y-73136787D01*
X188215075Y-73146358D01*
X188239645Y-73167940D01*
X188241308Y-73166278D01*
X188247793Y-73172763D01*
X188247794Y-73172765D01*
X188327235Y-73252206D01*
X188430009Y-73297585D01*
X188455135Y-73300500D01*
X189544864Y-73300499D01*
X189569991Y-73297585D01*
X189672765Y-73252206D01*
X189752206Y-73172765D01*
X189797585Y-73069991D01*
X189800500Y-73044865D01*
X189800500Y-72999500D01*
X189819407Y-72941309D01*
X189868907Y-72905345D01*
X189899500Y-72900500D01*
X193500500Y-72900500D01*
X193558691Y-72919407D01*
G37*
%TD.AperFunction*%
%TA.AperFunction,Conductor*%
G36*
X115065413Y-65473121D02*
G01*
X115100560Y-65503140D01*
X115112447Y-65519501D01*
X115240499Y-65647553D01*
X115387006Y-65753996D01*
X115548361Y-65836211D01*
X115720591Y-65892171D01*
X115766663Y-65899468D01*
X115899451Y-65920500D01*
X115899454Y-65920500D01*
X116080549Y-65920500D01*
X116259404Y-65892172D01*
X116259405Y-65892171D01*
X116259409Y-65892171D01*
X116417854Y-65840690D01*
X116479037Y-65840690D01*
X116518448Y-65864841D01*
X117014087Y-66360480D01*
X117014089Y-66360481D01*
X117014090Y-66360482D01*
X117014091Y-66360483D01*
X117105408Y-66413205D01*
X117105406Y-66413205D01*
X117105410Y-66413206D01*
X117105412Y-66413207D01*
X117207273Y-66440500D01*
X117545334Y-66440500D01*
X117603525Y-66459407D01*
X117639489Y-66508907D01*
X117639489Y-66570093D01*
X117625426Y-66597691D01*
X117546007Y-66707000D01*
X117546003Y-66707006D01*
X117463788Y-66868362D01*
X117407828Y-67040593D01*
X117379500Y-67219450D01*
X117379500Y-67400549D01*
X117407828Y-67579406D01*
X117463788Y-67751637D01*
X117508020Y-67838448D01*
X117546004Y-67912994D01*
X117652447Y-68059501D01*
X117780499Y-68187553D01*
X117927006Y-68293996D01*
X118088361Y-68376211D01*
X118260591Y-68432171D01*
X118332136Y-68443502D01*
X118439451Y-68460500D01*
X118439454Y-68460500D01*
X118620549Y-68460500D01*
X118799404Y-68432172D01*
X118799405Y-68432171D01*
X118799409Y-68432171D01*
X118957854Y-68380690D01*
X119019037Y-68380690D01*
X119058448Y-68404841D01*
X122802587Y-72148980D01*
X122802589Y-72148981D01*
X122802590Y-72148982D01*
X122802591Y-72148983D01*
X122849150Y-72175864D01*
X122890091Y-72221333D01*
X122896487Y-72282183D01*
X122865894Y-72335171D01*
X122809998Y-72360058D01*
X122799650Y-72360600D01*
X112343301Y-72360600D01*
X112285110Y-72341693D01*
X112273297Y-72331604D01*
X108547561Y-68605868D01*
X108519784Y-68551351D01*
X108529355Y-68490919D01*
X108572620Y-68447654D01*
X108602074Y-68438084D01*
X108639409Y-68432171D01*
X108811639Y-68376211D01*
X108972994Y-68293996D01*
X109119501Y-68187553D01*
X109247553Y-68059501D01*
X109353996Y-67912994D01*
X109429630Y-67764553D01*
X109472894Y-67721290D01*
X109517839Y-67710500D01*
X109762161Y-67710500D01*
X109820352Y-67729407D01*
X109850368Y-67764552D01*
X109926004Y-67912994D01*
X110032447Y-68059501D01*
X110160499Y-68187553D01*
X110307006Y-68293996D01*
X110468361Y-68376211D01*
X110640591Y-68432171D01*
X110712136Y-68443502D01*
X110819451Y-68460500D01*
X110819454Y-68460500D01*
X111000549Y-68460500D01*
X111089977Y-68446335D01*
X111179409Y-68432171D01*
X111351639Y-68376211D01*
X111512994Y-68293996D01*
X111659501Y-68187553D01*
X111787553Y-68059501D01*
X111893996Y-67912994D01*
X111976211Y-67751639D01*
X112032171Y-67579409D01*
X112046335Y-67489977D01*
X112060500Y-67400549D01*
X112060500Y-67219450D01*
X112032171Y-67040593D01*
X112032171Y-67040591D01*
X111984745Y-66894627D01*
X111980690Y-66882146D01*
X111980691Y-66820961D01*
X112004842Y-66781550D01*
X112157349Y-66629044D01*
X112316897Y-66469496D01*
X112324013Y-66465870D01*
X112328709Y-66459407D01*
X112350758Y-66452242D01*
X112371413Y-66441719D01*
X112386900Y-66440500D01*
X112465952Y-66440500D01*
X112524143Y-66459407D01*
X112560107Y-66508907D01*
X112560107Y-66570093D01*
X112546045Y-66597691D01*
X112466430Y-66707270D01*
X112384250Y-66868559D01*
X112328316Y-67040710D01*
X112300000Y-67219489D01*
X112300000Y-67400510D01*
X112328316Y-67579289D01*
X112384250Y-67751440D01*
X112466432Y-67912730D01*
X112477912Y-67928532D01*
X112967037Y-67439408D01*
X112984075Y-67502993D01*
X113049901Y-67617007D01*
X113142993Y-67710099D01*
X113257007Y-67775925D01*
X113320591Y-67792962D01*
X112831466Y-68282087D01*
X112847266Y-68293566D01*
X113008559Y-68375749D01*
X113180710Y-68431683D01*
X113359490Y-68460000D01*
X113540510Y-68460000D01*
X113719289Y-68431683D01*
X113891440Y-68375749D01*
X114052730Y-68293568D01*
X114052735Y-68293564D01*
X114068532Y-68282087D01*
X114068532Y-68282086D01*
X113579408Y-67792962D01*
X113642993Y-67775925D01*
X113757007Y-67710099D01*
X113850099Y-67617007D01*
X113915925Y-67502993D01*
X113932962Y-67439408D01*
X114422086Y-67928532D01*
X114422087Y-67928532D01*
X114433564Y-67912735D01*
X114433568Y-67912730D01*
X114515749Y-67751440D01*
X114571683Y-67579289D01*
X114600000Y-67400510D01*
X114600000Y-67219489D01*
X114599994Y-67219450D01*
X114839500Y-67219450D01*
X114839500Y-67400549D01*
X114867828Y-67579406D01*
X114923788Y-67751637D01*
X114968020Y-67838448D01*
X115006004Y-67912994D01*
X115112447Y-68059501D01*
X115240499Y-68187553D01*
X115387006Y-68293996D01*
X115548361Y-68376211D01*
X115720591Y-68432171D01*
X115792136Y-68443502D01*
X115899451Y-68460500D01*
X115899454Y-68460500D01*
X116080549Y-68460500D01*
X116169977Y-68446335D01*
X116259409Y-68432171D01*
X116431639Y-68376211D01*
X116592994Y-68293996D01*
X116739501Y-68187553D01*
X116867553Y-68059501D01*
X116973996Y-67912994D01*
X117056211Y-67751639D01*
X117112171Y-67579409D01*
X117126335Y-67489977D01*
X117140500Y-67400549D01*
X117140500Y-67219450D01*
X117112171Y-67040593D01*
X117112171Y-67040591D01*
X117056211Y-66868361D01*
X116973996Y-66707006D01*
X116867553Y-66560499D01*
X116739501Y-66432447D01*
X116592994Y-66326004D01*
X116592993Y-66326003D01*
X116592991Y-66326002D01*
X116431637Y-66243788D01*
X116259406Y-66187828D01*
X116080549Y-66159500D01*
X116080546Y-66159500D01*
X115899454Y-66159500D01*
X115899451Y-66159500D01*
X115720593Y-66187828D01*
X115548362Y-66243788D01*
X115387008Y-66326002D01*
X115339551Y-66360482D01*
X115240499Y-66432447D01*
X115112447Y-66560499D01*
X115098645Y-66579496D01*
X115006002Y-66707008D01*
X114923788Y-66868362D01*
X114867828Y-67040593D01*
X114839500Y-67219450D01*
X114599994Y-67219450D01*
X114571683Y-67040710D01*
X114515749Y-66868559D01*
X114433566Y-66707266D01*
X114422087Y-66691466D01*
X113932962Y-67180591D01*
X113915925Y-67117007D01*
X113850099Y-67002993D01*
X113757007Y-66909901D01*
X113642993Y-66844075D01*
X113579408Y-66827037D01*
X113988464Y-66417981D01*
X114008958Y-66402254D01*
X114081313Y-66360480D01*
X114950466Y-65491325D01*
X115004981Y-65463550D01*
X115065413Y-65473121D01*
G37*
%TD.AperFunction*%
%TA.AperFunction,Conductor*%
G36*
X122684143Y-66459407D02*
G01*
X122720107Y-66508907D01*
X122720107Y-66570093D01*
X122706045Y-66597691D01*
X122626430Y-66707270D01*
X122544250Y-66868559D01*
X122488316Y-67040710D01*
X122460000Y-67219489D01*
X122460000Y-67400510D01*
X122488316Y-67579289D01*
X122544250Y-67751440D01*
X122626432Y-67912730D01*
X122637911Y-67928531D01*
X123127036Y-67439407D01*
X123144075Y-67502993D01*
X123209901Y-67617007D01*
X123302993Y-67710099D01*
X123417007Y-67775925D01*
X123480591Y-67792962D01*
X122991466Y-68282087D01*
X123007266Y-68293566D01*
X123168559Y-68375749D01*
X123340710Y-68431683D01*
X123519490Y-68460000D01*
X123700510Y-68460000D01*
X123879289Y-68431683D01*
X124051440Y-68375749D01*
X124212730Y-68293568D01*
X124212735Y-68293564D01*
X124228532Y-68282087D01*
X124228532Y-68282086D01*
X123739408Y-67792962D01*
X123802993Y-67775925D01*
X123917007Y-67710099D01*
X124010099Y-67617007D01*
X124075925Y-67502993D01*
X124092962Y-67439408D01*
X124582086Y-67928532D01*
X124582087Y-67928532D01*
X124593564Y-67912735D01*
X124593568Y-67912730D01*
X124675749Y-67751440D01*
X124731683Y-67579289D01*
X124760000Y-67400510D01*
X124760000Y-67219489D01*
X124731683Y-67040710D01*
X124675749Y-66868559D01*
X124593569Y-66707270D01*
X124513955Y-66597691D01*
X124495048Y-66539500D01*
X124513955Y-66481309D01*
X124563456Y-66445345D01*
X124594048Y-66440500D01*
X125165334Y-66440500D01*
X125223525Y-66459407D01*
X125259489Y-66508907D01*
X125259489Y-66570093D01*
X125245426Y-66597691D01*
X125166007Y-66707000D01*
X125166003Y-66707006D01*
X125083788Y-66868362D01*
X125027828Y-67040593D01*
X124999500Y-67219450D01*
X124999500Y-67400549D01*
X125027828Y-67579406D01*
X125083788Y-67751637D01*
X125128020Y-67838448D01*
X125166004Y-67912994D01*
X125272447Y-68059501D01*
X125400499Y-68187553D01*
X125547006Y-68293996D01*
X125708361Y-68376211D01*
X125880591Y-68432171D01*
X125952136Y-68443502D01*
X126059451Y-68460500D01*
X126059454Y-68460500D01*
X126240549Y-68460500D01*
X126329977Y-68446335D01*
X126419409Y-68432171D01*
X126591639Y-68376211D01*
X126752994Y-68293996D01*
X126899501Y-68187553D01*
X127027553Y-68059501D01*
X127133996Y-67912994D01*
X127216211Y-67751639D01*
X127272171Y-67579409D01*
X127286335Y-67489977D01*
X127300500Y-67400549D01*
X127300500Y-67219450D01*
X127272171Y-67040593D01*
X127272171Y-67040591D01*
X127216211Y-66868361D01*
X127133996Y-66707006D01*
X127054573Y-66597689D01*
X127035666Y-66539500D01*
X127054573Y-66481310D01*
X127104073Y-66445346D01*
X127134666Y-66440500D01*
X127705334Y-66440500D01*
X127763525Y-66459407D01*
X127799489Y-66508907D01*
X127799489Y-66570093D01*
X127785426Y-66597691D01*
X127706007Y-66707000D01*
X127706003Y-66707006D01*
X127623788Y-66868362D01*
X127567828Y-67040593D01*
X127539500Y-67219450D01*
X127539500Y-67400549D01*
X127567828Y-67579406D01*
X127623788Y-67751637D01*
X127668020Y-67838448D01*
X127706004Y-67912994D01*
X127812447Y-68059501D01*
X127940499Y-68187553D01*
X128087006Y-68293996D01*
X128248361Y-68376211D01*
X128420591Y-68432171D01*
X128492136Y-68443502D01*
X128599451Y-68460500D01*
X128599454Y-68460500D01*
X128780549Y-68460500D01*
X128869977Y-68446335D01*
X128959409Y-68432171D01*
X129131639Y-68376211D01*
X129292994Y-68293996D01*
X129439501Y-68187553D01*
X129567553Y-68059501D01*
X129673996Y-67912994D01*
X129756211Y-67751639D01*
X129812171Y-67579409D01*
X129826335Y-67489977D01*
X129840500Y-67400549D01*
X129840500Y-67219450D01*
X129812171Y-67040593D01*
X129812171Y-67040591D01*
X129756211Y-66868361D01*
X129673996Y-66707006D01*
X129594573Y-66597689D01*
X129575666Y-66539500D01*
X129594573Y-66481310D01*
X129644073Y-66445346D01*
X129674666Y-66440500D01*
X130245952Y-66440500D01*
X130304143Y-66459407D01*
X130340107Y-66508907D01*
X130340107Y-66570093D01*
X130326045Y-66597691D01*
X130246430Y-66707270D01*
X130164250Y-66868559D01*
X130108316Y-67040710D01*
X130080000Y-67219489D01*
X130080000Y-67400510D01*
X130108316Y-67579289D01*
X130164250Y-67751440D01*
X130246432Y-67912730D01*
X130257911Y-67928531D01*
X130747036Y-67439407D01*
X130764075Y-67502993D01*
X130829901Y-67617007D01*
X130922993Y-67710099D01*
X131037007Y-67775925D01*
X131100591Y-67792962D01*
X130611466Y-68282087D01*
X130627266Y-68293566D01*
X130788559Y-68375749D01*
X130960710Y-68431683D01*
X131139490Y-68460000D01*
X131320510Y-68460000D01*
X131499289Y-68431683D01*
X131671440Y-68375749D01*
X131832730Y-68293568D01*
X131832735Y-68293564D01*
X131848532Y-68282087D01*
X131848532Y-68282086D01*
X131359408Y-67792962D01*
X131422993Y-67775925D01*
X131537007Y-67710099D01*
X131630099Y-67617007D01*
X131695925Y-67502993D01*
X131712962Y-67439408D01*
X132202086Y-67928532D01*
X132202087Y-67928532D01*
X132213564Y-67912735D01*
X132213568Y-67912730D01*
X132295749Y-67751440D01*
X132351683Y-67579289D01*
X132380000Y-67400510D01*
X132380000Y-67219489D01*
X132351683Y-67040710D01*
X132295749Y-66868559D01*
X132213569Y-66707270D01*
X132133955Y-66597691D01*
X132115048Y-66539500D01*
X132133955Y-66481309D01*
X132183456Y-66445345D01*
X132214048Y-66440500D01*
X132785334Y-66440500D01*
X132843525Y-66459407D01*
X132879489Y-66508907D01*
X132879489Y-66570093D01*
X132865426Y-66597691D01*
X132786007Y-66707000D01*
X132786003Y-66707006D01*
X132703788Y-66868362D01*
X132647828Y-67040593D01*
X132619500Y-67219450D01*
X132619500Y-67400549D01*
X132647828Y-67579406D01*
X132703788Y-67751637D01*
X132748020Y-67838448D01*
X132786004Y-67912994D01*
X132892447Y-68059501D01*
X133020499Y-68187553D01*
X133167006Y-68293996D01*
X133328361Y-68376211D01*
X133500591Y-68432171D01*
X133572136Y-68443502D01*
X133679451Y-68460500D01*
X133679454Y-68460500D01*
X133860549Y-68460500D01*
X133949977Y-68446335D01*
X134039409Y-68432171D01*
X134211639Y-68376211D01*
X134372994Y-68293996D01*
X134519501Y-68187553D01*
X134647553Y-68059501D01*
X134753996Y-67912994D01*
X134836211Y-67751639D01*
X134892171Y-67579409D01*
X134906335Y-67489977D01*
X134920500Y-67400549D01*
X134920500Y-67219450D01*
X134892171Y-67040593D01*
X134892171Y-67040591D01*
X134836211Y-66868361D01*
X134753996Y-66707006D01*
X134674573Y-66597689D01*
X134655666Y-66539500D01*
X134674573Y-66481310D01*
X134724073Y-66445346D01*
X134754666Y-66440500D01*
X135325334Y-66440500D01*
X135383525Y-66459407D01*
X135419489Y-66508907D01*
X135419489Y-66570093D01*
X135405426Y-66597691D01*
X135326007Y-66707000D01*
X135326003Y-66707006D01*
X135243788Y-66868362D01*
X135187828Y-67040593D01*
X135159500Y-67219450D01*
X135159500Y-67400549D01*
X135187828Y-67579406D01*
X135243788Y-67751637D01*
X135288020Y-67838448D01*
X135326004Y-67912994D01*
X135432447Y-68059501D01*
X135560499Y-68187553D01*
X135707006Y-68293996D01*
X135868361Y-68376211D01*
X136040591Y-68432171D01*
X136112136Y-68443502D01*
X136219451Y-68460500D01*
X136219454Y-68460500D01*
X136400549Y-68460500D01*
X136489977Y-68446335D01*
X136579409Y-68432171D01*
X136751639Y-68376211D01*
X136912994Y-68293996D01*
X137059501Y-68187553D01*
X137187553Y-68059501D01*
X137293996Y-67912994D01*
X137376211Y-67751639D01*
X137432171Y-67579409D01*
X137446335Y-67489977D01*
X137460500Y-67400549D01*
X137460500Y-67219450D01*
X137432171Y-67040593D01*
X137432171Y-67040591D01*
X137376211Y-66868361D01*
X137293996Y-66707006D01*
X137214573Y-66597689D01*
X137195666Y-66539500D01*
X137214573Y-66481310D01*
X137264073Y-66445346D01*
X137294666Y-66440500D01*
X137865334Y-66440500D01*
X137923525Y-66459407D01*
X137959489Y-66508907D01*
X137959489Y-66570093D01*
X137945426Y-66597691D01*
X137866007Y-66707000D01*
X137866003Y-66707006D01*
X137783788Y-66868362D01*
X137727828Y-67040593D01*
X137699500Y-67219450D01*
X137699500Y-67400549D01*
X137727828Y-67579406D01*
X137783788Y-67751637D01*
X137828020Y-67838448D01*
X137866004Y-67912994D01*
X137972447Y-68059501D01*
X138100499Y-68187553D01*
X138247006Y-68293996D01*
X138408361Y-68376211D01*
X138580591Y-68432171D01*
X138652136Y-68443502D01*
X138759451Y-68460500D01*
X138759454Y-68460500D01*
X138940549Y-68460500D01*
X139029977Y-68446335D01*
X139119409Y-68432171D01*
X139291639Y-68376211D01*
X139452994Y-68293996D01*
X139599501Y-68187553D01*
X139727553Y-68059501D01*
X139833996Y-67912994D01*
X139916211Y-67751639D01*
X139972171Y-67579409D01*
X139986335Y-67489977D01*
X140000500Y-67400549D01*
X140000500Y-67219450D01*
X139972171Y-67040593D01*
X139972171Y-67040591D01*
X139916211Y-66868361D01*
X139833996Y-66707006D01*
X139754573Y-66597689D01*
X139735666Y-66539500D01*
X139754573Y-66481310D01*
X139804073Y-66445346D01*
X139834666Y-66440500D01*
X140405334Y-66440500D01*
X140463525Y-66459407D01*
X140499489Y-66508907D01*
X140499489Y-66570093D01*
X140485426Y-66597691D01*
X140406007Y-66707000D01*
X140406003Y-66707006D01*
X140323788Y-66868362D01*
X140267828Y-67040593D01*
X140239500Y-67219450D01*
X140239500Y-67400549D01*
X140267828Y-67579406D01*
X140323788Y-67751637D01*
X140368020Y-67838448D01*
X140406004Y-67912994D01*
X140512447Y-68059501D01*
X140640499Y-68187553D01*
X140787006Y-68293996D01*
X140948361Y-68376211D01*
X141120591Y-68432171D01*
X141192136Y-68443502D01*
X141299451Y-68460500D01*
X141299454Y-68460500D01*
X141480549Y-68460500D01*
X141569977Y-68446335D01*
X141659409Y-68432171D01*
X141831639Y-68376211D01*
X141992994Y-68293996D01*
X142139501Y-68187553D01*
X142267553Y-68059501D01*
X142373996Y-67912994D01*
X142456211Y-67751639D01*
X142512171Y-67579409D01*
X142526335Y-67489977D01*
X142540500Y-67400549D01*
X142540500Y-67219450D01*
X142512171Y-67040593D01*
X142512171Y-67040591D01*
X142456211Y-66868361D01*
X142373996Y-66707006D01*
X142294573Y-66597689D01*
X142275666Y-66539500D01*
X142294573Y-66481310D01*
X142344073Y-66445346D01*
X142374666Y-66440500D01*
X142945952Y-66440500D01*
X143004143Y-66459407D01*
X143040107Y-66508907D01*
X143040107Y-66570093D01*
X143026045Y-66597691D01*
X142946430Y-66707270D01*
X142864250Y-66868559D01*
X142808316Y-67040710D01*
X142780000Y-67219489D01*
X142780000Y-67400510D01*
X142808316Y-67579289D01*
X142864250Y-67751440D01*
X142946432Y-67912730D01*
X142957911Y-67928531D01*
X143447036Y-67439407D01*
X143464075Y-67502993D01*
X143529901Y-67617007D01*
X143622993Y-67710099D01*
X143737007Y-67775925D01*
X143800591Y-67792962D01*
X143311466Y-68282087D01*
X143327266Y-68293566D01*
X143488559Y-68375749D01*
X143660710Y-68431683D01*
X143839490Y-68460000D01*
X144020510Y-68460000D01*
X144199289Y-68431683D01*
X144371440Y-68375749D01*
X144532730Y-68293568D01*
X144532735Y-68293564D01*
X144548532Y-68282087D01*
X144548532Y-68282086D01*
X144059408Y-67792962D01*
X144122993Y-67775925D01*
X144237007Y-67710099D01*
X144330099Y-67617007D01*
X144395925Y-67502993D01*
X144412962Y-67439408D01*
X144902086Y-67928532D01*
X144902087Y-67928532D01*
X144913564Y-67912735D01*
X144913568Y-67912730D01*
X144995749Y-67751440D01*
X145051683Y-67579289D01*
X145080000Y-67400510D01*
X145080000Y-67219489D01*
X145051683Y-67040710D01*
X144995749Y-66868559D01*
X144913569Y-66707270D01*
X144833955Y-66597691D01*
X144815048Y-66539500D01*
X144833955Y-66481309D01*
X144883456Y-66445345D01*
X144914048Y-66440500D01*
X145485334Y-66440500D01*
X145543525Y-66459407D01*
X145579489Y-66508907D01*
X145579489Y-66570093D01*
X145565426Y-66597691D01*
X145486007Y-66707000D01*
X145486003Y-66707006D01*
X145403788Y-66868362D01*
X145347828Y-67040593D01*
X145319500Y-67219450D01*
X145319500Y-67400549D01*
X145347828Y-67579406D01*
X145403788Y-67751637D01*
X145448020Y-67838448D01*
X145486004Y-67912994D01*
X145592447Y-68059501D01*
X145720499Y-68187553D01*
X145867006Y-68293996D01*
X146028361Y-68376211D01*
X146200591Y-68432171D01*
X146272136Y-68443502D01*
X146379451Y-68460500D01*
X146379454Y-68460500D01*
X146560549Y-68460500D01*
X146649977Y-68446335D01*
X146739409Y-68432171D01*
X146911639Y-68376211D01*
X147072994Y-68293996D01*
X147219501Y-68187553D01*
X147347553Y-68059501D01*
X147453996Y-67912994D01*
X147536211Y-67751639D01*
X147592171Y-67579409D01*
X147606335Y-67489977D01*
X147620500Y-67400549D01*
X147620500Y-67219450D01*
X147592171Y-67040593D01*
X147592171Y-67040591D01*
X147536211Y-66868361D01*
X147453996Y-66707006D01*
X147374573Y-66597689D01*
X147355666Y-66539500D01*
X147374573Y-66481310D01*
X147424073Y-66445346D01*
X147454666Y-66440500D01*
X148025952Y-66440500D01*
X148084143Y-66459407D01*
X148120107Y-66508907D01*
X148120107Y-66570093D01*
X148106045Y-66597691D01*
X148026430Y-66707270D01*
X147944250Y-66868559D01*
X147888316Y-67040710D01*
X147860000Y-67219489D01*
X147860000Y-67400510D01*
X147888316Y-67579289D01*
X147944250Y-67751440D01*
X148026432Y-67912730D01*
X148037911Y-67928531D01*
X148527036Y-67439407D01*
X148544075Y-67502993D01*
X148609901Y-67617007D01*
X148702993Y-67710099D01*
X148817007Y-67775925D01*
X148880591Y-67792962D01*
X148391466Y-68282087D01*
X148407266Y-68293566D01*
X148568559Y-68375749D01*
X148740710Y-68431683D01*
X148919490Y-68460000D01*
X149100510Y-68460000D01*
X149279289Y-68431683D01*
X149451440Y-68375749D01*
X149612730Y-68293568D01*
X149612735Y-68293564D01*
X149628532Y-68282087D01*
X149628532Y-68282086D01*
X149139408Y-67792962D01*
X149202993Y-67775925D01*
X149317007Y-67710099D01*
X149410099Y-67617007D01*
X149475925Y-67502993D01*
X149492962Y-67439408D01*
X149982086Y-67928532D01*
X149982087Y-67928532D01*
X149993564Y-67912735D01*
X149993568Y-67912730D01*
X150075749Y-67751440D01*
X150131683Y-67579289D01*
X150160000Y-67400510D01*
X150160000Y-67219489D01*
X150131683Y-67040710D01*
X150075749Y-66868559D01*
X149993569Y-66707270D01*
X149913955Y-66597691D01*
X149895048Y-66539500D01*
X149913955Y-66481309D01*
X149963456Y-66445345D01*
X149994048Y-66440500D01*
X150565334Y-66440500D01*
X150623525Y-66459407D01*
X150659489Y-66508907D01*
X150659489Y-66570093D01*
X150645426Y-66597691D01*
X150566007Y-66707000D01*
X150566003Y-66707006D01*
X150483788Y-66868362D01*
X150427828Y-67040593D01*
X150399500Y-67219450D01*
X150399500Y-67400549D01*
X150427828Y-67579406D01*
X150483788Y-67751637D01*
X150528020Y-67838448D01*
X150566004Y-67912994D01*
X150672447Y-68059501D01*
X150800499Y-68187553D01*
X150947006Y-68293996D01*
X151108361Y-68376211D01*
X151280591Y-68432171D01*
X151352136Y-68443502D01*
X151459451Y-68460500D01*
X151459454Y-68460500D01*
X151640549Y-68460500D01*
X151729977Y-68446335D01*
X151819409Y-68432171D01*
X151991639Y-68376211D01*
X152152994Y-68293996D01*
X152299501Y-68187553D01*
X152427553Y-68059501D01*
X152533996Y-67912994D01*
X152616211Y-67751639D01*
X152672171Y-67579409D01*
X152686335Y-67489977D01*
X152700500Y-67400549D01*
X152700500Y-67219450D01*
X152672171Y-67040593D01*
X152672171Y-67040591D01*
X152616211Y-66868361D01*
X152533996Y-66707006D01*
X152454573Y-66597689D01*
X152435666Y-66539500D01*
X152454573Y-66481310D01*
X152504073Y-66445346D01*
X152534666Y-66440500D01*
X153105334Y-66440500D01*
X153163525Y-66459407D01*
X153199489Y-66508907D01*
X153199489Y-66570093D01*
X153185426Y-66597691D01*
X153106007Y-66707000D01*
X153106003Y-66707006D01*
X153023788Y-66868362D01*
X152967828Y-67040593D01*
X152939500Y-67219450D01*
X152939500Y-67400549D01*
X152967828Y-67579406D01*
X153023788Y-67751637D01*
X153068020Y-67838448D01*
X153106004Y-67912994D01*
X153212447Y-68059501D01*
X153340499Y-68187553D01*
X153487006Y-68293996D01*
X153648361Y-68376211D01*
X153820591Y-68432171D01*
X153892136Y-68443502D01*
X153999451Y-68460500D01*
X153999454Y-68460500D01*
X154180549Y-68460500D01*
X154269977Y-68446335D01*
X154359409Y-68432171D01*
X154531639Y-68376211D01*
X154692994Y-68293996D01*
X154839501Y-68187553D01*
X154967553Y-68059501D01*
X154980405Y-68041810D01*
X155029904Y-68005846D01*
X155091090Y-68005845D01*
X155130503Y-68029996D01*
X155567727Y-68467220D01*
X155920404Y-68819896D01*
X155948181Y-68874413D01*
X155938610Y-68934845D01*
X155895345Y-68978110D01*
X155850400Y-68988900D01*
X123356300Y-68988900D01*
X123298109Y-68969993D01*
X123286296Y-68959904D01*
X122640753Y-68314360D01*
X122164841Y-67838448D01*
X122137064Y-67783931D01*
X122140689Y-67737854D01*
X122192171Y-67579409D01*
X122195878Y-67556004D01*
X122220500Y-67400549D01*
X122220500Y-67219450D01*
X122192171Y-67040593D01*
X122192171Y-67040591D01*
X122136211Y-66868361D01*
X122053996Y-66707006D01*
X121974573Y-66597689D01*
X121955666Y-66539500D01*
X121974573Y-66481310D01*
X122024073Y-66445346D01*
X122054666Y-66440500D01*
X122625952Y-66440500D01*
X122684143Y-66459407D01*
G37*
%TD.AperFunction*%
%TA.AperFunction,Conductor*%
G36*
X217458691Y-60519407D02*
G01*
X217494655Y-60568907D01*
X217499500Y-60599500D01*
X217499500Y-105400500D01*
X217480593Y-105458691D01*
X217431093Y-105494655D01*
X217400500Y-105499500D01*
X164599500Y-105499500D01*
X164541309Y-105480593D01*
X164505345Y-105431093D01*
X164500500Y-105400500D01*
X164500500Y-99106893D01*
X167824500Y-99106893D01*
X167824500Y-99893106D01*
X167835123Y-99981565D01*
X167890637Y-100122339D01*
X167890638Y-100122341D01*
X167890639Y-100122342D01*
X167982078Y-100242922D01*
X168102658Y-100334361D01*
X168102659Y-100334361D01*
X168102660Y-100334362D01*
X168173047Y-100362119D01*
X168243436Y-100389877D01*
X168331898Y-100400500D01*
X168331900Y-100400500D01*
X169668100Y-100400500D01*
X169668102Y-100400500D01*
X169756564Y-100389877D01*
X169897342Y-100334361D01*
X170017922Y-100242922D01*
X170109361Y-100122342D01*
X170164877Y-99981564D01*
X170175500Y-99893102D01*
X170175500Y-99106898D01*
X170164877Y-99018436D01*
X170109361Y-98877658D01*
X170017922Y-98757078D01*
X169897342Y-98665639D01*
X169897341Y-98665638D01*
X169897339Y-98665637D01*
X169756565Y-98610123D01*
X169668106Y-98599500D01*
X169668102Y-98599500D01*
X168331898Y-98599500D01*
X168331893Y-98599500D01*
X168243434Y-98610123D01*
X168102660Y-98665637D01*
X168102656Y-98665640D01*
X167982081Y-98757075D01*
X167982075Y-98757081D01*
X167890640Y-98877656D01*
X167890637Y-98877660D01*
X167835123Y-99018434D01*
X167824500Y-99106893D01*
X164500500Y-99106893D01*
X164500500Y-97411306D01*
X167824500Y-97411306D01*
X167824500Y-97588693D01*
X167859106Y-97762665D01*
X167859106Y-97762667D01*
X167926985Y-97926544D01*
X167926985Y-97926545D01*
X168025534Y-98074032D01*
X168025536Y-98074035D01*
X168150965Y-98199464D01*
X168298453Y-98298013D01*
X168462334Y-98365894D01*
X168636309Y-98400500D01*
X168636310Y-98400500D01*
X169363690Y-98400500D01*
X169363691Y-98400500D01*
X169537666Y-98365894D01*
X169701547Y-98298013D01*
X169849035Y-98199464D01*
X169974464Y-98074035D01*
X170061018Y-97944499D01*
X170109067Y-97906619D01*
X170143333Y-97900500D01*
X172793099Y-97900500D01*
X172851290Y-97919407D01*
X172863103Y-97929496D01*
X175264103Y-100330496D01*
X175291880Y-100385013D01*
X175282309Y-100445445D01*
X175239044Y-100488710D01*
X175194099Y-100499500D01*
X174606893Y-100499500D01*
X174518434Y-100510123D01*
X174377660Y-100565637D01*
X174377656Y-100565640D01*
X174257081Y-100657075D01*
X174257075Y-100657081D01*
X174165640Y-100777655D01*
X174165639Y-100777658D01*
X174133710Y-100858621D01*
X174094776Y-100905816D01*
X174041615Y-100921300D01*
X172663544Y-100921300D01*
X172605353Y-100902393D01*
X172593541Y-100892304D01*
X172542518Y-100841282D01*
X172542516Y-100841280D01*
X172405584Y-100762223D01*
X172252857Y-100721300D01*
X172094743Y-100721300D01*
X171942016Y-100762223D01*
X171805084Y-100841280D01*
X171693280Y-100953084D01*
X171614223Y-101090016D01*
X171573300Y-101242743D01*
X171573300Y-101400857D01*
X171614223Y-101553584D01*
X171693280Y-101690516D01*
X171805084Y-101802320D01*
X171942016Y-101881377D01*
X172094743Y-101922300D01*
X172094745Y-101922300D01*
X172252855Y-101922300D01*
X172252857Y-101922300D01*
X172405584Y-101881377D01*
X172542516Y-101802320D01*
X172568029Y-101776806D01*
X172593541Y-101751296D01*
X172648058Y-101723519D01*
X172663544Y-101722300D01*
X174000500Y-101722300D01*
X174058691Y-101741207D01*
X174094655Y-101790707D01*
X174099500Y-101821300D01*
X174099500Y-101993106D01*
X174110123Y-102081565D01*
X174165637Y-102222339D01*
X174165638Y-102222341D01*
X174165639Y-102222342D01*
X174257078Y-102342922D01*
X174377658Y-102434361D01*
X174377659Y-102434361D01*
X174377660Y-102434362D01*
X174448047Y-102462119D01*
X174518436Y-102489877D01*
X174606898Y-102500500D01*
X174606900Y-102500500D01*
X175393100Y-102500500D01*
X175393102Y-102500500D01*
X175481564Y-102489877D01*
X175622342Y-102434361D01*
X175742922Y-102342922D01*
X175834361Y-102222342D01*
X175889877Y-102081564D01*
X175900500Y-101993102D01*
X175900500Y-101205901D01*
X175907663Y-101183853D01*
X175911290Y-101160956D01*
X175916938Y-101155307D01*
X175919407Y-101147710D01*
X175938163Y-101134082D01*
X175954555Y-101117691D01*
X175962444Y-101116441D01*
X175968907Y-101111746D01*
X175992092Y-101111746D01*
X176014987Y-101108120D01*
X176022104Y-101111746D01*
X176030093Y-101111746D01*
X176069504Y-101135897D01*
X176070504Y-101136897D01*
X176098281Y-101191414D01*
X176099500Y-101206901D01*
X176099500Y-101993106D01*
X176110123Y-102081565D01*
X176165637Y-102222339D01*
X176165638Y-102222341D01*
X176165639Y-102222342D01*
X176257078Y-102342922D01*
X176377658Y-102434361D01*
X176377659Y-102434361D01*
X176377660Y-102434362D01*
X176448047Y-102462119D01*
X176518436Y-102489877D01*
X176606898Y-102500500D01*
X176606900Y-102500500D01*
X177393099Y-102500500D01*
X177451290Y-102519407D01*
X177463102Y-102529496D01*
X177795286Y-102861679D01*
X177795291Y-102861683D01*
X177886608Y-102914405D01*
X177886606Y-102914405D01*
X177886610Y-102914406D01*
X177886612Y-102914407D01*
X177988473Y-102941700D01*
X177988475Y-102941700D01*
X182011525Y-102941700D01*
X182011527Y-102941700D01*
X182113388Y-102914407D01*
X182113390Y-102914405D01*
X182113392Y-102914405D01*
X182204708Y-102861683D01*
X182204708Y-102861682D01*
X182204713Y-102861680D01*
X182536895Y-102529496D01*
X182591412Y-102501719D01*
X182606899Y-102500500D01*
X183393100Y-102500500D01*
X183393102Y-102500500D01*
X183481564Y-102489877D01*
X183622342Y-102434361D01*
X183742922Y-102342922D01*
X183834361Y-102222342D01*
X183889877Y-102081564D01*
X183900500Y-101993102D01*
X183900500Y-101006898D01*
X183889877Y-100918436D01*
X183859450Y-100841280D01*
X183834362Y-100777660D01*
X183834361Y-100777659D01*
X183834361Y-100777658D01*
X183742922Y-100657078D01*
X183622342Y-100565639D01*
X183622341Y-100565638D01*
X183622339Y-100565637D01*
X183481565Y-100510123D01*
X183393106Y-100499500D01*
X183393102Y-100499500D01*
X182606898Y-100499500D01*
X182606893Y-100499500D01*
X182518434Y-100510123D01*
X182377660Y-100565637D01*
X182377656Y-100565640D01*
X182257081Y-100657075D01*
X182257075Y-100657081D01*
X182165640Y-100777656D01*
X182165637Y-100777660D01*
X182110123Y-100918434D01*
X182099500Y-101006893D01*
X182099500Y-101793099D01*
X182097031Y-101800696D01*
X182098281Y-101808586D01*
X182087756Y-101829241D01*
X182080593Y-101851290D01*
X182070504Y-101863103D01*
X182069504Y-101864103D01*
X182014987Y-101891880D01*
X181954555Y-101882309D01*
X181911290Y-101839044D01*
X181900500Y-101794099D01*
X181900500Y-101006899D01*
X181900499Y-101006893D01*
X181895040Y-100961433D01*
X181889877Y-100918436D01*
X181859450Y-100841280D01*
X181834362Y-100777660D01*
X181834361Y-100777659D01*
X181834361Y-100777658D01*
X181742922Y-100657078D01*
X181622342Y-100565639D01*
X181622341Y-100565638D01*
X181622339Y-100565637D01*
X181481565Y-100510123D01*
X181393106Y-100499500D01*
X181393102Y-100499500D01*
X180606898Y-100499500D01*
X180606893Y-100499500D01*
X180518434Y-100510123D01*
X180377660Y-100565637D01*
X180377656Y-100565640D01*
X180257081Y-100657075D01*
X180257074Y-100657082D01*
X180242031Y-100676920D01*
X180191805Y-100711862D01*
X180163148Y-100716100D01*
X179096744Y-100716100D01*
X179038553Y-100697193D01*
X179026741Y-100687104D01*
X178975718Y-100636082D01*
X178975716Y-100636080D01*
X178838784Y-100557023D01*
X178686057Y-100516100D01*
X178527943Y-100516100D01*
X178375216Y-100557023D01*
X178238284Y-100636080D01*
X178126478Y-100747886D01*
X178048510Y-100882931D01*
X178003041Y-100923872D01*
X177942191Y-100930268D01*
X177889203Y-100899675D01*
X177870679Y-100869754D01*
X177834361Y-100777658D01*
X177742922Y-100657078D01*
X177622342Y-100565639D01*
X177622341Y-100565638D01*
X177622339Y-100565637D01*
X177481565Y-100510123D01*
X177393106Y-100499500D01*
X177393102Y-100499500D01*
X176606901Y-100499500D01*
X176548710Y-100480593D01*
X176536897Y-100470504D01*
X174938108Y-98871715D01*
X173245913Y-97179520D01*
X173245910Y-97179518D01*
X173245909Y-97179517D01*
X173245908Y-97179516D01*
X173154591Y-97126794D01*
X173154593Y-97126794D01*
X173115070Y-97116204D01*
X173052727Y-97099500D01*
X173052725Y-97099500D01*
X170143333Y-97099500D01*
X170085142Y-97080593D01*
X170061018Y-97055501D01*
X169974466Y-96925967D01*
X169849034Y-96800535D01*
X169701544Y-96701985D01*
X169537666Y-96634106D01*
X169363693Y-96599500D01*
X169363691Y-96599500D01*
X168636309Y-96599500D01*
X168636306Y-96599500D01*
X168462334Y-96634106D01*
X168462332Y-96634106D01*
X168298455Y-96701985D01*
X168298454Y-96701985D01*
X168150965Y-96800535D01*
X168025535Y-96925965D01*
X167926985Y-97073454D01*
X167926985Y-97073455D01*
X167859106Y-97237332D01*
X167859106Y-97237334D01*
X167824500Y-97411306D01*
X164500500Y-97411306D01*
X164500500Y-95250000D01*
X167857095Y-95250000D01*
X168719670Y-95250000D01*
X168699925Y-95269745D01*
X168650556Y-95355255D01*
X168625000Y-95450630D01*
X168625000Y-95549370D01*
X168650556Y-95644745D01*
X168699925Y-95730255D01*
X168719670Y-95750000D01*
X167857096Y-95750000D01*
X167859586Y-95762523D01*
X167927430Y-95926310D01*
X168025923Y-96073715D01*
X168151284Y-96199076D01*
X168298691Y-96297570D01*
X168462479Y-96365413D01*
X168636355Y-96399999D01*
X168636359Y-96400000D01*
X168749999Y-96400000D01*
X168750000Y-96399999D01*
X168750000Y-95780330D01*
X168769745Y-95800075D01*
X168855255Y-95849444D01*
X168950630Y-95875000D01*
X169049370Y-95875000D01*
X169144745Y-95849444D01*
X169230255Y-95800075D01*
X169250000Y-95780330D01*
X169250000Y-96399999D01*
X169250001Y-96400000D01*
X169363641Y-96400000D01*
X169363644Y-96399999D01*
X169537519Y-96365413D01*
X169537521Y-96365413D01*
X169701308Y-96297570D01*
X169848715Y-96199076D01*
X169974076Y-96073715D01*
X170072569Y-95926310D01*
X170140413Y-95762523D01*
X170142904Y-95750000D01*
X169280330Y-95750000D01*
X169300075Y-95730255D01*
X169349444Y-95644745D01*
X169375000Y-95549370D01*
X169375000Y-95506893D01*
X174099500Y-95506893D01*
X174099500Y-96493106D01*
X174110123Y-96581565D01*
X174165637Y-96722339D01*
X174165638Y-96722341D01*
X174165639Y-96722342D01*
X174257078Y-96842922D01*
X174377658Y-96934361D01*
X174377659Y-96934361D01*
X174377660Y-96934362D01*
X174448047Y-96962119D01*
X174518436Y-96989877D01*
X174606898Y-97000500D01*
X174606900Y-97000500D01*
X175393100Y-97000500D01*
X175393102Y-97000500D01*
X175481564Y-96989877D01*
X175622342Y-96934361D01*
X175742922Y-96842922D01*
X175834361Y-96722342D01*
X175889877Y-96581564D01*
X175900500Y-96493102D01*
X175900500Y-95506898D01*
X175900499Y-95506893D01*
X176099500Y-95506893D01*
X176099500Y-96493106D01*
X176110123Y-96581565D01*
X176165637Y-96722339D01*
X176165638Y-96722341D01*
X176165639Y-96722342D01*
X176257078Y-96842922D01*
X176377658Y-96934361D01*
X176377659Y-96934361D01*
X176377660Y-96934362D01*
X176448047Y-96962119D01*
X176518436Y-96989877D01*
X176606898Y-97000500D01*
X176606900Y-97000500D01*
X177393100Y-97000500D01*
X177393102Y-97000500D01*
X177481564Y-96989877D01*
X177622342Y-96934361D01*
X177742922Y-96842922D01*
X177834361Y-96722342D01*
X177889877Y-96581564D01*
X177900500Y-96493102D01*
X177900500Y-96493100D01*
X177900853Y-96490164D01*
X177901778Y-96490275D01*
X177922803Y-96436650D01*
X177974354Y-96403693D01*
X177999294Y-96400500D01*
X180000706Y-96400500D01*
X180058897Y-96419407D01*
X180094861Y-96468907D01*
X180098884Y-96490195D01*
X180099147Y-96490164D01*
X180110123Y-96581565D01*
X180165637Y-96722339D01*
X180165638Y-96722341D01*
X180165639Y-96722342D01*
X180257078Y-96842922D01*
X180377658Y-96934361D01*
X180377659Y-96934361D01*
X180377660Y-96934362D01*
X180448047Y-96962119D01*
X180518436Y-96989877D01*
X180606898Y-97000500D01*
X180606900Y-97000500D01*
X181343100Y-97000500D01*
X181343102Y-97000500D01*
X181431564Y-96989877D01*
X181572342Y-96934361D01*
X181692922Y-96842922D01*
X181784361Y-96722342D01*
X181839877Y-96581564D01*
X181850500Y-96493102D01*
X181850500Y-95506898D01*
X181839877Y-95418436D01*
X181784361Y-95277658D01*
X181692922Y-95157078D01*
X181572342Y-95065639D01*
X181572341Y-95065638D01*
X181572339Y-95065637D01*
X181431565Y-95010123D01*
X181343106Y-94999500D01*
X181343102Y-94999500D01*
X180606898Y-94999500D01*
X180606893Y-94999500D01*
X180518434Y-95010123D01*
X180377660Y-95065637D01*
X180377656Y-95065640D01*
X180257081Y-95157075D01*
X180257075Y-95157081D01*
X180165640Y-95277656D01*
X180165637Y-95277660D01*
X180110123Y-95418434D01*
X180099147Y-95509836D01*
X180098221Y-95509724D01*
X180077197Y-95563350D01*
X180025646Y-95596307D01*
X180000706Y-95599500D01*
X177999294Y-95599500D01*
X177941103Y-95580593D01*
X177905139Y-95531093D01*
X177901115Y-95509804D01*
X177900853Y-95509836D01*
X177893743Y-95450630D01*
X177889877Y-95418436D01*
X177834361Y-95277658D01*
X177742922Y-95157078D01*
X177622342Y-95065639D01*
X177622341Y-95065638D01*
X177622339Y-95065637D01*
X177481565Y-95010123D01*
X177393106Y-94999500D01*
X177393102Y-94999500D01*
X176606898Y-94999500D01*
X176606893Y-94999500D01*
X176518434Y-95010123D01*
X176377660Y-95065637D01*
X176377656Y-95065640D01*
X176257081Y-95157075D01*
X176257075Y-95157081D01*
X176165640Y-95277656D01*
X176165637Y-95277660D01*
X176110123Y-95418434D01*
X176099500Y-95506893D01*
X175900499Y-95506893D01*
X175889877Y-95418436D01*
X175834361Y-95277658D01*
X175742922Y-95157078D01*
X175627605Y-95069630D01*
X175592663Y-95019404D01*
X175591799Y-94965126D01*
X175618800Y-94864357D01*
X175618800Y-94706243D01*
X175577877Y-94553516D01*
X175498820Y-94416584D01*
X175387016Y-94304780D01*
X175250084Y-94225723D01*
X175097357Y-94184800D01*
X174939243Y-94184800D01*
X174786516Y-94225723D01*
X174649584Y-94304780D01*
X174537780Y-94416584D01*
X174458723Y-94553516D01*
X174417800Y-94706243D01*
X174417800Y-94864357D01*
X174435523Y-94930499D01*
X174439882Y-94946768D01*
X174436679Y-95007870D01*
X174398174Y-95055420D01*
X174380579Y-95064486D01*
X174377662Y-95065636D01*
X174377659Y-95065637D01*
X174257081Y-95157075D01*
X174257075Y-95157081D01*
X174165640Y-95277656D01*
X174165637Y-95277660D01*
X174110123Y-95418434D01*
X174099500Y-95506893D01*
X169375000Y-95506893D01*
X169375000Y-95450630D01*
X169349444Y-95355255D01*
X169300075Y-95269745D01*
X169280330Y-95250000D01*
X170142904Y-95250000D01*
X170140413Y-95237476D01*
X170072569Y-95073689D01*
X169974076Y-94926284D01*
X169848715Y-94800923D01*
X169701308Y-94702429D01*
X169537520Y-94634586D01*
X169363644Y-94600000D01*
X169250001Y-94600000D01*
X169250000Y-94600001D01*
X169250000Y-95219670D01*
X169230255Y-95199925D01*
X169144745Y-95150556D01*
X169049370Y-95125000D01*
X168950630Y-95125000D01*
X168855255Y-95150556D01*
X168769745Y-95199925D01*
X168750000Y-95219670D01*
X168750000Y-94600001D01*
X168749999Y-94600000D01*
X168636355Y-94600000D01*
X168462480Y-94634586D01*
X168462478Y-94634586D01*
X168298691Y-94702429D01*
X168151284Y-94800923D01*
X168025923Y-94926284D01*
X167927430Y-95073689D01*
X167859586Y-95237476D01*
X167857095Y-95250000D01*
X164500500Y-95250000D01*
X164500500Y-89606893D01*
X167824500Y-89606893D01*
X167824500Y-90393106D01*
X167835123Y-90481565D01*
X167890637Y-90622339D01*
X167890638Y-90622341D01*
X167890639Y-90622342D01*
X167982078Y-90742922D01*
X168102658Y-90834361D01*
X168102659Y-90834361D01*
X168102660Y-90834362D01*
X168129261Y-90844852D01*
X168243436Y-90889877D01*
X168331898Y-90900500D01*
X168331900Y-90900500D01*
X169668100Y-90900500D01*
X169668102Y-90900500D01*
X169756564Y-90889877D01*
X169897342Y-90834361D01*
X170017922Y-90742922D01*
X170109361Y-90622342D01*
X170164877Y-90481564D01*
X170175500Y-90393102D01*
X170175500Y-89606898D01*
X170164877Y-89518436D01*
X170109361Y-89377658D01*
X170017922Y-89257078D01*
X169897342Y-89165639D01*
X169897341Y-89165638D01*
X169897339Y-89165637D01*
X169756565Y-89110123D01*
X169668106Y-89099500D01*
X169668102Y-89099500D01*
X168331898Y-89099500D01*
X168331893Y-89099500D01*
X168243434Y-89110123D01*
X168102660Y-89165637D01*
X168102656Y-89165640D01*
X167982081Y-89257075D01*
X167982075Y-89257081D01*
X167890640Y-89377656D01*
X167890637Y-89377660D01*
X167835123Y-89518434D01*
X167824500Y-89606893D01*
X164500500Y-89606893D01*
X164500500Y-87750000D01*
X167857095Y-87750000D01*
X168719670Y-87750000D01*
X168699925Y-87769745D01*
X168650556Y-87855255D01*
X168625000Y-87950630D01*
X168625000Y-88049370D01*
X168650556Y-88144745D01*
X168699925Y-88230255D01*
X168719670Y-88250000D01*
X167857096Y-88250000D01*
X167859586Y-88262523D01*
X167927430Y-88426310D01*
X168025923Y-88573715D01*
X168151284Y-88699076D01*
X168298691Y-88797570D01*
X168462479Y-88865413D01*
X168636355Y-88899999D01*
X168636359Y-88900000D01*
X168749999Y-88900000D01*
X168750000Y-88899999D01*
X168750000Y-88280330D01*
X168769745Y-88300075D01*
X168855255Y-88349444D01*
X168950630Y-88375000D01*
X169049370Y-88375000D01*
X169144745Y-88349444D01*
X169230255Y-88300075D01*
X169250000Y-88280330D01*
X169250000Y-88899999D01*
X169250001Y-88900000D01*
X169363641Y-88900000D01*
X169363644Y-88899999D01*
X169537519Y-88865413D01*
X169537521Y-88865413D01*
X169701308Y-88797570D01*
X169848715Y-88699076D01*
X169974076Y-88573715D01*
X170072569Y-88426310D01*
X170140413Y-88262523D01*
X170142904Y-88250000D01*
X169280330Y-88250000D01*
X169300075Y-88230255D01*
X169349444Y-88144745D01*
X169375000Y-88049370D01*
X169375000Y-87950630D01*
X169349444Y-87855255D01*
X169300075Y-87769745D01*
X169280330Y-87750000D01*
X170142904Y-87750000D01*
X170140413Y-87737476D01*
X170072569Y-87573689D01*
X169974076Y-87426284D01*
X169848715Y-87300923D01*
X169701308Y-87202429D01*
X169537520Y-87134586D01*
X169363644Y-87100000D01*
X169250001Y-87100000D01*
X169250000Y-87100001D01*
X169250000Y-87719670D01*
X169230255Y-87699925D01*
X169144745Y-87650556D01*
X169049370Y-87625000D01*
X168950630Y-87625000D01*
X168855255Y-87650556D01*
X168769745Y-87699925D01*
X168750000Y-87719670D01*
X168750000Y-87100001D01*
X168749999Y-87100000D01*
X168636355Y-87100000D01*
X168462480Y-87134586D01*
X168462478Y-87134586D01*
X168298691Y-87202429D01*
X168151284Y-87300923D01*
X168025923Y-87426284D01*
X167927430Y-87573689D01*
X167859586Y-87737476D01*
X167857095Y-87750000D01*
X164500500Y-87750000D01*
X164500500Y-80106935D01*
X167825000Y-80106935D01*
X167825000Y-80249999D01*
X167825001Y-80250000D01*
X168719670Y-80250000D01*
X168699925Y-80269745D01*
X168650556Y-80355255D01*
X168625000Y-80450630D01*
X168625000Y-80549370D01*
X168650556Y-80644745D01*
X168699925Y-80730255D01*
X168719670Y-80750000D01*
X167825001Y-80750000D01*
X167825000Y-80750001D01*
X167825000Y-80893064D01*
X167835613Y-80981443D01*
X167891080Y-81122095D01*
X167982435Y-81242564D01*
X168102904Y-81333919D01*
X168243556Y-81389386D01*
X168331935Y-81399999D01*
X168331942Y-81400000D01*
X168749999Y-81400000D01*
X168750000Y-81399999D01*
X168750000Y-80780330D01*
X168769745Y-80800075D01*
X168855255Y-80849444D01*
X168950630Y-80875000D01*
X169049370Y-80875000D01*
X169144745Y-80849444D01*
X169230255Y-80800075D01*
X169250000Y-80780330D01*
X169250000Y-81399999D01*
X169250001Y-81400000D01*
X169668058Y-81400000D01*
X169668064Y-81399999D01*
X169756443Y-81389386D01*
X169897095Y-81333919D01*
X170017564Y-81242564D01*
X170108919Y-81122095D01*
X170164386Y-80981443D01*
X170174999Y-80893064D01*
X170175000Y-80893058D01*
X170175000Y-80750001D01*
X170174999Y-80750000D01*
X169280330Y-80750000D01*
X169300075Y-80730255D01*
X169349444Y-80644745D01*
X169375000Y-80549370D01*
X169375000Y-80450630D01*
X169349444Y-80355255D01*
X169300075Y-80269745D01*
X169280330Y-80250000D01*
X170174999Y-80250000D01*
X170175000Y-80249999D01*
X170175000Y-80106941D01*
X170174999Y-80106935D01*
X170164386Y-80018556D01*
X170108919Y-79877904D01*
X170017564Y-79757435D01*
X169897095Y-79666080D01*
X169756443Y-79610613D01*
X169668064Y-79600000D01*
X169250001Y-79600000D01*
X169250000Y-79600001D01*
X169250000Y-80219670D01*
X169230255Y-80199925D01*
X169144745Y-80150556D01*
X169049370Y-80125000D01*
X168950630Y-80125000D01*
X168855255Y-80150556D01*
X168769745Y-80199925D01*
X168750000Y-80219670D01*
X168750000Y-79600001D01*
X168749999Y-79600000D01*
X168331935Y-79600000D01*
X168243556Y-79610613D01*
X168102904Y-79666080D01*
X167982435Y-79757435D01*
X167891080Y-79877904D01*
X167835613Y-80018556D01*
X167825000Y-80106935D01*
X164500500Y-80106935D01*
X164500500Y-79409489D01*
X176850000Y-79409489D01*
X176850000Y-79590510D01*
X176878316Y-79769289D01*
X176934250Y-79941440D01*
X177016432Y-80102730D01*
X177027911Y-80118531D01*
X177517036Y-79629406D01*
X177534075Y-79692993D01*
X177599901Y-79807007D01*
X177692993Y-79900099D01*
X177807007Y-79965925D01*
X177870591Y-79982962D01*
X177381466Y-80472087D01*
X177397266Y-80483566D01*
X177558559Y-80565749D01*
X177730710Y-80621683D01*
X177909490Y-80650000D01*
X178090510Y-80650000D01*
X178269289Y-80621683D01*
X178441440Y-80565749D01*
X178602730Y-80483568D01*
X178602735Y-80483564D01*
X178618532Y-80472087D01*
X178618532Y-80472086D01*
X178129408Y-79982962D01*
X178192993Y-79965925D01*
X178307007Y-79900099D01*
X178400099Y-79807007D01*
X178465925Y-79692993D01*
X178482962Y-79629408D01*
X178972086Y-80118532D01*
X178972087Y-80118532D01*
X178983564Y-80102735D01*
X178983568Y-80102730D01*
X179065749Y-79941440D01*
X179121683Y-79769289D01*
X179150000Y-79590510D01*
X179150000Y-79409489D01*
X179121683Y-79230710D01*
X179065749Y-79058559D01*
X178983566Y-78897266D01*
X178972087Y-78881466D01*
X178482962Y-79370591D01*
X178465925Y-79307007D01*
X178400099Y-79192993D01*
X178307007Y-79099901D01*
X178192993Y-79034075D01*
X178129406Y-79017036D01*
X178618532Y-78527911D01*
X178602730Y-78516432D01*
X178441440Y-78434250D01*
X178269289Y-78378316D01*
X178090510Y-78350000D01*
X177909490Y-78350000D01*
X177730710Y-78378316D01*
X177558559Y-78434250D01*
X177397264Y-78516434D01*
X177381466Y-78527911D01*
X177870592Y-79017037D01*
X177807007Y-79034075D01*
X177692993Y-79099901D01*
X177599901Y-79192993D01*
X177534075Y-79307007D01*
X177517037Y-79370592D01*
X177027911Y-78881466D01*
X177016434Y-78897264D01*
X176934250Y-79058559D01*
X176878316Y-79230710D01*
X176850000Y-79409489D01*
X164500500Y-79409489D01*
X164500500Y-73934109D01*
X164498318Y-73925965D01*
X164466392Y-73806814D01*
X164466390Y-73806811D01*
X164466390Y-73806809D01*
X164400503Y-73692690D01*
X164400501Y-73692688D01*
X164400500Y-73692686D01*
X164307314Y-73599500D01*
X164307311Y-73599498D01*
X164307309Y-73599496D01*
X164193189Y-73533609D01*
X164193191Y-73533609D01*
X164143799Y-73520375D01*
X164065892Y-73499500D01*
X164065890Y-73499500D01*
X100599500Y-73499500D01*
X100541309Y-73480593D01*
X100505345Y-73431093D01*
X100500500Y-73400500D01*
X100500500Y-66788673D01*
X106761900Y-66788673D01*
X106761900Y-67734373D01*
X106761900Y-67839827D01*
X106781434Y-67912730D01*
X106789194Y-67941692D01*
X106841916Y-68033008D01*
X106841918Y-68033010D01*
X106841920Y-68033013D01*
X111890487Y-73081580D01*
X111890489Y-73081581D01*
X111890491Y-73081583D01*
X111981808Y-73134305D01*
X111981806Y-73134305D01*
X111981810Y-73134306D01*
X111981812Y-73134307D01*
X112083673Y-73161600D01*
X164113299Y-73161600D01*
X164171490Y-73180507D01*
X164183303Y-73190596D01*
X166118104Y-75125397D01*
X166145881Y-75179914D01*
X166147100Y-75195401D01*
X166147100Y-75579673D01*
X166147100Y-75685127D01*
X166163789Y-75747412D01*
X166174394Y-75786992D01*
X166227116Y-75878308D01*
X166227118Y-75878310D01*
X166227120Y-75878313D01*
X168080151Y-77731344D01*
X168107927Y-77785859D01*
X168098356Y-77846291D01*
X168080150Y-77871349D01*
X168025537Y-77925962D01*
X167926985Y-78073454D01*
X167926985Y-78073455D01*
X167859106Y-78237332D01*
X167859106Y-78237334D01*
X167824500Y-78411306D01*
X167824500Y-78588693D01*
X167859106Y-78762665D01*
X167859106Y-78762667D01*
X167926985Y-78926544D01*
X167926985Y-78926545D01*
X168025535Y-79074034D01*
X168025536Y-79074035D01*
X168150965Y-79199464D01*
X168298453Y-79298013D01*
X168298454Y-79298013D01*
X168298455Y-79298014D01*
X168335581Y-79313391D01*
X168462334Y-79365894D01*
X168636309Y-79400500D01*
X168636310Y-79400500D01*
X169363690Y-79400500D01*
X169363691Y-79400500D01*
X169537666Y-79365894D01*
X169610016Y-79335925D01*
X169662616Y-79314139D01*
X169696728Y-79300009D01*
X169701547Y-79298013D01*
X169849035Y-79199464D01*
X169974464Y-79074035D01*
X170073013Y-78926547D01*
X170140894Y-78762666D01*
X170175500Y-78588691D01*
X170175500Y-78411309D01*
X170140894Y-78237334D01*
X170096727Y-78130705D01*
X170073014Y-78073455D01*
X170073014Y-78073454D01*
X169974464Y-77925965D01*
X169849034Y-77800535D01*
X169701544Y-77701985D01*
X169537667Y-77634106D01*
X169537658Y-77634104D01*
X169478212Y-77622278D01*
X169457444Y-77610647D01*
X169435225Y-77602118D01*
X169431229Y-77595965D01*
X169424829Y-77592381D01*
X169401901Y-77550804D01*
X169400500Y-77545575D01*
X169400500Y-77545573D01*
X169389089Y-77502986D01*
X169392292Y-77441888D01*
X169430797Y-77394338D01*
X169465400Y-77380268D01*
X169537666Y-77365894D01*
X169701547Y-77298013D01*
X169849035Y-77199464D01*
X169974464Y-77074035D01*
X170073013Y-76926547D01*
X170140894Y-76762666D01*
X170175500Y-76588691D01*
X170175500Y-76411309D01*
X170140894Y-76237334D01*
X170073013Y-76073453D01*
X170061351Y-76055999D01*
X170044743Y-75997115D01*
X170065920Y-75939711D01*
X170116793Y-75905717D01*
X170143667Y-75902000D01*
X177249229Y-75902000D01*
X177307420Y-75920907D01*
X177343384Y-75970407D01*
X177343384Y-76031593D01*
X177307422Y-76081090D01*
X177250499Y-76122447D01*
X177122447Y-76250499D01*
X177117665Y-76257081D01*
X177016002Y-76397008D01*
X176933788Y-76558362D01*
X176877828Y-76730593D01*
X176849500Y-76909450D01*
X176849500Y-77090549D01*
X176877828Y-77269406D01*
X176933788Y-77441637D01*
X177015557Y-77602118D01*
X177016004Y-77602994D01*
X177122447Y-77749501D01*
X177250499Y-77877553D01*
X177397006Y-77983996D01*
X177558361Y-78066211D01*
X177730591Y-78122171D01*
X177802136Y-78133502D01*
X177909451Y-78150500D01*
X177909454Y-78150500D01*
X178090549Y-78150500D01*
X178179977Y-78136335D01*
X178269409Y-78122171D01*
X178441639Y-78066211D01*
X178602994Y-77983996D01*
X178749501Y-77877553D01*
X178877553Y-77749501D01*
X178983996Y-77602994D01*
X179066211Y-77441639D01*
X179122171Y-77269409D01*
X179150500Y-77090546D01*
X179150500Y-76909454D01*
X179150500Y-76909450D01*
X179122171Y-76730593D01*
X179122171Y-76730591D01*
X179066211Y-76558361D01*
X178983996Y-76397006D01*
X178877553Y-76250499D01*
X178749501Y-76122447D01*
X178692577Y-76081090D01*
X178656616Y-76031593D01*
X178656616Y-75970408D01*
X178692580Y-75920907D01*
X178750771Y-75902000D01*
X179934999Y-75902000D01*
X179993190Y-75920907D01*
X180005003Y-75930996D01*
X184570504Y-80496497D01*
X184574130Y-80503614D01*
X184580593Y-80508310D01*
X184587756Y-80530358D01*
X184598281Y-80551014D01*
X184599500Y-80566501D01*
X184599500Y-80725610D01*
X184580593Y-80783801D01*
X184531093Y-80819765D01*
X184469907Y-80819765D01*
X184467803Y-80819055D01*
X184465997Y-80818423D01*
X184419849Y-80802275D01*
X184419847Y-80802274D01*
X184419844Y-80802274D01*
X184390266Y-80799500D01*
X184390256Y-80799500D01*
X184009744Y-80799500D01*
X184009733Y-80799500D01*
X183980155Y-80802274D01*
X183980147Y-80802276D01*
X183855523Y-80845884D01*
X183749293Y-80924285D01*
X183749285Y-80924293D01*
X183670884Y-81030523D01*
X183627276Y-81155147D01*
X183627274Y-81155155D01*
X183624500Y-81184733D01*
X183624500Y-82490255D01*
X183627235Y-82519425D01*
X183613842Y-82579127D01*
X183567916Y-82619554D01*
X183519425Y-82627235D01*
X183490256Y-82624500D01*
X182184744Y-82624500D01*
X182184733Y-82624500D01*
X182155155Y-82627274D01*
X182155147Y-82627276D01*
X182030523Y-82670884D01*
X181924293Y-82749285D01*
X181924285Y-82749293D01*
X181845884Y-82855523D01*
X181802276Y-82980147D01*
X181802274Y-82980155D01*
X181799500Y-83009733D01*
X181799500Y-83390266D01*
X181802274Y-83419844D01*
X181802274Y-83419847D01*
X181802275Y-83419849D01*
X181805948Y-83430345D01*
X181819055Y-83467803D01*
X181820427Y-83528972D01*
X181785583Y-83579267D01*
X181727831Y-83599475D01*
X181725610Y-83599500D01*
X181075515Y-83599500D01*
X181049892Y-83596127D01*
X181038252Y-83593008D01*
X180916557Y-83560400D01*
X180758443Y-83560400D01*
X180605716Y-83601323D01*
X180468784Y-83680380D01*
X180356980Y-83792184D01*
X180277923Y-83929116D01*
X180237000Y-84081843D01*
X180237000Y-84239957D01*
X180277923Y-84392684D01*
X180356980Y-84529616D01*
X180468784Y-84641420D01*
X180605716Y-84720477D01*
X180758443Y-84761400D01*
X180758445Y-84761400D01*
X180916555Y-84761400D01*
X180916557Y-84761400D01*
X181069284Y-84720477D01*
X181206216Y-84641420D01*
X181318020Y-84529616D01*
X181363986Y-84449998D01*
X181409455Y-84409059D01*
X181449722Y-84400500D01*
X181837254Y-84400500D01*
X181895445Y-84419407D01*
X181916909Y-84440712D01*
X181924284Y-84450705D01*
X181924285Y-84450706D01*
X181924289Y-84450711D01*
X181924292Y-84450713D01*
X181924293Y-84450714D01*
X182030523Y-84529115D01*
X182030524Y-84529115D01*
X182030525Y-84529116D01*
X182155151Y-84572725D01*
X182182441Y-84575284D01*
X182184733Y-84575499D01*
X182184738Y-84575500D01*
X182184744Y-84575500D01*
X183490262Y-84575500D01*
X183490265Y-84575499D01*
X183519849Y-84572725D01*
X183644475Y-84529116D01*
X183750711Y-84450711D01*
X183829116Y-84344475D01*
X183872725Y-84219849D01*
X183875500Y-84190256D01*
X183875500Y-83809744D01*
X183875500Y-83809738D01*
X183875499Y-83809733D01*
X183872725Y-83780155D01*
X183872725Y-83780151D01*
X183829116Y-83655525D01*
X183829115Y-83655523D01*
X183825648Y-83648962D01*
X183827863Y-83647791D01*
X183812182Y-83600761D01*
X183827591Y-83552064D01*
X183825648Y-83551038D01*
X183829115Y-83544476D01*
X183829114Y-83544476D01*
X183829116Y-83544475D01*
X183872725Y-83419849D01*
X183875500Y-83390256D01*
X183875500Y-83009744D01*
X183875500Y-83009738D01*
X183875499Y-83009736D01*
X183872765Y-82980577D01*
X183877630Y-82958883D01*
X183878599Y-82936667D01*
X183884189Y-82929637D01*
X183886155Y-82920875D01*
X183902843Y-82906183D01*
X183916685Y-82888781D01*
X183924972Y-82886703D01*
X183932081Y-82880446D01*
X183975644Y-82872426D01*
X183979816Y-82872607D01*
X183980151Y-82872725D01*
X184009744Y-82875500D01*
X184046155Y-82875500D01*
X184048311Y-82875594D01*
X184075039Y-82885585D01*
X184102190Y-82894407D01*
X184104954Y-82896767D01*
X184105623Y-82897018D01*
X184106112Y-82897757D01*
X184114002Y-82904496D01*
X184421886Y-83212379D01*
X184421891Y-83212383D01*
X184513208Y-83265105D01*
X184513206Y-83265105D01*
X184513210Y-83265106D01*
X184513212Y-83265107D01*
X184615073Y-83292400D01*
X190025500Y-83292400D01*
X190083691Y-83311307D01*
X190119655Y-83360807D01*
X190123956Y-83387970D01*
X190124174Y-83387960D01*
X190124283Y-83387950D01*
X190124283Y-83387955D01*
X190124392Y-83387950D01*
X190124500Y-83390266D01*
X190127274Y-83419844D01*
X190127276Y-83419852D01*
X190170882Y-83544471D01*
X190174351Y-83551034D01*
X190172141Y-83552201D01*
X190187817Y-83599280D01*
X190172399Y-83647934D01*
X190174351Y-83648966D01*
X190170882Y-83655528D01*
X190127276Y-83780147D01*
X190127274Y-83780155D01*
X190124500Y-83809733D01*
X190124500Y-84190266D01*
X190127274Y-84219844D01*
X190127276Y-84219852D01*
X190170882Y-84344471D01*
X190174351Y-84351034D01*
X190172141Y-84352201D01*
X190187817Y-84399280D01*
X190172399Y-84447934D01*
X190174351Y-84448966D01*
X190170882Y-84455528D01*
X190127276Y-84580147D01*
X190127274Y-84580155D01*
X190124500Y-84609733D01*
X190124500Y-84990266D01*
X190127274Y-85019844D01*
X190127276Y-85019852D01*
X190170884Y-85144476D01*
X190249285Y-85250706D01*
X190249289Y-85250711D01*
X190249292Y-85250713D01*
X190249293Y-85250714D01*
X190355523Y-85329115D01*
X190355524Y-85329115D01*
X190355525Y-85329116D01*
X190480151Y-85372725D01*
X190507441Y-85375284D01*
X190509733Y-85375499D01*
X190509738Y-85375500D01*
X190509744Y-85375500D01*
X191815262Y-85375500D01*
X191815265Y-85375499D01*
X191844849Y-85372725D01*
X191969475Y-85329116D01*
X192075711Y-85250711D01*
X192154116Y-85144475D01*
X192197725Y-85019849D01*
X192200500Y-84990256D01*
X192200500Y-84609744D01*
X192200500Y-84609738D01*
X192200499Y-84609733D01*
X192200006Y-84604480D01*
X192197725Y-84580151D01*
X192154116Y-84455525D01*
X192154115Y-84455523D01*
X192150648Y-84448962D01*
X192152863Y-84447791D01*
X192137182Y-84400761D01*
X192152591Y-84352064D01*
X192150648Y-84351038D01*
X192154115Y-84344476D01*
X192154114Y-84344476D01*
X192154116Y-84344475D01*
X192197725Y-84219849D01*
X192200500Y-84190256D01*
X192200500Y-83809744D01*
X192200500Y-83809738D01*
X192200499Y-83809733D01*
X192197725Y-83780155D01*
X192197725Y-83780151D01*
X192154116Y-83655525D01*
X192154115Y-83655523D01*
X192150648Y-83648962D01*
X192152863Y-83647791D01*
X192137182Y-83600761D01*
X192152591Y-83552064D01*
X192150648Y-83551038D01*
X192154115Y-83544476D01*
X192154114Y-83544476D01*
X192154116Y-83544475D01*
X192197725Y-83419849D01*
X192200500Y-83390256D01*
X192200500Y-83009744D01*
X192200500Y-83009738D01*
X192200499Y-83009733D01*
X192198255Y-82985803D01*
X192197725Y-82980151D01*
X192154116Y-82855525D01*
X192134625Y-82829116D01*
X192075714Y-82749293D01*
X192075713Y-82749292D01*
X192075711Y-82749289D01*
X192070282Y-82745282D01*
X191969476Y-82670884D01*
X191844852Y-82627276D01*
X191844851Y-82627275D01*
X191844849Y-82627275D01*
X191844847Y-82627274D01*
X191844844Y-82627274D01*
X191815266Y-82624500D01*
X191815256Y-82624500D01*
X191184001Y-82624500D01*
X191125810Y-82605593D01*
X191089846Y-82556093D01*
X191089846Y-82494907D01*
X191113997Y-82455496D01*
X191506497Y-82062996D01*
X191561014Y-82035219D01*
X191576501Y-82034000D01*
X192877658Y-82034000D01*
X192935849Y-82052907D01*
X192971813Y-82102407D01*
X192975952Y-82144803D01*
X192974500Y-82156890D01*
X192974500Y-82918106D01*
X192985123Y-83006565D01*
X193040637Y-83147339D01*
X193040638Y-83147341D01*
X193040639Y-83147342D01*
X193132078Y-83267922D01*
X193252658Y-83359361D01*
X193252659Y-83359361D01*
X193252660Y-83359362D01*
X193279890Y-83370100D01*
X193393436Y-83414877D01*
X193481898Y-83425500D01*
X193500500Y-83425500D01*
X193558691Y-83444407D01*
X193594655Y-83493907D01*
X193599500Y-83524500D01*
X193599500Y-83757052D01*
X193580593Y-83815243D01*
X193531093Y-83851207D01*
X193474878Y-83852679D01*
X193446993Y-83845207D01*
X193412257Y-83835900D01*
X193254143Y-83835900D01*
X193101416Y-83876823D01*
X192964484Y-83955880D01*
X192852680Y-84067684D01*
X192773623Y-84204616D01*
X192732700Y-84357343D01*
X192732700Y-84515457D01*
X192773623Y-84668184D01*
X192773624Y-84668185D01*
X192773623Y-84668185D01*
X192797132Y-84708904D01*
X192809853Y-84768753D01*
X192784965Y-84824648D01*
X192781399Y-84828407D01*
X191814303Y-85795504D01*
X191759786Y-85823281D01*
X191744299Y-85824500D01*
X190509733Y-85824500D01*
X190480155Y-85827274D01*
X190480147Y-85827276D01*
X190355523Y-85870884D01*
X190249293Y-85949285D01*
X190249285Y-85949293D01*
X190170884Y-86055523D01*
X190127276Y-86180147D01*
X190127274Y-86180155D01*
X190124500Y-86209733D01*
X190124500Y-86329299D01*
X190105593Y-86387490D01*
X190056093Y-86423454D01*
X189994907Y-86423454D01*
X189955497Y-86399303D01*
X189884113Y-86327920D01*
X189884108Y-86327916D01*
X189792791Y-86275194D01*
X189792793Y-86275194D01*
X189750320Y-86263814D01*
X189690927Y-86247900D01*
X189690925Y-86247900D01*
X184379500Y-86247900D01*
X184321309Y-86228993D01*
X184285345Y-86179493D01*
X184280500Y-86148900D01*
X184280500Y-86019674D01*
X184280500Y-86019673D01*
X184253207Y-85917813D01*
X184200480Y-85826487D01*
X184164249Y-85790256D01*
X184125913Y-85751919D01*
X184125913Y-85751920D01*
X183904496Y-85530503D01*
X183876719Y-85475986D01*
X183875500Y-85460499D01*
X183875500Y-85409738D01*
X183875499Y-85409733D01*
X183873949Y-85393207D01*
X183872725Y-85380151D01*
X183829116Y-85255525D01*
X183825565Y-85250714D01*
X183750714Y-85149293D01*
X183750713Y-85149292D01*
X183750711Y-85149289D01*
X183744190Y-85144476D01*
X183644476Y-85070884D01*
X183519852Y-85027276D01*
X183519851Y-85027275D01*
X183519849Y-85027275D01*
X183519847Y-85027274D01*
X183519844Y-85027274D01*
X183490266Y-85024500D01*
X183490256Y-85024500D01*
X182184744Y-85024500D01*
X182184733Y-85024500D01*
X182155155Y-85027274D01*
X182155147Y-85027276D01*
X182030523Y-85070884D01*
X181924293Y-85149285D01*
X181924285Y-85149293D01*
X181845884Y-85255523D01*
X181802276Y-85380147D01*
X181802274Y-85380155D01*
X181799500Y-85409733D01*
X181799500Y-85790266D01*
X181802274Y-85819844D01*
X181802276Y-85819852D01*
X181845884Y-85944476D01*
X181924285Y-86050706D01*
X181924289Y-86050711D01*
X181924292Y-86050713D01*
X181924293Y-86050714D01*
X182030523Y-86129115D01*
X182030524Y-86129115D01*
X182030525Y-86129116D01*
X182155151Y-86172725D01*
X182182441Y-86175284D01*
X182184733Y-86175499D01*
X182184738Y-86175500D01*
X182184744Y-86175500D01*
X183375699Y-86175500D01*
X183383296Y-86177968D01*
X183391186Y-86176719D01*
X183411841Y-86187243D01*
X183433890Y-86194407D01*
X183445703Y-86204496D01*
X183450504Y-86209297D01*
X183478281Y-86263814D01*
X183479500Y-86279301D01*
X183479500Y-86525500D01*
X183460593Y-86583691D01*
X183411093Y-86619655D01*
X183380500Y-86624500D01*
X182184733Y-86624500D01*
X182155155Y-86627274D01*
X182155147Y-86627276D01*
X182030523Y-86670884D01*
X181924293Y-86749285D01*
X181924287Y-86749291D01*
X181852256Y-86846889D01*
X181802488Y-86882481D01*
X181741304Y-86882023D01*
X181702597Y-86858104D01*
X178429496Y-83585003D01*
X178401719Y-83530486D01*
X178400500Y-83514999D01*
X178400500Y-83147839D01*
X178419407Y-83089648D01*
X178454552Y-83059631D01*
X178602994Y-82983996D01*
X178749501Y-82877553D01*
X178877553Y-82749501D01*
X178983996Y-82602994D01*
X179066211Y-82441639D01*
X179122171Y-82269409D01*
X179141907Y-82144803D01*
X179150500Y-82090549D01*
X179150500Y-81909450D01*
X179123223Y-81737232D01*
X179122171Y-81730591D01*
X179066211Y-81558361D01*
X178983996Y-81397006D01*
X178877553Y-81250499D01*
X178749501Y-81122447D01*
X178602994Y-81016004D01*
X178602993Y-81016003D01*
X178602991Y-81016002D01*
X178441637Y-80933788D01*
X178269406Y-80877828D01*
X178090549Y-80849500D01*
X178090546Y-80849500D01*
X177909454Y-80849500D01*
X177909451Y-80849500D01*
X177730593Y-80877828D01*
X177558362Y-80933788D01*
X177397008Y-81016002D01*
X177323752Y-81069225D01*
X177250499Y-81122447D01*
X177122447Y-81250499D01*
X177115331Y-81260294D01*
X177016002Y-81397008D01*
X176933788Y-81558362D01*
X176877828Y-81730593D01*
X176849500Y-81909450D01*
X176849500Y-82090549D01*
X176877828Y-82269406D01*
X176933788Y-82441637D01*
X176992106Y-82556093D01*
X177016004Y-82602994D01*
X177122447Y-82749501D01*
X177250499Y-82877553D01*
X177397006Y-82983996D01*
X177545446Y-83059630D01*
X177588710Y-83102894D01*
X177599500Y-83147839D01*
X177599500Y-83669173D01*
X177599500Y-83774627D01*
X177610383Y-83815243D01*
X177626794Y-83876492D01*
X177679516Y-83967808D01*
X177679517Y-83967809D01*
X177679518Y-83967810D01*
X177679520Y-83967813D01*
X179501963Y-85790256D01*
X181317277Y-87605570D01*
X181345054Y-87660087D01*
X181335483Y-87720519D01*
X181292218Y-87763784D01*
X181231786Y-87773355D01*
X181221651Y-87771201D01*
X181192141Y-87763294D01*
X181157827Y-87754100D01*
X181157826Y-87754100D01*
X179251044Y-87754100D01*
X179192853Y-87735193D01*
X179181041Y-87725104D01*
X179130018Y-87674082D01*
X179130016Y-87674080D01*
X178993084Y-87595023D01*
X178840357Y-87554100D01*
X178682243Y-87554100D01*
X178529516Y-87595023D01*
X178392584Y-87674080D01*
X178280780Y-87785884D01*
X178201723Y-87922816D01*
X178160800Y-88075543D01*
X178160800Y-88233657D01*
X178201723Y-88386384D01*
X178280780Y-88523316D01*
X178392584Y-88635120D01*
X178529516Y-88714177D01*
X178682243Y-88755100D01*
X178682245Y-88755100D01*
X178840355Y-88755100D01*
X178840357Y-88755100D01*
X178993084Y-88714177D01*
X179130016Y-88635120D01*
X179155529Y-88609606D01*
X179181041Y-88584096D01*
X179235558Y-88556319D01*
X179251044Y-88555100D01*
X180898199Y-88555100D01*
X180956390Y-88574007D01*
X180968203Y-88584096D01*
X181430020Y-89045913D01*
X181430019Y-89045913D01*
X181469319Y-89085212D01*
X181504587Y-89120480D01*
X181595913Y-89173207D01*
X181697773Y-89200500D01*
X181837254Y-89200500D01*
X181895445Y-89219407D01*
X181916909Y-89240712D01*
X181924284Y-89250705D01*
X181924285Y-89250706D01*
X181924289Y-89250711D01*
X181924292Y-89250713D01*
X181924293Y-89250714D01*
X182030523Y-89329115D01*
X182030524Y-89329115D01*
X182030525Y-89329116D01*
X182155151Y-89372725D01*
X182182441Y-89375284D01*
X182184733Y-89375499D01*
X182184738Y-89375500D01*
X182184744Y-89375500D01*
X182819099Y-89375500D01*
X182877290Y-89394407D01*
X182913254Y-89443907D01*
X182913254Y-89505093D01*
X182889103Y-89544504D01*
X181559736Y-90873869D01*
X181505219Y-90901646D01*
X181444787Y-90892075D01*
X181410849Y-90863685D01*
X181367925Y-90807082D01*
X181367924Y-90807081D01*
X181367922Y-90807078D01*
X181247342Y-90715639D01*
X181247341Y-90715638D01*
X181247339Y-90715637D01*
X181106565Y-90660123D01*
X181018106Y-90649500D01*
X181018102Y-90649500D01*
X179981898Y-90649500D01*
X179981893Y-90649500D01*
X179893434Y-90660123D01*
X179752660Y-90715637D01*
X179752656Y-90715640D01*
X179632081Y-90807075D01*
X179632075Y-90807081D01*
X179540640Y-90927656D01*
X179540637Y-90927660D01*
X179485123Y-91068434D01*
X179474500Y-91156893D01*
X179474500Y-91918106D01*
X179485123Y-92006565D01*
X179540637Y-92147339D01*
X179540638Y-92147341D01*
X179540639Y-92147342D01*
X179632078Y-92267922D01*
X179752658Y-92359361D01*
X179752659Y-92359361D01*
X179752660Y-92359362D01*
X179823047Y-92387119D01*
X179893436Y-92414877D01*
X179981898Y-92425500D01*
X179981900Y-92425500D01*
X181018100Y-92425500D01*
X181018102Y-92425500D01*
X181106564Y-92414877D01*
X181247342Y-92359361D01*
X181367922Y-92267922D01*
X181410849Y-92211314D01*
X181461074Y-92176372D01*
X181522246Y-92177625D01*
X181559736Y-92201129D01*
X186570504Y-97211896D01*
X186598281Y-97266413D01*
X186599500Y-97281900D01*
X186599500Y-100412565D01*
X186580593Y-100470756D01*
X186531093Y-100506720D01*
X186524493Y-100508185D01*
X186524590Y-100508567D01*
X186518437Y-100510122D01*
X186377660Y-100565637D01*
X186377656Y-100565640D01*
X186257081Y-100657075D01*
X186257075Y-100657081D01*
X186165640Y-100777656D01*
X186165637Y-100777660D01*
X186110123Y-100918434D01*
X186099500Y-101006893D01*
X186099500Y-101993106D01*
X186110123Y-102081565D01*
X186165637Y-102222339D01*
X186165638Y-102222341D01*
X186165639Y-102222342D01*
X186257078Y-102342922D01*
X186377658Y-102434361D01*
X186377659Y-102434361D01*
X186377660Y-102434362D01*
X186448047Y-102462119D01*
X186518436Y-102489877D01*
X186606898Y-102500500D01*
X186606900Y-102500500D01*
X187393100Y-102500500D01*
X187451291Y-102519407D01*
X187463104Y-102529496D01*
X189679518Y-104745910D01*
X189679520Y-104745913D01*
X189754087Y-104820480D01*
X189754089Y-104820481D01*
X189831214Y-104865010D01*
X189831221Y-104865013D01*
X189845413Y-104873207D01*
X189947273Y-104900501D01*
X189947275Y-104900501D01*
X190058790Y-104900501D01*
X190058806Y-104900500D01*
X191100501Y-104900500D01*
X191158692Y-104919407D01*
X191194656Y-104968907D01*
X191199501Y-104999500D01*
X191199501Y-105044863D01*
X191202414Y-105069990D01*
X191215497Y-105099619D01*
X191247794Y-105172765D01*
X191327235Y-105252206D01*
X191430009Y-105297585D01*
X191455135Y-105300500D01*
X192544864Y-105300499D01*
X192569991Y-105297585D01*
X192672765Y-105252206D01*
X192752206Y-105172765D01*
X192797585Y-105069991D01*
X192800500Y-105044865D01*
X192800499Y-104424899D01*
X192819406Y-104366709D01*
X192868906Y-104330745D01*
X192930092Y-104330745D01*
X192969502Y-104354896D01*
X193435086Y-104820479D01*
X193435091Y-104820483D01*
X193526408Y-104873205D01*
X193526406Y-104873205D01*
X193526410Y-104873206D01*
X193526412Y-104873207D01*
X193628273Y-104900500D01*
X194100501Y-104900500D01*
X194158692Y-104919407D01*
X194194656Y-104968907D01*
X194199501Y-104999500D01*
X194199501Y-105044863D01*
X194202414Y-105069990D01*
X194215497Y-105099619D01*
X194247794Y-105172765D01*
X194327235Y-105252206D01*
X194430009Y-105297585D01*
X194455135Y-105300500D01*
X195544864Y-105300499D01*
X195569991Y-105297585D01*
X195672765Y-105252206D01*
X195752206Y-105172765D01*
X195765464Y-105142737D01*
X195806263Y-105097143D01*
X195866072Y-105084237D01*
X195905528Y-105096989D01*
X195910082Y-105099618D01*
X195910084Y-105099620D01*
X196047016Y-105178677D01*
X196199743Y-105219600D01*
X196199745Y-105219600D01*
X196357855Y-105219600D01*
X196357857Y-105219600D01*
X196510584Y-105178677D01*
X196647516Y-105099620D01*
X196759320Y-104987816D01*
X196838377Y-104850884D01*
X196879300Y-104698157D01*
X196879300Y-104626001D01*
X196898207Y-104567810D01*
X196908296Y-104555997D01*
X197336497Y-104127796D01*
X197391014Y-104100019D01*
X197406501Y-104098800D01*
X199991399Y-104098800D01*
X199998996Y-104101268D01*
X200006886Y-104100019D01*
X200027541Y-104110543D01*
X200049590Y-104117707D01*
X200061403Y-104127796D01*
X200170504Y-104236897D01*
X200198281Y-104291414D01*
X200199500Y-104306901D01*
X200199500Y-105044860D01*
X200199501Y-105044863D01*
X200202414Y-105069990D01*
X200215497Y-105099619D01*
X200247794Y-105172765D01*
X200327235Y-105252206D01*
X200430009Y-105297585D01*
X200455135Y-105300500D01*
X201544864Y-105300499D01*
X201569991Y-105297585D01*
X201672765Y-105252206D01*
X201752206Y-105172765D01*
X201797585Y-105069991D01*
X201800500Y-105044865D01*
X201800499Y-104716179D01*
X201819406Y-104657991D01*
X201868906Y-104622026D01*
X201930091Y-104622026D01*
X201948999Y-104630445D01*
X201974516Y-104645177D01*
X202127243Y-104686100D01*
X202127245Y-104686100D01*
X202285355Y-104686100D01*
X202285357Y-104686100D01*
X202438084Y-104645177D01*
X202575016Y-104566120D01*
X202575023Y-104566112D01*
X202575738Y-104565565D01*
X202576352Y-104565347D01*
X202580635Y-104562875D01*
X202581093Y-104563668D01*
X202633414Y-104545141D01*
X202692080Y-104562518D01*
X202706009Y-104574103D01*
X202952386Y-104820479D01*
X202952391Y-104820483D01*
X203043708Y-104873205D01*
X203043709Y-104873205D01*
X203043712Y-104873207D01*
X203126124Y-104895288D01*
X203177438Y-104928612D01*
X203199365Y-104985733D01*
X203199501Y-104990915D01*
X203199501Y-105044863D01*
X203202414Y-105069990D01*
X203215497Y-105099619D01*
X203247794Y-105172765D01*
X203327235Y-105252206D01*
X203430009Y-105297585D01*
X203455135Y-105300500D01*
X204544864Y-105300499D01*
X204569991Y-105297585D01*
X204672765Y-105252206D01*
X204752206Y-105172765D01*
X204797585Y-105069991D01*
X204800500Y-105044865D01*
X204800499Y-103955136D01*
X204797585Y-103930009D01*
X204752206Y-103827235D01*
X204672765Y-103747794D01*
X204569991Y-103702415D01*
X204569990Y-103702414D01*
X204569988Y-103702414D01*
X204544868Y-103699500D01*
X203455139Y-103699500D01*
X203455136Y-103699501D01*
X203430009Y-103702414D01*
X203327235Y-103747794D01*
X203247794Y-103827235D01*
X203247793Y-103827236D01*
X203241308Y-103833722D01*
X203238904Y-103831318D01*
X203203274Y-103858717D01*
X203142111Y-103860382D01*
X203100128Y-103835435D01*
X203029813Y-103765120D01*
X203029810Y-103765118D01*
X203029808Y-103765116D01*
X202938491Y-103712394D01*
X202938493Y-103712394D01*
X202890373Y-103699501D01*
X202836627Y-103685100D01*
X202836625Y-103685100D01*
X202696044Y-103685100D01*
X202637853Y-103666193D01*
X202626041Y-103656104D01*
X202575018Y-103605082D01*
X202575016Y-103605080D01*
X202438084Y-103526023D01*
X202285357Y-103485100D01*
X202127243Y-103485100D01*
X201974516Y-103526023D01*
X201837581Y-103605082D01*
X201736052Y-103706611D01*
X201681536Y-103734388D01*
X201626062Y-103727172D01*
X201569991Y-103702415D01*
X201569988Y-103702414D01*
X201544869Y-103699500D01*
X201544865Y-103699500D01*
X200806901Y-103699500D01*
X200748710Y-103680593D01*
X200736898Y-103670504D01*
X200444213Y-103377820D01*
X200444208Y-103377816D01*
X200352891Y-103325094D01*
X200352893Y-103325094D01*
X200313370Y-103314504D01*
X200251027Y-103297800D01*
X197252327Y-103297800D01*
X197146873Y-103297800D01*
X197084529Y-103314504D01*
X197045007Y-103325094D01*
X196953691Y-103377816D01*
X196341903Y-103989604D01*
X196287386Y-104017381D01*
X196271899Y-104018600D01*
X196199743Y-104018600D01*
X196123379Y-104039061D01*
X196047014Y-104059523D01*
X195948998Y-104116113D01*
X195889150Y-104128834D01*
X195833255Y-104103947D01*
X195802662Y-104050959D01*
X195800499Y-104030376D01*
X195800499Y-103955139D01*
X195800499Y-103955136D01*
X195797585Y-103930009D01*
X195752206Y-103827235D01*
X195672765Y-103747794D01*
X195569991Y-103702415D01*
X195569990Y-103702414D01*
X195569988Y-103702414D01*
X195544868Y-103699500D01*
X194455139Y-103699500D01*
X194455136Y-103699501D01*
X194430009Y-103702414D01*
X194327235Y-103747794D01*
X194247794Y-103827235D01*
X194202414Y-103930011D01*
X194199500Y-103955130D01*
X194199500Y-104000500D01*
X194180593Y-104058691D01*
X194131093Y-104094655D01*
X194100500Y-104099500D01*
X193887901Y-104099500D01*
X193829710Y-104080593D01*
X193817897Y-104070504D01*
X193326842Y-103579449D01*
X192792513Y-103045120D01*
X192792510Y-103045118D01*
X192792509Y-103045117D01*
X192792508Y-103045116D01*
X192701191Y-102992394D01*
X192701193Y-102992394D01*
X192661670Y-102981804D01*
X192599327Y-102965100D01*
X192599325Y-102965100D01*
X192560444Y-102965100D01*
X192502253Y-102946193D01*
X192490441Y-102936104D01*
X192439418Y-102885082D01*
X192439416Y-102885080D01*
X192302484Y-102806023D01*
X192149757Y-102765100D01*
X191991643Y-102765100D01*
X191838916Y-102806023D01*
X191701984Y-102885080D01*
X191590180Y-102996884D01*
X191511123Y-103133816D01*
X191470200Y-103286543D01*
X191470200Y-103444657D01*
X191477300Y-103471155D01*
X191506317Y-103579449D01*
X191503114Y-103640551D01*
X191464609Y-103688101D01*
X191436681Y-103700599D01*
X191430014Y-103702412D01*
X191327235Y-103747794D01*
X191247794Y-103827235D01*
X191202414Y-103930011D01*
X191199500Y-103955130D01*
X191199500Y-104000500D01*
X191180593Y-104058691D01*
X191131093Y-104094655D01*
X191100500Y-104099500D01*
X190206900Y-104099500D01*
X190148709Y-104080593D01*
X190136896Y-104070504D01*
X188735896Y-102669504D01*
X188708119Y-102614987D01*
X188717690Y-102554555D01*
X188760955Y-102511290D01*
X188805900Y-102500500D01*
X189393093Y-102500500D01*
X189393102Y-102500500D01*
X189411464Y-102498294D01*
X189471492Y-102510128D01*
X189472768Y-102510852D01*
X189473527Y-102511290D01*
X189497112Y-102524907D01*
X189598973Y-102552200D01*
X189704427Y-102552200D01*
X206643099Y-102552200D01*
X206650696Y-102554668D01*
X206658586Y-102553419D01*
X206679241Y-102563943D01*
X206701290Y-102571107D01*
X206713103Y-102581196D01*
X206754503Y-102622596D01*
X206782280Y-102677113D01*
X206772709Y-102737545D01*
X206729444Y-102780810D01*
X206684499Y-102791600D01*
X206564443Y-102791600D01*
X206411716Y-102832523D01*
X206274784Y-102911580D01*
X206162980Y-103023384D01*
X206083923Y-103160316D01*
X206043000Y-103313043D01*
X206043000Y-103471157D01*
X206083923Y-103623884D01*
X206162980Y-103760816D01*
X206194207Y-103792043D01*
X206221983Y-103846558D01*
X206214767Y-103902032D01*
X206202416Y-103930003D01*
X206202414Y-103930010D01*
X206199500Y-103955130D01*
X206199500Y-105044860D01*
X206199501Y-105044863D01*
X206202414Y-105069990D01*
X206215497Y-105099619D01*
X206247794Y-105172765D01*
X206327235Y-105252206D01*
X206430009Y-105297585D01*
X206455135Y-105300500D01*
X207544864Y-105300499D01*
X207569991Y-105297585D01*
X207672765Y-105252206D01*
X207752206Y-105172765D01*
X207797585Y-105069991D01*
X207800500Y-105044865D01*
X207800499Y-103955136D01*
X207797585Y-103930009D01*
X207797583Y-103930004D01*
X207796536Y-103926153D01*
X207799505Y-103865039D01*
X207837828Y-103817342D01*
X207896867Y-103801281D01*
X207954072Y-103822989D01*
X207962063Y-103830156D01*
X208877818Y-104745910D01*
X208877820Y-104745913D01*
X208952387Y-104820480D01*
X208952389Y-104820481D01*
X209020835Y-104859999D01*
X209020838Y-104860000D01*
X209029521Y-104865013D01*
X209043713Y-104873207D01*
X209128994Y-104896058D01*
X209131812Y-104896998D01*
X209154143Y-104913485D01*
X209177439Y-104928613D01*
X209178547Y-104931502D01*
X209181036Y-104933339D01*
X209189413Y-104959809D01*
X209199365Y-104985735D01*
X209199501Y-104990916D01*
X209199501Y-105044863D01*
X209202414Y-105069990D01*
X209215497Y-105099619D01*
X209247794Y-105172765D01*
X209327235Y-105252206D01*
X209430009Y-105297585D01*
X209455135Y-105300500D01*
X210544864Y-105300499D01*
X210569991Y-105297585D01*
X210672765Y-105252206D01*
X210752206Y-105172765D01*
X210797585Y-105069991D01*
X210800500Y-105044865D01*
X210800499Y-103955136D01*
X210797585Y-103930009D01*
X210752206Y-103827235D01*
X210672765Y-103747794D01*
X210569991Y-103702415D01*
X210569990Y-103702414D01*
X210569988Y-103702414D01*
X210544868Y-103699500D01*
X209455139Y-103699500D01*
X209455136Y-103699501D01*
X209430009Y-103702414D01*
X209327235Y-103747794D01*
X209247794Y-103827235D01*
X209247793Y-103827236D01*
X209241308Y-103833722D01*
X209238900Y-103831314D01*
X209203312Y-103858704D01*
X209142150Y-103860394D01*
X209100127Y-103835434D01*
X208204845Y-102940152D01*
X208138727Y-102874034D01*
X212899500Y-102874034D01*
X212899500Y-103125965D01*
X212938908Y-103374780D01*
X213016759Y-103614379D01*
X213128519Y-103833722D01*
X213131130Y-103838845D01*
X213279207Y-104042656D01*
X213457344Y-104220793D01*
X213661155Y-104368870D01*
X213885621Y-104483241D01*
X214125215Y-104561090D01*
X214125216Y-104561090D01*
X214125219Y-104561091D01*
X214374035Y-104600500D01*
X214374038Y-104600500D01*
X214625965Y-104600500D01*
X214874780Y-104561091D01*
X214874781Y-104561090D01*
X214874785Y-104561090D01*
X215114379Y-104483241D01*
X215338845Y-104368870D01*
X215542656Y-104220793D01*
X215720793Y-104042656D01*
X215868870Y-103838845D01*
X215983241Y-103614379D01*
X216061090Y-103374785D01*
X216061091Y-103374780D01*
X216100500Y-103125965D01*
X216100500Y-102874034D01*
X216061091Y-102625219D01*
X216060239Y-102622596D01*
X215983241Y-102385621D01*
X215868870Y-102161155D01*
X215720793Y-101957344D01*
X215542656Y-101779207D01*
X215338845Y-101631130D01*
X215338844Y-101631129D01*
X215338842Y-101631128D01*
X215114379Y-101516759D01*
X214874780Y-101438908D01*
X214625965Y-101399500D01*
X214625962Y-101399500D01*
X214374038Y-101399500D01*
X214374035Y-101399500D01*
X214125219Y-101438908D01*
X213885620Y-101516759D01*
X213661157Y-101631128D01*
X213457345Y-101779206D01*
X213279206Y-101957345D01*
X213131128Y-102161157D01*
X213016759Y-102385620D01*
X212938908Y-102625219D01*
X212899500Y-102874034D01*
X208138727Y-102874034D01*
X207699052Y-102434359D01*
X207095913Y-101831220D01*
X207095910Y-101831218D01*
X207095909Y-101831217D01*
X207095908Y-101831216D01*
X207004591Y-101778494D01*
X207004593Y-101778494D01*
X206965070Y-101767904D01*
X206902727Y-101751200D01*
X206902725Y-101751200D01*
X194372978Y-101751200D01*
X194314787Y-101732293D01*
X194278823Y-101682793D01*
X194278823Y-101621607D01*
X194314787Y-101572107D01*
X194317976Y-101569885D01*
X194373023Y-101533102D01*
X194414669Y-101505276D01*
X194505276Y-101414669D01*
X194576465Y-101308127D01*
X194625501Y-101189744D01*
X194650500Y-101064069D01*
X194650500Y-100935931D01*
X194625501Y-100810256D01*
X194576465Y-100691873D01*
X194576463Y-100691870D01*
X194576461Y-100691866D01*
X194547717Y-100648848D01*
X194505276Y-100585331D01*
X194414669Y-100494724D01*
X194340918Y-100445445D01*
X194308133Y-100423538D01*
X194308125Y-100423534D01*
X194189747Y-100374500D01*
X194189745Y-100374499D01*
X194189744Y-100374499D01*
X194064069Y-100349500D01*
X193935931Y-100349500D01*
X193935930Y-100349500D01*
X193873093Y-100361999D01*
X193810256Y-100374499D01*
X193810255Y-100374499D01*
X193810252Y-100374500D01*
X193691874Y-100423534D01*
X193691866Y-100423538D01*
X193585331Y-100494724D01*
X193585327Y-100494727D01*
X193494727Y-100585327D01*
X193494724Y-100585331D01*
X193423538Y-100691866D01*
X193423534Y-100691874D01*
X193374500Y-100810252D01*
X193374499Y-100810255D01*
X193374499Y-100810256D01*
X193349500Y-100935931D01*
X193349500Y-101064069D01*
X193373327Y-101183853D01*
X193374499Y-101189742D01*
X193374500Y-101189747D01*
X193423534Y-101308125D01*
X193423538Y-101308133D01*
X193464359Y-101369224D01*
X193494724Y-101414669D01*
X193494727Y-101414672D01*
X193585331Y-101505276D01*
X193682024Y-101569885D01*
X193719903Y-101617935D01*
X193722305Y-101679073D01*
X193688312Y-101729947D01*
X193630908Y-101751124D01*
X193627022Y-101751200D01*
X193149500Y-101751200D01*
X193091309Y-101732293D01*
X193055345Y-101682793D01*
X193050500Y-101652200D01*
X193050499Y-100105139D01*
X193050499Y-100105136D01*
X193047585Y-100080009D01*
X193002206Y-99977235D01*
X192922765Y-99897794D01*
X192819991Y-99852415D01*
X192819990Y-99852414D01*
X192819988Y-99852414D01*
X192794860Y-99849499D01*
X192793772Y-99849436D01*
X192793541Y-99849346D01*
X192792024Y-99849170D01*
X192792070Y-99848771D01*
X192736773Y-99827194D01*
X192703733Y-99775696D01*
X192700500Y-99750602D01*
X192700500Y-99397644D01*
X198199500Y-99397644D01*
X198199500Y-99602355D01*
X198231521Y-99804529D01*
X198294780Y-99999219D01*
X198387712Y-100181609D01*
X198387714Y-100181613D01*
X198508029Y-100347213D01*
X198508031Y-100347215D01*
X198508034Y-100347219D01*
X198652781Y-100491966D01*
X198652784Y-100491968D01*
X198652786Y-100491970D01*
X198818386Y-100612285D01*
X198818390Y-100612287D01*
X199000781Y-100705220D01*
X199195466Y-100768477D01*
X199195467Y-100768477D01*
X199195470Y-100768478D01*
X199397645Y-100800500D01*
X199397648Y-100800500D01*
X199602355Y-100800500D01*
X199804529Y-100768478D01*
X199804530Y-100768477D01*
X199804534Y-100768477D01*
X199999219Y-100705220D01*
X200181610Y-100612287D01*
X200347219Y-100491966D01*
X200491966Y-100347219D01*
X200612287Y-100181610D01*
X200705220Y-99999219D01*
X200768477Y-99804534D01*
X200800500Y-99602352D01*
X200800500Y-99397648D01*
X200800500Y-99397644D01*
X203699500Y-99397644D01*
X203699500Y-99602355D01*
X203731521Y-99804529D01*
X203794780Y-99999219D01*
X203887712Y-100181609D01*
X203887714Y-100181613D01*
X204008029Y-100347213D01*
X204008031Y-100347215D01*
X204008034Y-100347219D01*
X204152781Y-100491966D01*
X204152784Y-100491968D01*
X204152786Y-100491970D01*
X204318386Y-100612285D01*
X204318390Y-100612287D01*
X204500781Y-100705220D01*
X204695466Y-100768477D01*
X204695467Y-100768477D01*
X204695470Y-100768478D01*
X204897645Y-100800500D01*
X204897648Y-100800500D01*
X205102355Y-100800500D01*
X205304529Y-100768478D01*
X205304530Y-100768477D01*
X205304534Y-100768477D01*
X205499219Y-100705220D01*
X205681610Y-100612287D01*
X205847219Y-100491966D01*
X205991966Y-100347219D01*
X206112287Y-100181610D01*
X206205220Y-99999219D01*
X206268477Y-99804534D01*
X206300500Y-99602352D01*
X206300500Y-99397648D01*
X206300500Y-99397644D01*
X206268478Y-99195470D01*
X206267183Y-99191484D01*
X206205220Y-99000781D01*
X206112287Y-98818390D01*
X206112285Y-98818386D01*
X205991970Y-98652786D01*
X205991968Y-98652784D01*
X205991966Y-98652781D01*
X205847219Y-98508034D01*
X205847215Y-98508031D01*
X205847213Y-98508029D01*
X205681613Y-98387714D01*
X205681609Y-98387712D01*
X205499219Y-98294780D01*
X205304529Y-98231521D01*
X205102355Y-98199500D01*
X205102352Y-98199500D01*
X204897648Y-98199500D01*
X204897645Y-98199500D01*
X204695470Y-98231521D01*
X204500780Y-98294780D01*
X204318390Y-98387712D01*
X204318386Y-98387714D01*
X204152786Y-98508029D01*
X204008029Y-98652786D01*
X203887714Y-98818386D01*
X203887712Y-98818390D01*
X203794780Y-99000780D01*
X203731521Y-99195470D01*
X203699500Y-99397644D01*
X200800500Y-99397644D01*
X200768478Y-99195470D01*
X200767183Y-99191484D01*
X200705220Y-99000781D01*
X200612287Y-98818390D01*
X200612285Y-98818386D01*
X200491970Y-98652786D01*
X200491968Y-98652784D01*
X200491966Y-98652781D01*
X200347219Y-98508034D01*
X200347215Y-98508031D01*
X200347213Y-98508029D01*
X200181613Y-98387714D01*
X200181609Y-98387712D01*
X199999219Y-98294780D01*
X199804529Y-98231521D01*
X199602355Y-98199500D01*
X199602352Y-98199500D01*
X199397648Y-98199500D01*
X199397645Y-98199500D01*
X199195470Y-98231521D01*
X199000780Y-98294780D01*
X198818390Y-98387712D01*
X198818386Y-98387714D01*
X198652786Y-98508029D01*
X198508029Y-98652786D01*
X198387714Y-98818386D01*
X198387712Y-98818390D01*
X198294780Y-99000780D01*
X198231521Y-99195470D01*
X198199500Y-99397644D01*
X192700500Y-99397644D01*
X192700500Y-99191484D01*
X192719407Y-99133293D01*
X192768907Y-99097329D01*
X192773837Y-99095868D01*
X192898084Y-99062577D01*
X193035016Y-98983520D01*
X193146820Y-98871716D01*
X193225877Y-98734784D01*
X193266800Y-98582057D01*
X193266800Y-98423943D01*
X193225877Y-98271216D01*
X193146820Y-98134284D01*
X193035016Y-98022480D01*
X192898084Y-97943423D01*
X192745357Y-97902500D01*
X192587243Y-97902500D01*
X192434516Y-97943423D01*
X192297584Y-98022480D01*
X192185780Y-98134284D01*
X192106723Y-98271216D01*
X192081355Y-98365893D01*
X192065800Y-98423944D01*
X192065800Y-98496099D01*
X192046893Y-98554290D01*
X192036804Y-98566102D01*
X191979520Y-98623386D01*
X191979516Y-98623391D01*
X191926793Y-98714711D01*
X191926792Y-98714711D01*
X191926793Y-98714712D01*
X191899500Y-98816573D01*
X191899500Y-99750603D01*
X191880593Y-99808794D01*
X191831093Y-99844758D01*
X191807966Y-99849110D01*
X191807974Y-99849172D01*
X191807108Y-99849272D01*
X191806234Y-99849437D01*
X191805143Y-99849500D01*
X191780009Y-99852414D01*
X191677235Y-99897794D01*
X191597794Y-99977235D01*
X191552414Y-100080011D01*
X191549500Y-100105130D01*
X191549500Y-100105132D01*
X191549500Y-100105135D01*
X191549500Y-100923872D01*
X191549501Y-101652200D01*
X191530594Y-101710391D01*
X191481094Y-101746355D01*
X191450501Y-101751200D01*
X189999500Y-101751200D01*
X189941309Y-101732293D01*
X189905345Y-101682793D01*
X189900500Y-101652200D01*
X189900500Y-101006899D01*
X189900499Y-101006893D01*
X189895040Y-100961433D01*
X189889877Y-100918436D01*
X189859450Y-100841280D01*
X189834362Y-100777660D01*
X189834361Y-100777659D01*
X189834361Y-100777658D01*
X189742922Y-100657078D01*
X189622342Y-100565639D01*
X189622341Y-100565638D01*
X189622339Y-100565637D01*
X189481562Y-100510122D01*
X189475410Y-100508567D01*
X189476163Y-100505585D01*
X189431929Y-100484919D01*
X189402305Y-100431384D01*
X189400500Y-100412565D01*
X189400500Y-93785130D01*
X196499500Y-93785130D01*
X196499500Y-94674860D01*
X196499501Y-94674863D01*
X196502414Y-94699990D01*
X196527756Y-94757385D01*
X196547794Y-94802765D01*
X196627235Y-94882206D01*
X196730009Y-94927585D01*
X196755135Y-94930500D01*
X198644864Y-94930499D01*
X198669991Y-94927585D01*
X198772765Y-94882206D01*
X198852206Y-94802765D01*
X198897585Y-94699991D01*
X198900500Y-94674865D01*
X198900499Y-93785136D01*
X198897585Y-93760009D01*
X198852206Y-93657235D01*
X198772765Y-93577794D01*
X198669991Y-93532415D01*
X198669990Y-93532414D01*
X198669988Y-93532414D01*
X198644868Y-93529500D01*
X196755139Y-93529500D01*
X196755136Y-93529501D01*
X196730009Y-93532414D01*
X196627235Y-93577794D01*
X196547794Y-93657235D01*
X196502414Y-93760011D01*
X196499500Y-93785130D01*
X189400500Y-93785130D01*
X189400500Y-91708700D01*
X189419407Y-91650509D01*
X189468907Y-91614545D01*
X189499500Y-91609700D01*
X192725425Y-91609700D01*
X192725427Y-91609700D01*
X192827288Y-91582407D01*
X192827290Y-91582405D01*
X192827293Y-91582405D01*
X192833286Y-91579923D01*
X192833925Y-91581467D01*
X192885840Y-91570428D01*
X192941738Y-91595310D01*
X192972335Y-91648295D01*
X192974500Y-91668887D01*
X192974500Y-91918106D01*
X192985123Y-92006565D01*
X193040637Y-92147339D01*
X193040638Y-92147341D01*
X193040639Y-92147342D01*
X193132078Y-92267922D01*
X193252658Y-92359361D01*
X193252659Y-92359361D01*
X193252660Y-92359362D01*
X193323047Y-92387119D01*
X193393436Y-92414877D01*
X193481898Y-92425500D01*
X193481900Y-92425500D01*
X194518100Y-92425500D01*
X194518102Y-92425500D01*
X194606564Y-92414877D01*
X194747342Y-92359361D01*
X194867922Y-92267922D01*
X194959361Y-92147342D01*
X195014877Y-92006564D01*
X195025500Y-91918102D01*
X195025500Y-91506343D01*
X195044407Y-91448152D01*
X195093907Y-91412188D01*
X195155093Y-91412188D01*
X195194501Y-91436337D01*
X195198384Y-91440220D01*
X195335316Y-91519277D01*
X195488043Y-91560200D01*
X195488045Y-91560200D01*
X195646155Y-91560200D01*
X195646157Y-91560200D01*
X195798884Y-91519277D01*
X195935816Y-91440220D01*
X196047620Y-91328416D01*
X196126677Y-91191484D01*
X196167600Y-91038757D01*
X196167600Y-90880643D01*
X196126677Y-90727916D01*
X196047620Y-90590984D01*
X195935816Y-90479180D01*
X195798884Y-90400123D01*
X195646157Y-90359200D01*
X195536201Y-90359200D01*
X195478010Y-90340293D01*
X195442046Y-90290793D01*
X195442046Y-90229607D01*
X195466197Y-90190196D01*
X195795877Y-89860516D01*
X196818780Y-88837613D01*
X196840773Y-88799520D01*
X196871507Y-88746287D01*
X196898800Y-88644427D01*
X196898800Y-88189499D01*
X196917707Y-88131308D01*
X196967207Y-88095344D01*
X196997800Y-88090499D01*
X198644861Y-88090499D01*
X198644864Y-88090499D01*
X198669991Y-88087585D01*
X198772765Y-88042206D01*
X198852206Y-87962765D01*
X198897585Y-87859991D01*
X198900500Y-87834865D01*
X198900499Y-86945136D01*
X198897585Y-86920009D01*
X198852206Y-86817235D01*
X198852204Y-86817233D01*
X198852204Y-86817232D01*
X198847900Y-86810949D01*
X198830612Y-86752257D01*
X198847900Y-86699051D01*
X198852204Y-86692767D01*
X198852206Y-86692765D01*
X198897585Y-86589991D01*
X198900500Y-86564865D01*
X198900499Y-85723547D01*
X198919406Y-85665357D01*
X198968906Y-85629393D01*
X199030092Y-85629393D01*
X199048997Y-85637811D01*
X199060716Y-85644577D01*
X199213443Y-85685500D01*
X199213445Y-85685500D01*
X199371555Y-85685500D01*
X199371557Y-85685500D01*
X199524284Y-85644577D01*
X199661216Y-85565520D01*
X199773020Y-85453716D01*
X199852077Y-85316784D01*
X199893000Y-85164057D01*
X199893000Y-85005943D01*
X199852077Y-84853216D01*
X199773020Y-84716284D01*
X199701037Y-84644301D01*
X199673262Y-84589787D01*
X199682833Y-84529355D01*
X199726098Y-84486090D01*
X199761609Y-84477564D01*
X199761423Y-84476147D01*
X199767854Y-84475300D01*
X199767857Y-84475300D01*
X199920584Y-84434377D01*
X200057516Y-84355320D01*
X200169320Y-84243516D01*
X200248377Y-84106584D01*
X200289300Y-83953857D01*
X200289300Y-83795743D01*
X200248377Y-83643016D01*
X200169320Y-83506084D01*
X200057516Y-83394280D01*
X199920584Y-83315223D01*
X199767857Y-83274300D01*
X199609743Y-83274300D01*
X199542193Y-83292400D01*
X199457014Y-83315223D01*
X199361963Y-83370100D01*
X199302114Y-83382821D01*
X199246219Y-83357933D01*
X199242461Y-83354367D01*
X199147613Y-83259520D01*
X199147608Y-83259516D01*
X199056291Y-83206794D01*
X199056293Y-83206794D01*
X199000673Y-83191891D01*
X198968473Y-83183263D01*
X198917160Y-83149940D01*
X198903897Y-83128440D01*
X198898283Y-83116030D01*
X198897585Y-83110009D01*
X198852206Y-83007235D01*
X198846477Y-83001506D01*
X198839374Y-82985803D01*
X198836911Y-82963644D01*
X198830612Y-82942257D01*
X198833535Y-82933259D01*
X198832617Y-82924992D01*
X198841011Y-82910250D01*
X198847900Y-82889051D01*
X198852204Y-82882767D01*
X198852206Y-82882765D01*
X198897585Y-82779991D01*
X198897585Y-82779988D01*
X198900592Y-82773179D01*
X198902763Y-82774137D01*
X198930154Y-82732319D01*
X198987362Y-82710616D01*
X198992155Y-82710500D01*
X206636725Y-82710500D01*
X206636727Y-82710500D01*
X206738588Y-82683207D01*
X206738590Y-82683205D01*
X206738592Y-82683205D01*
X206829908Y-82630483D01*
X206829908Y-82630482D01*
X206829913Y-82630480D01*
X207042293Y-82418100D01*
X207240698Y-82219696D01*
X207295214Y-82191919D01*
X207310701Y-82190700D01*
X207382855Y-82190700D01*
X207382857Y-82190700D01*
X207535584Y-82149777D01*
X207672516Y-82070720D01*
X207784320Y-81958916D01*
X207863377Y-81821984D01*
X207904300Y-81669257D01*
X207904300Y-81511143D01*
X207863377Y-81358416D01*
X207784320Y-81221484D01*
X207672516Y-81109680D01*
X207535584Y-81030623D01*
X207382857Y-80989700D01*
X207224743Y-80989700D01*
X207072016Y-81030623D01*
X206935084Y-81109680D01*
X206823280Y-81221484D01*
X206744223Y-81358416D01*
X206703610Y-81509988D01*
X206703300Y-81511144D01*
X206703300Y-81583299D01*
X206684393Y-81641490D01*
X206674304Y-81653303D01*
X206447103Y-81880504D01*
X206392586Y-81908281D01*
X206377099Y-81909500D01*
X198992155Y-81909500D01*
X198933964Y-81890593D01*
X198902278Y-81852010D01*
X198897869Y-81842465D01*
X198897585Y-81840009D01*
X198852206Y-81737235D01*
X198846748Y-81731777D01*
X198839697Y-81716510D01*
X198837017Y-81694001D01*
X198830612Y-81672257D01*
X198833404Y-81663662D01*
X198832463Y-81655754D01*
X198840846Y-81640760D01*
X198847900Y-81619051D01*
X198852204Y-81612767D01*
X198852206Y-81612765D01*
X198897585Y-81509991D01*
X198900500Y-81484865D01*
X198900499Y-80595136D01*
X198897585Y-80570009D01*
X198852206Y-80467235D01*
X198852204Y-80467233D01*
X198852204Y-80467232D01*
X198847900Y-80460949D01*
X198830612Y-80402257D01*
X198847900Y-80349051D01*
X198852204Y-80342767D01*
X198852206Y-80342765D01*
X198897585Y-80239991D01*
X198900500Y-80214865D01*
X198900499Y-79325136D01*
X198897585Y-79300009D01*
X198852206Y-79197235D01*
X198772765Y-79117794D01*
X198669991Y-79072415D01*
X198669990Y-79072414D01*
X198669988Y-79072414D01*
X198644868Y-79069500D01*
X196755139Y-79069500D01*
X196755136Y-79069501D01*
X196730009Y-79072414D01*
X196627235Y-79117794D01*
X196547794Y-79197235D01*
X196502414Y-79300011D01*
X196499500Y-79325130D01*
X196499500Y-80214860D01*
X196499501Y-80214863D01*
X196502414Y-80239990D01*
X196522954Y-80286509D01*
X196547794Y-80342765D01*
X196547795Y-80342766D01*
X196547796Y-80342768D01*
X196552102Y-80349055D01*
X196569387Y-80407748D01*
X196552102Y-80460945D01*
X196547796Y-80467231D01*
X196502414Y-80570011D01*
X196499500Y-80595130D01*
X196499500Y-81484860D01*
X196499501Y-81484863D01*
X196502414Y-81509990D01*
X196502924Y-81511144D01*
X196547794Y-81612765D01*
X196547795Y-81612766D01*
X196547796Y-81612768D01*
X196552102Y-81619055D01*
X196569387Y-81677748D01*
X196560302Y-81716509D01*
X196553249Y-81731779D01*
X196547794Y-81737235D01*
X196502415Y-81840009D01*
X196502130Y-81842464D01*
X196497722Y-81852009D01*
X196482292Y-81868677D01*
X196469846Y-81887681D01*
X196461918Y-81890688D01*
X196456159Y-81896911D01*
X196433874Y-81901327D01*
X196412638Y-81909384D01*
X196407845Y-81909500D01*
X195803101Y-81909500D01*
X195744910Y-81890593D01*
X195733097Y-81880504D01*
X195459891Y-81607298D01*
X195165613Y-81313020D01*
X195165610Y-81313018D01*
X195165609Y-81313017D01*
X195165608Y-81313016D01*
X195074291Y-81260294D01*
X195074293Y-81260294D01*
X195034770Y-81249704D01*
X194972427Y-81233000D01*
X191316873Y-81233000D01*
X191265943Y-81246646D01*
X191215011Y-81260293D01*
X191133981Y-81307075D01*
X191133982Y-81307076D01*
X191123688Y-81313019D01*
X190544504Y-81892203D01*
X190489987Y-81919980D01*
X190429555Y-81910409D01*
X190386290Y-81867144D01*
X190375500Y-81822199D01*
X190375500Y-81184738D01*
X190375499Y-81184733D01*
X190372725Y-81155155D01*
X190372725Y-81155151D01*
X190329116Y-81030525D01*
X190318399Y-81016004D01*
X190250714Y-80924293D01*
X190250713Y-80924292D01*
X190250711Y-80924289D01*
X190250706Y-80924285D01*
X190144476Y-80845884D01*
X190019852Y-80802276D01*
X190019851Y-80802275D01*
X190019849Y-80802275D01*
X190019847Y-80802274D01*
X190019844Y-80802274D01*
X189990266Y-80799500D01*
X189990256Y-80799500D01*
X189609744Y-80799500D01*
X189609733Y-80799500D01*
X189580155Y-80802274D01*
X189580147Y-80802276D01*
X189455528Y-80845882D01*
X189448966Y-80849351D01*
X189447798Y-80847141D01*
X189400720Y-80862817D01*
X189352065Y-80847399D01*
X189351034Y-80849351D01*
X189344471Y-80845882D01*
X189219852Y-80802276D01*
X189219851Y-80802275D01*
X189219849Y-80802275D01*
X189219847Y-80802274D01*
X189219844Y-80802274D01*
X189190266Y-80799500D01*
X189190256Y-80799500D01*
X188809744Y-80799500D01*
X188809733Y-80799500D01*
X188780155Y-80802274D01*
X188780147Y-80802276D01*
X188655528Y-80845882D01*
X188648966Y-80849351D01*
X188647798Y-80847141D01*
X188600720Y-80862817D01*
X188552065Y-80847399D01*
X188551034Y-80849351D01*
X188544471Y-80845882D01*
X188419852Y-80802276D01*
X188419851Y-80802275D01*
X188419849Y-80802275D01*
X188419847Y-80802274D01*
X188419844Y-80802274D01*
X188390266Y-80799500D01*
X188390256Y-80799500D01*
X188009744Y-80799500D01*
X188009733Y-80799500D01*
X187980155Y-80802274D01*
X187980147Y-80802276D01*
X187848523Y-80848334D01*
X187848072Y-80847046D01*
X187795609Y-80856157D01*
X187740686Y-80829193D01*
X187712102Y-80775095D01*
X187720774Y-80714527D01*
X187739635Y-80688156D01*
X192885325Y-75542466D01*
X192939840Y-75514691D01*
X193000272Y-75524262D01*
X193043537Y-75567527D01*
X193047424Y-75576153D01*
X193065637Y-75622339D01*
X193065638Y-75622341D01*
X193065639Y-75622342D01*
X193157078Y-75742922D01*
X193277658Y-75834361D01*
X193277659Y-75834361D01*
X193277660Y-75834362D01*
X193291681Y-75839891D01*
X193418436Y-75889877D01*
X193506898Y-75900500D01*
X193506900Y-75900500D01*
X194493100Y-75900500D01*
X194493102Y-75900500D01*
X194562084Y-75892216D01*
X194590368Y-75897792D01*
X194618832Y-75902300D01*
X194620206Y-75903674D01*
X194622113Y-75904050D01*
X194641714Y-75925182D01*
X194662097Y-75945565D01*
X194662401Y-75947484D01*
X194663722Y-75948909D01*
X194667159Y-75977527D01*
X194671668Y-76005997D01*
X194670786Y-76007727D01*
X194671018Y-76009658D01*
X194643891Y-76060514D01*
X194626947Y-76077458D01*
X194572430Y-76105235D01*
X194545141Y-76105748D01*
X194493111Y-76099500D01*
X194493102Y-76099500D01*
X193506898Y-76099500D01*
X193506893Y-76099500D01*
X193418434Y-76110123D01*
X193277660Y-76165637D01*
X193277656Y-76165640D01*
X193157081Y-76257075D01*
X193157075Y-76257081D01*
X193065640Y-76377656D01*
X193065637Y-76377660D01*
X193010123Y-76518434D01*
X192999500Y-76606893D01*
X192999500Y-77393106D01*
X193010123Y-77481565D01*
X193065637Y-77622339D01*
X193065638Y-77622341D01*
X193065639Y-77622342D01*
X193157078Y-77742922D01*
X193277658Y-77834361D01*
X193277659Y-77834361D01*
X193277660Y-77834362D01*
X193307910Y-77846291D01*
X193418436Y-77889877D01*
X193506898Y-77900500D01*
X193506900Y-77900500D01*
X194493100Y-77900500D01*
X194493102Y-77900500D01*
X194581564Y-77889877D01*
X194722342Y-77834361D01*
X194842922Y-77742922D01*
X194867390Y-77710655D01*
X194917617Y-77675713D01*
X194978789Y-77676967D01*
X195016277Y-77700471D01*
X195393786Y-78077979D01*
X195393791Y-78077983D01*
X195485108Y-78130705D01*
X195485106Y-78130705D01*
X195485110Y-78130706D01*
X195485112Y-78130707D01*
X195586973Y-78158000D01*
X195692427Y-78158000D01*
X206437399Y-78158000D01*
X206495590Y-78176907D01*
X206507403Y-78186996D01*
X209680887Y-81360480D01*
X209680889Y-81360481D01*
X209680890Y-81360482D01*
X209680891Y-81360483D01*
X209772208Y-81413205D01*
X209772206Y-81413205D01*
X209772210Y-81413206D01*
X209772212Y-81413207D01*
X209874073Y-81440500D01*
X211007845Y-81440500D01*
X211066036Y-81459407D01*
X211097722Y-81497991D01*
X211102130Y-81507535D01*
X211102415Y-81509991D01*
X211147794Y-81612765D01*
X211153249Y-81618220D01*
X211160302Y-81633491D01*
X211162981Y-81655998D01*
X211169387Y-81677748D01*
X211166594Y-81686341D01*
X211167536Y-81694247D01*
X211159156Y-81709234D01*
X211152102Y-81730945D01*
X211147796Y-81737231D01*
X211102414Y-81840011D01*
X211099500Y-81865130D01*
X211099500Y-82754860D01*
X211099501Y-82754863D01*
X211102414Y-82779990D01*
X211122954Y-82826509D01*
X211147794Y-82882765D01*
X211147795Y-82882766D01*
X211147796Y-82882768D01*
X211152102Y-82889055D01*
X211169387Y-82947748D01*
X211152102Y-83000945D01*
X211147796Y-83007231D01*
X211102414Y-83110011D01*
X211099500Y-83135130D01*
X211099500Y-84024860D01*
X211099501Y-84024863D01*
X211102414Y-84049990D01*
X211110227Y-84067684D01*
X211147794Y-84152765D01*
X211147795Y-84152766D01*
X211147796Y-84152768D01*
X211152102Y-84159055D01*
X211169387Y-84217748D01*
X211152102Y-84270945D01*
X211147796Y-84277231D01*
X211147794Y-84277234D01*
X211147794Y-84277235D01*
X211135521Y-84305030D01*
X211102414Y-84380011D01*
X211099500Y-84405130D01*
X211099500Y-85294860D01*
X211099501Y-85294863D01*
X211102414Y-85319990D01*
X211118488Y-85356393D01*
X211147794Y-85422765D01*
X211227235Y-85502206D01*
X211330009Y-85547585D01*
X211355135Y-85550500D01*
X213244864Y-85550499D01*
X213269991Y-85547585D01*
X213372765Y-85502206D01*
X213452206Y-85422765D01*
X213497585Y-85319991D01*
X213500500Y-85294865D01*
X213500499Y-84405136D01*
X213497585Y-84380009D01*
X213452206Y-84277235D01*
X213452204Y-84277233D01*
X213452204Y-84277232D01*
X213447900Y-84270949D01*
X213430612Y-84212257D01*
X213447900Y-84159051D01*
X213452204Y-84152767D01*
X213452206Y-84152765D01*
X213497585Y-84049991D01*
X213500500Y-84024865D01*
X213500499Y-83135136D01*
X213497585Y-83110009D01*
X213452206Y-83007235D01*
X213452204Y-83007233D01*
X213452204Y-83007232D01*
X213447900Y-83000949D01*
X213430612Y-82942257D01*
X213447900Y-82889051D01*
X213452204Y-82882767D01*
X213452206Y-82882765D01*
X213497585Y-82779991D01*
X213500500Y-82754865D01*
X213500499Y-81865136D01*
X213497585Y-81840009D01*
X213452206Y-81737235D01*
X213452204Y-81737233D01*
X213452204Y-81737232D01*
X213447900Y-81730949D01*
X213430612Y-81672257D01*
X213439697Y-81633490D01*
X213446748Y-81618222D01*
X213452206Y-81612765D01*
X213497585Y-81509991D01*
X213497870Y-81507534D01*
X213502278Y-81497990D01*
X213517707Y-81481321D01*
X213530154Y-81462319D01*
X213538082Y-81459311D01*
X213543842Y-81453089D01*
X213566124Y-81448672D01*
X213587362Y-81440616D01*
X213592155Y-81440500D01*
X214595599Y-81440500D01*
X214653790Y-81459407D01*
X214665603Y-81469496D01*
X214748888Y-81552781D01*
X214776665Y-81607298D01*
X214777178Y-81634585D01*
X214774501Y-81656883D01*
X214774500Y-81656901D01*
X214774500Y-82418106D01*
X214785123Y-82506565D01*
X214840637Y-82647339D01*
X214840638Y-82647341D01*
X214840639Y-82647342D01*
X214932078Y-82767922D01*
X215052658Y-82859361D01*
X215052659Y-82859361D01*
X215052660Y-82859362D01*
X215112006Y-82882765D01*
X215193436Y-82914877D01*
X215281898Y-82925500D01*
X215281900Y-82925500D01*
X216318100Y-82925500D01*
X216318102Y-82925500D01*
X216406564Y-82914877D01*
X216547342Y-82859361D01*
X216667922Y-82767922D01*
X216759361Y-82647342D01*
X216814877Y-82506564D01*
X216825500Y-82418102D01*
X216825500Y-81656898D01*
X216814877Y-81568436D01*
X216771881Y-81459407D01*
X216759362Y-81427660D01*
X216759361Y-81427659D01*
X216759361Y-81427658D01*
X216667922Y-81307078D01*
X216547342Y-81215639D01*
X216547341Y-81215638D01*
X216547339Y-81215637D01*
X216406565Y-81160123D01*
X216318106Y-81149500D01*
X216318102Y-81149500D01*
X215519401Y-81149500D01*
X215461210Y-81130593D01*
X215449398Y-81120504D01*
X215048413Y-80719520D01*
X215048408Y-80719516D01*
X214957091Y-80666794D01*
X214957093Y-80666794D01*
X214894414Y-80650000D01*
X214855227Y-80639500D01*
X214855225Y-80639500D01*
X213592155Y-80639500D01*
X213533964Y-80620593D01*
X213502278Y-80582010D01*
X213497869Y-80572465D01*
X213497585Y-80570009D01*
X213452206Y-80467235D01*
X213446748Y-80461777D01*
X213439697Y-80446510D01*
X213437017Y-80424001D01*
X213430612Y-80402257D01*
X213433404Y-80393662D01*
X213432463Y-80385754D01*
X213440846Y-80370760D01*
X213447900Y-80349051D01*
X213452204Y-80342767D01*
X213452206Y-80342765D01*
X213497585Y-80239991D01*
X213500500Y-80214865D01*
X213500499Y-79325136D01*
X213497585Y-79300009D01*
X213452206Y-79197235D01*
X213372765Y-79117794D01*
X213269991Y-79072415D01*
X213269990Y-79072414D01*
X213269988Y-79072414D01*
X213244868Y-79069500D01*
X211355139Y-79069500D01*
X211355136Y-79069501D01*
X211330009Y-79072414D01*
X211227235Y-79117794D01*
X211147794Y-79197235D01*
X211102414Y-79300011D01*
X211099500Y-79325130D01*
X211099500Y-80214860D01*
X211099501Y-80214863D01*
X211102414Y-80239990D01*
X211122954Y-80286509D01*
X211147794Y-80342765D01*
X211147795Y-80342766D01*
X211147796Y-80342768D01*
X211152102Y-80349055D01*
X211169387Y-80407748D01*
X211160302Y-80446509D01*
X211153249Y-80461779D01*
X211147794Y-80467235D01*
X211102415Y-80570009D01*
X211102130Y-80572464D01*
X211097722Y-80582009D01*
X211082292Y-80598677D01*
X211069846Y-80617681D01*
X211061918Y-80620688D01*
X211056159Y-80626911D01*
X211033874Y-80631327D01*
X211012638Y-80639384D01*
X211007845Y-80639500D01*
X210133701Y-80639500D01*
X210075510Y-80620593D01*
X210063697Y-80610504D01*
X208487268Y-79034075D01*
X206890213Y-77437020D01*
X206890210Y-77437018D01*
X206890209Y-77437017D01*
X206890208Y-77437016D01*
X206798891Y-77384294D01*
X206798893Y-77384294D01*
X206759370Y-77373704D01*
X206697027Y-77357000D01*
X206697025Y-77357000D01*
X195846601Y-77357000D01*
X195788410Y-77338093D01*
X195776597Y-77328004D01*
X195212896Y-76764303D01*
X195185119Y-76709786D01*
X195194690Y-76649354D01*
X195212890Y-76624302D01*
X199476280Y-72360913D01*
X199493202Y-72331604D01*
X199529005Y-72269592D01*
X199529005Y-72269590D01*
X199529007Y-72269588D01*
X199556300Y-72167727D01*
X199556300Y-72062273D01*
X199556300Y-71751152D01*
X199575207Y-71692961D01*
X199585296Y-71681148D01*
X200057036Y-71209406D01*
X200074075Y-71272993D01*
X200139901Y-71387007D01*
X200232993Y-71480099D01*
X200347007Y-71545925D01*
X200410591Y-71562962D01*
X199921466Y-72052087D01*
X199937266Y-72063566D01*
X200098559Y-72145749D01*
X200270710Y-72201683D01*
X200449490Y-72230000D01*
X200630510Y-72230000D01*
X200809289Y-72201683D01*
X200981440Y-72145749D01*
X201142730Y-72063568D01*
X201142735Y-72063564D01*
X201158532Y-72052087D01*
X201158532Y-72052086D01*
X200669408Y-71562962D01*
X200732993Y-71545925D01*
X200847007Y-71480099D01*
X200940099Y-71387007D01*
X201005925Y-71272993D01*
X201022962Y-71209408D01*
X201512086Y-71698532D01*
X201512087Y-71698532D01*
X201523564Y-71682735D01*
X201523568Y-71682730D01*
X201605749Y-71521440D01*
X201661683Y-71349289D01*
X201690000Y-71170510D01*
X201690000Y-70989489D01*
X201661683Y-70810710D01*
X201605749Y-70638559D01*
X201523566Y-70477266D01*
X201512087Y-70461466D01*
X201022962Y-70950591D01*
X201005925Y-70887007D01*
X200940099Y-70772993D01*
X200847007Y-70679901D01*
X200732993Y-70614075D01*
X200669406Y-70597036D01*
X201158532Y-70107911D01*
X201142730Y-70096432D01*
X200981440Y-70014250D01*
X200809289Y-69958316D01*
X200630510Y-69930000D01*
X200449490Y-69930000D01*
X200270710Y-69958316D01*
X200098559Y-70014250D01*
X199937264Y-70096434D01*
X199921466Y-70107911D01*
X200410592Y-70597037D01*
X200347007Y-70614075D01*
X200232993Y-70679901D01*
X200139901Y-70772993D01*
X200074075Y-70887007D01*
X200057037Y-70950592D01*
X199585296Y-70478851D01*
X199557519Y-70424334D01*
X199556300Y-70408847D01*
X199556300Y-69422361D01*
X199575207Y-69364170D01*
X199624707Y-69328206D01*
X199685893Y-69328206D01*
X199725301Y-69352355D01*
X199790499Y-69417553D01*
X199937006Y-69523996D01*
X200098361Y-69606211D01*
X200270591Y-69662171D01*
X200342136Y-69673502D01*
X200449451Y-69690500D01*
X200449454Y-69690500D01*
X200630549Y-69690500D01*
X200719977Y-69676335D01*
X200809409Y-69662171D01*
X200981639Y-69606211D01*
X201142994Y-69523996D01*
X201289501Y-69417553D01*
X201417553Y-69289501D01*
X201523996Y-69142994D01*
X201606211Y-68981639D01*
X201662171Y-68809409D01*
X201690500Y-68630546D01*
X201690500Y-68449454D01*
X201690500Y-68449450D01*
X201665810Y-68293566D01*
X201662171Y-68270591D01*
X201606211Y-68098361D01*
X201523996Y-67937006D01*
X201417553Y-67790499D01*
X201289501Y-67662447D01*
X201142994Y-67556004D01*
X201142993Y-67556003D01*
X201142991Y-67556002D01*
X200981637Y-67473788D01*
X200809406Y-67417828D01*
X200630549Y-67389500D01*
X200630546Y-67389500D01*
X200449454Y-67389500D01*
X200449451Y-67389500D01*
X200270593Y-67417828D01*
X200098362Y-67473788D01*
X199937008Y-67556002D01*
X199879469Y-67597807D01*
X199790499Y-67662447D01*
X199725301Y-67727644D01*
X199704648Y-67738167D01*
X199685893Y-67751794D01*
X199677904Y-67751794D01*
X199670787Y-67755420D01*
X199647892Y-67751794D01*
X199624707Y-67751794D01*
X199618244Y-67747098D01*
X199610355Y-67745849D01*
X199593963Y-67729457D01*
X199575207Y-67715830D01*
X199572738Y-67708232D01*
X199567090Y-67702584D01*
X199556300Y-67657639D01*
X199556300Y-67585605D01*
X199575207Y-67527414D01*
X199602424Y-67502909D01*
X199602364Y-67502831D01*
X199603363Y-67502063D01*
X199605804Y-67499866D01*
X199607513Y-67498880D01*
X200011551Y-67094840D01*
X200066066Y-67067064D01*
X200112145Y-67070690D01*
X200170657Y-67089701D01*
X200270591Y-67122171D01*
X200340371Y-67133223D01*
X200449451Y-67150500D01*
X200449454Y-67150500D01*
X200630549Y-67150500D01*
X200719977Y-67136335D01*
X200809409Y-67122171D01*
X200981639Y-67066211D01*
X201142994Y-66983996D01*
X201289501Y-66877553D01*
X201417553Y-66749501D01*
X201523996Y-66602994D01*
X201606211Y-66441639D01*
X201662171Y-66269409D01*
X201682314Y-66142229D01*
X201690500Y-66090549D01*
X201690500Y-65909450D01*
X201665810Y-65753566D01*
X201662171Y-65730591D01*
X201606211Y-65558361D01*
X201523996Y-65397006D01*
X201417553Y-65250499D01*
X201289501Y-65122447D01*
X201142994Y-65016004D01*
X201142993Y-65016003D01*
X201142991Y-65016002D01*
X201029858Y-64958358D01*
X200981637Y-64933788D01*
X200809406Y-64877828D01*
X200785451Y-64874034D01*
X212899500Y-64874034D01*
X212899500Y-65125965D01*
X212938908Y-65374780D01*
X213016759Y-65614379D01*
X213129787Y-65836211D01*
X213131130Y-65838845D01*
X213279207Y-66042656D01*
X213457344Y-66220793D01*
X213661155Y-66368870D01*
X213885621Y-66483241D01*
X214125215Y-66561090D01*
X214125216Y-66561090D01*
X214125219Y-66561091D01*
X214374035Y-66600500D01*
X214374038Y-66600500D01*
X214625965Y-66600500D01*
X214874780Y-66561091D01*
X214874781Y-66561090D01*
X214874785Y-66561090D01*
X215114379Y-66483241D01*
X215338845Y-66368870D01*
X215542656Y-66220793D01*
X215720793Y-66042656D01*
X215868870Y-65838845D01*
X215983241Y-65614379D01*
X216061090Y-65374785D01*
X216061415Y-65372735D01*
X216100500Y-65125965D01*
X216100500Y-64874034D01*
X216061091Y-64625219D01*
X216045426Y-64577007D01*
X215983241Y-64385621D01*
X215868870Y-64161155D01*
X215720793Y-63957344D01*
X215542656Y-63779207D01*
X215338845Y-63631130D01*
X215338844Y-63631129D01*
X215338842Y-63631128D01*
X215114379Y-63516759D01*
X214874780Y-63438908D01*
X214625965Y-63399500D01*
X214625962Y-63399500D01*
X214374038Y-63399500D01*
X214374035Y-63399500D01*
X214125219Y-63438908D01*
X213885620Y-63516759D01*
X213661157Y-63631128D01*
X213457345Y-63779206D01*
X213279206Y-63957345D01*
X213131128Y-64161157D01*
X213016759Y-64385620D01*
X212938908Y-64625219D01*
X212899500Y-64874034D01*
X200785451Y-64874034D01*
X200630549Y-64849500D01*
X200630546Y-64849500D01*
X200449454Y-64849500D01*
X200449451Y-64849500D01*
X200270593Y-64877828D01*
X200098362Y-64933788D01*
X199937008Y-65016002D01*
X199874950Y-65061090D01*
X199790499Y-65122447D01*
X199662447Y-65250499D01*
X199652118Y-65264716D01*
X199556002Y-65397008D01*
X199473788Y-65558362D01*
X199417828Y-65730593D01*
X199389500Y-65909450D01*
X199389500Y-66090549D01*
X199417828Y-66269406D01*
X199469309Y-66427852D01*
X199469308Y-66489037D01*
X199445158Y-66528448D01*
X199319503Y-66654103D01*
X199264986Y-66681880D01*
X199204554Y-66672309D01*
X199161289Y-66629044D01*
X199150499Y-66584102D01*
X199150499Y-65105136D01*
X199147585Y-65080009D01*
X199102206Y-64977235D01*
X199022765Y-64897794D01*
X198919991Y-64852415D01*
X198919990Y-64852414D01*
X198919988Y-64852414D01*
X198894868Y-64849500D01*
X197105139Y-64849500D01*
X197105136Y-64849501D01*
X197080009Y-64852414D01*
X196977235Y-64897794D01*
X196897794Y-64977235D01*
X196852414Y-65080011D01*
X196849500Y-65105130D01*
X196849500Y-65105132D01*
X196849500Y-65105135D01*
X196849500Y-65941379D01*
X196849501Y-66678900D01*
X196830594Y-66737091D01*
X196781094Y-66773055D01*
X196750501Y-66777900D01*
X187624500Y-66777900D01*
X187566309Y-66758993D01*
X187530345Y-66709493D01*
X187525500Y-66678900D01*
X187525500Y-66156899D01*
X187525499Y-66156893D01*
X187514877Y-66068436D01*
X187474359Y-65965689D01*
X187459362Y-65927660D01*
X187459361Y-65927659D01*
X187459361Y-65927658D01*
X187367922Y-65807078D01*
X187247342Y-65715639D01*
X187247341Y-65715638D01*
X187247339Y-65715637D01*
X187106565Y-65660123D01*
X187018106Y-65649500D01*
X187018102Y-65649500D01*
X185981898Y-65649500D01*
X185981893Y-65649500D01*
X185893434Y-65660123D01*
X185752660Y-65715637D01*
X185752656Y-65715640D01*
X185632081Y-65807075D01*
X185632075Y-65807081D01*
X185540640Y-65927656D01*
X185540637Y-65927660D01*
X185482803Y-66074319D01*
X185443867Y-66121516D01*
X185390706Y-66137000D01*
X183769401Y-66137000D01*
X183711210Y-66118093D01*
X183699397Y-66108004D01*
X182929496Y-65338103D01*
X182901719Y-65283586D01*
X182900500Y-65268099D01*
X182900500Y-64506899D01*
X182900499Y-64506893D01*
X182889877Y-64418436D01*
X182834361Y-64277658D01*
X182742922Y-64157078D01*
X182622342Y-64065639D01*
X182622341Y-64065638D01*
X182622339Y-64065637D01*
X182481565Y-64010123D01*
X182393106Y-63999500D01*
X182393102Y-63999500D01*
X181656898Y-63999500D01*
X181656893Y-63999500D01*
X181568434Y-64010123D01*
X181427660Y-64065637D01*
X181427656Y-64065640D01*
X181307081Y-64157075D01*
X181307075Y-64157081D01*
X181215640Y-64277656D01*
X181215637Y-64277660D01*
X181160123Y-64418434D01*
X181149500Y-64506893D01*
X181149500Y-65493106D01*
X181160123Y-65581565D01*
X181215637Y-65722339D01*
X181215638Y-65722341D01*
X181215639Y-65722342D01*
X181307078Y-65842922D01*
X181427658Y-65934361D01*
X181427659Y-65934361D01*
X181427660Y-65934362D01*
X181445454Y-65941379D01*
X181568436Y-65989877D01*
X181656898Y-66000500D01*
X181656900Y-66000500D01*
X182393102Y-66000500D01*
X182393114Y-66000499D01*
X182404246Y-65999162D01*
X182464277Y-66010994D01*
X182486058Y-66027451D01*
X183242020Y-66783413D01*
X183242019Y-66783413D01*
X183279568Y-66820961D01*
X183316587Y-66857980D01*
X183407913Y-66910707D01*
X183509773Y-66938000D01*
X183615227Y-66938000D01*
X185390706Y-66938000D01*
X185448897Y-66956907D01*
X185482803Y-67000681D01*
X185540637Y-67147339D01*
X185540638Y-67147341D01*
X185540639Y-67147342D01*
X185632078Y-67267922D01*
X185752658Y-67359361D01*
X185752659Y-67359361D01*
X185752660Y-67359362D01*
X185794410Y-67375826D01*
X185893436Y-67414877D01*
X185981898Y-67425500D01*
X186780599Y-67425500D01*
X186838790Y-67444407D01*
X186850602Y-67454496D01*
X186894986Y-67498879D01*
X186894987Y-67498880D01*
X186986313Y-67551607D01*
X187088173Y-67578900D01*
X197095039Y-67578900D01*
X197153230Y-67597807D01*
X197189194Y-67647307D01*
X197189194Y-67708493D01*
X197165044Y-67747901D01*
X197122447Y-67790499D01*
X197108279Y-67810000D01*
X197016002Y-67937008D01*
X196933788Y-68098362D01*
X196877828Y-68270593D01*
X196849500Y-68449450D01*
X196849500Y-68630549D01*
X196877828Y-68809406D01*
X196877829Y-68809409D01*
X196933789Y-68981639D01*
X197016004Y-69142994D01*
X197122447Y-69289501D01*
X197250499Y-69417553D01*
X197397006Y-69523996D01*
X197558361Y-69606211D01*
X197730591Y-69662171D01*
X197802136Y-69673502D01*
X197909451Y-69690500D01*
X197909454Y-69690500D01*
X198090549Y-69690500D01*
X198179977Y-69676335D01*
X198269409Y-69662171D01*
X198441639Y-69606211D01*
X198602994Y-69523996D01*
X198603006Y-69523986D01*
X198604568Y-69523031D01*
X198605173Y-69522885D01*
X198606460Y-69522230D01*
X198606617Y-69522538D01*
X198664062Y-69508745D01*
X198720592Y-69532157D01*
X198752563Y-69584324D01*
X198755300Y-69607440D01*
X198755300Y-70012559D01*
X198736393Y-70070750D01*
X198686893Y-70106714D01*
X198625707Y-70106714D01*
X198604581Y-70096975D01*
X198603006Y-70096010D01*
X198441637Y-70013788D01*
X198269406Y-69957828D01*
X198090549Y-69929500D01*
X198090546Y-69929500D01*
X197909454Y-69929500D01*
X197909451Y-69929500D01*
X197730593Y-69957828D01*
X197558362Y-70013788D01*
X197397008Y-70096002D01*
X197380617Y-70107911D01*
X197250499Y-70202447D01*
X197122447Y-70330499D01*
X197078055Y-70391600D01*
X197016002Y-70477008D01*
X196933788Y-70638362D01*
X196877828Y-70810593D01*
X196849500Y-70989450D01*
X196849500Y-71170549D01*
X196877828Y-71349406D01*
X196929309Y-71507851D01*
X196929308Y-71569036D01*
X196905158Y-71608446D01*
X196443103Y-72070503D01*
X196388586Y-72098281D01*
X196373099Y-72099500D01*
X189899499Y-72099500D01*
X189841308Y-72080593D01*
X189805344Y-72031093D01*
X189800499Y-72000500D01*
X189800499Y-71955139D01*
X189800499Y-71955136D01*
X189797585Y-71930009D01*
X189752206Y-71827235D01*
X189672765Y-71747794D01*
X189569991Y-71702415D01*
X189569990Y-71702414D01*
X189569988Y-71702414D01*
X189544868Y-71699500D01*
X188455139Y-71699500D01*
X188455136Y-71699501D01*
X188430009Y-71702414D01*
X188327235Y-71747794D01*
X188247794Y-71827235D01*
X188202414Y-71930011D01*
X188199500Y-71955130D01*
X188199500Y-72009084D01*
X188180593Y-72067275D01*
X188131093Y-72103239D01*
X188126124Y-72104710D01*
X188043713Y-72126792D01*
X188043709Y-72126794D01*
X187952387Y-72179519D01*
X187877819Y-72254086D01*
X187877820Y-72254087D01*
X187061403Y-73070504D01*
X187006886Y-73098281D01*
X186991399Y-73099500D01*
X179024500Y-73099500D01*
X178966309Y-73080593D01*
X178930345Y-73031093D01*
X178925500Y-73000500D01*
X178925500Y-72981899D01*
X178925499Y-72981893D01*
X178923940Y-72968907D01*
X178914877Y-72893436D01*
X178859361Y-72752658D01*
X178767922Y-72632078D01*
X178647342Y-72540639D01*
X178647341Y-72540638D01*
X178647339Y-72540637D01*
X178506565Y-72485123D01*
X178418106Y-72474500D01*
X178418102Y-72474500D01*
X177656898Y-72474500D01*
X177656893Y-72474500D01*
X177568434Y-72485123D01*
X177427660Y-72540637D01*
X177427656Y-72540640D01*
X177307081Y-72632075D01*
X177307075Y-72632081D01*
X177215640Y-72752656D01*
X177215637Y-72752660D01*
X177160123Y-72893434D01*
X177149500Y-72981893D01*
X177149500Y-74018107D01*
X177152213Y-74040696D01*
X177148074Y-74061690D01*
X177148074Y-74083093D01*
X177142282Y-74091063D01*
X177140378Y-74100726D01*
X177124691Y-74115275D01*
X177112110Y-74132593D01*
X177102739Y-74135637D01*
X177095519Y-74142335D01*
X177053919Y-74151500D01*
X176946081Y-74151500D01*
X176887890Y-74132593D01*
X176851926Y-74083093D01*
X176847787Y-74040696D01*
X176850499Y-74018107D01*
X176850500Y-74018100D01*
X176850500Y-72981899D01*
X176850499Y-72981893D01*
X176848940Y-72968907D01*
X176839877Y-72893436D01*
X176784361Y-72752658D01*
X176692922Y-72632078D01*
X176572342Y-72540639D01*
X176572341Y-72540638D01*
X176572339Y-72540637D01*
X176431565Y-72485123D01*
X176343106Y-72474500D01*
X176343102Y-72474500D01*
X175581898Y-72474500D01*
X175581895Y-72474500D01*
X175581883Y-72474501D01*
X175559584Y-72477178D01*
X175499554Y-72465341D01*
X175477780Y-72448888D01*
X173505898Y-70477006D01*
X171496113Y-68467220D01*
X171496110Y-68467218D01*
X171496108Y-68467216D01*
X171404791Y-68414494D01*
X171404793Y-68414494D01*
X171365270Y-68403904D01*
X171302927Y-68387200D01*
X171302925Y-68387200D01*
X157409400Y-68387200D01*
X157351209Y-68368293D01*
X157315245Y-68318793D01*
X157315245Y-68257607D01*
X157351207Y-68208109D01*
X157379501Y-68187553D01*
X157507553Y-68059501D01*
X157613996Y-67912994D01*
X157696211Y-67751639D01*
X157752171Y-67579409D01*
X157766335Y-67489977D01*
X157780500Y-67400549D01*
X157780500Y-67219450D01*
X157752171Y-67040593D01*
X157752171Y-67040591D01*
X157696211Y-66868361D01*
X157613996Y-66707006D01*
X157507553Y-66560499D01*
X157379501Y-66432447D01*
X157232994Y-66326004D01*
X157232993Y-66326003D01*
X157232991Y-66326002D01*
X157071637Y-66243788D01*
X156899406Y-66187828D01*
X156720549Y-66159500D01*
X156720546Y-66159500D01*
X156539454Y-66159500D01*
X156539451Y-66159500D01*
X156360593Y-66187828D01*
X156188362Y-66243788D01*
X156027008Y-66326002D01*
X155968004Y-66368871D01*
X155880499Y-66432447D01*
X155880497Y-66432448D01*
X155880494Y-66432451D01*
X155756472Y-66556473D01*
X155701956Y-66584250D01*
X155641524Y-66574678D01*
X155616468Y-66556475D01*
X155606013Y-66546020D01*
X155606010Y-66546018D01*
X154843525Y-65783532D01*
X154836407Y-65769562D01*
X154825320Y-65758475D01*
X154822867Y-65742987D01*
X154815749Y-65729017D01*
X154818201Y-65713530D01*
X154815749Y-65698043D01*
X154822867Y-65684072D01*
X154825320Y-65668585D01*
X154843520Y-65643533D01*
X154967553Y-65519501D01*
X155073996Y-65372994D01*
X155156211Y-65211639D01*
X155212171Y-65039409D01*
X155228403Y-64936923D01*
X155240500Y-64860549D01*
X155240500Y-64679450D01*
X155216488Y-64527850D01*
X155212171Y-64500591D01*
X155156211Y-64328361D01*
X155073996Y-64167006D01*
X155044704Y-64126689D01*
X155025798Y-64068500D01*
X155044705Y-64010309D01*
X155094205Y-63974345D01*
X155124798Y-63969500D01*
X155595821Y-63969500D01*
X155654012Y-63988407D01*
X155689976Y-64037907D01*
X155689976Y-64099093D01*
X155675914Y-64126691D01*
X155646430Y-64167270D01*
X155564250Y-64328559D01*
X155508316Y-64500710D01*
X155480000Y-64679489D01*
X155480000Y-64860510D01*
X155508316Y-65039289D01*
X155564250Y-65211440D01*
X155646432Y-65372730D01*
X155657911Y-65388531D01*
X156147036Y-64899407D01*
X156164075Y-64962993D01*
X156229901Y-65077007D01*
X156322993Y-65170099D01*
X156437007Y-65235925D01*
X156500591Y-65252962D01*
X156011466Y-65742087D01*
X156027266Y-65753566D01*
X156188559Y-65835749D01*
X156360710Y-65891683D01*
X156539490Y-65920000D01*
X156720510Y-65920000D01*
X156899289Y-65891683D01*
X157071440Y-65835749D01*
X157232730Y-65753568D01*
X157232735Y-65753564D01*
X157248532Y-65742087D01*
X157248532Y-65742086D01*
X156759408Y-65252962D01*
X156822993Y-65235925D01*
X156937007Y-65170099D01*
X157030099Y-65077007D01*
X157095925Y-64962993D01*
X157112962Y-64899408D01*
X157602086Y-65388532D01*
X157602087Y-65388532D01*
X157613564Y-65372735D01*
X157613568Y-65372730D01*
X157695749Y-65211440D01*
X157752885Y-65035593D01*
X157754563Y-65036138D01*
X157783036Y-64989666D01*
X157839561Y-64966245D01*
X157899058Y-64980522D01*
X157917341Y-64994933D01*
X158471618Y-65549210D01*
X158471620Y-65549213D01*
X158546187Y-65623780D01*
X158580388Y-65643526D01*
X158620682Y-65666790D01*
X158620685Y-65666791D01*
X158620688Y-65666793D01*
X158637513Y-65676507D01*
X158739370Y-65703800D01*
X158739372Y-65703801D01*
X158739373Y-65703801D01*
X158850890Y-65703801D01*
X158850906Y-65703800D01*
X167925500Y-65703800D01*
X167983691Y-65722707D01*
X168019655Y-65772207D01*
X168024500Y-65802800D01*
X168024500Y-66154274D01*
X168027353Y-66184694D01*
X168027355Y-66184703D01*
X168072207Y-66312883D01*
X168152845Y-66422144D01*
X168152847Y-66422146D01*
X168152850Y-66422150D01*
X168152853Y-66422152D01*
X168152855Y-66422154D01*
X168262116Y-66502792D01*
X168262117Y-66502792D01*
X168262118Y-66502793D01*
X168390301Y-66547646D01*
X168420725Y-66550499D01*
X168420727Y-66550500D01*
X168420734Y-66550500D01*
X169055599Y-66550500D01*
X169113790Y-66569407D01*
X169125603Y-66579496D01*
X169329520Y-66783413D01*
X169329519Y-66783413D01*
X169367068Y-66820961D01*
X169404087Y-66857980D01*
X169495413Y-66910707D01*
X169597273Y-66938000D01*
X169702727Y-66938000D01*
X174390706Y-66938000D01*
X174448897Y-66956907D01*
X174482803Y-67000681D01*
X174540637Y-67147339D01*
X174540638Y-67147341D01*
X174540639Y-67147342D01*
X174632078Y-67267922D01*
X174752658Y-67359361D01*
X174752659Y-67359361D01*
X174752660Y-67359362D01*
X174794410Y-67375826D01*
X174893436Y-67414877D01*
X174981898Y-67425500D01*
X174981900Y-67425500D01*
X176018100Y-67425500D01*
X176018102Y-67425500D01*
X176106564Y-67414877D01*
X176247342Y-67359361D01*
X176367922Y-67267922D01*
X176459361Y-67147342D01*
X176514877Y-67006564D01*
X176514876Y-67006564D01*
X176517197Y-67000681D01*
X176556133Y-66953484D01*
X176609294Y-66938000D01*
X178490225Y-66938000D01*
X178490227Y-66938000D01*
X178592088Y-66910707D01*
X178592090Y-66910705D01*
X178592092Y-66910705D01*
X178683408Y-66857983D01*
X178683408Y-66857982D01*
X178683413Y-66857980D01*
X179513942Y-66027449D01*
X179568457Y-65999674D01*
X179595748Y-65999161D01*
X179606898Y-66000500D01*
X180343100Y-66000500D01*
X180343102Y-66000500D01*
X180431564Y-65989877D01*
X180572342Y-65934361D01*
X180692922Y-65842922D01*
X180784361Y-65722342D01*
X180839877Y-65581564D01*
X180850500Y-65493102D01*
X180850500Y-64506898D01*
X180839877Y-64418436D01*
X180784361Y-64277658D01*
X180692922Y-64157078D01*
X180572342Y-64065639D01*
X180572341Y-64065638D01*
X180572339Y-64065637D01*
X180431565Y-64010123D01*
X180343106Y-63999500D01*
X180343102Y-63999500D01*
X179606898Y-63999500D01*
X179606893Y-63999500D01*
X179518434Y-64010123D01*
X179377660Y-64065637D01*
X179377656Y-64065640D01*
X179257081Y-64157075D01*
X179257075Y-64157081D01*
X179165640Y-64277656D01*
X179165637Y-64277660D01*
X179110123Y-64418434D01*
X179099500Y-64506893D01*
X179099500Y-65268099D01*
X179080593Y-65326290D01*
X179070504Y-65338103D01*
X178300603Y-66108004D01*
X178246086Y-66135781D01*
X178230599Y-66137000D01*
X176609294Y-66137000D01*
X176551103Y-66118093D01*
X176517197Y-66074319D01*
X176459362Y-65927660D01*
X176459361Y-65927659D01*
X176459361Y-65927658D01*
X176367922Y-65807078D01*
X176247342Y-65715639D01*
X176247341Y-65715638D01*
X176247339Y-65715637D01*
X176106565Y-65660123D01*
X176018106Y-65649500D01*
X176018102Y-65649500D01*
X174981898Y-65649500D01*
X174981888Y-65649500D01*
X174955002Y-65652729D01*
X174894973Y-65640894D01*
X174853364Y-65596034D01*
X174844200Y-65554435D01*
X174844200Y-65417444D01*
X174836453Y-65388531D01*
X174803277Y-65264716D01*
X174724220Y-65127784D01*
X174612416Y-65015980D01*
X174475484Y-64936923D01*
X174322757Y-64896000D01*
X174164643Y-64896000D01*
X174011916Y-64936923D01*
X173911436Y-64994935D01*
X173874981Y-65015982D01*
X173823959Y-65067004D01*
X173769442Y-65094781D01*
X173753956Y-65096000D01*
X172074500Y-65096000D01*
X172016309Y-65077093D01*
X171980345Y-65027593D01*
X171975500Y-64997000D01*
X171975500Y-64795727D01*
X171975499Y-64795725D01*
X171973387Y-64773205D01*
X171972646Y-64765301D01*
X171927793Y-64637118D01*
X171926561Y-64635449D01*
X171847154Y-64527855D01*
X171847152Y-64527853D01*
X171847150Y-64527850D01*
X171847146Y-64527847D01*
X171847144Y-64527845D01*
X171737883Y-64447207D01*
X171609703Y-64402355D01*
X171609694Y-64402353D01*
X171579274Y-64399500D01*
X171579266Y-64399500D01*
X170295734Y-64399500D01*
X170295725Y-64399500D01*
X170265305Y-64402353D01*
X170265296Y-64402355D01*
X170137116Y-64447207D01*
X170027855Y-64527845D01*
X170027845Y-64527855D01*
X169947207Y-64637116D01*
X169902355Y-64765296D01*
X169902353Y-64765305D01*
X169899500Y-64795725D01*
X169899500Y-64803800D01*
X169880593Y-64861991D01*
X169831093Y-64897955D01*
X169800500Y-64902800D01*
X162596835Y-64902800D01*
X162538644Y-64883893D01*
X162502680Y-64834393D01*
X162502680Y-64773207D01*
X162538642Y-64723708D01*
X162542656Y-64720793D01*
X162720793Y-64542656D01*
X162868870Y-64338845D01*
X162983241Y-64114379D01*
X163061090Y-63874785D01*
X163076228Y-63779207D01*
X163100500Y-63625965D01*
X163100500Y-63374034D01*
X163061091Y-63125219D01*
X163061090Y-63125215D01*
X162983241Y-62885621D01*
X162868870Y-62661155D01*
X162720793Y-62457344D01*
X162542656Y-62279207D01*
X162338845Y-62131130D01*
X162338844Y-62131129D01*
X162338842Y-62131128D01*
X162114379Y-62016759D01*
X161874780Y-61938908D01*
X161625965Y-61899500D01*
X161625962Y-61899500D01*
X161374038Y-61899500D01*
X161374035Y-61899500D01*
X161125219Y-61938908D01*
X160885620Y-62016759D01*
X160661157Y-62131128D01*
X160457345Y-62279206D01*
X160279206Y-62457345D01*
X160131128Y-62661157D01*
X160016759Y-62885620D01*
X159938908Y-63125219D01*
X159899500Y-63374034D01*
X159899500Y-63625965D01*
X159938908Y-63874780D01*
X160016759Y-64114379D01*
X160125788Y-64328362D01*
X160131130Y-64338845D01*
X160279207Y-64542656D01*
X160457344Y-64720793D01*
X160457347Y-64720795D01*
X160457349Y-64720797D01*
X160461353Y-64723706D01*
X160497319Y-64773205D01*
X160497320Y-64834390D01*
X160461358Y-64883891D01*
X160403168Y-64902800D01*
X158999000Y-64902800D01*
X158940809Y-64883893D01*
X158928996Y-64873804D01*
X158138603Y-64083411D01*
X157303713Y-63248520D01*
X157303710Y-63248518D01*
X157303708Y-63248516D01*
X157212391Y-63195794D01*
X157212393Y-63195794D01*
X157172870Y-63185204D01*
X157110527Y-63168500D01*
X115436073Y-63168500D01*
X115334213Y-63195793D01*
X115334212Y-63195793D01*
X115334210Y-63195794D01*
X115334209Y-63195794D01*
X115242889Y-63248518D01*
X114469234Y-64022173D01*
X114414717Y-64049950D01*
X114354285Y-64040379D01*
X114329226Y-64022173D01*
X114327555Y-64020502D01*
X114327553Y-64020499D01*
X114199501Y-63892447D01*
X114052994Y-63786004D01*
X114052993Y-63786003D01*
X114052991Y-63786002D01*
X113891637Y-63703788D01*
X113719406Y-63647828D01*
X113540549Y-63619500D01*
X113540546Y-63619500D01*
X113359454Y-63619500D01*
X113359451Y-63619500D01*
X113180593Y-63647828D01*
X113008362Y-63703788D01*
X112847008Y-63786002D01*
X112773752Y-63839225D01*
X112700499Y-63892447D01*
X112572447Y-64020499D01*
X112526739Y-64083411D01*
X112466002Y-64167008D01*
X112383788Y-64328362D01*
X112327828Y-64500593D01*
X112299500Y-64679450D01*
X112299500Y-64860549D01*
X112327828Y-65039406D01*
X112383788Y-65211637D01*
X112466003Y-65372993D01*
X112466007Y-65372999D01*
X112513470Y-65438325D01*
X112531796Y-65463550D01*
X112545426Y-65482309D01*
X112564334Y-65540500D01*
X112545427Y-65598690D01*
X112495927Y-65634654D01*
X112465334Y-65639500D01*
X112232727Y-65639500D01*
X112127273Y-65639500D01*
X112077901Y-65652729D01*
X112025407Y-65666794D01*
X111934091Y-65719516D01*
X111934086Y-65719520D01*
X111438446Y-66215158D01*
X111383930Y-66242935D01*
X111337851Y-66239309D01*
X111179406Y-66187828D01*
X111000549Y-66159500D01*
X111000546Y-66159500D01*
X110819454Y-66159500D01*
X110819451Y-66159500D01*
X110640593Y-66187828D01*
X110468362Y-66243788D01*
X110307008Y-66326002D01*
X110259551Y-66360482D01*
X110160499Y-66432447D01*
X110032447Y-66560499D01*
X110018645Y-66579496D01*
X109926002Y-66707008D01*
X109899515Y-66758993D01*
X109850369Y-66855446D01*
X109807106Y-66898710D01*
X109762161Y-66909500D01*
X109517839Y-66909500D01*
X109459648Y-66890593D01*
X109429631Y-66855447D01*
X109353996Y-66707006D01*
X109247553Y-66560499D01*
X109119501Y-66432447D01*
X108972994Y-66326004D01*
X108972993Y-66326003D01*
X108972991Y-66326002D01*
X108901036Y-66289339D01*
X108811639Y-66243789D01*
X108811635Y-66243787D01*
X108811630Y-66243785D01*
X108788855Y-66236385D01*
X108739355Y-66200420D01*
X108720449Y-66142229D01*
X108725657Y-66110543D01*
X108728799Y-66101241D01*
X108743207Y-66076287D01*
X108766112Y-65990803D01*
X108767123Y-65987811D01*
X108783592Y-65965689D01*
X108798612Y-65942562D01*
X108801691Y-65941379D01*
X108803662Y-65938733D01*
X108829991Y-65930516D01*
X108855733Y-65920635D01*
X108860915Y-65920499D01*
X109264861Y-65920499D01*
X109264864Y-65920499D01*
X109289991Y-65917585D01*
X109392765Y-65872206D01*
X109472206Y-65792765D01*
X109517585Y-65689991D01*
X109520500Y-65664865D01*
X109520499Y-64679450D01*
X109759500Y-64679450D01*
X109759500Y-64860549D01*
X109787828Y-65039406D01*
X109843788Y-65211637D01*
X109893451Y-65309107D01*
X109926004Y-65372994D01*
X110032447Y-65519501D01*
X110160499Y-65647553D01*
X110307006Y-65753996D01*
X110468361Y-65836211D01*
X110640591Y-65892171D01*
X110686663Y-65899468D01*
X110819451Y-65920500D01*
X110819454Y-65920500D01*
X111000549Y-65920500D01*
X111089977Y-65906335D01*
X111179409Y-65892171D01*
X111351639Y-65836211D01*
X111512994Y-65753996D01*
X111659501Y-65647553D01*
X111787553Y-65519501D01*
X111893996Y-65372994D01*
X111976211Y-65211639D01*
X112032171Y-65039409D01*
X112048403Y-64936923D01*
X112060500Y-64860549D01*
X112060500Y-64679450D01*
X112036488Y-64527850D01*
X112032171Y-64500591D01*
X111976211Y-64328361D01*
X111893996Y-64167006D01*
X111787553Y-64020499D01*
X111659501Y-63892447D01*
X111512994Y-63786004D01*
X111512993Y-63786003D01*
X111512991Y-63786002D01*
X111351637Y-63703788D01*
X111179406Y-63647828D01*
X111000549Y-63619500D01*
X111000546Y-63619500D01*
X110819454Y-63619500D01*
X110819451Y-63619500D01*
X110640593Y-63647828D01*
X110468362Y-63703788D01*
X110307008Y-63786002D01*
X110233752Y-63839225D01*
X110160499Y-63892447D01*
X110032447Y-64020499D01*
X109986739Y-64083411D01*
X109926002Y-64167008D01*
X109843788Y-64328362D01*
X109787828Y-64500593D01*
X109759500Y-64679450D01*
X109520499Y-64679450D01*
X109520499Y-63875136D01*
X109517585Y-63850009D01*
X109472206Y-63747235D01*
X109392765Y-63667794D01*
X109289991Y-63622415D01*
X109289990Y-63622414D01*
X109289988Y-63622414D01*
X109264868Y-63619500D01*
X107475139Y-63619500D01*
X107475136Y-63619501D01*
X107450009Y-63622414D01*
X107347235Y-63667794D01*
X107267794Y-63747235D01*
X107222414Y-63850011D01*
X107219500Y-63875130D01*
X107219500Y-65664860D01*
X107219501Y-65664863D01*
X107222414Y-65689990D01*
X107240342Y-65730593D01*
X107267794Y-65792765D01*
X107347235Y-65872206D01*
X107366230Y-65880593D01*
X107411824Y-65921393D01*
X107424730Y-65981202D01*
X107400016Y-66037174D01*
X107396245Y-66041160D01*
X106841920Y-66595486D01*
X106841916Y-66595491D01*
X106789195Y-66686806D01*
X106789193Y-66686810D01*
X106789193Y-66686812D01*
X106772396Y-66749501D01*
X106761900Y-66788673D01*
X100500500Y-66788673D01*
X100500500Y-63374034D01*
X101899500Y-63374034D01*
X101899500Y-63625965D01*
X101938908Y-63874780D01*
X102016759Y-64114379D01*
X102125788Y-64328362D01*
X102131130Y-64338845D01*
X102279207Y-64542656D01*
X102457344Y-64720793D01*
X102661155Y-64868870D01*
X102885621Y-64983241D01*
X103125215Y-65061090D01*
X103125216Y-65061090D01*
X103125219Y-65061091D01*
X103374035Y-65100500D01*
X103374038Y-65100500D01*
X103625965Y-65100500D01*
X103874780Y-65061091D01*
X103874781Y-65061090D01*
X103874785Y-65061090D01*
X104114379Y-64983241D01*
X104338845Y-64868870D01*
X104542656Y-64720793D01*
X104720793Y-64542656D01*
X104868870Y-64338845D01*
X104983241Y-64114379D01*
X105061090Y-63874785D01*
X105076228Y-63779207D01*
X105100500Y-63625965D01*
X105100500Y-63374034D01*
X105061091Y-63125219D01*
X105061090Y-63125215D01*
X104983241Y-62885621D01*
X104868870Y-62661155D01*
X104720793Y-62457344D01*
X104542656Y-62279207D01*
X104338845Y-62131130D01*
X104338844Y-62131129D01*
X104338842Y-62131128D01*
X104114379Y-62016759D01*
X103874780Y-61938908D01*
X103625965Y-61899500D01*
X103625962Y-61899500D01*
X103374038Y-61899500D01*
X103374035Y-61899500D01*
X103125219Y-61938908D01*
X102885620Y-62016759D01*
X102661157Y-62131128D01*
X102457345Y-62279206D01*
X102279206Y-62457345D01*
X102131128Y-62661157D01*
X102016759Y-62885620D01*
X101938908Y-63125219D01*
X101899500Y-63374034D01*
X100500500Y-63374034D01*
X100500500Y-60599500D01*
X100519407Y-60541309D01*
X100568907Y-60505345D01*
X100599500Y-60500500D01*
X217400500Y-60500500D01*
X217458691Y-60519407D01*
G37*
%TD.AperFunction*%
%TD*%
%TA.AperFunction,NonConductor*%
G36*
X171101490Y-69207107D02*
G01*
X171113303Y-69217196D01*
X175045504Y-73149396D01*
X175073281Y-73203913D01*
X175074500Y-73219400D01*
X175074500Y-74018107D01*
X175077213Y-74040696D01*
X175065378Y-74100726D01*
X175020519Y-74142335D01*
X174978919Y-74151500D01*
X173810800Y-74151500D01*
X173752609Y-74132593D01*
X173740796Y-74122504D01*
X171548301Y-71930009D01*
X169288913Y-69670620D01*
X169288910Y-69670618D01*
X169288908Y-69670616D01*
X169197591Y-69617894D01*
X169197593Y-69617894D01*
X169153989Y-69606211D01*
X169095727Y-69590600D01*
X169095725Y-69590600D01*
X167272191Y-69590600D01*
X167214000Y-69571693D01*
X167178036Y-69522193D01*
X167176803Y-69475119D01*
X167175053Y-69474889D01*
X167175900Y-69468456D01*
X167175900Y-69310344D01*
X167175053Y-69303911D01*
X167177044Y-69303648D01*
X167179766Y-69251722D01*
X167218272Y-69204172D01*
X167272191Y-69188200D01*
X171043299Y-69188200D01*
X171101490Y-69207107D01*
G37*
%TD.AperFunction*%
%TA.AperFunction,NonConductor*%
G36*
X168894290Y-70410507D02*
G01*
X168906103Y-70420596D01*
X173283418Y-74797910D01*
X173283420Y-74797913D01*
X173357987Y-74872480D01*
X173357989Y-74872481D01*
X173433822Y-74916264D01*
X173474763Y-74961733D01*
X173481159Y-75022584D01*
X173450566Y-75075572D01*
X173394670Y-75100458D01*
X173384322Y-75101000D01*
X170141663Y-75101000D01*
X170083472Y-75082093D01*
X170047508Y-75032593D01*
X170047508Y-74971407D01*
X170059347Y-74946999D01*
X170073013Y-74926547D01*
X170140894Y-74762666D01*
X170175500Y-74588691D01*
X170175500Y-74411309D01*
X170140894Y-74237334D01*
X170093330Y-74122504D01*
X170073014Y-74073455D01*
X170073014Y-74073454D01*
X169974464Y-73925965D01*
X169849034Y-73800535D01*
X169701544Y-73701985D01*
X169537666Y-73634106D01*
X169363693Y-73599500D01*
X169363691Y-73599500D01*
X168636309Y-73599500D01*
X168636306Y-73599500D01*
X168462334Y-73634106D01*
X168462332Y-73634106D01*
X168298455Y-73701985D01*
X168298454Y-73701985D01*
X168150965Y-73800535D01*
X168025535Y-73925965D01*
X167926985Y-74073454D01*
X167926985Y-74073455D01*
X167859106Y-74237332D01*
X167859105Y-74237335D01*
X167857016Y-74247838D01*
X167827116Y-74301220D01*
X167771549Y-74326833D01*
X167711540Y-74314892D01*
X167689915Y-74298522D01*
X166296738Y-72905345D01*
X164899413Y-71508020D01*
X164899410Y-71508018D01*
X164899409Y-71508017D01*
X164899408Y-71508016D01*
X164808091Y-71455294D01*
X164808093Y-71455294D01*
X164768570Y-71444704D01*
X164706227Y-71428000D01*
X164706225Y-71428000D01*
X123255401Y-71428000D01*
X123197210Y-71409093D01*
X123185397Y-71399004D01*
X122470591Y-70684198D01*
X122442814Y-70629681D01*
X122452385Y-70569249D01*
X122495650Y-70525984D01*
X122514961Y-70518571D01*
X122641084Y-70484777D01*
X122778016Y-70405720D01*
X122778017Y-70405718D01*
X122779499Y-70404863D01*
X122828999Y-70391600D01*
X168836099Y-70391600D01*
X168894290Y-70410507D01*
G37*
%TD.AperFunction*%
M02*
