%TF.GenerationSoftware,KiCad,Pcbnew,9.0.2+dfsg-1*%
%TF.CreationDate,2026-07-31T08:33:59+02:00*%
%TF.ProjectId,AskSin-Analyzer-V3,41736b53-696e-42d4-916e-616c797a6572,rev?*%
%TF.SameCoordinates,Original*%
%TF.FileFunction,Soldermask,Bot*%
%TF.FilePolarity,Negative*%
%FSLAX46Y46*%
G04 Gerber Fmt 4.6, Leading zero omitted, Abs format (unit mm)*
G04 Created by KiCad (PCBNEW 9.0.2+dfsg-1) date 2026-07-31 08:33:59*
%MOMM*%
%LPD*%
G01*
G04 APERTURE LIST*
G04 Aperture macros list*
%AMRoundRect*
0 Rectangle with rounded corners*
0 $1 Rounding radius*
0 $2 $3 $4 $5 $6 $7 $8 $9 X,Y pos of 4 corners*
0 Add a 4 corners polygon primitive as box body*
4,1,4,$2,$3,$4,$5,$6,$7,$8,$9,$2,$3,0*
0 Add four circle primitives for the rounded corners*
1,1,$1+$1,$2,$3*
1,1,$1+$1,$4,$5*
1,1,$1+$1,$6,$7*
1,1,$1+$1,$8,$9*
0 Add four rect primitives between the rounded corners*
20,1,$1+$1,$2,$3,$4,$5,0*
20,1,$1+$1,$4,$5,$6,$7,0*
20,1,$1+$1,$6,$7,$8,$9,0*
20,1,$1+$1,$8,$9,$2,$3,0*%
G04 Aperture macros list end*
%ADD10C,2.700000*%
%ADD11C,0.800000*%
%ADD12R,1.700000X1.700000*%
%ADD13C,1.700000*%
%ADD14C,2.100000*%
%ADD15RoundRect,0.250000X-0.350000X-0.625000X0.350000X-0.625000X0.350000X0.625000X-0.350000X0.625000X0*%
%ADD16O,1.200000X1.750000*%
%ADD17C,0.900000*%
G04 APERTURE END LIST*
D10*
%TO.C,MH4*%
X128000000Y-131000000D03*
%TD*%
%TO.C,MH1*%
X135500000Y-83500000D03*
%TD*%
D11*
%TO.C,S1*%
X152000000Y-71000000D03*
%TD*%
D12*
%TO.C,J2*%
X125000000Y-116000000D03*
D13*
X127540000Y-116000000D03*
X125000000Y-118540000D03*
X127540000Y-118540000D03*
X125000000Y-121080000D03*
X127540000Y-121080000D03*
%TD*%
D10*
%TO.C,MH2*%
X193500000Y-83500000D03*
%TD*%
D14*
%TO.C,KB1*%
X110000000Y-107000000D03*
%TD*%
%TO.C,KB2*%
X115500000Y-107000000D03*
%TD*%
D10*
%TO.C,MH5*%
X197000000Y-76500000D03*
%TD*%
D15*
%TO.C,J5*%
X186500000Y-63500000D03*
D16*
X188500000Y-63500000D03*
X190500000Y-63500000D03*
X192500000Y-63500000D03*
%TD*%
D13*
%TO.C,Y1*%
X120000000Y-64000000D03*
X122500000Y-64000000D03*
X125000000Y-64000000D03*
%TD*%
D15*
%TO.C,J7*%
X187000000Y-76000000D03*
D16*
X189000000Y-76000000D03*
X191000000Y-76000000D03*
%TD*%
D17*
%TO.C,SW1*%
X167400000Y-65000000D03*
X160600000Y-65000000D03*
%TD*%
D15*
%TO.C,J6*%
X188000000Y-70000000D03*
D16*
X190000000Y-70000000D03*
%TD*%
D10*
%TO.C,MH3*%
X135500000Y-132500000D03*
%TD*%
D12*
%TO.C,J1*%
X140370000Y-84770000D03*
D13*
X140370000Y-82230000D03*
X142910000Y-84770000D03*
X142910000Y-82230000D03*
X145450000Y-84770000D03*
X145450000Y-82230000D03*
X147990000Y-84770000D03*
X147990000Y-82230000D03*
X150530000Y-84770000D03*
X150530000Y-82230000D03*
X153070000Y-84770000D03*
X153070000Y-82230000D03*
X155610000Y-84770000D03*
X155610000Y-82230000D03*
X158150000Y-84770000D03*
X158150000Y-82230000D03*
X160690000Y-84770000D03*
X160690000Y-82230000D03*
X163230000Y-84770000D03*
X163230000Y-82230000D03*
X165770000Y-84770000D03*
X165770000Y-82230000D03*
X168310000Y-84770000D03*
X168310000Y-82230000D03*
X170850000Y-84770000D03*
X170850000Y-82230000D03*
X173390000Y-84770000D03*
X173390000Y-82230000D03*
X175930000Y-84770000D03*
X175930000Y-82230000D03*
X178470000Y-84770000D03*
X178470000Y-82230000D03*
X181010000Y-84770000D03*
X181010000Y-82230000D03*
X183550000Y-84770000D03*
X183550000Y-82230000D03*
X186090000Y-84770000D03*
X186090000Y-82230000D03*
X188630000Y-84770000D03*
X188630000Y-82230000D03*
%TD*%
M02*
