%TF.GenerationSoftware,KiCad,Pcbnew,9.0.2+dfsg-1*%
%TF.CreationDate,2026-07-30T20:32:04+02:00*%
%TF.ProjectId,AskSin-Analyzer-V3,41736b53-696e-42d4-916e-616c797a6572,rev?*%
%TF.SameCoordinates,Original*%
%TF.FileFunction,Legend,Top*%
%TF.FilePolarity,Positive*%
%FSLAX46Y46*%
G04 Gerber Fmt 4.6, Leading zero omitted, Abs format (unit mm)*
G04 Created by KiCad (PCBNEW 9.0.2+dfsg-1) date 2026-07-30 20:32:04*
%MOMM*%
%LPD*%
G01*
G04 APERTURE LIST*
%ADD10C,0.120000*%
G04 APERTURE END LIST*
D10*
X168990476Y-92858855D02*
X169447619Y-92858855D01*
X169219047Y-93658855D02*
X169219047Y-92858855D01*
X169714286Y-93658855D02*
X169714286Y-92858855D01*
X169714286Y-92858855D02*
X170019048Y-92858855D01*
X170019048Y-92858855D02*
X170095238Y-92896950D01*
X170095238Y-92896950D02*
X170133333Y-92935045D01*
X170133333Y-92935045D02*
X170171429Y-93011236D01*
X170171429Y-93011236D02*
X170171429Y-93125521D01*
X170171429Y-93125521D02*
X170133333Y-93201712D01*
X170133333Y-93201712D02*
X170095238Y-93239807D01*
X170095238Y-93239807D02*
X170019048Y-93277902D01*
X170019048Y-93277902D02*
X169714286Y-93277902D01*
X170628571Y-93201712D02*
X170552381Y-93163617D01*
X170552381Y-93163617D02*
X170514286Y-93125521D01*
X170514286Y-93125521D02*
X170476190Y-93049331D01*
X170476190Y-93049331D02*
X170476190Y-93011236D01*
X170476190Y-93011236D02*
X170514286Y-92935045D01*
X170514286Y-92935045D02*
X170552381Y-92896950D01*
X170552381Y-92896950D02*
X170628571Y-92858855D01*
X170628571Y-92858855D02*
X170780952Y-92858855D01*
X170780952Y-92858855D02*
X170857143Y-92896950D01*
X170857143Y-92896950D02*
X170895238Y-92935045D01*
X170895238Y-92935045D02*
X170933333Y-93011236D01*
X170933333Y-93011236D02*
X170933333Y-93049331D01*
X170933333Y-93049331D02*
X170895238Y-93125521D01*
X170895238Y-93125521D02*
X170857143Y-93163617D01*
X170857143Y-93163617D02*
X170780952Y-93201712D01*
X170780952Y-93201712D02*
X170628571Y-93201712D01*
X170628571Y-93201712D02*
X170552381Y-93239807D01*
X170552381Y-93239807D02*
X170514286Y-93277902D01*
X170514286Y-93277902D02*
X170476190Y-93354093D01*
X170476190Y-93354093D02*
X170476190Y-93506474D01*
X170476190Y-93506474D02*
X170514286Y-93582664D01*
X170514286Y-93582664D02*
X170552381Y-93620760D01*
X170552381Y-93620760D02*
X170628571Y-93658855D01*
X170628571Y-93658855D02*
X170780952Y-93658855D01*
X170780952Y-93658855D02*
X170857143Y-93620760D01*
X170857143Y-93620760D02*
X170895238Y-93582664D01*
X170895238Y-93582664D02*
X170933333Y-93506474D01*
X170933333Y-93506474D02*
X170933333Y-93354093D01*
X170933333Y-93354093D02*
X170895238Y-93277902D01*
X170895238Y-93277902D02*
X170857143Y-93239807D01*
X170857143Y-93239807D02*
X170780952Y-93201712D01*
X177783333Y-73318855D02*
X177783333Y-73890283D01*
X177783333Y-73890283D02*
X177745238Y-74004569D01*
X177745238Y-74004569D02*
X177669047Y-74080760D01*
X177669047Y-74080760D02*
X177554762Y-74118855D01*
X177554762Y-74118855D02*
X177478571Y-74118855D01*
X178507143Y-73318855D02*
X178354762Y-73318855D01*
X178354762Y-73318855D02*
X178278571Y-73356950D01*
X178278571Y-73356950D02*
X178240476Y-73395045D01*
X178240476Y-73395045D02*
X178164286Y-73509331D01*
X178164286Y-73509331D02*
X178126190Y-73661712D01*
X178126190Y-73661712D02*
X178126190Y-73966474D01*
X178126190Y-73966474D02*
X178164286Y-74042664D01*
X178164286Y-74042664D02*
X178202381Y-74080760D01*
X178202381Y-74080760D02*
X178278571Y-74118855D01*
X178278571Y-74118855D02*
X178430952Y-74118855D01*
X178430952Y-74118855D02*
X178507143Y-74080760D01*
X178507143Y-74080760D02*
X178545238Y-74042664D01*
X178545238Y-74042664D02*
X178583333Y-73966474D01*
X178583333Y-73966474D02*
X178583333Y-73775998D01*
X178583333Y-73775998D02*
X178545238Y-73699807D01*
X178545238Y-73699807D02*
X178507143Y-73661712D01*
X178507143Y-73661712D02*
X178430952Y-73623617D01*
X178430952Y-73623617D02*
X178278571Y-73623617D01*
X178278571Y-73623617D02*
X178202381Y-73661712D01*
X178202381Y-73661712D02*
X178164286Y-73699807D01*
X178164286Y-73699807D02*
X178126190Y-73775998D01*
X109710781Y-86721371D02*
X109710781Y-85921371D01*
X110167924Y-86721371D02*
X109825066Y-86264228D01*
X110167924Y-85921371D02*
X109710781Y-86378514D01*
X110777447Y-86302323D02*
X110891733Y-86340418D01*
X110891733Y-86340418D02*
X110929828Y-86378514D01*
X110929828Y-86378514D02*
X110967924Y-86454704D01*
X110967924Y-86454704D02*
X110967924Y-86568990D01*
X110967924Y-86568990D02*
X110929828Y-86645180D01*
X110929828Y-86645180D02*
X110891733Y-86683276D01*
X110891733Y-86683276D02*
X110815543Y-86721371D01*
X110815543Y-86721371D02*
X110510781Y-86721371D01*
X110510781Y-86721371D02*
X110510781Y-85921371D01*
X110510781Y-85921371D02*
X110777447Y-85921371D01*
X110777447Y-85921371D02*
X110853638Y-85959466D01*
X110853638Y-85959466D02*
X110891733Y-85997561D01*
X110891733Y-85997561D02*
X110929828Y-86073752D01*
X110929828Y-86073752D02*
X110929828Y-86149942D01*
X110929828Y-86149942D02*
X110891733Y-86226133D01*
X110891733Y-86226133D02*
X110853638Y-86264228D01*
X110853638Y-86264228D02*
X110777447Y-86302323D01*
X110777447Y-86302323D02*
X110510781Y-86302323D01*
X111729828Y-86721371D02*
X111272685Y-86721371D01*
X111501257Y-86721371D02*
X111501257Y-85921371D01*
X111501257Y-85921371D02*
X111425066Y-86035656D01*
X111425066Y-86035656D02*
X111348876Y-86111847D01*
X111348876Y-86111847D02*
X111272685Y-86149942D01*
X166866666Y-63618854D02*
X166485714Y-63618854D01*
X166485714Y-63618854D02*
X166485714Y-62818854D01*
X167552380Y-63618854D02*
X167095237Y-63618854D01*
X167323809Y-63618854D02*
X167323809Y-62818854D01*
X167323809Y-62818854D02*
X167247618Y-62933139D01*
X167247618Y-62933139D02*
X167171428Y-63009330D01*
X167171428Y-63009330D02*
X167095237Y-63047425D01*
X151008333Y-74998855D02*
X151008333Y-75570283D01*
X151008333Y-75570283D02*
X150970238Y-75684569D01*
X150970238Y-75684569D02*
X150894047Y-75760760D01*
X150894047Y-75760760D02*
X150779762Y-75798855D01*
X150779762Y-75798855D02*
X150703571Y-75798855D01*
X151351190Y-75075045D02*
X151389286Y-75036950D01*
X151389286Y-75036950D02*
X151465476Y-74998855D01*
X151465476Y-74998855D02*
X151655952Y-74998855D01*
X151655952Y-74998855D02*
X151732143Y-75036950D01*
X151732143Y-75036950D02*
X151770238Y-75075045D01*
X151770238Y-75075045D02*
X151808333Y-75151236D01*
X151808333Y-75151236D02*
X151808333Y-75227426D01*
X151808333Y-75227426D02*
X151770238Y-75341712D01*
X151770238Y-75341712D02*
X151313095Y-75798855D01*
X151313095Y-75798855D02*
X151808333Y-75798855D01*
X177783333Y-91308855D02*
X177783333Y-91880283D01*
X177783333Y-91880283D02*
X177745238Y-91994569D01*
X177745238Y-91994569D02*
X177669047Y-92070760D01*
X177669047Y-92070760D02*
X177554762Y-92108855D01*
X177554762Y-92108855D02*
X177478571Y-92108855D01*
X178088095Y-91308855D02*
X178621429Y-91308855D01*
X178621429Y-91308855D02*
X178278571Y-92108855D01*
X135390476Y-72618855D02*
X135390476Y-73266474D01*
X135390476Y-73266474D02*
X135428571Y-73342664D01*
X135428571Y-73342664D02*
X135466666Y-73380760D01*
X135466666Y-73380760D02*
X135542857Y-73418855D01*
X135542857Y-73418855D02*
X135695238Y-73418855D01*
X135695238Y-73418855D02*
X135771428Y-73380760D01*
X135771428Y-73380760D02*
X135809523Y-73342664D01*
X135809523Y-73342664D02*
X135847619Y-73266474D01*
X135847619Y-73266474D02*
X135847619Y-72618855D01*
X136190475Y-72695045D02*
X136228571Y-72656950D01*
X136228571Y-72656950D02*
X136304761Y-72618855D01*
X136304761Y-72618855D02*
X136495237Y-72618855D01*
X136495237Y-72618855D02*
X136571428Y-72656950D01*
X136571428Y-72656950D02*
X136609523Y-72695045D01*
X136609523Y-72695045D02*
X136647618Y-72771236D01*
X136647618Y-72771236D02*
X136647618Y-72847426D01*
X136647618Y-72847426D02*
X136609523Y-72961712D01*
X136609523Y-72961712D02*
X136152380Y-73418855D01*
X136152380Y-73418855D02*
X136647618Y-73418855D01*
X102434580Y-87116364D02*
X102434580Y-86316364D01*
X102434580Y-86316364D02*
X102701246Y-86887792D01*
X102701246Y-86887792D02*
X102967913Y-86316364D01*
X102967913Y-86316364D02*
X102967913Y-87116364D01*
X103348866Y-87116364D02*
X103348866Y-86316364D01*
X103348866Y-86697316D02*
X103806009Y-86697316D01*
X103806009Y-87116364D02*
X103806009Y-86316364D01*
X104110770Y-86316364D02*
X104606008Y-86316364D01*
X104606008Y-86316364D02*
X104339342Y-86621126D01*
X104339342Y-86621126D02*
X104453627Y-86621126D01*
X104453627Y-86621126D02*
X104529818Y-86659221D01*
X104529818Y-86659221D02*
X104567913Y-86697316D01*
X104567913Y-86697316D02*
X104606008Y-86773507D01*
X104606008Y-86773507D02*
X104606008Y-86963983D01*
X104606008Y-86963983D02*
X104567913Y-87040173D01*
X104567913Y-87040173D02*
X104529818Y-87078269D01*
X104529818Y-87078269D02*
X104453627Y-87116364D01*
X104453627Y-87116364D02*
X104225056Y-87116364D01*
X104225056Y-87116364D02*
X104148865Y-87078269D01*
X104148865Y-87078269D02*
X104110770Y-87040173D01*
X155390476Y-62068855D02*
X155390476Y-62716474D01*
X155390476Y-62716474D02*
X155428571Y-62792664D01*
X155428571Y-62792664D02*
X155466666Y-62830760D01*
X155466666Y-62830760D02*
X155542857Y-62868855D01*
X155542857Y-62868855D02*
X155695238Y-62868855D01*
X155695238Y-62868855D02*
X155771428Y-62830760D01*
X155771428Y-62830760D02*
X155809523Y-62792664D01*
X155809523Y-62792664D02*
X155847619Y-62716474D01*
X155847619Y-62716474D02*
X155847619Y-62068855D01*
X156647618Y-62868855D02*
X156190475Y-62868855D01*
X156419047Y-62868855D02*
X156419047Y-62068855D01*
X156419047Y-62068855D02*
X156342856Y-62183140D01*
X156342856Y-62183140D02*
X156266666Y-62259331D01*
X156266666Y-62259331D02*
X156190475Y-62297426D01*
X142866667Y-81112664D02*
X142828571Y-81150760D01*
X142828571Y-81150760D02*
X142714286Y-81188855D01*
X142714286Y-81188855D02*
X142638095Y-81188855D01*
X142638095Y-81188855D02*
X142523809Y-81150760D01*
X142523809Y-81150760D02*
X142447619Y-81074569D01*
X142447619Y-81074569D02*
X142409524Y-80998379D01*
X142409524Y-80998379D02*
X142371428Y-80845998D01*
X142371428Y-80845998D02*
X142371428Y-80731712D01*
X142371428Y-80731712D02*
X142409524Y-80579331D01*
X142409524Y-80579331D02*
X142447619Y-80503140D01*
X142447619Y-80503140D02*
X142523809Y-80426950D01*
X142523809Y-80426950D02*
X142638095Y-80388855D01*
X142638095Y-80388855D02*
X142714286Y-80388855D01*
X142714286Y-80388855D02*
X142828571Y-80426950D01*
X142828571Y-80426950D02*
X142866667Y-80465045D01*
X143247619Y-81188855D02*
X143400000Y-81188855D01*
X143400000Y-81188855D02*
X143476190Y-81150760D01*
X143476190Y-81150760D02*
X143514286Y-81112664D01*
X143514286Y-81112664D02*
X143590476Y-80998379D01*
X143590476Y-80998379D02*
X143628571Y-80845998D01*
X143628571Y-80845998D02*
X143628571Y-80541236D01*
X143628571Y-80541236D02*
X143590476Y-80465045D01*
X143590476Y-80465045D02*
X143552381Y-80426950D01*
X143552381Y-80426950D02*
X143476190Y-80388855D01*
X143476190Y-80388855D02*
X143323809Y-80388855D01*
X143323809Y-80388855D02*
X143247619Y-80426950D01*
X143247619Y-80426950D02*
X143209524Y-80465045D01*
X143209524Y-80465045D02*
X143171428Y-80541236D01*
X143171428Y-80541236D02*
X143171428Y-80731712D01*
X143171428Y-80731712D02*
X143209524Y-80807902D01*
X143209524Y-80807902D02*
X143247619Y-80845998D01*
X143247619Y-80845998D02*
X143323809Y-80884093D01*
X143323809Y-80884093D02*
X143476190Y-80884093D01*
X143476190Y-80884093D02*
X143552381Y-80845998D01*
X143552381Y-80845998D02*
X143590476Y-80807902D01*
X143590476Y-80807902D02*
X143628571Y-80731712D01*
X145490476Y-62268855D02*
X145947619Y-62268855D01*
X145719047Y-63068855D02*
X145719047Y-62268855D01*
X146214286Y-63068855D02*
X146214286Y-62268855D01*
X146214286Y-62268855D02*
X146519048Y-62268855D01*
X146519048Y-62268855D02*
X146595238Y-62306950D01*
X146595238Y-62306950D02*
X146633333Y-62345045D01*
X146633333Y-62345045D02*
X146671429Y-62421236D01*
X146671429Y-62421236D02*
X146671429Y-62535521D01*
X146671429Y-62535521D02*
X146633333Y-62611712D01*
X146633333Y-62611712D02*
X146595238Y-62649807D01*
X146595238Y-62649807D02*
X146519048Y-62687902D01*
X146519048Y-62687902D02*
X146214286Y-62687902D01*
X147433333Y-63068855D02*
X146976190Y-63068855D01*
X147204762Y-63068855D02*
X147204762Y-62268855D01*
X147204762Y-62268855D02*
X147128571Y-62383140D01*
X147128571Y-62383140D02*
X147052381Y-62459331D01*
X147052381Y-62459331D02*
X146976190Y-62497426D01*
X142866667Y-72112664D02*
X142828571Y-72150760D01*
X142828571Y-72150760D02*
X142714286Y-72188855D01*
X142714286Y-72188855D02*
X142638095Y-72188855D01*
X142638095Y-72188855D02*
X142523809Y-72150760D01*
X142523809Y-72150760D02*
X142447619Y-72074569D01*
X142447619Y-72074569D02*
X142409524Y-71998379D01*
X142409524Y-71998379D02*
X142371428Y-71845998D01*
X142371428Y-71845998D02*
X142371428Y-71731712D01*
X142371428Y-71731712D02*
X142409524Y-71579331D01*
X142409524Y-71579331D02*
X142447619Y-71503140D01*
X142447619Y-71503140D02*
X142523809Y-71426950D01*
X142523809Y-71426950D02*
X142638095Y-71388855D01*
X142638095Y-71388855D02*
X142714286Y-71388855D01*
X142714286Y-71388855D02*
X142828571Y-71426950D01*
X142828571Y-71426950D02*
X142866667Y-71465045D01*
X143552381Y-71655521D02*
X143552381Y-72188855D01*
X143361905Y-71350760D02*
X143171428Y-71922188D01*
X143171428Y-71922188D02*
X143666667Y-71922188D01*
X122434580Y-94116364D02*
X122434580Y-93316364D01*
X122434580Y-93316364D02*
X122701246Y-93887792D01*
X122701246Y-93887792D02*
X122967913Y-93316364D01*
X122967913Y-93316364D02*
X122967913Y-94116364D01*
X123348866Y-94116364D02*
X123348866Y-93316364D01*
X123348866Y-93697316D02*
X123806009Y-93697316D01*
X123806009Y-94116364D02*
X123806009Y-93316364D01*
X124606008Y-94116364D02*
X124148865Y-94116364D01*
X124377437Y-94116364D02*
X124377437Y-93316364D01*
X124377437Y-93316364D02*
X124301246Y-93430649D01*
X124301246Y-93430649D02*
X124225056Y-93506840D01*
X124225056Y-93506840D02*
X124148865Y-93544935D01*
X162990476Y-89268855D02*
X163447619Y-89268855D01*
X163219047Y-90068855D02*
X163219047Y-89268855D01*
X163714286Y-90068855D02*
X163714286Y-89268855D01*
X163714286Y-89268855D02*
X164019048Y-89268855D01*
X164019048Y-89268855D02*
X164095238Y-89306950D01*
X164095238Y-89306950D02*
X164133333Y-89345045D01*
X164133333Y-89345045D02*
X164171429Y-89421236D01*
X164171429Y-89421236D02*
X164171429Y-89535521D01*
X164171429Y-89535521D02*
X164133333Y-89611712D01*
X164133333Y-89611712D02*
X164095238Y-89649807D01*
X164095238Y-89649807D02*
X164019048Y-89687902D01*
X164019048Y-89687902D02*
X163714286Y-89687902D01*
X164857143Y-89268855D02*
X164704762Y-89268855D01*
X164704762Y-89268855D02*
X164628571Y-89306950D01*
X164628571Y-89306950D02*
X164590476Y-89345045D01*
X164590476Y-89345045D02*
X164514286Y-89459331D01*
X164514286Y-89459331D02*
X164476190Y-89611712D01*
X164476190Y-89611712D02*
X164476190Y-89916474D01*
X164476190Y-89916474D02*
X164514286Y-89992664D01*
X164514286Y-89992664D02*
X164552381Y-90030760D01*
X164552381Y-90030760D02*
X164628571Y-90068855D01*
X164628571Y-90068855D02*
X164780952Y-90068855D01*
X164780952Y-90068855D02*
X164857143Y-90030760D01*
X164857143Y-90030760D02*
X164895238Y-89992664D01*
X164895238Y-89992664D02*
X164933333Y-89916474D01*
X164933333Y-89916474D02*
X164933333Y-89725998D01*
X164933333Y-89725998D02*
X164895238Y-89649807D01*
X164895238Y-89649807D02*
X164857143Y-89611712D01*
X164857143Y-89611712D02*
X164780952Y-89573617D01*
X164780952Y-89573617D02*
X164628571Y-89573617D01*
X164628571Y-89573617D02*
X164552381Y-89611712D01*
X164552381Y-89611712D02*
X164514286Y-89649807D01*
X164514286Y-89649807D02*
X164476190Y-89725998D01*
X159990476Y-89268855D02*
X160447619Y-89268855D01*
X160219047Y-90068855D02*
X160219047Y-89268855D01*
X160714286Y-90068855D02*
X160714286Y-89268855D01*
X160714286Y-89268855D02*
X161019048Y-89268855D01*
X161019048Y-89268855D02*
X161095238Y-89306950D01*
X161095238Y-89306950D02*
X161133333Y-89345045D01*
X161133333Y-89345045D02*
X161171429Y-89421236D01*
X161171429Y-89421236D02*
X161171429Y-89535521D01*
X161171429Y-89535521D02*
X161133333Y-89611712D01*
X161133333Y-89611712D02*
X161095238Y-89649807D01*
X161095238Y-89649807D02*
X161019048Y-89687902D01*
X161019048Y-89687902D02*
X160714286Y-89687902D01*
X161895238Y-89268855D02*
X161514286Y-89268855D01*
X161514286Y-89268855D02*
X161476190Y-89649807D01*
X161476190Y-89649807D02*
X161514286Y-89611712D01*
X161514286Y-89611712D02*
X161590476Y-89573617D01*
X161590476Y-89573617D02*
X161780952Y-89573617D01*
X161780952Y-89573617D02*
X161857143Y-89611712D01*
X161857143Y-89611712D02*
X161895238Y-89649807D01*
X161895238Y-89649807D02*
X161933333Y-89725998D01*
X161933333Y-89725998D02*
X161933333Y-89916474D01*
X161933333Y-89916474D02*
X161895238Y-89992664D01*
X161895238Y-89992664D02*
X161857143Y-90030760D01*
X161857143Y-90030760D02*
X161780952Y-90068855D01*
X161780952Y-90068855D02*
X161590476Y-90068855D01*
X161590476Y-90068855D02*
X161514286Y-90030760D01*
X161514286Y-90030760D02*
X161476190Y-89992664D01*
X171866667Y-87118855D02*
X171600000Y-86737902D01*
X171409524Y-87118855D02*
X171409524Y-86318855D01*
X171409524Y-86318855D02*
X171714286Y-86318855D01*
X171714286Y-86318855D02*
X171790476Y-86356950D01*
X171790476Y-86356950D02*
X171828571Y-86395045D01*
X171828571Y-86395045D02*
X171866667Y-86471236D01*
X171866667Y-86471236D02*
X171866667Y-86585521D01*
X171866667Y-86585521D02*
X171828571Y-86661712D01*
X171828571Y-86661712D02*
X171790476Y-86699807D01*
X171790476Y-86699807D02*
X171714286Y-86737902D01*
X171714286Y-86737902D02*
X171409524Y-86737902D01*
X172552381Y-86585521D02*
X172552381Y-87118855D01*
X172361905Y-86280760D02*
X172171428Y-86852188D01*
X172171428Y-86852188D02*
X172666667Y-86852188D01*
X172366667Y-63112664D02*
X172328571Y-63150760D01*
X172328571Y-63150760D02*
X172214286Y-63188855D01*
X172214286Y-63188855D02*
X172138095Y-63188855D01*
X172138095Y-63188855D02*
X172023809Y-63150760D01*
X172023809Y-63150760D02*
X171947619Y-63074569D01*
X171947619Y-63074569D02*
X171909524Y-62998379D01*
X171909524Y-62998379D02*
X171871428Y-62845998D01*
X171871428Y-62845998D02*
X171871428Y-62731712D01*
X171871428Y-62731712D02*
X171909524Y-62579331D01*
X171909524Y-62579331D02*
X171947619Y-62503140D01*
X171947619Y-62503140D02*
X172023809Y-62426950D01*
X172023809Y-62426950D02*
X172138095Y-62388855D01*
X172138095Y-62388855D02*
X172214286Y-62388855D01*
X172214286Y-62388855D02*
X172328571Y-62426950D01*
X172328571Y-62426950D02*
X172366667Y-62465045D01*
X172671428Y-62465045D02*
X172709524Y-62426950D01*
X172709524Y-62426950D02*
X172785714Y-62388855D01*
X172785714Y-62388855D02*
X172976190Y-62388855D01*
X172976190Y-62388855D02*
X173052381Y-62426950D01*
X173052381Y-62426950D02*
X173090476Y-62465045D01*
X173090476Y-62465045D02*
X173128571Y-62541236D01*
X173128571Y-62541236D02*
X173128571Y-62617426D01*
X173128571Y-62617426D02*
X173090476Y-62731712D01*
X173090476Y-62731712D02*
X172633333Y-63188855D01*
X172633333Y-63188855D02*
X173128571Y-63188855D01*
X115210781Y-86721371D02*
X115210781Y-85921371D01*
X115667924Y-86721371D02*
X115325066Y-86264228D01*
X115667924Y-85921371D02*
X115210781Y-86378514D01*
X116277447Y-86302323D02*
X116391733Y-86340418D01*
X116391733Y-86340418D02*
X116429828Y-86378514D01*
X116429828Y-86378514D02*
X116467924Y-86454704D01*
X116467924Y-86454704D02*
X116467924Y-86568990D01*
X116467924Y-86568990D02*
X116429828Y-86645180D01*
X116429828Y-86645180D02*
X116391733Y-86683276D01*
X116391733Y-86683276D02*
X116315543Y-86721371D01*
X116315543Y-86721371D02*
X116010781Y-86721371D01*
X116010781Y-86721371D02*
X116010781Y-85921371D01*
X116010781Y-85921371D02*
X116277447Y-85921371D01*
X116277447Y-85921371D02*
X116353638Y-85959466D01*
X116353638Y-85959466D02*
X116391733Y-85997561D01*
X116391733Y-85997561D02*
X116429828Y-86073752D01*
X116429828Y-86073752D02*
X116429828Y-86149942D01*
X116429828Y-86149942D02*
X116391733Y-86226133D01*
X116391733Y-86226133D02*
X116353638Y-86264228D01*
X116353638Y-86264228D02*
X116277447Y-86302323D01*
X116277447Y-86302323D02*
X116010781Y-86302323D01*
X116772685Y-85997561D02*
X116810781Y-85959466D01*
X116810781Y-85959466D02*
X116886971Y-85921371D01*
X116886971Y-85921371D02*
X117077447Y-85921371D01*
X117077447Y-85921371D02*
X117153638Y-85959466D01*
X117153638Y-85959466D02*
X117191733Y-85997561D01*
X117191733Y-85997561D02*
X117229828Y-86073752D01*
X117229828Y-86073752D02*
X117229828Y-86149942D01*
X117229828Y-86149942D02*
X117191733Y-86264228D01*
X117191733Y-86264228D02*
X116734590Y-86721371D01*
X116734590Y-86721371D02*
X117229828Y-86721371D01*
X156990476Y-89268855D02*
X157447619Y-89268855D01*
X157219047Y-90068855D02*
X157219047Y-89268855D01*
X157714286Y-90068855D02*
X157714286Y-89268855D01*
X157714286Y-89268855D02*
X158019048Y-89268855D01*
X158019048Y-89268855D02*
X158095238Y-89306950D01*
X158095238Y-89306950D02*
X158133333Y-89345045D01*
X158133333Y-89345045D02*
X158171429Y-89421236D01*
X158171429Y-89421236D02*
X158171429Y-89535521D01*
X158171429Y-89535521D02*
X158133333Y-89611712D01*
X158133333Y-89611712D02*
X158095238Y-89649807D01*
X158095238Y-89649807D02*
X158019048Y-89687902D01*
X158019048Y-89687902D02*
X157714286Y-89687902D01*
X158857143Y-89535521D02*
X158857143Y-90068855D01*
X158666667Y-89230760D02*
X158476190Y-89802188D01*
X158476190Y-89802188D02*
X158971429Y-89802188D01*
X126619048Y-76875354D02*
X126619048Y-77256307D01*
X126352381Y-76456307D02*
X126619048Y-76875354D01*
X126619048Y-76875354D02*
X126885714Y-76456307D01*
X127571428Y-77256307D02*
X127114285Y-77256307D01*
X127342857Y-77256307D02*
X127342857Y-76456307D01*
X127342857Y-76456307D02*
X127266666Y-76570592D01*
X127266666Y-76570592D02*
X127190476Y-76646783D01*
X127190476Y-76646783D02*
X127114285Y-76684878D01*
X165990476Y-89268855D02*
X166447619Y-89268855D01*
X166219047Y-90068855D02*
X166219047Y-89268855D01*
X166714286Y-90068855D02*
X166714286Y-89268855D01*
X166714286Y-89268855D02*
X167019048Y-89268855D01*
X167019048Y-89268855D02*
X167095238Y-89306950D01*
X167095238Y-89306950D02*
X167133333Y-89345045D01*
X167133333Y-89345045D02*
X167171429Y-89421236D01*
X167171429Y-89421236D02*
X167171429Y-89535521D01*
X167171429Y-89535521D02*
X167133333Y-89611712D01*
X167133333Y-89611712D02*
X167095238Y-89649807D01*
X167095238Y-89649807D02*
X167019048Y-89687902D01*
X167019048Y-89687902D02*
X166714286Y-89687902D01*
X167438095Y-89268855D02*
X167971429Y-89268855D01*
X167971429Y-89268855D02*
X167628571Y-90068855D01*
X120061475Y-74063855D02*
X120061475Y-74711474D01*
X120061475Y-74711474D02*
X120099570Y-74787664D01*
X120099570Y-74787664D02*
X120137665Y-74825760D01*
X120137665Y-74825760D02*
X120213856Y-74863855D01*
X120213856Y-74863855D02*
X120366237Y-74863855D01*
X120366237Y-74863855D02*
X120442427Y-74825760D01*
X120442427Y-74825760D02*
X120480522Y-74787664D01*
X120480522Y-74787664D02*
X120518618Y-74711474D01*
X120518618Y-74711474D02*
X120518618Y-74063855D01*
X120823379Y-74063855D02*
X121318617Y-74063855D01*
X121318617Y-74063855D02*
X121051951Y-74368617D01*
X121051951Y-74368617D02*
X121166236Y-74368617D01*
X121166236Y-74368617D02*
X121242427Y-74406712D01*
X121242427Y-74406712D02*
X121280522Y-74444807D01*
X121280522Y-74444807D02*
X121318617Y-74520998D01*
X121318617Y-74520998D02*
X121318617Y-74711474D01*
X121318617Y-74711474D02*
X121280522Y-74787664D01*
X121280522Y-74787664D02*
X121242427Y-74825760D01*
X121242427Y-74825760D02*
X121166236Y-74863855D01*
X121166236Y-74863855D02*
X120937665Y-74863855D01*
X120937665Y-74863855D02*
X120861474Y-74825760D01*
X120861474Y-74825760D02*
X120823379Y-74787664D01*
X128717667Y-67287664D02*
X128679571Y-67325760D01*
X128679571Y-67325760D02*
X128565286Y-67363855D01*
X128565286Y-67363855D02*
X128489095Y-67363855D01*
X128489095Y-67363855D02*
X128374809Y-67325760D01*
X128374809Y-67325760D02*
X128298619Y-67249569D01*
X128298619Y-67249569D02*
X128260524Y-67173379D01*
X128260524Y-67173379D02*
X128222428Y-67020998D01*
X128222428Y-67020998D02*
X128222428Y-66906712D01*
X128222428Y-66906712D02*
X128260524Y-66754331D01*
X128260524Y-66754331D02*
X128298619Y-66678140D01*
X128298619Y-66678140D02*
X128374809Y-66601950D01*
X128374809Y-66601950D02*
X128489095Y-66563855D01*
X128489095Y-66563855D02*
X128565286Y-66563855D01*
X128565286Y-66563855D02*
X128679571Y-66601950D01*
X128679571Y-66601950D02*
X128717667Y-66640045D01*
X129174809Y-66906712D02*
X129098619Y-66868617D01*
X129098619Y-66868617D02*
X129060524Y-66830521D01*
X129060524Y-66830521D02*
X129022428Y-66754331D01*
X129022428Y-66754331D02*
X129022428Y-66716236D01*
X129022428Y-66716236D02*
X129060524Y-66640045D01*
X129060524Y-66640045D02*
X129098619Y-66601950D01*
X129098619Y-66601950D02*
X129174809Y-66563855D01*
X129174809Y-66563855D02*
X129327190Y-66563855D01*
X129327190Y-66563855D02*
X129403381Y-66601950D01*
X129403381Y-66601950D02*
X129441476Y-66640045D01*
X129441476Y-66640045D02*
X129479571Y-66716236D01*
X129479571Y-66716236D02*
X129479571Y-66754331D01*
X129479571Y-66754331D02*
X129441476Y-66830521D01*
X129441476Y-66830521D02*
X129403381Y-66868617D01*
X129403381Y-66868617D02*
X129327190Y-66906712D01*
X129327190Y-66906712D02*
X129174809Y-66906712D01*
X129174809Y-66906712D02*
X129098619Y-66944807D01*
X129098619Y-66944807D02*
X129060524Y-66982902D01*
X129060524Y-66982902D02*
X129022428Y-67059093D01*
X129022428Y-67059093D02*
X129022428Y-67211474D01*
X129022428Y-67211474D02*
X129060524Y-67287664D01*
X129060524Y-67287664D02*
X129098619Y-67325760D01*
X129098619Y-67325760D02*
X129174809Y-67363855D01*
X129174809Y-67363855D02*
X129327190Y-67363855D01*
X129327190Y-67363855D02*
X129403381Y-67325760D01*
X129403381Y-67325760D02*
X129441476Y-67287664D01*
X129441476Y-67287664D02*
X129479571Y-67211474D01*
X129479571Y-67211474D02*
X129479571Y-67059093D01*
X129479571Y-67059093D02*
X129441476Y-66982902D01*
X129441476Y-66982902D02*
X129403381Y-66944807D01*
X129403381Y-66944807D02*
X129327190Y-66906712D01*
X153990476Y-89268855D02*
X154447619Y-89268855D01*
X154219047Y-90068855D02*
X154219047Y-89268855D01*
X154714286Y-90068855D02*
X154714286Y-89268855D01*
X154714286Y-89268855D02*
X155019048Y-89268855D01*
X155019048Y-89268855D02*
X155095238Y-89306950D01*
X155095238Y-89306950D02*
X155133333Y-89345045D01*
X155133333Y-89345045D02*
X155171429Y-89421236D01*
X155171429Y-89421236D02*
X155171429Y-89535521D01*
X155171429Y-89535521D02*
X155133333Y-89611712D01*
X155133333Y-89611712D02*
X155095238Y-89649807D01*
X155095238Y-89649807D02*
X155019048Y-89687902D01*
X155019048Y-89687902D02*
X154714286Y-89687902D01*
X155438095Y-89268855D02*
X155933333Y-89268855D01*
X155933333Y-89268855D02*
X155666667Y-89573617D01*
X155666667Y-89573617D02*
X155780952Y-89573617D01*
X155780952Y-89573617D02*
X155857143Y-89611712D01*
X155857143Y-89611712D02*
X155895238Y-89649807D01*
X155895238Y-89649807D02*
X155933333Y-89725998D01*
X155933333Y-89725998D02*
X155933333Y-89916474D01*
X155933333Y-89916474D02*
X155895238Y-89992664D01*
X155895238Y-89992664D02*
X155857143Y-90030760D01*
X155857143Y-90030760D02*
X155780952Y-90068855D01*
X155780952Y-90068855D02*
X155552381Y-90068855D01*
X155552381Y-90068855D02*
X155476190Y-90030760D01*
X155476190Y-90030760D02*
X155438095Y-89992664D01*
X156390475Y-81880760D02*
X156504761Y-81918855D01*
X156504761Y-81918855D02*
X156695237Y-81918855D01*
X156695237Y-81918855D02*
X156771428Y-81880760D01*
X156771428Y-81880760D02*
X156809523Y-81842664D01*
X156809523Y-81842664D02*
X156847618Y-81766474D01*
X156847618Y-81766474D02*
X156847618Y-81690283D01*
X156847618Y-81690283D02*
X156809523Y-81614093D01*
X156809523Y-81614093D02*
X156771428Y-81575998D01*
X156771428Y-81575998D02*
X156695237Y-81537902D01*
X156695237Y-81537902D02*
X156542856Y-81499807D01*
X156542856Y-81499807D02*
X156466666Y-81461712D01*
X156466666Y-81461712D02*
X156428571Y-81423617D01*
X156428571Y-81423617D02*
X156390475Y-81347426D01*
X156390475Y-81347426D02*
X156390475Y-81271236D01*
X156390475Y-81271236D02*
X156428571Y-81195045D01*
X156428571Y-81195045D02*
X156466666Y-81156950D01*
X156466666Y-81156950D02*
X156542856Y-81118855D01*
X156542856Y-81118855D02*
X156733333Y-81118855D01*
X156733333Y-81118855D02*
X156847618Y-81156950D01*
X157609523Y-81918855D02*
X157152380Y-81918855D01*
X157380952Y-81918855D02*
X157380952Y-81118855D01*
X157380952Y-81118855D02*
X157304761Y-81233140D01*
X157304761Y-81233140D02*
X157228571Y-81309331D01*
X157228571Y-81309331D02*
X157152380Y-81347426D01*
X161366667Y-63112664D02*
X161328571Y-63150760D01*
X161328571Y-63150760D02*
X161214286Y-63188855D01*
X161214286Y-63188855D02*
X161138095Y-63188855D01*
X161138095Y-63188855D02*
X161023809Y-63150760D01*
X161023809Y-63150760D02*
X160947619Y-63074569D01*
X160947619Y-63074569D02*
X160909524Y-62998379D01*
X160909524Y-62998379D02*
X160871428Y-62845998D01*
X160871428Y-62845998D02*
X160871428Y-62731712D01*
X160871428Y-62731712D02*
X160909524Y-62579331D01*
X160909524Y-62579331D02*
X160947619Y-62503140D01*
X160947619Y-62503140D02*
X161023809Y-62426950D01*
X161023809Y-62426950D02*
X161138095Y-62388855D01*
X161138095Y-62388855D02*
X161214286Y-62388855D01*
X161214286Y-62388855D02*
X161328571Y-62426950D01*
X161328571Y-62426950D02*
X161366667Y-62465045D01*
X162128571Y-63188855D02*
X161671428Y-63188855D01*
X161900000Y-63188855D02*
X161900000Y-62388855D01*
X161900000Y-62388855D02*
X161823809Y-62503140D01*
X161823809Y-62503140D02*
X161747619Y-62579331D01*
X161747619Y-62579331D02*
X161671428Y-62617426D01*
X180434580Y-94116364D02*
X180434580Y-93316364D01*
X180434580Y-93316364D02*
X180701246Y-93887792D01*
X180701246Y-93887792D02*
X180967913Y-93316364D01*
X180967913Y-93316364D02*
X180967913Y-94116364D01*
X181348866Y-94116364D02*
X181348866Y-93316364D01*
X181348866Y-93697316D02*
X181806009Y-93697316D01*
X181806009Y-94116364D02*
X181806009Y-93316364D01*
X182148865Y-93392554D02*
X182186961Y-93354459D01*
X182186961Y-93354459D02*
X182263151Y-93316364D01*
X182263151Y-93316364D02*
X182453627Y-93316364D01*
X182453627Y-93316364D02*
X182529818Y-93354459D01*
X182529818Y-93354459D02*
X182567913Y-93392554D01*
X182567913Y-93392554D02*
X182606008Y-93468745D01*
X182606008Y-93468745D02*
X182606008Y-93544935D01*
X182606008Y-93544935D02*
X182567913Y-93659221D01*
X182567913Y-93659221D02*
X182110770Y-94116364D01*
X182110770Y-94116364D02*
X182606008Y-94116364D01*
X157409524Y-69618855D02*
X157409524Y-68818855D01*
X157409524Y-68818855D02*
X157600000Y-68818855D01*
X157600000Y-68818855D02*
X157714286Y-68856950D01*
X157714286Y-68856950D02*
X157790476Y-68933140D01*
X157790476Y-68933140D02*
X157828571Y-69009331D01*
X157828571Y-69009331D02*
X157866667Y-69161712D01*
X157866667Y-69161712D02*
X157866667Y-69275998D01*
X157866667Y-69275998D02*
X157828571Y-69428379D01*
X157828571Y-69428379D02*
X157790476Y-69504569D01*
X157790476Y-69504569D02*
X157714286Y-69580760D01*
X157714286Y-69580760D02*
X157600000Y-69618855D01*
X157600000Y-69618855D02*
X157409524Y-69618855D01*
X158628571Y-69618855D02*
X158171428Y-69618855D01*
X158400000Y-69618855D02*
X158400000Y-68818855D01*
X158400000Y-68818855D02*
X158323809Y-68933140D01*
X158323809Y-68933140D02*
X158247619Y-69009331D01*
X158247619Y-69009331D02*
X158171428Y-69047426D01*
X125366667Y-87118855D02*
X125100000Y-86737902D01*
X124909524Y-87118855D02*
X124909524Y-86318855D01*
X124909524Y-86318855D02*
X125214286Y-86318855D01*
X125214286Y-86318855D02*
X125290476Y-86356950D01*
X125290476Y-86356950D02*
X125328571Y-86395045D01*
X125328571Y-86395045D02*
X125366667Y-86471236D01*
X125366667Y-86471236D02*
X125366667Y-86585521D01*
X125366667Y-86585521D02*
X125328571Y-86661712D01*
X125328571Y-86661712D02*
X125290476Y-86699807D01*
X125290476Y-86699807D02*
X125214286Y-86737902D01*
X125214286Y-86737902D02*
X124909524Y-86737902D01*
X125633333Y-86318855D02*
X126128571Y-86318855D01*
X126128571Y-86318855D02*
X125861905Y-86623617D01*
X125861905Y-86623617D02*
X125976190Y-86623617D01*
X125976190Y-86623617D02*
X126052381Y-86661712D01*
X126052381Y-86661712D02*
X126090476Y-86699807D01*
X126090476Y-86699807D02*
X126128571Y-86775998D01*
X126128571Y-86775998D02*
X126128571Y-86966474D01*
X126128571Y-86966474D02*
X126090476Y-87042664D01*
X126090476Y-87042664D02*
X126052381Y-87080760D01*
X126052381Y-87080760D02*
X125976190Y-87118855D01*
X125976190Y-87118855D02*
X125747619Y-87118855D01*
X125747619Y-87118855D02*
X125671428Y-87080760D01*
X125671428Y-87080760D02*
X125633333Y-87042664D01*
X121666667Y-71962664D02*
X121628571Y-72000760D01*
X121628571Y-72000760D02*
X121514286Y-72038855D01*
X121514286Y-72038855D02*
X121438095Y-72038855D01*
X121438095Y-72038855D02*
X121323809Y-72000760D01*
X121323809Y-72000760D02*
X121247619Y-71924569D01*
X121247619Y-71924569D02*
X121209524Y-71848379D01*
X121209524Y-71848379D02*
X121171428Y-71695998D01*
X121171428Y-71695998D02*
X121171428Y-71581712D01*
X121171428Y-71581712D02*
X121209524Y-71429331D01*
X121209524Y-71429331D02*
X121247619Y-71353140D01*
X121247619Y-71353140D02*
X121323809Y-71276950D01*
X121323809Y-71276950D02*
X121438095Y-71238855D01*
X121438095Y-71238855D02*
X121514286Y-71238855D01*
X121514286Y-71238855D02*
X121628571Y-71276950D01*
X121628571Y-71276950D02*
X121666667Y-71315045D01*
X122390476Y-71238855D02*
X122009524Y-71238855D01*
X122009524Y-71238855D02*
X121971428Y-71619807D01*
X121971428Y-71619807D02*
X122009524Y-71581712D01*
X122009524Y-71581712D02*
X122085714Y-71543617D01*
X122085714Y-71543617D02*
X122276190Y-71543617D01*
X122276190Y-71543617D02*
X122352381Y-71581712D01*
X122352381Y-71581712D02*
X122390476Y-71619807D01*
X122390476Y-71619807D02*
X122428571Y-71695998D01*
X122428571Y-71695998D02*
X122428571Y-71886474D01*
X122428571Y-71886474D02*
X122390476Y-71962664D01*
X122390476Y-71962664D02*
X122352381Y-72000760D01*
X122352381Y-72000760D02*
X122276190Y-72038855D01*
X122276190Y-72038855D02*
X122085714Y-72038855D01*
X122085714Y-72038855D02*
X122009524Y-72000760D01*
X122009524Y-72000760D02*
X121971428Y-71962664D01*
X177783333Y-72308855D02*
X177783333Y-72880283D01*
X177783333Y-72880283D02*
X177745238Y-72994569D01*
X177745238Y-72994569D02*
X177669047Y-73070760D01*
X177669047Y-73070760D02*
X177554762Y-73108855D01*
X177554762Y-73108855D02*
X177478571Y-73108855D01*
X178545238Y-72308855D02*
X178164286Y-72308855D01*
X178164286Y-72308855D02*
X178126190Y-72689807D01*
X178126190Y-72689807D02*
X178164286Y-72651712D01*
X178164286Y-72651712D02*
X178240476Y-72613617D01*
X178240476Y-72613617D02*
X178430952Y-72613617D01*
X178430952Y-72613617D02*
X178507143Y-72651712D01*
X178507143Y-72651712D02*
X178545238Y-72689807D01*
X178545238Y-72689807D02*
X178583333Y-72765998D01*
X178583333Y-72765998D02*
X178583333Y-72956474D01*
X178583333Y-72956474D02*
X178545238Y-73032664D01*
X178545238Y-73032664D02*
X178507143Y-73070760D01*
X178507143Y-73070760D02*
X178430952Y-73108855D01*
X178430952Y-73108855D02*
X178240476Y-73108855D01*
X178240476Y-73108855D02*
X178164286Y-73070760D01*
X178164286Y-73070760D02*
X178126190Y-73032664D01*
X183434580Y-86116364D02*
X183434580Y-85316364D01*
X183434580Y-85316364D02*
X183701246Y-85887792D01*
X183701246Y-85887792D02*
X183967913Y-85316364D01*
X183967913Y-85316364D02*
X183967913Y-86116364D01*
X184348866Y-86116364D02*
X184348866Y-85316364D01*
X184348866Y-85697316D02*
X184806009Y-85697316D01*
X184806009Y-86116364D02*
X184806009Y-85316364D01*
X185529818Y-85583030D02*
X185529818Y-86116364D01*
X185339342Y-85278269D02*
X185148865Y-85849697D01*
X185148865Y-85849697D02*
X185644104Y-85849697D01*
X150990476Y-89268855D02*
X151447619Y-89268855D01*
X151219047Y-90068855D02*
X151219047Y-89268855D01*
X151714286Y-90068855D02*
X151714286Y-89268855D01*
X151714286Y-89268855D02*
X152019048Y-89268855D01*
X152019048Y-89268855D02*
X152095238Y-89306950D01*
X152095238Y-89306950D02*
X152133333Y-89345045D01*
X152133333Y-89345045D02*
X152171429Y-89421236D01*
X152171429Y-89421236D02*
X152171429Y-89535521D01*
X152171429Y-89535521D02*
X152133333Y-89611712D01*
X152133333Y-89611712D02*
X152095238Y-89649807D01*
X152095238Y-89649807D02*
X152019048Y-89687902D01*
X152019048Y-89687902D02*
X151714286Y-89687902D01*
X152476190Y-89345045D02*
X152514286Y-89306950D01*
X152514286Y-89306950D02*
X152590476Y-89268855D01*
X152590476Y-89268855D02*
X152780952Y-89268855D01*
X152780952Y-89268855D02*
X152857143Y-89306950D01*
X152857143Y-89306950D02*
X152895238Y-89345045D01*
X152895238Y-89345045D02*
X152933333Y-89421236D01*
X152933333Y-89421236D02*
X152933333Y-89497426D01*
X152933333Y-89497426D02*
X152895238Y-89611712D01*
X152895238Y-89611712D02*
X152438095Y-90068855D01*
X152438095Y-90068855D02*
X152933333Y-90068855D01*
X142866667Y-66718855D02*
X142600000Y-66337902D01*
X142409524Y-66718855D02*
X142409524Y-65918855D01*
X142409524Y-65918855D02*
X142714286Y-65918855D01*
X142714286Y-65918855D02*
X142790476Y-65956950D01*
X142790476Y-65956950D02*
X142828571Y-65995045D01*
X142828571Y-65995045D02*
X142866667Y-66071236D01*
X142866667Y-66071236D02*
X142866667Y-66185521D01*
X142866667Y-66185521D02*
X142828571Y-66261712D01*
X142828571Y-66261712D02*
X142790476Y-66299807D01*
X142790476Y-66299807D02*
X142714286Y-66337902D01*
X142714286Y-66337902D02*
X142409524Y-66337902D01*
X143171428Y-65995045D02*
X143209524Y-65956950D01*
X143209524Y-65956950D02*
X143285714Y-65918855D01*
X143285714Y-65918855D02*
X143476190Y-65918855D01*
X143476190Y-65918855D02*
X143552381Y-65956950D01*
X143552381Y-65956950D02*
X143590476Y-65995045D01*
X143590476Y-65995045D02*
X143628571Y-66071236D01*
X143628571Y-66071236D02*
X143628571Y-66147426D01*
X143628571Y-66147426D02*
X143590476Y-66261712D01*
X143590476Y-66261712D02*
X143133333Y-66718855D01*
X143133333Y-66718855D02*
X143628571Y-66718855D01*
X171866667Y-83118855D02*
X171600000Y-82737902D01*
X171409524Y-83118855D02*
X171409524Y-82318855D01*
X171409524Y-82318855D02*
X171714286Y-82318855D01*
X171714286Y-82318855D02*
X171790476Y-82356950D01*
X171790476Y-82356950D02*
X171828571Y-82395045D01*
X171828571Y-82395045D02*
X171866667Y-82471236D01*
X171866667Y-82471236D02*
X171866667Y-82585521D01*
X171866667Y-82585521D02*
X171828571Y-82661712D01*
X171828571Y-82661712D02*
X171790476Y-82699807D01*
X171790476Y-82699807D02*
X171714286Y-82737902D01*
X171714286Y-82737902D02*
X171409524Y-82737902D01*
X172590476Y-82318855D02*
X172209524Y-82318855D01*
X172209524Y-82318855D02*
X172171428Y-82699807D01*
X172171428Y-82699807D02*
X172209524Y-82661712D01*
X172209524Y-82661712D02*
X172285714Y-82623617D01*
X172285714Y-82623617D02*
X172476190Y-82623617D01*
X172476190Y-82623617D02*
X172552381Y-82661712D01*
X172552381Y-82661712D02*
X172590476Y-82699807D01*
X172590476Y-82699807D02*
X172628571Y-82775998D01*
X172628571Y-82775998D02*
X172628571Y-82966474D01*
X172628571Y-82966474D02*
X172590476Y-83042664D01*
X172590476Y-83042664D02*
X172552381Y-83080760D01*
X172552381Y-83080760D02*
X172476190Y-83118855D01*
X172476190Y-83118855D02*
X172285714Y-83118855D01*
X172285714Y-83118855D02*
X172209524Y-83080760D01*
X172209524Y-83080760D02*
X172171428Y-83042664D01*
X129366667Y-81112664D02*
X129328571Y-81150760D01*
X129328571Y-81150760D02*
X129214286Y-81188855D01*
X129214286Y-81188855D02*
X129138095Y-81188855D01*
X129138095Y-81188855D02*
X129023809Y-81150760D01*
X129023809Y-81150760D02*
X128947619Y-81074569D01*
X128947619Y-81074569D02*
X128909524Y-80998379D01*
X128909524Y-80998379D02*
X128871428Y-80845998D01*
X128871428Y-80845998D02*
X128871428Y-80731712D01*
X128871428Y-80731712D02*
X128909524Y-80579331D01*
X128909524Y-80579331D02*
X128947619Y-80503140D01*
X128947619Y-80503140D02*
X129023809Y-80426950D01*
X129023809Y-80426950D02*
X129138095Y-80388855D01*
X129138095Y-80388855D02*
X129214286Y-80388855D01*
X129214286Y-80388855D02*
X129328571Y-80426950D01*
X129328571Y-80426950D02*
X129366667Y-80465045D01*
X129633333Y-80388855D02*
X130128571Y-80388855D01*
X130128571Y-80388855D02*
X129861905Y-80693617D01*
X129861905Y-80693617D02*
X129976190Y-80693617D01*
X129976190Y-80693617D02*
X130052381Y-80731712D01*
X130052381Y-80731712D02*
X130090476Y-80769807D01*
X130090476Y-80769807D02*
X130128571Y-80845998D01*
X130128571Y-80845998D02*
X130128571Y-81036474D01*
X130128571Y-81036474D02*
X130090476Y-81112664D01*
X130090476Y-81112664D02*
X130052381Y-81150760D01*
X130052381Y-81150760D02*
X129976190Y-81188855D01*
X129976190Y-81188855D02*
X129747619Y-81188855D01*
X129747619Y-81188855D02*
X129671428Y-81150760D01*
X129671428Y-81150760D02*
X129633333Y-81112664D01*
X151866667Y-69618855D02*
X151600000Y-69237902D01*
X151409524Y-69618855D02*
X151409524Y-68818855D01*
X151409524Y-68818855D02*
X151714286Y-68818855D01*
X151714286Y-68818855D02*
X151790476Y-68856950D01*
X151790476Y-68856950D02*
X151828571Y-68895045D01*
X151828571Y-68895045D02*
X151866667Y-68971236D01*
X151866667Y-68971236D02*
X151866667Y-69085521D01*
X151866667Y-69085521D02*
X151828571Y-69161712D01*
X151828571Y-69161712D02*
X151790476Y-69199807D01*
X151790476Y-69199807D02*
X151714286Y-69237902D01*
X151714286Y-69237902D02*
X151409524Y-69237902D01*
X152628571Y-69618855D02*
X152171428Y-69618855D01*
X152400000Y-69618855D02*
X152400000Y-68818855D01*
X152400000Y-68818855D02*
X152323809Y-68933140D01*
X152323809Y-68933140D02*
X152247619Y-69009331D01*
X152247619Y-69009331D02*
X152171428Y-69047426D01*
%TO.C,TP8*%
X169300000Y-90800000D02*
X170700000Y-90800000D01*
X169300000Y-92200000D02*
X169300000Y-90800000D01*
X170700000Y-90800000D02*
X170700000Y-92200000D01*
X170700000Y-92200000D02*
X169300000Y-92200000D01*
%TO.C,J6*%
X175390000Y-80110000D02*
X175390000Y-81360000D01*
X175390000Y-81360000D02*
X176640000Y-81360000D01*
X175490000Y-79300000D02*
X175490000Y-79600000D01*
X175490000Y-79600000D02*
X175690000Y-79600000D01*
X175590000Y-79300000D02*
X175590000Y-79600000D01*
X175690000Y-74940000D02*
X175690000Y-81060000D01*
X175690000Y-78500000D02*
X176300000Y-78500000D01*
X175690000Y-79300000D02*
X175490000Y-79300000D01*
X175690000Y-81060000D02*
X180410000Y-81060000D01*
X176300000Y-75550000D02*
X176300000Y-77500000D01*
X176300000Y-77500000D02*
X175690000Y-77500000D01*
X176300000Y-78500000D02*
X176300000Y-80450000D01*
X176300000Y-80450000D02*
X179800000Y-80450000D01*
X177000000Y-74940000D02*
X177000000Y-75550000D01*
X177000000Y-81060000D02*
X177000000Y-80450000D01*
X178300000Y-74940000D02*
X178300000Y-75550000D01*
X178300000Y-81060000D02*
X178300000Y-80450000D01*
X179300000Y-77900000D02*
X179800000Y-77900000D01*
X179300000Y-78100000D02*
X179300000Y-77900000D01*
X179800000Y-75550000D02*
X176300000Y-75550000D01*
X179800000Y-78000000D02*
X179300000Y-78000000D01*
X179800000Y-78100000D02*
X179300000Y-78100000D01*
X179800000Y-80450000D02*
X179800000Y-75550000D01*
X180410000Y-74940000D02*
X175690000Y-74940000D01*
X180410000Y-81060000D02*
X180410000Y-74940000D01*
%TO.C,L1*%
X166738748Y-64290000D02*
X167261252Y-64290000D01*
X166738748Y-65710000D02*
X167261252Y-65710000D01*
%TO.C,J2*%
X148620000Y-76620000D02*
X150000000Y-76620000D01*
X148620000Y-78000000D02*
X148620000Y-76620000D01*
X148620000Y-79270000D02*
X148620000Y-84460000D01*
X148620000Y-79270000D02*
X151270000Y-79270000D01*
X148620000Y-84460000D02*
X153920000Y-84460000D01*
X151270000Y-76620000D02*
X153920000Y-76620000D01*
X151270000Y-79270000D02*
X151270000Y-76620000D01*
X153920000Y-76620000D02*
X153920000Y-84460000D01*
%TO.C,J7*%
X175390000Y-89610000D02*
X175390000Y-90860000D01*
X175390000Y-90860000D02*
X176640000Y-90860000D01*
X175490000Y-88800000D02*
X175490000Y-89100000D01*
X175490000Y-89100000D02*
X175690000Y-89100000D01*
X175590000Y-88800000D02*
X175590000Y-89100000D01*
X175690000Y-82440000D02*
X175690000Y-90560000D01*
X175690000Y-88000000D02*
X176300000Y-88000000D01*
X175690000Y-88800000D02*
X175490000Y-88800000D01*
X175690000Y-90560000D02*
X180410000Y-90560000D01*
X176300000Y-83050000D02*
X176300000Y-85000000D01*
X176300000Y-85000000D02*
X175690000Y-85000000D01*
X176300000Y-88000000D02*
X176300000Y-89950000D01*
X176300000Y-89950000D02*
X179800000Y-89950000D01*
X177000000Y-82440000D02*
X177000000Y-83050000D01*
X177000000Y-90560000D02*
X177000000Y-89950000D01*
X178300000Y-82440000D02*
X178300000Y-83050000D01*
X178300000Y-90560000D02*
X178300000Y-89950000D01*
X179300000Y-85400000D02*
X179800000Y-85400000D01*
X179300000Y-85600000D02*
X179300000Y-85400000D01*
X179300000Y-87400000D02*
X179800000Y-87400000D01*
X179300000Y-87600000D02*
X179300000Y-87400000D01*
X179800000Y-83050000D02*
X176300000Y-83050000D01*
X179800000Y-85500000D02*
X179300000Y-85500000D01*
X179800000Y-85600000D02*
X179300000Y-85600000D01*
X179800000Y-87500000D02*
X179300000Y-87500000D01*
X179800000Y-87600000D02*
X179300000Y-87600000D01*
X179800000Y-89950000D02*
X179800000Y-83050000D01*
X180410000Y-82440000D02*
X175690000Y-82440000D01*
X180410000Y-90560000D02*
X180410000Y-82440000D01*
%TO.C,U2*%
X132390000Y-75390000D02*
X132390000Y-75665000D01*
X132390000Y-82610000D02*
X132390000Y-82335000D01*
X132665000Y-75390000D02*
X132390000Y-75390000D01*
X132665000Y-82610000D02*
X132390000Y-82610000D01*
X139335000Y-75390000D02*
X139610000Y-75390000D01*
X139335000Y-82610000D02*
X139610000Y-82610000D01*
X139610000Y-75390000D02*
X139610000Y-75665000D01*
X139610000Y-82610000D02*
X139610000Y-82335000D01*
X131800000Y-75665000D02*
X131460000Y-75195000D01*
X132140000Y-75195000D01*
X131800000Y-75665000D01*
G36*
X131800000Y-75665000D02*
G01*
X131460000Y-75195000D01*
X132140000Y-75195000D01*
X131800000Y-75665000D01*
G37*
%TO.C,U1*%
X156000000Y-63440000D02*
X155350000Y-63440000D01*
X156000000Y-63440000D02*
X156650000Y-63440000D01*
X156000000Y-66560000D02*
X155350000Y-66560000D01*
X156000000Y-66560000D02*
X156650000Y-66560000D01*
X154837500Y-63490000D02*
X154597500Y-63160000D01*
X155077500Y-63160000D01*
X154837500Y-63490000D01*
G36*
X154837500Y-63490000D02*
G01*
X154597500Y-63160000D01*
X155077500Y-63160000D01*
X154837500Y-63490000D01*
G37*
%TO.C,C9*%
X142265000Y-83761252D02*
X142265000Y-83238748D01*
X143735000Y-83761252D02*
X143735000Y-83238748D01*
%TO.C,TP1*%
X145800000Y-63800000D02*
X147200000Y-63800000D01*
X145800000Y-65200000D02*
X145800000Y-63800000D01*
X147200000Y-63800000D02*
X147200000Y-65200000D01*
X147200000Y-65200000D02*
X145800000Y-65200000D01*
%TO.C,C4*%
X142265000Y-74761252D02*
X142265000Y-74238748D01*
X143735000Y-74761252D02*
X143735000Y-74238748D01*
%TO.C,TP6*%
X163300000Y-90800000D02*
X164700000Y-90800000D01*
X163300000Y-92200000D02*
X163300000Y-90800000D01*
X164700000Y-90800000D02*
X164700000Y-92200000D01*
X164700000Y-92200000D02*
X163300000Y-92200000D01*
%TO.C,TP5*%
X160300000Y-90800000D02*
X161700000Y-90800000D01*
X160300000Y-92200000D02*
X160300000Y-90800000D01*
X161700000Y-90800000D02*
X161700000Y-92200000D01*
X161700000Y-92200000D02*
X160300000Y-92200000D01*
%TO.C,R4*%
X171772936Y-87765000D02*
X172227064Y-87765000D01*
X171772936Y-89235000D02*
X172227064Y-89235000D01*
%TO.C,C2*%
X171765000Y-65761252D02*
X171765000Y-65238748D01*
X173235000Y-65761252D02*
X173235000Y-65238748D01*
%TO.C,TP4*%
X157300000Y-90800000D02*
X158700000Y-90800000D01*
X157300000Y-92200000D02*
X157300000Y-90800000D01*
X158700000Y-90800000D02*
X158700000Y-92200000D01*
X158700000Y-92200000D02*
X157300000Y-92200000D01*
%TO.C,Y1*%
X125390000Y-73750000D02*
X125390000Y-71250000D01*
X128610000Y-73750000D02*
X128610000Y-71250000D01*
X125390000Y-71250000D02*
G75*
G02*
X125892995Y-70080994I1610400J-200D01*
G01*
X125893000Y-74919000D02*
G75*
G02*
X125390000Y-73750000I1107400J1169210D01*
G01*
X128107000Y-70081000D02*
G75*
G02*
X128609992Y-71250000I-1107400J-1169200D01*
G01*
X128610000Y-73750000D02*
G75*
G02*
X128107000Y-74919000I-1610400J210D01*
G01*
%TO.C,TP7*%
X166300000Y-90800000D02*
X167700000Y-90800000D01*
X166300000Y-92200000D02*
X166300000Y-90800000D01*
X167700000Y-90800000D02*
X167700000Y-92200000D01*
X167700000Y-92200000D02*
X166300000Y-92200000D01*
%TO.C,U3*%
X104850000Y-64300000D02*
X117150000Y-64300000D01*
X104850000Y-84700000D02*
X117150000Y-84700000D01*
X117150000Y-84700000D02*
X117150000Y-85500000D01*
%TO.C,C8*%
X125738748Y-66265000D02*
X126261252Y-66265000D01*
X125738748Y-67735000D02*
X126261252Y-67735000D01*
%TO.C,TP3*%
X154300000Y-90800000D02*
X155700000Y-90800000D01*
X154300000Y-92200000D02*
X154300000Y-90800000D01*
X155700000Y-90800000D02*
X155700000Y-92200000D01*
X155700000Y-92200000D02*
X154300000Y-92200000D01*
%TO.C,S1*%
X155350000Y-82600000D02*
X158650000Y-82600000D01*
X155350000Y-82900000D02*
X155350000Y-82600000D01*
X155350000Y-85100000D02*
X155350000Y-85400000D01*
X155350000Y-85400000D02*
X158650000Y-85400000D01*
X158650000Y-82600000D02*
X158650000Y-82900000D01*
X158650000Y-85400000D02*
X158650000Y-85100000D01*
%TO.C,C1*%
X160765000Y-65761252D02*
X160765000Y-65238748D01*
X162235000Y-65761252D02*
X162235000Y-65238748D01*
%TO.C,D1*%
X156140000Y-70040000D02*
X156140000Y-71960000D01*
X156140000Y-71960000D02*
X159000000Y-71960000D01*
X159000000Y-70040000D02*
X156140000Y-70040000D01*
%TO.C,R3*%
X125272936Y-87765000D02*
X125727064Y-87765000D01*
X125272936Y-89235000D02*
X125727064Y-89235000D01*
%TO.C,C5*%
X121065000Y-69261252D02*
X121065000Y-68738748D01*
X122535000Y-69261252D02*
X122535000Y-68738748D01*
%TO.C,J5*%
X175390000Y-70610000D02*
X175390000Y-71860000D01*
X175390000Y-71860000D02*
X176640000Y-71860000D01*
X175490000Y-69800000D02*
X175490000Y-70100000D01*
X175490000Y-70100000D02*
X175690000Y-70100000D01*
X175590000Y-69800000D02*
X175590000Y-70100000D01*
X175690000Y-61440000D02*
X175690000Y-71560000D01*
X175690000Y-69000000D02*
X176300000Y-69000000D01*
X175690000Y-69800000D02*
X175490000Y-69800000D01*
X175690000Y-71560000D02*
X180410000Y-71560000D01*
X176300000Y-62050000D02*
X176300000Y-64000000D01*
X176300000Y-64000000D02*
X175690000Y-64000000D01*
X176300000Y-69000000D02*
X176300000Y-70950000D01*
X176300000Y-70950000D02*
X179800000Y-70950000D01*
X177000000Y-61440000D02*
X177000000Y-62050000D01*
X177000000Y-71560000D02*
X177000000Y-70950000D01*
X178300000Y-61440000D02*
X178300000Y-62050000D01*
X178300000Y-71560000D02*
X178300000Y-70950000D01*
X179300000Y-64400000D02*
X179800000Y-64400000D01*
X179300000Y-64600000D02*
X179300000Y-64400000D01*
X179300000Y-66400000D02*
X179800000Y-66400000D01*
X179300000Y-66600000D02*
X179300000Y-66400000D01*
X179300000Y-68400000D02*
X179800000Y-68400000D01*
X179300000Y-68600000D02*
X179300000Y-68400000D01*
X179800000Y-62050000D02*
X176300000Y-62050000D01*
X179800000Y-64500000D02*
X179300000Y-64500000D01*
X179800000Y-64600000D02*
X179300000Y-64600000D01*
X179800000Y-66500000D02*
X179300000Y-66500000D01*
X179800000Y-66600000D02*
X179300000Y-66600000D01*
X179800000Y-68500000D02*
X179300000Y-68500000D01*
X179800000Y-68600000D02*
X179300000Y-68600000D01*
X179800000Y-70950000D02*
X179800000Y-62050000D01*
X180410000Y-61440000D02*
X175690000Y-61440000D01*
X180410000Y-71560000D02*
X180410000Y-61440000D01*
%TO.C,TP2*%
X151300000Y-90800000D02*
X152700000Y-90800000D01*
X151300000Y-92200000D02*
X151300000Y-90800000D01*
X152700000Y-90800000D02*
X152700000Y-92200000D01*
X152700000Y-92200000D02*
X151300000Y-92200000D01*
%TO.C,R2*%
X142265000Y-69227064D02*
X142265000Y-68772936D01*
X143735000Y-69227064D02*
X143735000Y-68772936D01*
%TO.C,R5*%
X171772936Y-83765000D02*
X172227064Y-83765000D01*
X171772936Y-85235000D02*
X172227064Y-85235000D01*
%TO.C,C3*%
X128765000Y-83761252D02*
X128765000Y-83238748D01*
X130235000Y-83761252D02*
X130235000Y-83238748D01*
%TO.C,R1*%
X151772936Y-70265000D02*
X152227064Y-70265000D01*
X151772936Y-71735000D02*
X152227064Y-71735000D01*
%TD*%
M02*
