%TF.GenerationSoftware,KiCad,Pcbnew,9.0.2+dfsg-1*%
%TF.CreationDate,2026-07-30T19:27:06+02:00*%
%TF.ProjectId,AskSin-Analyzer-V3,41736b53-696e-42d4-916e-616c797a6572,rev?*%
%TF.SameCoordinates,Original*%
%TF.FileFunction,Copper,L1,Top*%
%TF.FilePolarity,Positive*%
%FSLAX46Y46*%
G04 Gerber Fmt 4.6, Leading zero omitted, Abs format (unit mm)*
G04 Created by KiCad (PCBNEW 9.0.2+dfsg-1) date 2026-07-30 19:27:06*
%MOMM*%
%LPD*%
G01*
G04 APERTURE LIST*
G04 Aperture macros list*
%AMRoundRect*
0 Rectangle with rounded corners*
0 $1 Rounding radius*
0 $2 $3 $4 $5 $6 $7 $8 $9 X,Y pos of 4 corners*
0 Add a 4 corners polygon primitive as box body*
4,1,4,$2,$3,$4,$5,$6,$7,$8,$9,$2,$3,0*
0 Add four circle primitives for the rounded corners*
1,1,$1+$1,$2,$3*
1,1,$1+$1,$4,$5*
1,1,$1+$1,$6,$7*
1,1,$1+$1,$8,$9*
0 Add four rect primitives between the rounded corners*
20,1,$1+$1,$2,$3,$4,$5,0*
20,1,$1+$1,$4,$5,$6,$7,0*
20,1,$1+$1,$6,$7,$8,$9,0*
20,1,$1+$1,$8,$9,$2,$3,0*%
G04 Aperture macros list end*
%TA.AperFunction,SMDPad,CuDef*%
%ADD10R,1.000000X1.000000*%
%TD*%
%TA.AperFunction,SMDPad,CuDef*%
%ADD11RoundRect,0.250000X0.450000X-0.350000X0.450000X0.350000X-0.450000X0.350000X-0.450000X-0.350000X0*%
%TD*%
%TA.AperFunction,SMDPad,CuDef*%
%ADD12RoundRect,0.250000X0.475000X-0.337500X0.475000X0.337500X-0.475000X0.337500X-0.475000X-0.337500X0*%
%TD*%
%TA.AperFunction,SMDPad,CuDef*%
%ADD13RoundRect,0.250000X-0.350000X-0.450000X0.350000X-0.450000X0.350000X0.450000X-0.350000X0.450000X0*%
%TD*%
%TA.AperFunction,ComponentPad*%
%ADD14RoundRect,0.250000X0.625000X-0.350000X0.625000X0.350000X-0.625000X0.350000X-0.625000X-0.350000X0*%
%TD*%
%TA.AperFunction,ComponentPad*%
%ADD15O,1.750000X1.200000*%
%TD*%
%TA.AperFunction,SMDPad,CuDef*%
%ADD16RoundRect,0.137500X-0.600000X-0.137500X0.600000X-0.137500X0.600000X0.137500X-0.600000X0.137500X0*%
%TD*%
%TA.AperFunction,SMDPad,CuDef*%
%ADD17RoundRect,0.137500X-0.137500X-0.600000X0.137500X-0.600000X0.137500X0.600000X-0.137500X0.600000X0*%
%TD*%
%TA.AperFunction,ComponentPad*%
%ADD18C,1.700000*%
%TD*%
%TA.AperFunction,SMDPad,CuDef*%
%ADD19R,0.900000X1.700000*%
%TD*%
%TA.AperFunction,SMDPad,CuDef*%
%ADD20RoundRect,0.250000X-0.337500X-0.475000X0.337500X-0.475000X0.337500X0.475000X-0.337500X0.475000X0*%
%TD*%
%TA.AperFunction,SMDPad,CuDef*%
%ADD21R,1.800000X0.800000*%
%TD*%
%TA.AperFunction,SMDPad,CuDef*%
%ADD22RoundRect,0.250000X-0.325000X-0.450000X0.325000X-0.450000X0.325000X0.450000X-0.325000X0.450000X0*%
%TD*%
%TA.AperFunction,SMDPad,CuDef*%
%ADD23RoundRect,0.150000X-0.587500X-0.150000X0.587500X-0.150000X0.587500X0.150000X-0.587500X0.150000X0*%
%TD*%
%TA.AperFunction,ComponentPad*%
%ADD24R,1.700000X1.700000*%
%TD*%
%TA.AperFunction,ViaPad*%
%ADD25C,0.600000*%
%TD*%
%TA.AperFunction,Conductor*%
%ADD26C,0.200000*%
%TD*%
%TA.AperFunction,Conductor*%
%ADD27C,0.300000*%
%TD*%
%TA.AperFunction,Conductor*%
%ADD28C,0.250000*%
%TD*%
G04 APERTURE END LIST*
D10*
%TO.P,TP7,1*%
%TO.N,GDO0*%
X167000000Y-91500000D03*
%TD*%
D11*
%TO.P,R2,1*%
%TO.N,+3V3*%
X143000000Y-70000000D03*
%TO.P,R2,2*%
%TO.N,RESET*%
X143000000Y-68000000D03*
%TD*%
D12*
%TO.P,C9,1*%
%TO.N,AREF*%
X143000000Y-84537500D03*
%TO.P,C9,2*%
%TO.N,GND*%
X143000000Y-82462500D03*
%TD*%
D10*
%TO.P,TP1,1*%
%TO.N,RESET*%
X146500000Y-64500000D03*
%TD*%
D13*
%TO.P,R1,1*%
%TO.N,LED_TREIBER*%
X151000000Y-71000000D03*
%TO.P,R1,2*%
%TO.N,LED_ANODE*%
X153000000Y-71000000D03*
%TD*%
D14*
%TO.P,J6,1*%
%TO.N,BTN*%
X177500000Y-79000000D03*
D15*
%TO.P,J6,2*%
%TO.N,GND*%
X177500000Y-77000000D03*
%TD*%
D16*
%TO.P,U2,1*%
%TO.N,N/C*%
X131837500Y-76200000D03*
%TO.P,U2,2*%
%TO.N,LED_TREIBER*%
X131837500Y-77000000D03*
%TO.P,U2,3*%
%TO.N,GND*%
X131837500Y-77800000D03*
%TO.P,U2,4*%
%TO.N,+3V3*%
X131837500Y-78600000D03*
%TO.P,U2,5*%
%TO.N,GND*%
X131837500Y-79400000D03*
%TO.P,U2,6*%
%TO.N,+3V3*%
X131837500Y-80200000D03*
%TO.P,U2,7*%
%TO.N,XTAL1*%
X131837500Y-81000000D03*
%TO.P,U2,8*%
%TO.N,XTAL2*%
X131837500Y-81800000D03*
D17*
%TO.P,U2,9*%
%TO.N,N/C*%
X133200000Y-83162500D03*
%TO.P,U2,10*%
X134000000Y-83162500D03*
%TO.P,U2,11*%
X134800000Y-83162500D03*
%TO.P,U2,12*%
X135600000Y-83162500D03*
%TO.P,U2,13*%
X136400000Y-83162500D03*
%TO.P,U2,14*%
%TO.N,CS*%
X137200000Y-83162500D03*
%TO.P,U2,15*%
%TO.N,MOSI*%
X138000000Y-83162500D03*
%TO.P,U2,16*%
%TO.N,MISO*%
X138800000Y-83162500D03*
D16*
%TO.P,U2,17*%
%TO.N,SCK*%
X140162500Y-81800000D03*
%TO.P,U2,18*%
%TO.N,+3V3*%
X140162500Y-81000000D03*
%TO.P,U2,19*%
%TO.N,N/C*%
X140162500Y-80200000D03*
%TO.P,U2,20*%
%TO.N,AREF*%
X140162500Y-79400000D03*
%TO.P,U2,21*%
%TO.N,GND*%
X140162500Y-78600000D03*
%TO.P,U2,22*%
%TO.N,N/C*%
X140162500Y-77800000D03*
%TO.P,U2,23*%
X140162500Y-77000000D03*
%TO.P,U2,24*%
X140162500Y-76200000D03*
D17*
%TO.P,U2,25*%
X138800000Y-74837500D03*
%TO.P,U2,26*%
X138000000Y-74837500D03*
%TO.P,U2,27*%
X137200000Y-74837500D03*
%TO.P,U2,28*%
X136400000Y-74837500D03*
%TO.P,U2,29*%
%TO.N,RESET*%
X135600000Y-74837500D03*
%TO.P,U2,30*%
%TO.N,UART_PI_TX*%
X134800000Y-74837500D03*
%TO.P,U2,31*%
%TO.N,UART_328_TX*%
X134000000Y-74837500D03*
%TO.P,U2,32*%
%TO.N,GDO0*%
X133200000Y-74837500D03*
%TD*%
D12*
%TO.P,C4,1*%
%TO.N,+3V3*%
X143000000Y-75537500D03*
%TO.P,C4,2*%
%TO.N,GND*%
X143000000Y-73462500D03*
%TD*%
%TO.P,C5,1*%
%TO.N,+3V3*%
X121800000Y-70037500D03*
%TO.P,C5,2*%
%TO.N,GND*%
X121800000Y-67962500D03*
%TD*%
D13*
%TO.P,R4,1*%
%TO.N,LED_PWM*%
X171000000Y-88500000D03*
%TO.P,R4,2*%
%TO.N,WS_DATA*%
X173000000Y-88500000D03*
%TD*%
D18*
%TO.P,Y1,1*%
%TO.N,XTAL1*%
X127000000Y-75000000D03*
%TO.P,Y1,2*%
%TO.N,GND*%
X127000000Y-72500000D03*
%TO.P,Y1,3*%
%TO.N,XTAL2*%
X127000000Y-70000000D03*
%TD*%
D12*
%TO.P,C3,1*%
%TO.N,+3V3*%
X129500000Y-84537500D03*
%TO.P,C3,2*%
%TO.N,GND*%
X129500000Y-82462500D03*
%TD*%
D19*
%TO.P,S1,1*%
%TO.N,RESET*%
X155300000Y-84000000D03*
%TO.P,S1,2*%
%TO.N,GND*%
X158700000Y-84000000D03*
%TD*%
D20*
%TO.P,C8,1*%
%TO.N,PI_RESET_DRV*%
X124962500Y-67000000D03*
%TO.P,C8,2*%
%TO.N,RESET*%
X127037500Y-67000000D03*
%TD*%
D21*
%TO.P,U3,1*%
%TO.N,GND*%
X118300000Y-83500000D03*
%TO.P,U3,2*%
X118300000Y-82230000D03*
%TO.P,U3,3*%
X118300000Y-80960000D03*
%TO.P,U3,4*%
X118300000Y-75390000D03*
%TO.P,U3,5*%
X118300000Y-74120000D03*
%TO.P,U3,6*%
%TO.N,N/C*%
X118300000Y-72850000D03*
%TO.P,U3,7*%
X118300000Y-71580000D03*
%TO.P,U3,8*%
X118300000Y-70310000D03*
%TO.P,U3,9*%
%TO.N,+3V3*%
X118300000Y-69040000D03*
%TO.P,U3,10*%
%TO.N,N/C*%
X118300000Y-67770000D03*
%TO.P,U3,11*%
%TO.N,GND*%
X118300000Y-66500000D03*
%TO.P,U3,12*%
X103700000Y-66500000D03*
%TO.P,U3,13*%
%TO.N,N/C*%
X103700000Y-67770000D03*
%TO.P,U3,14*%
X103700000Y-69040000D03*
%TO.P,U3,15*%
%TO.N,GDO0*%
X103700000Y-70310000D03*
%TO.P,U3,16*%
%TO.N,MISO*%
X103700000Y-71580000D03*
%TO.P,U3,17*%
%TO.N,MOSI*%
X103700000Y-72850000D03*
%TO.P,U3,18*%
%TO.N,SCK*%
X103700000Y-74120000D03*
%TO.P,U3,19*%
%TO.N,CS*%
X103700000Y-75390000D03*
%TO.P,U3,20*%
%TO.N,GND*%
X103700000Y-80960000D03*
%TO.P,U3,21*%
%TO.N,N/C*%
X103700000Y-82230000D03*
%TO.P,U3,22*%
%TO.N,GND*%
X103700000Y-83500000D03*
%TD*%
D12*
%TO.P,C2,1*%
%TO.N,+3V3*%
X172500000Y-66537500D03*
%TO.P,C2,2*%
%TO.N,GND*%
X172500000Y-64462500D03*
%TD*%
D10*
%TO.P,TP5,1*%
%TO.N,UART_328_TX*%
X161000000Y-91500000D03*
%TD*%
%TO.P,TP6,1*%
%TO.N,UART_PI_TX*%
X164000000Y-91500000D03*
%TD*%
%TO.P,TP4,1*%
%TO.N,GND*%
X158000000Y-91500000D03*
%TD*%
D14*
%TO.P,J7,1*%
%TO.N,PI_3V3*%
X177500000Y-88500000D03*
D15*
%TO.P,J7,2*%
%TO.N,WS_DATA*%
X177500000Y-86500000D03*
%TO.P,J7,3*%
%TO.N,GND*%
X177500000Y-84500000D03*
%TD*%
D10*
%TO.P,TP8,1*%
%TO.N,CS*%
X170000000Y-91500000D03*
%TD*%
D13*
%TO.P,R3,1*%
%TO.N,+3V3*%
X124500000Y-88500000D03*
%TO.P,R3,2*%
%TO.N,CS*%
X126500000Y-88500000D03*
%TD*%
D22*
%TO.P,L1,1*%
%TO.N,VREG_OUT*%
X165975000Y-65000000D03*
%TO.P,L1,2*%
%TO.N,+3V3*%
X168025000Y-65000000D03*
%TD*%
D23*
%TO.P,U1,1*%
%TO.N,GND*%
X155062500Y-64050000D03*
%TO.P,U1,2*%
%TO.N,VREG_OUT*%
X155062500Y-65950000D03*
%TO.P,U1,3*%
%TO.N,+5V*%
X156937500Y-65000000D03*
%TD*%
D13*
%TO.P,R5,1*%
%TO.N,LED_SPI*%
X171000000Y-84500000D03*
%TO.P,R5,2*%
%TO.N,WS_DATA*%
X173000000Y-84500000D03*
%TD*%
D22*
%TO.P,D1,1*%
%TO.N,GND*%
X156975000Y-71000000D03*
%TO.P,D1,2*%
%TO.N,LED_ANODE*%
X159025000Y-71000000D03*
%TD*%
D14*
%TO.P,J5,1*%
%TO.N,GND*%
X177500000Y-69500000D03*
D15*
%TO.P,J5,2*%
%TO.N,PI_3V3*%
X177500000Y-67500000D03*
%TO.P,J5,3*%
%TO.N,I2C_SCL*%
X177500000Y-65500000D03*
%TO.P,J5,4*%
%TO.N,I2C_SDA*%
X177500000Y-63500000D03*
%TD*%
D10*
%TO.P,TP2,1*%
%TO.N,+3V3*%
X152000000Y-91500000D03*
%TD*%
D24*
%TO.P,J2,1*%
%TO.N,MISO*%
X150000000Y-78000000D03*
D18*
%TO.P,J2,2*%
%TO.N,+3V3*%
X152540000Y-78000000D03*
%TO.P,J2,3*%
%TO.N,SCK*%
X150000000Y-80540000D03*
%TO.P,J2,4*%
%TO.N,MOSI*%
X152540000Y-80540000D03*
%TO.P,J2,5*%
%TO.N,RESET*%
X150000000Y-83080000D03*
%TO.P,J2,6*%
%TO.N,GND*%
X152540000Y-83080000D03*
%TD*%
D12*
%TO.P,C1,1*%
%TO.N,VREG_OUT*%
X161500000Y-66537500D03*
%TO.P,C1,2*%
%TO.N,GND*%
X161500000Y-64462500D03*
%TD*%
D10*
%TO.P,TP3,1*%
%TO.N,+5V*%
X155000000Y-91500000D03*
%TD*%
D24*
%TO.P,J1,1*%
%TO.N,PI_3V3*%
X128370000Y-98770000D03*
D18*
%TO.P,J1,2*%
%TO.N,+5V*%
X128370000Y-96230000D03*
%TO.P,J1,3*%
%TO.N,I2C_SDA*%
X130910000Y-98770000D03*
%TO.P,J1,4*%
%TO.N,+5V*%
X130910000Y-96230000D03*
%TO.P,J1,5*%
%TO.N,I2C_SCL*%
X133450000Y-98770000D03*
%TO.P,J1,6*%
%TO.N,GND*%
X133450000Y-96230000D03*
%TO.P,J1,7*%
%TO.N,PI_RESET_DRV*%
X135990000Y-98770000D03*
%TO.P,J1,8*%
%TO.N,UART_PI_TX*%
X135990000Y-96230000D03*
%TO.P,J1,9*%
%TO.N,GND*%
X138530000Y-98770000D03*
%TO.P,J1,10*%
%TO.N,UART_328_TX*%
X138530000Y-96230000D03*
%TO.P,J1,11*%
%TO.N,BTN*%
X141070000Y-98770000D03*
%TO.P,J1,12*%
%TO.N,LED_PWM*%
X141070000Y-96230000D03*
%TO.P,J1,13*%
%TO.N,N/C*%
X143610000Y-98770000D03*
%TO.P,J1,14*%
%TO.N,GND*%
X143610000Y-96230000D03*
%TO.P,J1,15*%
%TO.N,N/C*%
X146150000Y-98770000D03*
%TO.P,J1,16*%
X146150000Y-96230000D03*
%TO.P,J1,17*%
X148690000Y-98770000D03*
%TO.P,J1,18*%
X148690000Y-96230000D03*
%TO.P,J1,19*%
%TO.N,LED_SPI*%
X151230000Y-98770000D03*
%TO.P,J1,20*%
%TO.N,GND*%
X151230000Y-96230000D03*
%TO.P,J1,21*%
%TO.N,N/C*%
X153770000Y-98770000D03*
%TO.P,J1,22*%
X153770000Y-96230000D03*
%TO.P,J1,23*%
X156310000Y-98770000D03*
%TO.P,J1,24*%
X156310000Y-96230000D03*
%TO.P,J1,25*%
%TO.N,GND*%
X158850000Y-98770000D03*
%TO.P,J1,26*%
%TO.N,N/C*%
X158850000Y-96230000D03*
%TO.P,J1,27*%
X161390000Y-98770000D03*
%TO.P,J1,28*%
X161390000Y-96230000D03*
%TO.P,J1,29*%
X163930000Y-98770000D03*
%TO.P,J1,30*%
%TO.N,GND*%
X163930000Y-96230000D03*
%TO.P,J1,31*%
%TO.N,N/C*%
X166470000Y-98770000D03*
%TO.P,J1,32*%
X166470000Y-96230000D03*
%TO.P,J1,33*%
X169010000Y-98770000D03*
%TO.P,J1,34*%
%TO.N,GND*%
X169010000Y-96230000D03*
%TO.P,J1,35*%
%TO.N,N/C*%
X171550000Y-98770000D03*
%TO.P,J1,36*%
X171550000Y-96230000D03*
%TO.P,J1,37*%
X174090000Y-98770000D03*
%TO.P,J1,38*%
X174090000Y-96230000D03*
%TO.P,J1,39*%
%TO.N,GND*%
X176630000Y-98770000D03*
%TO.P,J1,40*%
%TO.N,N/C*%
X176630000Y-96230000D03*
%TD*%
D25*
%TO.N,+5V*%
X138383800Y-69071500D03*
%TO.N,LED_SPI*%
X157066300Y-88338900D03*
%TO.N,+3V3*%
X127855900Y-91098300D03*
X127677300Y-83023300D03*
%TO.N,GND*%
X103000000Y-87000000D03*
X124000000Y-93000000D03*
X139000000Y-66000000D03*
X106000000Y-63000000D03*
X142000000Y-66000000D03*
X178000000Y-99000000D03*
X102661000Y-84781500D03*
X106000000Y-81000000D03*
X112000000Y-78000000D03*
X103000000Y-63000000D03*
X175000000Y-63000000D03*
X119433000Y-83429600D03*
X121000000Y-87000000D03*
X127000000Y-63000000D03*
X109000000Y-84000000D03*
X184000000Y-75000000D03*
X115000000Y-63000000D03*
X184000000Y-78000000D03*
X136000000Y-66000000D03*
X184000000Y-69000000D03*
X109000000Y-78000000D03*
X143000000Y-71987500D03*
X112000000Y-93000000D03*
X121000000Y-96000000D03*
X133000000Y-66000000D03*
X130000000Y-72000000D03*
X148000000Y-63000000D03*
X106000000Y-84000000D03*
X181000000Y-93000000D03*
X109000000Y-87000000D03*
X178000000Y-75000000D03*
X184000000Y-72000000D03*
X112000000Y-84000000D03*
X109000000Y-81000000D03*
X184000000Y-99000000D03*
X121000000Y-63000000D03*
X103000000Y-84000000D03*
X181000000Y-63000000D03*
X103000000Y-66000000D03*
X175000000Y-72000000D03*
X145000000Y-63000000D03*
X138900000Y-78500000D03*
X166000000Y-63000000D03*
X130600000Y-77700000D03*
X109000000Y-69000000D03*
X119536000Y-82053500D03*
X109000000Y-93000000D03*
X106000000Y-87000000D03*
X181000000Y-84000000D03*
X127000000Y-93000000D03*
X160300000Y-84000000D03*
X103700000Y-81000000D03*
X184000000Y-84000000D03*
X157800000Y-92100000D03*
X118000000Y-63000000D03*
X151000000Y-69000000D03*
X130000000Y-66000000D03*
X184000000Y-96000000D03*
X154018000Y-62991200D03*
X155100000Y-64000000D03*
X133000000Y-87000000D03*
X161500000Y-62987500D03*
X181000000Y-66000000D03*
X121000000Y-99000000D03*
X163000000Y-96000000D03*
X181000000Y-72000000D03*
X121800000Y-66487500D03*
X112000000Y-63000000D03*
X181000000Y-69000000D03*
X119412000Y-65281200D03*
X129500000Y-80987500D03*
X133000000Y-63000000D03*
X184000000Y-81000000D03*
X139000000Y-63000000D03*
X143000000Y-80987500D03*
X119938000Y-75589700D03*
X184000000Y-93000000D03*
X118000000Y-90000000D03*
X109000000Y-63000000D03*
X142000000Y-63000000D03*
X130000000Y-75000000D03*
X175000000Y-69000000D03*
X151000000Y-66000000D03*
X106000000Y-93000000D03*
X106000000Y-90000000D03*
X184000000Y-66000000D03*
X130000000Y-63000000D03*
X163000000Y-93000000D03*
X118000000Y-93000000D03*
X118000000Y-87000000D03*
X121000000Y-90000000D03*
X155525000Y-71000000D03*
X112000000Y-87000000D03*
X103000000Y-78000000D03*
X172500000Y-62987500D03*
X103000000Y-93000000D03*
X136000000Y-63000000D03*
X184000000Y-87000000D03*
X181000000Y-87000000D03*
X157000000Y-63000000D03*
X158000000Y-91500000D03*
X109000000Y-66000000D03*
X184000000Y-63000000D03*
X160000000Y-63000000D03*
X109000000Y-90000000D03*
X112000000Y-81000000D03*
X119948000Y-74034200D03*
X133000000Y-90000000D03*
X178000000Y-72000000D03*
X106000000Y-78000000D03*
X106000000Y-69000000D03*
X115000000Y-87000000D03*
X119339000Y-84781500D03*
X175000000Y-75000000D03*
X121000000Y-93000000D03*
X181000000Y-78000000D03*
X181000000Y-90000000D03*
X115000000Y-93000000D03*
X130357000Y-79542300D03*
X181000000Y-75000000D03*
X175000000Y-78000000D03*
X151000000Y-63000000D03*
X181000000Y-81000000D03*
X124000000Y-63000000D03*
X141643000Y-78457700D03*
X169000000Y-63000000D03*
X103000000Y-81000000D03*
X102588000Y-65281200D03*
X115000000Y-84000000D03*
X163000000Y-63000000D03*
X106000000Y-66000000D03*
%TO.N,UART_PI_TX*%
X134749300Y-76077400D03*
X136192100Y-90496500D03*
%TO.N,UART_328_TX*%
X135590400Y-92301700D03*
X133905400Y-76078400D03*
%TO.N,PI_RESET_DRV*%
X133839100Y-69067800D03*
%TO.N,RESET*%
X143622200Y-71363200D03*
%TO.N,MOSI*%
X113515300Y-72875900D03*
X130729900Y-82688200D03*
X138053300Y-81915300D03*
%TO.N,MISO*%
X116891600Y-71580000D03*
%TO.N,SCK*%
X116751500Y-73659900D03*
%TO.N,GDO0*%
X134712200Y-73596300D03*
X143409100Y-89351500D03*
%TO.N,XTAL1*%
X127711400Y-80227200D03*
%TO.N,XTAL2*%
X130589400Y-81195200D03*
%TO.N,AREF*%
X138901800Y-79400000D03*
X140992100Y-83626200D03*
%TD*%
D26*
%TO.N,+5V*%
X137785900Y-91650100D02*
X135365100Y-91650100D01*
X147649400Y-65000000D02*
X143577900Y-69071500D01*
X135365100Y-91650100D02*
X130910000Y-96105200D01*
X143577900Y-69071500D02*
X138383800Y-69071500D01*
X156937500Y-65000000D02*
X147649400Y-65000000D01*
X130910000Y-96105200D02*
X130910000Y-96230000D01*
X153396600Y-92301700D02*
X138437500Y-92301700D01*
X155000000Y-91500000D02*
X154198300Y-91500000D01*
X138437500Y-92301700D02*
X137785900Y-91650100D01*
X130910000Y-96230000D02*
X128370000Y-96230000D01*
X154198300Y-91500000D02*
X153396600Y-92301700D01*
%TO.N,PI_3V3*%
X142458300Y-96530100D02*
X142458300Y-95700000D01*
X142458300Y-95700000D02*
X143173900Y-94984400D01*
X139034400Y-99955200D02*
X139800000Y-99189600D01*
X139800000Y-98351600D02*
X140651600Y-97500000D01*
X171015600Y-94984400D02*
X177500000Y-88500000D01*
X130419000Y-99955200D02*
X139034400Y-99955200D01*
X143173900Y-94984400D02*
X171015600Y-94984400D01*
X139800000Y-99189600D02*
X139800000Y-98351600D01*
X140651600Y-97500000D02*
X141488400Y-97500000D01*
X128370000Y-98770000D02*
X129521700Y-98770000D01*
X129521700Y-99057900D02*
X130419000Y-99955200D01*
X141488400Y-97500000D02*
X142458300Y-96530100D01*
X129521700Y-98770000D02*
X129521700Y-99057900D01*
%TO.N,LED_PWM*%
X166018100Y-93914000D02*
X143386000Y-93914000D01*
X143386000Y-93914000D02*
X141070000Y-96230000D01*
X171000000Y-88932100D02*
X166018100Y-93914000D01*
X171000000Y-88500000D02*
X171000000Y-88932100D01*
%TO.N,LED_SPI*%
X171000000Y-84500000D02*
X167161100Y-88338900D01*
X167161100Y-88338900D02*
X157066300Y-88338900D01*
%TO.N,WS_DATA*%
X177500000Y-86500000D02*
X175000000Y-86500000D01*
X175000000Y-86500000D02*
X173000000Y-88500000D01*
X175000000Y-86500000D02*
X173000000Y-84500000D01*
%TO.N,VREG_OUT*%
X163037500Y-65000000D02*
X161500000Y-66537500D01*
X155650000Y-66537500D02*
X161500000Y-66537500D01*
X165975000Y-65000000D02*
X163037500Y-65000000D01*
X155062500Y-65950000D02*
X155650000Y-66537500D01*
%TO.N,+3V3*%
X151381200Y-76841200D02*
X152540000Y-78000000D01*
X144048200Y-76841200D02*
X144048200Y-77692200D01*
X143000000Y-75537500D02*
X144048200Y-76585700D01*
X118300000Y-69040000D02*
X120802500Y-69040000D01*
X144048200Y-76841200D02*
X151381200Y-76841200D01*
X124500000Y-88500000D02*
X128462500Y-84537500D01*
X151922600Y-69931300D02*
X143068700Y-69931300D01*
X150796600Y-91098300D02*
X127855900Y-91098300D01*
X151198300Y-91500000D02*
X150796600Y-91098300D01*
X134149200Y-81000000D02*
X132920200Y-79771000D01*
X170962500Y-65000000D02*
X172500000Y-66537500D01*
X168025000Y-65000000D02*
X170962500Y-65000000D01*
X144048200Y-76585700D02*
X144048200Y-76841200D01*
X127109600Y-82455600D02*
X127677300Y-83023300D01*
X128462500Y-84537500D02*
X129500000Y-84537500D01*
X132443300Y-78600000D02*
X131837500Y-78600000D01*
X131837500Y-78600000D02*
X128469500Y-78600000D01*
X121800000Y-71930500D02*
X121800000Y-70037500D01*
X132920200Y-79771000D02*
X132920200Y-79076900D01*
X120802500Y-69040000D02*
X121800000Y-70037500D01*
X151922600Y-69931300D02*
X151922600Y-76299800D01*
X132920200Y-79076900D02*
X132443300Y-78600000D01*
X163093700Y-69931300D02*
X151922600Y-69931300D01*
X144048200Y-77692200D02*
X140740400Y-81000000D01*
X151922600Y-76299800D02*
X151381200Y-76841200D01*
X128469500Y-78600000D02*
X127109600Y-79959900D01*
X140740400Y-81000000D02*
X140162500Y-81000000D01*
X127855900Y-91098300D02*
X127098300Y-91098300D01*
X131837500Y-80200000D02*
X132491200Y-80200000D01*
X127109600Y-79959900D02*
X127109600Y-82455600D01*
X152000000Y-91500000D02*
X151198300Y-91500000D01*
X168025000Y-65000000D02*
X163093700Y-69931300D01*
X127098300Y-91098300D02*
X124500000Y-88500000D01*
X128469500Y-78600000D02*
X121800000Y-71930500D01*
X132491200Y-80200000D02*
X132920200Y-79771000D01*
X143068700Y-69931300D02*
X143000000Y-70000000D01*
X140162500Y-81000000D02*
X134149200Y-81000000D01*
D27*
%TO.N,GND*%
X118300000Y-80960000D02*
X119536000Y-82053500D01*
X103700000Y-83500000D02*
X102661000Y-84781500D01*
X129500000Y-82462500D02*
X129500000Y-80987500D01*
X156975000Y-71000000D02*
X155525000Y-71000000D01*
X121800000Y-67962500D02*
X121800000Y-66487500D01*
X161500000Y-64462500D02*
X161500000Y-62987500D01*
X118300000Y-83500000D02*
X119339000Y-84781500D01*
D28*
X131199999Y-79500000D02*
X130400000Y-79500000D01*
D27*
X118300000Y-74120000D02*
X119948000Y-74034200D01*
X118300000Y-82230000D02*
X119433000Y-83429600D01*
X155062000Y-64050000D02*
X154018000Y-62991200D01*
X118300000Y-66500000D02*
X119412000Y-65281200D01*
X158700000Y-84000000D02*
X160300000Y-84000000D01*
X143000000Y-73462500D02*
X143000000Y-71987500D01*
D28*
X157800000Y-91900000D02*
X157800000Y-92100000D01*
D27*
X131838000Y-79400000D02*
X130357000Y-79542300D01*
X140162000Y-78600000D02*
X141643000Y-78457700D01*
X172500000Y-64462500D02*
X172500000Y-62987500D01*
D28*
X139500000Y-78500000D02*
X138900000Y-78500000D01*
D27*
X143000000Y-82462500D02*
X143000000Y-80987500D01*
X103700000Y-66500000D02*
X102588000Y-65281200D01*
D28*
X131199999Y-77700000D02*
X130600000Y-77700000D01*
D27*
X118300000Y-75390000D02*
X119938000Y-75589700D01*
D26*
%TO.N,UART_PI_TX*%
X162426600Y-91499900D02*
X161423200Y-90496500D01*
X162426600Y-91500000D02*
X162426600Y-91499900D01*
X134800000Y-74837500D02*
X134800000Y-76026700D01*
X164000000Y-91500000D02*
X162426600Y-91500000D01*
X134800000Y-76026700D02*
X134749300Y-76077400D01*
X161423200Y-90496500D02*
X136192100Y-90496500D01*
%TO.N,UART_328_TX*%
X133905400Y-74932100D02*
X134000000Y-74837500D01*
X136565900Y-92301700D02*
X138530000Y-94265800D01*
X133905400Y-76078400D02*
X133905400Y-74932100D01*
X138530000Y-94265800D02*
X138530000Y-96230000D01*
X158572800Y-93125500D02*
X139670300Y-93125500D01*
X161000000Y-91500000D02*
X160198300Y-91500000D01*
X160198300Y-91500000D02*
X158572800Y-93125500D01*
X135590400Y-92301700D02*
X136565900Y-92301700D01*
X139670300Y-93125500D02*
X138530000Y-94265800D01*
%TO.N,PI_RESET_DRV*%
X126426400Y-68463900D02*
X124962500Y-67000000D01*
X133839100Y-69067800D02*
X133235200Y-68463900D01*
X133235200Y-68463900D02*
X126426400Y-68463900D01*
%TO.N,RESET*%
X135600000Y-68000000D02*
X143000000Y-68000000D01*
X135600000Y-71363200D02*
X143622200Y-71363200D01*
X134600000Y-67000000D02*
X127037500Y-67000000D01*
X135600000Y-71363200D02*
X135600000Y-68000000D01*
X155300000Y-84000000D02*
X154548300Y-84000000D01*
X154304900Y-84243400D02*
X154548300Y-84000000D01*
X135600000Y-68000000D02*
X134600000Y-67000000D01*
X146500000Y-64500000D02*
X145698300Y-64500000D01*
X151163400Y-84243400D02*
X154304900Y-84243400D01*
X145698300Y-65301700D02*
X145698300Y-64500000D01*
X143000000Y-68000000D02*
X145698300Y-65301700D01*
X135600000Y-74837500D02*
X135600000Y-71363200D01*
X150000000Y-83080000D02*
X151163400Y-84243400D01*
%TO.N,MOSI*%
X138000000Y-83162500D02*
X138000000Y-82059400D01*
X103700000Y-72850000D02*
X104901700Y-72850000D01*
X104927600Y-72875900D02*
X104901700Y-72850000D01*
X132308700Y-82688200D02*
X130729900Y-82688200D01*
X132937500Y-82059400D02*
X132308700Y-82688200D01*
X138000000Y-82059400D02*
X132937500Y-82059400D01*
X113515300Y-72875900D02*
X104927600Y-72875900D01*
X138000000Y-82059400D02*
X138000000Y-81968600D01*
X138000000Y-81968600D02*
X138053300Y-81915300D01*
%TO.N,MISO*%
X103700000Y-71580000D02*
X116891600Y-71580000D01*
X144114400Y-85428400D02*
X147732800Y-81810000D01*
X151151700Y-80015400D02*
X150288000Y-79151700D01*
X150288000Y-79151700D02*
X150000000Y-79151700D01*
X150000000Y-78000000D02*
X150000000Y-79151700D01*
X150418400Y-81810000D02*
X151151700Y-81076700D01*
X138800000Y-83162500D02*
X141065900Y-85428400D01*
X147732800Y-81810000D02*
X150418400Y-81810000D01*
X141065900Y-85428400D02*
X144114400Y-85428400D01*
X151151700Y-81076700D02*
X151151700Y-80015400D01*
%TO.N,SCK*%
X142333800Y-80378400D02*
X140912200Y-81800000D01*
X150000000Y-80540000D02*
X149838400Y-80378400D01*
X140912200Y-81800000D02*
X140162500Y-81800000D01*
X149838400Y-80378400D02*
X142333800Y-80378400D01*
X103700000Y-74120000D02*
X104901700Y-74120000D01*
X104901700Y-74120000D02*
X105361800Y-73659900D01*
X105361800Y-73659900D02*
X116751500Y-73659900D01*
%TO.N,CS*%
X136391800Y-84548600D02*
X137200000Y-83740400D01*
X130204900Y-83625000D02*
X131128500Y-84548500D01*
X137200000Y-83740400D02*
X137200000Y-83162500D01*
X127161600Y-83358400D02*
X127428200Y-83625000D01*
X169566200Y-87480700D02*
X168068500Y-88978400D01*
X143886900Y-88978400D02*
X143658300Y-88749800D01*
X142209400Y-88749800D02*
X137200000Y-83740400D01*
X170000000Y-90698300D02*
X170400800Y-90698300D01*
X171919100Y-89180000D02*
X171919100Y-87831100D01*
X115671200Y-75390000D02*
X123639600Y-83358400D01*
X168068500Y-88978400D02*
X143886900Y-88978400D01*
X143658300Y-88749800D02*
X142209400Y-88749800D01*
X170400800Y-90698300D02*
X171919100Y-89180000D01*
X170000000Y-91500000D02*
X170000000Y-90698300D01*
X171568700Y-87480700D02*
X169566200Y-87480700D01*
X131128500Y-84548600D02*
X136391800Y-84548600D01*
X127428200Y-83625000D02*
X130204900Y-83625000D01*
X171919100Y-87831100D02*
X171568700Y-87480700D01*
X127177000Y-88500000D02*
X131128500Y-84548500D01*
X131128500Y-84548500D02*
X131128500Y-84548600D01*
X123639600Y-83358400D02*
X127161600Y-83358400D01*
X103700000Y-75390000D02*
X115671200Y-75390000D01*
X126500000Y-88500000D02*
X127177000Y-88500000D01*
%TO.N,GDO0*%
X126619100Y-73750000D02*
X133200000Y-73750000D01*
X167000000Y-91500000D02*
X166198300Y-91500000D01*
X134558500Y-73750000D02*
X134712200Y-73596300D01*
X103700000Y-70310000D02*
X112483500Y-70310000D01*
X143653500Y-89595900D02*
X164294200Y-89595900D01*
X112483500Y-70310000D02*
X118153900Y-64639600D01*
X133200000Y-73750000D02*
X133200000Y-74837500D01*
X123799700Y-67607500D02*
X123799700Y-70930600D01*
X123799700Y-70930600D02*
X126619100Y-73750000D01*
X164294200Y-89595900D02*
X166198300Y-91500000D01*
X120831800Y-64639600D02*
X123799700Y-67607500D01*
X143409100Y-89351500D02*
X143653500Y-89595900D01*
X118153900Y-64639600D02*
X120831800Y-64639600D01*
X133200000Y-73750000D02*
X134558500Y-73750000D01*
%TO.N,XTAL1*%
X130488800Y-80227200D02*
X127711400Y-80227200D01*
X131837500Y-81000000D02*
X131261600Y-81000000D01*
X131261600Y-81000000D02*
X130488800Y-80227200D01*
%TO.N,XTAL2*%
X131837500Y-81800000D02*
X131194200Y-81800000D01*
X131194200Y-81800000D02*
X130589400Y-81195200D01*
%TO.N,AREF*%
X140162500Y-79400000D02*
X138901800Y-79400000D01*
X141903400Y-84537500D02*
X143000000Y-84537500D01*
X140992100Y-83626200D02*
X141903400Y-84537500D01*
%TO.N,LED_TREIBER*%
X147500000Y-74500000D02*
X151000000Y-71000000D01*
X138003100Y-77000000D02*
X140503100Y-74500000D01*
X140503100Y-74500000D02*
X147500000Y-74500000D01*
X131837500Y-77000000D02*
X138003100Y-77000000D01*
%TO.N,LED_ANODE*%
X154050800Y-72050800D02*
X153000000Y-71000000D01*
X157974200Y-72050800D02*
X154050800Y-72050800D01*
X159025000Y-71000000D02*
X157974200Y-72050800D01*
%TD*%
M02*
