%TF.GenerationSoftware,KiCad,Pcbnew,9.0.2+dfsg-1*%
%TF.CreationDate,2026-07-30T22:14:42+02:00*%
%TF.ProjectId,AskSin-Analyzer-V3,41736b53-696e-42d4-916e-616c797a6572,rev?*%
%TF.SameCoordinates,Original*%
%TF.FileFunction,Copper,L4,Bot*%
%TF.FilePolarity,Positive*%
%FSLAX46Y46*%
G04 Gerber Fmt 4.6, Leading zero omitted, Abs format (unit mm)*
G04 Created by KiCad (PCBNEW 9.0.2+dfsg-1) date 2026-07-30 22:14:42*
%MOMM*%
%LPD*%
G01*
G04 APERTURE LIST*
G04 Aperture macros list*
%AMRoundRect*
0 Rectangle with rounded corners*
0 $1 Rounding radius*
0 $2 $3 $4 $5 $6 $7 $8 $9 X,Y pos of 4 corners*
0 Add a 4 corners polygon primitive as box body*
4,1,4,$2,$3,$4,$5,$6,$7,$8,$9,$2,$3,0*
0 Add four circle primitives for the rounded corners*
1,1,$1+$1,$2,$3*
1,1,$1+$1,$4,$5*
1,1,$1+$1,$6,$7*
1,1,$1+$1,$8,$9*
0 Add four rect primitives between the rounded corners*
20,1,$1+$1,$2,$3,$4,$5,0*
20,1,$1+$1,$4,$5,$6,$7,0*
20,1,$1+$1,$6,$7,$8,$9,0*
20,1,$1+$1,$8,$9,$2,$3,0*%
G04 Aperture macros list end*
%TA.AperFunction,ComponentPad*%
%ADD10RoundRect,0.250000X-0.350000X-0.625000X0.350000X-0.625000X0.350000X0.625000X-0.350000X0.625000X0*%
%TD*%
%TA.AperFunction,ComponentPad*%
%ADD11O,1.200000X1.750000*%
%TD*%
%TA.AperFunction,ComponentPad*%
%ADD12C,1.700000*%
%TD*%
%TA.AperFunction,ComponentPad*%
%ADD13R,1.700000X1.700000*%
%TD*%
%TA.AperFunction,ViaPad*%
%ADD14C,0.600000*%
%TD*%
%TA.AperFunction,Conductor*%
%ADD15C,0.200000*%
%TD*%
G04 APERTURE END LIST*
D10*
%TO.P,J6,1*%
%TO.N,BTN*%
X172000000Y-70000000D03*
D11*
%TO.P,J6,2*%
%TO.N,GND*%
X174000000Y-70000000D03*
%TD*%
D12*
%TO.P,Y1,1*%
%TO.N,XTAL1*%
X127000000Y-76000000D03*
%TO.P,Y1,2*%
%TO.N,GND*%
X129500000Y-76000000D03*
%TO.P,Y1,3*%
%TO.N,XTAL2*%
X132000000Y-76000000D03*
%TD*%
D10*
%TO.P,J5,1*%
%TO.N,GND*%
X170500000Y-63500000D03*
D11*
%TO.P,J5,2*%
%TO.N,PI_3V3*%
X172500000Y-63500000D03*
%TO.P,J5,3*%
%TO.N,I2C_SCL*%
X174500000Y-63500000D03*
%TO.P,J5,4*%
%TO.N,I2C_SDA*%
X176500000Y-63500000D03*
%TD*%
D10*
%TO.P,J7,1*%
%TO.N,PI_3V3*%
X172500000Y-76000000D03*
D11*
%TO.P,J7,2*%
%TO.N,WS_DATA*%
X174500000Y-76000000D03*
%TO.P,J7,3*%
%TO.N,GND*%
X176500000Y-76000000D03*
%TD*%
D13*
%TO.P,J2,1*%
%TO.N,MISO*%
X106000000Y-88000000D03*
D12*
%TO.P,J2,2*%
%TO.N,+3V3*%
X108540000Y-88000000D03*
%TO.P,J2,3*%
%TO.N,SCK*%
X106000000Y-90540000D03*
%TO.P,J2,4*%
%TO.N,MOSI*%
X108540000Y-90540000D03*
%TO.P,J2,5*%
%TO.N,RESET*%
X106000000Y-93080000D03*
%TO.P,J2,6*%
%TO.N,GND*%
X108540000Y-93080000D03*
%TD*%
D13*
%TO.P,J1,1*%
%TO.N,PI_3V3*%
X120370000Y-84770000D03*
D12*
%TO.P,J1,2*%
%TO.N,+5V*%
X120370000Y-82230000D03*
%TO.P,J1,3*%
%TO.N,I2C_SDA*%
X122910000Y-84770000D03*
%TO.P,J1,4*%
%TO.N,+5V*%
X122910000Y-82230000D03*
%TO.P,J1,5*%
%TO.N,I2C_SCL*%
X125450000Y-84770000D03*
%TO.P,J1,6*%
%TO.N,GND*%
X125450000Y-82230000D03*
%TO.P,J1,7*%
%TO.N,PI_RESET_DRV*%
X127990000Y-84770000D03*
%TO.P,J1,8*%
%TO.N,UART_PI_TX*%
X127990000Y-82230000D03*
%TO.P,J1,9*%
%TO.N,GND*%
X130530000Y-84770000D03*
%TO.P,J1,10*%
%TO.N,UART_328_TX*%
X130530000Y-82230000D03*
%TO.P,J1,11*%
%TO.N,BTN*%
X133070000Y-84770000D03*
%TO.P,J1,12*%
%TO.N,LED_PWM*%
X133070000Y-82230000D03*
%TO.P,J1,13*%
%TO.N,N/C*%
X135610000Y-84770000D03*
%TO.P,J1,14*%
%TO.N,GND*%
X135610000Y-82230000D03*
%TO.P,J1,15*%
%TO.N,N/C*%
X138150000Y-84770000D03*
%TO.P,J1,16*%
X138150000Y-82230000D03*
%TO.P,J1,17*%
X140690000Y-84770000D03*
%TO.P,J1,18*%
X140690000Y-82230000D03*
%TO.P,J1,19*%
%TO.N,LED_SPI*%
X143230000Y-84770000D03*
%TO.P,J1,20*%
%TO.N,GND*%
X143230000Y-82230000D03*
%TO.P,J1,21*%
%TO.N,N/C*%
X145770000Y-84770000D03*
%TO.P,J1,22*%
X145770000Y-82230000D03*
%TO.P,J1,23*%
X148310000Y-84770000D03*
%TO.P,J1,24*%
X148310000Y-82230000D03*
%TO.P,J1,25*%
%TO.N,GND*%
X150850000Y-84770000D03*
%TO.P,J1,26*%
%TO.N,N/C*%
X150850000Y-82230000D03*
%TO.P,J1,27*%
X153390000Y-84770000D03*
%TO.P,J1,28*%
X153390000Y-82230000D03*
%TO.P,J1,29*%
X155930000Y-84770000D03*
%TO.P,J1,30*%
%TO.N,GND*%
X155930000Y-82230000D03*
%TO.P,J1,31*%
%TO.N,N/C*%
X158470000Y-84770000D03*
%TO.P,J1,32*%
X158470000Y-82230000D03*
%TO.P,J1,33*%
X161010000Y-84770000D03*
%TO.P,J1,34*%
%TO.N,GND*%
X161010000Y-82230000D03*
%TO.P,J1,35*%
%TO.N,N/C*%
X163550000Y-84770000D03*
%TO.P,J1,36*%
X163550000Y-82230000D03*
%TO.P,J1,37*%
X166090000Y-84770000D03*
%TO.P,J1,38*%
X166090000Y-82230000D03*
%TO.P,J1,39*%
%TO.N,GND*%
X168630000Y-84770000D03*
%TO.P,J1,40*%
%TO.N,N/C*%
X168630000Y-82230000D03*
%TD*%
D14*
%TO.N,+5V*%
X144807600Y-76188700D03*
X147849600Y-64419600D03*
%TO.N,I2C_SDA*%
X135006500Y-79422400D03*
X149733500Y-61154700D03*
%TO.N,I2C_SCL*%
X158171500Y-71724500D03*
%TO.N,GND*%
X106000000Y-132000000D03*
X113590000Y-61062100D03*
X172000000Y-78000000D03*
X109000000Y-108000000D03*
X141643000Y-66457700D03*
X172000000Y-81000000D03*
X103000000Y-63000000D03*
X103000000Y-126000000D03*
X175000000Y-72000000D03*
X128012000Y-63000000D03*
X103000000Y-90000000D03*
X106000000Y-123000000D03*
X118000000Y-129000000D03*
X178000000Y-72000000D03*
X103000000Y-129000000D03*
X175000000Y-69000000D03*
X115000000Y-63000000D03*
X103000000Y-117000000D03*
X169000000Y-69000000D03*
X122781000Y-61660600D03*
X153525000Y-71000000D03*
X178000000Y-78000000D03*
X106000000Y-66000000D03*
X157012000Y-67000000D03*
X141700000Y-63800000D03*
X103000000Y-108000000D03*
X126400000Y-62900000D03*
X175000000Y-81000000D03*
X118000000Y-132000000D03*
X130357000Y-67542300D03*
X103000000Y-93000000D03*
X103000000Y-72000000D03*
X103000000Y-84000000D03*
X172000000Y-66000000D03*
X121000000Y-63000000D03*
X103000000Y-87000000D03*
X151000000Y-75000000D03*
X103000000Y-120000000D03*
X115000000Y-129000000D03*
X109000000Y-120000000D03*
X144500000Y-62500000D03*
X145000000Y-63000000D03*
X157000000Y-63000000D03*
X138512000Y-75000000D03*
X151000000Y-66000000D03*
X127000000Y-63000000D03*
X153300000Y-76000000D03*
X103000000Y-105000000D03*
X172000000Y-87000000D03*
X103000000Y-99000000D03*
X109000000Y-126000000D03*
X105500000Y-110500000D03*
X130699999Y-65800000D03*
X146512000Y-63000000D03*
X109000000Y-132000000D03*
X103000000Y-114000000D03*
X103000000Y-132000000D03*
X150500000Y-61900000D03*
X103281000Y-61587800D03*
X163000000Y-75000000D03*
X130500000Y-68200000D03*
X169000000Y-75000000D03*
X106000000Y-75000000D03*
X109000000Y-123000000D03*
X103000000Y-96000000D03*
X145000000Y-67000000D03*
X175000000Y-66000000D03*
X157000000Y-87000000D03*
X166000000Y-75000000D03*
X169000000Y-78000000D03*
X148018000Y-60991200D03*
X154000000Y-87000000D03*
X120053000Y-61464300D03*
X154800000Y-67700000D03*
X150600000Y-66599999D03*
X178000000Y-69000000D03*
X112000000Y-132000000D03*
X106000000Y-96000000D03*
X103000000Y-102000000D03*
X103000000Y-111000000D03*
X103000000Y-66000000D03*
X106000000Y-129000000D03*
X103281000Y-78412200D03*
X175000000Y-78000000D03*
X106000000Y-111000000D03*
X169000000Y-66000000D03*
X169000000Y-87000000D03*
X103000000Y-75000000D03*
X166000000Y-87000000D03*
X146512000Y-67000000D03*
X106000000Y-72000000D03*
X122781000Y-78339400D03*
X160000000Y-87000000D03*
X103000000Y-123000000D03*
X109000000Y-96000000D03*
X112034000Y-61052200D03*
X175000000Y-87000000D03*
X148000000Y-87000000D03*
X106000000Y-69000000D03*
X103000000Y-69000000D03*
X118000000Y-63000000D03*
X121430000Y-61567100D03*
X109000000Y-129000000D03*
X178000000Y-66000000D03*
X166000000Y-78000000D03*
X145000000Y-66000000D03*
X112000000Y-63000000D03*
X169000000Y-63000000D03*
X163000000Y-87000000D03*
X151000000Y-87000000D03*
X178000000Y-75000000D03*
X142000000Y-81000000D03*
X178000000Y-63000000D03*
X112000000Y-129000000D03*
%TO.N,UART_PI_TX*%
X134853200Y-64101400D03*
X110850800Y-116774700D03*
%TO.N,UART_328_TX*%
X133920800Y-64098500D03*
X110197000Y-113698300D03*
%TO.N,PI_RESET_DRV*%
X124462500Y-72269300D03*
%TO.N,RESET*%
X125323500Y-71049300D03*
X140984100Y-73631700D03*
X136124000Y-64104800D03*
%TO.N,MOSI*%
X125496900Y-74126600D03*
X132417700Y-71459500D03*
%TO.N,MISO*%
X135686000Y-65313800D03*
X138126400Y-72408400D03*
%TO.N,SCK*%
X133101000Y-69036500D03*
X114260900Y-78503300D03*
%TO.N,CS*%
X110822000Y-84569000D03*
X107002500Y-125000000D03*
%TO.N,LED_TREIBER*%
X137423300Y-64519000D03*
X144797400Y-69785700D03*
%TD*%
D15*
%TO.N,+5V*%
X147849600Y-73146700D02*
X147849600Y-64419600D01*
X144807600Y-76188700D02*
X147849600Y-73146700D01*
%TO.N,PI_3V3*%
X172926200Y-65102900D02*
X172500000Y-64676700D01*
X172500000Y-76000000D02*
X172926200Y-75573800D01*
X172500000Y-63500000D02*
X172500000Y-64676700D01*
X172926200Y-75573800D02*
X172926200Y-65102900D01*
%TO.N,I2C_SDA*%
X136105600Y-79422400D02*
X135006500Y-79422400D01*
X149733500Y-61154700D02*
X147114900Y-63773300D01*
X147114900Y-63773300D02*
X147114900Y-68413100D01*
X147114900Y-68413100D02*
X136105600Y-79422400D01*
%TO.N,I2C_SCL*%
X166747300Y-62322300D02*
X158171500Y-70898100D01*
X174500000Y-63500000D02*
X173598300Y-63500000D01*
X172984200Y-62322300D02*
X166747300Y-62322300D01*
X173598300Y-63500000D02*
X173598300Y-62936400D01*
X173598300Y-62936400D02*
X172984200Y-62322300D01*
X158171500Y-70898100D02*
X158171500Y-71724500D01*
%TO.N,UART_PI_TX*%
X133540200Y-83388600D02*
X134400200Y-82528600D01*
X128437600Y-85984100D02*
X129148600Y-85273100D01*
X134400200Y-69861700D02*
X134853200Y-69408700D01*
X134400200Y-82528600D02*
X134400200Y-69861700D01*
X112465300Y-85984100D02*
X128437600Y-85984100D01*
X110850800Y-87598600D02*
X112465300Y-85984100D01*
X110850800Y-116774700D02*
X110850800Y-87598600D01*
X127990000Y-82230000D02*
X129148600Y-83388600D01*
X129148600Y-85273100D02*
X129148600Y-83388600D01*
X134853200Y-69408700D02*
X134853200Y-64101400D01*
X129148600Y-83388600D02*
X133540200Y-83388600D01*
%TO.N,UART_328_TX*%
X125145400Y-72071500D02*
X125145400Y-73627300D01*
X125145400Y-73627300D02*
X124895200Y-73877500D01*
X124696800Y-71622900D02*
X125145400Y-72071500D01*
X124895200Y-73877500D02*
X124895200Y-76595200D01*
X133689200Y-70004700D02*
X134090900Y-69603000D01*
X134090900Y-69497500D02*
X134136400Y-69452000D01*
X111435900Y-84438500D02*
X124251500Y-71622900D01*
X134136400Y-69452000D02*
X134136400Y-64314100D01*
X110197000Y-113698300D02*
X110197000Y-86245400D01*
X134090900Y-69603000D02*
X134090900Y-69497500D01*
X133689200Y-79070800D02*
X133689200Y-70004700D01*
X134136400Y-64314100D02*
X133920800Y-64098500D01*
X130530000Y-82230000D02*
X133689200Y-79070800D01*
X124895200Y-76595200D02*
X130530000Y-82230000D01*
X110197000Y-86245400D02*
X111435900Y-85006500D01*
X111435900Y-85006500D02*
X111435900Y-84438500D01*
X124251500Y-71622900D02*
X124696800Y-71622900D01*
%TO.N,PI_RESET_DRV*%
X127990000Y-84770000D02*
X126720000Y-83500000D01*
X126720000Y-79487200D02*
X124462500Y-77229700D01*
X126720000Y-83500000D02*
X126720000Y-79487200D01*
X124462500Y-77229700D02*
X124462500Y-72269300D01*
%TO.N,RESET*%
X133734700Y-69285700D02*
X133734700Y-68768700D01*
X133291200Y-68325200D02*
X133291200Y-63848400D01*
X140984100Y-68964900D02*
X136124000Y-64104800D01*
X107270000Y-91810000D02*
X106000000Y-93080000D01*
X135482200Y-63463000D02*
X136124000Y-64104800D01*
X125323500Y-71049300D02*
X123490900Y-71049300D01*
X125323500Y-71049300D02*
X131971100Y-71049300D01*
X131971100Y-71049300D02*
X133734700Y-69285700D01*
X133734700Y-68768700D02*
X133291200Y-68325200D01*
X123490900Y-71049300D02*
X107270000Y-87270200D01*
X133676600Y-63463000D02*
X135482200Y-63463000D01*
X107270000Y-87270200D02*
X107270000Y-91810000D01*
X133291200Y-63848400D02*
X133676600Y-63463000D01*
X140984100Y-73631700D02*
X140984100Y-68964900D01*
%TO.N,MOSI*%
X125496900Y-74126600D02*
X129750600Y-74126600D01*
X129750600Y-74126600D02*
X132417700Y-71459500D01*
%TO.N,MISO*%
X138126400Y-72408400D02*
X135686000Y-69968000D01*
X135686000Y-69968000D02*
X135686000Y-65313800D01*
%TO.N,SCK*%
X109969500Y-83186100D02*
X114260900Y-78894700D01*
X104848300Y-87009900D02*
X108672100Y-83186100D01*
X108672100Y-83186100D02*
X109969500Y-83186100D01*
X123727700Y-69036500D02*
X133101000Y-69036500D01*
X114260900Y-78503300D02*
X123727700Y-69036500D01*
X106000000Y-90540000D02*
X104848300Y-89388300D01*
X114260900Y-78894700D02*
X114260900Y-78503300D01*
X104848300Y-89388300D02*
X104848300Y-87009900D01*
%TO.N,CS*%
X107002500Y-125000000D02*
X107002500Y-114310500D01*
X109795300Y-111517700D02*
X109795300Y-85595700D01*
X109795300Y-85595700D02*
X110822000Y-84569000D01*
X107002500Y-114310500D02*
X109795300Y-111517700D01*
%TO.N,LED_TREIBER*%
X144797400Y-69785700D02*
X142690000Y-69785700D01*
X142690000Y-69785700D02*
X137423300Y-64519000D01*
%TD*%
M02*
