M48
; DRILL file {KiCad 9.0.2+dfsg-1} date 2026-07-30T22:14:42+0200
; FORMAT={-:-/ absolute / metric / decimal}
; #@! TF.CreationDate,2026-07-30T22:14:42+02:00
; #@! TF.GenerationSoftware,Kicad,Pcbnew,9.0.2+dfsg-1
; #@! TF.FileFunction,Plated,1,4,PTH
FMAT,2
METRIC
; #@! TA.AperFunction,Plated,PTH,ViaDrill
T1C0.300
; #@! TA.AperFunction,Plated,PTH,ComponentDrill
T2C0.750
; #@! TA.AperFunction,Plated,PTH,ComponentDrill
T3C1.000
%
G90
G05
T1
X103.0Y-63.0
X103.0Y-66.0
X103.0Y-69.0
X103.0Y-72.0
X103.0Y-75.0
X103.0Y-84.0
X103.0Y-87.0
X103.0Y-90.0
X103.0Y-93.0
X103.0Y-96.0
X103.0Y-99.0
X103.0Y-102.0
X103.0Y-105.0
X103.0Y-108.0
X103.0Y-111.0
X103.0Y-114.0
X103.0Y-117.0
X103.0Y-120.0
X103.0Y-123.0
X103.0Y-126.0
X103.0Y-129.0
X103.0Y-132.0
X103.281Y-61.588
X103.281Y-78.412
X105.5Y-110.5
X106.0Y-66.0
X106.0Y-69.0
X106.0Y-72.0
X106.0Y-75.0
X106.0Y-96.0
X106.0Y-111.0
X106.0Y-123.0
X106.0Y-129.0
X106.0Y-132.0
X107.002Y-125.0
X109.0Y-96.0
X109.0Y-108.0
X109.0Y-120.0
X109.0Y-123.0
X109.0Y-126.0
X109.0Y-129.0
X109.0Y-132.0
X110.197Y-113.698
X110.822Y-84.569
X110.851Y-116.775
X112.0Y-63.0
X112.0Y-129.0
X112.0Y-132.0
X112.034Y-61.052
X113.59Y-61.062
X114.261Y-78.503
X115.0Y-63.0
X115.0Y-129.0
X118.0Y-63.0
X118.0Y-129.0
X118.0Y-132.0
X120.053Y-61.464
X121.0Y-63.0
X121.43Y-61.567
X122.781Y-61.661
X122.781Y-78.339
X124.462Y-72.269
X125.323Y-71.049
X125.497Y-74.127
X126.4Y-62.9
X127.0Y-63.0
X128.012Y-63.0
X130.357Y-67.542
X130.5Y-68.2
X130.7Y-65.8
X132.418Y-71.459
X133.101Y-69.037
X133.921Y-64.099
X134.853Y-64.101
X135.006Y-79.422
X135.686Y-65.314
X136.124Y-64.105
X137.423Y-64.519
X138.126Y-72.408
X138.512Y-75.0
X140.984Y-73.632
X141.643Y-66.458
X141.7Y-63.8
X142.0Y-81.0
X144.5Y-62.5
X144.797Y-69.786
X144.808Y-76.189
X145.0Y-63.0
X145.0Y-66.0
X145.0Y-67.0
X146.512Y-63.0
X146.512Y-67.0
X147.85Y-64.42
X148.0Y-87.0
X148.018Y-60.991
X149.733Y-61.155
X150.5Y-61.9
X150.6Y-66.6
X151.0Y-66.0
X151.0Y-75.0
X151.0Y-87.0
X153.3Y-76.0
X153.525Y-71.0
X154.0Y-87.0
X154.8Y-67.7
X157.0Y-63.0
X157.0Y-87.0
X157.012Y-67.0
X158.171Y-71.724
X160.0Y-87.0
X163.0Y-75.0
X163.0Y-87.0
X166.0Y-75.0
X166.0Y-78.0
X166.0Y-87.0
X169.0Y-63.0
X169.0Y-66.0
X169.0Y-69.0
X169.0Y-75.0
X169.0Y-78.0
X169.0Y-87.0
X172.0Y-66.0
X172.0Y-78.0
X172.0Y-81.0
X172.0Y-87.0
X175.0Y-66.0
X175.0Y-69.0
X175.0Y-72.0
X175.0Y-78.0
X175.0Y-81.0
X175.0Y-87.0
X178.0Y-63.0
X178.0Y-66.0
X178.0Y-69.0
X178.0Y-72.0
X178.0Y-75.0
X178.0Y-78.0
T2
X170.5Y-63.5
X172.0Y-70.0
X172.5Y-63.5
X172.5Y-76.0
X174.0Y-70.0
X174.5Y-63.5
X174.5Y-76.0
X176.5Y-63.5
X176.5Y-76.0
T3
X106.0Y-88.0
X106.0Y-90.54
X106.0Y-93.08
X108.54Y-88.0
X108.54Y-90.54
X108.54Y-93.08
X120.37Y-82.23
X120.37Y-84.77
X122.91Y-82.23
X122.91Y-84.77
X125.45Y-82.23
X125.45Y-84.77
X127.0Y-76.0
X127.99Y-82.23
X127.99Y-84.77
X129.5Y-76.0
X130.53Y-82.23
X130.53Y-84.77
X132.0Y-76.0
X133.07Y-82.23
X133.07Y-84.77
X135.61Y-82.23
X135.61Y-84.77
X138.15Y-82.23
X138.15Y-84.77
X140.69Y-82.23
X140.69Y-84.77
X143.23Y-82.23
X143.23Y-84.77
X145.77Y-82.23
X145.77Y-84.77
X148.31Y-82.23
X148.31Y-84.77
X150.85Y-82.23
X150.85Y-84.77
X153.39Y-82.23
X153.39Y-84.77
X155.93Y-82.23
X155.93Y-84.77
X158.47Y-82.23
X158.47Y-84.77
X161.01Y-82.23
X161.01Y-84.77
X163.55Y-82.23
X163.55Y-84.77
X166.09Y-82.23
X166.09Y-84.77
X168.63Y-82.23
X168.63Y-84.77
M30
