%TF.GenerationSoftware,KiCad,Pcbnew,9.0.2+dfsg-1*%
%TF.CreationDate,2026-07-30T22:14:42+02:00*%
%TF.ProjectId,AskSin-Analyzer-V3,41736b53-696e-42d4-916e-616c797a6572,rev?*%
%TF.SameCoordinates,Original*%
%TF.FileFunction,Copper,L1,Top*%
%TF.FilePolarity,Positive*%
%FSLAX46Y46*%
G04 Gerber Fmt 4.6, Leading zero omitted, Abs format (unit mm)*
G04 Created by KiCad (PCBNEW 9.0.2+dfsg-1) date 2026-07-30 22:14:42*
%MOMM*%
%LPD*%
G01*
G04 APERTURE LIST*
G04 Aperture macros list*
%AMRoundRect*
0 Rectangle with rounded corners*
0 $1 Rounding radius*
0 $2 $3 $4 $5 $6 $7 $8 $9 X,Y pos of 4 corners*
0 Add a 4 corners polygon primitive as box body*
4,1,4,$2,$3,$4,$5,$6,$7,$8,$9,$2,$3,0*
0 Add four circle primitives for the rounded corners*
1,1,$1+$1,$2,$3*
1,1,$1+$1,$4,$5*
1,1,$1+$1,$6,$7*
1,1,$1+$1,$8,$9*
0 Add four rect primitives between the rounded corners*
20,1,$1+$1,$2,$3,$4,$5,0*
20,1,$1+$1,$4,$5,$6,$7,0*
20,1,$1+$1,$6,$7,$8,$9,0*
20,1,$1+$1,$8,$9,$2,$3,0*%
G04 Aperture macros list end*
%TA.AperFunction,SMDPad,CuDef*%
%ADD10RoundRect,0.250000X-0.337500X-0.475000X0.337500X-0.475000X0.337500X0.475000X-0.337500X0.475000X0*%
%TD*%
%TA.AperFunction,SMDPad,CuDef*%
%ADD11RoundRect,0.250000X-0.325000X-0.450000X0.325000X-0.450000X0.325000X0.450000X-0.325000X0.450000X0*%
%TD*%
%TA.AperFunction,SMDPad,CuDef*%
%ADD12RoundRect,0.150000X-0.587500X-0.150000X0.587500X-0.150000X0.587500X0.150000X-0.587500X0.150000X0*%
%TD*%
%TA.AperFunction,SMDPad,CuDef*%
%ADD13R,1.000000X1.000000*%
%TD*%
%TA.AperFunction,SMDPad,CuDef*%
%ADD14R,0.800000X1.800000*%
%TD*%
%TA.AperFunction,SMDPad,CuDef*%
%ADD15RoundRect,0.250000X-0.350000X-0.450000X0.350000X-0.450000X0.350000X0.450000X-0.350000X0.450000X0*%
%TD*%
%TA.AperFunction,SMDPad,CuDef*%
%ADD16RoundRect,0.137500X-0.600000X-0.137500X0.600000X-0.137500X0.600000X0.137500X-0.600000X0.137500X0*%
%TD*%
%TA.AperFunction,SMDPad,CuDef*%
%ADD17RoundRect,0.137500X-0.137500X-0.600000X0.137500X-0.600000X0.137500X0.600000X-0.137500X0.600000X0*%
%TD*%
%TA.AperFunction,ComponentPad*%
%ADD18RoundRect,0.250000X-0.350000X-0.625000X0.350000X-0.625000X0.350000X0.625000X-0.350000X0.625000X0*%
%TD*%
%TA.AperFunction,ComponentPad*%
%ADD19O,1.200000X1.750000*%
%TD*%
%TA.AperFunction,ComponentPad*%
%ADD20C,1.700000*%
%TD*%
%TA.AperFunction,SMDPad,CuDef*%
%ADD21RoundRect,0.250000X0.375000X1.000000X-0.375000X1.000000X-0.375000X-1.000000X0.375000X-1.000000X0*%
%TD*%
%TA.AperFunction,SMDPad,CuDef*%
%ADD22R,0.900000X1.700000*%
%TD*%
%TA.AperFunction,ComponentPad*%
%ADD23R,1.700000X1.700000*%
%TD*%
%TA.AperFunction,ViaPad*%
%ADD24C,0.600000*%
%TD*%
%TA.AperFunction,Conductor*%
%ADD25C,0.200000*%
%TD*%
%TA.AperFunction,Conductor*%
%ADD26C,0.250000*%
%TD*%
%TA.AperFunction,Conductor*%
%ADD27C,0.300000*%
%TD*%
G04 APERTURE END LIST*
D10*
%TO.P,C3,1*%
%TO.N,+3V3*%
X134962500Y-75000000D03*
%TO.P,C3,2*%
%TO.N,GND*%
X137037500Y-75000000D03*
%TD*%
D11*
%TO.P,D1,1*%
%TO.N,GND*%
X154975000Y-71000000D03*
%TO.P,D1,2*%
%TO.N,LED_ANODE*%
X157025000Y-71000000D03*
%TD*%
D12*
%TO.P,U1,1*%
%TO.N,GND*%
X149062500Y-62050000D03*
%TO.P,U1,2*%
%TO.N,VREG_OUT*%
X149062500Y-63950000D03*
%TO.P,U1,3*%
%TO.N,+5V*%
X150937500Y-63000000D03*
%TD*%
D13*
%TO.P,TP7,1*%
%TO.N,GDO0*%
X106000000Y-121500000D03*
%TD*%
%TO.P,TP1,1*%
%TO.N,RESET*%
X144000000Y-75000000D03*
%TD*%
D10*
%TO.P,C4,1*%
%TO.N,+3V3*%
X142962500Y-63000000D03*
%TO.P,C4,2*%
%TO.N,GND*%
X145037500Y-63000000D03*
%TD*%
D13*
%TO.P,TP5,1*%
%TO.N,UART_328_TX*%
X106000000Y-114500000D03*
%TD*%
%TO.P,TP8,1*%
%TO.N,CS*%
X106000000Y-125000000D03*
%TD*%
D11*
%TO.P,L1,1*%
%TO.N,VREG_OUT*%
X153475000Y-63000000D03*
%TO.P,L1,2*%
%TO.N,+3V3*%
X155525000Y-63000000D03*
%TD*%
D14*
%TO.P,U3,1*%
%TO.N,GND*%
X121500000Y-62700000D03*
%TO.P,U3,2*%
X120230000Y-62700000D03*
%TO.P,U3,3*%
X118960000Y-62700000D03*
%TO.P,U3,4*%
X113390000Y-62700000D03*
%TO.P,U3,5*%
X112120000Y-62700000D03*
%TO.P,U3,6*%
%TO.N,N/C*%
X110850000Y-62700000D03*
%TO.P,U3,7*%
X109580000Y-62700000D03*
%TO.P,U3,8*%
X108310000Y-62700000D03*
%TO.P,U3,9*%
%TO.N,+3V3*%
X107040000Y-62700000D03*
%TO.P,U3,10*%
%TO.N,N/C*%
X105770000Y-62700000D03*
%TO.P,U3,11*%
%TO.N,GND*%
X104500000Y-62700000D03*
%TO.P,U3,12*%
X104500000Y-77300000D03*
%TO.P,U3,13*%
%TO.N,N/C*%
X105770000Y-77300000D03*
%TO.P,U3,14*%
X107040000Y-77300000D03*
%TO.P,U3,15*%
%TO.N,GDO0*%
X108310000Y-77300000D03*
%TO.P,U3,16*%
%TO.N,MISO*%
X109580000Y-77300000D03*
%TO.P,U3,17*%
%TO.N,MOSI*%
X110850000Y-77300000D03*
%TO.P,U3,18*%
%TO.N,SCK*%
X112120000Y-77300000D03*
%TO.P,U3,19*%
%TO.N,CS*%
X113390000Y-77300000D03*
%TO.P,U3,20*%
%TO.N,GND*%
X118960000Y-77300000D03*
%TO.P,U3,21*%
%TO.N,N/C*%
X120230000Y-77300000D03*
%TO.P,U3,22*%
%TO.N,GND*%
X121500000Y-77300000D03*
%TD*%
D15*
%TO.P,R1,1*%
%TO.N,LED_TREIBER*%
X149000000Y-71000000D03*
%TO.P,R1,2*%
%TO.N,LED_ANODE*%
X151000000Y-71000000D03*
%TD*%
D13*
%TO.P,TP2,1*%
%TO.N,+3V3*%
X106000000Y-104000000D03*
%TD*%
D10*
%TO.P,C1,1*%
%TO.N,VREG_OUT*%
X148962500Y-67000000D03*
%TO.P,C1,2*%
%TO.N,GND*%
X151037500Y-67000000D03*
%TD*%
%TO.P,C2,1*%
%TO.N,+3V3*%
X153462500Y-67000000D03*
%TO.P,C2,2*%
%TO.N,GND*%
X155537500Y-67000000D03*
%TD*%
D16*
%TO.P,U2,1*%
%TO.N,N/C*%
X131837500Y-64200000D03*
%TO.P,U2,2*%
%TO.N,LED_TREIBER*%
X131837500Y-65000000D03*
%TO.P,U2,3*%
%TO.N,GND*%
X131837500Y-65800000D03*
%TO.P,U2,4*%
%TO.N,+3V3*%
X131837500Y-66600000D03*
%TO.P,U2,5*%
%TO.N,GND*%
X131837500Y-67400000D03*
%TO.P,U2,6*%
%TO.N,+3V3*%
X131837500Y-68200000D03*
%TO.P,U2,7*%
%TO.N,XTAL1*%
X131837500Y-69000000D03*
%TO.P,U2,8*%
%TO.N,XTAL2*%
X131837500Y-69800000D03*
D17*
%TO.P,U2,9*%
%TO.N,N/C*%
X133200000Y-71162500D03*
%TO.P,U2,10*%
X134000000Y-71162500D03*
%TO.P,U2,11*%
X134800000Y-71162500D03*
%TO.P,U2,12*%
X135600000Y-71162500D03*
%TO.P,U2,13*%
X136400000Y-71162500D03*
%TO.P,U2,14*%
%TO.N,CS*%
X137200000Y-71162500D03*
%TO.P,U2,15*%
%TO.N,MOSI*%
X138000000Y-71162500D03*
%TO.P,U2,16*%
%TO.N,MISO*%
X138800000Y-71162500D03*
D16*
%TO.P,U2,17*%
%TO.N,SCK*%
X140162500Y-69800000D03*
%TO.P,U2,18*%
%TO.N,+3V3*%
X140162500Y-69000000D03*
%TO.P,U2,19*%
%TO.N,N/C*%
X140162500Y-68200000D03*
%TO.P,U2,20*%
%TO.N,AREF*%
X140162500Y-67400000D03*
%TO.P,U2,21*%
%TO.N,GND*%
X140162500Y-66600000D03*
%TO.P,U2,22*%
%TO.N,N/C*%
X140162500Y-65800000D03*
%TO.P,U2,23*%
X140162500Y-65000000D03*
%TO.P,U2,24*%
X140162500Y-64200000D03*
D17*
%TO.P,U2,25*%
X138800000Y-62837500D03*
%TO.P,U2,26*%
X138000000Y-62837500D03*
%TO.P,U2,27*%
X137200000Y-62837500D03*
%TO.P,U2,28*%
X136400000Y-62837500D03*
%TO.P,U2,29*%
%TO.N,RESET*%
X135600000Y-62837500D03*
%TO.P,U2,30*%
%TO.N,UART_PI_TX*%
X134800000Y-62837500D03*
%TO.P,U2,31*%
%TO.N,UART_328_TX*%
X134000000Y-62837500D03*
%TO.P,U2,32*%
%TO.N,GDO0*%
X133200000Y-62837500D03*
%TD*%
D18*
%TO.P,J6,1*%
%TO.N,BTN*%
X172000000Y-70000000D03*
D19*
%TO.P,J6,2*%
%TO.N,GND*%
X174000000Y-70000000D03*
%TD*%
D15*
%TO.P,R2,1*%
%TO.N,+3V3*%
X143000000Y-71000000D03*
%TO.P,R2,2*%
%TO.N,RESET*%
X145000000Y-71000000D03*
%TD*%
D20*
%TO.P,Y1,1*%
%TO.N,XTAL1*%
X127000000Y-76000000D03*
%TO.P,Y1,2*%
%TO.N,GND*%
X129500000Y-76000000D03*
%TO.P,Y1,3*%
%TO.N,XTAL2*%
X132000000Y-76000000D03*
%TD*%
D15*
%TO.P,R3,1*%
%TO.N,+3V3*%
X124500000Y-66500000D03*
%TO.P,R3,2*%
%TO.N,CS*%
X126500000Y-66500000D03*
%TD*%
D13*
%TO.P,TP4,1*%
%TO.N,GND*%
X106000000Y-111000000D03*
%TD*%
D15*
%TO.P,R4,1*%
%TO.N,WS_WAHL*%
X161000000Y-72000000D03*
%TO.P,R4,2*%
%TO.N,WS_DATA*%
X163000000Y-72000000D03*
%TD*%
D21*
%TO.P,SW1,1*%
%TO.N,LED_PWM*%
X164500000Y-67750000D03*
%TO.P,SW1,2*%
%TO.N,WS_WAHL*%
X162000000Y-67750000D03*
%TO.P,SW1,3*%
%TO.N,LED_SPI*%
X159500000Y-67750000D03*
%TD*%
D13*
%TO.P,TP3,1*%
%TO.N,+5V*%
X106000000Y-107500000D03*
%TD*%
%TO.P,TP6,1*%
%TO.N,UART_PI_TX*%
X106000000Y-118000000D03*
%TD*%
D22*
%TO.P,S1,1*%
%TO.N,RESET*%
X148300000Y-76000000D03*
%TO.P,S1,2*%
%TO.N,GND*%
X151700000Y-76000000D03*
%TD*%
D10*
%TO.P,C9,1*%
%TO.N,AREF*%
X142962500Y-67000000D03*
%TO.P,C9,2*%
%TO.N,GND*%
X145037500Y-67000000D03*
%TD*%
D18*
%TO.P,J5,1*%
%TO.N,GND*%
X170500000Y-63500000D03*
D19*
%TO.P,J5,2*%
%TO.N,PI_3V3*%
X172500000Y-63500000D03*
%TO.P,J5,3*%
%TO.N,I2C_SCL*%
X174500000Y-63500000D03*
%TO.P,J5,4*%
%TO.N,I2C_SDA*%
X176500000Y-63500000D03*
%TD*%
D10*
%TO.P,C5,1*%
%TO.N,+3V3*%
X124462500Y-63000000D03*
%TO.P,C5,2*%
%TO.N,GND*%
X126537500Y-63000000D03*
%TD*%
%TO.P,C8,1*%
%TO.N,PI_RESET_DRV*%
X124462500Y-70000000D03*
%TO.P,C8,2*%
%TO.N,RESET*%
X126537500Y-70000000D03*
%TD*%
D18*
%TO.P,J7,1*%
%TO.N,PI_3V3*%
X172500000Y-76000000D03*
D19*
%TO.P,J7,2*%
%TO.N,WS_DATA*%
X174500000Y-76000000D03*
%TO.P,J7,3*%
%TO.N,GND*%
X176500000Y-76000000D03*
%TD*%
D23*
%TO.P,J2,1*%
%TO.N,MISO*%
X106000000Y-88000000D03*
D20*
%TO.P,J2,2*%
%TO.N,+3V3*%
X108540000Y-88000000D03*
%TO.P,J2,3*%
%TO.N,SCK*%
X106000000Y-90540000D03*
%TO.P,J2,4*%
%TO.N,MOSI*%
X108540000Y-90540000D03*
%TO.P,J2,5*%
%TO.N,RESET*%
X106000000Y-93080000D03*
%TO.P,J2,6*%
%TO.N,GND*%
X108540000Y-93080000D03*
%TD*%
D23*
%TO.P,J1,1*%
%TO.N,PI_3V3*%
X120370000Y-84770000D03*
D20*
%TO.P,J1,2*%
%TO.N,+5V*%
X120370000Y-82230000D03*
%TO.P,J1,3*%
%TO.N,I2C_SDA*%
X122910000Y-84770000D03*
%TO.P,J1,4*%
%TO.N,+5V*%
X122910000Y-82230000D03*
%TO.P,J1,5*%
%TO.N,I2C_SCL*%
X125450000Y-84770000D03*
%TO.P,J1,6*%
%TO.N,GND*%
X125450000Y-82230000D03*
%TO.P,J1,7*%
%TO.N,PI_RESET_DRV*%
X127990000Y-84770000D03*
%TO.P,J1,8*%
%TO.N,UART_PI_TX*%
X127990000Y-82230000D03*
%TO.P,J1,9*%
%TO.N,GND*%
X130530000Y-84770000D03*
%TO.P,J1,10*%
%TO.N,UART_328_TX*%
X130530000Y-82230000D03*
%TO.P,J1,11*%
%TO.N,BTN*%
X133070000Y-84770000D03*
%TO.P,J1,12*%
%TO.N,LED_PWM*%
X133070000Y-82230000D03*
%TO.P,J1,13*%
%TO.N,N/C*%
X135610000Y-84770000D03*
%TO.P,J1,14*%
%TO.N,GND*%
X135610000Y-82230000D03*
%TO.P,J1,15*%
%TO.N,N/C*%
X138150000Y-84770000D03*
%TO.P,J1,16*%
X138150000Y-82230000D03*
%TO.P,J1,17*%
X140690000Y-84770000D03*
%TO.P,J1,18*%
X140690000Y-82230000D03*
%TO.P,J1,19*%
%TO.N,LED_SPI*%
X143230000Y-84770000D03*
%TO.P,J1,20*%
%TO.N,GND*%
X143230000Y-82230000D03*
%TO.P,J1,21*%
%TO.N,N/C*%
X145770000Y-84770000D03*
%TO.P,J1,22*%
X145770000Y-82230000D03*
%TO.P,J1,23*%
X148310000Y-84770000D03*
%TO.P,J1,24*%
X148310000Y-82230000D03*
%TO.P,J1,25*%
%TO.N,GND*%
X150850000Y-84770000D03*
%TO.P,J1,26*%
%TO.N,N/C*%
X150850000Y-82230000D03*
%TO.P,J1,27*%
X153390000Y-84770000D03*
%TO.P,J1,28*%
X153390000Y-82230000D03*
%TO.P,J1,29*%
X155930000Y-84770000D03*
%TO.P,J1,30*%
%TO.N,GND*%
X155930000Y-82230000D03*
%TO.P,J1,31*%
%TO.N,N/C*%
X158470000Y-84770000D03*
%TO.P,J1,32*%
X158470000Y-82230000D03*
%TO.P,J1,33*%
X161010000Y-84770000D03*
%TO.P,J1,34*%
%TO.N,GND*%
X161010000Y-82230000D03*
%TO.P,J1,35*%
%TO.N,N/C*%
X163550000Y-84770000D03*
%TO.P,J1,36*%
X163550000Y-82230000D03*
%TO.P,J1,37*%
X166090000Y-84770000D03*
%TO.P,J1,38*%
X166090000Y-82230000D03*
%TO.P,J1,39*%
%TO.N,GND*%
X168630000Y-84770000D03*
%TO.P,J1,40*%
%TO.N,N/C*%
X168630000Y-82230000D03*
%TD*%
D24*
%TO.N,+5V*%
X144807600Y-76188700D03*
X147849600Y-64419600D03*
%TO.N,I2C_SDA*%
X135006500Y-79422400D03*
X149733500Y-61154700D03*
%TO.N,I2C_SCL*%
X158171500Y-71724500D03*
%TO.N,GND*%
X106000000Y-132000000D03*
X113590000Y-61062100D03*
X172000000Y-78000000D03*
X109000000Y-108000000D03*
X141643000Y-66457700D03*
X172000000Y-81000000D03*
X103000000Y-63000000D03*
X103000000Y-126000000D03*
X175000000Y-72000000D03*
X128012000Y-63000000D03*
X103000000Y-90000000D03*
X106000000Y-123000000D03*
X118000000Y-129000000D03*
X178000000Y-72000000D03*
X103000000Y-129000000D03*
X175000000Y-69000000D03*
X115000000Y-63000000D03*
X103000000Y-117000000D03*
X169000000Y-69000000D03*
X122781000Y-61660600D03*
X153525000Y-71000000D03*
X178000000Y-78000000D03*
X106000000Y-66000000D03*
X157012000Y-67000000D03*
X141700000Y-63800000D03*
X103000000Y-108000000D03*
X126400000Y-62900000D03*
X175000000Y-81000000D03*
X118000000Y-132000000D03*
X130357000Y-67542300D03*
X103000000Y-93000000D03*
X103000000Y-72000000D03*
X103000000Y-84000000D03*
X172000000Y-66000000D03*
X121000000Y-63000000D03*
X103000000Y-87000000D03*
X151000000Y-75000000D03*
X103000000Y-120000000D03*
X115000000Y-129000000D03*
X109000000Y-120000000D03*
X144500000Y-62500000D03*
X145000000Y-63000000D03*
X157000000Y-63000000D03*
X138512000Y-75000000D03*
X151000000Y-66000000D03*
X127000000Y-63000000D03*
X153300000Y-76000000D03*
X103000000Y-105000000D03*
X172000000Y-87000000D03*
X103000000Y-99000000D03*
X109000000Y-126000000D03*
X105500000Y-110500000D03*
X130699999Y-65800000D03*
X146512000Y-63000000D03*
X109000000Y-132000000D03*
X103000000Y-114000000D03*
X103000000Y-132000000D03*
X150500000Y-61900000D03*
X103281000Y-61587800D03*
X163000000Y-75000000D03*
X130500000Y-68200000D03*
X169000000Y-75000000D03*
X106000000Y-75000000D03*
X109000000Y-123000000D03*
X103000000Y-96000000D03*
X145000000Y-67000000D03*
X175000000Y-66000000D03*
X157000000Y-87000000D03*
X166000000Y-75000000D03*
X169000000Y-78000000D03*
X148018000Y-60991200D03*
X154000000Y-87000000D03*
X120053000Y-61464300D03*
X154800000Y-67700000D03*
X150600000Y-66599999D03*
X178000000Y-69000000D03*
X112000000Y-132000000D03*
X106000000Y-96000000D03*
X103000000Y-102000000D03*
X103000000Y-111000000D03*
X103000000Y-66000000D03*
X106000000Y-129000000D03*
X103281000Y-78412200D03*
X175000000Y-78000000D03*
X106000000Y-111000000D03*
X169000000Y-66000000D03*
X169000000Y-87000000D03*
X103000000Y-75000000D03*
X166000000Y-87000000D03*
X146512000Y-67000000D03*
X106000000Y-72000000D03*
X122781000Y-78339400D03*
X160000000Y-87000000D03*
X103000000Y-123000000D03*
X109000000Y-96000000D03*
X112034000Y-61052200D03*
X175000000Y-87000000D03*
X148000000Y-87000000D03*
X106000000Y-69000000D03*
X103000000Y-69000000D03*
X118000000Y-63000000D03*
X121430000Y-61567100D03*
X109000000Y-129000000D03*
X178000000Y-66000000D03*
X166000000Y-78000000D03*
X145000000Y-66000000D03*
X112000000Y-63000000D03*
X169000000Y-63000000D03*
X163000000Y-87000000D03*
X151000000Y-87000000D03*
X178000000Y-75000000D03*
X142000000Y-81000000D03*
X178000000Y-63000000D03*
X112000000Y-129000000D03*
%TO.N,UART_PI_TX*%
X134853200Y-64101400D03*
X110850800Y-116774700D03*
%TO.N,UART_328_TX*%
X133920800Y-64098500D03*
X110197000Y-113698300D03*
%TO.N,PI_RESET_DRV*%
X124462500Y-72269300D03*
%TO.N,RESET*%
X125323500Y-71049300D03*
X140984100Y-73631700D03*
X136124000Y-64104800D03*
%TO.N,MOSI*%
X125496900Y-74126600D03*
X132417700Y-71459500D03*
%TO.N,MISO*%
X135686000Y-65313800D03*
X138126400Y-72408400D03*
%TO.N,SCK*%
X133101000Y-69036500D03*
X114260900Y-78503300D03*
%TO.N,CS*%
X110822000Y-84569000D03*
X107002500Y-125000000D03*
%TO.N,LED_TREIBER*%
X137423300Y-64519000D03*
X144797400Y-69785700D03*
%TD*%
D25*
%TO.N,+5V*%
X112206300Y-86250900D02*
X116349100Y-86250900D01*
X106000000Y-107500000D02*
X106000000Y-106698300D01*
X137347300Y-76188700D02*
X132980900Y-80555100D01*
X150937500Y-63000000D02*
X148580400Y-63000000D01*
X147849600Y-63730800D02*
X147849600Y-64419600D01*
X122910000Y-82230000D02*
X120370000Y-82230000D01*
X148580400Y-63000000D02*
X147849600Y-63730800D01*
X124584900Y-80555100D02*
X122910000Y-82230000D01*
X106000000Y-106698300D02*
X110630600Y-102067700D01*
X110630600Y-102067700D02*
X110630600Y-87826600D01*
X110630600Y-87826600D02*
X112206300Y-86250900D01*
X144807600Y-76188700D02*
X137347300Y-76188700D01*
X132980900Y-80555100D02*
X124584900Y-80555100D01*
X116349100Y-86250900D02*
X120370000Y-82230000D01*
%TO.N,PI_3V3*%
X147944700Y-83500000D02*
X156348400Y-83500000D01*
X121521700Y-85057900D02*
X122872900Y-86409100D01*
X157200000Y-81864100D02*
X163064100Y-76000000D01*
X145820400Y-86409100D02*
X147040000Y-85189500D01*
X121521700Y-84770000D02*
X121521700Y-85057900D01*
X163064100Y-76000000D02*
X172500000Y-76000000D01*
X122872900Y-86409100D02*
X145820400Y-86409100D01*
X147040000Y-85189500D02*
X147040000Y-84404700D01*
X147040000Y-84404700D02*
X147944700Y-83500000D01*
X120370000Y-84770000D02*
X121521700Y-84770000D01*
X157200000Y-82648400D02*
X157200000Y-81864100D01*
X156348400Y-83500000D02*
X157200000Y-82648400D01*
%TO.N,I2C_SDA*%
X124298300Y-83381700D02*
X125971100Y-83381700D01*
X122910000Y-84770000D02*
X124298300Y-83381700D01*
X126782200Y-81794000D02*
X127532500Y-81043700D01*
X176500000Y-63500000D02*
X175598300Y-63500000D01*
X125971100Y-83381700D02*
X126782200Y-82570600D01*
X133385200Y-81043700D02*
X135006500Y-79422400D01*
X149733500Y-61154700D02*
X173739500Y-61154700D01*
X173739500Y-61154700D02*
X175598300Y-63013500D01*
X175598300Y-63013500D02*
X175598300Y-63500000D01*
X126782200Y-82570600D02*
X126782200Y-81794000D01*
X127532500Y-81043700D02*
X133385200Y-81043700D01*
%TO.N,I2C_SCL*%
X134458300Y-82530100D02*
X134458300Y-81700000D01*
X152083400Y-78097400D02*
X158171500Y-72009300D01*
X138060900Y-78097400D02*
X152083400Y-78097400D01*
X158171500Y-72009300D02*
X158171500Y-71724500D01*
X134458300Y-81700000D02*
X138060900Y-78097400D01*
X126720000Y-83500000D02*
X133488400Y-83500000D01*
X133488400Y-83500000D02*
X134458300Y-82530100D01*
X125450000Y-84770000D02*
X126720000Y-83500000D01*
%TO.N,BTN*%
X147040000Y-82648400D02*
X146188400Y-83500000D01*
X134255200Y-85955200D02*
X133070000Y-84770000D01*
X146188400Y-83500000D02*
X145367200Y-83500000D01*
X145367200Y-83500000D02*
X144618300Y-84248900D01*
X162000000Y-71366900D02*
X162000000Y-72614000D01*
X143734400Y-85955200D02*
X134255200Y-85955200D01*
X162000000Y-72614000D02*
X154574900Y-80039100D01*
X144618300Y-84248900D02*
X144618300Y-85071300D01*
X172000000Y-70000000D02*
X163366900Y-70000000D01*
X144618300Y-85071300D02*
X143734400Y-85955200D01*
X148865000Y-80039100D02*
X147040000Y-81864100D01*
X154574900Y-80039100D02*
X148865000Y-80039100D01*
X163366900Y-70000000D02*
X162000000Y-71366900D01*
X147040000Y-81864100D02*
X147040000Y-82648400D01*
%TO.N,LED_PWM*%
X150598600Y-69797200D02*
X150000000Y-70395800D01*
X162939800Y-66189800D02*
X158756900Y-66189800D01*
X150000000Y-70395800D02*
X150000000Y-73563800D01*
X164500000Y-67750000D02*
X162939800Y-66189800D01*
X148856800Y-77236000D02*
X138064000Y-77236000D01*
X150000000Y-73563800D02*
X149051700Y-74512100D01*
X158756900Y-66189800D02*
X155551100Y-69395600D01*
X151896800Y-69395600D02*
X151495200Y-69797200D01*
X151495200Y-69797200D02*
X150598600Y-69797200D01*
X149051700Y-77041100D02*
X148856800Y-77236000D01*
X155551100Y-69395600D02*
X151896800Y-69395600D01*
X149051700Y-74512100D02*
X149051700Y-77041100D01*
X138064000Y-77236000D02*
X133070000Y-82230000D01*
%TO.N,LED_SPI*%
X147795700Y-78540400D02*
X152208400Y-78540400D01*
X144500000Y-81836100D02*
X147795700Y-78540400D01*
X152208400Y-78540400D02*
X159500000Y-71248800D01*
X159500000Y-71248800D02*
X159500000Y-67750000D01*
X144500000Y-83500000D02*
X144500000Y-81836100D01*
X143230000Y-84770000D02*
X144500000Y-83500000D01*
%TO.N,WS_WAHL*%
X162000000Y-67750000D02*
X161000000Y-68750000D01*
X161000000Y-68750000D02*
X161000000Y-72000000D01*
%TO.N,WS_DATA*%
X174500000Y-76000000D02*
X173598300Y-76000000D01*
X163000000Y-72000000D02*
X170276600Y-72000000D01*
X173598300Y-75321700D02*
X173598300Y-76000000D01*
X170276600Y-72000000D02*
X173598300Y-75321700D01*
%TO.N,VREG_OUT*%
X152525000Y-63950000D02*
X149062500Y-63950000D01*
X149062500Y-63950000D02*
X148962500Y-64050000D01*
X153475000Y-63000000D02*
X152525000Y-63950000D01*
X148962500Y-64050000D02*
X148962500Y-67000000D01*
%TO.N,+3V3*%
X134202600Y-68200000D02*
X134202600Y-66600000D01*
X136408800Y-73553700D02*
X134962500Y-75000000D01*
X107040000Y-62700000D02*
X107040000Y-63901700D01*
X140159100Y-68996600D02*
X134999200Y-68996600D01*
X109714200Y-99484100D02*
X106000000Y-103198300D01*
X140162500Y-69000000D02*
X141000000Y-69000000D01*
X124462500Y-63000000D02*
X125673100Y-61789400D01*
X109714200Y-89174200D02*
X109714200Y-99484100D01*
X153462500Y-67000000D02*
X151278500Y-69184000D01*
X125673100Y-61789400D02*
X139155600Y-61789400D01*
X143000000Y-71000000D02*
X142765000Y-71000000D01*
X134962500Y-75000000D02*
X134962500Y-75310600D01*
X142765000Y-71000000D02*
X140211300Y-73553700D01*
X134202600Y-68200000D02*
X131837500Y-68200000D01*
X124500000Y-66500000D02*
X125502700Y-65497300D01*
X139155600Y-61789400D02*
X140000000Y-62633800D01*
X136400000Y-66600000D02*
X134202600Y-66600000D01*
X128181500Y-66600000D02*
X131837500Y-66600000D01*
X130359800Y-79913300D02*
X116513800Y-79913300D01*
X142962500Y-63000000D02*
X140000000Y-63000000D01*
X155525000Y-64937500D02*
X153462500Y-67000000D01*
X134999200Y-68996600D02*
X134202600Y-68200000D01*
X123560800Y-63901700D02*
X107040000Y-63901700D01*
X140000000Y-63000000D02*
X136400000Y-66600000D01*
X116513800Y-79913300D02*
X108540000Y-87887100D01*
X127078800Y-65497300D02*
X128181500Y-66600000D01*
X134962500Y-75310600D02*
X130359800Y-79913300D01*
X106000000Y-104000000D02*
X106000000Y-103198300D01*
X134202600Y-66600000D02*
X131837500Y-66600000D01*
X125502700Y-65497300D02*
X127078800Y-65497300D01*
X140000000Y-62633800D02*
X140000000Y-63000000D01*
X141000000Y-69000000D02*
X143000000Y-71000000D01*
X124462500Y-63000000D02*
X123560800Y-63901700D01*
X140211300Y-73553700D02*
X136408800Y-73553700D01*
X151278500Y-69184000D02*
X144548300Y-69184000D01*
X155525000Y-63000000D02*
X155525000Y-64937500D01*
X108540000Y-88000000D02*
X109714200Y-89174200D01*
X108540000Y-87887100D02*
X108540000Y-88000000D01*
X140162500Y-69000000D02*
X140159100Y-68996600D01*
X144548300Y-69184000D02*
X143000000Y-70732300D01*
X143000000Y-70732300D02*
X143000000Y-71000000D01*
D26*
%TO.N,GND*%
X119400000Y-78500000D02*
X119500000Y-78600000D01*
X131199999Y-65800000D02*
X130699999Y-65800000D01*
D27*
X151700000Y-76000000D02*
X153300000Y-76000000D01*
X149062000Y-62050000D02*
X148018000Y-60991200D01*
D26*
X131199999Y-67500000D02*
X130800000Y-67500000D01*
X130699999Y-67600000D02*
X130699999Y-67800000D01*
X140800000Y-66500000D02*
X141200000Y-66500000D01*
D27*
X104500000Y-77300000D02*
X103281000Y-78412200D01*
D26*
X149700000Y-61900000D02*
X150500000Y-61900000D01*
X141500000Y-65300000D02*
X141500000Y-64000000D01*
D27*
X131838000Y-67400000D02*
X130357000Y-67542300D01*
D26*
X141300000Y-66400000D02*
X141300000Y-66200000D01*
D27*
X118960000Y-62700000D02*
X120053000Y-61464300D01*
X137038000Y-75000000D02*
X138512000Y-75000000D01*
X154975000Y-71000000D02*
X153525000Y-71000000D01*
X104500000Y-62700000D02*
X103281000Y-61587800D01*
D26*
X141400000Y-66099999D02*
X141400000Y-65400000D01*
D27*
X121500000Y-62700000D02*
X122781000Y-61660600D01*
X112120000Y-62700000D02*
X112034000Y-61052200D01*
D26*
X130600000Y-67900000D02*
X130600000Y-68100000D01*
D27*
X121500000Y-77300000D02*
X122781000Y-78339400D01*
D26*
X137500000Y-75000000D02*
X138500000Y-75000000D01*
X155000000Y-67600000D02*
X154900000Y-67600000D01*
D27*
X126538000Y-63000000D02*
X128012000Y-63000000D01*
D26*
X141600000Y-63900000D02*
X141700000Y-63800000D01*
D27*
X155538000Y-67000000D02*
X157012000Y-67000000D01*
X145038000Y-67000000D02*
X146512000Y-67000000D01*
X120230000Y-62700000D02*
X121430000Y-61567100D01*
D26*
X122600000Y-78500000D02*
X122800000Y-78300000D01*
X119600000Y-78600000D02*
X122500000Y-78600000D01*
D27*
X113390000Y-62700000D02*
X113590000Y-61062100D01*
X140162000Y-66600000D02*
X141643000Y-66457700D01*
D26*
X105600000Y-110600000D02*
X105500000Y-110500000D01*
D27*
X145038000Y-63000000D02*
X146512000Y-63000000D01*
D26*
X119300000Y-78100000D02*
X119300000Y-78400000D01*
D25*
%TO.N,UART_PI_TX*%
X106801700Y-118000000D02*
X108027000Y-116774700D01*
X134853200Y-62890700D02*
X134800000Y-62837500D01*
X108027000Y-116774700D02*
X110850800Y-116774700D01*
X106000000Y-118000000D02*
X106801700Y-118000000D01*
X134853200Y-64101400D02*
X134853200Y-62890700D01*
%TO.N,UART_328_TX*%
X134000000Y-64019300D02*
X133920800Y-64098500D01*
X106000000Y-114500000D02*
X106000000Y-113698300D01*
X106000000Y-113698300D02*
X110197000Y-113698300D01*
X134000000Y-62837500D02*
X134000000Y-64019300D01*
%TO.N,PI_RESET_DRV*%
X124462500Y-70000000D02*
X124462500Y-72269300D01*
%TO.N,RESET*%
X144463600Y-75000000D02*
X145000000Y-74463600D01*
X125488200Y-71049300D02*
X125323500Y-71049300D01*
X144000000Y-75000000D02*
X144463600Y-75000000D01*
X135600000Y-63580800D02*
X136124000Y-64104800D01*
X145801700Y-76000000D02*
X144801700Y-75000000D01*
X141830000Y-73631700D02*
X143198300Y-75000000D01*
X140984100Y-73631700D02*
X141830000Y-73631700D01*
X144000000Y-75000000D02*
X143198300Y-75000000D01*
X135600000Y-62837500D02*
X135600000Y-63580800D01*
X144463600Y-75000000D02*
X144801700Y-75000000D01*
X148300000Y-76000000D02*
X145801700Y-76000000D01*
X145000000Y-74463600D02*
X145000000Y-71000000D01*
X126537500Y-70000000D02*
X125488200Y-71049300D01*
%TO.N,MOSI*%
X110850000Y-78501700D02*
X111039700Y-78691400D01*
X137502600Y-70100100D02*
X138000000Y-70597500D01*
X111039700Y-82179500D02*
X107370000Y-85849200D01*
X132896800Y-70100100D02*
X137502600Y-70100100D01*
X138000000Y-70597500D02*
X138000000Y-71162500D01*
X110850000Y-77300000D02*
X110850000Y-76098300D01*
X111039700Y-78691400D02*
X111039700Y-82179500D01*
X110850000Y-77300000D02*
X110850000Y-78501700D01*
X123525200Y-76098300D02*
X125496900Y-74126600D01*
X132417700Y-70579200D02*
X132896800Y-70100100D01*
X110850000Y-76098300D02*
X123525200Y-76098300D01*
X107370000Y-89370000D02*
X108540000Y-90540000D01*
X107370000Y-85849200D02*
X107370000Y-89370000D01*
X132417700Y-71459500D02*
X132417700Y-70579200D01*
%TO.N,MISO*%
X109580000Y-77300000D02*
X109580000Y-76098300D01*
X138800000Y-71734800D02*
X138126400Y-72408400D01*
X129552600Y-63583300D02*
X132583300Y-63583300D01*
X120912200Y-64766100D02*
X128369800Y-64766100D01*
X106000000Y-88000000D02*
X106000000Y-82847200D01*
X132583300Y-63583300D02*
X132877200Y-63877200D01*
X132877200Y-63877200D02*
X132877200Y-63950200D01*
X128369800Y-64766100D02*
X129552600Y-63583300D01*
X134240800Y-65313800D02*
X135686000Y-65313800D01*
X109580000Y-76098300D02*
X120912200Y-64766100D01*
X106000000Y-82847200D02*
X109580000Y-79267200D01*
X109580000Y-79267200D02*
X109580000Y-77300000D01*
X138800000Y-71162500D02*
X138800000Y-71734800D01*
X132877200Y-63950200D02*
X134240800Y-65313800D01*
%TO.N,SCK*%
X137742000Y-69398300D02*
X133462800Y-69398300D01*
X114259300Y-78501700D02*
X114260900Y-78503300D01*
X140162500Y-69800000D02*
X138143700Y-69800000D01*
X112120000Y-77300000D02*
X112120000Y-78501700D01*
X138143700Y-69800000D02*
X137742000Y-69398300D01*
X112120000Y-78501700D02*
X114259300Y-78501700D01*
X133462800Y-69398300D02*
X133101000Y-69036500D01*
%TO.N,CS*%
X106000000Y-125000000D02*
X106801700Y-125000000D01*
X123621900Y-79387300D02*
X116003700Y-79387300D01*
X137200000Y-71738400D02*
X136135500Y-72802900D01*
X116003700Y-79387300D02*
X110822000Y-84569000D01*
X137200000Y-71162500D02*
X137200000Y-71738400D01*
X106801700Y-125000000D02*
X107002500Y-125000000D01*
X113916400Y-77300000D02*
X113390000Y-77300000D01*
X125848300Y-77160900D02*
X125848300Y-74626100D01*
X133955100Y-74386000D02*
X133955100Y-75679600D01*
X127428000Y-67428000D02*
X126500000Y-66500000D01*
X133955100Y-75679600D02*
X132473800Y-77160900D01*
X135538200Y-72802900D02*
X133955100Y-74386000D01*
X125848300Y-77160900D02*
X123621900Y-79387300D01*
X136135500Y-72802900D02*
X135538200Y-72802900D01*
X126098600Y-74375800D02*
X126098600Y-73011500D01*
X127428000Y-71682100D02*
X127428000Y-67428000D01*
X132473800Y-77160900D02*
X125848300Y-77160900D01*
X116003700Y-79387300D02*
X113916400Y-77300000D01*
X125848300Y-74626100D02*
X126098600Y-74375800D01*
X126098600Y-73011500D02*
X127428000Y-71682100D01*
%TO.N,GDO0*%
X106000000Y-121500000D02*
X106000000Y-120698300D01*
X108310000Y-79861900D02*
X104164500Y-84007400D01*
X108310000Y-77300000D02*
X108310000Y-79861900D01*
X128120900Y-64364400D02*
X120043900Y-64364400D01*
X133200000Y-62837500D02*
X129647800Y-62837500D01*
X104164500Y-118862800D02*
X106000000Y-120698300D01*
X129647800Y-62837500D02*
X128120900Y-64364400D01*
X104164500Y-84007400D02*
X104164500Y-118862800D01*
X108310000Y-77300000D02*
X108310000Y-76098300D01*
X120043900Y-64364400D02*
X108310000Y-76098300D01*
%TO.N,XTAL1*%
X127000000Y-73256400D02*
X131256400Y-69000000D01*
X127000000Y-76000000D02*
X127000000Y-73256400D01*
X131256400Y-69000000D02*
X131837500Y-69000000D01*
%TO.N,XTAL2*%
X131786700Y-69850800D02*
X131786700Y-75786700D01*
X131786700Y-75786700D02*
X132000000Y-76000000D01*
X131837500Y-69800000D02*
X131786700Y-69850800D01*
%TO.N,AREF*%
X142562500Y-67400000D02*
X142962500Y-67000000D01*
X140162500Y-67400000D02*
X142562500Y-67400000D01*
%TO.N,LED_TREIBER*%
X132495800Y-65000000D02*
X133411400Y-65915600D01*
X131837500Y-65000000D02*
X132495800Y-65000000D01*
X136026700Y-65915600D02*
X137423300Y-64519000D01*
X147785700Y-69785700D02*
X149000000Y-71000000D01*
X133411400Y-65915600D02*
X136026700Y-65915600D01*
X144797400Y-69785700D02*
X147785700Y-69785700D01*
%TO.N,LED_ANODE*%
X152004300Y-69995700D02*
X156020700Y-69995700D01*
X151000000Y-71000000D02*
X152004300Y-69995700D01*
X156020700Y-69995700D02*
X157025000Y-71000000D01*
%TD*%
M02*
