%TF.GenerationSoftware,KiCad,Pcbnew,9.0.2+dfsg-1*%
%TF.CreationDate,2026-07-30T22:14:42+02:00*%
%TF.ProjectId,AskSin-Analyzer-V3,41736b53-696e-42d4-916e-616c797a6572,rev?*%
%TF.SameCoordinates,Original*%
%TF.FileFunction,Paste,Top*%
%TF.FilePolarity,Positive*%
%FSLAX46Y46*%
G04 Gerber Fmt 4.6, Leading zero omitted, Abs format (unit mm)*
G04 Created by KiCad (PCBNEW 9.0.2+dfsg-1) date 2026-07-30 22:14:42*
%MOMM*%
%LPD*%
G01*
G04 APERTURE LIST*
G04 Aperture macros list*
%AMRoundRect*
0 Rectangle with rounded corners*
0 $1 Rounding radius*
0 $2 $3 $4 $5 $6 $7 $8 $9 X,Y pos of 4 corners*
0 Add a 4 corners polygon primitive as box body*
4,1,4,$2,$3,$4,$5,$6,$7,$8,$9,$2,$3,0*
0 Add four circle primitives for the rounded corners*
1,1,$1+$1,$2,$3*
1,1,$1+$1,$4,$5*
1,1,$1+$1,$6,$7*
1,1,$1+$1,$8,$9*
0 Add four rect primitives between the rounded corners*
20,1,$1+$1,$2,$3,$4,$5,0*
20,1,$1+$1,$4,$5,$6,$7,0*
20,1,$1+$1,$6,$7,$8,$9,0*
20,1,$1+$1,$8,$9,$2,$3,0*%
G04 Aperture macros list end*
%ADD10RoundRect,0.250000X-0.337500X-0.475000X0.337500X-0.475000X0.337500X0.475000X-0.337500X0.475000X0*%
%ADD11RoundRect,0.250000X-0.325000X-0.450000X0.325000X-0.450000X0.325000X0.450000X-0.325000X0.450000X0*%
%ADD12RoundRect,0.150000X-0.587500X-0.150000X0.587500X-0.150000X0.587500X0.150000X-0.587500X0.150000X0*%
%ADD13R,0.800000X1.800000*%
%ADD14RoundRect,0.250000X-0.350000X-0.450000X0.350000X-0.450000X0.350000X0.450000X-0.350000X0.450000X0*%
%ADD15RoundRect,0.137500X-0.600000X-0.137500X0.600000X-0.137500X0.600000X0.137500X-0.600000X0.137500X0*%
%ADD16RoundRect,0.137500X-0.137500X-0.600000X0.137500X-0.600000X0.137500X0.600000X-0.137500X0.600000X0*%
%ADD17RoundRect,0.250000X0.375000X1.000000X-0.375000X1.000000X-0.375000X-1.000000X0.375000X-1.000000X0*%
%ADD18R,0.900000X1.700000*%
G04 APERTURE END LIST*
D10*
%TO.C,C3*%
X134962500Y-75000000D03*
X137037500Y-75000000D03*
%TD*%
D11*
%TO.C,D1*%
X154975000Y-71000000D03*
X157025000Y-71000000D03*
%TD*%
D12*
%TO.C,U1*%
X149062500Y-62050000D03*
X149062500Y-63950000D03*
X150937500Y-63000000D03*
%TD*%
D10*
%TO.C,C4*%
X142962500Y-63000000D03*
X145037500Y-63000000D03*
%TD*%
D11*
%TO.C,L1*%
X153475000Y-63000000D03*
X155525000Y-63000000D03*
%TD*%
D13*
%TO.C,U3*%
X121500000Y-62700000D03*
X120230000Y-62700000D03*
X118960000Y-62700000D03*
X113390000Y-62700000D03*
X112120000Y-62700000D03*
X110850000Y-62700000D03*
X109580000Y-62700000D03*
X108310000Y-62700000D03*
X107040000Y-62700000D03*
X105770000Y-62700000D03*
X104500000Y-62700000D03*
X104500000Y-77300000D03*
X105770000Y-77300000D03*
X107040000Y-77300000D03*
X108310000Y-77300000D03*
X109580000Y-77300000D03*
X110850000Y-77300000D03*
X112120000Y-77300000D03*
X113390000Y-77300000D03*
X118960000Y-77300000D03*
X120230000Y-77300000D03*
X121500000Y-77300000D03*
%TD*%
D14*
%TO.C,R1*%
X149000000Y-71000000D03*
X151000000Y-71000000D03*
%TD*%
D10*
%TO.C,C1*%
X148962500Y-67000000D03*
X151037500Y-67000000D03*
%TD*%
%TO.C,C2*%
X153462500Y-67000000D03*
X155537500Y-67000000D03*
%TD*%
D15*
%TO.C,U2*%
X131837500Y-64200000D03*
X131837500Y-65000000D03*
X131837500Y-65800000D03*
X131837500Y-66600000D03*
X131837500Y-67400000D03*
X131837500Y-68200000D03*
X131837500Y-69000000D03*
X131837500Y-69800000D03*
D16*
X133200000Y-71162500D03*
X134000000Y-71162500D03*
X134800000Y-71162500D03*
X135600000Y-71162500D03*
X136400000Y-71162500D03*
X137200000Y-71162500D03*
X138000000Y-71162500D03*
X138800000Y-71162500D03*
D15*
X140162500Y-69800000D03*
X140162500Y-69000000D03*
X140162500Y-68200000D03*
X140162500Y-67400000D03*
X140162500Y-66600000D03*
X140162500Y-65800000D03*
X140162500Y-65000000D03*
X140162500Y-64200000D03*
D16*
X138800000Y-62837500D03*
X138000000Y-62837500D03*
X137200000Y-62837500D03*
X136400000Y-62837500D03*
X135600000Y-62837500D03*
X134800000Y-62837500D03*
X134000000Y-62837500D03*
X133200000Y-62837500D03*
%TD*%
D14*
%TO.C,R2*%
X143000000Y-71000000D03*
X145000000Y-71000000D03*
%TD*%
%TO.C,R3*%
X124500000Y-66500000D03*
X126500000Y-66500000D03*
%TD*%
%TO.C,R4*%
X161000000Y-72000000D03*
X163000000Y-72000000D03*
%TD*%
D17*
%TO.C,SW1*%
X164500000Y-67750000D03*
X162000000Y-67750000D03*
X159500000Y-67750000D03*
%TD*%
D18*
%TO.C,S1*%
X148300000Y-76000000D03*
X151700000Y-76000000D03*
%TD*%
D10*
%TO.C,C9*%
X142962500Y-67000000D03*
X145037500Y-67000000D03*
%TD*%
%TO.C,C5*%
X124462500Y-63000000D03*
X126537500Y-63000000D03*
%TD*%
%TO.C,C8*%
X124462500Y-70000000D03*
X126537500Y-70000000D03*
%TD*%
M02*
