%TF.GenerationSoftware,KiCad,Pcbnew,9.0.2+dfsg-1*%
%TF.CreationDate,2026-07-28T14:15:07+02:00*%
%TF.ProjectId,AskSin-Analyzer-V3,41736b53-696e-42d4-916e-616c797a6572,rev?*%
%TF.SameCoordinates,Original*%
%TF.FileFunction,Soldermask,Bot*%
%TF.FilePolarity,Negative*%
%FSLAX46Y46*%
G04 Gerber Fmt 4.6, Leading zero omitted, Abs format (unit mm)*
G04 Created by KiCad (PCBNEW 9.0.2+dfsg-1) date 2026-07-28 14:15:07*
%MOMM*%
%LPD*%
G01*
G04 APERTURE LIST*
G04 Aperture macros list*
%AMRoundRect*
0 Rectangle with rounded corners*
0 $1 Rounding radius*
0 $2 $3 $4 $5 $6 $7 $8 $9 X,Y pos of 4 corners*
0 Add a 4 corners polygon primitive as box body*
4,1,4,$2,$3,$4,$5,$6,$7,$8,$9,$2,$3,0*
0 Add four circle primitives for the rounded corners*
1,1,$1+$1,$2,$3*
1,1,$1+$1,$4,$5*
1,1,$1+$1,$6,$7*
1,1,$1+$1,$8,$9*
0 Add four rect primitives between the rounded corners*
20,1,$1+$1,$2,$3,$4,$5,0*
20,1,$1+$1,$4,$5,$6,$7,0*
20,1,$1+$1,$6,$7,$8,$9,0*
20,1,$1+$1,$8,$9,$2,$3,0*%
G04 Aperture macros list end*
%ADD10RoundRect,0.250000X0.625000X-0.350000X0.625000X0.350000X-0.625000X0.350000X-0.625000X-0.350000X0*%
%ADD11O,1.750000X1.200000*%
%ADD12C,1.700000*%
%ADD13C,2.100000*%
%ADD14C,0.800000*%
%ADD15C,2.700000*%
%ADD16R,1.700000X1.700000*%
G04 APERTURE END LIST*
D10*
%TO.C,J6*%
X169000000Y-90000000D03*
D11*
X169000000Y-88000000D03*
%TD*%
D12*
%TO.C,Y1*%
X178000000Y-82000000D03*
X178000000Y-79500000D03*
X178000000Y-77000000D03*
%TD*%
D10*
%TO.C,J7*%
X169000000Y-99500000D03*
D11*
X169000000Y-97500000D03*
X169000000Y-95500000D03*
%TD*%
D13*
%TO.C,KB1*%
X199500000Y-99500000D03*
%TD*%
D14*
%TO.C,S1*%
X194000000Y-101000000D03*
%TD*%
D15*
%TO.C,MH1*%
X103500000Y-63500000D03*
%TD*%
%TO.C,MH3*%
X214500000Y-65000000D03*
%TD*%
%TO.C,MH4*%
X214500000Y-103000000D03*
%TD*%
D10*
%TO.C,J5*%
X169000000Y-80500000D03*
D11*
X169000000Y-78500000D03*
X169000000Y-76500000D03*
X169000000Y-74500000D03*
%TD*%
D13*
%TO.C,KB2*%
X205000000Y-99500000D03*
%TD*%
D16*
%TO.C,J2*%
X198000000Y-66000000D03*
D12*
X200540000Y-66000000D03*
X198000000Y-68540000D03*
X200540000Y-68540000D03*
X198000000Y-71080000D03*
X200540000Y-71080000D03*
%TD*%
D15*
%TO.C,MH2*%
X161500000Y-63500000D03*
%TD*%
D16*
%TO.C,J1*%
X108370000Y-64770000D03*
D12*
X108370000Y-67310000D03*
X110910000Y-64770000D03*
X110910000Y-67310000D03*
X113450000Y-64770000D03*
X113450000Y-67310000D03*
X115990000Y-64770000D03*
X115990000Y-67310000D03*
X118530000Y-64770000D03*
X118530000Y-67310000D03*
X121070000Y-64770000D03*
X121070000Y-67310000D03*
X123610000Y-64770000D03*
X123610000Y-67310000D03*
X126150000Y-64770000D03*
X126150000Y-67310000D03*
X128690000Y-64770000D03*
X128690000Y-67310000D03*
X131230000Y-64770000D03*
X131230000Y-67310000D03*
X133770000Y-64770000D03*
X133770000Y-67310000D03*
X136310000Y-64770000D03*
X136310000Y-67310000D03*
X138850000Y-64770000D03*
X138850000Y-67310000D03*
X141390000Y-64770000D03*
X141390000Y-67310000D03*
X143930000Y-64770000D03*
X143930000Y-67310000D03*
X146470000Y-64770000D03*
X146470000Y-67310000D03*
X149010000Y-64770000D03*
X149010000Y-67310000D03*
X151550000Y-64770000D03*
X151550000Y-67310000D03*
X154090000Y-64770000D03*
X154090000Y-67310000D03*
X156630000Y-64770000D03*
X156630000Y-67310000D03*
%TD*%
M02*
