%TF.GenerationSoftware,KiCad,Pcbnew,9.0.2+dfsg-1*%
%TF.CreationDate,2026-07-31T11:14:11+02:00*%
%TF.ProjectId,AskSin-Analyzer-V3,41736b53-696e-42d4-916e-616c797a6572,rev?*%
%TF.SameCoordinates,Original*%
%TF.FileFunction,Copper,L4,Bot*%
%TF.FilePolarity,Positive*%
%FSLAX46Y46*%
G04 Gerber Fmt 4.6, Leading zero omitted, Abs format (unit mm)*
G04 Created by KiCad (PCBNEW 9.0.2+dfsg-1) date 2026-07-31 11:14:11*
%MOMM*%
%LPD*%
G01*
G04 APERTURE LIST*
G04 Aperture macros list*
%AMRoundRect*
0 Rectangle with rounded corners*
0 $1 Rounding radius*
0 $2 $3 $4 $5 $6 $7 $8 $9 X,Y pos of 4 corners*
0 Add a 4 corners polygon primitive as box body*
4,1,4,$2,$3,$4,$5,$6,$7,$8,$9,$2,$3,0*
0 Add four circle primitives for the rounded corners*
1,1,$1+$1,$2,$3*
1,1,$1+$1,$4,$5*
1,1,$1+$1,$6,$7*
1,1,$1+$1,$8,$9*
0 Add four rect primitives between the rounded corners*
20,1,$1+$1,$2,$3,$4,$5,0*
20,1,$1+$1,$4,$5,$6,$7,0*
20,1,$1+$1,$6,$7,$8,$9,0*
20,1,$1+$1,$8,$9,$2,$3,0*%
G04 Aperture macros list end*
%TA.AperFunction,ComponentPad*%
%ADD10RoundRect,0.250000X-0.350000X-0.625000X0.350000X-0.625000X0.350000X0.625000X-0.350000X0.625000X0*%
%TD*%
%TA.AperFunction,ComponentPad*%
%ADD11O,1.200000X1.750000*%
%TD*%
%TA.AperFunction,ComponentPad*%
%ADD12R,1.700000X1.700000*%
%TD*%
%TA.AperFunction,ComponentPad*%
%ADD13C,1.700000*%
%TD*%
%TA.AperFunction,ViaPad*%
%ADD14C,0.600000*%
%TD*%
%TA.AperFunction,Conductor*%
%ADD15C,0.200000*%
%TD*%
%TA.AperFunction,Conductor*%
%ADD16C,0.250000*%
%TD*%
G04 APERTURE END LIST*
D10*
%TO.P,J5,1*%
%TO.N,GND*%
X186500000Y-63500000D03*
D11*
%TO.P,J5,2*%
%TO.N,PI_3V3*%
X188500000Y-63500000D03*
%TO.P,J5,3*%
%TO.N,I2C_SCL*%
X190500000Y-63500000D03*
%TO.P,J5,4*%
%TO.N,I2C_SDA*%
X192500000Y-63500000D03*
%TD*%
D10*
%TO.P,J7,1*%
%TO.N,PI_3V3*%
X187000000Y-76000000D03*
D11*
%TO.P,J7,2*%
%TO.N,WS_DATA*%
X189000000Y-76000000D03*
%TO.P,J7,3*%
%TO.N,GND*%
X191000000Y-76000000D03*
%TD*%
D12*
%TO.P,J2,1*%
%TO.N,MISO*%
X125000000Y-116000000D03*
D13*
%TO.P,J2,2*%
%TO.N,+3V3*%
X127540000Y-116000000D03*
%TO.P,J2,3*%
%TO.N,SCK*%
X125000000Y-118540000D03*
%TO.P,J2,4*%
%TO.N,MOSI*%
X127540000Y-118540000D03*
%TO.P,J2,5*%
%TO.N,RESET*%
X125000000Y-121080000D03*
%TO.P,J2,6*%
%TO.N,GND*%
X127540000Y-121080000D03*
%TD*%
D10*
%TO.P,J6,1*%
%TO.N,BTN*%
X188000000Y-70000000D03*
D11*
%TO.P,J6,2*%
%TO.N,GND*%
X190000000Y-70000000D03*
%TD*%
D13*
%TO.P,Y1,1*%
%TO.N,XTAL1*%
X120000000Y-64000000D03*
%TO.P,Y1,2*%
%TO.N,GND*%
X122500000Y-64000000D03*
%TO.P,Y1,3*%
%TO.N,XTAL2*%
X125000000Y-64000000D03*
%TD*%
D12*
%TO.P,J1,1*%
%TO.N,PI_3V3*%
X140370000Y-84770000D03*
D13*
%TO.P,J1,2*%
%TO.N,+5V*%
X140370000Y-82230000D03*
%TO.P,J1,3*%
%TO.N,I2C_SDA*%
X142910000Y-84770000D03*
%TO.P,J1,4*%
%TO.N,+5V*%
X142910000Y-82230000D03*
%TO.P,J1,5*%
%TO.N,I2C_SCL*%
X145450000Y-84770000D03*
%TO.P,J1,6*%
%TO.N,GND*%
X145450000Y-82230000D03*
%TO.P,J1,7*%
%TO.N,PI_RESET_DRV*%
X147990000Y-84770000D03*
%TO.P,J1,8*%
%TO.N,UART_PI_TX*%
X147990000Y-82230000D03*
%TO.P,J1,9*%
%TO.N,GND*%
X150530000Y-84770000D03*
%TO.P,J1,10*%
%TO.N,UART_328_TX*%
X150530000Y-82230000D03*
%TO.P,J1,11*%
%TO.N,BTN*%
X153070000Y-84770000D03*
%TO.P,J1,12*%
%TO.N,LED_PWM*%
X153070000Y-82230000D03*
%TO.P,J1,13*%
%TO.N,N/C*%
X155610000Y-84770000D03*
%TO.P,J1,14*%
%TO.N,GND*%
X155610000Y-82230000D03*
%TO.P,J1,15*%
%TO.N,N/C*%
X158150000Y-84770000D03*
%TO.P,J1,16*%
X158150000Y-82230000D03*
%TO.P,J1,17*%
X160690000Y-84770000D03*
%TO.P,J1,18*%
X160690000Y-82230000D03*
%TO.P,J1,19*%
%TO.N,LED_SPI*%
X163230000Y-84770000D03*
%TO.P,J1,20*%
%TO.N,GND*%
X163230000Y-82230000D03*
%TO.P,J1,21*%
%TO.N,N/C*%
X165770000Y-84770000D03*
%TO.P,J1,22*%
X165770000Y-82230000D03*
%TO.P,J1,23*%
X168310000Y-84770000D03*
%TO.P,J1,24*%
X168310000Y-82230000D03*
%TO.P,J1,25*%
%TO.N,GND*%
X170850000Y-84770000D03*
%TO.P,J1,26*%
%TO.N,N/C*%
X170850000Y-82230000D03*
%TO.P,J1,27*%
X173390000Y-84770000D03*
%TO.P,J1,28*%
X173390000Y-82230000D03*
%TO.P,J1,29*%
X175930000Y-84770000D03*
%TO.P,J1,30*%
%TO.N,GND*%
X175930000Y-82230000D03*
%TO.P,J1,31*%
%TO.N,N/C*%
X178470000Y-84770000D03*
%TO.P,J1,32*%
X178470000Y-82230000D03*
%TO.P,J1,33*%
X181010000Y-84770000D03*
%TO.P,J1,34*%
%TO.N,GND*%
X181010000Y-82230000D03*
%TO.P,J1,35*%
%TO.N,N/C*%
X183550000Y-84770000D03*
%TO.P,J1,36*%
X183550000Y-82230000D03*
%TO.P,J1,37*%
X186090000Y-84770000D03*
%TO.P,J1,38*%
X186090000Y-82230000D03*
%TO.P,J1,39*%
%TO.N,GND*%
X188630000Y-84770000D03*
%TO.P,J1,40*%
%TO.N,N/C*%
X188630000Y-82230000D03*
%TD*%
D14*
%TO.N,+5V*%
X129207300Y-113886200D03*
%TO.N,LED_SPI*%
X162024900Y-69519500D03*
%TO.N,WS_DATA*%
X183521800Y-69507200D03*
%TO.N,GND*%
X130000000Y-126000000D03*
X144100000Y-62100000D03*
X130000000Y-132000000D03*
X106000000Y-132000000D03*
X112000000Y-99000000D03*
X115000000Y-105000000D03*
X103000000Y-120000000D03*
X193000000Y-81000000D03*
X196000000Y-66000000D03*
X196000000Y-63000000D03*
X127000000Y-123000000D03*
X103000000Y-132000000D03*
X124000000Y-75000000D03*
X175000000Y-72000000D03*
X172000000Y-78000000D03*
X175000000Y-66000000D03*
X115000000Y-120000000D03*
X154000000Y-72000000D03*
X112000000Y-129000000D03*
X175000000Y-87000000D03*
X157000000Y-69000000D03*
X110800000Y-70600000D03*
X118000000Y-81000000D03*
X103000000Y-96000000D03*
X110800000Y-83700000D03*
X106357000Y-70542300D03*
X193000000Y-87000000D03*
X187000000Y-87000000D03*
X109000000Y-114000000D03*
X112000000Y-96000000D03*
X196000000Y-87000000D03*
X103000000Y-117000000D03*
X103000000Y-114000000D03*
X118000000Y-132000000D03*
X115000000Y-99000000D03*
X130000000Y-96000000D03*
X103000000Y-99000000D03*
X124000000Y-132000000D03*
X112000000Y-114000000D03*
X181000000Y-66000000D03*
X148700000Y-65300000D03*
X157000000Y-63000000D03*
X130000000Y-123000000D03*
X115000000Y-129000000D03*
X156000000Y-64000000D03*
X103000000Y-123000000D03*
X196000000Y-72000000D03*
X115000000Y-111000000D03*
X175000000Y-75000000D03*
X196000000Y-81000000D03*
X118000000Y-84000000D03*
X127000000Y-105000000D03*
X172000000Y-66000000D03*
X178000000Y-87000000D03*
X109400000Y-84500000D03*
X118000000Y-87000000D03*
X103000000Y-108000000D03*
X108600000Y-99600000D03*
X112000000Y-84000000D03*
X103000000Y-78000000D03*
X133000000Y-132000000D03*
X107661000Y-103281000D03*
X109000000Y-123000000D03*
X103000000Y-126000000D03*
X104700000Y-118400000D03*
X103000000Y-87000000D03*
X115000000Y-114000000D03*
X107588000Y-83781200D03*
X181000000Y-63000000D03*
X124412000Y-83781200D03*
X112000000Y-105000000D03*
X109000000Y-96000000D03*
X103000000Y-81000000D03*
X163000000Y-66000000D03*
X157000000Y-66000000D03*
X187000000Y-66000000D03*
X193000000Y-75000000D03*
X103000000Y-93000000D03*
X169000000Y-66000000D03*
X175000000Y-63000000D03*
X115000000Y-126000000D03*
X112000000Y-108000000D03*
X190000000Y-87000000D03*
X121000000Y-120000000D03*
X124938000Y-94089700D03*
X190000000Y-84000000D03*
X103000000Y-105000000D03*
X133000000Y-129000000D03*
X166000000Y-63000000D03*
X107300000Y-74100000D03*
X181000000Y-87000000D03*
X130000000Y-117000000D03*
X154000000Y-69000000D03*
X118000000Y-129000000D03*
X193000000Y-78000000D03*
X121000000Y-129000000D03*
X115000000Y-69600000D03*
X124536000Y-100553000D03*
X112000000Y-126000000D03*
X178000000Y-66000000D03*
X105700000Y-68300000D03*
X127000000Y-102000000D03*
X127000000Y-126000000D03*
X115000000Y-123000000D03*
X118000000Y-126000000D03*
X160000000Y-69000000D03*
X118000000Y-120000000D03*
X121000000Y-90000000D03*
X109000000Y-120000000D03*
X184000000Y-87000000D03*
X127000000Y-99000000D03*
X184000000Y-63000000D03*
X184000000Y-66000000D03*
X160000000Y-66000000D03*
X112000000Y-111000000D03*
X166000000Y-87000000D03*
X118000000Y-123000000D03*
X103000000Y-102000000D03*
X105900000Y-72700000D03*
X160000000Y-63000000D03*
X147512000Y-64000000D03*
X109000000Y-111000000D03*
X163000000Y-63000000D03*
X121000000Y-126000000D03*
X130000000Y-108000000D03*
X138018000Y-61991200D03*
X103000000Y-84000000D03*
X172000000Y-72000000D03*
X124948000Y-92534200D03*
X169000000Y-63000000D03*
X130000000Y-129000000D03*
X136000000Y-129000000D03*
X172000000Y-87000000D03*
X121000000Y-87000000D03*
X127000000Y-129000000D03*
X106000000Y-66000000D03*
X112000000Y-123000000D03*
X110800000Y-84400000D03*
X103000000Y-63000000D03*
X130000000Y-111000000D03*
X142525000Y-71000000D03*
X169000000Y-87000000D03*
X112000000Y-102000000D03*
X118000000Y-78000000D03*
X124339000Y-103281000D03*
X130000000Y-105000000D03*
X109000000Y-129000000D03*
X196000000Y-84000000D03*
X112000000Y-132000000D03*
X136000000Y-87000000D03*
X190000000Y-66000000D03*
X124433000Y-101930000D03*
X178000000Y-75000000D03*
X109000000Y-99000000D03*
X117643000Y-69457700D03*
X125700000Y-71800000D03*
X130000000Y-102000000D03*
X112000000Y-87000000D03*
X124512000Y-73000000D03*
X154000000Y-66000000D03*
X127000000Y-96000000D03*
X103000000Y-90000000D03*
X124000000Y-123000000D03*
X121700000Y-74400000D03*
X130000000Y-120000000D03*
X128000000Y-81487500D03*
X157512000Y-64000000D03*
X109000000Y-126000000D03*
X130000000Y-93000000D03*
X115000000Y-102000000D03*
X178000000Y-72000000D03*
X115000000Y-96000000D03*
X128600000Y-62100000D03*
X107900000Y-74000000D03*
X127000000Y-93000000D03*
X139000000Y-87000000D03*
X103000000Y-75000000D03*
X112000000Y-120000000D03*
X105000000Y-119000000D03*
X121000000Y-132000000D03*
X172000000Y-63000000D03*
X130000000Y-99000000D03*
X124512000Y-69000000D03*
X124000000Y-129000000D03*
X124000000Y-126000000D03*
X105900000Y-73400000D03*
X121000000Y-123000000D03*
X109000000Y-132000000D03*
X103000000Y-129000000D03*
X106000000Y-63000000D03*
X140000000Y-62100000D03*
X130000000Y-84000000D03*
X109000000Y-105000000D03*
X130000000Y-90000000D03*
X172000000Y-75000000D03*
X178000000Y-78000000D03*
X110800000Y-71300000D03*
X109000000Y-84000000D03*
X196000000Y-69000000D03*
X163000000Y-87000000D03*
X103000000Y-111000000D03*
X108400000Y-83700000D03*
X178000000Y-63000000D03*
X115000000Y-132000000D03*
X175000000Y-78000000D03*
X155300000Y-71000000D03*
X109000000Y-102000000D03*
X106500000Y-67500000D03*
%TO.N,UART_PI_TX*%
X106614100Y-124983000D03*
X109335000Y-67239300D03*
%TO.N,UART_328_TX*%
X103932400Y-122500000D03*
X126833000Y-65191900D03*
X103932400Y-64586400D03*
%TO.N,RESET*%
X111600000Y-67101500D03*
X129037500Y-70651500D03*
%TO.N,MOSI*%
X118289900Y-91350000D03*
%TO.N,MISO*%
X117607000Y-90080000D03*
%TO.N,SCK*%
X116274200Y-92620000D03*
%TO.N,CS*%
X105909500Y-128536300D03*
X105909500Y-92913200D03*
%TO.N,GDO0*%
X110113500Y-88810000D03*
X108381800Y-65455100D03*
X107266700Y-128631000D03*
%TO.N,XTAL2*%
X114897900Y-72762200D03*
%TO.N,LED_TREIBER*%
X125643300Y-66360300D03*
X130313900Y-71030900D03*
%TD*%
D15*
%TO.N,+5V*%
X129207300Y-89207400D02*
X132663300Y-85751400D01*
X132663300Y-85751400D02*
X136848600Y-85751400D01*
X129207300Y-113886200D02*
X129207300Y-89207400D01*
X136848600Y-85751400D02*
X140370000Y-82230000D01*
%TO.N,PI_3V3*%
X188500000Y-63500000D02*
X188500000Y-64676700D01*
X189068200Y-65244900D02*
X189068200Y-74393200D01*
X189914200Y-76706200D02*
X189443100Y-77177300D01*
X189068200Y-74393200D02*
X189914200Y-75239200D01*
X189443100Y-77177300D02*
X188177300Y-77177300D01*
X189914200Y-75239200D02*
X189914200Y-76706200D01*
X188500000Y-64676700D02*
X189068200Y-65244900D01*
X188177300Y-77177300D02*
X187000000Y-76000000D01*
%TO.N,LED_SPI*%
X163230000Y-84770000D02*
X162024900Y-83564900D01*
X162024900Y-83564900D02*
X162024900Y-69519500D01*
%TO.N,WS_DATA*%
X188098300Y-76000000D02*
X188098300Y-74083700D01*
X189000000Y-76000000D02*
X188098300Y-76000000D01*
X188098300Y-74083700D02*
X183521800Y-69507200D01*
D16*
%TO.N,GND*%
X108300000Y-75100000D02*
X107300000Y-74100000D01*
X147200000Y-62100000D02*
X144100000Y-62100000D01*
X148500000Y-65000000D02*
X148500000Y-62400000D01*
X109300000Y-75400000D02*
X107900000Y-74000000D01*
X105900000Y-72700000D02*
X105900000Y-68100000D01*
X110800000Y-71300000D02*
X110800000Y-83700000D01*
X148400000Y-62300000D02*
X148300000Y-62200000D01*
X110800000Y-70600000D02*
X110800000Y-84400000D01*
X109400000Y-84500000D02*
X109400000Y-75500000D01*
X106000000Y-68000000D02*
X106500000Y-67500000D01*
X105900000Y-73400000D02*
X105900000Y-68500000D01*
X148200000Y-62200000D02*
X147300000Y-62200000D01*
X148700000Y-65300000D02*
X148500000Y-65099999D01*
X108400000Y-83700000D02*
X108400000Y-75200000D01*
X105800000Y-68400000D02*
X105700000Y-68300000D01*
D15*
%TO.N,UART_PI_TX*%
X147990000Y-82230000D02*
X128607300Y-62847300D01*
X107757900Y-65182200D02*
X107757900Y-65797000D01*
X109335000Y-69709600D02*
X109335000Y-67239300D01*
X106614100Y-72430500D02*
X109335000Y-69709600D01*
X106614100Y-124983000D02*
X106614100Y-72430500D01*
X107757900Y-65797000D02*
X109200200Y-67239300D01*
X128607300Y-62847300D02*
X110092800Y-62847300D01*
X109200200Y-67239300D02*
X109335000Y-67239300D01*
X110092800Y-62847300D02*
X107757900Y-65182200D01*
%TO.N,UART_328_TX*%
X146601700Y-82530100D02*
X146601700Y-81699900D01*
X147454800Y-83383200D02*
X146601700Y-82530100D01*
X103932400Y-122500000D02*
X103932400Y-64586400D01*
X130093700Y-65191900D02*
X126833000Y-65191900D01*
X149376800Y-83383200D02*
X147454800Y-83383200D01*
X150530000Y-82230000D02*
X149376800Y-83383200D01*
X146601700Y-81699900D02*
X130093700Y-65191900D01*
%TO.N,RESET*%
X128605600Y-73655100D02*
X128605600Y-114135300D01*
X128605600Y-71083400D02*
X128605600Y-73655100D01*
X128716500Y-114246200D02*
X128716500Y-119031700D01*
X128605600Y-114135300D02*
X128716500Y-114246200D01*
X127938200Y-119810000D02*
X126270000Y-119810000D01*
X129037500Y-70651500D02*
X128605600Y-71083400D01*
X128716500Y-119031700D02*
X127938200Y-119810000D01*
X126270000Y-119810000D02*
X125000000Y-121080000D01*
X114939800Y-73655100D02*
X111600000Y-70315300D01*
X128605600Y-73655100D02*
X114939800Y-73655100D01*
X111600000Y-70315300D02*
X111600000Y-67101500D01*
%TO.N,MOSI*%
X118289900Y-91350000D02*
X126270000Y-99330100D01*
X126270000Y-99330100D02*
X126270000Y-117270000D01*
X126270000Y-117270000D02*
X127540000Y-118540000D01*
%TO.N,MISO*%
X125000000Y-114848300D02*
X125000000Y-108505200D01*
X117607000Y-101112200D02*
X117607000Y-90080000D01*
X125000000Y-108505200D02*
X117607000Y-101112200D01*
X125000000Y-116000000D02*
X125000000Y-114848300D01*
%TO.N,SCK*%
X117888300Y-102161300D02*
X116274200Y-100547200D01*
X125000000Y-118540000D02*
X117888300Y-111428300D01*
X117888300Y-111428300D02*
X117888300Y-102161300D01*
X116274200Y-100547200D02*
X116274200Y-92620000D01*
%TO.N,CS*%
X105909500Y-92913200D02*
X105909500Y-128536300D01*
%TO.N,GDO0*%
X110113500Y-88810000D02*
X107037600Y-91885900D01*
X108432200Y-65455100D02*
X108381800Y-65455100D01*
X107037600Y-91885900D02*
X107037600Y-121635000D01*
X107266700Y-121864100D02*
X107266700Y-128631000D01*
X110113500Y-67136400D02*
X108432200Y-65455100D01*
X107037600Y-121635000D02*
X107266700Y-121864100D01*
X110113500Y-88810000D02*
X110113500Y-67136400D01*
%TO.N,XTAL2*%
X116237800Y-72762200D02*
X114897900Y-72762200D01*
X125000000Y-64000000D02*
X116237800Y-72762200D01*
%TO.N,LED_TREIBER*%
X130313900Y-71030900D02*
X125643300Y-66360300D01*
%TD*%
M02*
