M48
; DRILL file {KiCad 9.0.2+dfsg-1} date 2026-07-28T14:15:08+0200
; FORMAT={-:-/ absolute / metric / decimal}
; #@! TF.CreationDate,2026-07-28T14:15:08+02:00
; #@! TF.GenerationSoftware,Kicad,Pcbnew,9.0.2+dfsg-1
; #@! TF.FileFunction,Plated,1,4,PTH
FMAT,2
METRIC
; #@! TA.AperFunction,Plated,PTH,ViaDrill
T1C0.300
; #@! TA.AperFunction,Plated,PTH,ComponentDrill
T2C0.750
; #@! TA.AperFunction,Plated,PTH,ComponentDrill
T3C1.000
%
G90
G05
T1
X103.0Y-66.0
X103.0Y-69.0
X103.0Y-72.0
X106.0Y-63.0
X106.0Y-66.0
X106.0Y-69.0
X106.0Y-72.0
X109.0Y-63.0
X115.0Y-69.0
X115.0Y-72.0
X122.409Y-69.925
X128.4Y-70.8
X166.0Y-81.0
X166.0Y-84.0
X166.0Y-87.0
X166.0Y-90.0
X166.0Y-93.0
X166.0Y-96.0
X166.0Y-99.0
X166.0Y-102.0
X166.575Y-69.389
X169.0Y-81.0
X169.0Y-84.0
X169.0Y-87.0
X169.0Y-93.0
X169.0Y-96.0
X169.0Y-102.0
X169.7Y-63.4
X172.0Y-63.0
X172.174Y-101.322
X174.244Y-65.496
X175.0Y-63.0
X175.0Y-78.0
X175.0Y-81.0
X175.0Y-84.0
X175.0Y-87.0
X175.018Y-94.785
X175.5Y-64.5
X177.3Y-86.3
X178.0Y-63.0
X178.607Y-101.117
X178.761Y-88.155
X180.838Y-84.161
X181.0Y-63.0
X181.0Y-99.0
X184.0Y-63.0
X184.0Y-69.0
X184.0Y-72.0
X184.0Y-84.8
X184.7Y-87.4
X186.0Y-83.6
X186.5Y-64.5
X186.719Y-78.679
X187.0Y-63.0
X187.0Y-69.0
X187.489Y-79.422
X188.3Y-91.9
X189.35Y-87.256
X189.454Y-88.767
X190.0Y-63.0
X190.0Y-66.0
X190.0Y-93.0
X190.639Y-90.092
X191.9Y-90.5
X191.9Y-91.9
X192.071Y-103.366
X192.666Y-98.503
X193.0Y-63.0
X193.0Y-66.0
X193.333Y-84.436
X193.782Y-85.277
X194.0Y-80.5
X194.7Y-83.7
X194.7Y-83.7
X195.567Y-90.96
X195.6Y-87.9
X195.6Y-87.9
X195.6Y-91.9
X196.0Y-63.0
X196.0Y-66.0
X196.0Y-84.0
X196.0Y-93.0
X196.279Y-104.619
X197.7Y-78.5
X197.7Y-93.0
X197.7Y-95.5
X197.9Y-98.8
X197.9Y-104.8
X198.6Y-78.8
X199.0Y-63.0
X199.0Y-90.0
X199.0Y-93.0
X199.0Y-96.0
X199.292Y-85.085
X199.689Y-83.875
X202.0Y-63.0
X202.0Y-87.0
X202.0Y-90.0
X202.0Y-93.0
X202.0Y-96.0
X202.0Y-99.0
X202.206Y-104.086
X202.9Y-78.5
X205.0Y-63.0
X205.0Y-66.0
X205.0Y-69.0
X205.0Y-72.0
X205.0Y-75.0
X205.0Y-81.0
X205.0Y-84.0
X205.0Y-87.0
X205.0Y-90.0
X205.0Y-93.0
X205.0Y-96.0
X206.643Y-103.392
X207.304Y-81.59
X208.0Y-63.0
X208.0Y-66.0
X208.0Y-69.0
X208.0Y-72.0
X208.0Y-75.0
X208.0Y-84.0
X208.0Y-87.0
X208.0Y-90.0
X208.0Y-93.0
X208.0Y-96.0
X208.0Y-99.0
X211.0Y-63.0
X211.0Y-66.0
X211.0Y-69.0
X211.0Y-72.0
X211.0Y-75.0
X211.0Y-78.0
X211.0Y-87.0
X211.0Y-90.0
X211.0Y-93.0
X211.0Y-96.0
X211.0Y-99.0
X211.0Y-102.0
X212.3Y-78.5
X212.3Y-86.1
X212.3Y-87.4
X212.3Y-93.0
X212.3Y-94.2
X212.3Y-95.5
X214.0Y-63.0
X214.0Y-69.0
X214.0Y-72.0
X214.0Y-75.0
X214.0Y-78.0
X214.0Y-84.0
X214.0Y-87.0
X214.0Y-90.0
X214.0Y-93.0
X214.0Y-96.0
X214.0Y-99.0
X215.8Y-80.0
T2
X169.0Y-74.5
X169.0Y-76.5
X169.0Y-78.5
X169.0Y-80.5
X169.0Y-88.0
X169.0Y-90.0
X169.0Y-95.5
X169.0Y-97.5
X169.0Y-99.5
T3
X108.37Y-64.77
X108.37Y-67.31
X110.91Y-64.77
X110.91Y-67.31
X113.45Y-64.77
X113.45Y-67.31
X115.99Y-64.77
X115.99Y-67.31
X118.53Y-64.77
X118.53Y-67.31
X121.07Y-64.77
X121.07Y-67.31
X123.61Y-64.77
X123.61Y-67.31
X126.15Y-64.77
X126.15Y-67.31
X128.69Y-64.77
X128.69Y-67.31
X131.23Y-64.77
X131.23Y-67.31
X133.77Y-64.77
X133.77Y-67.31
X136.31Y-64.77
X136.31Y-67.31
X138.85Y-64.77
X138.85Y-67.31
X141.39Y-64.77
X141.39Y-67.31
X143.93Y-64.77
X143.93Y-67.31
X146.47Y-64.77
X146.47Y-67.31
X149.01Y-64.77
X149.01Y-67.31
X151.55Y-64.77
X151.55Y-67.31
X154.09Y-64.77
X154.09Y-67.31
X156.63Y-64.77
X156.63Y-67.31
X178.0Y-77.0
X178.0Y-79.5
X178.0Y-82.0
X198.0Y-66.0
X198.0Y-68.54
X198.0Y-71.08
X200.54Y-66.0
X200.54Y-68.54
X200.54Y-71.08
M30
