%TF.GenerationSoftware,KiCad,Pcbnew,9.0.2+dfsg-1*%
%TF.CreationDate,2026-07-30T16:14:52+02:00*%
%TF.ProjectId,AskSin-Adapter-J1,41736b53-696e-42d4-9164-61707465722d,rev?*%
%TF.SameCoordinates,Original*%
%TF.FileFunction,Copper,L1,Top*%
%TF.FilePolarity,Positive*%
%FSLAX46Y46*%
G04 Gerber Fmt 4.6, Leading zero omitted, Abs format (unit mm)*
G04 Created by KiCad (PCBNEW 9.0.2+dfsg-1) date 2026-07-30 16:14:52*
%MOMM*%
%LPD*%
G01*
G04 APERTURE LIST*
%TA.AperFunction,ComponentPad*%
%ADD10R,1.700000X1.700000*%
%TD*%
%TA.AperFunction,ComponentPad*%
%ADD11C,1.700000*%
%TD*%
%TA.AperFunction,Conductor*%
%ADD12C,0.400000*%
%TD*%
%TA.AperFunction,Conductor*%
%ADD13C,0.300000*%
%TD*%
G04 APERTURE END LIST*
D10*
%TO.P,J2,1*%
%TO.N,P2*%
X108370000Y-62230000D03*
D11*
%TO.P,J2,2*%
%TO.N,P4*%
X110910000Y-62230000D03*
%TO.P,J2,3*%
%TO.N,P6*%
X113450000Y-62230000D03*
%TO.P,J2,4*%
%TO.N,P8*%
X115990000Y-62230000D03*
%TO.P,J2,5*%
%TO.N,P10*%
X118530000Y-62230000D03*
%TO.P,J2,6*%
%TO.N,P12*%
X121070000Y-62230000D03*
%TO.P,J2,7*%
%TO.N,P14*%
X123610000Y-62230000D03*
%TO.P,J2,8*%
%TO.N,P16*%
X126150000Y-62230000D03*
%TO.P,J2,9*%
%TO.N,P18*%
X128690000Y-62230000D03*
%TO.P,J2,10*%
%TO.N,P20*%
X131230000Y-62230000D03*
%TO.P,J2,11*%
%TO.N,P22*%
X133770000Y-62230000D03*
%TO.P,J2,12*%
%TO.N,P24*%
X136310000Y-62230000D03*
%TO.P,J2,13*%
%TO.N,P26*%
X138850000Y-62230000D03*
%TO.P,J2,14*%
%TO.N,P28*%
X141390000Y-62230000D03*
%TO.P,J2,15*%
%TO.N,P30*%
X143930000Y-62230000D03*
%TO.P,J2,16*%
%TO.N,P32*%
X146470000Y-62230000D03*
%TO.P,J2,17*%
%TO.N,P34*%
X149010000Y-62230000D03*
%TO.P,J2,18*%
%TO.N,P36*%
X151550000Y-62230000D03*
%TO.P,J2,19*%
%TO.N,P38*%
X154090000Y-62230000D03*
%TO.P,J2,20*%
%TO.N,P40*%
X156630000Y-62230000D03*
%TD*%
D10*
%TO.P,J1,1*%
%TO.N,P1*%
X108370000Y-64769999D03*
D11*
%TO.P,J1,2*%
%TO.N,P3*%
X110910000Y-64769999D03*
%TO.P,J1,3*%
%TO.N,P5*%
X113450000Y-64769999D03*
%TO.P,J1,4*%
%TO.N,P7*%
X115990000Y-64769999D03*
%TO.P,J1,5*%
%TO.N,P9*%
X118530000Y-64769999D03*
%TO.P,J1,6*%
%TO.N,P11*%
X121070000Y-64769999D03*
%TO.P,J1,7*%
%TO.N,P13*%
X123610000Y-64769999D03*
%TO.P,J1,8*%
%TO.N,P15*%
X126150000Y-64769999D03*
%TO.P,J1,9*%
%TO.N,P17*%
X128690000Y-64769999D03*
%TO.P,J1,10*%
%TO.N,P19*%
X131230000Y-64769999D03*
%TO.P,J1,11*%
%TO.N,P21*%
X133770000Y-64769999D03*
%TO.P,J1,12*%
%TO.N,P23*%
X136310000Y-64769999D03*
%TO.P,J1,13*%
%TO.N,P25*%
X138850000Y-64769999D03*
%TO.P,J1,14*%
%TO.N,P27*%
X141390000Y-64769999D03*
%TO.P,J1,15*%
%TO.N,P29*%
X143930000Y-64769999D03*
%TO.P,J1,16*%
%TO.N,P31*%
X146470000Y-64769999D03*
%TO.P,J1,17*%
%TO.N,P33*%
X149010000Y-64769999D03*
%TO.P,J1,18*%
%TO.N,P35*%
X151550000Y-64769999D03*
%TO.P,J1,19*%
%TO.N,P37*%
X154090000Y-64769999D03*
%TO.P,J1,20*%
%TO.N,P39*%
X156630000Y-64769999D03*
%TD*%
D10*
%TO.P,J3,1*%
%TO.N,P2*%
X108370000Y-67310000D03*
D11*
%TO.P,J3,2*%
%TO.N,P4*%
X110910000Y-67310000D03*
%TO.P,J3,3*%
%TO.N,P6*%
X113450000Y-67310000D03*
%TO.P,J3,4*%
%TO.N,P8*%
X115990000Y-67310000D03*
%TO.P,J3,5*%
%TO.N,P10*%
X118530000Y-67310000D03*
%TO.P,J3,6*%
%TO.N,P12*%
X121070000Y-67310000D03*
%TO.P,J3,7*%
%TO.N,P14*%
X123610000Y-67310000D03*
%TO.P,J3,8*%
%TO.N,P16*%
X126150000Y-67310000D03*
%TO.P,J3,9*%
%TO.N,P18*%
X128690000Y-67310000D03*
%TO.P,J3,10*%
%TO.N,P20*%
X131230000Y-67310000D03*
%TO.P,J3,11*%
%TO.N,P22*%
X133770000Y-67310000D03*
%TO.P,J3,12*%
%TO.N,P24*%
X136310000Y-67310000D03*
%TO.P,J3,13*%
%TO.N,P26*%
X138850000Y-67310000D03*
%TO.P,J3,14*%
%TO.N,P28*%
X141390000Y-67310000D03*
%TO.P,J3,15*%
%TO.N,P30*%
X143930000Y-67310000D03*
%TO.P,J3,16*%
%TO.N,P32*%
X146470000Y-67310000D03*
%TO.P,J3,17*%
%TO.N,P34*%
X149010000Y-67310000D03*
%TO.P,J3,18*%
%TO.N,P36*%
X151550000Y-67310000D03*
%TO.P,J3,19*%
%TO.N,P38*%
X154090000Y-67310000D03*
%TO.P,J3,20*%
%TO.N,P40*%
X156630000Y-67310000D03*
%TD*%
D12*
%TO.N,P2*%
X109640000Y-63500000D02*
X109640000Y-66039999D01*
X108370000Y-62230000D02*
X109640000Y-63500000D01*
X109640000Y-66039999D02*
X108370000Y-67310000D01*
%TO.N,P4*%
X110910000Y-62230000D02*
X112180000Y-63500000D01*
X112180000Y-66039999D02*
X110910000Y-67310000D01*
X112180000Y-63500000D02*
X112180000Y-66039999D01*
%TO.N,P6*%
X113450000Y-62230000D02*
X114720000Y-63500000D01*
X114720000Y-66039999D02*
X113450000Y-67310000D01*
X114720000Y-63500000D02*
X114720000Y-66039999D01*
D13*
%TO.N,P8*%
X115990000Y-62230000D02*
X117259999Y-63500000D01*
X117259999Y-66039999D02*
X115990000Y-67310000D01*
X117259999Y-63500000D02*
X117259999Y-66039999D01*
%TO.N,P10*%
X119800000Y-63500000D02*
X119800000Y-66039999D01*
X118530000Y-62230000D02*
X119800000Y-63500000D01*
X119800000Y-66039999D02*
X118530000Y-67310000D01*
%TO.N,P12*%
X122340000Y-63500000D02*
X122340000Y-66039999D01*
X122340000Y-66039999D02*
X121070000Y-67310000D01*
X121070000Y-62230000D02*
X122340000Y-63500000D01*
D12*
%TO.N,P14*%
X124880000Y-63500000D02*
X124880000Y-66039999D01*
X124880000Y-66039999D02*
X123610000Y-67310000D01*
X123610000Y-62230000D02*
X124880000Y-63500000D01*
D13*
%TO.N,P16*%
X127420000Y-66039999D02*
X126150000Y-67310000D01*
X127420000Y-63500000D02*
X127420000Y-66039999D01*
X126150000Y-62230000D02*
X127420000Y-63500000D01*
%TO.N,P18*%
X129960000Y-66039999D02*
X128690000Y-67310000D01*
X128690000Y-62230000D02*
X129960000Y-63500000D01*
X129960000Y-63500000D02*
X129960000Y-66039999D01*
D12*
%TO.N,P20*%
X131229999Y-62230000D02*
X132500000Y-63500000D01*
X132500000Y-63500000D02*
X132500000Y-66039999D01*
X132500000Y-66039999D02*
X131229999Y-67310000D01*
D13*
%TO.N,P22*%
X133769999Y-62230000D02*
X135040000Y-63500000D01*
X135040000Y-66039999D02*
X133769999Y-67310000D01*
X135040000Y-63500000D02*
X135040000Y-66039999D01*
%TO.N,P24*%
X137580000Y-66039999D02*
X136310000Y-67310000D01*
X136310000Y-62230000D02*
X137580000Y-63500000D01*
X137580000Y-63500000D02*
X137580000Y-66039999D01*
%TO.N,P26*%
X138850000Y-62230000D02*
X140120000Y-63500000D01*
X140120000Y-66039999D02*
X138850000Y-67310000D01*
X140120000Y-63500000D02*
X140120000Y-66039999D01*
%TO.N,P28*%
X142660000Y-66039999D02*
X141390000Y-67310000D01*
X142660000Y-63500000D02*
X142660000Y-66039999D01*
X141390000Y-62230000D02*
X142660000Y-63500000D01*
D12*
%TO.N,P30*%
X143930000Y-62230000D02*
X145200000Y-63500000D01*
X145200000Y-63500000D02*
X145200000Y-66039999D01*
X145200000Y-66039999D02*
X143930000Y-67310000D01*
D13*
%TO.N,P32*%
X146470000Y-62230000D02*
X147740000Y-63500000D01*
X147740000Y-63500000D02*
X147740000Y-66039999D01*
X147740000Y-66039999D02*
X146470000Y-67310000D01*
D12*
%TO.N,P34*%
X150280000Y-63500000D02*
X150280000Y-66039999D01*
X150280000Y-66039999D02*
X149010000Y-67310000D01*
X149010000Y-62230000D02*
X150280000Y-63500000D01*
D13*
%TO.N,P36*%
X151550000Y-62230000D02*
X152820000Y-63500000D01*
X152820000Y-63500000D02*
X152820000Y-66039999D01*
X152820000Y-66039999D02*
X151550000Y-67310000D01*
%TO.N,P38*%
X155360000Y-63500000D02*
X155360000Y-66039999D01*
X155360000Y-66039999D02*
X154090000Y-67310000D01*
X154090000Y-62230000D02*
X155360000Y-63500000D01*
%TO.N,P40*%
X157900000Y-63500000D02*
X157900000Y-66039999D01*
X157900000Y-66039999D02*
X156630000Y-67310000D01*
X156630000Y-62230000D02*
X157900000Y-63500000D01*
%TD*%
M02*
