%TF.GenerationSoftware,KiCad,Pcbnew,9.0.2+dfsg-1*%
%TF.CreationDate,2026-07-30T17:16:36+02:00*%
%TF.ProjectId,AskSin-Adapter-J1,41736b53-696e-42d4-9164-61707465722d,rev?*%
%TF.SameCoordinates,Original*%
%TF.FileFunction,Soldermask,Bot*%
%TF.FilePolarity,Negative*%
%FSLAX46Y46*%
G04 Gerber Fmt 4.6, Leading zero omitted, Abs format (unit mm)*
G04 Created by KiCad (PCBNEW 9.0.2+dfsg-1) date 2026-07-30 17:16:36*
%MOMM*%
%LPD*%
G01*
G04 APERTURE LIST*
%ADD10R,1.700000X1.700000*%
%ADD11C,1.700000*%
%ADD12C,2.700000*%
G04 APERTURE END LIST*
D10*
%TO.C,J2*%
X108370000Y-69850000D03*
D11*
X108370000Y-67310000D03*
X110910000Y-69850000D03*
X110910000Y-67310000D03*
X113450000Y-69850000D03*
X113450000Y-67310000D03*
X115990000Y-69850000D03*
X115990000Y-67310000D03*
X118530000Y-69850000D03*
X118530000Y-67310000D03*
X121070000Y-69850000D03*
X121070000Y-67310000D03*
X123610000Y-69850000D03*
X123610000Y-67310000D03*
X126150000Y-69850000D03*
X126150000Y-67310000D03*
X128690000Y-69850000D03*
X128690000Y-67310000D03*
X131230000Y-69850000D03*
X131230000Y-67310000D03*
X133770000Y-69850000D03*
X133770000Y-67310000D03*
X136310000Y-69850000D03*
X136310000Y-67310000D03*
X138850000Y-69850000D03*
X138850000Y-67310000D03*
X141390000Y-69850000D03*
X141390000Y-67310000D03*
X143930000Y-69850000D03*
X143930000Y-67310000D03*
X146470000Y-69850000D03*
X146470000Y-67310000D03*
X149010000Y-69850000D03*
X149010000Y-67310000D03*
X151550000Y-69850000D03*
X151550000Y-67310000D03*
X154090000Y-69850000D03*
X154090000Y-67310000D03*
X156630000Y-69850000D03*
X156630000Y-67310000D03*
%TD*%
D12*
%TO.C,MH1*%
X103500000Y-63500000D03*
%TD*%
%TO.C,MH2*%
X161500000Y-63500000D03*
%TD*%
D10*
%TO.C,J1*%
X156630000Y-62230000D03*
D11*
X156630000Y-64770000D03*
X154090000Y-62230000D03*
X154090000Y-64770000D03*
X151550000Y-62230000D03*
X151550000Y-64770000D03*
X149010000Y-62230000D03*
X149010000Y-64770000D03*
X146470000Y-62230000D03*
X146470000Y-64770000D03*
X143930000Y-62230000D03*
X143930000Y-64770000D03*
X141390000Y-62230000D03*
X141390000Y-64770000D03*
X138850000Y-62230000D03*
X138850000Y-64770000D03*
X136310000Y-62230000D03*
X136310000Y-64770000D03*
X133770000Y-62230000D03*
X133770000Y-64770000D03*
X131230000Y-62230000D03*
X131230000Y-64770000D03*
X128690000Y-62230000D03*
X128690000Y-64770000D03*
X126150000Y-62230000D03*
X126150000Y-64770000D03*
X123610000Y-62230000D03*
X123610000Y-64770000D03*
X121070000Y-62230000D03*
X121070000Y-64770000D03*
X118530000Y-62230000D03*
X118530000Y-64770000D03*
X115990000Y-62230000D03*
X115990000Y-64770000D03*
X113450000Y-62230000D03*
X113450000Y-64770000D03*
X110910000Y-62230000D03*
X110910000Y-64770000D03*
X108370000Y-62230000D03*
X108370000Y-64770000D03*
%TD*%
M02*
