%TF.GenerationSoftware,KiCad,Pcbnew,9.0.2+dfsg-1*%
%TF.CreationDate,2026-07-30T17:16:36+02:00*%
%TF.ProjectId,AskSin-Adapter-J1,41736b53-696e-42d4-9164-61707465722d,rev?*%
%TF.SameCoordinates,Original*%
%TF.FileFunction,Legend,Bot*%
%TF.FilePolarity,Positive*%
%FSLAX46Y46*%
G04 Gerber Fmt 4.6, Leading zero omitted, Abs format (unit mm)*
G04 Created by KiCad (PCBNEW 9.0.2+dfsg-1) date 2026-07-30 17:16:36*
%MOMM*%
%LPD*%
G01*
G04 APERTURE LIST*
%ADD10C,0.135000*%
%ADD11C,0.120000*%
%ADD12R,1.700000X1.700000*%
%ADD13C,1.700000*%
%ADD14C,2.700000*%
G04 APERTURE END LIST*
D10*
X105912856Y-65179336D02*
X106427142Y-65179336D01*
X106169999Y-65179336D02*
X106169999Y-64279336D01*
X106169999Y-64279336D02*
X106255713Y-64407907D01*
X106255713Y-64407907D02*
X106341428Y-64493621D01*
X106341428Y-64493621D02*
X106427142Y-64536479D01*
X142421429Y-73209337D02*
X142421429Y-72309337D01*
X142421429Y-72309337D02*
X142207143Y-72309337D01*
X142207143Y-72309337D02*
X142078572Y-72352194D01*
X142078572Y-72352194D02*
X141992857Y-72437908D01*
X141992857Y-72437908D02*
X141950000Y-72523622D01*
X141950000Y-72523622D02*
X141907143Y-72695051D01*
X141907143Y-72695051D02*
X141907143Y-72823622D01*
X141907143Y-72823622D02*
X141950000Y-72995051D01*
X141950000Y-72995051D02*
X141992857Y-73080765D01*
X141992857Y-73080765D02*
X142078572Y-73166480D01*
X142078572Y-73166480D02*
X142207143Y-73209337D01*
X142207143Y-73209337D02*
X142421429Y-73209337D01*
X141521429Y-73209337D02*
X141521429Y-72609337D01*
X141521429Y-72309337D02*
X141564286Y-72352194D01*
X141564286Y-72352194D02*
X141521429Y-72395051D01*
X141521429Y-72395051D02*
X141478572Y-72352194D01*
X141478572Y-72352194D02*
X141521429Y-72309337D01*
X141521429Y-72309337D02*
X141521429Y-72395051D01*
X140750001Y-73166480D02*
X140835715Y-73209337D01*
X140835715Y-73209337D02*
X141007144Y-73209337D01*
X141007144Y-73209337D02*
X141092858Y-73166480D01*
X141092858Y-73166480D02*
X141135715Y-73080765D01*
X141135715Y-73080765D02*
X141135715Y-72737908D01*
X141135715Y-72737908D02*
X141092858Y-72652194D01*
X141092858Y-72652194D02*
X141007144Y-72609337D01*
X141007144Y-72609337D02*
X140835715Y-72609337D01*
X140835715Y-72609337D02*
X140750001Y-72652194D01*
X140750001Y-72652194D02*
X140707144Y-72737908D01*
X140707144Y-72737908D02*
X140707144Y-72823622D01*
X140707144Y-72823622D02*
X141135715Y-72909337D01*
X140364286Y-73166480D02*
X140278572Y-73209337D01*
X140278572Y-73209337D02*
X140107143Y-73209337D01*
X140107143Y-73209337D02*
X140021429Y-73166480D01*
X140021429Y-73166480D02*
X139978572Y-73080765D01*
X139978572Y-73080765D02*
X139978572Y-73037908D01*
X139978572Y-73037908D02*
X140021429Y-72952194D01*
X140021429Y-72952194D02*
X140107143Y-72909337D01*
X140107143Y-72909337D02*
X140235715Y-72909337D01*
X140235715Y-72909337D02*
X140321429Y-72866480D01*
X140321429Y-72866480D02*
X140364286Y-72780765D01*
X140364286Y-72780765D02*
X140364286Y-72737908D01*
X140364286Y-72737908D02*
X140321429Y-72652194D01*
X140321429Y-72652194D02*
X140235715Y-72609337D01*
X140235715Y-72609337D02*
X140107143Y-72609337D01*
X140107143Y-72609337D02*
X140021429Y-72652194D01*
X139250001Y-73166480D02*
X139335715Y-73209337D01*
X139335715Y-73209337D02*
X139507144Y-73209337D01*
X139507144Y-73209337D02*
X139592858Y-73166480D01*
X139592858Y-73166480D02*
X139635715Y-73080765D01*
X139635715Y-73080765D02*
X139635715Y-72737908D01*
X139635715Y-72737908D02*
X139592858Y-72652194D01*
X139592858Y-72652194D02*
X139507144Y-72609337D01*
X139507144Y-72609337D02*
X139335715Y-72609337D01*
X139335715Y-72609337D02*
X139250001Y-72652194D01*
X139250001Y-72652194D02*
X139207144Y-72737908D01*
X139207144Y-72737908D02*
X139207144Y-72823622D01*
X139207144Y-72823622D02*
X139635715Y-72909337D01*
X138178572Y-73166480D02*
X138050001Y-73209337D01*
X138050001Y-73209337D02*
X137835715Y-73209337D01*
X137835715Y-73209337D02*
X137750001Y-73166480D01*
X137750001Y-73166480D02*
X137707143Y-73123622D01*
X137707143Y-73123622D02*
X137664286Y-73037908D01*
X137664286Y-73037908D02*
X137664286Y-72952194D01*
X137664286Y-72952194D02*
X137707143Y-72866480D01*
X137707143Y-72866480D02*
X137750001Y-72823622D01*
X137750001Y-72823622D02*
X137835715Y-72780765D01*
X137835715Y-72780765D02*
X138007143Y-72737908D01*
X138007143Y-72737908D02*
X138092858Y-72695051D01*
X138092858Y-72695051D02*
X138135715Y-72652194D01*
X138135715Y-72652194D02*
X138178572Y-72566480D01*
X138178572Y-72566480D02*
X138178572Y-72480765D01*
X138178572Y-72480765D02*
X138135715Y-72395051D01*
X138135715Y-72395051D02*
X138092858Y-72352194D01*
X138092858Y-72352194D02*
X138007143Y-72309337D01*
X138007143Y-72309337D02*
X137792858Y-72309337D01*
X137792858Y-72309337D02*
X137664286Y-72352194D01*
X136935715Y-73166480D02*
X137021429Y-73209337D01*
X137021429Y-73209337D02*
X137192858Y-73209337D01*
X137192858Y-73209337D02*
X137278572Y-73166480D01*
X137278572Y-73166480D02*
X137321429Y-73080765D01*
X137321429Y-73080765D02*
X137321429Y-72737908D01*
X137321429Y-72737908D02*
X137278572Y-72652194D01*
X137278572Y-72652194D02*
X137192858Y-72609337D01*
X137192858Y-72609337D02*
X137021429Y-72609337D01*
X137021429Y-72609337D02*
X136935715Y-72652194D01*
X136935715Y-72652194D02*
X136892858Y-72737908D01*
X136892858Y-72737908D02*
X136892858Y-72823622D01*
X136892858Y-72823622D02*
X137321429Y-72909337D01*
X136507143Y-73209337D02*
X136507143Y-72609337D01*
X136507143Y-72309337D02*
X136550000Y-72352194D01*
X136550000Y-72352194D02*
X136507143Y-72395051D01*
X136507143Y-72395051D02*
X136464286Y-72352194D01*
X136464286Y-72352194D02*
X136507143Y-72309337D01*
X136507143Y-72309337D02*
X136507143Y-72395051D01*
X136207143Y-72609337D02*
X135864286Y-72609337D01*
X136078572Y-72309337D02*
X136078572Y-73080765D01*
X136078572Y-73080765D02*
X136035715Y-73166480D01*
X136035715Y-73166480D02*
X135950000Y-73209337D01*
X135950000Y-73209337D02*
X135864286Y-73209337D01*
X135221429Y-73166480D02*
X135307143Y-73209337D01*
X135307143Y-73209337D02*
X135478572Y-73209337D01*
X135478572Y-73209337D02*
X135564286Y-73166480D01*
X135564286Y-73166480D02*
X135607143Y-73080765D01*
X135607143Y-73080765D02*
X135607143Y-72737908D01*
X135607143Y-72737908D02*
X135564286Y-72652194D01*
X135564286Y-72652194D02*
X135478572Y-72609337D01*
X135478572Y-72609337D02*
X135307143Y-72609337D01*
X135307143Y-72609337D02*
X135221429Y-72652194D01*
X135221429Y-72652194D02*
X135178572Y-72737908D01*
X135178572Y-72737908D02*
X135178572Y-72823622D01*
X135178572Y-72823622D02*
X135607143Y-72909337D01*
X133721429Y-73209337D02*
X133721429Y-72737908D01*
X133721429Y-72737908D02*
X133764286Y-72652194D01*
X133764286Y-72652194D02*
X133850000Y-72609337D01*
X133850000Y-72609337D02*
X134021429Y-72609337D01*
X134021429Y-72609337D02*
X134107143Y-72652194D01*
X133721429Y-73166480D02*
X133807143Y-73209337D01*
X133807143Y-73209337D02*
X134021429Y-73209337D01*
X134021429Y-73209337D02*
X134107143Y-73166480D01*
X134107143Y-73166480D02*
X134150000Y-73080765D01*
X134150000Y-73080765D02*
X134150000Y-72995051D01*
X134150000Y-72995051D02*
X134107143Y-72909337D01*
X134107143Y-72909337D02*
X134021429Y-72866480D01*
X134021429Y-72866480D02*
X133807143Y-72866480D01*
X133807143Y-72866480D02*
X133721429Y-72823622D01*
X132907143Y-72609337D02*
X132907143Y-73209337D01*
X133292857Y-72609337D02*
X133292857Y-73080765D01*
X133292857Y-73080765D02*
X133250000Y-73166480D01*
X133250000Y-73166480D02*
X133164285Y-73209337D01*
X133164285Y-73209337D02*
X133035714Y-73209337D01*
X133035714Y-73209337D02*
X132950000Y-73166480D01*
X132950000Y-73166480D02*
X132907143Y-73123622D01*
X132607142Y-72609337D02*
X132264285Y-72609337D01*
X132478571Y-73209337D02*
X132478571Y-72437908D01*
X132478571Y-72437908D02*
X132435714Y-72352194D01*
X132435714Y-72352194D02*
X132349999Y-72309337D01*
X132349999Y-72309337D02*
X132264285Y-72309337D01*
X130892857Y-73209337D02*
X130892857Y-72309337D01*
X130892857Y-73166480D02*
X130978571Y-73209337D01*
X130978571Y-73209337D02*
X131149999Y-73209337D01*
X131149999Y-73209337D02*
X131235714Y-73166480D01*
X131235714Y-73166480D02*
X131278571Y-73123622D01*
X131278571Y-73123622D02*
X131321428Y-73037908D01*
X131321428Y-73037908D02*
X131321428Y-72780765D01*
X131321428Y-72780765D02*
X131278571Y-72695051D01*
X131278571Y-72695051D02*
X131235714Y-72652194D01*
X131235714Y-72652194D02*
X131149999Y-72609337D01*
X131149999Y-72609337D02*
X130978571Y-72609337D01*
X130978571Y-72609337D02*
X130892857Y-72652194D01*
X130121428Y-73166480D02*
X130207142Y-73209337D01*
X130207142Y-73209337D02*
X130378571Y-73209337D01*
X130378571Y-73209337D02*
X130464285Y-73166480D01*
X130464285Y-73166480D02*
X130507142Y-73080765D01*
X130507142Y-73080765D02*
X130507142Y-72737908D01*
X130507142Y-72737908D02*
X130464285Y-72652194D01*
X130464285Y-72652194D02*
X130378571Y-72609337D01*
X130378571Y-72609337D02*
X130207142Y-72609337D01*
X130207142Y-72609337D02*
X130121428Y-72652194D01*
X130121428Y-72652194D02*
X130078571Y-72737908D01*
X130078571Y-72737908D02*
X130078571Y-72823622D01*
X130078571Y-72823622D02*
X130507142Y-72909337D01*
X129692856Y-72609337D02*
X129692856Y-73209337D01*
X129692856Y-72695051D02*
X129649999Y-72652194D01*
X129649999Y-72652194D02*
X129564284Y-72609337D01*
X129564284Y-72609337D02*
X129435713Y-72609337D01*
X129435713Y-72609337D02*
X129349999Y-72652194D01*
X129349999Y-72652194D02*
X129307142Y-72737908D01*
X129307142Y-72737908D02*
X129307142Y-73209337D01*
X128192856Y-73209337D02*
X128192856Y-72309337D01*
X128192856Y-72309337D02*
X127849999Y-72309337D01*
X127849999Y-72309337D02*
X127764284Y-72352194D01*
X127764284Y-72352194D02*
X127721427Y-72395051D01*
X127721427Y-72395051D02*
X127678570Y-72480765D01*
X127678570Y-72480765D02*
X127678570Y-72609337D01*
X127678570Y-72609337D02*
X127721427Y-72695051D01*
X127721427Y-72695051D02*
X127764284Y-72737908D01*
X127764284Y-72737908D02*
X127849999Y-72780765D01*
X127849999Y-72780765D02*
X128192856Y-72780765D01*
X127164284Y-73209337D02*
X127249999Y-73166480D01*
X127249999Y-73166480D02*
X127292856Y-73123622D01*
X127292856Y-73123622D02*
X127335713Y-73037908D01*
X127335713Y-73037908D02*
X127335713Y-72780765D01*
X127335713Y-72780765D02*
X127292856Y-72695051D01*
X127292856Y-72695051D02*
X127249999Y-72652194D01*
X127249999Y-72652194D02*
X127164284Y-72609337D01*
X127164284Y-72609337D02*
X127035713Y-72609337D01*
X127035713Y-72609337D02*
X126949999Y-72652194D01*
X126949999Y-72652194D02*
X126907142Y-72695051D01*
X126907142Y-72695051D02*
X126864284Y-72780765D01*
X126864284Y-72780765D02*
X126864284Y-73037908D01*
X126864284Y-73037908D02*
X126907142Y-73123622D01*
X126907142Y-73123622D02*
X126949999Y-73166480D01*
X126949999Y-73166480D02*
X127035713Y-73209337D01*
X127035713Y-73209337D02*
X127164284Y-73209337D01*
X126478570Y-72737908D02*
X126178570Y-72737908D01*
X126049998Y-73209337D02*
X126478570Y-73209337D01*
X126478570Y-73209337D02*
X126478570Y-72309337D01*
X126478570Y-72309337D02*
X126049998Y-72309337D01*
X125664284Y-72866480D02*
X124978570Y-72866480D01*
X124549998Y-73209337D02*
X124549998Y-72309337D01*
X124549998Y-72737908D02*
X124035712Y-72737908D01*
X124035712Y-73209337D02*
X124035712Y-72309337D01*
X123649998Y-72952194D02*
X123221427Y-72952194D01*
X123735712Y-73209337D02*
X123435712Y-72309337D01*
X123435712Y-72309337D02*
X123135712Y-73209337D01*
X122964283Y-72309337D02*
X122449998Y-72309337D01*
X122707140Y-73209337D02*
X122707140Y-72309337D01*
D11*
%TO.C,J1*%
X107040000Y-66100000D02*
X107040000Y-60900000D01*
X155360000Y-60900000D02*
X107040000Y-60900000D01*
X155360000Y-63500000D02*
X155360000Y-60900000D01*
X157960000Y-60900000D02*
X156630000Y-60900000D01*
X157960000Y-62230000D02*
X157960000Y-60900000D01*
X157960000Y-63500000D02*
X155360000Y-63500000D01*
X157960000Y-66100000D02*
X107040000Y-66100000D01*
X157960000Y-66100000D02*
X157960000Y-63500000D01*
%TD*%
%LPC*%
D12*
%TO.C,J2*%
X108370000Y-69850000D03*
D13*
X108370000Y-67310000D03*
X110910000Y-69850000D03*
X110910000Y-67310000D03*
X113450000Y-69850000D03*
X113450000Y-67310000D03*
X115990000Y-69850000D03*
X115990000Y-67310000D03*
X118530000Y-69850000D03*
X118530000Y-67310000D03*
X121070000Y-69850000D03*
X121070000Y-67310000D03*
X123610000Y-69850000D03*
X123610000Y-67310000D03*
X126150000Y-69850000D03*
X126150000Y-67310000D03*
X128690000Y-69850000D03*
X128690000Y-67310000D03*
X131230000Y-69850000D03*
X131230000Y-67310000D03*
X133770000Y-69850000D03*
X133770000Y-67310000D03*
X136310000Y-69850000D03*
X136310000Y-67310000D03*
X138850000Y-69850000D03*
X138850000Y-67310000D03*
X141390000Y-69850000D03*
X141390000Y-67310000D03*
X143930000Y-69850000D03*
X143930000Y-67310000D03*
X146470000Y-69850000D03*
X146470000Y-67310000D03*
X149010000Y-69850000D03*
X149010000Y-67310000D03*
X151550000Y-69850000D03*
X151550000Y-67310000D03*
X154090000Y-69850000D03*
X154090000Y-67310000D03*
X156630000Y-69850000D03*
X156630000Y-67310000D03*
%TD*%
D14*
%TO.C,MH1*%
X103500000Y-63500000D03*
%TD*%
%TO.C,MH2*%
X161500000Y-63500000D03*
%TD*%
D12*
%TO.C,J1*%
X156630000Y-62230000D03*
D13*
X156630000Y-64770000D03*
X154090000Y-62230000D03*
X154090000Y-64770000D03*
X151550000Y-62230000D03*
X151550000Y-64770000D03*
X149010000Y-62230000D03*
X149010000Y-64770000D03*
X146470000Y-62230000D03*
X146470000Y-64770000D03*
X143930000Y-62230000D03*
X143930000Y-64770000D03*
X141390000Y-62230000D03*
X141390000Y-64770000D03*
X138850000Y-62230000D03*
X138850000Y-64770000D03*
X136310000Y-62230000D03*
X136310000Y-64770000D03*
X133770000Y-62230000D03*
X133770000Y-64770000D03*
X131230000Y-62230000D03*
X131230000Y-64770000D03*
X128690000Y-62230000D03*
X128690000Y-64770000D03*
X126150000Y-62230000D03*
X126150000Y-64770000D03*
X123610000Y-62230000D03*
X123610000Y-64770000D03*
X121070000Y-62230000D03*
X121070000Y-64770000D03*
X118530000Y-62230000D03*
X118530000Y-64770000D03*
X115990000Y-62230000D03*
X115990000Y-64770000D03*
X113450000Y-62230000D03*
X113450000Y-64770000D03*
X110910000Y-62230000D03*
X110910000Y-64770000D03*
X108370000Y-62230000D03*
X108370000Y-64770000D03*
%TD*%
%LPD*%
M02*
