M48
; DRILL file {KiCad 9.0.2+dfsg-1} date 2026-07-30T17:16:37+0200
; FORMAT={-:-/ absolute / metric / decimal}
; #@! TF.CreationDate,2026-07-30T17:16:37+02:00
; #@! TF.GenerationSoftware,Kicad,Pcbnew,9.0.2+dfsg-1
; #@! TF.FileFunction,Plated,1,2,PTH
FMAT,2
METRIC
; #@! TA.AperFunction,Plated,PTH,ComponentDrill
T1C1.000
%
G90
G05
T1
X108.37Y-62.23
X108.37Y-64.77
X108.37Y-67.31
X108.37Y-69.85
X110.91Y-62.23
X110.91Y-64.77
X110.91Y-67.31
X110.91Y-69.85
X113.45Y-62.23
X113.45Y-64.77
X113.45Y-67.31
X113.45Y-69.85
X115.99Y-62.23
X115.99Y-64.77
X115.99Y-67.31
X115.99Y-69.85
X118.53Y-62.23
X118.53Y-64.77
X118.53Y-67.31
X118.53Y-69.85
X121.07Y-62.23
X121.07Y-64.77
X121.07Y-67.31
X121.07Y-69.85
X123.61Y-62.23
X123.61Y-64.77
X123.61Y-67.31
X123.61Y-69.85
X126.15Y-62.23
X126.15Y-64.77
X126.15Y-67.31
X126.15Y-69.85
X128.69Y-62.23
X128.69Y-64.77
X128.69Y-67.31
X128.69Y-69.85
X131.23Y-62.23
X131.23Y-64.77
X131.23Y-67.31
X131.23Y-69.85
X133.77Y-62.23
X133.77Y-64.77
X133.77Y-67.31
X133.77Y-69.85
X136.31Y-62.23
X136.31Y-64.77
X136.31Y-67.31
X136.31Y-69.85
X138.85Y-62.23
X138.85Y-64.77
X138.85Y-67.31
X138.85Y-69.85
X141.39Y-62.23
X141.39Y-64.77
X141.39Y-67.31
X141.39Y-69.85
X143.93Y-62.23
X143.93Y-64.77
X143.93Y-67.31
X143.93Y-69.85
X146.47Y-62.23
X146.47Y-64.77
X146.47Y-67.31
X146.47Y-69.85
X149.01Y-62.23
X149.01Y-64.77
X149.01Y-67.31
X149.01Y-69.85
X151.55Y-62.23
X151.55Y-64.77
X151.55Y-67.31
X151.55Y-69.85
X154.09Y-62.23
X154.09Y-64.77
X154.09Y-67.31
X154.09Y-69.85
X156.63Y-62.23
X156.63Y-64.77
X156.63Y-67.31
X156.63Y-69.85
M30
