%TF.GenerationSoftware,KiCad,Pcbnew,9.0.2+dfsg-1*%
%TF.CreationDate,2026-07-30T12:54:42+02:00*%
%TF.ProjectId,AskSin-Adapter-J1,41736b53-696e-42d4-9164-61707465722d,rev?*%
%TF.SameCoordinates,Original*%
%TF.FileFunction,Legend,Top*%
%TF.FilePolarity,Positive*%
%FSLAX46Y46*%
G04 Gerber Fmt 4.6, Leading zero omitted, Abs format (unit mm)*
G04 Created by KiCad (PCBNEW 9.0.2+dfsg-1) date 2026-07-30 12:54:42*
%MOMM*%
%LPD*%
G01*
G04 APERTURE LIST*
%ADD10C,0.135000*%
%ADD11C,0.120000*%
%ADD12C,2.700000*%
%ADD13R,1.700000X1.700000*%
%ADD14C,1.700000*%
G04 APERTURE END LIST*
D10*
X114628569Y-70552194D02*
X115057141Y-70552194D01*
X114542855Y-70809337D02*
X114842855Y-69909337D01*
X114842855Y-69909337D02*
X115142855Y-70809337D01*
X115399998Y-70766480D02*
X115485712Y-70809337D01*
X115485712Y-70809337D02*
X115657141Y-70809337D01*
X115657141Y-70809337D02*
X115742855Y-70766480D01*
X115742855Y-70766480D02*
X115785712Y-70680765D01*
X115785712Y-70680765D02*
X115785712Y-70637908D01*
X115785712Y-70637908D02*
X115742855Y-70552194D01*
X115742855Y-70552194D02*
X115657141Y-70509337D01*
X115657141Y-70509337D02*
X115528570Y-70509337D01*
X115528570Y-70509337D02*
X115442855Y-70466480D01*
X115442855Y-70466480D02*
X115399998Y-70380765D01*
X115399998Y-70380765D02*
X115399998Y-70337908D01*
X115399998Y-70337908D02*
X115442855Y-70252194D01*
X115442855Y-70252194D02*
X115528570Y-70209337D01*
X115528570Y-70209337D02*
X115657141Y-70209337D01*
X115657141Y-70209337D02*
X115742855Y-70252194D01*
X116171426Y-70809337D02*
X116171426Y-69909337D01*
X116257141Y-70466480D02*
X116514283Y-70809337D01*
X116514283Y-70209337D02*
X116171426Y-70552194D01*
X116857140Y-70766480D02*
X116985712Y-70809337D01*
X116985712Y-70809337D02*
X117199997Y-70809337D01*
X117199997Y-70809337D02*
X117285712Y-70766480D01*
X117285712Y-70766480D02*
X117328569Y-70723622D01*
X117328569Y-70723622D02*
X117371426Y-70637908D01*
X117371426Y-70637908D02*
X117371426Y-70552194D01*
X117371426Y-70552194D02*
X117328569Y-70466480D01*
X117328569Y-70466480D02*
X117285712Y-70423622D01*
X117285712Y-70423622D02*
X117199997Y-70380765D01*
X117199997Y-70380765D02*
X117028569Y-70337908D01*
X117028569Y-70337908D02*
X116942854Y-70295051D01*
X116942854Y-70295051D02*
X116899997Y-70252194D01*
X116899997Y-70252194D02*
X116857140Y-70166480D01*
X116857140Y-70166480D02*
X116857140Y-70080765D01*
X116857140Y-70080765D02*
X116899997Y-69995051D01*
X116899997Y-69995051D02*
X116942854Y-69952194D01*
X116942854Y-69952194D02*
X117028569Y-69909337D01*
X117028569Y-69909337D02*
X117242854Y-69909337D01*
X117242854Y-69909337D02*
X117371426Y-69952194D01*
X117757140Y-70809337D02*
X117757140Y-70209337D01*
X117757140Y-69909337D02*
X117714283Y-69952194D01*
X117714283Y-69952194D02*
X117757140Y-69995051D01*
X117757140Y-69995051D02*
X117799997Y-69952194D01*
X117799997Y-69952194D02*
X117757140Y-69909337D01*
X117757140Y-69909337D02*
X117757140Y-69995051D01*
X118185711Y-70209337D02*
X118185711Y-70809337D01*
X118185711Y-70295051D02*
X118228568Y-70252194D01*
X118228568Y-70252194D02*
X118314283Y-70209337D01*
X118314283Y-70209337D02*
X118442854Y-70209337D01*
X118442854Y-70209337D02*
X118528568Y-70252194D01*
X118528568Y-70252194D02*
X118571426Y-70337908D01*
X118571426Y-70337908D02*
X118571426Y-70809337D01*
X119942854Y-69909337D02*
X119942854Y-70552194D01*
X119942854Y-70552194D02*
X119899997Y-70680765D01*
X119899997Y-70680765D02*
X119814283Y-70766480D01*
X119814283Y-70766480D02*
X119685711Y-70809337D01*
X119685711Y-70809337D02*
X119599997Y-70809337D01*
X120842854Y-70809337D02*
X120328568Y-70809337D01*
X120585711Y-70809337D02*
X120585711Y-69909337D01*
X120585711Y-69909337D02*
X120499997Y-70037908D01*
X120499997Y-70037908D02*
X120414282Y-70123622D01*
X120414282Y-70123622D02*
X120328568Y-70166480D01*
X121228568Y-70466480D02*
X121914283Y-70466480D01*
X122299997Y-70552194D02*
X122728569Y-70552194D01*
X122214283Y-70809337D02*
X122514283Y-69909337D01*
X122514283Y-69909337D02*
X122814283Y-70809337D01*
X123499998Y-70809337D02*
X123499998Y-69909337D01*
X123499998Y-70766480D02*
X123414283Y-70809337D01*
X123414283Y-70809337D02*
X123242855Y-70809337D01*
X123242855Y-70809337D02*
X123157140Y-70766480D01*
X123157140Y-70766480D02*
X123114283Y-70723622D01*
X123114283Y-70723622D02*
X123071426Y-70637908D01*
X123071426Y-70637908D02*
X123071426Y-70380765D01*
X123071426Y-70380765D02*
X123114283Y-70295051D01*
X123114283Y-70295051D02*
X123157140Y-70252194D01*
X123157140Y-70252194D02*
X123242855Y-70209337D01*
X123242855Y-70209337D02*
X123414283Y-70209337D01*
X123414283Y-70209337D02*
X123499998Y-70252194D01*
X124314284Y-70809337D02*
X124314284Y-70337908D01*
X124314284Y-70337908D02*
X124271426Y-70252194D01*
X124271426Y-70252194D02*
X124185712Y-70209337D01*
X124185712Y-70209337D02*
X124014284Y-70209337D01*
X124014284Y-70209337D02*
X123928569Y-70252194D01*
X124314284Y-70766480D02*
X124228569Y-70809337D01*
X124228569Y-70809337D02*
X124014284Y-70809337D01*
X124014284Y-70809337D02*
X123928569Y-70766480D01*
X123928569Y-70766480D02*
X123885712Y-70680765D01*
X123885712Y-70680765D02*
X123885712Y-70595051D01*
X123885712Y-70595051D02*
X123928569Y-70509337D01*
X123928569Y-70509337D02*
X124014284Y-70466480D01*
X124014284Y-70466480D02*
X124228569Y-70466480D01*
X124228569Y-70466480D02*
X124314284Y-70423622D01*
X124742855Y-70209337D02*
X124742855Y-71109337D01*
X124742855Y-70252194D02*
X124828570Y-70209337D01*
X124828570Y-70209337D02*
X124999998Y-70209337D01*
X124999998Y-70209337D02*
X125085712Y-70252194D01*
X125085712Y-70252194D02*
X125128570Y-70295051D01*
X125128570Y-70295051D02*
X125171427Y-70380765D01*
X125171427Y-70380765D02*
X125171427Y-70637908D01*
X125171427Y-70637908D02*
X125128570Y-70723622D01*
X125128570Y-70723622D02*
X125085712Y-70766480D01*
X125085712Y-70766480D02*
X124999998Y-70809337D01*
X124999998Y-70809337D02*
X124828570Y-70809337D01*
X124828570Y-70809337D02*
X124742855Y-70766480D01*
X125428570Y-70209337D02*
X125771427Y-70209337D01*
X125557141Y-69909337D02*
X125557141Y-70680765D01*
X125557141Y-70680765D02*
X125599998Y-70766480D01*
X125599998Y-70766480D02*
X125685713Y-70809337D01*
X125685713Y-70809337D02*
X125771427Y-70809337D01*
X126414284Y-70766480D02*
X126328570Y-70809337D01*
X126328570Y-70809337D02*
X126157142Y-70809337D01*
X126157142Y-70809337D02*
X126071427Y-70766480D01*
X126071427Y-70766480D02*
X126028570Y-70680765D01*
X126028570Y-70680765D02*
X126028570Y-70337908D01*
X126028570Y-70337908D02*
X126071427Y-70252194D01*
X126071427Y-70252194D02*
X126157142Y-70209337D01*
X126157142Y-70209337D02*
X126328570Y-70209337D01*
X126328570Y-70209337D02*
X126414284Y-70252194D01*
X126414284Y-70252194D02*
X126457142Y-70337908D01*
X126457142Y-70337908D02*
X126457142Y-70423622D01*
X126457142Y-70423622D02*
X126028570Y-70509337D01*
X126842856Y-70809337D02*
X126842856Y-70209337D01*
X126842856Y-70380765D02*
X126885713Y-70295051D01*
X126885713Y-70295051D02*
X126928571Y-70252194D01*
X126928571Y-70252194D02*
X127014285Y-70209337D01*
X127014285Y-70209337D02*
X127099999Y-70209337D01*
X127999999Y-70209337D02*
X128214285Y-70809337D01*
X128214285Y-70809337D02*
X128428570Y-70209337D01*
X129242856Y-70809337D02*
X128728570Y-70809337D01*
X128985713Y-70809337D02*
X128985713Y-69909337D01*
X128985713Y-69909337D02*
X128899999Y-70037908D01*
X128899999Y-70037908D02*
X128814284Y-70123622D01*
X128814284Y-70123622D02*
X128728570Y-70166480D01*
X129628570Y-70723622D02*
X129671427Y-70766480D01*
X129671427Y-70766480D02*
X129628570Y-70809337D01*
X129628570Y-70809337D02*
X129585713Y-70766480D01*
X129585713Y-70766480D02*
X129628570Y-70723622D01*
X129628570Y-70723622D02*
X129628570Y-70809337D01*
X130228570Y-69909337D02*
X130314284Y-69909337D01*
X130314284Y-69909337D02*
X130399998Y-69952194D01*
X130399998Y-69952194D02*
X130442856Y-69995051D01*
X130442856Y-69995051D02*
X130485713Y-70080765D01*
X130485713Y-70080765D02*
X130528570Y-70252194D01*
X130528570Y-70252194D02*
X130528570Y-70466480D01*
X130528570Y-70466480D02*
X130485713Y-70637908D01*
X130485713Y-70637908D02*
X130442856Y-70723622D01*
X130442856Y-70723622D02*
X130399998Y-70766480D01*
X130399998Y-70766480D02*
X130314284Y-70809337D01*
X130314284Y-70809337D02*
X130228570Y-70809337D01*
X130228570Y-70809337D02*
X130142856Y-70766480D01*
X130142856Y-70766480D02*
X130099998Y-70723622D01*
X130099998Y-70723622D02*
X130057141Y-70637908D01*
X130057141Y-70637908D02*
X130014284Y-70466480D01*
X130014284Y-70466480D02*
X130014284Y-70252194D01*
X130014284Y-70252194D02*
X130057141Y-70080765D01*
X130057141Y-70080765D02*
X130099998Y-69995051D01*
X130099998Y-69995051D02*
X130142856Y-69952194D01*
X130142856Y-69952194D02*
X130228570Y-69909337D01*
X131514284Y-70509337D02*
X132285713Y-70509337D01*
X133271426Y-70552194D02*
X133699998Y-70552194D01*
X133185712Y-70809337D02*
X133485712Y-69909337D01*
X133485712Y-69909337D02*
X133785712Y-70809337D01*
X134085712Y-70209337D02*
X134085712Y-70809337D01*
X134085712Y-70295051D02*
X134128569Y-70252194D01*
X134128569Y-70252194D02*
X134214284Y-70209337D01*
X134214284Y-70209337D02*
X134342855Y-70209337D01*
X134342855Y-70209337D02*
X134428569Y-70252194D01*
X134428569Y-70252194D02*
X134471427Y-70337908D01*
X134471427Y-70337908D02*
X134471427Y-70809337D01*
X135285713Y-70809337D02*
X135285713Y-70337908D01*
X135285713Y-70337908D02*
X135242855Y-70252194D01*
X135242855Y-70252194D02*
X135157141Y-70209337D01*
X135157141Y-70209337D02*
X134985713Y-70209337D01*
X134985713Y-70209337D02*
X134899998Y-70252194D01*
X135285713Y-70766480D02*
X135199998Y-70809337D01*
X135199998Y-70809337D02*
X134985713Y-70809337D01*
X134985713Y-70809337D02*
X134899998Y-70766480D01*
X134899998Y-70766480D02*
X134857141Y-70680765D01*
X134857141Y-70680765D02*
X134857141Y-70595051D01*
X134857141Y-70595051D02*
X134899998Y-70509337D01*
X134899998Y-70509337D02*
X134985713Y-70466480D01*
X134985713Y-70466480D02*
X135199998Y-70466480D01*
X135199998Y-70466480D02*
X135285713Y-70423622D01*
X135842856Y-70809337D02*
X135757141Y-70766480D01*
X135757141Y-70766480D02*
X135714284Y-70680765D01*
X135714284Y-70680765D02*
X135714284Y-69909337D01*
X136099999Y-70209337D02*
X136314285Y-70809337D01*
X136528570Y-70209337D02*
X136314285Y-70809337D01*
X136314285Y-70809337D02*
X136228570Y-71023622D01*
X136228570Y-71023622D02*
X136185713Y-71066480D01*
X136185713Y-71066480D02*
X136099999Y-71109337D01*
X136785713Y-70209337D02*
X137257142Y-70209337D01*
X137257142Y-70209337D02*
X136785713Y-70809337D01*
X136785713Y-70809337D02*
X137257142Y-70809337D01*
X137942855Y-70766480D02*
X137857141Y-70809337D01*
X137857141Y-70809337D02*
X137685713Y-70809337D01*
X137685713Y-70809337D02*
X137599998Y-70766480D01*
X137599998Y-70766480D02*
X137557141Y-70680765D01*
X137557141Y-70680765D02*
X137557141Y-70337908D01*
X137557141Y-70337908D02*
X137599998Y-70252194D01*
X137599998Y-70252194D02*
X137685713Y-70209337D01*
X137685713Y-70209337D02*
X137857141Y-70209337D01*
X137857141Y-70209337D02*
X137942855Y-70252194D01*
X137942855Y-70252194D02*
X137985713Y-70337908D01*
X137985713Y-70337908D02*
X137985713Y-70423622D01*
X137985713Y-70423622D02*
X137557141Y-70509337D01*
X138371427Y-70809337D02*
X138371427Y-70209337D01*
X138371427Y-70380765D02*
X138414284Y-70295051D01*
X138414284Y-70295051D02*
X138457142Y-70252194D01*
X138457142Y-70252194D02*
X138542856Y-70209337D01*
X138542856Y-70209337D02*
X138628570Y-70209337D01*
X139742856Y-70809337D02*
X139657141Y-70766480D01*
X139657141Y-70766480D02*
X139614284Y-70723622D01*
X139614284Y-70723622D02*
X139571427Y-70637908D01*
X139571427Y-70637908D02*
X139571427Y-70380765D01*
X139571427Y-70380765D02*
X139614284Y-70295051D01*
X139614284Y-70295051D02*
X139657141Y-70252194D01*
X139657141Y-70252194D02*
X139742856Y-70209337D01*
X139742856Y-70209337D02*
X139871427Y-70209337D01*
X139871427Y-70209337D02*
X139957141Y-70252194D01*
X139957141Y-70252194D02*
X139999999Y-70295051D01*
X139999999Y-70295051D02*
X140042856Y-70380765D01*
X140042856Y-70380765D02*
X140042856Y-70637908D01*
X140042856Y-70637908D02*
X139999999Y-70723622D01*
X139999999Y-70723622D02*
X139957141Y-70766480D01*
X139957141Y-70766480D02*
X139871427Y-70809337D01*
X139871427Y-70809337D02*
X139742856Y-70809337D01*
X140428570Y-70809337D02*
X140428570Y-69909337D01*
X140428570Y-70252194D02*
X140514285Y-70209337D01*
X140514285Y-70209337D02*
X140685713Y-70209337D01*
X140685713Y-70209337D02*
X140771427Y-70252194D01*
X140771427Y-70252194D02*
X140814285Y-70295051D01*
X140814285Y-70295051D02*
X140857142Y-70380765D01*
X140857142Y-70380765D02*
X140857142Y-70637908D01*
X140857142Y-70637908D02*
X140814285Y-70723622D01*
X140814285Y-70723622D02*
X140771427Y-70766480D01*
X140771427Y-70766480D02*
X140685713Y-70809337D01*
X140685713Y-70809337D02*
X140514285Y-70809337D01*
X140514285Y-70809337D02*
X140428570Y-70766480D01*
X141585713Y-70766480D02*
X141499999Y-70809337D01*
X141499999Y-70809337D02*
X141328571Y-70809337D01*
X141328571Y-70809337D02*
X141242856Y-70766480D01*
X141242856Y-70766480D02*
X141199999Y-70680765D01*
X141199999Y-70680765D02*
X141199999Y-70337908D01*
X141199999Y-70337908D02*
X141242856Y-70252194D01*
X141242856Y-70252194D02*
X141328571Y-70209337D01*
X141328571Y-70209337D02*
X141499999Y-70209337D01*
X141499999Y-70209337D02*
X141585713Y-70252194D01*
X141585713Y-70252194D02*
X141628571Y-70337908D01*
X141628571Y-70337908D02*
X141628571Y-70423622D01*
X141628571Y-70423622D02*
X141199999Y-70509337D01*
X142014285Y-70209337D02*
X142014285Y-70809337D01*
X142014285Y-70295051D02*
X142057142Y-70252194D01*
X142057142Y-70252194D02*
X142142857Y-70209337D01*
X142142857Y-70209337D02*
X142271428Y-70209337D01*
X142271428Y-70209337D02*
X142357142Y-70252194D01*
X142357142Y-70252194D02*
X142400000Y-70337908D01*
X142400000Y-70337908D02*
X142400000Y-70809337D01*
X143900000Y-70809337D02*
X143900000Y-70337908D01*
X143900000Y-70337908D02*
X143857142Y-70252194D01*
X143857142Y-70252194D02*
X143771428Y-70209337D01*
X143771428Y-70209337D02*
X143600000Y-70209337D01*
X143600000Y-70209337D02*
X143514285Y-70252194D01*
X143900000Y-70766480D02*
X143814285Y-70809337D01*
X143814285Y-70809337D02*
X143600000Y-70809337D01*
X143600000Y-70809337D02*
X143514285Y-70766480D01*
X143514285Y-70766480D02*
X143471428Y-70680765D01*
X143471428Y-70680765D02*
X143471428Y-70595051D01*
X143471428Y-70595051D02*
X143514285Y-70509337D01*
X143514285Y-70509337D02*
X143600000Y-70466480D01*
X143600000Y-70466480D02*
X143814285Y-70466480D01*
X143814285Y-70466480D02*
X143900000Y-70423622D01*
X144714286Y-70209337D02*
X144714286Y-70809337D01*
X144328571Y-70209337D02*
X144328571Y-70680765D01*
X144328571Y-70680765D02*
X144371428Y-70766480D01*
X144371428Y-70766480D02*
X144457143Y-70809337D01*
X144457143Y-70809337D02*
X144585714Y-70809337D01*
X144585714Y-70809337D02*
X144671428Y-70766480D01*
X144671428Y-70766480D02*
X144714286Y-70723622D01*
X145014286Y-70209337D02*
X145357143Y-70209337D01*
X145142857Y-70809337D02*
X145142857Y-70037908D01*
X145142857Y-70037908D02*
X145185714Y-69952194D01*
X145185714Y-69952194D02*
X145271429Y-69909337D01*
X145271429Y-69909337D02*
X145357143Y-69909337D01*
X145614286Y-70766480D02*
X145700000Y-70809337D01*
X145700000Y-70809337D02*
X145871429Y-70809337D01*
X145871429Y-70809337D02*
X145957143Y-70766480D01*
X145957143Y-70766480D02*
X146000000Y-70680765D01*
X146000000Y-70680765D02*
X146000000Y-70637908D01*
X146000000Y-70637908D02*
X145957143Y-70552194D01*
X145957143Y-70552194D02*
X145871429Y-70509337D01*
X145871429Y-70509337D02*
X145742858Y-70509337D01*
X145742858Y-70509337D02*
X145657143Y-70466480D01*
X145657143Y-70466480D02*
X145614286Y-70380765D01*
X145614286Y-70380765D02*
X145614286Y-70337908D01*
X145614286Y-70337908D02*
X145657143Y-70252194D01*
X145657143Y-70252194D02*
X145742858Y-70209337D01*
X145742858Y-70209337D02*
X145871429Y-70209337D01*
X145871429Y-70209337D02*
X145957143Y-70252194D01*
X146257143Y-70209337D02*
X146600000Y-70209337D01*
X146385714Y-69909337D02*
X146385714Y-70680765D01*
X146385714Y-70680765D02*
X146428571Y-70766480D01*
X146428571Y-70766480D02*
X146514286Y-70809337D01*
X146514286Y-70809337D02*
X146600000Y-70809337D01*
X147242857Y-70766480D02*
X147157143Y-70809337D01*
X147157143Y-70809337D02*
X146985715Y-70809337D01*
X146985715Y-70809337D02*
X146900000Y-70766480D01*
X146900000Y-70766480D02*
X146857143Y-70680765D01*
X146857143Y-70680765D02*
X146857143Y-70337908D01*
X146857143Y-70337908D02*
X146900000Y-70252194D01*
X146900000Y-70252194D02*
X146985715Y-70209337D01*
X146985715Y-70209337D02*
X147157143Y-70209337D01*
X147157143Y-70209337D02*
X147242857Y-70252194D01*
X147242857Y-70252194D02*
X147285715Y-70337908D01*
X147285715Y-70337908D02*
X147285715Y-70423622D01*
X147285715Y-70423622D02*
X146857143Y-70509337D01*
X148057144Y-70766480D02*
X147971429Y-70809337D01*
X147971429Y-70809337D02*
X147800001Y-70809337D01*
X147800001Y-70809337D02*
X147714286Y-70766480D01*
X147714286Y-70766480D02*
X147671429Y-70723622D01*
X147671429Y-70723622D02*
X147628572Y-70637908D01*
X147628572Y-70637908D02*
X147628572Y-70380765D01*
X147628572Y-70380765D02*
X147671429Y-70295051D01*
X147671429Y-70295051D02*
X147714286Y-70252194D01*
X147714286Y-70252194D02*
X147800001Y-70209337D01*
X147800001Y-70209337D02*
X147971429Y-70209337D01*
X147971429Y-70209337D02*
X148057144Y-70252194D01*
X148442858Y-70809337D02*
X148442858Y-69909337D01*
X148528573Y-70466480D02*
X148785715Y-70809337D01*
X148785715Y-70209337D02*
X148442858Y-70552194D01*
X149514286Y-70766480D02*
X149428572Y-70809337D01*
X149428572Y-70809337D02*
X149257144Y-70809337D01*
X149257144Y-70809337D02*
X149171429Y-70766480D01*
X149171429Y-70766480D02*
X149128572Y-70680765D01*
X149128572Y-70680765D02*
X149128572Y-70337908D01*
X149128572Y-70337908D02*
X149171429Y-70252194D01*
X149171429Y-70252194D02*
X149257144Y-70209337D01*
X149257144Y-70209337D02*
X149428572Y-70209337D01*
X149428572Y-70209337D02*
X149514286Y-70252194D01*
X149514286Y-70252194D02*
X149557144Y-70337908D01*
X149557144Y-70337908D02*
X149557144Y-70423622D01*
X149557144Y-70423622D02*
X149128572Y-70509337D01*
X149942858Y-70209337D02*
X149942858Y-70809337D01*
X149942858Y-70295051D02*
X149985715Y-70252194D01*
X149985715Y-70252194D02*
X150071430Y-70209337D01*
X150071430Y-70209337D02*
X150200001Y-70209337D01*
X150200001Y-70209337D02*
X150285715Y-70252194D01*
X150285715Y-70252194D02*
X150328573Y-70337908D01*
X150328573Y-70337908D02*
X150328573Y-70809337D01*
D11*
%TO.C,J2*%
X106990000Y-68690000D02*
X106990000Y-67310000D01*
X108370000Y-68690000D02*
X106990000Y-68690000D01*
X109640000Y-65930000D02*
X158010000Y-65930000D01*
X109640000Y-68690000D02*
X109640000Y-65930000D01*
X109640000Y-68690000D02*
X158010000Y-68690000D01*
X158010000Y-68690000D02*
X158010000Y-65930000D01*
%TD*%
%LPC*%
D12*
%TO.C,MH1*%
X103500000Y-63500000D03*
%TD*%
%TO.C,MH2*%
X161500000Y-63500000D03*
%TD*%
D13*
%TO.C,J2*%
X108370000Y-67310000D03*
D14*
X110910000Y-67310000D03*
X113450000Y-67310000D03*
X115990000Y-67310000D03*
X118530000Y-67310000D03*
X121070000Y-67310000D03*
X123610000Y-67310000D03*
X126150000Y-67310000D03*
X128690000Y-67310000D03*
X131230000Y-67310000D03*
X133770000Y-67310000D03*
X136310000Y-67310000D03*
X138850000Y-67310000D03*
X141390000Y-67310000D03*
X143930000Y-67310000D03*
X146470000Y-67310000D03*
X149010000Y-67310000D03*
X151550000Y-67310000D03*
X154090000Y-67310000D03*
X156630000Y-67310000D03*
%TD*%
D13*
%TO.C,J1*%
X108370000Y-64769999D03*
D14*
X108370000Y-62229999D03*
X110910000Y-64769999D03*
X110910000Y-62229999D03*
X113450000Y-64769999D03*
X113450000Y-62229999D03*
X115990000Y-64769999D03*
X115990000Y-62229999D03*
X118530000Y-64769999D03*
X118530000Y-62229999D03*
X121070000Y-64769999D03*
X121070000Y-62229999D03*
X123610000Y-64769999D03*
X123610000Y-62229999D03*
X126150000Y-64769999D03*
X126150000Y-62229999D03*
X128690000Y-64769999D03*
X128690000Y-62229999D03*
X131230000Y-64769999D03*
X131230000Y-62229999D03*
X133770000Y-64769999D03*
X133770000Y-62229999D03*
X136310000Y-64769999D03*
X136310000Y-62229999D03*
X138850000Y-64769999D03*
X138850000Y-62229999D03*
X141390000Y-64769999D03*
X141390000Y-62229999D03*
X143930000Y-64769999D03*
X143930000Y-62229999D03*
X146470000Y-64769999D03*
X146470000Y-62229999D03*
X149010000Y-64769999D03*
X149010000Y-62229999D03*
X151550000Y-64769999D03*
X151550000Y-62229999D03*
X154090000Y-64769999D03*
X154090000Y-62229999D03*
X156630000Y-64769999D03*
X156630000Y-62229999D03*
%TD*%
%LPD*%
M02*
