<svg xmlns="http://www.w3.org/2000/svg" width="1000" height="620" viewBox="0 0 1000 620"><rect width="1000" height="620" fill="#1f2529"/><rect width="1000" height="46" fill="#272e33"/><text x="24" y="28" font-family="DejaVu Sans, sans-serif" font-size="15" fill="#d6dde1" font-weight="bold">Dashboards</text><text x="24" y="86" font-family="DejaVu Sans, sans-serif" font-size="14" fill="#2b7a8c" font-weight="bold">📁 AskSin-Analyzer</text><rect x="40" y="108" width="920" height="46" rx="6" fill="#272e33" stroke="#3a4348"/><text x="62" y="137" font-family="DejaVu Sans, sans-serif" font-size="14" fill="#d6dde1">Leitstand</text><text x="520" y="137" font-family="DejaVu Sans, sans-serif" font-size="12" fill="#8d999f">Läuft alles?</text><circle cx="936" cy="131" r="12" fill="#2b7a8c"/><text x="936" y="136" text-anchor="middle" font-size="13" font-weight="bold" fill="#ffffff" font-family="DejaVu Sans, sans-serif">1</text><rect x="40" y="166" width="920" height="46" rx="6" fill="#272e33" stroke="#3a4348"/><text x="62" y="195" font-family="DejaVu Sans, sans-serif" font-size="14" fill="#d6dde1">Funkqualität</text><text x="520" y="195" font-family="DejaVu Sans, sans-serif" font-size="12" fill="#8d999f">Wer wird wie gut gehört?</text><circle cx="936" cy="189" r="12" fill="#2b7a8c"/><text x="936" y="194" text-anchor="middle" font-size="13" font-weight="bold" fill="#ffffff" font-family="DejaVu Sans, sans-serif">2</text><rect x="40" y="224" width="920" height="46" rx="6" fill="#272e33" stroke="#3a4348"/><text x="62" y="253" font-family="DejaVu Sans, sans-serif" font-size="14" fill="#d6dde1">Duty-Cycle-Wächter</text><text x="520" y="253" font-family="DejaVu Sans, sans-serif" font-size="12" fill="#8d999f">Wer sendet zu viel?</text><circle cx="936" cy="247" r="12" fill="#2b7a8c"/><text x="936" y="252" text-anchor="middle" font-size="13" font-weight="bold" fill="#ffffff" font-family="DejaVu Sans, sans-serif">3</text><rect x="40" y="282" width="920" height="46" rx="6" fill="#272e33" stroke="#3a4348"/><text x="62" y="311" font-family="DejaVu Sans, sans-serif" font-size="14" fill="#d6dde1">Gerätedetail</text><text x="520" y="311" font-family="DejaVu Sans, sans-serif" font-size="12" fill="#8d999f">Ein Gerät über alle Standorte</text><circle cx="936" cy="305" r="12" fill="#2b7a8c"/><text x="936" y="310" text-anchor="middle" font-size="13" font-weight="bold" fill="#ffffff" font-family="DejaVu Sans, sans-serif">4</text><rect x="40" y="340" width="920" height="46" rx="6" fill="#272e33" stroke="#3a4348"/><text x="62" y="369" font-family="DejaVu Sans, sans-serif" font-size="14" fill="#d6dde1">Störungssuche</text><text x="520" y="369" font-family="DejaVu Sans, sans-serif" font-size="12" fill="#8d999f">Wann stört was?</text><circle cx="936" cy="363" r="12" fill="#2b7a8c"/><text x="936" y="368" text-anchor="middle" font-size="13" font-weight="bold" fill="#ffffff" font-family="DejaVu Sans, sans-serif">5</text><rect x="40" y="398" width="920" height="46" rx="6" fill="#272e33" stroke="#3a4348"/><text x="62" y="427" font-family="DejaVu Sans, sans-serif" font-size="14" fill="#d6dde1">Batterie- und Ausfallwächter</text><text x="520" y="427" font-family="DejaVu Sans, sans-serif" font-size="12" fill="#8d999f">Wer schweigt?</text><circle cx="936" cy="421" r="12" fill="#2b7a8c"/><text x="936" y="426" text-anchor="middle" font-size="13" font-weight="bold" fill="#ffffff" font-family="DejaVu Sans, sans-serif">6</text><rect x="40" y="456" width="920" height="46" rx="6" fill="#272e33" stroke="#3a4348"/><text x="62" y="485" font-family="DejaVu Sans, sans-serif" font-size="14" fill="#d6dde1">Verbund-Vergleich</text><text x="520" y="485" font-family="DejaVu Sans, sans-serif" font-size="12" fill="#8d999f">Die Funkloch-Karte</text><circle cx="936" cy="479" r="12" fill="#2b7a8c"/><text x="936" y="484" text-anchor="middle" font-size="13" font-weight="bold" fill="#ffffff" font-family="DejaVu Sans, sans-serif">7</text><rect x="40" y="514" width="920" height="46" rx="6" fill="#272e33" stroke="#3a4348"/><text x="62" y="543" font-family="DejaVu Sans, sans-serif" font-size="14" fill="#d6dde1">Gerätezustand</text><text x="520" y="543" font-family="DejaVu Sans, sans-serif" font-size="12" fill="#8d999f">Wie geht es den Analyzern?</text><circle cx="936" cy="537" r="12" fill="#2b7a8c"/><text x="936" y="542" text-anchor="middle" font-size="13" font-weight="bold" fill="#ffffff" font-family="DejaVu Sans, sans-serif">8</text></svg>
